<svg width="362" height="100" viewBox="0 0 362 100" fill="none" xmlns="http://www.w3.org/2000/svg">
<path d="M8.132 17.108C7.184 17.108 6.308 16.952 5.504 16.64C4.7 16.316 4.004 15.866 3.416 15.29C2.828 14.714 2.366 14.036 2.03 13.256C1.706 12.476 1.544 11.624 1.544 10.7C1.544 9.776 1.706 8.924 2.03 8.144C2.366 7.364 2.828 6.686 3.416 6.11C4.016 5.534 4.718 5.09 5.522 4.778C6.326 4.454 7.202 4.292 8.15 4.292C9.062 4.292 9.92 4.448 10.724 4.76C11.528 5.06 12.206 5.516 12.758 6.128L11.912 6.974C11.396 6.446 10.826 6.068 10.202 5.84C9.578 5.6 8.906 5.48 8.186 5.48C7.43 5.48 6.728 5.612 6.08 5.876C5.432 6.128 4.868 6.494 4.388 6.974C3.908 7.442 3.53 7.994 3.254 8.63C2.99 9.254 2.858 9.944 2.858 10.7C2.858 11.456 2.99 12.152 3.254 12.788C3.53 13.412 3.908 13.964 4.388 14.444C4.868 14.912 5.432 15.278 6.08 15.542C6.728 15.794 7.43 15.92 8.186 15.92C8.906 15.92 9.578 15.8 10.202 15.56C10.826 15.32 11.396 14.936 11.912 14.408L12.758 15.254C12.206 15.866 11.528 16.328 10.724 16.64C9.92 16.952 9.056 17.108 8.132 17.108ZM20.9301 17V14.912L20.8761 14.57V11.078C20.8761 10.274 20.6481 9.656 20.1921 9.224C19.7481 8.792 19.0821 8.576 18.1941 8.576C17.5821 8.576 17.0001 8.678 16.4481 8.882C15.8961 9.086 15.4281 9.356 15.0441 9.692L14.4681 8.738C14.9481 8.33 15.5241 8.018 16.1961 7.802C16.8681 7.574 17.5761 7.46 18.3201 7.46C19.5441 7.46 20.4861 7.766 21.1461 8.378C21.8181 8.978 22.1541 9.896 22.1541 11.132V17H20.9301ZM17.6721 17.09C16.9641 17.09 16.3461 16.976 15.8181 16.748C15.3021 16.508 14.9061 16.184 14.6301 15.776C14.3541 15.356 14.2161 14.876 14.2161 14.336C14.2161 13.844 14.3301 13.4 14.5581 13.004C14.7981 12.596 15.1821 12.272 15.7101 12.032C16.2501 11.78 16.9701 11.654 17.8701 11.654H21.1281V12.608H17.9061C16.9941 12.608 16.3581 12.77 15.9981 13.094C15.6501 13.418 15.4761 13.82 15.4761 14.3C15.4761 14.84 15.6861 15.272 16.1061 15.596C16.5261 15.92 17.1141 16.082 17.8701 16.082C18.5901 16.082 19.2081 15.92 19.7241 15.596C20.2521 15.26 20.6361 14.78 20.8761 14.156L21.1641 15.038C20.9241 15.662 20.5041 16.16 19.9041 16.532C19.3161 16.904 18.5721 17.09 17.6721 17.09ZM25.5563 17V7.55H26.8523L31.1363 14.804H30.5963L34.9523 7.55H36.1403V17H34.9703V9.008L35.2043 9.116L31.1363 15.848H30.5603L26.4563 9.044L26.7263 8.99V17H25.5563ZM43.665 17.09C42.753 17.09 41.931 16.886 41.199 16.478C40.479 16.058 39.909 15.488 39.489 14.768C39.069 14.036 38.859 13.202 38.859 12.266C38.859 11.318 39.069 10.484 39.489 9.764C39.909 9.044 40.479 8.48 41.199 8.072C41.919 7.664 42.741 7.46 43.665 7.46C44.601 7.46 45.429 7.664 46.149 8.072C46.881 8.48 47.451 9.044 47.859 9.764C48.279 10.484 48.489 11.318 48.489 12.266C48.489 13.202 48.279 14.036 47.859 14.768C47.451 15.488 46.881 16.058 46.149 16.478C45.417 16.886 44.589 17.09 43.665 17.09ZM43.665 15.956C44.349 15.956 44.955 15.806 45.483 15.506C46.011 15.194 46.425 14.762 46.725 14.21C47.037 13.646 47.193 12.998 47.193 12.266C47.193 11.522 47.037 10.874 46.725 10.322C46.425 9.77 46.011 9.344 45.483 9.044C44.955 8.732 44.355 8.576 43.683 8.576C43.011 8.576 42.411 8.732 41.883 9.044C41.355 9.344 40.935 9.77 40.623 10.322C40.311 10.874 40.155 11.522 40.155 12.266C40.155 12.998 40.311 13.646 40.623 14.21C40.935 14.762 41.355 15.194 41.883 15.506C42.411 15.806 43.005 15.956 43.665 15.956ZM51.2203 17V7.55H55.3963C56.4643 7.55 57.3043 7.754 57.9163 8.162C58.5403 8.57 58.8523 9.17 58.8523 9.962C58.8523 10.73 58.5583 11.324 57.9703 11.744C57.3823 12.152 56.6083 12.356 55.6483 12.356L55.9003 11.978C57.0283 11.978 57.8563 12.188 58.3843 12.608C58.9123 13.028 59.1763 13.634 59.1763 14.426C59.1763 15.242 58.8763 15.878 58.2763 16.334C57.6883 16.778 56.7703 17 55.5223 17H51.2203ZM52.4623 15.992H55.4683C56.2723 15.992 56.8783 15.866 57.2863 15.614C57.7063 15.35 57.9163 14.93 57.9163 14.354C57.9163 13.778 57.7303 13.358 57.3583 13.094C56.9863 12.83 56.3983 12.698 55.5943 12.698H52.4623V15.992ZM52.4623 11.744H55.3063C56.0383 11.744 56.5963 11.606 56.9803 11.33C57.3763 11.054 57.5743 10.652 57.5743 10.124C57.5743 9.596 57.3763 9.2 56.9803 8.936C56.5963 8.672 56.0383 8.54 55.3063 8.54H52.4623V11.744ZM71.3875 17V7.55H72.6655V17H71.3875ZM66.1495 10.88C67.3375 10.892 68.2435 11.156 68.8675 11.672C69.4915 12.188 69.8035 12.932 69.8035 13.904C69.8035 14.912 69.4675 15.686 68.7955 16.226C68.1235 16.766 67.1635 17.03 65.9155 17.018L62.1715 17V7.55H63.4495V10.844L66.1495 10.88ZM65.8255 16.046C66.7135 16.058 67.3795 15.884 67.8235 15.524C68.2795 15.152 68.5075 14.612 68.5075 13.904C68.5075 13.196 68.2855 12.68 67.8415 12.356C67.3975 12.02 66.7255 11.846 65.8255 11.834L63.4495 11.798V16.01L65.8255 16.046ZM76.3043 17V7.55H80.4803C81.5483 7.55 82.3883 7.754 83.0003 8.162C83.6243 8.57 83.9363 9.17 83.9363 9.962C83.9363 10.73 83.6423 11.324 83.0543 11.744C82.4663 12.152 81.6923 12.356 80.7323 12.356L80.9843 11.978C82.1123 11.978 82.9403 12.188 83.4683 12.608C83.9963 13.028 84.2603 13.634 84.2603 14.426C84.2603 15.242 83.9603 15.878 83.3603 16.334C82.7723 16.778 81.8543 17 80.6063 17H76.3043ZM77.5463 15.992H80.5523C81.3563 15.992 81.9623 15.866 82.3703 15.614C82.7903 15.35 83.0003 14.93 83.0003 14.354C83.0003 13.778 82.8143 13.358 82.4423 13.094C82.0703 12.83 81.4823 12.698 80.6783 12.698H77.5463V15.992ZM77.5463 11.744H80.3903C81.1223 11.744 81.6803 11.606 82.0643 11.33C82.4603 11.054 82.6583 10.652 82.6583 10.124C82.6583 9.596 82.4603 9.2 82.0643 8.936C81.6803 8.672 81.1223 8.54 80.3903 8.54H77.5463V11.744ZM91.1435 17.09C90.2315 17.09 89.4095 16.886 88.6775 16.478C87.9575 16.058 87.3875 15.488 86.9675 14.768C86.5475 14.036 86.3375 13.202 86.3375 12.266C86.3375 11.318 86.5475 10.484 86.9675 9.764C87.3875 9.044 87.9575 8.48 88.6775 8.072C89.3975 7.664 90.2195 7.46 91.1435 7.46C92.0795 7.46 92.9075 7.664 93.6275 8.072C94.3595 8.48 94.9295 9.044 95.3375 9.764C95.7575 10.484 95.9675 11.318 95.9675 12.266C95.9675 13.202 95.7575 14.036 95.3375 14.768C94.9295 15.488 94.3595 16.058 93.6275 16.478C92.8955 16.886 92.0675 17.09 91.1435 17.09ZM91.1435 15.956C91.8275 15.956 92.4335 15.806 92.9615 15.506C93.4895 15.194 93.9035 14.762 94.2035 14.21C94.5155 13.646 94.6715 12.998 94.6715 12.266C94.6715 11.522 94.5155 10.874 94.2035 10.322C93.9035 9.77 93.4895 9.344 92.9615 9.044C92.4335 8.732 91.8335 8.576 91.1615 8.576C90.4895 8.576 89.8895 8.732 89.3615 9.044C88.8335 9.344 88.4135 9.77 88.1015 10.322C87.7895 10.874 87.6335 11.522 87.6335 12.266C87.6335 12.998 87.7895 13.646 88.1015 14.21C88.4135 14.762 88.8335 15.194 89.3615 15.506C89.8895 15.806 90.4835 15.956 91.1435 15.956ZM101.167 17.108C100.483 17.108 99.8045 17.012 99.1325 16.82C98.4605 16.628 97.8665 16.334 97.3505 15.938L97.7645 14.984C98.2205 15.32 98.7485 15.578 99.3485 15.758C99.9485 15.926 100.543 16.01 101.131 16.01C101.719 15.998 102.229 15.914 102.661 15.758C103.093 15.602 103.429 15.386 103.669 15.11C103.909 14.834 104.029 14.522 104.029 14.174C104.029 13.67 103.801 13.28 103.345 13.004C102.889 12.716 102.265 12.572 101.473 12.572H99.8525V11.636H101.383C101.851 11.636 102.265 11.576 102.625 11.456C102.985 11.336 103.261 11.162 103.453 10.934C103.657 10.706 103.759 10.436 103.759 10.124C103.759 9.788 103.639 9.5 103.399 9.26C103.171 9.02 102.853 8.84 102.445 8.72C102.037 8.6 101.575 8.54 101.059 8.54C100.591 8.552 100.105 8.624 99.6005 8.756C99.0965 8.876 98.5985 9.062 98.1065 9.314L97.7465 8.324C98.2985 8.036 98.8445 7.82 99.3845 7.676C99.9365 7.52 100.489 7.442 101.041 7.442C101.797 7.418 102.475 7.508 103.075 7.712C103.687 7.916 104.173 8.21 104.533 8.594C104.893 8.966 105.073 9.416 105.073 9.944C105.073 10.412 104.929 10.82 104.641 11.168C104.353 11.516 103.969 11.786 103.489 11.978C103.009 12.17 102.463 12.266 101.851 12.266L101.905 11.924C102.985 11.924 103.825 12.134 104.425 12.554C105.037 12.974 105.343 13.544 105.343 14.264C105.343 14.828 105.157 15.326 104.785 15.758C104.413 16.178 103.909 16.508 103.273 16.748C102.649 16.988 101.947 17.108 101.167 17.108ZM112.955 17V7.55H121.451V17H120.173V8.324L120.497 8.666H113.909L114.233 8.324V17H112.955ZM129.962 17.09C129.146 17.09 128.408 16.904 127.748 16.532C127.088 16.148 126.56 15.602 126.164 14.894C125.78 14.174 125.588 13.298 125.588 12.266C125.588 11.234 125.78 10.364 126.164 9.656C126.548 8.936 127.07 8.39 127.73 8.018C128.39 7.646 129.134 7.46 129.962 7.46C130.862 7.46 131.666 7.664 132.374 8.072C133.094 8.468 133.658 9.032 134.066 9.764C134.474 10.484 134.678 11.318 134.678 12.266C134.678 13.226 134.474 14.066 134.066 14.786C133.658 15.506 133.094 16.07 132.374 16.478C131.666 16.886 130.862 17.09 129.962 17.09ZM125.084 20.492V7.55H126.308V10.394L126.182 12.284L126.362 14.192V20.492H125.084ZM129.872 15.956C130.544 15.956 131.144 15.806 131.672 15.506C132.2 15.194 132.62 14.762 132.932 14.21C133.244 13.646 133.4 12.998 133.4 12.266C133.4 11.534 133.244 10.892 132.932 10.34C132.62 9.788 132.2 9.356 131.672 9.044C131.144 8.732 130.544 8.576 129.872 8.576C129.2 8.576 128.594 8.732 128.054 9.044C127.526 9.356 127.106 9.788 126.794 10.34C126.494 10.892 126.344 11.534 126.344 12.266C126.344 12.998 126.494 13.646 126.794 14.21C127.106 14.762 127.526 15.194 128.054 15.506C128.594 15.806 129.2 15.956 129.872 15.956ZM141.311 17.09C140.399 17.09 139.577 16.886 138.845 16.478C138.125 16.058 137.555 15.488 137.135 14.768C136.715 14.036 136.505 13.202 136.505 12.266C136.505 11.318 136.715 10.484 137.135 9.764C137.555 9.044 138.125 8.48 138.845 8.072C139.565 7.664 140.387 7.46 141.311 7.46C142.247 7.46 143.075 7.664 143.795 8.072C144.527 8.48 145.097 9.044 145.505 9.764C145.925 10.484 146.135 11.318 146.135 12.266C146.135 13.202 145.925 14.036 145.505 14.768C145.097 15.488 144.527 16.058 143.795 16.478C143.063 16.886 142.235 17.09 141.311 17.09ZM141.311 15.956C141.995 15.956 142.601 15.806 143.129 15.506C143.657 15.194 144.071 14.762 144.371 14.21C144.683 13.646 144.839 12.998 144.839 12.266C144.839 11.522 144.683 10.874 144.371 10.322C144.071 9.77 143.657 9.344 143.129 9.044C142.601 8.732 142.001 8.576 141.329 8.576C140.657 8.576 140.057 8.732 139.529 9.044C139.001 9.344 138.581 9.77 138.269 10.322C137.957 10.874 137.801 11.522 137.801 12.266C137.801 12.998 137.957 13.646 138.269 14.21C138.581 14.762 139.001 15.194 139.529 15.506C140.057 15.806 140.651 15.956 141.311 15.956ZM148.867 17V7.55H150.145V15.056L156.463 7.55H157.597V17H156.319V9.476L150.019 17H148.867ZM163.604 17.108C162.92 17.108 162.242 17.012 161.57 16.82C160.898 16.628 160.304 16.334 159.788 15.938L160.202 14.984C160.658 15.32 161.186 15.578 161.786 15.758C162.386 15.926 162.98 16.01 163.568 16.01C164.156 15.998 164.666 15.914 165.098 15.758C165.53 15.602 165.866 15.386 166.106 15.11C166.346 14.834 166.466 14.522 166.466 14.174C166.466 13.67 166.238 13.28 165.782 13.004C165.326 12.716 164.702 12.572 163.91 12.572H162.29V11.636H163.82C164.288 11.636 164.702 11.576 165.062 11.456C165.422 11.336 165.698 11.162 165.89 10.934C166.094 10.706 166.196 10.436 166.196 10.124C166.196 9.788 166.076 9.5 165.836 9.26C165.608 9.02 165.29 8.84 164.882 8.72C164.474 8.6 164.012 8.54 163.496 8.54C163.028 8.552 162.542 8.624 162.038 8.756C161.534 8.876 161.036 9.062 160.544 9.314L160.184 8.324C160.736 8.036 161.282 7.82 161.822 7.676C162.374 7.52 162.926 7.442 163.478 7.442C164.234 7.418 164.912 7.508 165.512 7.712C166.124 7.916 166.61 8.21 166.97 8.594C167.33 8.966 167.51 9.416 167.51 9.944C167.51 10.412 167.366 10.82 167.078 11.168C166.79 11.516 166.406 11.786 165.926 11.978C165.446 12.17 164.9 12.266 164.288 12.266L164.342 11.924C165.422 11.924 166.262 12.134 166.862 12.554C167.474 12.974 167.78 13.544 167.78 14.264C167.78 14.828 167.594 15.326 167.222 15.758C166.85 16.178 166.346 16.508 165.71 16.748C165.086 16.988 164.384 17.108 163.604 17.108ZM170.681 17V7.55H174.857C175.925 7.55 176.765 7.754 177.377 8.162C178.001 8.57 178.313 9.17 178.313 9.962C178.313 10.73 178.019 11.324 177.431 11.744C176.843 12.152 176.069 12.356 175.109 12.356L175.361 11.978C176.489 11.978 177.317 12.188 177.845 12.608C178.373 13.028 178.637 13.634 178.637 14.426C178.637 15.242 178.337 15.878 177.737 16.334C177.149 16.778 176.231 17 174.983 17H170.681ZM171.923 15.992H174.929C175.733 15.992 176.339 15.866 176.747 15.614C177.167 15.35 177.377 14.93 177.377 14.354C177.377 13.778 177.191 13.358 176.819 13.094C176.447 12.83 175.859 12.698 175.055 12.698H171.923V15.992ZM171.923 11.744H174.767C175.499 11.744 176.057 11.606 176.441 11.33C176.837 11.054 177.035 10.652 177.035 10.124C177.035 9.596 176.837 9.2 176.441 8.936C176.057 8.672 175.499 8.54 174.767 8.54H171.923V11.744ZM185.52 17.09C184.608 17.09 183.786 16.886 183.054 16.478C182.334 16.058 181.764 15.488 181.344 14.768C180.924 14.036 180.714 13.202 180.714 12.266C180.714 11.318 180.924 10.484 181.344 9.764C181.764 9.044 182.334 8.48 183.054 8.072C183.774 7.664 184.596 7.46 185.52 7.46C186.456 7.46 187.284 7.664 188.004 8.072C188.736 8.48 189.306 9.044 189.714 9.764C190.134 10.484 190.344 11.318 190.344 12.266C190.344 13.202 190.134 14.036 189.714 14.768C189.306 15.488 188.736 16.058 188.004 16.478C187.272 16.886 186.444 17.09 185.52 17.09ZM185.52 15.956C186.204 15.956 186.81 15.806 187.338 15.506C187.866 15.194 188.28 14.762 188.58 14.21C188.892 13.646 189.048 12.998 189.048 12.266C189.048 11.522 188.892 10.874 188.58 10.322C188.28 9.77 187.866 9.344 187.338 9.044C186.81 8.732 186.21 8.576 185.538 8.576C184.866 8.576 184.266 8.732 183.738 9.044C183.21 9.344 182.79 9.77 182.478 10.322C182.166 10.874 182.01 11.522 182.01 12.266C182.01 12.998 182.166 13.646 182.478 14.21C182.79 14.762 183.21 15.194 183.738 15.506C184.266 15.806 184.86 15.956 185.52 15.956ZM199.503 16.388V8.666H194.949L194.841 10.772C194.817 11.408 194.775 12.032 194.715 12.644C194.667 13.256 194.577 13.82 194.445 14.336C194.325 14.84 194.151 15.254 193.923 15.578C193.695 15.89 193.401 16.07 193.041 16.118L191.763 15.884C192.135 15.896 192.441 15.764 192.681 15.488C192.921 15.2 193.107 14.81 193.239 14.318C193.371 13.826 193.467 13.268 193.527 12.644C193.587 12.008 193.635 11.36 193.671 10.7L193.797 7.55H200.781V16.388H199.503ZM191.367 19.286V15.884H202.257V19.286H201.051V17H192.573V19.286H191.367ZM204.748 17V7.55H206.026V15.056L212.344 7.55H213.478V17H212.2V9.476L205.9 17H204.748ZM218.94 17V8.324L219.264 8.666H215.358V7.55H223.8V8.666H219.894L220.218 8.324V17H218.94ZM229.169 17.09C228.233 17.09 227.393 16.886 226.649 16.478C225.917 16.058 225.341 15.488 224.921 14.768C224.501 14.036 224.291 13.202 224.291 12.266C224.291 11.318 224.501 10.484 224.921 9.764C225.341 9.044 225.917 8.48 226.649 8.072C227.393 7.664 228.233 7.46 229.169 7.46C229.973 7.46 230.699 7.616 231.347 7.928C231.995 8.24 232.505 8.708 232.877 9.332L231.923 9.98C231.599 9.5 231.197 9.146 230.717 8.918C230.237 8.69 229.715 8.576 229.151 8.576C228.479 8.576 227.873 8.732 227.333 9.044C226.793 9.344 226.367 9.77 226.055 10.322C225.743 10.874 225.587 11.522 225.587 12.266C225.587 13.01 225.743 13.658 226.055 14.21C226.367 14.762 226.793 15.194 227.333 15.506C227.873 15.806 228.479 15.956 229.151 15.956C229.715 15.956 230.237 15.842 230.717 15.614C231.197 15.386 231.599 15.038 231.923 14.57L232.877 15.218C232.505 15.83 231.995 16.298 231.347 16.622C230.699 16.934 229.973 17.09 229.169 17.09ZM241.137 17V13.598L241.371 13.868H238.167C236.955 13.868 236.007 13.604 235.323 13.076C234.639 12.548 234.297 11.78 234.297 10.772C234.297 9.692 234.663 8.888 235.395 8.36C236.127 7.82 237.105 7.55 238.329 7.55H242.307V17H241.137ZM234.225 17L236.817 13.364H238.149L235.611 17H234.225ZM241.137 13.22V8.288L241.371 8.666H238.365C237.489 8.666 236.805 8.834 236.313 9.17C235.833 9.506 235.593 10.052 235.593 10.808C235.593 12.212 236.487 12.914 238.275 12.914H241.371L241.137 13.22ZM250.662 17V7.55H259.158V17H257.88V8.324L258.204 8.666H251.616L251.94 8.324V17H250.662ZM266.679 17.09C265.767 17.09 264.945 16.886 264.213 16.478C263.493 16.058 262.923 15.488 262.503 14.768C262.083 14.036 261.873 13.202 261.873 12.266C261.873 11.318 262.083 10.484 262.503 9.764C262.923 9.044 263.493 8.48 264.213 8.072C264.933 7.664 265.755 7.46 266.679 7.46C267.615 7.46 268.443 7.664 269.163 8.072C269.895 8.48 270.465 9.044 270.873 9.764C271.293 10.484 271.503 11.318 271.503 12.266C271.503 13.202 271.293 14.036 270.873 14.768C270.465 15.488 269.895 16.058 269.163 16.478C268.431 16.886 267.603 17.09 266.679 17.09ZM266.679 15.956C267.363 15.956 267.969 15.806 268.497 15.506C269.025 15.194 269.439 14.762 269.739 14.21C270.051 13.646 270.207 12.998 270.207 12.266C270.207 11.522 270.051 10.874 269.739 10.322C269.439 9.77 269.025 9.344 268.497 9.044C267.969 8.732 267.369 8.576 266.697 8.576C266.025 8.576 265.425 8.732 264.897 9.044C264.369 9.344 263.949 9.77 263.637 10.322C263.325 10.874 263.169 11.522 263.169 12.266C263.169 12.998 263.325 13.646 263.637 14.21C263.949 14.762 264.369 15.194 264.897 15.506C265.425 15.806 266.019 15.956 266.679 15.956ZM284.813 17V14.912L284.759 14.57V11.078C284.759 10.274 284.531 9.656 284.075 9.224C283.631 8.792 282.965 8.576 282.077 8.576C281.465 8.576 280.883 8.678 280.331 8.882C279.779 9.086 279.311 9.356 278.927 9.692L278.351 8.738C278.831 8.33 279.407 8.018 280.079 7.802C280.751 7.574 281.459 7.46 282.203 7.46C283.427 7.46 284.369 7.766 285.029 8.378C285.701 8.978 286.037 9.896 286.037 11.132V17H284.813ZM281.555 17.09C280.847 17.09 280.229 16.976 279.701 16.748C279.185 16.508 278.789 16.184 278.513 15.776C278.237 15.356 278.099 14.876 278.099 14.336C278.099 13.844 278.213 13.4 278.441 13.004C278.681 12.596 279.065 12.272 279.593 12.032C280.133 11.78 280.853 11.654 281.753 11.654H285.011V12.608H281.789C280.877 12.608 280.241 12.77 279.881 13.094C279.533 13.418 279.359 13.82 279.359 14.3C279.359 14.84 279.569 15.272 279.989 15.596C280.409 15.92 280.997 16.082 281.753 16.082C282.473 16.082 283.091 15.92 283.607 15.596C284.135 15.26 284.519 14.78 284.759 14.156L285.047 15.038C284.807 15.662 284.387 16.16 283.787 16.532C283.199 16.904 282.455 17.09 281.555 17.09ZM295.919 16.388V8.666H291.365L291.257 10.772C291.233 11.408 291.191 12.032 291.131 12.644C291.083 13.256 290.993 13.82 290.861 14.336C290.741 14.84 290.567 15.254 290.339 15.578C290.111 15.89 289.817 16.07 289.457 16.118L288.179 15.884C288.551 15.896 288.857 15.764 289.097 15.488C289.337 15.2 289.523 14.81 289.655 14.318C289.787 13.826 289.883 13.268 289.943 12.644C290.003 12.008 290.051 11.36 290.087 10.7L290.213 7.55H297.197V16.388H295.919ZM287.783 19.286V15.884H298.673V19.286H297.467V17H288.989V19.286H287.783ZM306.042 17.09C305.226 17.09 304.488 16.904 303.828 16.532C303.168 16.148 302.64 15.602 302.244 14.894C301.86 14.174 301.668 13.298 301.668 12.266C301.668 11.234 301.86 10.364 302.244 9.656C302.628 8.936 303.15 8.39 303.81 8.018C304.47 7.646 305.214 7.46 306.042 7.46C306.942 7.46 307.746 7.664 308.454 8.072C309.174 8.468 309.738 9.032 310.146 9.764C310.554 10.484 310.758 11.318 310.758 12.266C310.758 13.226 310.554 14.066 310.146 14.786C309.738 15.506 309.174 16.07 308.454 16.478C307.746 16.886 306.942 17.09 306.042 17.09ZM301.164 20.492V7.55H302.388V10.394L302.262 12.284L302.442 14.192V20.492H301.164ZM305.952 15.956C306.624 15.956 307.224 15.806 307.752 15.506C308.28 15.194 308.7 14.762 309.012 14.21C309.324 13.646 309.48 12.998 309.48 12.266C309.48 11.534 309.324 10.892 309.012 10.34C308.7 9.788 308.28 9.356 307.752 9.044C307.224 8.732 306.624 8.576 305.952 8.576C305.28 8.576 304.674 8.732 304.134 9.044C303.606 9.356 303.186 9.788 302.874 10.34C302.574 10.892 302.424 11.534 302.424 12.266C302.424 12.998 302.574 13.646 302.874 14.21C303.186 14.762 303.606 15.194 304.134 15.506C304.674 15.806 305.28 15.956 305.952 15.956ZM317.554 17.09C316.57 17.09 315.706 16.886 314.962 16.478C314.218 16.058 313.636 15.488 313.216 14.768C312.796 14.036 312.586 13.202 312.586 12.266C312.586 11.33 312.784 10.502 313.18 9.782C313.588 9.062 314.14 8.498 314.836 8.09C315.544 7.67 316.336 7.46 317.212 7.46C318.1 7.46 318.886 7.664 319.57 8.072C320.266 8.468 320.812 9.032 321.208 9.764C321.604 10.484 321.802 11.318 321.802 12.266C321.802 12.326 321.796 12.392 321.784 12.464C321.784 12.524 321.784 12.59 321.784 12.662H313.558V11.708H321.1L320.596 12.086C320.596 11.402 320.446 10.796 320.146 10.268C319.858 9.728 319.462 9.308 318.958 9.008C318.454 8.708 317.872 8.558 317.212 8.558C316.564 8.558 315.982 8.708 315.466 9.008C314.95 9.308 314.548 9.728 314.26 10.268C313.972 10.808 313.828 11.426 313.828 12.122V12.32C313.828 13.04 313.984 13.676 314.296 14.228C314.62 14.768 315.064 15.194 315.628 15.506C316.204 15.806 316.858 15.956 317.59 15.956C318.166 15.956 318.7 15.854 319.192 15.65C319.696 15.446 320.128 15.134 320.488 14.714L321.208 15.542C320.788 16.046 320.26 16.43 319.624 16.694C319 16.958 318.31 17.09 317.554 17.09ZM328.591 17.09C327.655 17.09 326.815 16.886 326.071 16.478C325.339 16.058 324.763 15.488 324.343 14.768C323.923 14.036 323.713 13.202 323.713 12.266C323.713 11.318 323.923 10.484 324.343 9.764C324.763 9.044 325.339 8.48 326.071 8.072C326.815 7.664 327.655 7.46 328.591 7.46C329.395 7.46 330.121 7.616 330.769 7.928C331.417 8.24 331.927 8.708 332.299 9.332L331.345 9.98C331.021 9.5 330.619 9.146 330.139 8.918C329.659 8.69 329.137 8.576 328.573 8.576C327.901 8.576 327.295 8.732 326.755 9.044C326.215 9.344 325.789 9.77 325.477 10.322C325.165 10.874 325.009 11.522 325.009 12.266C325.009 13.01 325.165 13.658 325.477 14.21C325.789 14.762 326.215 15.194 326.755 15.506C327.295 15.806 327.901 15.956 328.573 15.956C329.137 15.956 329.659 15.842 330.139 15.614C330.619 15.386 331.021 15.038 331.345 14.57L332.299 15.218C331.927 15.83 331.417 16.298 330.769 16.622C330.121 16.934 329.395 17.09 328.591 17.09ZM340.641 17V14.912L340.587 14.57V11.078C340.587 10.274 340.359 9.656 339.903 9.224C339.459 8.792 338.793 8.576 337.905 8.576C337.293 8.576 336.711 8.678 336.159 8.882C335.607 9.086 335.139 9.356 334.755 9.692L334.179 8.738C334.659 8.33 335.235 8.018 335.907 7.802C336.579 7.574 337.287 7.46 338.031 7.46C339.255 7.46 340.197 7.766 340.857 8.378C341.529 8.978 341.865 9.896 341.865 11.132V17H340.641ZM337.383 17.09C336.675 17.09 336.057 16.976 335.529 16.748C335.013 16.508 334.617 16.184 334.341 15.776C334.065 15.356 333.927 14.876 333.927 14.336C333.927 13.844 334.041 13.4 334.269 13.004C334.509 12.596 334.893 12.272 335.421 12.032C335.961 11.78 336.681 11.654 337.581 11.654H340.839V12.608H337.617C336.705 12.608 336.069 12.77 335.709 13.094C335.361 13.418 335.187 13.82 335.187 14.3C335.187 14.84 335.397 15.272 335.817 15.596C336.237 15.92 336.825 16.082 337.581 16.082C338.301 16.082 338.919 15.92 339.435 15.596C339.963 15.26 340.347 14.78 340.587 14.156L340.875 15.038C340.635 15.662 340.215 16.16 339.615 16.532C339.027 16.904 338.283 17.09 337.383 17.09ZM345.267 17V7.55H346.563L350.847 14.804H350.307L354.663 7.55H355.851V17H354.681V9.008L354.915 9.116L350.847 15.848H350.271L346.167 9.044L346.437 8.99V17H345.267ZM359.578 9.422C359.314 9.422 359.086 9.326 358.894 9.134C358.714 8.942 358.624 8.708 358.624 8.432C358.624 8.144 358.714 7.91 358.894 7.73C359.086 7.55 359.314 7.46 359.578 7.46C359.842 7.46 360.064 7.55 360.244 7.73C360.436 7.91 360.532 8.144 360.532 8.432C360.532 8.708 360.436 8.942 360.244 9.134C360.064 9.326 359.842 9.422 359.578 9.422ZM359.578 17.09C359.314 17.09 359.086 16.994 358.894 16.802C358.714 16.61 358.624 16.376 358.624 16.1C358.624 15.812 358.714 15.578 358.894 15.398C359.086 15.218 359.314 15.128 359.578 15.128C359.842 15.128 360.064 15.218 360.244 15.398C360.436 15.578 360.532 15.812 360.532 16.1C360.532 16.376 360.436 16.61 360.244 16.802C360.064 16.994 359.842 17.09 359.578 17.09Z" fill="black"/>
<path d="M12.5 56C14.706 56 16.5 54.206 16.5 52C16.5 49.794 14.706 48 12.5 48C10.294 48 8.5 49.794 8.5 52C8.5 54.206 10.294 56 12.5 56ZM12.5 50C13.603 50 14.5 50.897 14.5 52C14.5 53.103 13.603 54 12.5 54C11.397 54 10.5 53.103 10.5 52C10.5 50.897 11.397 50 12.5 50Z" fill="black"/>
<path d="M11.9201 63.814C12.0893 63.9349 12.2921 63.9998 12.5001 63.9998C12.7081 63.9998 12.9108 63.9349 13.0801 63.814C13.3841 63.599 20.5291 58.44 20.5001 52C20.5001 47.589 16.9111 44 12.5001 44C8.08909 44 4.50009 47.589 4.50009 51.995C4.47109 58.44 11.6161 63.599 11.9201 63.814ZM12.5001 46C15.8091 46 18.5001 48.691 18.5001 52.005C18.5211 56.443 14.1121 60.428 12.5001 61.735C10.8891 60.427 6.47909 56.441 6.50009 52C6.50009 48.691 9.19109 46 12.5001 46Z" fill="black"/>
<path d="M36.318 61V51.55H43.014V52.666H37.272L37.596 52.342V61H36.318ZM44.1424 61.09C43.8784 61.09 43.6504 60.994 43.4584 60.802C43.2784 60.61 43.1884 60.376 43.1884 60.1C43.1884 59.812 43.2784 59.578 43.4584 59.398C43.6504 59.218 43.8784 59.128 44.1424 59.128C44.4064 59.128 44.6284 59.218 44.8084 59.398C45.0004 59.578 45.0964 59.812 45.0964 60.1C45.0964 60.376 45.0004 60.61 44.8084 60.802C44.6284 60.994 44.4064 61.09 44.1424 61.09ZM52.8838 61V48.4H62.0998V49.534H54.1978V53.656H58.3198C59.8078 53.656 60.9358 53.962 61.7038 54.574C62.4838 55.174 62.8738 56.062 62.8738 57.238C62.8738 58.45 62.4538 59.38 61.6138 60.028C60.7858 60.676 59.5918 61 58.0318 61H52.8838ZM54.1978 59.938H58.0138C59.1778 59.938 60.0538 59.716 60.6418 59.272C61.2418 58.816 61.5418 58.156 61.5418 57.292C61.5418 55.576 60.3658 54.718 58.0138 54.718H54.1978V59.938ZM71.5063 61V58.912L71.4523 58.57V55.078C71.4523 54.274 71.2243 53.656 70.7683 53.224C70.3243 52.792 69.6583 52.576 68.7703 52.576C68.1583 52.576 67.5763 52.678 67.0243 52.882C66.4723 53.086 66.0043 53.356 65.6203 53.692L65.0443 52.738C65.5243 52.33 66.1003 52.018 66.7723 51.802C67.4443 51.574 68.1523 51.46 68.8963 51.46C70.1203 51.46 71.0623 51.766 71.7223 52.378C72.3943 52.978 72.7303 53.896 72.7303 55.132V61H71.5063ZM68.2483 61.09C67.5403 61.09 66.9223 60.976 66.3943 60.748C65.8783 60.508 65.4823 60.184 65.2063 59.776C64.9303 59.356 64.7923 58.876 64.7923 58.336C64.7923 57.844 64.9063 57.4 65.1343 57.004C65.3743 56.596 65.7583 56.272 66.2863 56.032C66.8263 55.78 67.5463 55.654 68.4463 55.654H71.7043V56.608H68.4823C67.5703 56.608 66.9343 56.77 66.5743 57.094C66.2263 57.418 66.0523 57.82 66.0523 58.3C66.0523 58.84 66.2623 59.272 66.6823 59.596C67.1023 59.92 67.6903 60.082 68.4463 60.082C69.1663 60.082 69.7843 59.92 70.3003 59.596C70.8283 59.26 71.2123 58.78 71.4523 58.156L71.7403 59.038C71.5003 59.662 71.0803 60.16 70.4803 60.532C69.8923 60.904 69.1483 61.09 68.2483 61.09ZM76.1325 61V51.55H80.3085C81.3765 51.55 82.2165 51.754 82.8285 52.162C83.4525 52.57 83.7645 53.17 83.7645 53.962C83.7645 54.73 83.4705 55.324 82.8825 55.744C82.2945 56.152 81.5205 56.356 80.5605 56.356L80.8125 55.978C81.9405 55.978 82.7685 56.188 83.2965 56.608C83.8245 57.028 84.0885 57.634 84.0885 58.426C84.0885 59.242 83.7885 59.878 83.1885 60.334C82.6005 60.778 81.6825 61 80.4345 61H76.1325ZM77.3745 59.992H80.3805C81.1845 59.992 81.7905 59.866 82.1985 59.614C82.6185 59.35 82.8285 58.93 82.8285 58.354C82.8285 57.778 82.6425 57.358 82.2705 57.094C81.8985 56.83 81.3105 56.698 80.5065 56.698H77.3745V59.992ZM77.3745 55.744H80.2185C80.9505 55.744 81.5085 55.606 81.8925 55.33C82.2885 55.054 82.4865 54.652 82.4865 54.124C82.4865 53.596 82.2885 53.2 81.8925 52.936C81.5085 52.672 80.9505 52.54 80.2185 52.54H77.3745V55.744ZM85.3556 60.982L85.4456 59.884C85.5296 59.896 85.6076 59.914 85.6796 59.938C85.7636 59.95 85.8356 59.956 85.8956 59.956C86.2796 59.956 86.5856 59.812 86.8136 59.524C87.0536 59.236 87.2336 58.852 87.3536 58.372C87.4736 57.892 87.5576 57.352 87.6056 56.752C87.6536 56.14 87.6956 55.528 87.7316 54.916L87.8936 51.55H94.8236V61H93.5456V52.288L93.8696 52.666H88.7216L89.0276 52.27L88.8836 55.006C88.8476 55.822 88.7816 56.602 88.6856 57.346C88.6016 58.09 88.4636 58.744 88.2716 59.308C88.0916 59.872 87.8396 60.316 87.5156 60.64C87.1916 60.952 86.7776 61.108 86.2736 61.108C86.1296 61.108 85.9796 61.096 85.8236 61.072C85.6796 61.048 85.5236 61.018 85.3556 60.982ZM107.673 61V51.55H108.951V61H107.673ZM102.435 54.88C103.623 54.892 104.529 55.156 105.153 55.672C105.777 56.188 106.089 56.932 106.089 57.904C106.089 58.912 105.753 59.686 105.081 60.226C104.409 60.766 103.449 61.03 102.201 61.018L98.4567 61V51.55H99.7347V54.844L102.435 54.88ZM102.111 60.046C102.999 60.058 103.665 59.884 104.109 59.524C104.565 59.152 104.793 58.612 104.793 57.904C104.793 57.196 104.571 56.68 104.127 56.356C103.683 56.02 103.011 55.846 102.111 55.834L99.7347 55.798V60.01L102.111 60.046ZM117.606 61V48.4H128.208V61H126.894V49.192L127.236 49.552H118.578L118.92 49.192V61H117.606ZM132.154 61V51.55H133.432V59.056L139.75 51.55H140.884V61H139.606V53.476L133.306 61H132.154ZM148.435 61.09C147.523 61.09 146.701 60.886 145.969 60.478C145.249 60.058 144.679 59.488 144.259 58.768C143.839 58.036 143.629 57.202 143.629 56.266C143.629 55.318 143.839 54.484 144.259 53.764C144.679 53.044 145.249 52.48 145.969 52.072C146.689 51.664 147.511 51.46 148.435 51.46C149.371 51.46 150.199 51.664 150.919 52.072C151.651 52.48 152.221 53.044 152.629 53.764C153.049 54.484 153.259 55.318 153.259 56.266C153.259 57.202 153.049 58.036 152.629 58.768C152.221 59.488 151.651 60.058 150.919 60.478C150.187 60.886 149.359 61.09 148.435 61.09ZM148.435 59.956C149.119 59.956 149.725 59.806 150.253 59.506C150.781 59.194 151.195 58.762 151.495 58.21C151.807 57.646 151.963 56.998 151.963 56.266C151.963 55.522 151.807 54.874 151.495 54.322C151.195 53.77 150.781 53.344 150.253 53.044C149.725 52.732 149.125 52.576 148.453 52.576C147.781 52.576 147.181 52.732 146.653 53.044C146.125 53.344 145.705 53.77 145.393 54.322C145.081 54.874 144.925 55.522 144.925 56.266C144.925 56.998 145.081 57.646 145.393 58.21C145.705 58.762 146.125 59.194 146.653 59.506C147.181 59.806 147.775 59.956 148.435 59.956ZM155.99 61V51.55H157.268V55.726H163.226V51.55H164.504V61H163.226V56.824H157.268V61H155.99ZM172.186 61.09C171.202 61.09 170.338 60.886 169.594 60.478C168.85 60.058 168.268 59.488 167.848 58.768C167.428 58.036 167.218 57.202 167.218 56.266C167.218 55.33 167.416 54.502 167.812 53.782C168.22 53.062 168.772 52.498 169.468 52.09C170.176 51.67 170.968 51.46 171.844 51.46C172.732 51.46 173.518 51.664 174.202 52.072C174.898 52.468 175.444 53.032 175.84 53.764C176.236 54.484 176.434 55.318 176.434 56.266C176.434 56.326 176.428 56.392 176.416 56.464C176.416 56.524 176.416 56.59 176.416 56.662H168.19V55.708H175.732L175.228 56.086C175.228 55.402 175.078 54.796 174.778 54.268C174.49 53.728 174.094 53.308 173.59 53.008C173.086 52.708 172.504 52.558 171.844 52.558C171.196 52.558 170.614 52.708 170.098 53.008C169.582 53.308 169.18 53.728 168.892 54.268C168.604 54.808 168.46 55.426 168.46 56.122V56.32C168.46 57.04 168.616 57.676 168.928 58.228C169.252 58.768 169.696 59.194 170.26 59.506C170.836 59.806 171.49 59.956 172.222 59.956C172.798 59.956 173.332 59.854 173.824 59.65C174.328 59.446 174.76 59.134 175.12 58.714L175.84 59.542C175.42 60.046 174.892 60.43 174.256 60.694C173.632 60.958 172.942 61.09 172.186 61.09ZM184.141 61.09C183.325 61.09 182.587 60.904 181.927 60.532C181.267 60.148 180.739 59.602 180.343 58.894C179.959 58.174 179.767 57.298 179.767 56.266C179.767 55.234 179.959 54.364 180.343 53.656C180.727 52.936 181.249 52.39 181.909 52.018C182.569 51.646 183.313 51.46 184.141 51.46C185.041 51.46 185.845 51.664 186.553 52.072C187.273 52.468 187.837 53.032 188.245 53.764C188.653 54.484 188.857 55.318 188.857 56.266C188.857 57.226 188.653 58.066 188.245 58.786C187.837 59.506 187.273 60.07 186.553 60.478C185.845 60.886 185.041 61.09 184.141 61.09ZM179.263 64.492V51.55H180.487V54.394L180.361 56.284L180.541 58.192V64.492H179.263ZM184.051 59.956C184.723 59.956 185.323 59.806 185.851 59.506C186.379 59.194 186.799 58.762 187.111 58.21C187.423 57.646 187.579 56.998 187.579 56.266C187.579 55.534 187.423 54.892 187.111 54.34C186.799 53.788 186.379 53.356 185.851 53.044C185.323 52.732 184.723 52.576 184.051 52.576C183.379 52.576 182.773 52.732 182.233 53.044C181.705 53.356 181.285 53.788 180.973 54.34C180.673 54.892 180.523 55.534 180.523 56.266C180.523 56.998 180.673 57.646 180.973 58.21C181.285 58.762 181.705 59.194 182.233 59.506C182.773 59.806 183.379 59.956 184.051 59.956ZM195.563 61.09C194.627 61.09 193.787 60.886 193.043 60.478C192.311 60.058 191.735 59.488 191.315 58.768C190.895 58.036 190.685 57.202 190.685 56.266C190.685 55.318 190.895 54.484 191.315 53.764C191.735 53.044 192.311 52.48 193.043 52.072C193.787 51.664 194.627 51.46 195.563 51.46C196.367 51.46 197.093 51.616 197.741 51.928C198.389 52.24 198.899 52.708 199.271 53.332L198.317 53.98C197.993 53.5 197.591 53.146 197.111 52.918C196.631 52.69 196.109 52.576 195.545 52.576C194.873 52.576 194.267 52.732 193.727 53.044C193.187 53.344 192.761 53.77 192.449 54.322C192.137 54.874 191.981 55.522 191.981 56.266C191.981 57.01 192.137 57.658 192.449 58.21C192.761 58.762 193.187 59.194 193.727 59.506C194.267 59.806 194.873 59.956 195.545 59.956C196.109 59.956 196.631 59.842 197.111 59.614C197.591 59.386 197.993 59.038 198.317 58.57L199.271 59.218C198.899 59.83 198.389 60.298 197.741 60.622C197.093 60.934 196.367 61.09 195.563 61.09ZM208.676 61L204.788 56.32L205.85 55.69L210.188 61H208.676ZM201.746 61V51.55H203.024V61H201.746ZM202.628 56.788V55.69H205.67V56.788H202.628ZM205.958 56.41L204.77 56.23L208.532 51.55H209.918L205.958 56.41ZM217.897 61V58.912L217.843 58.57V55.078C217.843 54.274 217.615 53.656 217.159 53.224C216.715 52.792 216.049 52.576 215.161 52.576C214.549 52.576 213.967 52.678 213.415 52.882C212.863 53.086 212.395 53.356 212.011 53.692L211.435 52.738C211.915 52.33 212.491 52.018 213.163 51.802C213.835 51.574 214.543 51.46 215.287 51.46C216.511 51.46 217.453 51.766 218.113 52.378C218.785 52.978 219.121 53.896 219.121 55.132V61H217.897ZM214.639 61.09C213.931 61.09 213.313 60.976 212.785 60.748C212.269 60.508 211.873 60.184 211.597 59.776C211.321 59.356 211.183 58.876 211.183 58.336C211.183 57.844 211.297 57.4 211.525 57.004C211.765 56.596 212.149 56.272 212.677 56.032C213.217 55.78 213.937 55.654 214.837 55.654H218.095V56.608H214.873C213.961 56.608 213.325 56.77 212.965 57.094C212.617 57.418 212.443 57.82 212.443 58.3C212.443 58.84 212.653 59.272 213.073 59.596C213.493 59.92 214.081 60.082 214.837 60.082C215.557 60.082 216.175 59.92 216.691 59.596C217.219 59.26 217.603 58.78 217.843 58.156L218.131 59.038C217.891 59.662 217.471 60.16 216.871 60.532C216.283 60.904 215.539 61.09 214.639 61.09ZM228.625 61V57.598L228.859 57.868H225.655C224.443 57.868 223.495 57.604 222.811 57.076C222.127 56.548 221.785 55.78 221.785 54.772C221.785 53.692 222.151 52.888 222.883 52.36C223.615 51.82 224.593 51.55 225.817 51.55H229.795V61H228.625ZM221.713 61L224.305 57.364H225.637L223.099 61H221.713ZM228.625 57.22V52.288L228.859 52.666H225.853C224.977 52.666 224.293 52.834 223.801 53.17C223.321 53.506 223.081 54.052 223.081 54.808C223.081 56.212 223.975 56.914 225.763 56.914H228.859L228.625 57.22ZM239.464 61V48.94L240.04 49.552H236.494V48.4H240.76V61H239.464ZM247.75 61.108C246.85 61.108 245.992 60.964 245.176 60.676C244.36 60.376 243.712 59.98 243.232 59.488L243.862 58.462C244.258 58.882 244.798 59.23 245.482 59.506C246.178 59.782 246.928 59.92 247.732 59.92C248.8 59.92 249.61 59.686 250.162 59.218C250.726 58.738 251.008 58.114 251.008 57.346C251.008 56.806 250.876 56.344 250.612 55.96C250.36 55.564 249.928 55.258 249.316 55.042C248.704 54.826 247.864 54.718 246.796 54.718H244.114L244.762 48.4H251.656V49.552H245.284L245.95 48.922L245.392 54.214L244.726 53.566H247.084C248.356 53.566 249.376 53.722 250.144 54.034C250.912 54.346 251.464 54.784 251.8 55.348C252.148 55.9 252.322 56.548 252.322 57.292C252.322 58 252.154 58.648 251.818 59.236C251.482 59.812 250.978 60.268 250.306 60.604C249.634 60.94 248.782 61.108 247.75 61.108Z" fill="black"/>
<path d="M12.5 90C14.706 90 16.5 88.206 16.5 86C16.5 83.794 14.706 82 12.5 82C10.294 82 8.5 83.794 8.5 86C8.5 88.206 10.294 90 12.5 90ZM12.5 84C13.603 84 14.5 84.897 14.5 86C14.5 87.103 13.603 88 12.5 88C11.397 88 10.5 87.103 10.5 86C10.5 84.897 11.397 84 12.5 84Z" fill="black"/>
<path d="M11.9201 97.814C12.0893 97.9349 12.2921 97.9998 12.5001 97.9998C12.7081 97.9998 12.9108 97.9349 13.0801 97.814C13.3841 97.599 20.5291 92.44 20.5001 86C20.5001 81.589 16.9111 78 12.5001 78C8.08909 78 4.50009 81.589 4.50009 85.995C4.47109 92.44 11.6161 97.599 11.9201 97.814ZM12.5001 80C15.8091 80 18.5001 82.691 18.5001 86.005C18.5211 90.443 14.1121 94.428 12.5001 95.735C10.8891 94.427 6.47909 90.441 6.50009 86C6.50009 82.691 9.19109 80 12.5001 80Z" fill="black"/>
<path d="M36.318 95V85.55H43.014V86.666H37.272L37.596 86.342V95H36.318ZM44.1424 95.09C43.8784 95.09 43.6504 94.994 43.4584 94.802C43.2784 94.61 43.1884 94.376 43.1884 94.1C43.1884 93.812 43.2784 93.578 43.4584 93.398C43.6504 93.218 43.8784 93.128 44.1424 93.128C44.4064 93.128 44.6284 93.218 44.8084 93.398C45.0004 93.578 45.0964 93.812 45.0964 94.1C45.0964 94.376 45.0004 94.61 44.8084 94.802C44.6284 94.994 44.4064 95.09 44.1424 95.09ZM51.0298 95L56.7898 82.4H58.1038L63.8638 95H62.4598L57.1678 83.174H57.7078L52.4158 95H51.0298ZM53.2978 91.634L53.6938 90.554H61.0198L61.4158 91.634H53.2978ZM64.2443 94.982L64.3343 93.884C64.4183 93.896 64.4963 93.914 64.5683 93.938C64.6523 93.95 64.7243 93.956 64.7843 93.956C65.1683 93.956 65.4743 93.812 65.7023 93.524C65.9423 93.236 66.1223 92.852 66.2423 92.372C66.3623 91.892 66.4463 91.352 66.4943 90.752C66.5423 90.14 66.5843 89.528 66.6203 88.916L66.7823 85.55H73.7123V95H72.4343V86.288L72.7583 86.666H67.6103L67.9163 86.27L67.7723 89.006C67.7363 89.822 67.6703 90.602 67.5743 91.346C67.4903 92.09 67.3523 92.744 67.1603 93.308C66.9803 93.872 66.7283 94.316 66.4043 94.64C66.0803 94.952 65.6663 95.108 65.1623 95.108C65.0183 95.108 64.8683 95.096 64.7123 95.072C64.5683 95.048 64.4123 95.018 64.2443 94.982ZM81.4133 88.88C82.6013 88.892 83.5013 89.156 84.1133 89.672C84.7373 90.188 85.0493 90.932 85.0493 91.904C85.0493 92.912 84.7133 93.686 84.0413 94.226C83.3813 94.766 82.4213 95.03 81.1613 95.018L77.3453 95V85.55H78.6233V88.844L81.4133 88.88ZM81.0893 94.046C81.9653 94.058 82.6253 93.884 83.0693 93.524C83.5253 93.152 83.7533 92.612 83.7533 91.904C83.7533 91.196 83.5313 90.68 83.0873 90.356C82.6433 90.02 81.9773 89.846 81.0893 89.834L78.6233 89.798V94.01L81.0893 94.046ZM87.4879 95V85.55H88.7839L93.0679 92.804H92.5279L96.8839 85.55H98.0719V95H96.9019V87.008L97.1359 87.116L93.0679 93.848H92.4919L88.3879 87.044L88.6579 86.99V95H87.4879ZM105.759 95.09C104.775 95.09 103.911 94.886 103.167 94.478C102.423 94.058 101.841 93.488 101.421 92.768C101.001 92.036 100.791 91.202 100.791 90.266C100.791 89.33 100.989 88.502 101.385 87.782C101.793 87.062 102.345 86.498 103.041 86.09C103.749 85.67 104.541 85.46 105.417 85.46C106.305 85.46 107.091 85.664 107.775 86.072C108.471 86.468 109.017 87.032 109.413 87.764C109.809 88.484 110.007 89.318 110.007 90.266C110.007 90.326 110.001 90.392 109.989 90.464C109.989 90.524 109.989 90.59 109.989 90.662H101.763V89.708H109.305L108.801 90.086C108.801 89.402 108.651 88.796 108.351 88.268C108.063 87.728 107.667 87.308 107.163 87.008C106.659 86.708 106.077 86.558 105.417 86.558C104.769 86.558 104.187 86.708 103.671 87.008C103.155 87.308 102.753 87.728 102.465 88.268C102.177 88.808 102.033 89.426 102.033 90.122V90.32C102.033 91.04 102.189 91.676 102.501 92.228C102.825 92.768 103.269 93.194 103.833 93.506C104.409 93.806 105.063 93.956 105.795 93.956C106.371 93.956 106.905 93.854 107.397 93.65C107.901 93.446 108.333 93.134 108.693 92.714L109.413 93.542C108.993 94.046 108.465 94.43 107.829 94.694C107.205 94.958 106.515 95.09 105.759 95.09ZM114.214 95V86.324L114.538 86.666H110.632V85.55H119.074V86.666H115.168L115.492 86.324V95H114.214ZM124.99 88.88C126.178 88.892 127.078 89.156 127.69 89.672C128.314 90.188 128.626 90.932 128.626 91.904C128.626 92.912 128.29 93.686 127.618 94.226C126.958 94.766 125.998 95.03 124.738 95.018L120.922 95V85.55H122.2V88.844L124.99 88.88ZM124.666 94.046C125.542 94.058 126.202 93.884 126.646 93.524C127.102 93.152 127.33 92.612 127.33 91.904C127.33 91.196 127.108 90.68 126.664 90.356C126.22 90.02 125.554 89.846 124.666 89.834L122.2 89.798V94.01L124.666 94.046ZM135.114 95.09C134.13 95.09 133.266 94.886 132.522 94.478C131.778 94.058 131.196 93.488 130.776 92.768C130.356 92.036 130.146 91.202 130.146 90.266C130.146 89.33 130.344 88.502 130.74 87.782C131.148 87.062 131.7 86.498 132.396 86.09C133.104 85.67 133.896 85.46 134.772 85.46C135.66 85.46 136.446 85.664 137.13 86.072C137.826 86.468 138.372 87.032 138.768 87.764C139.164 88.484 139.362 89.318 139.362 90.266C139.362 90.326 139.356 90.392 139.344 90.464C139.344 90.524 139.344 90.59 139.344 90.662H131.118V89.708H138.66L138.156 90.086C138.156 89.402 138.006 88.796 137.706 88.268C137.418 87.728 137.022 87.308 136.518 87.008C136.014 86.708 135.432 86.558 134.772 86.558C134.124 86.558 133.542 86.708 133.026 87.008C132.51 87.308 132.108 87.728 131.82 88.268C131.532 88.808 131.388 89.426 131.388 90.122V90.32C131.388 91.04 131.544 91.676 131.856 92.228C132.18 92.768 132.624 93.194 133.188 93.506C133.764 93.806 134.418 93.956 135.15 93.956C135.726 93.956 136.26 93.854 136.752 93.65C137.256 93.446 137.688 93.134 138.048 92.714L138.768 93.542C138.348 94.046 137.82 94.43 137.184 94.694C136.56 94.958 135.87 95.09 135.114 95.09ZM142.191 95V85.55H146.367C147.435 85.55 148.275 85.754 148.887 86.162C149.511 86.57 149.823 87.17 149.823 87.962C149.823 88.73 149.529 89.324 148.941 89.744C148.353 90.152 147.579 90.356 146.619 90.356L146.871 89.978C147.999 89.978 148.827 90.188 149.355 90.608C149.883 91.028 150.147 91.634 150.147 92.426C150.147 93.242 149.847 93.878 149.247 94.334C148.659 94.778 147.741 95 146.493 95H142.191ZM143.433 93.992H146.439C147.243 93.992 147.849 93.866 148.257 93.614C148.677 93.35 148.887 92.93 148.887 92.354C148.887 91.778 148.701 91.358 148.329 91.094C147.957 90.83 147.369 90.698 146.565 90.698H143.433V93.992ZM143.433 89.744H146.277C147.009 89.744 147.567 89.606 147.951 89.33C148.347 89.054 148.545 88.652 148.545 88.124C148.545 87.596 148.347 87.2 147.951 86.936C147.567 86.672 147.009 86.54 146.277 86.54H143.433V89.744ZM157.102 95.09C156.166 95.09 155.326 94.886 154.582 94.478C153.85 94.058 153.274 93.488 152.854 92.768C152.434 92.036 152.224 91.202 152.224 90.266C152.224 89.318 152.434 88.484 152.854 87.764C153.274 87.044 153.85 86.48 154.582 86.072C155.326 85.664 156.166 85.46 157.102 85.46C157.906 85.46 158.632 85.616 159.28 85.928C159.928 86.24 160.438 86.708 160.81 87.332L159.856 87.98C159.532 87.5 159.13 87.146 158.65 86.918C158.17 86.69 157.648 86.576 157.084 86.576C156.412 86.576 155.806 86.732 155.266 87.044C154.726 87.344 154.3 87.77 153.988 88.322C153.676 88.874 153.52 89.522 153.52 90.266C153.52 91.01 153.676 91.658 153.988 92.21C154.3 92.762 154.726 93.194 155.266 93.506C155.806 93.806 156.412 93.956 157.084 93.956C157.648 93.956 158.17 93.842 158.65 93.614C159.13 93.386 159.532 93.038 159.856 92.57L160.81 93.218C160.438 93.83 159.928 94.298 159.28 94.622C158.632 94.934 157.906 95.09 157.102 95.09ZM170.215 95L166.327 90.32L167.389 89.69L171.727 95H170.215ZM163.285 95V85.55H164.563V95H163.285ZM164.167 90.788V89.69H167.209V90.788H164.167ZM167.497 90.41L166.309 90.23L170.071 85.55H171.457L167.497 90.41ZM172.934 97.628L173.726 94.298L173.87 95.072C173.594 95.072 173.36 94.982 173.168 94.802C172.988 94.622 172.898 94.388 172.898 94.1C172.898 93.812 172.988 93.578 173.168 93.398C173.36 93.218 173.588 93.128 173.852 93.128C174.128 93.128 174.35 93.224 174.518 93.416C174.698 93.608 174.788 93.836 174.788 94.1C174.788 94.196 174.782 94.292 174.77 94.388C174.758 94.484 174.734 94.592 174.698 94.712C174.662 94.832 174.614 94.976 174.554 95.144L173.798 97.628H172.934ZM190.945 94.37V83.552H184.915L184.807 86.612C184.771 87.56 184.711 88.472 184.627 89.348C184.555 90.212 184.435 90.992 184.267 91.688C184.111 92.372 183.895 92.93 183.619 93.362C183.355 93.794 183.007 94.046 182.575 94.118L181.117 93.848C181.597 93.872 181.993 93.698 182.305 93.326C182.629 92.954 182.875 92.432 183.043 91.76C183.223 91.088 183.355 90.302 183.439 89.402C183.523 88.502 183.583 87.53 183.619 86.486L183.763 82.4H192.259V94.37H190.945ZM180.649 97.826L180.667 93.848H194.149V97.826H192.907V95H181.909L181.891 97.826H180.649ZM207.37 95L204.13 90.32L205.192 89.69L208.9 95H207.37ZM202.006 90.788V89.69H204.994V90.788H202.006ZM205.318 90.41L204.094 90.23L207.244 85.55H208.63L205.318 90.41ZM196.174 95H194.644L198.352 89.69L199.396 90.32L196.174 95ZM202.402 95H201.124V85.55H202.402V95ZM201.52 90.788H198.55V89.69H201.52V90.788ZM198.244 90.41L194.914 85.55H196.3L199.432 90.23L198.244 90.41ZM216.719 95V92.912L216.665 92.57V89.078C216.665 88.274 216.437 87.656 215.981 87.224C215.537 86.792 214.871 86.576 213.983 86.576C213.371 86.576 212.789 86.678 212.237 86.882C211.685 87.086 211.217 87.356 210.833 87.692L210.257 86.738C210.737 86.33 211.313 86.018 211.985 85.802C212.657 85.574 213.365 85.46 214.109 85.46C215.333 85.46 216.275 85.766 216.935 86.378C217.607 86.978 217.943 87.896 217.943 89.132V95H216.719ZM213.461 95.09C212.753 95.09 212.135 94.976 211.607 94.748C211.091 94.508 210.695 94.184 210.419 93.776C210.143 93.356 210.005 92.876 210.005 92.336C210.005 91.844 210.119 91.4 210.347 91.004C210.587 90.596 210.971 90.272 211.499 90.032C212.039 89.78 212.759 89.654 213.659 89.654H216.917V90.608H213.695C212.783 90.608 212.147 90.77 211.787 91.094C211.439 91.418 211.265 91.82 211.265 92.3C211.265 92.84 211.475 93.272 211.895 93.596C212.315 93.92 212.903 94.082 213.659 94.082C214.379 94.082 214.997 93.92 215.513 93.596C216.041 93.26 216.425 92.78 216.665 92.156L216.953 93.038C216.713 93.662 216.293 94.16 215.693 94.532C215.105 94.904 214.361 95.09 213.461 95.09ZM219.617 94.982L219.707 93.884C219.791 93.896 219.869 93.914 219.941 93.938C220.025 93.95 220.097 93.956 220.157 93.956C220.541 93.956 220.847 93.812 221.075 93.524C221.315 93.236 221.495 92.852 221.615 92.372C221.735 91.892 221.819 91.352 221.867 90.752C221.915 90.14 221.957 89.528 221.993 88.916L222.155 85.55H229.085V95H227.807V86.288L228.131 86.666H222.983L223.289 86.27L223.145 89.006C223.109 89.822 223.043 90.602 222.947 91.346C222.863 92.09 222.725 92.744 222.533 93.308C222.353 93.872 222.101 94.316 221.777 94.64C221.453 94.952 221.039 95.108 220.535 95.108C220.391 95.108 220.241 95.096 220.085 95.072C219.941 95.048 219.785 95.018 219.617 94.982ZM232.718 95V85.55H233.996V93.056L240.314 85.55H241.448V95H240.17V87.476L233.87 95H232.718ZM243.383 94.982L243.473 93.884C243.557 93.896 243.635 93.914 243.707 93.938C243.791 93.95 243.863 93.956 243.923 93.956C244.307 93.956 244.613 93.812 244.841 93.524C245.081 93.236 245.261 92.852 245.381 92.372C245.501 91.892 245.585 91.352 245.633 90.752C245.681 90.14 245.723 89.528 245.759 88.916L245.921 85.55H252.851V95H251.573V86.288L251.897 86.666H246.749L247.055 86.27L246.911 89.006C246.875 89.822 246.809 90.602 246.713 91.346C246.629 92.09 246.491 92.744 246.299 93.308C246.119 93.872 245.867 94.316 245.543 94.64C245.219 94.952 244.805 95.108 244.301 95.108C244.157 95.108 244.007 95.096 243.851 95.072C243.707 95.048 243.551 95.018 243.383 94.982ZM262.586 95V91.598L262.82 91.868H259.616C258.404 91.868 257.456 91.604 256.772 91.076C256.088 90.548 255.746 89.78 255.746 88.772C255.746 87.692 256.112 86.888 256.844 86.36C257.576 85.82 258.554 85.55 259.778 85.55H263.756V95H262.586ZM255.674 95L258.266 91.364H259.598L257.06 95H255.674ZM262.586 91.22V86.288L262.82 86.666H259.814C258.938 86.666 258.254 86.834 257.762 87.17C257.282 87.506 257.042 88.052 257.042 88.808C257.042 90.212 257.936 90.914 259.724 90.914H262.82L262.586 91.22ZM274.991 95.108C274.079 95.108 273.215 94.964 272.399 94.676C271.595 94.376 270.947 93.98 270.455 93.488L271.085 92.462C271.493 92.882 272.039 93.23 272.723 93.506C273.419 93.782 274.175 93.92 274.991 93.92C276.035 93.92 276.833 93.692 277.385 93.236C277.949 92.78 278.231 92.168 278.231 91.4C278.231 90.632 277.955 90.02 277.403 89.564C276.863 89.108 276.005 88.88 274.829 88.88H273.929V87.926L277.817 83.048L277.997 83.552H270.977V82.4H279.077V83.318L275.189 88.196L274.559 87.782H275.045C276.557 87.782 277.685 88.118 278.429 88.79C279.185 89.462 279.563 90.326 279.563 91.382C279.563 92.09 279.395 92.726 279.059 93.29C278.723 93.854 278.213 94.298 277.529 94.622C276.857 94.946 276.011 95.108 274.991 95.108ZM281.067 95V94.082L286.305 88.952C286.785 88.484 287.145 88.076 287.385 87.728C287.625 87.368 287.787 87.032 287.871 86.72C287.955 86.408 287.997 86.114 287.997 85.838C287.997 85.106 287.745 84.53 287.241 84.11C286.749 83.69 286.017 83.48 285.045 83.48C284.301 83.48 283.641 83.594 283.065 83.822C282.501 84.05 282.015 84.404 281.607 84.884L280.689 84.092C281.181 83.516 281.811 83.072 282.579 82.76C283.347 82.448 284.205 82.292 285.153 82.292C286.005 82.292 286.743 82.43 287.367 82.706C287.991 82.97 288.471 83.36 288.807 83.876C289.155 84.392 289.329 84.998 289.329 85.694C289.329 86.102 289.269 86.504 289.149 86.9C289.041 87.296 288.837 87.716 288.537 88.16C288.249 88.592 287.823 89.084 287.259 89.636L282.453 94.352L282.093 93.848H289.905V95H281.067Z" fill="black"/>
</svg>
