<svg width="28" height="25" viewBox="0 0 28 25" fill="none" xmlns="http://www.w3.org/2000/svg">
<path d="M15.0004 12.9973V19.9973C15.0004 20.2625 14.8951 20.5169 14.7075 20.7044C14.52 20.892 14.2656 20.9973 14.0004 20.9973C13.7352 20.9973 13.4808 20.892 13.2933 20.7044C13.1058 20.5169 13.0004 20.2625 13.0004 19.9973V12.9973C13.0004 12.7321 13.1058 12.4777 13.2933 12.2902C13.4808 12.1027 13.7352 11.9973 14.0004 11.9973C14.2656 11.9973 14.52 12.1027 14.7075 12.2902C14.8951 12.4777 15.0004 12.7321 15.0004 12.9973ZM27.9829 10.2611L26.2504 23.2623C26.1862 23.7428 25.9496 24.1836 25.5847 24.5028C25.2198 24.8219 24.7514 24.9976 24.2667 24.9973H3.73416C3.24939 24.9976 2.781 24.8219 2.4161 24.5028C2.0512 24.1836 1.81464 23.7428 1.75041 23.2623L0.0166576 10.2623C-0.0211238 9.97968 0.0019659 9.69224 0.084378 9.41927C0.16679 9.1463 0.30662 8.8941 0.494488 8.6796C0.682356 8.46509 0.91392 8.29324 1.17365 8.17557C1.43338 8.05789 1.71527 7.99711 2.00041 7.99731H6.54666L13.2504 0.338562C13.3442 0.232155 13.4597 0.146935 13.589 0.088562C13.7183 0.0301891 13.8585 0 14.0004 0C14.1423 0 14.2825 0.0301891 14.4118 0.088562C14.5412 0.146935 14.6566 0.232155 14.7504 0.338562L21.4542 7.99731H26.0004C26.2852 7.99749 26.5667 8.05851 26.826 8.17626C27.0854 8.29402 27.3165 8.46581 27.5041 8.68013C27.6917 8.89445 27.8313 9.14636 27.9137 9.419C27.996 9.69165 28.0192 9.97874 27.9817 10.2611H27.9829ZM9.20416 7.99731H18.7967L14.0004 2.51606L9.20416 7.99731ZM26.0004 9.99731H2.00041L3.73416 22.9973H24.2667L26.0004 9.99731ZM19.6054 12.8973L18.9054 19.8973C18.8916 20.0284 18.9038 20.1609 18.9413 20.2872C18.9789 20.4135 19.041 20.5312 19.1242 20.6334C19.2074 20.7356 19.3099 20.8204 19.426 20.8828C19.542 20.9453 19.6693 20.9842 19.8004 20.9973C19.8341 20.9992 19.8679 20.9992 19.9017 20.9973C20.1493 20.997 20.3881 20.9048 20.5717 20.7385C20.7553 20.5722 20.8706 20.3438 20.8954 20.0973L21.5954 13.0973C21.6219 12.8334 21.5425 12.5698 21.3747 12.3645C21.2068 12.1591 20.9643 12.0288 20.7004 12.0023C20.4365 11.9758 20.1729 12.0552 19.9675 12.223C19.7622 12.3909 19.6319 12.6334 19.6054 12.8973ZM8.39541 12.8973C8.36889 12.6334 8.23862 12.3909 8.03327 12.223C7.82792 12.0552 7.5643 11.9758 7.30041 12.0023C7.03652 12.0288 6.79397 12.1591 6.62613 12.3645C6.45828 12.5698 6.37889 12.8334 6.40541 13.0973L7.10541 20.0973C7.13028 20.3448 7.24652 20.5742 7.43143 20.7406C7.61634 20.907 7.85664 20.9986 8.10541 20.9973C8.13913 20.9992 8.17293 20.9992 8.20666 20.9973C8.33732 20.9842 8.46412 20.9454 8.57982 20.8833C8.69551 20.8212 8.79784 20.7369 8.88094 20.6352C8.96405 20.5335 9.02632 20.4164 9.06419 20.2907C9.10206 20.165 9.11479 20.033 9.10166 19.9023L8.39541 12.8973Z" fill="black"/>
</svg>
