<svg width="291" height="446" viewBox="0 0 291 446" fill="none" xmlns="http://www.w3.org/2000/svg">
<path d="M28.1988 20.0376L22.2938 17.3913C22.0262 17.2767 21.7343 17.2306 21.4444 17.2572C21.1546 17.2838 20.8759 17.3824 20.6338 17.5438C20.6092 17.5596 20.5858 17.5771 20.5638 17.5963L17.4775 20.2213C17.4455 20.2388 17.4098 20.2485 17.3734 20.2498C17.337 20.2512 17.3007 20.244 17.2675 20.2288C15.2838 19.2713 13.2288 17.2288 12.2675 15.2726C12.2515 15.2399 12.2432 15.204 12.2432 15.1676C12.2432 15.1312 12.2515 15.0953 12.2675 15.0626L14.9013 11.9376C14.9202 11.9144 14.9377 11.8902 14.9538 11.8651C15.113 11.622 15.2092 11.343 15.2336 11.0534C15.2581 10.7638 15.21 10.4727 15.0938 10.2063L12.4663 4.31132C12.3171 3.96333 12.059 3.67312 11.7308 3.48425C11.4027 3.29538 11.0221 3.21803 10.6463 3.26382C9.0128 3.47857 7.51341 4.28074 6.42829 5.52045C5.34318 6.76015 4.74659 8.35255 4.75001 10.0001C4.75001 19.7876 12.7125 27.7501 22.5 27.7501C24.1475 27.7532 25.7397 27.1565 26.9794 26.0715C28.219 24.9864 29.0213 23.4872 29.2363 21.8538C29.282 21.4797 29.2057 21.1009 29.0187 20.7736C28.8318 20.4464 28.5442 20.1882 28.1988 20.0376ZM22.5 26.2501C13.54 26.2501 6.25001 18.9601 6.25001 10.0001C6.24584 8.71748 6.70877 7.47725 7.55232 6.51108C8.39587 5.54492 9.56233 4.91893 10.8338 4.75007H10.8625C10.9129 4.75101 10.9618 4.76715 11.0028 4.79637C11.0439 4.82559 11.0751 4.86653 11.0925 4.91382L13.73 10.8026C13.7451 10.8353 13.7528 10.8709 13.7528 10.9069C13.7528 10.943 13.7451 10.9786 13.73 11.0113L11.0913 14.1438C11.0716 14.1662 11.0536 14.19 11.0375 14.2151C10.8724 14.4671 10.7752 14.7576 10.7552 15.0583C10.7353 15.3589 10.7934 15.6597 10.9238 15.9313C12.0325 18.2013 14.32 20.4713 16.615 21.5801C16.8883 21.7098 17.1905 21.7664 17.4921 21.7445C17.7938 21.7226 18.0846 21.6229 18.3363 21.4551C18.36 21.4388 18.3838 21.4213 18.4063 21.4026L21.4913 18.7776C21.5217 18.7612 21.5554 18.7516 21.5899 18.7494C21.6244 18.7473 21.659 18.7526 21.6913 18.7651L27.5975 21.4113C27.6458 21.4319 27.6863 21.4671 27.7135 21.5119C27.7406 21.5568 27.753 21.6091 27.7488 21.6613C27.5808 22.9333 26.9554 24.1007 25.9894 24.9452C25.0235 25.7897 23.7831 26.2535 22.5 26.2501Z" fill="black"/>
<path d="M57.108 19.516V11.884H58.242V19.516H57.108ZM53.76 16.24V15.178H61.59V16.24H53.76ZM65.8277 22L71.2637 9.976L71.6597 10.552H63.8657L64.5317 9.922V12.91H63.2537V9.4H72.5057V10.318L67.2317 22H65.8277ZM81.9483 25.492C81.2883 24.4 80.7723 23.14 80.4003 21.712C80.0403 20.272 79.8603 18.724 79.8603 17.068C79.8603 15.412 80.0403 13.864 80.4003 12.424C80.7723 10.972 81.2883 9.712 81.9483 8.644H83.1723C82.4643 9.88 81.9423 11.194 81.6063 12.586C81.2823 13.966 81.1203 15.46 81.1203 17.068C81.1203 18.676 81.2823 20.176 81.6063 21.568C81.9423 22.948 82.4643 24.256 83.1723 25.492H81.9483ZM88.7721 9.292C89.8881 9.292 90.8301 9.544 91.5981 10.048C92.3661 10.54 92.9481 11.254 93.3441 12.19C93.7401 13.126 93.9381 14.26 93.9381 15.592C93.9381 17.008 93.6921 18.202 93.2001 19.174C92.7201 20.146 92.0481 20.878 91.1841 21.37C90.3201 21.862 89.3181 22.108 88.1781 22.108C87.6141 22.108 87.0741 22.054 86.5581 21.946C86.0541 21.838 85.5981 21.664 85.1901 21.424L85.7121 20.38C86.0361 20.596 86.4081 20.752 86.8281 20.848C87.2601 20.932 87.7041 20.974 88.1601 20.974C89.5161 20.974 90.5961 20.542 91.4001 19.678C92.2161 18.814 92.6241 17.524 92.6241 15.808C92.6241 15.532 92.6061 15.202 92.5701 14.818C92.5461 14.434 92.4801 14.05 92.3721 13.666L92.8221 14.008C92.7021 14.632 92.4441 15.166 92.0481 15.61C91.6641 16.042 91.1841 16.372 90.6081 16.6C90.0441 16.828 89.4141 16.942 88.7181 16.942C87.8901 16.942 87.1521 16.786 86.5041 16.474C85.8681 16.162 85.3701 15.724 85.0101 15.16C84.6501 14.596 84.4701 13.93 84.4701 13.162C84.4701 12.37 84.6561 11.686 85.0281 11.11C85.4001 10.534 85.9101 10.09 86.5581 9.778C87.2181 9.454 87.9561 9.292 88.7721 9.292ZM88.8261 10.39C88.2261 10.39 87.6921 10.504 87.2241 10.732C86.7681 10.948 86.4081 11.26 86.1441 11.668C85.8801 12.076 85.7481 12.562 85.7481 13.126C85.7481 13.954 86.0301 14.614 86.5941 15.106C87.1701 15.598 87.9441 15.844 88.9161 15.844C89.5641 15.844 90.1281 15.724 90.6081 15.484C91.1001 15.244 91.4781 14.914 91.7421 14.494C92.0181 14.074 92.1561 13.606 92.1561 13.09C92.1561 12.622 92.0301 12.184 91.7781 11.776C91.5261 11.368 91.1541 11.038 90.6621 10.786C90.1701 10.522 89.5581 10.39 88.8261 10.39ZM99.7409 9.292C100.857 9.292 101.799 9.544 102.567 10.048C103.335 10.54 103.917 11.254 104.313 12.19C104.709 13.126 104.907 14.26 104.907 15.592C104.907 17.008 104.661 18.202 104.169 19.174C103.689 20.146 103.017 20.878 102.153 21.37C101.289 21.862 100.287 22.108 99.1469 22.108C98.5829 22.108 98.0429 22.054 97.5269 21.946C97.0229 21.838 96.5669 21.664 96.1589 21.424L96.6809 20.38C97.0049 20.596 97.3769 20.752 97.7969 20.848C98.2289 20.932 98.6729 20.974 99.1289 20.974C100.485 20.974 101.565 20.542 102.369 19.678C103.185 18.814 103.593 17.524 103.593 15.808C103.593 15.532 103.575 15.202 103.539 14.818C103.515 14.434 103.449 14.05 103.341 13.666L103.791 14.008C103.671 14.632 103.413 15.166 103.017 15.61C102.633 16.042 102.153 16.372 101.577 16.6C101.013 16.828 100.383 16.942 99.6869 16.942C98.8589 16.942 98.1209 16.786 97.4729 16.474C96.8369 16.162 96.3389 15.724 95.9789 15.16C95.6189 14.596 95.4389 13.93 95.4389 13.162C95.4389 12.37 95.6249 11.686 95.9969 11.11C96.3689 10.534 96.8789 10.09 97.5269 9.778C98.1869 9.454 98.9249 9.292 99.7409 9.292ZM99.7949 10.39C99.1949 10.39 98.6609 10.504 98.1929 10.732C97.7369 10.948 97.3769 11.26 97.1129 11.668C96.8489 12.076 96.7169 12.562 96.7169 13.126C96.7169 13.954 96.9989 14.614 97.5629 15.106C98.1389 15.598 98.9129 15.844 99.8849 15.844C100.533 15.844 101.097 15.724 101.577 15.484C102.069 15.244 102.447 14.914 102.711 14.494C102.987 14.074 103.125 13.606 103.125 13.09C103.125 12.622 102.999 12.184 102.747 11.776C102.495 11.368 102.123 11.038 101.631 10.786C101.139 10.522 100.527 10.39 99.7949 10.39ZM110.71 9.292C111.826 9.292 112.768 9.544 113.536 10.048C114.304 10.54 114.886 11.254 115.282 12.19C115.678 13.126 115.876 14.26 115.876 15.592C115.876 17.008 115.63 18.202 115.138 19.174C114.658 20.146 113.986 20.878 113.122 21.37C112.258 21.862 111.256 22.108 110.116 22.108C109.552 22.108 109.012 22.054 108.496 21.946C107.992 21.838 107.536 21.664 107.128 21.424L107.65 20.38C107.974 20.596 108.346 20.752 108.766 20.848C109.198 20.932 109.642 20.974 110.098 20.974C111.454 20.974 112.534 20.542 113.338 19.678C114.154 18.814 114.562 17.524 114.562 15.808C114.562 15.532 114.544 15.202 114.508 14.818C114.484 14.434 114.418 14.05 114.31 13.666L114.76 14.008C114.64 14.632 114.382 15.166 113.986 15.61C113.602 16.042 113.122 16.372 112.546 16.6C111.982 16.828 111.352 16.942 110.656 16.942C109.828 16.942 109.09 16.786 108.442 16.474C107.806 16.162 107.308 15.724 106.948 15.16C106.588 14.596 106.408 13.93 106.408 13.162C106.408 12.37 106.594 11.686 106.966 11.11C107.338 10.534 107.848 10.09 108.496 9.778C109.156 9.454 109.894 9.292 110.71 9.292ZM110.764 10.39C110.164 10.39 109.63 10.504 109.162 10.732C108.706 10.948 108.346 11.26 108.082 11.668C107.818 12.076 107.686 12.562 107.686 13.126C107.686 13.954 107.968 14.614 108.532 15.106C109.108 15.598 109.882 15.844 110.854 15.844C111.502 15.844 112.066 15.724 112.546 15.484C113.038 15.244 113.416 14.914 113.68 14.494C113.956 14.074 114.094 13.606 114.094 13.09C114.094 12.622 113.968 12.184 113.716 11.776C113.464 11.368 113.092 11.038 112.6 10.786C112.108 10.522 111.496 10.39 110.764 10.39ZM118.762 25.492H117.538C118.258 24.256 118.78 22.948 119.104 21.568C119.44 20.176 119.608 18.676 119.608 17.068C119.608 15.46 119.44 13.966 119.104 12.586C118.78 11.194 118.258 9.88 117.538 8.644H118.762C119.446 9.712 119.968 10.972 120.328 12.424C120.688 13.864 120.868 15.412 120.868 17.068C120.868 18.724 120.688 20.272 120.328 21.712C119.968 23.14 119.446 24.4 118.762 25.492ZM130.585 22V9.94L131.161 10.552H127.615V9.4H131.881V22H130.585ZM138.655 22.108C137.743 22.108 136.879 21.964 136.063 21.676C135.259 21.376 134.611 20.98 134.119 20.488L134.749 19.462C135.157 19.882 135.703 20.23 136.387 20.506C137.083 20.782 137.839 20.92 138.655 20.92C139.699 20.92 140.497 20.692 141.049 20.236C141.613 19.78 141.895 19.168 141.895 18.4C141.895 17.632 141.619 17.02 141.067 16.564C140.527 16.108 139.669 15.88 138.493 15.88H137.593V14.926L141.481 10.048L141.661 10.552H134.641V9.4H142.741V10.318L138.853 15.196L138.223 14.782H138.709C140.221 14.782 141.349 15.118 142.093 15.79C142.849 16.462 143.227 17.326 143.227 18.382C143.227 19.09 143.059 19.726 142.723 20.29C142.387 20.854 141.877 21.298 141.193 21.622C140.521 21.946 139.675 22.108 138.655 22.108ZM147.249 22V9.94L147.825 10.552H144.279V9.4H148.545V22H147.249ZM151.701 17.68V16.564H156.417V17.68H151.701ZM161.841 22.108C160.929 22.108 160.065 21.964 159.249 21.676C158.445 21.376 157.797 20.98 157.305 20.488L157.935 19.462C158.343 19.882 158.889 20.23 159.573 20.506C160.269 20.782 161.025 20.92 161.841 20.92C162.885 20.92 163.683 20.692 164.235 20.236C164.799 19.78 165.081 19.168 165.081 18.4C165.081 17.632 164.805 17.02 164.253 16.564C163.713 16.108 162.855 15.88 161.679 15.88H160.779V14.926L164.667 10.048L164.847 10.552H157.827V9.4H165.927V10.318L162.039 15.196L161.409 14.782H161.895C163.407 14.782 164.535 15.118 165.279 15.79C166.035 16.462 166.413 17.326 166.413 18.382C166.413 19.09 166.245 19.726 165.909 20.29C165.573 20.854 165.063 21.298 164.379 21.622C163.707 21.946 162.861 22.108 161.841 22.108ZM167.917 22V21.082L173.155 15.952C173.635 15.484 173.995 15.076 174.235 14.728C174.475 14.368 174.637 14.032 174.721 13.72C174.805 13.408 174.847 13.114 174.847 12.838C174.847 12.106 174.595 11.53 174.091 11.11C173.599 10.69 172.867 10.48 171.895 10.48C171.151 10.48 170.491 10.594 169.915 10.822C169.351 11.05 168.865 11.404 168.457 11.884L167.539 11.092C168.031 10.516 168.661 10.072 169.429 9.76C170.197 9.448 171.055 9.292 172.003 9.292C172.855 9.292 173.593 9.43 174.217 9.706C174.841 9.97 175.321 10.36 175.657 10.876C176.005 11.392 176.179 11.998 176.179 12.694C176.179 13.102 176.119 13.504 175.999 13.9C175.891 14.296 175.687 14.716 175.387 15.16C175.099 15.592 174.673 16.084 174.109 16.636L169.303 21.352L168.943 20.848H176.755V22H167.917ZM178.385 17.68V16.564H183.101V17.68H178.385ZM185.038 18.688V17.752L191.716 9.4H193.156L186.532 17.752L185.83 17.536H195.964V18.688H185.038ZM192.148 22V18.688L192.184 17.536V14.62H193.444V22H192.148ZM200.938 9.292C202.054 9.292 202.996 9.544 203.764 10.048C204.532 10.54 205.114 11.254 205.51 12.19C205.906 13.126 206.104 14.26 206.104 15.592C206.104 17.008 205.858 18.202 205.366 19.174C204.886 20.146 204.214 20.878 203.35 21.37C202.486 21.862 201.484 22.108 200.344 22.108C199.78 22.108 199.24 22.054 198.724 21.946C198.22 21.838 197.764 21.664 197.356 21.424L197.878 20.38C198.202 20.596 198.574 20.752 198.994 20.848C199.426 20.932 199.87 20.974 200.326 20.974C201.682 20.974 202.762 20.542 203.566 19.678C204.382 18.814 204.79 17.524 204.79 15.808C204.79 15.532 204.772 15.202 204.736 14.818C204.712 14.434 204.646 14.05 204.538 13.666L204.988 14.008C204.868 14.632 204.61 15.166 204.214 15.61C203.83 16.042 203.35 16.372 202.774 16.6C202.21 16.828 201.58 16.942 200.884 16.942C200.056 16.942 199.318 16.786 198.67 16.474C198.034 16.162 197.536 15.724 197.176 15.16C196.816 14.596 196.636 13.93 196.636 13.162C196.636 12.37 196.822 11.686 197.194 11.11C197.566 10.534 198.076 10.09 198.724 9.778C199.384 9.454 200.122 9.292 200.938 9.292ZM200.992 10.39C200.392 10.39 199.858 10.504 199.39 10.732C198.934 10.948 198.574 11.26 198.31 11.668C198.046 12.076 197.914 12.562 197.914 13.126C197.914 13.954 198.196 14.614 198.76 15.106C199.336 15.598 200.11 15.844 201.082 15.844C201.73 15.844 202.294 15.724 202.774 15.484C203.266 15.244 203.644 14.914 203.908 14.494C204.184 14.074 204.322 13.606 204.322 13.09C204.322 12.622 204.196 12.184 203.944 11.776C203.692 11.368 203.32 11.038 202.828 10.786C202.336 10.522 201.724 10.39 200.992 10.39Z" fill="black"/>
<path d="M4.5 82C3.95 82 3.479 81.804 3.087 81.412C2.695 81.02 2.49934 80.5493 2.5 80V68C2.5 67.45 2.696 66.979 3.088 66.587C3.48 66.195 3.95067 65.9993 4.5 66H20.5C21.05 66 21.521 66.196 21.913 66.588C22.305 66.98 22.5007 67.4507 22.5 68V80C22.5 80.55 22.304 81.021 21.912 81.413C21.52 81.805 21.0493 82.0007 20.5 82H4.5ZM12.5 75L4.5 70V80H20.5V70L12.5 75ZM12.5 73L20.5 68H4.5L12.5 73ZM4.5 70V68V80V70Z" fill="black"/>
<path d="M52.024 80.108C51.076 80.108 50.2 79.952 49.396 79.64C48.592 79.316 47.896 78.866 47.308 78.29C46.72 77.714 46.258 77.036 45.922 76.256C45.598 75.476 45.436 74.624 45.436 73.7C45.436 72.776 45.598 71.924 45.922 71.144C46.258 70.364 46.72 69.686 47.308 69.11C47.908 68.534 48.61 68.09 49.414 67.778C50.218 67.454 51.094 67.292 52.042 67.292C52.954 67.292 53.812 67.448 54.616 67.76C55.42 68.06 56.098 68.516 56.65 69.128L55.804 69.974C55.288 69.446 54.718 69.068 54.094 68.84C53.47 68.6 52.798 68.48 52.078 68.48C51.322 68.48 50.62 68.612 49.972 68.876C49.324 69.128 48.76 69.494 48.28 69.974C47.8 70.442 47.422 70.994 47.146 71.63C46.882 72.254 46.75 72.944 46.75 73.7C46.75 74.456 46.882 75.152 47.146 75.788C47.422 76.412 47.8 76.964 48.28 77.444C48.76 77.912 49.324 78.278 49.972 78.542C50.62 78.794 51.322 78.92 52.078 78.92C52.798 78.92 53.47 78.8 54.094 78.56C54.718 78.32 55.288 77.936 55.804 77.408L56.65 78.254C56.098 78.866 55.42 79.328 54.616 79.64C53.812 79.952 52.948 80.108 52.024 80.108ZM65.0009 80V77.912L64.9469 77.57V74.078C64.9469 73.274 64.7189 72.656 64.2629 72.224C63.8189 71.792 63.1529 71.576 62.2649 71.576C61.6529 71.576 61.0709 71.678 60.5189 71.882C59.9669 72.086 59.4989 72.356 59.1149 72.692L58.5389 71.738C59.0189 71.33 59.5949 71.018 60.2669 70.802C60.9389 70.574 61.6469 70.46 62.3909 70.46C63.6149 70.46 64.5569 70.766 65.2169 71.378C65.8889 71.978 66.2249 72.896 66.2249 74.132V80H65.0009ZM61.7429 80.09C61.0349 80.09 60.4169 79.976 59.8889 79.748C59.3729 79.508 58.9769 79.184 58.7009 78.776C58.4249 78.356 58.2869 77.876 58.2869 77.336C58.2869 76.844 58.4009 76.4 58.6289 76.004C58.8689 75.596 59.2529 75.272 59.7809 75.032C60.3209 74.78 61.0409 74.654 61.9409 74.654H65.1989V75.608H61.9769C61.0649 75.608 60.4289 75.77 60.0689 76.094C59.7209 76.418 59.5469 76.82 59.5469 77.3C59.5469 77.84 59.7569 78.272 60.1769 78.596C60.5969 78.92 61.1849 79.082 61.9409 79.082C62.6609 79.082 63.2789 78.92 63.7949 78.596C64.3229 78.26 64.7069 77.78 64.9469 77.156L65.2349 78.038C64.9949 78.662 64.5749 79.16 63.9749 79.532C63.3869 79.904 62.6429 80.09 61.7429 80.09ZM81.5041 70.46C82.2721 70.46 82.9381 70.61 83.5021 70.91C84.0781 71.198 84.5221 71.642 84.8341 72.242C85.1581 72.842 85.3201 73.598 85.3201 74.51V80H84.0421V74.636C84.0421 73.64 83.8021 72.89 83.3221 72.386C82.8541 71.87 82.1881 71.612 81.3241 71.612C80.6761 71.612 80.1121 71.75 79.6321 72.026C79.1641 72.29 78.7981 72.68 78.5341 73.196C78.2821 73.7 78.1561 74.312 78.1561 75.032V80H76.8781V74.636C76.8781 73.64 76.6381 72.89 76.1581 72.386C75.6781 71.87 75.0061 71.612 74.1421 71.612C73.5061 71.612 72.9481 71.75 72.4681 72.026C71.9881 72.29 71.6161 72.68 71.3521 73.196C71.1001 73.7 70.9741 74.312 70.9741 75.032V80H69.6961V70.55H70.9201V73.106L70.7221 72.656C71.0101 71.972 71.4721 71.438 72.1081 71.054C72.7561 70.658 73.5181 70.46 74.3941 70.46C75.3181 70.46 76.1041 70.694 76.7521 71.162C77.4001 71.618 77.8201 72.308 78.0121 73.232L77.5081 73.034C77.7841 72.266 78.2701 71.648 78.9661 71.18C79.6741 70.7 80.5201 70.46 81.5041 70.46ZM92.7999 80.09C91.8159 80.09 90.9519 79.886 90.2079 79.478C89.4639 79.058 88.8819 78.488 88.4619 77.768C88.0419 77.036 87.8319 76.202 87.8319 75.266C87.8319 74.33 88.0299 73.502 88.4259 72.782C88.8339 72.062 89.3859 71.498 90.0819 71.09C90.7899 70.67 91.5819 70.46 92.4579 70.46C93.3459 70.46 94.1319 70.664 94.8159 71.072C95.5119 71.468 96.0579 72.032 96.4539 72.764C96.8499 73.484 97.0479 74.318 97.0479 75.266C97.0479 75.326 97.0419 75.392 97.0299 75.464C97.0299 75.524 97.0299 75.59 97.0299 75.662H88.8039V74.708H96.3459L95.8419 75.086C95.8419 74.402 95.6919 73.796 95.3919 73.268C95.1039 72.728 94.7079 72.308 94.2039 72.008C93.6999 71.708 93.1179 71.558 92.4579 71.558C91.8099 71.558 91.2279 71.708 90.7119 72.008C90.1959 72.308 89.7939 72.728 89.5059 73.268C89.2179 73.808 89.0739 74.426 89.0739 75.122V75.32C89.0739 76.04 89.2299 76.676 89.5419 77.228C89.8659 77.768 90.3099 78.194 90.8739 78.506C91.4499 78.806 92.1039 78.956 92.8359 78.956C93.4119 78.956 93.9459 78.854 94.4379 78.65C94.9419 78.446 95.3739 78.134 95.7339 77.714L96.4539 78.542C96.0339 79.046 95.5059 79.43 94.8699 79.694C94.2459 79.958 93.5559 80.09 92.7999 80.09ZM99.6492 80V66.644H100.927V80H99.6492ZM104.483 80V66.644H105.761V80H104.483ZM115.239 80V77.912L115.185 77.57V74.078C115.185 73.274 114.957 72.656 114.501 72.224C114.057 71.792 113.391 71.576 112.503 71.576C111.891 71.576 111.309 71.678 110.757 71.882C110.205 72.086 109.737 72.356 109.353 72.692L108.777 71.738C109.257 71.33 109.833 71.018 110.505 70.802C111.177 70.574 111.885 70.46 112.629 70.46C113.853 70.46 114.795 70.766 115.455 71.378C116.127 71.978 116.463 72.896 116.463 74.132V80H115.239ZM111.981 80.09C111.273 80.09 110.655 79.976 110.127 79.748C109.611 79.508 109.215 79.184 108.939 78.776C108.663 78.356 108.525 77.876 108.525 77.336C108.525 76.844 108.639 76.4 108.867 76.004C109.107 75.596 109.491 75.272 110.019 75.032C110.559 74.78 111.279 74.654 112.179 74.654H115.437V75.608H112.215C111.303 75.608 110.667 75.77 110.307 76.094C109.959 76.418 109.785 76.82 109.785 77.3C109.785 77.84 109.995 78.272 110.415 78.596C110.835 78.92 111.423 79.082 112.179 79.082C112.899 79.082 113.517 78.92 114.033 78.596C114.561 78.26 114.945 77.78 115.185 77.156L115.473 78.038C115.233 78.662 114.813 79.16 114.213 79.532C113.625 79.904 112.881 80.09 111.981 80.09ZM124.812 80.09C123.984 80.09 123.24 79.904 122.58 79.532C121.92 79.148 121.398 78.596 121.014 77.876C120.63 77.156 120.438 76.286 120.438 75.266C120.438 74.234 120.63 73.364 121.014 72.656C121.41 71.936 121.938 71.39 122.598 71.018C123.258 70.646 123.996 70.46 124.812 70.46C125.712 70.46 126.516 70.664 127.224 71.072C127.944 71.468 128.508 72.026 128.916 72.746C129.324 73.466 129.528 74.306 129.528 75.266C129.528 76.214 129.324 77.054 128.916 77.786C128.508 78.506 127.944 79.07 127.224 79.478C126.516 79.886 125.712 80.09 124.812 80.09ZM119.934 80V66.644H121.212V73.34L121.032 75.248L121.158 77.156V80H119.934ZM124.722 78.956C125.394 78.956 125.994 78.806 126.522 78.506C127.05 78.194 127.47 77.762 127.782 77.21C128.094 76.646 128.25 75.998 128.25 75.266C128.25 74.522 128.094 73.874 127.782 73.322C127.47 72.77 127.05 72.344 126.522 72.044C125.994 71.732 125.394 71.576 124.722 71.576C124.05 71.576 123.444 71.732 122.904 72.044C122.376 72.344 121.956 72.77 121.644 73.322C121.344 73.874 121.194 74.522 121.194 75.266C121.194 75.998 121.344 76.646 121.644 77.21C121.956 77.762 122.376 78.194 122.904 78.506C123.444 78.806 124.05 78.956 124.722 78.956ZM139.622 83.6C138.386 83.6 137.258 83.396 136.238 82.988C135.218 82.592 134.336 82.028 133.592 81.296C132.86 80.576 132.29 79.718 131.882 78.722C131.486 77.714 131.288 76.616 131.288 75.428C131.288 74.228 131.486 73.136 131.882 72.152C132.29 71.156 132.866 70.298 133.61 69.578C134.366 68.846 135.26 68.282 136.292 67.886C137.324 67.49 138.458 67.292 139.694 67.292C140.918 67.292 142.034 67.484 143.042 67.868C144.062 68.252 144.944 68.798 145.688 69.506C146.432 70.202 147.002 71.036 147.398 72.008C147.806 72.98 148.01 74.054 148.01 75.23C148.01 76.238 147.89 77.108 147.65 77.84C147.422 78.56 147.086 79.118 146.642 79.514C146.198 79.898 145.664 80.09 145.04 80.09C144.428 80.09 143.936 79.904 143.564 79.532C143.192 79.16 143.006 78.638 143.006 77.966V76.544L143.15 75.392L142.97 73.592V70.874H144.14V77.696C144.14 78.2 144.248 78.554 144.464 78.758C144.68 78.962 144.944 79.064 145.256 79.064C145.628 79.064 145.952 78.914 146.228 78.614C146.504 78.314 146.714 77.882 146.858 77.318C147.014 76.742 147.092 76.052 147.092 75.248C147.092 74.192 146.912 73.232 146.552 72.368C146.192 71.504 145.682 70.76 145.022 70.136C144.362 69.512 143.582 69.038 142.682 68.714C141.782 68.378 140.786 68.21 139.694 68.21C138.602 68.21 137.6 68.384 136.688 68.732C135.776 69.08 134.99 69.578 134.33 70.226C133.682 70.862 133.178 71.624 132.818 72.512C132.458 73.388 132.278 74.36 132.278 75.428C132.278 76.496 132.452 77.474 132.8 78.362C133.16 79.25 133.664 80.012 134.312 80.648C134.96 81.296 135.734 81.794 136.634 82.142C137.534 82.502 138.53 82.682 139.622 82.682C140.162 82.682 140.738 82.616 141.35 82.484C141.974 82.352 142.55 82.154 143.078 81.89L143.384 82.772C142.844 83.048 142.232 83.252 141.548 83.384C140.864 83.528 140.222 83.6 139.622 83.6ZM139.406 80.09C138.554 80.09 137.792 79.892 137.12 79.496C136.448 79.088 135.914 78.536 135.518 77.84C135.134 77.132 134.942 76.328 134.942 75.428C134.942 74.528 135.134 73.73 135.518 73.034C135.914 72.338 136.448 71.792 137.12 71.396C137.792 71 138.554 70.802 139.406 70.802C140.234 70.802 140.966 70.988 141.602 71.36C142.25 71.732 142.754 72.266 143.114 72.962C143.486 73.646 143.672 74.468 143.672 75.428C143.672 76.388 143.486 77.216 143.114 77.912C142.754 78.608 142.256 79.148 141.62 79.532C140.984 79.904 140.246 80.09 139.406 80.09ZM139.568 79.046C140.216 79.046 140.798 78.896 141.314 78.596C141.842 78.296 142.25 77.876 142.538 77.336C142.838 76.784 142.988 76.148 142.988 75.428C142.988 74.696 142.838 74.066 142.538 73.538C142.25 72.998 141.842 72.584 141.314 72.296C140.798 71.996 140.216 71.846 139.568 71.846C138.896 71.846 138.302 71.996 137.786 72.296C137.27 72.584 136.862 72.998 136.562 73.538C136.274 74.078 136.13 74.708 136.13 75.428C136.13 76.148 136.274 76.778 136.562 77.318C136.862 77.858 137.27 78.284 137.786 78.596C138.302 78.896 138.896 79.046 139.568 79.046ZM154.763 83.582C153.899 83.582 153.071 83.456 152.279 83.204C151.487 82.952 150.845 82.592 150.353 82.124L151.001 81.152C151.445 81.548 151.991 81.86 152.639 82.088C153.299 82.328 153.995 82.448 154.727 82.448C155.927 82.448 156.809 82.166 157.373 81.602C157.937 81.05 158.219 80.186 158.219 79.01V76.652L158.399 75.032L158.273 73.412V70.55H159.497V78.848C159.497 80.48 159.095 81.674 158.291 82.43C157.499 83.198 156.323 83.582 154.763 83.582ZM154.529 79.64C153.629 79.64 152.819 79.448 152.099 79.064C151.379 78.668 150.809 78.122 150.389 77.426C149.981 76.73 149.777 75.932 149.777 75.032C149.777 74.132 149.981 73.34 150.389 72.656C150.809 71.96 151.379 71.42 152.099 71.036C152.819 70.652 153.629 70.46 154.529 70.46C155.369 70.46 156.125 70.634 156.797 70.982C157.469 71.33 158.003 71.846 158.399 72.53C158.795 73.214 158.993 74.048 158.993 75.032C158.993 76.016 158.795 76.85 158.399 77.534C158.003 78.218 157.469 78.74 156.797 79.1C156.125 79.46 155.369 79.64 154.529 79.64ZM154.655 78.506C155.351 78.506 155.969 78.362 156.509 78.074C157.049 77.774 157.475 77.366 157.787 76.85C158.099 76.322 158.255 75.716 158.255 75.032C158.255 74.348 158.099 73.748 157.787 73.232C157.475 72.716 157.049 72.314 156.509 72.026C155.969 71.726 155.351 71.576 154.655 71.576C153.971 71.576 153.353 71.726 152.801 72.026C152.261 72.314 151.835 72.716 151.523 73.232C151.223 73.748 151.073 74.348 151.073 75.032C151.073 75.716 151.223 76.322 151.523 76.85C151.835 77.366 152.261 77.774 152.801 78.074C153.353 78.362 153.971 78.506 154.655 78.506ZM174.861 70.46C175.629 70.46 176.295 70.61 176.859 70.91C177.435 71.198 177.879 71.642 178.191 72.242C178.515 72.842 178.677 73.598 178.677 74.51V80H177.399V74.636C177.399 73.64 177.159 72.89 176.679 72.386C176.211 71.87 175.545 71.612 174.681 71.612C174.033 71.612 173.469 71.75 172.989 72.026C172.521 72.29 172.155 72.68 171.891 73.196C171.639 73.7 171.513 74.312 171.513 75.032V80H170.235V74.636C170.235 73.64 169.995 72.89 169.515 72.386C169.035 71.87 168.363 71.612 167.499 71.612C166.863 71.612 166.305 71.75 165.825 72.026C165.345 72.29 164.973 72.68 164.709 73.196C164.457 73.7 164.331 74.312 164.331 75.032V80H163.053V70.55H164.277V73.106L164.079 72.656C164.367 71.972 164.829 71.438 165.465 71.054C166.113 70.658 166.875 70.46 167.751 70.46C168.675 70.46 169.461 70.694 170.109 71.162C170.757 71.618 171.177 72.308 171.369 73.232L170.865 73.034C171.141 72.266 171.627 71.648 172.323 71.18C173.031 70.7 173.877 70.46 174.861 70.46ZM188.065 80V77.912L188.011 77.57V74.078C188.011 73.274 187.783 72.656 187.327 72.224C186.883 71.792 186.217 71.576 185.329 71.576C184.717 71.576 184.135 71.678 183.583 71.882C183.031 72.086 182.563 72.356 182.179 72.692L181.603 71.738C182.083 71.33 182.659 71.018 183.331 70.802C184.003 70.574 184.711 70.46 185.455 70.46C186.679 70.46 187.621 70.766 188.281 71.378C188.953 71.978 189.289 72.896 189.289 74.132V80H188.065ZM184.807 80.09C184.099 80.09 183.481 79.976 182.953 79.748C182.437 79.508 182.041 79.184 181.765 78.776C181.489 78.356 181.351 77.876 181.351 77.336C181.351 76.844 181.465 76.4 181.693 76.004C181.933 75.596 182.317 75.272 182.845 75.032C183.385 74.78 184.105 74.654 185.005 74.654H188.263V75.608H185.041C184.129 75.608 183.493 75.77 183.133 76.094C182.785 76.418 182.611 76.82 182.611 77.3C182.611 77.84 182.821 78.272 183.241 78.596C183.661 78.92 184.249 79.082 185.005 79.082C185.725 79.082 186.343 78.92 186.859 78.596C187.387 78.26 187.771 77.78 188.011 77.156L188.299 78.038C188.059 78.662 187.639 79.16 187.039 79.532C186.451 79.904 185.707 80.09 184.807 80.09ZM192.761 80V70.55H194.039V80H192.761ZM193.409 68.462C193.145 68.462 192.923 68.372 192.743 68.192C192.563 68.012 192.473 67.796 192.473 67.544C192.473 67.292 192.563 67.082 192.743 66.914C192.923 66.734 193.145 66.644 193.409 66.644C193.673 66.644 193.895 66.728 194.075 66.896C194.255 67.064 194.345 67.274 194.345 67.526C194.345 67.79 194.255 68.012 194.075 68.192C193.907 68.372 193.685 68.462 193.409 68.462ZM197.595 80V66.644H198.873V80H197.595ZM202.554 80.09C202.29 80.09 202.062 79.994 201.87 79.802C201.69 79.61 201.6 79.376 201.6 79.1C201.6 78.812 201.69 78.578 201.87 78.398C202.062 78.218 202.29 78.128 202.554 78.128C202.818 78.128 203.04 78.218 203.22 78.398C203.412 78.578 203.508 78.812 203.508 79.1C203.508 79.376 203.412 79.61 203.22 79.802C203.04 79.994 202.818 80.09 202.554 80.09ZM209.903 80.09C208.967 80.09 208.127 79.886 207.383 79.478C206.651 79.058 206.075 78.488 205.655 77.768C205.235 77.036 205.025 76.202 205.025 75.266C205.025 74.318 205.235 73.484 205.655 72.764C206.075 72.044 206.651 71.48 207.383 71.072C208.127 70.664 208.967 70.46 209.903 70.46C210.707 70.46 211.433 70.616 212.081 70.928C212.729 71.24 213.239 71.708 213.611 72.332L212.657 72.98C212.333 72.5 211.931 72.146 211.451 71.918C210.971 71.69 210.449 71.576 209.885 71.576C209.213 71.576 208.607 71.732 208.067 72.044C207.527 72.344 207.101 72.77 206.789 73.322C206.477 73.874 206.321 74.522 206.321 75.266C206.321 76.01 206.477 76.658 206.789 77.21C207.101 77.762 207.527 78.194 208.067 78.506C208.607 78.806 209.213 78.956 209.885 78.956C210.449 78.956 210.971 78.842 211.451 78.614C211.931 78.386 212.333 78.038 212.657 77.57L213.611 78.218C213.239 78.83 212.729 79.298 212.081 79.622C211.433 79.934 210.707 80.09 209.903 80.09ZM219.816 80.09C218.904 80.09 218.082 79.886 217.35 79.478C216.63 79.058 216.06 78.488 215.64 77.768C215.22 77.036 215.01 76.202 215.01 75.266C215.01 74.318 215.22 73.484 215.64 72.764C216.06 72.044 216.63 71.48 217.35 71.072C218.07 70.664 218.892 70.46 219.816 70.46C220.752 70.46 221.58 70.664 222.3 71.072C223.032 71.48 223.602 72.044 224.01 72.764C224.43 73.484 224.64 74.318 224.64 75.266C224.64 76.202 224.43 77.036 224.01 77.768C223.602 78.488 223.032 79.058 222.3 79.478C221.568 79.886 220.74 80.09 219.816 80.09ZM219.816 78.956C220.5 78.956 221.106 78.806 221.634 78.506C222.162 78.194 222.576 77.762 222.876 77.21C223.188 76.646 223.344 75.998 223.344 75.266C223.344 74.522 223.188 73.874 222.876 73.322C222.576 72.77 222.162 72.344 221.634 72.044C221.106 71.732 220.506 71.576 219.834 71.576C219.162 71.576 218.562 71.732 218.034 72.044C217.506 72.344 217.086 72.77 216.774 73.322C216.462 73.874 216.306 74.522 216.306 75.266C216.306 75.998 216.462 76.646 216.774 77.21C217.086 77.762 217.506 78.194 218.034 78.506C218.562 78.806 219.156 78.956 219.816 78.956ZM239.057 70.46C239.825 70.46 240.491 70.61 241.055 70.91C241.631 71.198 242.075 71.642 242.387 72.242C242.711 72.842 242.873 73.598 242.873 74.51V80H241.595V74.636C241.595 73.64 241.355 72.89 240.875 72.386C240.407 71.87 239.741 71.612 238.877 71.612C238.229 71.612 237.665 71.75 237.185 72.026C236.717 72.29 236.351 72.68 236.087 73.196C235.835 73.7 235.709 74.312 235.709 75.032V80H234.431V74.636C234.431 73.64 234.191 72.89 233.711 72.386C233.231 71.87 232.559 71.612 231.695 71.612C231.059 71.612 230.501 71.75 230.021 72.026C229.541 72.29 229.169 72.68 228.905 73.196C228.653 73.7 228.527 74.312 228.527 75.032V80H227.249V70.55H228.473V73.106L228.275 72.656C228.563 71.972 229.025 71.438 229.661 71.054C230.309 70.658 231.071 70.46 231.947 70.46C232.871 70.46 233.657 70.694 234.305 71.162C234.953 71.618 235.373 72.308 235.565 73.232L235.061 73.034C235.337 72.266 235.823 71.648 236.519 71.18C237.227 70.7 238.073 70.46 239.057 70.46Z" fill="black"/>
<path d="M3.558 166C3.30867 166 3.10333 165.919 2.942 165.758C2.78067 165.597 2.7 165.391 2.7 165.142V149.676C2.7 149.427 2.78067 149.221 2.942 149.06C3.10333 148.899 3.30867 148.818 3.558 148.818C3.80733 148.818 4.01267 148.899 4.174 149.06C4.33533 149.221 4.416 149.427 4.416 149.676V156.54H15.152V149.676C15.152 149.427 15.2327 149.221 15.394 149.06C15.5553 148.899 15.7607 148.818 16.01 148.818C16.2593 148.818 16.4647 148.899 16.626 149.06C16.7873 149.221 16.868 149.427 16.868 149.676V165.142C16.868 165.391 16.7873 165.597 16.626 165.758C16.4647 165.919 16.2593 166 16.01 166C15.7607 166 15.5553 165.919 15.394 165.758C15.2327 165.597 15.152 165.391 15.152 165.142V158.08H4.416V165.142C4.416 165.391 4.33533 165.597 4.174 165.758C4.01267 165.919 3.80733 166 3.558 166ZM26.3445 166.11C25.2152 166.11 24.2032 165.846 23.3085 165.318C22.4138 164.775 21.7025 164.042 21.1745 163.118C20.6612 162.194 20.4045 161.153 20.4045 159.994C20.4045 158.821 20.6685 157.772 21.1965 156.848C21.7392 155.924 22.4725 155.198 23.3965 154.67C24.3205 154.127 25.3618 153.856 26.5205 153.856C27.6792 153.856 28.7132 154.127 29.6225 154.67C30.5465 155.198 31.2725 155.924 31.8005 156.848C32.3432 157.772 32.6218 158.821 32.6365 159.994L31.9545 160.522C31.9545 161.578 31.7052 162.531 31.2065 163.382C30.7225 164.218 30.0552 164.885 29.2045 165.384C28.3685 165.868 27.4152 166.11 26.3445 166.11ZM26.5205 164.57C27.3712 164.57 28.1265 164.372 28.7865 163.976C29.4612 163.58 29.9892 163.037 30.3705 162.348C30.7665 161.644 30.9645 160.859 30.9645 159.994C30.9645 159.114 30.7665 158.329 30.3705 157.64C29.9892 156.951 29.4612 156.408 28.7865 156.012C28.1265 155.601 27.3712 155.396 26.5205 155.396C25.6845 155.396 24.9292 155.601 24.2545 156.012C23.5798 156.408 23.0445 156.951 22.6485 157.64C22.2525 158.329 22.0545 159.114 22.0545 159.994C22.0545 160.859 22.2525 161.644 22.6485 162.348C23.0445 163.037 23.5798 163.58 24.2545 163.976C24.9292 164.372 25.6845 164.57 26.5205 164.57ZM31.7785 166C31.5292 166 31.3238 165.927 31.1625 165.78C31.0012 165.619 30.9205 165.413 30.9205 165.164V161.402L31.3385 159.664L32.6365 159.994V165.164C32.6365 165.413 32.5558 165.619 32.3945 165.78C32.2332 165.927 32.0278 166 31.7785 166ZM47.8112 166.154C46.9458 166.154 46.1758 165.949 45.5012 165.538C44.8412 165.127 44.3205 164.548 43.9392 163.8C43.5725 163.052 43.3892 162.172 43.3892 161.16V154.824C43.3892 154.56 43.4625 154.355 43.6092 154.208C43.7705 154.047 43.9758 153.966 44.2252 153.966C44.4745 153.966 44.6798 154.047 44.8412 154.208C45.0025 154.355 45.0832 154.56 45.0832 154.824V161.16C45.0832 161.849 45.2005 162.451 45.4352 162.964C45.6845 163.463 46.0292 163.851 46.4692 164.13C46.9092 164.394 47.4152 164.526 47.9872 164.526C48.8965 164.526 49.6445 164.233 50.2312 163.646C50.8178 163.045 51.1112 162.282 51.1112 161.358L52.0132 161.38C51.9838 162.304 51.7858 163.125 51.4192 163.844C51.0525 164.563 50.5538 165.127 49.9232 165.538C49.3072 165.949 48.6032 166.154 47.8112 166.154ZM40.1332 166.154C39.2678 166.154 38.4978 165.949 37.8232 165.538C37.1632 165.127 36.6425 164.548 36.2612 163.8C35.8945 163.052 35.7112 162.172 35.7112 161.16V154.824C35.7112 154.56 35.7845 154.355 35.9312 154.208C36.0925 154.047 36.2978 153.966 36.5472 153.966C36.7965 153.966 37.0018 154.047 37.1632 154.208C37.3245 154.355 37.4052 154.56 37.4052 154.824V161.16C37.4052 161.849 37.5225 162.451 37.7572 162.964C38.0065 163.463 38.3512 163.851 38.7912 164.13C39.2312 164.394 39.7372 164.526 40.3092 164.526C41.2185 164.526 41.9592 164.225 42.5312 163.624C43.1178 163.023 43.4038 162.223 43.3892 161.226H44.2912C44.2765 162.194 44.0858 163.052 43.7192 163.8C43.3672 164.533 42.8758 165.113 42.2452 165.538C41.6292 165.949 40.9252 166.154 40.1332 166.154ZM51.9472 166C51.6978 166 51.4925 165.927 51.3312 165.78C51.1845 165.619 51.1112 165.406 51.1112 165.142V154.824C51.1112 154.56 51.1845 154.355 51.3312 154.208C51.4925 154.047 51.6978 153.966 51.9472 153.966C52.1965 153.966 52.4018 154.047 52.5632 154.208C52.7245 154.355 52.8052 154.56 52.8052 154.824V165.142C52.8052 165.406 52.7245 165.619 52.5632 165.78C52.4018 165.927 52.1965 166 51.9472 166ZM62.007 166.132C60.9657 166.132 60.0343 165.919 59.213 165.494C58.3917 165.054 57.739 164.416 57.255 163.58C56.7857 162.744 56.551 161.725 56.551 160.522V154.802C56.551 154.567 56.6317 154.369 56.793 154.208C56.9543 154.047 57.1523 153.966 57.387 153.966C57.6363 153.966 57.8417 154.047 58.003 154.208C58.1643 154.369 58.245 154.567 58.245 154.802V160.522C58.245 161.431 58.4137 162.179 58.751 162.766C59.103 163.353 59.5723 163.793 60.159 164.086C60.7603 164.379 61.435 164.526 62.183 164.526C62.9017 164.526 63.547 164.387 64.119 164.108C64.7057 163.829 65.1677 163.448 65.505 162.964C65.8423 162.48 66.011 161.93 66.011 161.314H67.221C67.177 162.238 66.9203 163.067 66.451 163.8C65.9963 164.519 65.3803 165.091 64.603 165.516C63.8257 165.927 62.9603 166.132 62.007 166.132ZM66.847 166C66.5977 166 66.3923 165.927 66.231 165.78C66.0843 165.619 66.011 165.406 66.011 165.142V154.802C66.011 154.553 66.0843 154.355 66.231 154.208C66.3923 154.047 66.5977 153.966 66.847 153.966C67.0963 153.966 67.3017 154.047 67.463 154.208C67.6243 154.355 67.705 154.553 67.705 154.802V165.142C67.705 165.406 67.6243 165.619 67.463 165.78C67.3017 165.927 67.0963 166 66.847 166ZM83.473 166.11C82.3143 166.11 81.2803 165.846 80.371 165.318C79.4763 164.775 78.765 164.042 78.237 163.118C77.7237 162.194 77.467 161.153 77.467 159.994C77.467 158.821 77.7163 157.772 78.215 156.848C78.7137 155.924 79.3957 155.198 80.261 154.67C81.1263 154.127 82.1237 153.856 83.253 153.856C84.1477 153.856 84.969 154.032 85.717 154.384C86.4797 154.736 87.147 155.264 87.719 155.968C87.8803 156.144 87.939 156.335 87.895 156.54C87.851 156.731 87.7263 156.899 87.521 157.046C87.3597 157.163 87.1763 157.207 86.971 157.178C86.7803 157.134 86.6117 157.024 86.465 156.848C85.6143 155.88 84.5437 155.396 83.253 155.396C82.4317 155.396 81.7057 155.594 81.075 155.99C80.459 156.386 79.975 156.929 79.623 157.618C79.2857 158.307 79.117 159.099 79.117 159.994C79.117 160.874 79.3003 161.659 79.667 162.348C80.0337 163.037 80.547 163.58 81.207 163.976C81.867 164.372 82.6223 164.57 83.473 164.57C84.045 164.57 84.5657 164.497 85.035 164.35C85.519 164.189 85.9443 163.947 86.311 163.624C86.487 163.477 86.6703 163.397 86.861 163.382C87.0517 163.367 87.2277 163.426 87.389 163.558C87.565 163.719 87.6603 163.903 87.675 164.108C87.7043 164.313 87.6383 164.489 87.477 164.636C86.4063 165.619 85.0717 166.11 83.473 166.11ZM96.667 166.11C95.4937 166.11 94.445 165.846 93.521 165.318C92.597 164.79 91.871 164.064 91.343 163.14C90.815 162.216 90.551 161.167 90.551 159.994C90.551 158.806 90.815 157.75 91.343 156.826C91.871 155.902 92.597 155.176 93.521 154.648C94.445 154.12 95.4937 153.856 96.667 153.856C97.8403 153.856 98.8817 154.12 99.791 154.648C100.715 155.176 101.441 155.902 101.969 156.826C102.497 157.75 102.768 158.806 102.783 159.994C102.783 161.167 102.512 162.216 101.969 163.14C101.441 164.064 100.715 164.79 99.791 165.318C98.8817 165.846 97.8403 166.11 96.667 166.11ZM96.667 164.57C97.5177 164.57 98.2803 164.372 98.955 163.976C99.6297 163.58 100.158 163.037 100.539 162.348C100.92 161.659 101.111 160.874 101.111 159.994C101.111 159.114 100.92 158.329 100.539 157.64C100.158 156.936 99.6297 156.386 98.955 155.99C98.2803 155.594 97.5177 155.396 96.667 155.396C95.8163 155.396 95.0537 155.594 94.379 155.99C93.7043 156.386 93.169 156.936 92.773 157.64C92.3917 158.329 92.201 159.114 92.201 159.994C92.201 160.874 92.3917 161.659 92.773 162.348C93.169 163.037 93.7043 163.58 94.379 163.976C95.0537 164.372 95.8163 164.57 96.667 164.57ZM111.314 166.132C110.243 166.132 109.297 165.897 108.476 165.428C107.654 164.944 107.009 164.277 106.54 163.426C106.085 162.575 105.858 161.607 105.858 160.522V154.802C105.858 154.553 105.931 154.355 106.078 154.208C106.239 154.047 106.444 153.966 106.694 153.966C106.943 153.966 107.148 154.047 107.31 154.208C107.471 154.355 107.552 154.553 107.552 154.802V160.522C107.552 161.299 107.72 161.989 108.058 162.59C108.395 163.191 108.857 163.668 109.444 164.02C110.03 164.357 110.712 164.526 111.49 164.526C112.238 164.526 112.898 164.394 113.47 164.13C114.042 163.851 114.489 163.47 114.812 162.986C115.149 162.502 115.318 161.945 115.318 161.314L116.308 161.358C116.278 162.282 116.044 163.111 115.604 163.844C115.164 164.563 114.57 165.127 113.822 165.538C113.088 165.934 112.252 166.132 111.314 166.132ZM118.354 169.762C118.104 169.762 117.899 169.681 117.738 169.52C117.591 169.373 117.518 169.168 117.518 168.904V166H116.968C116.381 166 115.956 165.868 115.692 165.604C115.442 165.34 115.318 164.922 115.318 164.35V154.802C115.318 154.553 115.391 154.355 115.538 154.208C115.699 154.047 115.904 153.966 116.154 153.966C116.403 153.966 116.608 154.047 116.77 154.208C116.931 154.355 117.012 154.553 117.012 154.802V164.526H118.288C118.552 164.526 118.757 164.607 118.904 164.768C119.065 164.915 119.146 165.12 119.146 165.384V168.904C119.146 169.168 119.072 169.373 118.926 169.52C118.794 169.681 118.603 169.762 118.354 169.762ZM126.825 166.132C125.784 166.132 124.853 165.919 124.031 165.494C123.21 165.054 122.557 164.416 122.073 163.58C121.604 162.744 121.369 161.725 121.369 160.522V154.802C121.369 154.567 121.45 154.369 121.611 154.208C121.773 154.047 121.971 153.966 122.205 153.966C122.455 153.966 122.66 154.047 122.821 154.208C122.983 154.369 123.063 154.567 123.063 154.802V160.522C123.063 161.431 123.232 162.179 123.569 162.766C123.921 163.353 124.391 163.793 124.977 164.086C125.579 164.379 126.253 164.526 127.001 164.526C127.72 164.526 128.365 164.387 128.937 164.108C129.524 163.829 129.986 163.448 130.323 162.964C130.661 162.48 130.829 161.93 130.829 161.314H132.039C131.995 162.238 131.739 163.067 131.269 163.8C130.815 164.519 130.199 165.091 129.421 165.516C128.644 165.927 127.779 166.132 126.825 166.132ZM131.665 166C131.416 166 131.211 165.927 131.049 165.78C130.903 165.619 130.829 165.406 130.829 165.142V154.802C130.829 154.553 130.903 154.355 131.049 154.208C131.211 154.047 131.416 153.966 131.665 153.966C131.915 153.966 132.12 154.047 132.281 154.208C132.443 154.355 132.523 154.553 132.523 154.802V165.142C132.523 165.406 132.443 165.619 132.281 165.78C132.12 165.927 131.915 166 131.665 166ZM141.78 166.11C140.651 166.11 139.639 165.846 138.744 165.318C137.849 164.775 137.138 164.042 136.61 163.118C136.097 162.194 135.84 161.153 135.84 159.994C135.84 158.821 136.104 157.772 136.632 156.848C137.175 155.924 137.908 155.198 138.832 154.67C139.756 154.127 140.797 153.856 141.956 153.856C143.115 153.856 144.149 154.127 145.058 154.67C145.982 155.198 146.708 155.924 147.236 156.848C147.779 157.772 148.057 158.821 148.072 159.994L147.39 160.522C147.39 161.578 147.141 162.531 146.642 163.382C146.158 164.218 145.491 164.885 144.64 165.384C143.804 165.868 142.851 166.11 141.78 166.11ZM141.956 164.57C142.807 164.57 143.562 164.372 144.222 163.976C144.897 163.58 145.425 163.037 145.806 162.348C146.202 161.644 146.4 160.859 146.4 159.994C146.4 159.114 146.202 158.329 145.806 157.64C145.425 156.951 144.897 156.408 144.222 156.012C143.562 155.601 142.807 155.396 141.956 155.396C141.12 155.396 140.365 155.601 139.69 156.012C139.015 156.408 138.48 156.951 138.084 157.64C137.688 158.329 137.49 159.114 137.49 159.994C137.49 160.859 137.688 161.644 138.084 162.348C138.48 163.037 139.015 163.58 139.69 163.976C140.365 164.372 141.12 164.57 141.956 164.57ZM147.214 166C146.965 166 146.759 165.927 146.598 165.78C146.437 165.619 146.356 165.413 146.356 165.164V161.402L146.774 159.664L148.072 159.994V165.164C148.072 165.413 147.991 165.619 147.83 165.78C147.669 165.927 147.463 166 147.214 166ZM155.855 153.966C156.031 153.966 156.192 154.01 156.339 154.098C156.485 154.186 156.603 154.333 156.691 154.538L161.465 164.922C161.567 165.127 161.575 165.325 161.487 165.516C161.413 165.692 161.274 165.831 161.069 165.934C160.834 166.037 160.621 166.059 160.431 166C160.24 165.927 160.086 165.78 159.969 165.56L155.415 155.418H156.405L151.763 165.538C151.66 165.758 151.499 165.905 151.279 165.978C151.073 166.037 150.861 166.015 150.641 165.912C150.435 165.809 150.289 165.67 150.201 165.494C150.127 165.303 150.135 165.105 150.223 164.9L155.063 154.538C155.239 154.157 155.503 153.966 155.855 153.966ZM169.404 166.22C168.392 166.22 167.505 166.029 166.742 165.648C165.98 165.267 165.378 164.746 164.938 164.086C164.513 163.411 164.3 162.627 164.3 161.732V154.802C164.315 154.553 164.403 154.355 164.564 154.208C164.726 154.047 164.924 153.966 165.158 153.966C165.393 153.966 165.591 154.047 165.752 154.208C165.914 154.369 165.994 154.575 165.994 154.824V157.948H169.58C170.534 157.948 171.37 158.117 172.088 158.454C172.822 158.791 173.386 159.268 173.782 159.884C174.193 160.5 174.398 161.211 174.398 162.018C174.398 162.825 174.186 163.551 173.76 164.196C173.35 164.827 172.77 165.325 172.022 165.692C171.274 166.044 170.402 166.22 169.404 166.22ZM169.404 164.658C170.358 164.658 171.15 164.438 171.78 163.998C172.411 163.558 172.726 162.898 172.726 162.018C172.726 161.197 172.448 160.559 171.89 160.104C171.333 159.649 170.563 159.422 169.58 159.422H165.994V161.732C165.994 162.289 166.134 162.795 166.412 163.25C166.706 163.69 167.102 164.035 167.6 164.284C168.114 164.533 168.715 164.658 169.404 164.658ZM187.53 166C187.281 166 187.075 165.927 186.914 165.78C186.753 165.619 186.672 165.406 186.672 165.142V154.824C186.672 154.56 186.753 154.355 186.914 154.208C187.075 154.047 187.281 153.966 187.53 153.966C187.779 153.966 187.977 154.047 188.124 154.208C188.271 154.355 188.344 154.56 188.344 154.824V165.142C188.344 165.406 188.271 165.619 188.124 165.78C187.977 165.927 187.779 166 187.53 166ZM178.07 166C177.821 166 177.615 165.927 177.454 165.78C177.307 165.619 177.234 165.406 177.234 165.142V154.824C177.234 154.56 177.307 154.355 177.454 154.208C177.615 154.047 177.821 153.966 178.07 153.966C178.319 153.966 178.517 154.047 178.664 154.208C178.825 154.355 178.906 154.56 178.906 154.824V165.142C178.906 165.406 178.825 165.619 178.664 165.78C178.517 165.927 178.319 166 178.07 166ZM178.62 160.698V159.18H187.266V160.698H178.62ZM197.156 166.22C196.203 166.22 195.36 166.029 194.626 165.648C193.908 165.267 193.336 164.739 192.91 164.064C192.5 163.389 192.294 162.612 192.294 161.732V154.802C192.309 154.553 192.39 154.355 192.536 154.208C192.698 154.047 192.903 153.966 193.152 153.966C193.402 153.966 193.6 154.047 193.746 154.208C193.908 154.355 193.988 154.56 193.988 154.824V157.948H197.244C198.124 157.948 198.902 158.117 199.576 158.454C200.266 158.777 200.801 159.246 201.182 159.862C201.564 160.463 201.754 161.182 201.754 162.018C201.754 162.869 201.556 163.609 201.16 164.24C200.779 164.871 200.236 165.362 199.532 165.714C198.843 166.051 198.051 166.22 197.156 166.22ZM197.156 164.658C198.007 164.658 198.711 164.438 199.268 163.998C199.826 163.558 200.104 162.898 200.104 162.018C200.104 161.138 199.833 160.485 199.29 160.06C198.762 159.635 198.08 159.422 197.244 159.422H193.988V161.732C193.988 162.583 194.282 163.287 194.868 163.844C195.47 164.387 196.232 164.658 197.156 164.658ZM204.504 166C204.255 166 204.05 165.927 203.888 165.78C203.742 165.619 203.668 165.406 203.668 165.142V154.824C203.668 154.56 203.742 154.355 203.888 154.208C204.05 154.047 204.255 153.966 204.504 153.966C204.768 153.966 204.974 154.047 205.12 154.208C205.282 154.355 205.362 154.56 205.362 154.824V165.142C205.362 165.406 205.282 165.619 205.12 165.78C204.974 165.927 204.768 166 204.504 166ZM214.788 166.11C213.6 166.11 212.544 165.853 211.62 165.34C210.71 164.812 209.992 164.086 209.464 163.162C208.95 162.238 208.694 161.182 208.694 159.994C208.694 158.791 208.936 157.735 209.42 156.826C209.918 155.902 210.6 155.176 211.466 154.648C212.331 154.12 213.328 153.856 214.458 153.856C215.572 153.856 216.54 154.113 217.362 154.626C218.198 155.125 218.843 155.821 219.298 156.716C219.752 157.611 219.98 158.63 219.98 159.774C219.98 160.009 219.906 160.199 219.76 160.346C219.613 160.478 219.422 160.544 219.188 160.544H209.838V159.136H219.364L218.418 159.818C218.432 158.967 218.278 158.205 217.956 157.53C217.633 156.855 217.171 156.327 216.57 155.946C215.983 155.565 215.279 155.374 214.458 155.374C213.622 155.374 212.888 155.572 212.258 155.968C211.627 156.364 211.136 156.914 210.784 157.618C210.446 158.307 210.278 159.099 210.278 159.994C210.278 160.889 210.468 161.681 210.85 162.37C211.246 163.059 211.781 163.602 212.456 163.998C213.13 164.394 213.908 164.592 214.788 164.592C215.316 164.592 215.844 164.504 216.372 164.328C216.914 164.137 217.347 163.903 217.67 163.624C217.831 163.492 218.014 163.426 218.22 163.426C218.425 163.411 218.601 163.463 218.748 163.58C218.938 163.756 219.034 163.947 219.034 164.152C219.048 164.357 218.968 164.533 218.792 164.68C218.308 165.091 217.692 165.435 216.944 165.714C216.196 165.978 215.477 166.11 214.788 166.11ZM234.659 166.11C233.5 166.11 232.466 165.846 231.557 165.318C230.662 164.775 229.951 164.042 229.423 163.118C228.909 162.194 228.653 161.153 228.653 159.994C228.653 158.821 228.902 157.772 229.401 156.848C229.899 155.924 230.581 155.198 231.447 154.67C232.312 154.127 233.309 153.856 234.439 153.856C235.333 153.856 236.155 154.032 236.903 154.384C237.665 154.736 238.333 155.264 238.905 155.968C239.066 156.144 239.125 156.335 239.081 156.54C239.037 156.731 238.912 156.899 238.707 157.046C238.545 157.163 238.362 157.207 238.157 157.178C237.966 157.134 237.797 157.024 237.651 156.848C236.8 155.88 235.729 155.396 234.439 155.396C233.617 155.396 232.891 155.594 232.261 155.99C231.645 156.386 231.161 156.929 230.809 157.618C230.471 158.307 230.303 159.099 230.303 159.994C230.303 160.874 230.486 161.659 230.853 162.348C231.219 163.037 231.733 163.58 232.393 163.976C233.053 164.372 233.808 164.57 234.659 164.57C235.231 164.57 235.751 164.497 236.221 164.35C236.705 164.189 237.13 163.947 237.497 163.624C237.673 163.477 237.856 163.397 238.047 163.382C238.237 163.367 238.413 163.426 238.575 163.558C238.751 163.719 238.846 163.903 238.861 164.108C238.89 164.313 238.824 164.489 238.663 164.636C237.592 165.619 236.257 166.11 234.659 166.11ZM247.831 166.11C246.643 166.11 245.587 165.853 244.663 165.34C243.753 164.812 243.035 164.086 242.507 163.162C241.993 162.238 241.737 161.182 241.737 159.994C241.737 158.791 241.979 157.735 242.463 156.826C242.961 155.902 243.643 155.176 244.509 154.648C245.374 154.12 246.371 153.856 247.501 153.856C248.615 153.856 249.583 154.113 250.405 154.626C251.241 155.125 251.886 155.821 252.341 156.716C252.795 157.611 253.023 158.63 253.023 159.774C253.023 160.009 252.949 160.199 252.803 160.346C252.656 160.478 252.465 160.544 252.231 160.544H242.881V159.136H252.407L251.461 159.818C251.475 158.967 251.321 158.205 250.999 157.53C250.676 156.855 250.214 156.327 249.613 155.946C249.026 155.565 248.322 155.374 247.501 155.374C246.665 155.374 245.931 155.572 245.301 155.968C244.67 156.364 244.179 156.914 243.827 157.618C243.489 158.307 243.321 159.099 243.321 159.994C243.321 160.889 243.511 161.681 243.893 162.37C244.289 163.059 244.824 163.602 245.499 163.998C246.173 164.394 246.951 164.592 247.831 164.592C248.359 164.592 248.887 164.504 249.415 164.328C249.957 164.137 250.39 163.903 250.713 163.624C250.874 163.492 251.057 163.426 251.263 163.426C251.468 163.411 251.644 163.463 251.791 163.58C251.981 163.756 252.077 163.947 252.077 164.152C252.091 164.357 252.011 164.533 251.835 164.68C251.351 165.091 250.735 165.435 249.987 165.714C249.239 165.978 248.52 166.11 247.831 166.11ZM272.146 166C271.897 166 271.692 165.927 271.53 165.78C271.369 165.619 271.288 165.413 271.288 165.164V158.828C271.288 157.787 271.017 156.965 270.474 156.364C269.932 155.748 269.235 155.44 268.384 155.44C267.475 155.44 266.727 155.748 266.14 156.364C265.568 156.965 265.29 157.772 265.304 158.784H263.786C263.801 157.801 264.014 156.936 264.424 156.188C264.835 155.44 265.4 154.861 266.118 154.45C266.837 154.039 267.651 153.834 268.56 153.834C269.426 153.834 270.188 154.039 270.848 154.45C271.523 154.861 272.044 155.44 272.41 156.188C272.792 156.936 272.982 157.816 272.982 158.828V165.164C272.982 165.413 272.902 165.619 272.74 165.78C272.594 165.927 272.396 166 272.146 166ZM256.746 166C256.482 166 256.27 165.927 256.108 165.78C255.962 165.619 255.888 165.413 255.888 165.164V154.824C255.888 154.575 255.962 154.369 256.108 154.208C256.27 154.047 256.482 153.966 256.746 153.966C256.996 153.966 257.194 154.047 257.34 154.208C257.502 154.369 257.582 154.575 257.582 154.824V165.164C257.582 165.413 257.502 165.619 257.34 165.78C257.194 165.927 256.996 166 256.746 166ZM264.468 166C264.219 166 264.014 165.927 263.852 165.78C263.691 165.619 263.61 165.413 263.61 165.164V158.828C263.61 157.787 263.339 156.965 262.796 156.364C262.254 155.748 261.557 155.44 260.706 155.44C259.797 155.44 259.049 155.741 258.462 156.342C257.876 156.929 257.582 157.699 257.582 158.652H256.372C256.402 157.713 256.607 156.885 256.988 156.166C257.384 155.433 257.92 154.861 258.594 154.45C259.269 154.039 260.032 153.834 260.882 153.834C261.748 153.834 262.51 154.039 263.17 154.45C263.845 154.861 264.366 155.44 264.732 156.188C265.114 156.936 265.304 157.816 265.304 158.828V165.164C265.304 165.413 265.224 165.619 265.062 165.78C264.916 165.927 264.718 166 264.468 166ZM281.964 166.132C280.923 166.132 279.991 165.919 279.17 165.494C278.349 165.054 277.696 164.416 277.212 163.58C276.743 162.744 276.508 161.725 276.508 160.522V154.802C276.508 154.567 276.589 154.369 276.75 154.208C276.911 154.047 277.109 153.966 277.344 153.966C277.593 153.966 277.799 154.047 277.96 154.208C278.121 154.369 278.202 154.567 278.202 154.802V160.522C278.202 161.431 278.371 162.179 278.708 162.766C279.06 163.353 279.529 163.793 280.116 164.086C280.717 164.379 281.392 164.526 282.14 164.526C282.859 164.526 283.504 164.387 284.076 164.108C284.663 163.829 285.125 163.448 285.462 162.964C285.799 162.48 285.968 161.93 285.968 161.314H287.178C287.134 162.238 286.877 163.067 286.408 163.8C285.953 164.519 285.337 165.091 284.56 165.516C283.783 165.927 282.917 166.132 281.964 166.132ZM286.804 166C286.555 166 286.349 165.927 286.188 165.78C286.041 165.619 285.968 165.406 285.968 165.142V154.802C285.968 154.553 286.041 154.355 286.188 154.208C286.349 154.047 286.555 153.966 286.804 153.966C287.053 153.966 287.259 154.047 287.42 154.208C287.581 154.355 287.662 154.553 287.662 154.802V165.142C287.662 165.406 287.581 165.619 287.42 165.78C287.259 165.927 287.053 166 286.804 166Z" fill="black"/>
<path d="M25.9001 227.547C24.6777 226.312 23.2216 225.333 21.6169 224.667C20.0122 224.001 18.2909 223.661 16.5534 223.667C9.2734 223.667 3.34007 229.6 3.34007 236.88C3.34007 239.214 3.9534 241.48 5.10007 243.48L3.2334 250.334L10.2334 248.494C12.1667 249.547 14.3401 250.107 16.5534 250.107C23.8334 250.107 29.7667 244.174 29.7667 236.894C29.7667 233.36 28.3934 230.04 25.9001 227.547ZM16.5534 247.867C14.5801 247.867 12.6467 247.334 10.9534 246.334L10.5534 246.094L6.3934 247.187L7.50006 243.134L7.2334 242.72C6.13706 240.97 5.55492 238.946 5.5534 236.88C5.5534 230.827 10.4867 225.894 16.5401 225.894C19.4734 225.894 22.2334 227.04 24.3001 229.12C25.3234 230.139 26.1343 231.351 26.6859 232.685C27.2375 234.019 27.5188 235.45 27.5134 236.894C27.5401 242.947 22.6067 247.867 16.5534 247.867ZM22.5801 239.654C22.2467 239.494 20.6201 238.694 20.3267 238.574C20.0201 238.467 19.8067 238.414 19.5801 238.734C19.3534 239.067 18.7267 239.814 18.5401 240.027C18.3534 240.254 18.1534 240.28 17.8201 240.107C17.4867 239.947 16.4201 239.587 15.1667 238.467C14.1801 237.587 13.5267 236.507 13.3267 236.174C13.1401 235.84 13.3001 235.667 13.4734 235.494C13.6201 235.347 13.8067 235.107 13.9667 234.92C14.1267 234.734 14.1934 234.587 14.3001 234.374C14.4067 234.147 14.3534 233.96 14.2734 233.8C14.1934 233.64 13.5267 232.014 13.2601 231.347C12.9934 230.707 12.7134 230.787 12.5134 230.774H11.8734C11.6467 230.774 11.3001 230.854 10.9934 231.187C10.7001 231.52 9.84673 232.32 9.84673 233.947C9.84673 235.574 11.0334 237.147 11.1934 237.36C11.3534 237.587 13.5267 240.92 16.8334 242.347C17.6201 242.694 18.2334 242.894 18.7134 243.04C19.5001 243.294 20.2201 243.254 20.7934 243.174C21.4334 243.08 22.7534 242.374 23.0201 241.6C23.3001 240.827 23.3001 240.174 23.2067 240.027C23.1134 239.88 22.9134 239.814 22.5801 239.654Z" fill="black"/>
<g clip-path="url(#clip0_103_4227)">
<path fill-rule="evenodd" clip-rule="evenodd" d="M93.7063 243.486C92.981 242.026 92.0252 240.691 90.8757 239.534C90.4912 239.1 90.0886 238.682 89.669 238.281L89.6183 238.232C89.4626 238.08 89.3088 237.927 89.157 237.772C90.7285 235.587 92.0732 233.247 93.1703 230.789L93.2143 230.69L93.245 230.586C93.3903 230.102 93.5557 229.182 92.969 228.35C92.361 227.492 91.389 227.337 90.737 227.337H87.741C87.1137 227.308 86.4934 227.479 85.9689 227.824C85.4444 228.17 85.0426 228.672 84.821 229.26C84.1762 230.795 83.369 232.257 82.413 233.621V230.11C82.413 229.657 82.3703 228.897 81.8837 228.257C81.3023 227.489 80.461 227.337 79.877 227.337H75.1223C74.5019 227.323 73.8997 227.548 73.4406 227.965C72.9814 228.383 72.7004 228.961 72.6557 229.58L72.6517 229.64V229.7C72.6517 230.346 72.9077 230.824 73.113 231.124C73.205 231.258 73.3023 231.381 73.365 231.458L73.3783 231.476C73.445 231.558 73.489 231.613 73.533 231.674C73.6503 231.832 73.817 232.077 73.865 232.709V234.673C72.9106 233.075 72.128 231.38 71.5303 229.617L71.5197 229.588L71.509 229.56C71.3463 229.134 71.0863 228.516 70.565 228.044C69.957 227.49 69.237 227.337 68.5823 227.337H65.5423C64.8797 227.337 64.081 227.492 63.485 228.12C62.8997 228.738 62.833 229.48 62.833 229.872V230.05L62.8703 230.224C63.7121 234.131 65.4467 237.791 67.9383 240.917C69.0775 242.713 70.6241 244.216 72.4525 245.303C74.281 246.39 76.34 247.031 78.4623 247.173L78.517 247.177H78.573C79.541 247.177 80.5503 247.093 81.309 246.588C82.3317 245.905 82.413 244.858 82.413 244.336V242.818C82.6757 243.032 83.001 243.317 83.3997 243.701C83.8823 244.184 84.2663 244.602 84.5957 244.968L84.7717 245.162C85.0277 245.448 85.2797 245.729 85.509 245.96C85.797 246.249 86.153 246.568 86.5983 246.804C87.0823 247.058 87.5903 247.174 88.129 247.174H91.1703C91.8117 247.174 92.7303 247.022 93.377 246.273C94.081 245.457 94.0277 244.456 93.8063 243.737L93.7663 243.608L93.7063 243.486ZM86.0797 243.628C85.6664 243.166 85.241 242.715 84.8037 242.276L84.7997 242.272C82.9903 240.528 82.1463 240.225 81.549 240.225C81.2303 240.225 80.8797 240.26 80.6517 240.545C80.549 240.681 80.4817 240.841 80.4557 241.009C80.4235 241.205 80.4093 241.403 80.413 241.601V244.336C80.413 244.676 80.357 244.818 80.1997 244.922C79.9903 245.062 79.5437 245.176 78.585 245.176C76.764 245.052 74.9983 244.497 73.4332 243.558C71.8682 242.619 70.5484 241.322 69.5823 239.773L69.5717 239.756L69.5583 239.74C67.2372 236.851 65.6195 233.461 64.833 229.84C64.8383 229.666 64.8757 229.561 64.937 229.497C64.9997 229.43 65.153 229.337 65.5423 229.337H68.5823C68.9197 229.337 69.0957 229.412 69.2223 229.525C69.3637 229.656 69.489 229.876 69.6383 230.268C70.385 232.462 71.393 234.516 72.349 236.024C72.8263 236.778 73.2957 237.406 73.7197 237.85C73.9317 238.072 74.1383 238.256 74.337 238.386C74.5277 238.512 74.745 238.612 74.969 238.612C75.0863 238.612 75.2237 238.598 75.3557 238.541C75.4982 238.478 75.6156 238.369 75.689 238.232C75.8263 237.981 75.865 237.612 75.865 237.128V232.63C75.7943 231.54 75.465 230.925 75.145 230.489C75.0802 230.402 75.0135 230.316 74.945 230.232L74.9277 230.21C74.8708 230.141 74.8166 230.07 74.765 229.997C74.6994 229.916 74.6599 229.816 74.6517 229.712C74.6621 229.606 74.7127 229.508 74.793 229.438C74.8733 229.368 74.9773 229.331 75.0837 229.336H79.877C80.1517 229.336 80.2437 229.402 80.2903 229.465C80.357 229.552 80.413 229.732 80.413 230.11V236.148C80.413 236.865 80.7437 237.35 81.2237 237.35C81.7757 237.35 82.1743 237.016 82.8703 236.32L82.8823 236.306L82.893 236.294C84.4543 234.391 85.7299 232.27 86.6797 229.998L86.685 229.982C86.7564 229.782 86.8914 229.61 87.0696 229.493C87.2477 229.376 87.4592 229.321 87.6717 229.336H90.7383C91.1543 229.336 91.2903 229.442 91.3357 229.505C91.3823 229.572 91.4157 229.714 91.3357 229.994C90.2405 232.443 88.8865 234.767 87.297 236.928L87.2863 236.944C87.133 237.18 86.9637 237.441 86.9397 237.74C86.913 238.062 87.0517 238.354 87.2957 238.669C87.473 238.93 87.8397 239.289 88.2117 239.653L88.2463 239.688C88.6357 240.069 89.0583 240.482 89.397 240.882L89.4063 240.892L89.4157 240.902C90.4256 241.91 91.2653 243.074 91.9023 244.35C92.0037 244.697 91.9423 244.876 91.8623 244.968C91.7703 245.074 91.5637 245.174 91.1717 245.174H88.129C87.9216 245.179 87.7164 245.131 87.533 245.034C87.3082 244.904 87.1042 244.74 86.9277 244.549C86.737 244.358 86.5303 244.128 86.277 243.846L86.081 243.628H86.0797Z" fill="black"/>
</g>
<path d="M3.558 333C3.32333 333 3.118 332.919 2.942 332.758C2.78067 332.582 2.7 332.377 2.7 332.142V316.676C2.7 316.427 2.78067 316.221 2.942 316.06C3.118 315.899 3.32333 315.818 3.558 315.818C3.91 315.818 4.16667 315.965 4.328 316.258L11.742 330.998H10.994L18.276 316.258C18.452 315.965 18.7087 315.818 19.046 315.818C19.2807 315.818 19.4787 315.899 19.64 316.06C19.8013 316.221 19.882 316.427 19.882 316.676V332.142C19.882 332.377 19.8013 332.582 19.64 332.758C19.4787 332.919 19.2807 333 19.046 333C18.7967 333 18.584 332.919 18.408 332.758C18.2467 332.582 18.166 332.377 18.166 332.142V318.898L18.54 318.92L12.05 332.186C11.8887 332.465 11.6393 332.604 11.302 332.604C10.9353 332.604 10.6713 332.428 10.51 332.076L3.976 319.008L4.416 318.898V332.142C4.416 332.377 4.328 332.582 4.152 332.758C3.99067 332.919 3.79267 333 3.558 333ZM29.3738 333.11C28.2445 333.11 27.2325 332.846 26.3378 332.318C25.4431 331.775 24.7318 331.042 24.2038 330.118C23.6905 329.194 23.4338 328.153 23.4338 326.994C23.4338 325.821 23.6978 324.772 24.2258 323.848C24.7685 322.924 25.5018 322.198 26.4258 321.67C27.3498 321.127 28.3911 320.856 29.5498 320.856C30.7085 320.856 31.7425 321.127 32.6518 321.67C33.5758 322.198 34.3018 322.924 34.8298 323.848C35.3725 324.772 35.6511 325.821 35.6658 326.994L34.9838 327.522C34.9838 328.578 34.7345 329.531 34.2358 330.382C33.7518 331.218 33.0845 331.885 32.2338 332.384C31.3978 332.868 30.4445 333.11 29.3738 333.11ZM29.5498 331.57C30.4005 331.57 31.1558 331.372 31.8158 330.976C32.4905 330.58 33.0185 330.037 33.3998 329.348C33.7958 328.644 33.9938 327.859 33.9938 326.994C33.9938 326.114 33.7958 325.329 33.3998 324.64C33.0185 323.951 32.4905 323.408 31.8158 323.012C31.1558 322.601 30.4005 322.396 29.5498 322.396C28.7138 322.396 27.9585 322.601 27.2838 323.012C26.6091 323.408 26.0738 323.951 25.6778 324.64C25.2818 325.329 25.0838 326.114 25.0838 326.994C25.0838 327.859 25.2818 328.644 25.6778 329.348C26.0738 330.037 26.6091 330.58 27.2838 330.976C27.9585 331.372 28.7138 331.57 29.5498 331.57ZM34.8078 333C34.5585 333 34.3531 332.927 34.1918 332.78C34.0305 332.619 33.9498 332.413 33.9498 332.164V328.402L34.3678 326.664L35.6658 326.994V332.164C35.6658 332.413 35.5851 332.619 35.4238 332.78C35.2625 332.927 35.0571 333 34.8078 333ZM42.6345 333.11C41.7691 333.11 40.9918 332.978 40.3025 332.714C39.6131 332.45 39.0631 332.076 38.6525 331.592C38.2565 331.108 38.0585 330.536 38.0585 329.876C38.0585 329.319 38.2051 328.813 38.4985 328.358C38.8065 327.903 39.2905 327.507 39.9505 327.17C40.6251 326.818 41.5051 326.525 42.5905 326.29C43.5731 326.07 44.2478 325.791 44.6145 325.454C44.9958 325.102 45.1865 324.662 45.1865 324.134C45.1865 323.621 44.9665 323.203 44.5265 322.88C44.0865 322.543 43.4778 322.374 42.7005 322.374C42.0845 322.374 41.5125 322.484 40.9845 322.704C40.4711 322.909 40.0458 323.21 39.7085 323.606C39.5471 323.782 39.3638 323.892 39.1585 323.936C38.9531 323.98 38.7771 323.958 38.6305 323.87C38.3958 323.738 38.2565 323.569 38.2125 323.364C38.1685 323.144 38.2198 322.946 38.3665 322.77C38.7918 322.198 39.3711 321.736 40.1045 321.384C40.8378 321.032 41.6958 320.856 42.6785 320.856C43.4851 320.856 44.2038 320.988 44.8345 321.252C45.4651 321.501 45.9565 321.875 46.3085 322.374C46.6605 322.873 46.8365 323.481 46.8365 324.2C46.8365 324.963 46.5431 325.645 45.9565 326.246C45.3698 326.833 44.3945 327.28 43.0305 327.588C41.7838 327.867 40.9258 328.182 40.4565 328.534C39.9871 328.886 39.7525 329.326 39.7525 329.854C39.7525 330.426 39.9798 330.859 40.4345 331.152C40.9038 331.431 41.6225 331.57 42.5905 331.57C43.3238 331.57 43.9765 331.482 44.5485 331.306C45.1351 331.13 45.6191 330.822 46.0005 330.382C46.1471 330.221 46.3231 330.118 46.5285 330.074C46.7338 330.015 46.9391 330.067 47.1445 330.228C47.3351 330.389 47.4378 330.573 47.4525 330.778C47.4671 330.983 47.3938 331.174 47.2325 331.35C46.7338 331.893 46.0591 332.325 45.2085 332.648C44.3578 332.956 43.4998 333.11 42.6345 333.11ZM55.6277 333.11C54.4984 333.11 53.4864 332.846 52.5917 332.318C51.697 331.775 50.9857 331.042 50.4577 330.118C49.9444 329.194 49.6877 328.153 49.6877 326.994C49.6877 325.821 49.9517 324.772 50.4797 323.848C51.0224 322.924 51.7557 322.198 52.6797 321.67C53.6037 321.127 54.645 320.856 55.8037 320.856C56.9624 320.856 57.9964 321.127 58.9057 321.67C59.8297 322.198 60.5557 322.924 61.0837 323.848C61.6264 324.772 61.905 325.821 61.9197 326.994L61.2377 327.522C61.2377 328.578 60.9884 329.531 60.4897 330.382C60.0057 331.218 59.3384 331.885 58.4877 332.384C57.6517 332.868 56.6984 333.11 55.6277 333.11ZM55.8037 331.57C56.6544 331.57 57.4097 331.372 58.0697 330.976C58.7444 330.58 59.2724 330.037 59.6537 329.348C60.0497 328.644 60.2477 327.859 60.2477 326.994C60.2477 326.114 60.0497 325.329 59.6537 324.64C59.2724 323.951 58.7444 323.408 58.0697 323.012C57.4097 322.601 56.6544 322.396 55.8037 322.396C54.9677 322.396 54.2124 322.601 53.5377 323.012C52.863 323.408 52.3277 323.951 51.9317 324.64C51.5357 325.329 51.3377 326.114 51.3377 326.994C51.3377 327.859 51.5357 328.644 51.9317 329.348C52.3277 330.037 52.863 330.58 53.5377 330.976C54.2124 331.372 54.9677 331.57 55.8037 331.57ZM61.0617 333C60.8124 333 60.607 332.927 60.4457 332.78C60.2844 332.619 60.2037 332.413 60.2037 332.164V328.402L60.6217 326.664L61.9197 326.994V332.164C61.9197 332.413 61.839 332.619 61.6777 332.78C61.5164 332.927 61.311 333 61.0617 333ZM69.0204 333.198C68.3897 333.198 67.7737 333.117 67.1724 332.956C66.571 332.78 66.0284 332.545 65.5444 332.252C65.0604 331.944 64.679 331.607 64.4004 331.24C64.2537 331.049 64.195 330.844 64.2244 330.624C64.2684 330.404 64.4004 330.228 64.6204 330.096C64.7817 329.993 64.9724 329.971 65.1924 330.03C65.427 330.074 65.6177 330.177 65.7644 330.338C66.131 330.719 66.593 331.035 67.1504 331.284C67.7077 331.533 68.3237 331.658 68.9984 331.658C69.8784 331.658 70.5897 331.475 71.1324 331.108C71.6897 330.741 71.9684 330.221 71.9684 329.546C71.9684 328.959 71.7484 328.468 71.3084 328.072C70.883 327.676 70.3477 327.463 69.7024 327.434H68.5804C68.3017 327.434 68.0744 327.368 67.8984 327.236C67.7224 327.089 67.6344 326.913 67.6344 326.708C67.6344 326.503 67.7224 326.334 67.8984 326.202C68.0744 326.07 68.3017 326.004 68.5804 326.004H69.7024C70.245 325.989 70.685 325.806 71.0224 325.454C71.3597 325.102 71.5284 324.669 71.5284 324.156C71.5284 323.628 71.2937 323.195 70.8244 322.858C70.3697 322.521 69.7537 322.352 68.9764 322.352C68.2577 322.352 67.6564 322.469 67.1724 322.704C66.6884 322.939 66.2997 323.239 66.0064 323.606C65.845 323.782 65.6544 323.892 65.4344 323.936C65.229 323.965 65.031 323.921 64.8404 323.804C64.6497 323.701 64.5397 323.54 64.5104 323.32C64.4957 323.1 64.5617 322.895 64.7084 322.704C65.1777 322.161 65.7717 321.707 66.4904 321.34C67.2237 320.973 68.045 320.79 68.9544 320.79C69.7757 320.79 70.5017 320.937 71.1324 321.23C71.7777 321.509 72.2837 321.897 72.6504 322.396C73.017 322.88 73.2004 323.423 73.2004 324.024C73.2004 324.508 73.0684 324.955 72.8044 325.366C72.555 325.762 72.2104 326.092 71.7704 326.356C71.345 326.605 70.8684 326.752 70.3404 326.796V326.554C70.9564 326.554 71.5137 326.686 72.0124 326.95C72.511 327.214 72.907 327.581 73.2004 328.05C73.4937 328.505 73.6404 329.018 73.6404 329.59C73.6404 330.279 73.435 330.895 73.0244 331.438C72.6284 331.981 72.0784 332.413 71.3744 332.736C70.685 333.044 69.9004 333.198 69.0204 333.198ZM81.7512 333.132C80.7098 333.132 79.7785 332.919 78.9572 332.494C78.1358 332.054 77.4832 331.416 76.9992 330.58C76.5298 329.744 76.2952 328.725 76.2952 327.522V321.802C76.2952 321.567 76.3758 321.369 76.5372 321.208C76.6985 321.047 76.8965 320.966 77.1312 320.966C77.3805 320.966 77.5858 321.047 77.7472 321.208C77.9085 321.369 77.9892 321.567 77.9892 321.802V327.522C77.9892 328.431 78.1578 329.179 78.4952 329.766C78.8472 330.353 79.3165 330.793 79.9032 331.086C80.5045 331.379 81.1792 331.526 81.9272 331.526C82.6458 331.526 83.2912 331.387 83.8632 331.108C84.4498 330.829 84.9118 330.448 85.2492 329.964C85.5865 329.48 85.7552 328.93 85.7552 328.314H86.9652C86.9212 329.238 86.6645 330.067 86.1952 330.8C85.7405 331.519 85.1245 332.091 84.3472 332.516C83.5698 332.927 82.7045 333.132 81.7512 333.132ZM86.5912 333C86.3418 333 86.1365 332.927 85.9752 332.78C85.8285 332.619 85.7552 332.406 85.7552 332.142V321.802C85.7552 321.553 85.8285 321.355 85.9752 321.208C86.1365 321.047 86.3418 320.966 86.5912 320.966C86.8405 320.966 87.0458 321.047 87.2072 321.208C87.3685 321.355 87.4492 321.553 87.4492 321.802V332.142C87.4492 332.406 87.3685 332.619 87.2072 332.78C87.0458 332.927 86.8405 333 86.5912 333ZM101.7 333C101.45 333 101.245 332.927 101.084 332.78C100.922 332.619 100.842 332.406 100.842 332.142V321.824C100.842 321.56 100.922 321.355 101.084 321.208C101.245 321.047 101.45 320.966 101.7 320.966C101.949 320.966 102.147 321.047 102.294 321.208C102.44 321.355 102.514 321.56 102.514 321.824V332.142C102.514 332.406 102.44 332.619 102.294 332.78C102.147 332.927 101.949 333 101.7 333ZM92.2398 333C91.9905 333 91.7852 332.927 91.6238 332.78C91.4772 332.619 91.4038 332.406 91.4038 332.142V321.824C91.4038 321.56 91.4772 321.355 91.6238 321.208C91.7852 321.047 91.9905 320.966 92.2398 320.966C92.4892 320.966 92.6872 321.047 92.8338 321.208C92.9952 321.355 93.0758 321.56 93.0758 321.824V332.142C93.0758 332.406 92.9952 332.619 92.8338 332.78C92.6872 332.927 92.4892 333 92.2398 333ZM92.7898 327.698V326.18H101.436V327.698H92.7898ZM111.326 333.22C110.373 333.22 109.53 333.029 108.796 332.648C108.078 332.267 107.506 331.739 107.08 331.064C106.67 330.389 106.464 329.612 106.464 328.732V321.802C106.479 321.553 106.56 321.355 106.706 321.208C106.868 321.047 107.073 320.966 107.322 320.966C107.572 320.966 107.77 321.047 107.916 321.208C108.078 321.355 108.158 321.56 108.158 321.824V324.948H111.414C112.294 324.948 113.072 325.117 113.746 325.454C114.436 325.777 114.971 326.246 115.352 326.862C115.734 327.463 115.924 328.182 115.924 329.018C115.924 329.869 115.726 330.609 115.33 331.24C114.949 331.871 114.406 332.362 113.702 332.714C113.013 333.051 112.221 333.22 111.326 333.22ZM111.326 331.658C112.177 331.658 112.881 331.438 113.438 330.998C113.996 330.558 114.274 329.898 114.274 329.018C114.274 328.138 114.003 327.485 113.46 327.06C112.932 326.635 112.25 326.422 111.414 326.422H108.158V328.732C108.158 329.583 108.452 330.287 109.038 330.844C109.64 331.387 110.402 331.658 111.326 331.658ZM118.674 333C118.425 333 118.22 332.927 118.058 332.78C117.912 332.619 117.838 332.406 117.838 332.142V321.824C117.838 321.56 117.912 321.355 118.058 321.208C118.22 321.047 118.425 320.966 118.674 320.966C118.938 320.966 119.144 321.047 119.29 321.208C119.452 321.355 119.532 321.56 119.532 321.824V332.142C119.532 332.406 119.452 332.619 119.29 332.78C119.144 332.927 118.938 333 118.674 333Z" fill="black"/>
<path d="M12.5 402C14.706 402 16.5 400.206 16.5 398C16.5 395.794 14.706 394 12.5 394C10.294 394 8.5 395.794 8.5 398C8.5 400.206 10.294 402 12.5 402ZM12.5 396C13.603 396 14.5 396.897 14.5 398C14.5 399.103 13.603 400 12.5 400C11.397 400 10.5 399.103 10.5 398C10.5 396.897 11.397 396 12.5 396Z" fill="black"/>
<path d="M11.9201 409.814C12.0893 409.935 12.2921 410 12.5001 410C12.7081 410 12.9108 409.935 13.0801 409.814C13.3841 409.599 20.5291 404.44 20.5001 398C20.5001 393.589 16.9111 390 12.5001 390C8.08909 390 4.50009 393.589 4.50009 397.995C4.47109 404.44 11.6161 409.599 11.9201 409.814ZM12.5001 392C15.8091 392 18.5001 394.691 18.5001 398.005C18.5211 402.443 14.1121 406.428 12.5001 407.735C10.8891 406.427 6.47909 402.441 6.50009 398C6.50009 394.691 9.19109 392 12.5001 392Z" fill="black"/>
<path d="M36.318 407V397.55H43.014V398.666H37.272L37.596 398.342V407H36.318ZM44.1424 407.09C43.8784 407.09 43.6504 406.994 43.4584 406.802C43.2784 406.61 43.1884 406.376 43.1884 406.1C43.1884 405.812 43.2784 405.578 43.4584 405.398C43.6504 405.218 43.8784 405.128 44.1424 405.128C44.4064 405.128 44.6284 405.218 44.8084 405.398C45.0004 405.578 45.0964 405.812 45.0964 406.1C45.0964 406.376 45.0004 406.61 44.8084 406.802C44.6284 406.994 44.4064 407.09 44.1424 407.09ZM52.8838 407V394.4H62.0998V395.534H54.1978V399.656H58.3198C59.8078 399.656 60.9358 399.962 61.7038 400.574C62.4838 401.174 62.8738 402.062 62.8738 403.238C62.8738 404.45 62.4538 405.38 61.6138 406.028C60.7858 406.676 59.5918 407 58.0318 407H52.8838ZM54.1978 405.938H58.0138C59.1778 405.938 60.0538 405.716 60.6418 405.272C61.2418 404.816 61.5418 404.156 61.5418 403.292C61.5418 401.576 60.3658 400.718 58.0138 400.718H54.1978V405.938ZM71.5063 407V404.912L71.4523 404.57V401.078C71.4523 400.274 71.2243 399.656 70.7683 399.224C70.3243 398.792 69.6583 398.576 68.7703 398.576C68.1583 398.576 67.5763 398.678 67.0243 398.882C66.4723 399.086 66.0043 399.356 65.6203 399.692L65.0443 398.738C65.5243 398.33 66.1003 398.018 66.7723 397.802C67.4443 397.574 68.1523 397.46 68.8963 397.46C70.1203 397.46 71.0623 397.766 71.7223 398.378C72.3943 398.978 72.7303 399.896 72.7303 401.132V407H71.5063ZM68.2483 407.09C67.5403 407.09 66.9223 406.976 66.3943 406.748C65.8783 406.508 65.4823 406.184 65.2063 405.776C64.9303 405.356 64.7923 404.876 64.7923 404.336C64.7923 403.844 64.9063 403.4 65.1343 403.004C65.3743 402.596 65.7583 402.272 66.2863 402.032C66.8263 401.78 67.5463 401.654 68.4463 401.654H71.7043V402.608H68.4823C67.5703 402.608 66.9343 402.77 66.5743 403.094C66.2263 403.418 66.0523 403.82 66.0523 404.3C66.0523 404.84 66.2623 405.272 66.6823 405.596C67.1023 405.92 67.6903 406.082 68.4463 406.082C69.1663 406.082 69.7843 405.92 70.3003 405.596C70.8283 405.26 71.2123 404.78 71.4523 404.156L71.7403 405.038C71.5003 405.662 71.0803 406.16 70.4803 406.532C69.8923 406.904 69.1483 407.09 68.2483 407.09ZM76.1325 407V397.55H80.3085C81.3765 397.55 82.2165 397.754 82.8285 398.162C83.4525 398.57 83.7645 399.17 83.7645 399.962C83.7645 400.73 83.4705 401.324 82.8825 401.744C82.2945 402.152 81.5205 402.356 80.5605 402.356L80.8125 401.978C81.9405 401.978 82.7685 402.188 83.2965 402.608C83.8245 403.028 84.0885 403.634 84.0885 404.426C84.0885 405.242 83.7885 405.878 83.1885 406.334C82.6005 406.778 81.6825 407 80.4345 407H76.1325ZM77.3745 405.992H80.3805C81.1845 405.992 81.7905 405.866 82.1985 405.614C82.6185 405.35 82.8285 404.93 82.8285 404.354C82.8285 403.778 82.6425 403.358 82.2705 403.094C81.8985 402.83 81.3105 402.698 80.5065 402.698H77.3745V405.992ZM77.3745 401.744H80.2185C80.9505 401.744 81.5085 401.606 81.8925 401.33C82.2885 401.054 82.4865 400.652 82.4865 400.124C82.4865 399.596 82.2885 399.2 81.8925 398.936C81.5085 398.672 80.9505 398.54 80.2185 398.54H77.3745V401.744ZM85.3556 406.982L85.4456 405.884C85.5296 405.896 85.6076 405.914 85.6796 405.938C85.7636 405.95 85.8356 405.956 85.8956 405.956C86.2796 405.956 86.5856 405.812 86.8136 405.524C87.0536 405.236 87.2336 404.852 87.3536 404.372C87.4736 403.892 87.5576 403.352 87.6056 402.752C87.6536 402.14 87.6956 401.528 87.7316 400.916L87.8936 397.55H94.8236V407H93.5456V398.288L93.8696 398.666H88.7216L89.0276 398.27L88.8836 401.006C88.8476 401.822 88.7816 402.602 88.6856 403.346C88.6016 404.09 88.4636 404.744 88.2716 405.308C88.0916 405.872 87.8396 406.316 87.5156 406.64C87.1916 406.952 86.7776 407.108 86.2736 407.108C86.1296 407.108 85.9796 407.096 85.8236 407.072C85.6796 407.048 85.5236 407.018 85.3556 406.982ZM107.673 407V397.55H108.951V407H107.673ZM102.435 400.88C103.623 400.892 104.529 401.156 105.153 401.672C105.777 402.188 106.089 402.932 106.089 403.904C106.089 404.912 105.753 405.686 105.081 406.226C104.409 406.766 103.449 407.03 102.201 407.018L98.4567 407V397.55H99.7347V400.844L102.435 400.88ZM102.111 406.046C102.999 406.058 103.665 405.884 104.109 405.524C104.565 405.152 104.793 404.612 104.793 403.904C104.793 403.196 104.571 402.68 104.127 402.356C103.683 402.02 103.011 401.846 102.111 401.834L99.7347 401.798V406.01L102.111 406.046ZM117.606 407V394.4H128.208V407H126.894V395.192L127.236 395.552H118.578L118.92 395.192V407H117.606ZM132.154 407V397.55H133.432V405.056L139.75 397.55H140.884V407H139.606V399.476L133.306 407H132.154ZM148.435 407.09C147.523 407.09 146.701 406.886 145.969 406.478C145.249 406.058 144.679 405.488 144.259 404.768C143.839 404.036 143.629 403.202 143.629 402.266C143.629 401.318 143.839 400.484 144.259 399.764C144.679 399.044 145.249 398.48 145.969 398.072C146.689 397.664 147.511 397.46 148.435 397.46C149.371 397.46 150.199 397.664 150.919 398.072C151.651 398.48 152.221 399.044 152.629 399.764C153.049 400.484 153.259 401.318 153.259 402.266C153.259 403.202 153.049 404.036 152.629 404.768C152.221 405.488 151.651 406.058 150.919 406.478C150.187 406.886 149.359 407.09 148.435 407.09ZM148.435 405.956C149.119 405.956 149.725 405.806 150.253 405.506C150.781 405.194 151.195 404.762 151.495 404.21C151.807 403.646 151.963 402.998 151.963 402.266C151.963 401.522 151.807 400.874 151.495 400.322C151.195 399.77 150.781 399.344 150.253 399.044C149.725 398.732 149.125 398.576 148.453 398.576C147.781 398.576 147.181 398.732 146.653 399.044C146.125 399.344 145.705 399.77 145.393 400.322C145.081 400.874 144.925 401.522 144.925 402.266C144.925 402.998 145.081 403.646 145.393 404.21C145.705 404.762 146.125 405.194 146.653 405.506C147.181 405.806 147.775 405.956 148.435 405.956ZM155.99 407V397.55H157.268V401.726H163.226V397.55H164.504V407H163.226V402.824H157.268V407H155.99ZM172.186 407.09C171.202 407.09 170.338 406.886 169.594 406.478C168.85 406.058 168.268 405.488 167.848 404.768C167.428 404.036 167.218 403.202 167.218 402.266C167.218 401.33 167.416 400.502 167.812 399.782C168.22 399.062 168.772 398.498 169.468 398.09C170.176 397.67 170.968 397.46 171.844 397.46C172.732 397.46 173.518 397.664 174.202 398.072C174.898 398.468 175.444 399.032 175.84 399.764C176.236 400.484 176.434 401.318 176.434 402.266C176.434 402.326 176.428 402.392 176.416 402.464C176.416 402.524 176.416 402.59 176.416 402.662H168.19V401.708H175.732L175.228 402.086C175.228 401.402 175.078 400.796 174.778 400.268C174.49 399.728 174.094 399.308 173.59 399.008C173.086 398.708 172.504 398.558 171.844 398.558C171.196 398.558 170.614 398.708 170.098 399.008C169.582 399.308 169.18 399.728 168.892 400.268C168.604 400.808 168.46 401.426 168.46 402.122V402.32C168.46 403.04 168.616 403.676 168.928 404.228C169.252 404.768 169.696 405.194 170.26 405.506C170.836 405.806 171.49 405.956 172.222 405.956C172.798 405.956 173.332 405.854 173.824 405.65C174.328 405.446 174.76 405.134 175.12 404.714L175.84 405.542C175.42 406.046 174.892 406.43 174.256 406.694C173.632 406.958 172.942 407.09 172.186 407.09ZM184.141 407.09C183.325 407.09 182.587 406.904 181.927 406.532C181.267 406.148 180.739 405.602 180.343 404.894C179.959 404.174 179.767 403.298 179.767 402.266C179.767 401.234 179.959 400.364 180.343 399.656C180.727 398.936 181.249 398.39 181.909 398.018C182.569 397.646 183.313 397.46 184.141 397.46C185.041 397.46 185.845 397.664 186.553 398.072C187.273 398.468 187.837 399.032 188.245 399.764C188.653 400.484 188.857 401.318 188.857 402.266C188.857 403.226 188.653 404.066 188.245 404.786C187.837 405.506 187.273 406.07 186.553 406.478C185.845 406.886 185.041 407.09 184.141 407.09ZM179.263 410.492V397.55H180.487V400.394L180.361 402.284L180.541 404.192V410.492H179.263ZM184.051 405.956C184.723 405.956 185.323 405.806 185.851 405.506C186.379 405.194 186.799 404.762 187.111 404.21C187.423 403.646 187.579 402.998 187.579 402.266C187.579 401.534 187.423 400.892 187.111 400.34C186.799 399.788 186.379 399.356 185.851 399.044C185.323 398.732 184.723 398.576 184.051 398.576C183.379 398.576 182.773 398.732 182.233 399.044C181.705 399.356 181.285 399.788 180.973 400.34C180.673 400.892 180.523 401.534 180.523 402.266C180.523 402.998 180.673 403.646 180.973 404.21C181.285 404.762 181.705 405.194 182.233 405.506C182.773 405.806 183.379 405.956 184.051 405.956ZM195.563 407.09C194.627 407.09 193.787 406.886 193.043 406.478C192.311 406.058 191.735 405.488 191.315 404.768C190.895 404.036 190.685 403.202 190.685 402.266C190.685 401.318 190.895 400.484 191.315 399.764C191.735 399.044 192.311 398.48 193.043 398.072C193.787 397.664 194.627 397.46 195.563 397.46C196.367 397.46 197.093 397.616 197.741 397.928C198.389 398.24 198.899 398.708 199.271 399.332L198.317 399.98C197.993 399.5 197.591 399.146 197.111 398.918C196.631 398.69 196.109 398.576 195.545 398.576C194.873 398.576 194.267 398.732 193.727 399.044C193.187 399.344 192.761 399.77 192.449 400.322C192.137 400.874 191.981 401.522 191.981 402.266C191.981 403.01 192.137 403.658 192.449 404.21C192.761 404.762 193.187 405.194 193.727 405.506C194.267 405.806 194.873 405.956 195.545 405.956C196.109 405.956 196.631 405.842 197.111 405.614C197.591 405.386 197.993 405.038 198.317 404.57L199.271 405.218C198.899 405.83 198.389 406.298 197.741 406.622C197.093 406.934 196.367 407.09 195.563 407.09ZM208.676 407L204.788 402.32L205.85 401.69L210.188 407H208.676ZM201.746 407V397.55H203.024V407H201.746ZM202.628 402.788V401.69H205.67V402.788H202.628ZM205.958 402.41L204.77 402.23L208.532 397.55H209.918L205.958 402.41ZM217.897 407V404.912L217.843 404.57V401.078C217.843 400.274 217.615 399.656 217.159 399.224C216.715 398.792 216.049 398.576 215.161 398.576C214.549 398.576 213.967 398.678 213.415 398.882C212.863 399.086 212.395 399.356 212.011 399.692L211.435 398.738C211.915 398.33 212.491 398.018 213.163 397.802C213.835 397.574 214.543 397.46 215.287 397.46C216.511 397.46 217.453 397.766 218.113 398.378C218.785 398.978 219.121 399.896 219.121 401.132V407H217.897ZM214.639 407.09C213.931 407.09 213.313 406.976 212.785 406.748C212.269 406.508 211.873 406.184 211.597 405.776C211.321 405.356 211.183 404.876 211.183 404.336C211.183 403.844 211.297 403.4 211.525 403.004C211.765 402.596 212.149 402.272 212.677 402.032C213.217 401.78 213.937 401.654 214.837 401.654H218.095V402.608H214.873C213.961 402.608 213.325 402.77 212.965 403.094C212.617 403.418 212.443 403.82 212.443 404.3C212.443 404.84 212.653 405.272 213.073 405.596C213.493 405.92 214.081 406.082 214.837 406.082C215.557 406.082 216.175 405.92 216.691 405.596C217.219 405.26 217.603 404.78 217.843 404.156L218.131 405.038C217.891 405.662 217.471 406.16 216.871 406.532C216.283 406.904 215.539 407.09 214.639 407.09ZM228.625 407V403.598L228.859 403.868H225.655C224.443 403.868 223.495 403.604 222.811 403.076C222.127 402.548 221.785 401.78 221.785 400.772C221.785 399.692 222.151 398.888 222.883 398.36C223.615 397.82 224.593 397.55 225.817 397.55H229.795V407H228.625ZM221.713 407L224.305 403.364H225.637L223.099 407H221.713ZM228.625 403.22V398.288L228.859 398.666H225.853C224.977 398.666 224.293 398.834 223.801 399.17C223.321 399.506 223.081 400.052 223.081 400.808C223.081 402.212 223.975 402.914 225.763 402.914H228.859L228.625 403.22ZM239.464 407V394.94L240.04 395.552H236.494V394.4H240.76V407H239.464ZM247.75 407.108C246.85 407.108 245.992 406.964 245.176 406.676C244.36 406.376 243.712 405.98 243.232 405.488L243.862 404.462C244.258 404.882 244.798 405.23 245.482 405.506C246.178 405.782 246.928 405.92 247.732 405.92C248.8 405.92 249.61 405.686 250.162 405.218C250.726 404.738 251.008 404.114 251.008 403.346C251.008 402.806 250.876 402.344 250.612 401.96C250.36 401.564 249.928 401.258 249.316 401.042C248.704 400.826 247.864 400.718 246.796 400.718H244.114L244.762 394.4H251.656V395.552H245.284L245.95 394.922L245.392 400.214L244.726 399.566H247.084C248.356 399.566 249.376 399.722 250.144 400.034C250.912 400.346 251.464 400.784 251.8 401.348C252.148 401.9 252.322 402.548 252.322 403.292C252.322 404 252.154 404.648 251.818 405.236C251.482 405.812 250.978 406.268 250.306 406.604C249.634 406.94 248.782 407.108 247.75 407.108Z" fill="black"/>
<path d="M12.5 436C14.706 436 16.5 434.206 16.5 432C16.5 429.794 14.706 428 12.5 428C10.294 428 8.5 429.794 8.5 432C8.5 434.206 10.294 436 12.5 436ZM12.5 430C13.603 430 14.5 430.897 14.5 432C14.5 433.103 13.603 434 12.5 434C11.397 434 10.5 433.103 10.5 432C10.5 430.897 11.397 430 12.5 430Z" fill="black"/>
<path d="M11.9201 443.814C12.0893 443.935 12.2921 444 12.5001 444C12.7081 444 12.9108 443.935 13.0801 443.814C13.3841 443.599 20.5291 438.44 20.5001 432C20.5001 427.589 16.9111 424 12.5001 424C8.08909 424 4.50009 427.589 4.50009 431.995C4.47109 438.44 11.6161 443.599 11.9201 443.814ZM12.5001 426C15.8091 426 18.5001 428.691 18.5001 432.005C18.5211 436.443 14.1121 440.428 12.5001 441.735C10.8891 440.427 6.47909 436.441 6.50009 432C6.50009 428.691 9.19109 426 12.5001 426Z" fill="black"/>
<path d="M36.318 441V431.55H43.014V432.666H37.272L37.596 432.342V441H36.318ZM44.1424 441.09C43.8784 441.09 43.6504 440.994 43.4584 440.802C43.2784 440.61 43.1884 440.376 43.1884 440.1C43.1884 439.812 43.2784 439.578 43.4584 439.398C43.6504 439.218 43.8784 439.128 44.1424 439.128C44.4064 439.128 44.6284 439.218 44.8084 439.398C45.0004 439.578 45.0964 439.812 45.0964 440.1C45.0964 440.376 45.0004 440.61 44.8084 440.802C44.6284 440.994 44.4064 441.09 44.1424 441.09ZM51.0298 441L56.7898 428.4H58.1038L63.8638 441H62.4598L57.1678 429.174H57.7078L52.4158 441H51.0298ZM53.2978 437.634L53.6938 436.554H61.0198L61.4158 437.634H53.2978ZM64.2443 440.982L64.3343 439.884C64.4183 439.896 64.4963 439.914 64.5683 439.938C64.6523 439.95 64.7243 439.956 64.7843 439.956C65.1683 439.956 65.4743 439.812 65.7023 439.524C65.9423 439.236 66.1223 438.852 66.2423 438.372C66.3623 437.892 66.4463 437.352 66.4943 436.752C66.5423 436.14 66.5843 435.528 66.6203 434.916L66.7823 431.55H73.7123V441H72.4343V432.288L72.7583 432.666H67.6103L67.9163 432.27L67.7723 435.006C67.7363 435.822 67.6703 436.602 67.5743 437.346C67.4903 438.09 67.3523 438.744 67.1603 439.308C66.9803 439.872 66.7283 440.316 66.4043 440.64C66.0803 440.952 65.6663 441.108 65.1623 441.108C65.0183 441.108 64.8683 441.096 64.7123 441.072C64.5683 441.048 64.4123 441.018 64.2443 440.982ZM81.4133 434.88C82.6013 434.892 83.5013 435.156 84.1133 435.672C84.7373 436.188 85.0493 436.932 85.0493 437.904C85.0493 438.912 84.7133 439.686 84.0413 440.226C83.3813 440.766 82.4213 441.03 81.1613 441.018L77.3453 441V431.55H78.6233V434.844L81.4133 434.88ZM81.0893 440.046C81.9653 440.058 82.6253 439.884 83.0693 439.524C83.5253 439.152 83.7533 438.612 83.7533 437.904C83.7533 437.196 83.5313 436.68 83.0873 436.356C82.6433 436.02 81.9773 435.846 81.0893 435.834L78.6233 435.798V440.01L81.0893 440.046ZM87.4879 441V431.55H88.7839L93.0679 438.804H92.5279L96.8839 431.55H98.0719V441H96.9019V433.008L97.1359 433.116L93.0679 439.848H92.4919L88.3879 433.044L88.6579 432.99V441H87.4879ZM105.759 441.09C104.775 441.09 103.911 440.886 103.167 440.478C102.423 440.058 101.841 439.488 101.421 438.768C101.001 438.036 100.791 437.202 100.791 436.266C100.791 435.33 100.989 434.502 101.385 433.782C101.793 433.062 102.345 432.498 103.041 432.09C103.749 431.67 104.541 431.46 105.417 431.46C106.305 431.46 107.091 431.664 107.775 432.072C108.471 432.468 109.017 433.032 109.413 433.764C109.809 434.484 110.007 435.318 110.007 436.266C110.007 436.326 110.001 436.392 109.989 436.464C109.989 436.524 109.989 436.59 109.989 436.662H101.763V435.708H109.305L108.801 436.086C108.801 435.402 108.651 434.796 108.351 434.268C108.063 433.728 107.667 433.308 107.163 433.008C106.659 432.708 106.077 432.558 105.417 432.558C104.769 432.558 104.187 432.708 103.671 433.008C103.155 433.308 102.753 433.728 102.465 434.268C102.177 434.808 102.033 435.426 102.033 436.122V436.32C102.033 437.04 102.189 437.676 102.501 438.228C102.825 438.768 103.269 439.194 103.833 439.506C104.409 439.806 105.063 439.956 105.795 439.956C106.371 439.956 106.905 439.854 107.397 439.65C107.901 439.446 108.333 439.134 108.693 438.714L109.413 439.542C108.993 440.046 108.465 440.43 107.829 440.694C107.205 440.958 106.515 441.09 105.759 441.09ZM114.214 441V432.324L114.538 432.666H110.632V431.55H119.074V432.666H115.168L115.492 432.324V441H114.214ZM124.99 434.88C126.178 434.892 127.078 435.156 127.69 435.672C128.314 436.188 128.626 436.932 128.626 437.904C128.626 438.912 128.29 439.686 127.618 440.226C126.958 440.766 125.998 441.03 124.738 441.018L120.922 441V431.55H122.2V434.844L124.99 434.88ZM124.666 440.046C125.542 440.058 126.202 439.884 126.646 439.524C127.102 439.152 127.33 438.612 127.33 437.904C127.33 437.196 127.108 436.68 126.664 436.356C126.22 436.02 125.554 435.846 124.666 435.834L122.2 435.798V440.01L124.666 440.046ZM135.114 441.09C134.13 441.09 133.266 440.886 132.522 440.478C131.778 440.058 131.196 439.488 130.776 438.768C130.356 438.036 130.146 437.202 130.146 436.266C130.146 435.33 130.344 434.502 130.74 433.782C131.148 433.062 131.7 432.498 132.396 432.09C133.104 431.67 133.896 431.46 134.772 431.46C135.66 431.46 136.446 431.664 137.13 432.072C137.826 432.468 138.372 433.032 138.768 433.764C139.164 434.484 139.362 435.318 139.362 436.266C139.362 436.326 139.356 436.392 139.344 436.464C139.344 436.524 139.344 436.59 139.344 436.662H131.118V435.708H138.66L138.156 436.086C138.156 435.402 138.006 434.796 137.706 434.268C137.418 433.728 137.022 433.308 136.518 433.008C136.014 432.708 135.432 432.558 134.772 432.558C134.124 432.558 133.542 432.708 133.026 433.008C132.51 433.308 132.108 433.728 131.82 434.268C131.532 434.808 131.388 435.426 131.388 436.122V436.32C131.388 437.04 131.544 437.676 131.856 438.228C132.18 438.768 132.624 439.194 133.188 439.506C133.764 439.806 134.418 439.956 135.15 439.956C135.726 439.956 136.26 439.854 136.752 439.65C137.256 439.446 137.688 439.134 138.048 438.714L138.768 439.542C138.348 440.046 137.82 440.43 137.184 440.694C136.56 440.958 135.87 441.09 135.114 441.09ZM142.191 441V431.55H146.367C147.435 431.55 148.275 431.754 148.887 432.162C149.511 432.57 149.823 433.17 149.823 433.962C149.823 434.73 149.529 435.324 148.941 435.744C148.353 436.152 147.579 436.356 146.619 436.356L146.871 435.978C147.999 435.978 148.827 436.188 149.355 436.608C149.883 437.028 150.147 437.634 150.147 438.426C150.147 439.242 149.847 439.878 149.247 440.334C148.659 440.778 147.741 441 146.493 441H142.191ZM143.433 439.992H146.439C147.243 439.992 147.849 439.866 148.257 439.614C148.677 439.35 148.887 438.93 148.887 438.354C148.887 437.778 148.701 437.358 148.329 437.094C147.957 436.83 147.369 436.698 146.565 436.698H143.433V439.992ZM143.433 435.744H146.277C147.009 435.744 147.567 435.606 147.951 435.33C148.347 435.054 148.545 434.652 148.545 434.124C148.545 433.596 148.347 433.2 147.951 432.936C147.567 432.672 147.009 432.54 146.277 432.54H143.433V435.744ZM157.102 441.09C156.166 441.09 155.326 440.886 154.582 440.478C153.85 440.058 153.274 439.488 152.854 438.768C152.434 438.036 152.224 437.202 152.224 436.266C152.224 435.318 152.434 434.484 152.854 433.764C153.274 433.044 153.85 432.48 154.582 432.072C155.326 431.664 156.166 431.46 157.102 431.46C157.906 431.46 158.632 431.616 159.28 431.928C159.928 432.24 160.438 432.708 160.81 433.332L159.856 433.98C159.532 433.5 159.13 433.146 158.65 432.918C158.17 432.69 157.648 432.576 157.084 432.576C156.412 432.576 155.806 432.732 155.266 433.044C154.726 433.344 154.3 433.77 153.988 434.322C153.676 434.874 153.52 435.522 153.52 436.266C153.52 437.01 153.676 437.658 153.988 438.21C154.3 438.762 154.726 439.194 155.266 439.506C155.806 439.806 156.412 439.956 157.084 439.956C157.648 439.956 158.17 439.842 158.65 439.614C159.13 439.386 159.532 439.038 159.856 438.57L160.81 439.218C160.438 439.83 159.928 440.298 159.28 440.622C158.632 440.934 157.906 441.09 157.102 441.09ZM170.215 441L166.327 436.32L167.389 435.69L171.727 441H170.215ZM163.285 441V431.55H164.563V441H163.285ZM164.167 436.788V435.69H167.209V436.788H164.167ZM167.497 436.41L166.309 436.23L170.071 431.55H171.457L167.497 436.41ZM172.934 443.628L173.726 440.298L173.87 441.072C173.594 441.072 173.36 440.982 173.168 440.802C172.988 440.622 172.898 440.388 172.898 440.1C172.898 439.812 172.988 439.578 173.168 439.398C173.36 439.218 173.588 439.128 173.852 439.128C174.128 439.128 174.35 439.224 174.518 439.416C174.698 439.608 174.788 439.836 174.788 440.1C174.788 440.196 174.782 440.292 174.77 440.388C174.758 440.484 174.734 440.592 174.698 440.712C174.662 440.832 174.614 440.976 174.554 441.144L173.798 443.628H172.934ZM190.945 440.37V429.552H184.915L184.807 432.612C184.771 433.56 184.711 434.472 184.627 435.348C184.555 436.212 184.435 436.992 184.267 437.688C184.111 438.372 183.895 438.93 183.619 439.362C183.355 439.794 183.007 440.046 182.575 440.118L181.117 439.848C181.597 439.872 181.993 439.698 182.305 439.326C182.629 438.954 182.875 438.432 183.043 437.76C183.223 437.088 183.355 436.302 183.439 435.402C183.523 434.502 183.583 433.53 183.619 432.486L183.763 428.4H192.259V440.37H190.945ZM180.649 443.826L180.667 439.848H194.149V443.826H192.907V441H181.909L181.891 443.826H180.649ZM207.37 441L204.13 436.32L205.192 435.69L208.9 441H207.37ZM202.006 436.788V435.69H204.994V436.788H202.006ZM205.318 436.41L204.094 436.23L207.244 431.55H208.63L205.318 436.41ZM196.174 441H194.644L198.352 435.69L199.396 436.32L196.174 441ZM202.402 441H201.124V431.55H202.402V441ZM201.52 436.788H198.55V435.69H201.52V436.788ZM198.244 436.41L194.914 431.55H196.3L199.432 436.23L198.244 436.41ZM216.719 441V438.912L216.665 438.57V435.078C216.665 434.274 216.437 433.656 215.981 433.224C215.537 432.792 214.871 432.576 213.983 432.576C213.371 432.576 212.789 432.678 212.237 432.882C211.685 433.086 211.217 433.356 210.833 433.692L210.257 432.738C210.737 432.33 211.313 432.018 211.985 431.802C212.657 431.574 213.365 431.46 214.109 431.46C215.333 431.46 216.275 431.766 216.935 432.378C217.607 432.978 217.943 433.896 217.943 435.132V441H216.719ZM213.461 441.09C212.753 441.09 212.135 440.976 211.607 440.748C211.091 440.508 210.695 440.184 210.419 439.776C210.143 439.356 210.005 438.876 210.005 438.336C210.005 437.844 210.119 437.4 210.347 437.004C210.587 436.596 210.971 436.272 211.499 436.032C212.039 435.78 212.759 435.654 213.659 435.654H216.917V436.608H213.695C212.783 436.608 212.147 436.77 211.787 437.094C211.439 437.418 211.265 437.82 211.265 438.3C211.265 438.84 211.475 439.272 211.895 439.596C212.315 439.92 212.903 440.082 213.659 440.082C214.379 440.082 214.997 439.92 215.513 439.596C216.041 439.26 216.425 438.78 216.665 438.156L216.953 439.038C216.713 439.662 216.293 440.16 215.693 440.532C215.105 440.904 214.361 441.09 213.461 441.09ZM219.617 440.982L219.707 439.884C219.791 439.896 219.869 439.914 219.941 439.938C220.025 439.95 220.097 439.956 220.157 439.956C220.541 439.956 220.847 439.812 221.075 439.524C221.315 439.236 221.495 438.852 221.615 438.372C221.735 437.892 221.819 437.352 221.867 436.752C221.915 436.14 221.957 435.528 221.993 434.916L222.155 431.55H229.085V441H227.807V432.288L228.131 432.666H222.983L223.289 432.27L223.145 435.006C223.109 435.822 223.043 436.602 222.947 437.346C222.863 438.09 222.725 438.744 222.533 439.308C222.353 439.872 222.101 440.316 221.777 440.64C221.453 440.952 221.039 441.108 220.535 441.108C220.391 441.108 220.241 441.096 220.085 441.072C219.941 441.048 219.785 441.018 219.617 440.982ZM232.718 441V431.55H233.996V439.056L240.314 431.55H241.448V441H240.17V433.476L233.87 441H232.718ZM243.383 440.982L243.473 439.884C243.557 439.896 243.635 439.914 243.707 439.938C243.791 439.95 243.863 439.956 243.923 439.956C244.307 439.956 244.613 439.812 244.841 439.524C245.081 439.236 245.261 438.852 245.381 438.372C245.501 437.892 245.585 437.352 245.633 436.752C245.681 436.14 245.723 435.528 245.759 434.916L245.921 431.55H252.851V441H251.573V432.288L251.897 432.666H246.749L247.055 432.27L246.911 435.006C246.875 435.822 246.809 436.602 246.713 437.346C246.629 438.09 246.491 438.744 246.299 439.308C246.119 439.872 245.867 440.316 245.543 440.64C245.219 440.952 244.805 441.108 244.301 441.108C244.157 441.108 244.007 441.096 243.851 441.072C243.707 441.048 243.551 441.018 243.383 440.982ZM262.586 441V437.598L262.82 437.868H259.616C258.404 437.868 257.456 437.604 256.772 437.076C256.088 436.548 255.746 435.78 255.746 434.772C255.746 433.692 256.112 432.888 256.844 432.36C257.576 431.82 258.554 431.55 259.778 431.55H263.756V441H262.586ZM255.674 441L258.266 437.364H259.598L257.06 441H255.674ZM262.586 437.22V432.288L262.82 432.666H259.814C258.938 432.666 258.254 432.834 257.762 433.17C257.282 433.506 257.042 434.052 257.042 434.808C257.042 436.212 257.936 436.914 259.724 436.914H262.82L262.586 437.22ZM274.991 441.108C274.079 441.108 273.215 440.964 272.399 440.676C271.595 440.376 270.947 439.98 270.455 439.488L271.085 438.462C271.493 438.882 272.039 439.23 272.723 439.506C273.419 439.782 274.175 439.92 274.991 439.92C276.035 439.92 276.833 439.692 277.385 439.236C277.949 438.78 278.231 438.168 278.231 437.4C278.231 436.632 277.955 436.02 277.403 435.564C276.863 435.108 276.005 434.88 274.829 434.88H273.929V433.926L277.817 429.048L277.997 429.552H270.977V428.4H279.077V429.318L275.189 434.196L274.559 433.782H275.045C276.557 433.782 277.685 434.118 278.429 434.79C279.185 435.462 279.563 436.326 279.563 437.382C279.563 438.09 279.395 438.726 279.059 439.29C278.723 439.854 278.213 440.298 277.529 440.622C276.857 440.946 276.011 441.108 274.991 441.108ZM281.067 441V440.082L286.305 434.952C286.785 434.484 287.145 434.076 287.385 433.728C287.625 433.368 287.787 433.032 287.871 432.72C287.955 432.408 287.997 432.114 287.997 431.838C287.997 431.106 287.745 430.53 287.241 430.11C286.749 429.69 286.017 429.48 285.045 429.48C284.301 429.48 283.641 429.594 283.065 429.822C282.501 430.05 282.015 430.404 281.607 430.884L280.689 430.092C281.181 429.516 281.811 429.072 282.579 428.76C283.347 428.448 284.205 428.292 285.153 428.292C286.005 428.292 286.743 428.43 287.367 428.706C287.991 428.97 288.471 429.36 288.807 429.876C289.155 430.392 289.329 430.998 289.329 431.694C289.329 432.102 289.269 432.504 289.149 432.9C289.041 433.296 288.837 433.716 288.537 434.16C288.249 434.592 287.823 435.084 287.259 435.636L282.453 440.352L282.093 439.848H289.905V441H281.067Z" fill="black"/>
<defs>
<clipPath id="clip0_103_4227">
<rect width="32" height="32" fill="white" transform="translate(62.5 221)"/>
</clipPath>
</defs>
</svg>
