<svg width="440" height="105" viewBox="0 0 440 105" fill="none" xmlns="http://www.w3.org/2000/svg">
<path d="M1.624 13V0.399999H6.34C7.408 0.399999 8.326 0.573999 9.094 0.922C9.862 1.258 10.45 1.75 10.858 2.398C11.278 3.034 11.488 3.808 11.488 4.72C11.488 5.608 11.278 6.376 10.858 7.024C10.45 7.66 9.862 8.152 9.094 8.5C8.326 8.848 7.408 9.022 6.34 9.022H2.362L2.956 8.392V13H1.624ZM2.956 8.5L2.362 7.852H6.304C7.564 7.852 8.518 7.582 9.166 7.042C9.826 6.49 10.156 5.716 10.156 4.72C10.156 3.712 9.826 2.932 9.166 2.38C8.518 1.828 7.564 1.552 6.304 1.552H2.362L2.956 0.922V8.5ZM17.9012 13.09C16.9172 13.09 16.0532 12.886 15.3092 12.478C14.5652 12.058 13.9832 11.488 13.5632 10.768C13.1432 10.036 12.9332 9.202 12.9332 8.266C12.9332 7.33 13.1312 6.502 13.5272 5.782C13.9352 5.062 14.4872 4.498 15.1832 4.09C15.8912 3.67 16.6832 3.46 17.5592 3.46C18.4472 3.46 19.2332 3.664 19.9172 4.072C20.6132 4.468 21.1592 5.032 21.5552 5.764C21.9512 6.484 22.1492 7.318 22.1492 8.266C22.1492 8.326 22.1432 8.392 22.1312 8.464C22.1312 8.524 22.1312 8.59 22.1312 8.662H13.9052V7.708H21.4472L20.9432 8.086C20.9432 7.402 20.7932 6.796 20.4932 6.268C20.2052 5.728 19.8092 5.308 19.3052 5.008C18.8012 4.708 18.2192 4.558 17.5592 4.558C16.9112 4.558 16.3292 4.708 15.8132 5.008C15.2972 5.308 14.8952 5.728 14.6072 6.268C14.3192 6.808 14.1752 7.426 14.1752 8.122V8.32C14.1752 9.04 14.3312 9.676 14.6432 10.228C14.9672 10.768 15.4112 11.194 15.9752 11.506C16.5512 11.806 17.2052 11.956 17.9372 11.956C18.5132 11.956 19.0472 11.854 19.5392 11.65C20.0432 11.446 20.4752 11.134 20.8352 10.714L21.5552 11.542C21.1352 12.046 20.6072 12.43 19.9712 12.694C19.3472 12.958 18.6572 13.09 17.9012 13.09ZM31.9082 13L28.0202 8.32L29.0822 7.69L33.4202 13H31.9082ZM24.9782 13V3.55H26.2562V13H24.9782ZM25.8602 8.788V7.69H28.9022V8.788H25.8602ZM29.1902 8.41L28.0022 8.23L31.7642 3.55H33.1502L29.1902 8.41ZM35.4371 13V3.55H39.6131C40.6811 3.55 41.5211 3.754 42.1331 4.162C42.7571 4.57 43.0691 5.17 43.0691 5.962C43.0691 6.73 42.7751 7.324 42.1871 7.744C41.5991 8.152 40.8251 8.356 39.8651 8.356L40.1171 7.978C41.2451 7.978 42.0731 8.188 42.6011 8.608C43.1291 9.028 43.3931 9.634 43.3931 10.426C43.3931 11.242 43.0931 11.878 42.4931 12.334C41.9051 12.778 40.9871 13 39.7391 13H35.4371ZM36.6791 11.992H39.6851C40.4891 11.992 41.0951 11.866 41.5031 11.614C41.9231 11.35 42.1331 10.93 42.1331 10.354C42.1331 9.778 41.9471 9.358 41.5751 9.094C41.2031 8.83 40.6151 8.698 39.8111 8.698H36.6791V11.992ZM36.6791 7.744H39.5231C40.2551 7.744 40.8131 7.606 41.1971 7.33C41.5931 7.054 41.7911 6.652 41.7911 6.124C41.7911 5.596 41.5931 5.2 41.1971 4.936C40.8131 4.672 40.2551 4.54 39.5231 4.54H36.6791V7.744ZM46.3883 13V3.55H47.6663V11.056L53.9843 3.55H55.1183V13H53.8403V5.476L47.5403 13H46.3883ZM61.1255 13.108C60.4415 13.108 59.7635 13.012 59.0915 12.82C58.4195 12.628 57.8255 12.334 57.3095 11.938L57.7235 10.984C58.1795 11.32 58.7075 11.578 59.3075 11.758C59.9075 11.926 60.5015 12.01 61.0895 12.01C61.6775 11.998 62.1875 11.914 62.6195 11.758C63.0515 11.602 63.3875 11.386 63.6275 11.11C63.8675 10.834 63.9875 10.522 63.9875 10.174C63.9875 9.67 63.7595 9.28 63.3035 9.004C62.8475 8.716 62.2235 8.572 61.4315 8.572H59.8115V7.636H61.3415C61.8095 7.636 62.2235 7.576 62.5835 7.456C62.9435 7.336 63.2195 7.162 63.4115 6.934C63.6155 6.706 63.7175 6.436 63.7175 6.124C63.7175 5.788 63.5975 5.5 63.3575 5.26C63.1295 5.02 62.8115 4.84 62.4035 4.72C61.9955 4.6 61.5335 4.54 61.0175 4.54C60.5495 4.552 60.0635 4.624 59.5595 4.756C59.0555 4.876 58.5575 5.062 58.0655 5.314L57.7055 4.324C58.2575 4.036 58.8035 3.82 59.3435 3.676C59.8955 3.52 60.4475 3.442 60.9995 3.442C61.7555 3.418 62.4335 3.508 63.0335 3.712C63.6455 3.916 64.1315 4.21 64.4915 4.594C64.8515 4.966 65.0315 5.416 65.0315 5.944C65.0315 6.412 64.8875 6.82 64.5995 7.168C64.3115 7.516 63.9275 7.786 63.4475 7.978C62.9675 8.17 62.4215 8.266 61.8095 8.266L61.8635 7.924C62.9435 7.924 63.7835 8.134 64.3835 8.554C64.9955 8.974 65.3015 9.544 65.3015 10.264C65.3015 10.828 65.1155 11.326 64.7435 11.758C64.3715 12.178 63.8675 12.508 63.2315 12.748C62.6075 12.988 61.9055 13.108 61.1255 13.108ZM68.2028 13V3.55H69.4808V11.056L75.7988 3.55H76.9328V13H75.6548V5.476L69.3548 13H68.2028ZM82.3953 13V4.324L82.7193 4.666H78.8133V3.55H87.2553V4.666H83.3493L83.6733 4.324V13H82.3953ZM98.3192 13V3.55H99.5972V13H98.3192ZM93.0812 6.88C94.2692 6.892 95.1752 7.156 95.7992 7.672C96.4232 8.188 96.7352 8.932 96.7352 9.904C96.7352 10.912 96.3992 11.686 95.7272 12.226C95.0552 12.766 94.0952 13.03 92.8472 13.018L89.1032 13V3.55H90.3812V6.844L93.0812 6.88ZM92.7572 12.046C93.6452 12.058 94.3112 11.884 94.7552 11.524C95.2112 11.152 95.4392 10.612 95.4392 9.904C95.4392 9.196 95.2172 8.68 94.7732 8.356C94.3292 8.02 93.6572 7.846 92.7572 7.834L90.3812 7.798V12.01L92.7572 12.046ZM1.624 35V22.4H2.938V32.84L11.002 22.4H12.208V35H10.894V24.578L2.83 35H1.624ZM16.4599 35V22.4H27.0619V35H25.7479V23.192L26.0899 23.552H17.4319L17.7739 23.192V35H16.4599ZM36.0244 35V22.4H37.1224L42.8824 32.228H42.3064L48.0124 22.4H49.1104V35H47.8324V24.398H48.1384L42.8824 33.398H42.2524L36.9604 24.398H37.3024V35H36.0244ZM58.9184 35V32.912L58.8644 32.57V29.078C58.8644 28.274 58.6364 27.656 58.1804 27.224C57.7364 26.792 57.0704 26.576 56.1824 26.576C55.5704 26.576 54.9884 26.678 54.4364 26.882C53.8844 27.086 53.4164 27.356 53.0324 27.692L52.4564 26.738C52.9364 26.33 53.5124 26.018 54.1844 25.802C54.8564 25.574 55.5644 25.46 56.3084 25.46C57.5324 25.46 58.4744 25.766 59.1344 26.378C59.8064 26.978 60.1424 27.896 60.1424 29.132V35H58.9184ZM55.6604 35.09C54.9524 35.09 54.3344 34.976 53.8064 34.748C53.2904 34.508 52.8944 34.184 52.6184 33.776C52.3424 33.356 52.2044 32.876 52.2044 32.336C52.2044 31.844 52.3184 31.4 52.5464 31.004C52.7864 30.596 53.1704 30.272 53.6984 30.032C54.2384 29.78 54.9584 29.654 55.8584 29.654H59.1164V30.608H55.8944C54.9824 30.608 54.3464 30.77 53.9864 31.094C53.6384 31.418 53.4644 31.82 53.4644 32.3C53.4644 32.84 53.6744 33.272 54.0944 33.596C54.5144 33.92 55.1024 34.082 55.8584 34.082C56.5784 34.082 57.1964 33.92 57.7124 33.596C58.2404 33.26 58.6244 32.78 58.8644 32.156L59.1524 33.038C58.9124 33.662 58.4924 34.16 57.8924 34.532C57.3044 34.904 56.5604 35.09 55.6604 35.09ZM67.5046 35.09C66.5686 35.09 65.7286 34.886 64.9846 34.478C64.2526 34.058 63.6766 33.488 63.2566 32.768C62.8366 32.036 62.6266 31.202 62.6266 30.266C62.6266 29.318 62.8366 28.484 63.2566 27.764C63.6766 27.044 64.2526 26.48 64.9846 26.072C65.7286 25.664 66.5686 25.46 67.5046 25.46C68.3086 25.46 69.0346 25.616 69.6826 25.928C70.3306 26.24 70.8406 26.708 71.2126 27.332L70.2586 27.98C69.9346 27.5 69.5326 27.146 69.0526 26.918C68.5726 26.69 68.0506 26.576 67.4866 26.576C66.8146 26.576 66.2086 26.732 65.6686 27.044C65.1286 27.344 64.7026 27.77 64.3906 28.322C64.0786 28.874 63.9226 29.522 63.9226 30.266C63.9226 31.01 64.0786 31.658 64.3906 32.21C64.7026 32.762 65.1286 33.194 65.6686 33.506C66.2086 33.806 66.8146 33.956 67.4866 33.956C68.0506 33.956 68.5726 33.842 69.0526 33.614C69.5326 33.386 69.9346 33.038 70.2586 32.57L71.2126 33.218C70.8406 33.83 70.3306 34.298 69.6826 34.622C69.0346 34.934 68.3086 35.09 67.5046 35.09ZM71.6252 34.982L71.7152 33.884C71.7992 33.896 71.8772 33.914 71.9492 33.938C72.0332 33.95 72.1052 33.956 72.1652 33.956C72.5492 33.956 72.8552 33.812 73.0832 33.524C73.3232 33.236 73.5032 32.852 73.6232 32.372C73.7432 31.892 73.8272 31.352 73.8752 30.752C73.9232 30.14 73.9652 29.528 74.0012 28.916L74.1632 25.55H81.0932V35H79.8152V26.288L80.1392 26.666H74.9912L75.2972 26.27L75.1532 29.006C75.1172 29.822 75.0512 30.602 74.9552 31.346C74.8712 32.09 74.7332 32.744 74.5412 33.308C74.3612 33.872 74.1092 34.316 73.7852 34.64C73.4612 34.952 73.0472 35.108 72.5432 35.108C72.3992 35.108 72.2492 35.096 72.0932 35.072C71.9492 35.048 71.7932 35.018 71.6252 34.982ZM88.7762 35.09C87.7922 35.09 86.9282 34.886 86.1842 34.478C85.4402 34.058 84.8582 33.488 84.4382 32.768C84.0182 32.036 83.8082 31.202 83.8082 30.266C83.8082 29.33 84.0062 28.502 84.4022 27.782C84.8102 27.062 85.3622 26.498 86.0582 26.09C86.7662 25.67 87.5582 25.46 88.4342 25.46C89.3222 25.46 90.1082 25.664 90.7922 26.072C91.4882 26.468 92.0342 27.032 92.4302 27.764C92.8262 28.484 93.0242 29.318 93.0242 30.266C93.0242 30.326 93.0182 30.392 93.0062 30.464C93.0062 30.524 93.0062 30.59 93.0062 30.662H84.7802V29.708H92.3222L91.8182 30.086C91.8182 29.402 91.6682 28.796 91.3682 28.268C91.0802 27.728 90.6842 27.308 90.1802 27.008C89.6762 26.708 89.0942 26.558 88.4342 26.558C87.7862 26.558 87.2042 26.708 86.6882 27.008C86.1722 27.308 85.7702 27.728 85.4822 28.268C85.1942 28.808 85.0502 29.426 85.0502 30.122V30.32C85.0502 31.04 85.2062 31.676 85.5182 32.228C85.8422 32.768 86.2862 33.194 86.8502 33.506C87.4262 33.806 88.0802 33.956 88.8122 33.956C89.3882 33.956 89.9222 33.854 90.4142 33.65C90.9182 33.446 91.3502 33.134 91.7102 32.714L92.4302 33.542C92.0102 34.046 91.4822 34.43 90.8462 34.694C90.2222 34.958 89.5322 35.09 88.7762 35.09ZM95.8532 35V25.55H97.1312V29.726H103.089V25.55H104.367V35H103.089V30.824H97.1312V35H95.8532ZM114.93 35L111.042 30.32L112.104 29.69L116.442 35H114.93ZM108 35V25.55H109.278V35H108ZM108.882 30.788V29.69H111.924V30.788H108.882ZM112.212 30.41L111.024 30.23L114.786 25.55H116.172L112.212 30.41ZM122.013 35.09C121.101 35.09 120.279 34.886 119.547 34.478C118.827 34.058 118.257 33.488 117.837 32.768C117.417 32.036 117.207 31.202 117.207 30.266C117.207 29.318 117.417 28.484 117.837 27.764C118.257 27.044 118.827 26.48 119.547 26.072C120.267 25.664 121.089 25.46 122.013 25.46C122.949 25.46 123.777 25.664 124.497 26.072C125.229 26.48 125.799 27.044 126.207 27.764C126.627 28.484 126.837 29.318 126.837 30.266C126.837 31.202 126.627 32.036 126.207 32.768C125.799 33.488 125.229 34.058 124.497 34.478C123.765 34.886 122.937 35.09 122.013 35.09ZM122.013 33.956C122.697 33.956 123.303 33.806 123.831 33.506C124.359 33.194 124.773 32.762 125.073 32.21C125.385 31.646 125.541 30.998 125.541 30.266C125.541 29.522 125.385 28.874 125.073 28.322C124.773 27.77 124.359 27.344 123.831 27.044C123.303 26.732 122.703 26.576 122.031 26.576C121.359 26.576 120.759 26.732 120.231 27.044C119.703 27.344 119.283 27.77 118.971 28.322C118.659 28.874 118.503 29.522 118.503 30.266C118.503 30.998 118.659 31.646 118.971 32.21C119.283 32.762 119.703 33.194 120.231 33.506C120.759 33.806 121.353 33.956 122.013 33.956ZM129.568 35V25.55H133.744C134.812 25.55 135.652 25.754 136.264 26.162C136.888 26.57 137.2 27.17 137.2 27.962C137.2 28.73 136.906 29.324 136.318 29.744C135.73 30.152 134.956 30.356 133.996 30.356L134.248 29.978C135.376 29.978 136.204 30.188 136.732 30.608C137.26 31.028 137.524 31.634 137.524 32.426C137.524 33.242 137.224 33.878 136.624 34.334C136.036 34.778 135.118 35 133.87 35H129.568ZM130.81 33.992H133.816C134.62 33.992 135.226 33.866 135.634 33.614C136.054 33.35 136.264 32.93 136.264 32.354C136.264 31.778 136.078 31.358 135.706 31.094C135.334 30.83 134.746 30.698 133.942 30.698H130.81V33.992ZM130.81 29.744H133.654C134.386 29.744 134.944 29.606 135.328 29.33C135.724 29.054 135.922 28.652 135.922 28.124C135.922 27.596 135.724 27.2 135.328 26.936C134.944 26.672 134.386 26.54 133.654 26.54H130.81V29.744ZM146.387 35V32.912L146.333 32.57V29.078C146.333 28.274 146.105 27.656 145.649 27.224C145.205 26.792 144.539 26.576 143.651 26.576C143.039 26.576 142.457 26.678 141.905 26.882C141.353 27.086 140.885 27.356 140.501 27.692L139.925 26.738C140.405 26.33 140.981 26.018 141.653 25.802C142.325 25.574 143.033 25.46 143.777 25.46C145.001 25.46 145.943 25.766 146.603 26.378C147.275 26.978 147.611 27.896 147.611 29.132V35H146.387ZM143.129 35.09C142.421 35.09 141.803 34.976 141.275 34.748C140.759 34.508 140.363 34.184 140.087 33.776C139.811 33.356 139.673 32.876 139.673 32.336C139.673 31.844 139.787 31.4 140.015 31.004C140.255 30.596 140.639 30.272 141.167 30.032C141.707 29.78 142.427 29.654 143.327 29.654H146.585V30.608H143.363C142.451 30.608 141.815 30.77 141.455 31.094C141.107 31.418 140.933 31.82 140.933 32.3C140.933 32.84 141.143 33.272 141.563 33.596C141.983 33.92 142.571 34.082 143.327 34.082C144.047 34.082 144.665 33.92 145.181 33.596C145.709 33.26 146.093 32.78 146.333 32.156L146.621 33.038C146.381 33.662 145.961 34.16 145.361 34.532C144.773 34.904 144.029 35.09 143.129 35.09ZM154.176 35L159.936 22.4H161.25L167.01 35H165.606L160.314 23.174H160.854L155.562 35H154.176ZM156.444 31.634L156.84 30.554H164.166L164.562 31.634H156.444ZM169.119 35V25.55H170.397V29.726H176.355V25.55H177.633V35H176.355V30.824H170.397V35H169.119ZM187.133 35V32.912L187.079 32.57V29.078C187.079 28.274 186.851 27.656 186.395 27.224C185.951 26.792 185.285 26.576 184.397 26.576C183.785 26.576 183.203 26.678 182.651 26.882C182.099 27.086 181.631 27.356 181.247 27.692L180.671 26.738C181.151 26.33 181.727 26.018 182.399 25.802C183.071 25.574 183.779 25.46 184.523 25.46C185.747 25.46 186.689 25.766 187.349 26.378C188.021 26.978 188.357 27.896 188.357 29.132V35H187.133ZM183.875 35.09C183.167 35.09 182.549 34.976 182.021 34.748C181.505 34.508 181.109 34.184 180.833 33.776C180.557 33.356 180.419 32.876 180.419 32.336C180.419 31.844 180.533 31.4 180.761 31.004C181.001 30.596 181.385 30.272 181.913 30.032C182.453 29.78 183.173 29.654 184.073 29.654H187.331V30.608H184.109C183.197 30.608 182.561 30.77 182.201 31.094C181.853 31.418 181.679 31.82 181.679 32.3C181.679 32.84 181.889 33.272 182.309 33.596C182.729 33.92 183.317 34.082 184.073 34.082C184.793 34.082 185.411 33.92 185.927 33.596C186.455 33.26 186.839 32.78 187.079 32.156L187.367 33.038C187.127 33.662 186.707 34.16 186.107 34.532C185.519 34.904 184.775 35.09 183.875 35.09ZM195.719 35.09C194.783 35.09 193.943 34.886 193.199 34.478C192.467 34.058 191.891 33.488 191.471 32.768C191.051 32.036 190.841 31.202 190.841 30.266C190.841 29.318 191.051 28.484 191.471 27.764C191.891 27.044 192.467 26.48 193.199 26.072C193.943 25.664 194.783 25.46 195.719 25.46C196.523 25.46 197.249 25.616 197.897 25.928C198.545 26.24 199.055 26.708 199.427 27.332L198.473 27.98C198.149 27.5 197.747 27.146 197.267 26.918C196.787 26.69 196.265 26.576 195.701 26.576C195.029 26.576 194.423 26.732 193.883 27.044C193.343 27.344 192.917 27.77 192.605 28.322C192.293 28.874 192.137 29.522 192.137 30.266C192.137 31.01 192.293 31.658 192.605 32.21C192.917 32.762 193.343 33.194 193.883 33.506C194.423 33.806 195.029 33.956 195.701 33.956C196.265 33.956 196.787 33.842 197.267 33.614C197.747 33.386 198.149 33.038 198.473 32.57L199.427 33.218C199.055 33.83 198.545 34.298 197.897 34.622C197.249 34.934 196.523 35.09 195.719 35.09ZM203.526 35V26.324L203.85 26.666H199.944V25.55H208.386V26.666H204.48L204.804 26.324V35H203.526ZM216.102 35V32.912L216.048 32.57V29.078C216.048 28.274 215.82 27.656 215.364 27.224C214.92 26.792 214.254 26.576 213.366 26.576C212.754 26.576 212.172 26.678 211.62 26.882C211.068 27.086 210.6 27.356 210.216 27.692L209.64 26.738C210.12 26.33 210.696 26.018 211.368 25.802C212.04 25.574 212.748 25.46 213.492 25.46C214.716 25.46 215.658 25.766 216.318 26.378C216.99 26.978 217.326 27.896 217.326 29.132V35H216.102ZM212.844 35.09C212.136 35.09 211.518 34.976 210.99 34.748C210.474 34.508 210.078 34.184 209.802 33.776C209.526 33.356 209.388 32.876 209.388 32.336C209.388 31.844 209.502 31.4 209.73 31.004C209.97 30.596 210.354 30.272 210.882 30.032C211.422 29.78 212.142 29.654 213.042 29.654H216.3V30.608H213.078C212.166 30.608 211.53 30.77 211.17 31.094C210.822 31.418 210.648 31.82 210.648 32.3C210.648 32.84 210.858 33.272 211.278 33.596C211.698 33.92 212.286 34.082 213.042 34.082C213.762 34.082 214.38 33.92 214.896 33.596C215.424 33.26 215.808 32.78 216.048 32.156L216.336 33.038C216.096 33.662 215.676 34.16 215.076 34.532C214.488 34.904 213.744 35.09 212.844 35.09ZM224.688 35.09C223.752 35.09 222.912 34.886 222.168 34.478C221.436 34.058 220.86 33.488 220.44 32.768C220.02 32.036 219.81 31.202 219.81 30.266C219.81 29.318 220.02 28.484 220.44 27.764C220.86 27.044 221.436 26.48 222.168 26.072C222.912 25.664 223.752 25.46 224.688 25.46C225.492 25.46 226.218 25.616 226.866 25.928C227.514 26.24 228.024 26.708 228.396 27.332L227.442 27.98C227.118 27.5 226.716 27.146 226.236 26.918C225.756 26.69 225.234 26.576 224.67 26.576C223.998 26.576 223.392 26.732 222.852 27.044C222.312 27.344 221.886 27.77 221.574 28.322C221.262 28.874 221.106 29.522 221.106 30.266C221.106 31.01 221.262 31.658 221.574 32.21C221.886 32.762 222.312 33.194 222.852 33.506C223.392 33.806 223.998 33.956 224.67 33.956C225.234 33.956 225.756 33.842 226.236 33.614C226.716 33.386 227.118 33.038 227.442 32.57L228.396 33.218C228.024 33.83 227.514 34.298 226.866 34.622C226.218 34.934 225.492 35.09 224.688 35.09ZM230.871 35V25.55H232.149V33.056L238.467 25.55H239.601V35H238.323V27.476L232.023 35H230.871ZM249.365 35V31.598L249.599 31.868H246.395C245.183 31.868 244.235 31.604 243.551 31.076C242.867 30.548 242.525 29.78 242.525 28.772C242.525 27.692 242.891 26.888 243.623 26.36C244.355 25.82 245.333 25.55 246.557 25.55H250.535V35H249.365ZM242.453 35L245.045 31.364H246.377L243.839 35H242.453ZM249.365 31.22V26.288L249.599 26.666H246.593C245.717 26.666 245.033 26.834 244.541 27.17C244.061 27.506 243.821 28.052 243.821 28.808C243.821 30.212 244.715 30.914 246.503 30.914H249.599L249.365 31.22ZM257.342 35L263.102 22.4H264.416L270.176 35H268.772L263.48 23.174H264.02L258.728 35H257.342ZM259.61 31.634L260.006 30.554H267.332L267.728 31.634H259.61ZM270.557 34.982L270.647 33.884C270.731 33.896 270.809 33.914 270.881 33.938C270.965 33.95 271.037 33.956 271.097 33.956C271.481 33.956 271.787 33.812 272.015 33.524C272.255 33.236 272.435 32.852 272.555 32.372C272.675 31.892 272.759 31.352 272.807 30.752C272.855 30.14 272.897 29.528 272.933 28.916L273.095 25.55H280.025V35H278.747V26.288L279.071 26.666H273.923L274.229 26.27L274.085 29.006C274.049 29.822 273.983 30.602 273.887 31.346C273.803 32.09 273.665 32.744 273.473 33.308C273.293 33.872 273.041 34.316 272.717 34.64C272.393 34.952 271.979 35.108 271.475 35.108C271.331 35.108 271.181 35.096 271.025 35.072C270.881 35.048 270.725 35.018 270.557 34.982ZM287.708 35.09C286.724 35.09 285.86 34.886 285.116 34.478C284.372 34.058 283.79 33.488 283.37 32.768C282.95 32.036 282.74 31.202 282.74 30.266C282.74 29.33 282.938 28.502 283.334 27.782C283.742 27.062 284.294 26.498 284.99 26.09C285.698 25.67 286.49 25.46 287.366 25.46C288.254 25.46 289.04 25.664 289.724 26.072C290.42 26.468 290.966 27.032 291.362 27.764C291.758 28.484 291.956 29.318 291.956 30.266C291.956 30.326 291.95 30.392 291.938 30.464C291.938 30.524 291.938 30.59 291.938 30.662H283.712V29.708H291.254L290.75 30.086C290.75 29.402 290.6 28.796 290.3 28.268C290.012 27.728 289.616 27.308 289.112 27.008C288.608 26.708 288.026 26.558 287.366 26.558C286.718 26.558 286.136 26.708 285.62 27.008C285.104 27.308 284.702 27.728 284.414 28.268C284.126 28.808 283.982 29.426 283.982 30.122V30.32C283.982 31.04 284.138 31.676 284.45 32.228C284.774 32.768 285.218 33.194 285.782 33.506C286.358 33.806 287.012 33.956 287.744 33.956C288.32 33.956 288.854 33.854 289.346 33.65C289.85 33.446 290.282 33.134 290.642 32.714L291.362 33.542C290.942 34.046 290.414 34.43 289.778 34.694C289.154 34.958 288.464 35.09 287.708 35.09ZM301.715 35L297.827 30.32L298.889 29.69L303.227 35H301.715ZM294.785 35V25.55H296.063V35H294.785ZM295.667 30.788V29.69H298.709V30.788H295.667ZM298.997 30.41L297.809 30.23L301.571 25.55H302.957L298.997 30.41ZM308.87 35.09C307.934 35.09 307.094 34.886 306.35 34.478C305.618 34.058 305.042 33.488 304.622 32.768C304.202 32.036 303.992 31.202 303.992 30.266C303.992 29.318 304.202 28.484 304.622 27.764C305.042 27.044 305.618 26.48 306.35 26.072C307.094 25.664 307.934 25.46 308.87 25.46C309.674 25.46 310.4 25.616 311.048 25.928C311.696 26.24 312.206 26.708 312.578 27.332L311.624 27.98C311.3 27.5 310.898 27.146 310.418 26.918C309.938 26.69 309.416 26.576 308.852 26.576C308.18 26.576 307.574 26.732 307.034 27.044C306.494 27.344 306.068 27.77 305.756 28.322C305.444 28.874 305.288 29.522 305.288 30.266C305.288 31.01 305.444 31.658 305.756 32.21C306.068 32.762 306.494 33.194 307.034 33.506C307.574 33.806 308.18 33.956 308.852 33.956C309.416 33.956 309.938 33.842 310.418 33.614C310.898 33.386 311.3 33.038 311.624 32.57L312.578 33.218C312.206 33.83 311.696 34.298 311.048 34.622C310.4 34.934 309.674 35.09 308.87 35.09ZM320.92 35V32.912L320.866 32.57V29.078C320.866 28.274 320.638 27.656 320.182 27.224C319.738 26.792 319.072 26.576 318.184 26.576C317.572 26.576 316.99 26.678 316.438 26.882C315.886 27.086 315.418 27.356 315.034 27.692L314.458 26.738C314.938 26.33 315.514 26.018 316.186 25.802C316.858 25.574 317.566 25.46 318.31 25.46C319.534 25.46 320.476 25.766 321.136 26.378C321.808 26.978 322.144 27.896 322.144 29.132V35H320.92ZM317.662 35.09C316.954 35.09 316.336 34.976 315.808 34.748C315.292 34.508 314.896 34.184 314.62 33.776C314.344 33.356 314.206 32.876 314.206 32.336C314.206 31.844 314.32 31.4 314.548 31.004C314.788 30.596 315.172 30.272 315.7 30.032C316.24 29.78 316.96 29.654 317.86 29.654H321.118V30.608H317.896C316.984 30.608 316.348 30.77 315.988 31.094C315.64 31.418 315.466 31.82 315.466 32.3C315.466 32.84 315.676 33.272 316.096 33.596C316.516 33.92 317.104 34.082 317.86 34.082C318.58 34.082 319.198 33.92 319.714 33.596C320.242 33.26 320.626 32.78 320.866 32.156L321.154 33.038C320.914 33.662 320.494 34.16 319.894 34.532C319.306 34.904 318.562 35.09 317.662 35.09ZM325.547 35V25.55H326.825V29.726H332.783V25.55H334.061V35H332.783V30.824H326.825V35H325.547ZM344.173 34.388V26.666H339.619L339.511 28.772C339.487 29.408 339.445 30.032 339.385 30.644C339.337 31.256 339.247 31.82 339.115 32.336C338.995 32.84 338.821 33.254 338.593 33.578C338.365 33.89 338.071 34.07 337.711 34.118L336.433 33.884C336.805 33.896 337.111 33.764 337.351 33.488C337.591 33.2 337.777 32.81 337.909 32.318C338.041 31.826 338.137 31.268 338.197 30.644C338.257 30.008 338.305 29.36 338.341 28.7L338.467 25.55H345.451V34.388H344.173ZM336.037 37.286V33.884H346.927V37.286H345.721V35H337.243V37.286H336.037ZM354.296 35.09C353.48 35.09 352.742 34.904 352.082 34.532C351.422 34.148 350.894 33.602 350.498 32.894C350.114 32.174 349.922 31.298 349.922 30.266C349.922 29.234 350.114 28.364 350.498 27.656C350.882 26.936 351.404 26.39 352.064 26.018C352.724 25.646 353.468 25.46 354.296 25.46C355.196 25.46 356 25.664 356.708 26.072C357.428 26.468 357.992 27.032 358.4 27.764C358.808 28.484 359.012 29.318 359.012 30.266C359.012 31.226 358.808 32.066 358.4 32.786C357.992 33.506 357.428 34.07 356.708 34.478C356 34.886 355.196 35.09 354.296 35.09ZM349.418 38.492V25.55H350.642V28.394L350.516 30.284L350.696 32.192V38.492H349.418ZM354.206 33.956C354.878 33.956 355.478 33.806 356.006 33.506C356.534 33.194 356.954 32.762 357.266 32.21C357.578 31.646 357.734 30.998 357.734 30.266C357.734 29.534 357.578 28.892 357.266 28.34C356.954 27.788 356.534 27.356 356.006 27.044C355.478 26.732 354.878 26.576 354.206 26.576C353.534 26.576 352.928 26.732 352.388 27.044C351.86 27.356 351.44 27.788 351.128 28.34C350.828 28.892 350.678 29.534 350.678 30.266C350.678 30.998 350.828 31.646 351.128 32.21C351.44 32.762 351.86 33.194 352.388 33.506C352.928 33.806 353.534 33.956 354.206 33.956ZM365.645 35.09C364.733 35.09 363.911 34.886 363.179 34.478C362.459 34.058 361.889 33.488 361.469 32.768C361.049 32.036 360.839 31.202 360.839 30.266C360.839 29.318 361.049 28.484 361.469 27.764C361.889 27.044 362.459 26.48 363.179 26.072C363.899 25.664 364.721 25.46 365.645 25.46C366.581 25.46 367.409 25.664 368.129 26.072C368.861 26.48 369.431 27.044 369.839 27.764C370.259 28.484 370.469 29.318 370.469 30.266C370.469 31.202 370.259 32.036 369.839 32.768C369.431 33.488 368.861 34.058 368.129 34.478C367.397 34.886 366.569 35.09 365.645 35.09ZM365.645 33.956C366.329 33.956 366.935 33.806 367.463 33.506C367.991 33.194 368.405 32.762 368.705 32.21C369.017 31.646 369.173 30.998 369.173 30.266C369.173 29.522 369.017 28.874 368.705 28.322C368.405 27.77 367.991 27.344 367.463 27.044C366.935 26.732 366.335 26.576 365.663 26.576C364.991 26.576 364.391 26.732 363.863 27.044C363.335 27.344 362.915 27.77 362.603 28.322C362.291 28.874 362.135 29.522 362.135 30.266C362.135 30.998 362.291 31.646 362.603 32.21C362.915 32.762 363.335 33.194 363.863 33.506C364.391 33.806 364.985 33.956 365.645 33.956ZM373.201 35V25.55H377.377C378.445 25.55 379.285 25.754 379.897 26.162C380.521 26.57 380.833 27.17 380.833 27.962C380.833 28.73 380.539 29.324 379.951 29.744C379.363 30.152 378.589 30.356 377.629 30.356L377.881 29.978C379.009 29.978 379.837 30.188 380.365 30.608C380.893 31.028 381.157 31.634 381.157 32.426C381.157 33.242 380.857 33.878 380.257 34.334C379.669 34.778 378.751 35 377.503 35H373.201ZM374.443 33.992H377.449C378.253 33.992 378.859 33.866 379.267 33.614C379.687 33.35 379.897 32.93 379.897 32.354C379.897 31.778 379.711 31.358 379.339 31.094C378.967 30.83 378.379 30.698 377.575 30.698H374.443V33.992ZM374.443 29.744H377.287C378.019 29.744 378.577 29.606 378.961 29.33C379.357 29.054 379.555 28.652 379.555 28.124C379.555 27.596 379.357 27.2 378.961 26.936C378.577 26.672 378.019 26.54 377.287 26.54H374.443V29.744ZM384.152 35V25.55H385.43V29.726H391.388V25.55H392.666V35H391.388V30.824H385.43V35H384.152ZM402.166 35V32.912L402.112 32.57V29.078C402.112 28.274 401.884 27.656 401.428 27.224C400.984 26.792 400.318 26.576 399.43 26.576C398.818 26.576 398.236 26.678 397.684 26.882C397.132 27.086 396.664 27.356 396.28 27.692L395.704 26.738C396.184 26.33 396.76 26.018 397.432 25.802C398.104 25.574 398.812 25.46 399.556 25.46C400.78 25.46 401.722 25.766 402.382 26.378C403.054 26.978 403.39 27.896 403.39 29.132V35H402.166ZM398.908 35.09C398.2 35.09 397.582 34.976 397.054 34.748C396.538 34.508 396.142 34.184 395.866 33.776C395.59 33.356 395.452 32.876 395.452 32.336C395.452 31.844 395.566 31.4 395.794 31.004C396.034 30.596 396.418 30.272 396.946 30.032C397.486 29.78 398.206 29.654 399.106 29.654H402.364V30.608H399.142C398.23 30.608 397.594 30.77 397.234 31.094C396.886 31.418 396.712 31.82 396.712 32.3C396.712 32.84 396.922 33.272 397.342 33.596C397.762 33.92 398.35 34.082 399.106 34.082C399.826 34.082 400.444 33.92 400.96 33.596C401.488 33.26 401.872 32.78 402.112 32.156L402.4 33.038C402.16 33.662 401.74 34.16 401.14 34.532C400.552 34.904 399.808 35.09 398.908 35.09ZM1.624 57V44.4H2.938V54.84L11.002 44.4H12.208V57H10.894V46.578L2.83 57H1.624ZM25.6759 44.4H26.9899V57H25.6759V44.4ZM17.7919 57H16.4599V44.4H17.7919V57ZM25.8019 51.186H17.6479V50.016H25.8019V51.186ZM40.4591 44.4H41.7731V57H40.4591V44.4ZM32.5751 57H31.2431V44.4H32.5751V57ZM40.5851 51.186H32.4311V50.016H40.5851V51.186ZM54.5713 57.108C53.5993 57.108 52.7353 56.856 51.9793 56.352C51.2233 55.836 50.6293 55.104 50.1973 54.156C49.7653 53.196 49.5493 52.044 49.5493 50.7C49.5493 49.356 49.7653 48.21 50.1973 47.262C50.6293 46.302 51.2233 45.57 51.9793 45.066C52.7353 44.55 53.5993 44.292 54.5713 44.292C55.5433 44.292 56.4073 44.55 57.1633 45.066C57.9193 45.57 58.5133 46.302 58.9453 47.262C59.3893 48.21 59.6113 49.356 59.6113 50.7C59.6113 52.044 59.3893 53.196 58.9453 54.156C58.5133 55.104 57.9193 55.836 57.1633 56.352C56.4073 56.856 55.5433 57.108 54.5713 57.108ZM54.5713 55.92C55.3153 55.92 55.9633 55.722 56.5153 55.326C57.0673 54.918 57.4993 54.33 57.8113 53.562C58.1233 52.782 58.2793 51.828 58.2793 50.7C58.2793 49.572 58.1233 48.624 57.8113 47.856C57.4993 47.076 57.0673 46.488 56.5153 46.092C55.9633 45.684 55.3153 45.48 54.5713 45.48C53.8513 45.48 53.2093 45.684 52.6453 46.092C52.0813 46.488 51.6433 47.076 51.3313 47.856C51.0193 48.624 50.8633 49.572 50.8633 50.7C50.8633 51.828 51.0193 52.782 51.3313 53.562C51.6433 54.33 52.0813 54.918 52.6453 55.326C53.2093 55.722 53.8513 55.92 54.5713 55.92ZM61.2333 57V56.082L66.4713 50.952C66.9513 50.484 67.3113 50.076 67.5513 49.728C67.7913 49.368 67.9533 49.032 68.0373 48.72C68.1213 48.408 68.1633 48.114 68.1633 47.838C68.1633 47.106 67.9113 46.53 67.4073 46.11C66.9153 45.69 66.1833 45.48 65.2113 45.48C64.4673 45.48 63.8073 45.594 63.2313 45.822C62.6673 46.05 62.1813 46.404 61.7733 46.884L60.8553 46.092C61.3473 45.516 61.9773 45.072 62.7453 44.76C63.5133 44.448 64.3713 44.292 65.3193 44.292C66.1713 44.292 66.9093 44.43 67.5333 44.706C68.1573 44.97 68.6373 45.36 68.9733 45.876C69.3213 46.392 69.4953 46.998 69.4953 47.694C69.4953 48.102 69.4353 48.504 69.3153 48.9C69.2073 49.296 69.0033 49.716 68.7033 50.16C68.4153 50.592 67.9893 51.084 67.4253 51.636L62.6193 56.352L62.2593 55.848H70.0713V57H61.2333ZM76.8286 57.108C75.7126 57.108 74.7706 56.862 74.0026 56.37C73.2346 55.866 72.6526 55.146 72.2566 54.21C71.8606 53.262 71.6626 52.128 71.6626 50.808C71.6626 49.38 71.9026 48.186 72.3826 47.226C72.8746 46.254 73.5526 45.522 74.4166 45.03C75.2806 44.538 76.2826 44.292 77.4226 44.292C77.9866 44.292 78.5266 44.346 79.0426 44.454C79.5586 44.562 80.0146 44.736 80.4106 44.976L79.8886 46.02C79.5646 45.804 79.1926 45.654 78.7726 45.57C78.3526 45.474 77.9086 45.426 77.4406 45.426C76.0846 45.426 74.9986 45.858 74.1826 46.722C73.3786 47.586 72.9766 48.876 72.9766 50.592C72.9766 50.856 72.9886 51.186 73.0126 51.582C73.0486 51.966 73.1206 52.35 73.2286 52.734L72.7786 52.392C72.9106 51.768 73.1686 51.24 73.5526 50.808C73.9366 50.364 74.4166 50.028 74.9926 49.8C75.5686 49.572 76.1986 49.458 76.8826 49.458C77.7226 49.458 78.4606 49.614 79.0966 49.926C79.7326 50.238 80.2306 50.676 80.5906 51.24C80.9506 51.804 81.1306 52.47 81.1306 53.238C81.1306 54.018 80.9446 54.702 80.5726 55.29C80.2006 55.866 79.6846 56.316 79.0246 56.64C78.3766 56.952 77.6446 57.108 76.8286 57.108ZM76.7746 56.01C77.3746 56.01 77.9026 55.902 78.3586 55.686C78.8266 55.458 79.1926 55.14 79.4566 54.732C79.7206 54.312 79.8526 53.826 79.8526 53.274C79.8526 52.446 79.5646 51.786 78.9886 51.294C78.4246 50.802 77.6566 50.556 76.6846 50.556C76.0366 50.556 75.4726 50.676 74.9926 50.916C74.5126 51.156 74.1346 51.486 73.8586 51.906C73.5826 52.314 73.4446 52.782 73.4446 53.31C73.4446 53.766 73.5706 54.204 73.8226 54.624C74.0746 55.032 74.4466 55.368 74.9386 55.632C75.4426 55.884 76.0546 56.01 76.7746 56.01ZM86.6093 57.108C85.7093 57.108 84.8513 56.964 84.0353 56.676C83.2193 56.376 82.5713 55.98 82.0913 55.488L82.7213 54.462C83.1173 54.882 83.6573 55.23 84.3413 55.506C85.0373 55.782 85.7873 55.92 86.5913 55.92C87.6593 55.92 88.4693 55.686 89.0213 55.218C89.5853 54.738 89.8673 54.114 89.8673 53.346C89.8673 52.806 89.7353 52.344 89.4713 51.96C89.2193 51.564 88.7873 51.258 88.1753 51.042C87.5633 50.826 86.7233 50.718 85.6553 50.718H82.9733L83.6213 44.4H90.5153V45.552H84.1433L84.8093 44.922L84.2513 50.214L83.5853 49.566H85.9433C87.2153 49.566 88.2353 49.722 89.0033 50.034C89.7713 50.346 90.3233 50.784 90.6593 51.348C91.0073 51.9 91.1813 52.548 91.1813 53.292C91.1813 54 91.0133 54.648 90.6773 55.236C90.3413 55.812 89.8373 56.268 89.1653 56.604C88.4933 56.94 87.6413 57.108 86.6093 57.108ZM95.0226 57V44.94L95.5986 45.552H92.0526V44.4H96.3186V57H95.0226ZM104.353 57.108C103.381 57.108 102.517 56.856 101.761 56.352C101.005 55.836 100.411 55.104 99.9785 54.156C99.5465 53.196 99.3305 52.044 99.3305 50.7C99.3305 49.356 99.5465 48.21 99.9785 47.262C100.411 46.302 101.005 45.57 101.761 45.066C102.517 44.55 103.381 44.292 104.353 44.292C105.325 44.292 106.189 44.55 106.945 45.066C107.701 45.57 108.295 46.302 108.727 47.262C109.171 48.21 109.393 49.356 109.393 50.7C109.393 52.044 109.171 53.196 108.727 54.156C108.295 55.104 107.701 55.836 106.945 56.352C106.189 56.856 105.325 57.108 104.353 57.108ZM104.353 55.92C105.097 55.92 105.745 55.722 106.297 55.326C106.849 54.918 107.281 54.33 107.593 53.562C107.905 52.782 108.061 51.828 108.061 50.7C108.061 49.572 107.905 48.624 107.593 47.856C107.281 47.076 106.849 46.488 106.297 46.092C105.745 45.684 105.097 45.48 104.353 45.48C103.633 45.48 102.991 45.684 102.427 46.092C101.863 46.488 101.425 47.076 101.113 47.856C100.801 48.624 100.645 49.572 100.645 50.7C100.645 51.828 100.801 52.782 101.113 53.562C101.425 54.33 101.863 54.918 102.427 55.326C102.991 55.722 103.633 55.92 104.353 55.92ZM113.322 57L118.758 44.976L119.154 45.552H111.36L112.026 44.922V47.91H110.748V44.4H120V45.318L114.726 57H113.322ZM124.079 57V44.94L124.655 45.552H121.109V44.4H125.375V57H124.079ZM132.149 57.108C131.237 57.108 130.373 56.964 129.557 56.676C128.753 56.376 128.105 55.98 127.613 55.488L128.243 54.462C128.651 54.882 129.197 55.23 129.881 55.506C130.577 55.782 131.333 55.92 132.149 55.92C133.193 55.92 133.991 55.692 134.543 55.236C135.107 54.78 135.389 54.168 135.389 53.4C135.389 52.632 135.113 52.02 134.561 51.564C134.021 51.108 133.163 50.88 131.987 50.88H131.087V49.926L134.975 45.048L135.155 45.552H128.135V44.4H136.235V45.318L132.347 50.196L131.717 49.782H132.203C133.715 49.782 134.843 50.118 135.587 50.79C136.343 51.462 136.721 52.326 136.721 53.382C136.721 54.09 136.553 54.726 136.217 55.29C135.881 55.854 135.371 56.298 134.687 56.622C134.015 56.946 133.169 57.108 132.149 57.108ZM142.471 44.292C143.587 44.292 144.529 44.544 145.297 45.048C146.065 45.54 146.647 46.254 147.043 47.19C147.439 48.126 147.637 49.26 147.637 50.592C147.637 52.008 147.391 53.202 146.899 54.174C146.419 55.146 145.747 55.878 144.883 56.37C144.019 56.862 143.017 57.108 141.877 57.108C141.313 57.108 140.773 57.054 140.257 56.946C139.753 56.838 139.297 56.664 138.889 56.424L139.411 55.38C139.735 55.596 140.107 55.752 140.527 55.848C140.959 55.932 141.403 55.974 141.859 55.974C143.215 55.974 144.295 55.542 145.099 54.678C145.915 53.814 146.323 52.524 146.323 50.808C146.323 50.532 146.305 50.202 146.269 49.818C146.245 49.434 146.179 49.05 146.071 48.666L146.521 49.008C146.401 49.632 146.143 50.166 145.747 50.61C145.363 51.042 144.883 51.372 144.307 51.6C143.743 51.828 143.113 51.942 142.417 51.942C141.589 51.942 140.851 51.786 140.203 51.474C139.567 51.162 139.069 50.724 138.709 50.16C138.349 49.596 138.169 48.93 138.169 48.162C138.169 47.37 138.355 46.686 138.727 46.11C139.099 45.534 139.609 45.09 140.257 44.778C140.917 44.454 141.655 44.292 142.471 44.292ZM142.525 45.39C141.925 45.39 141.391 45.504 140.923 45.732C140.467 45.948 140.107 46.26 139.843 46.668C139.579 47.076 139.447 47.562 139.447 48.126C139.447 48.954 139.729 49.614 140.293 50.106C140.869 50.598 141.643 50.844 142.615 50.844C143.263 50.844 143.827 50.724 144.307 50.484C144.799 50.244 145.177 49.914 145.441 49.494C145.717 49.074 145.855 48.606 145.855 48.09C145.855 47.622 145.729 47.184 145.477 46.776C145.225 46.368 144.853 46.038 144.361 45.786C143.869 45.522 143.257 45.39 142.525 45.39ZM151.589 57L157.025 44.976L157.421 45.552H149.627L150.293 44.922V47.91H149.015V44.4H158.267V45.318L152.993 57H151.589ZM159.741 57V56.082L164.979 50.952C165.459 50.484 165.819 50.076 166.059 49.728C166.299 49.368 166.461 49.032 166.545 48.72C166.629 48.408 166.671 48.114 166.671 47.838C166.671 47.106 166.419 46.53 165.915 46.11C165.423 45.69 164.691 45.48 163.719 45.48C162.975 45.48 162.315 45.594 161.739 45.822C161.175 46.05 160.689 46.404 160.281 46.884L159.363 46.092C159.855 45.516 160.485 45.072 161.253 44.76C162.021 44.448 162.879 44.292 163.827 44.292C164.679 44.292 165.417 44.43 166.041 44.706C166.665 44.97 167.145 45.36 167.481 45.876C167.829 46.392 168.003 46.998 168.003 47.694C168.003 48.102 167.943 48.504 167.823 48.9C167.715 49.296 167.511 49.716 167.211 50.16C166.923 50.592 166.497 51.084 165.933 51.636L161.127 56.352L160.767 55.848H168.579V57H159.741ZM7.15 79.108C6.202 79.108 5.32 78.952 4.504 78.64C3.7 78.316 2.998 77.866 2.398 77.29C1.81 76.702 1.348 76.024 1.012 75.256C0.688 74.476 0.526 73.624 0.526 72.7C0.526 71.776 0.688 70.93 1.012 70.162C1.348 69.382 1.81 68.704 2.398 68.128C2.998 67.54 3.7 67.09 4.504 66.778C5.308 66.454 6.19 66.292 7.15 66.292C8.098 66.292 8.974 66.454 9.778 66.778C10.582 67.09 11.278 67.534 11.866 68.11C12.466 68.686 12.928 69.364 13.252 70.144C13.588 70.924 13.756 71.776 13.756 72.7C13.756 73.624 13.588 74.476 13.252 75.256C12.928 76.036 12.466 76.714 11.866 77.29C11.278 77.866 10.582 78.316 9.778 78.64C8.974 78.952 8.098 79.108 7.15 79.108ZM7.15 77.92C7.906 77.92 8.602 77.794 9.238 77.542C9.886 77.278 10.444 76.912 10.912 76.444C11.392 75.964 11.764 75.412 12.028 74.788C12.292 74.152 12.424 73.456 12.424 72.7C12.424 71.944 12.292 71.254 12.028 70.63C11.764 69.994 11.392 69.442 10.912 68.974C10.444 68.494 9.886 68.128 9.238 67.876C8.602 67.612 7.906 67.48 7.15 67.48C6.394 67.48 5.692 67.612 5.044 67.876C4.396 68.128 3.832 68.494 3.352 68.974C2.884 69.442 2.512 69.994 2.236 70.63C1.972 71.254 1.84 71.944 1.84 72.7C1.84 73.444 1.972 74.134 2.236 74.77C2.512 75.406 2.884 75.964 3.352 76.444C3.832 76.912 4.396 77.278 5.044 77.542C5.692 77.794 6.394 77.92 7.15 77.92ZM16.9345 79V66.4H24.9445V67.552H17.8885L18.2305 67.21L18.2485 79H16.9345ZM27.2353 79V66.4H31.9513C33.0193 66.4 33.9373 66.574 34.7053 66.922C35.4733 67.258 36.0613 67.75 36.4693 68.398C36.8893 69.034 37.0993 69.808 37.0993 70.72C37.0993 71.608 36.8893 72.376 36.4693 73.024C36.0613 73.66 35.4733 74.152 34.7053 74.5C33.9373 74.848 33.0193 75.022 31.9513 75.022H27.9733L28.5673 74.392V79H27.2353ZM28.5673 74.5L27.9733 73.852H31.9153C33.1753 73.852 34.1293 73.582 34.7773 73.042C35.4373 72.49 35.7673 71.716 35.7673 70.72C35.7673 69.712 35.4373 68.932 34.7773 68.38C34.1293 67.828 33.1753 67.552 31.9153 67.552H27.9733L28.5673 66.922V74.5ZM49.0373 66.4H50.3513V79H49.0373V66.4ZM41.1533 79H39.8213V66.4H41.1533V79ZM49.1633 73.186H41.0093V72.016H49.1633V73.186ZM61.8894 79.108C60.9774 79.108 60.1134 78.964 59.2974 78.676C58.4934 78.376 57.8454 77.98 57.3534 77.488L57.9834 76.462C58.3914 76.882 58.9374 77.23 59.6214 77.506C60.3174 77.782 61.0734 77.92 61.8894 77.92C62.9334 77.92 63.7314 77.692 64.2834 77.236C64.8474 76.78 65.1294 76.168 65.1294 75.4C65.1294 74.632 64.8534 74.02 64.3014 73.564C63.7614 73.108 62.9034 72.88 61.7274 72.88H60.8274V71.926L64.7154 67.048L64.8954 67.552H57.8754V66.4H65.9754V67.318L62.0874 72.196L61.4574 71.782H61.9434C63.4554 71.782 64.5834 72.118 65.3274 72.79C66.0834 73.462 66.4614 74.326 66.4614 75.382C66.4614 76.09 66.2934 76.726 65.9574 77.29C65.6214 77.854 65.1114 78.298 64.4274 78.622C63.7554 78.946 62.9094 79.108 61.8894 79.108ZM67.9657 79V78.082L73.2037 72.952C73.6837 72.484 74.0437 72.076 74.2837 71.728C74.5237 71.368 74.6857 71.032 74.7697 70.72C74.8537 70.408 74.8957 70.114 74.8957 69.838C74.8957 69.106 74.6437 68.53 74.1397 68.11C73.6477 67.69 72.9157 67.48 71.9437 67.48C71.1997 67.48 70.5397 67.594 69.9637 67.822C69.3997 68.05 68.9137 68.404 68.5057 68.884L67.5877 68.092C68.0797 67.516 68.7097 67.072 69.4777 66.76C70.2457 66.448 71.1037 66.292 72.0517 66.292C72.9037 66.292 73.6417 66.43 74.2657 66.706C74.8897 66.97 75.3697 67.36 75.7057 67.876C76.0537 68.392 76.2277 68.998 76.2277 69.694C76.2277 70.102 76.1677 70.504 76.0477 70.9C75.9397 71.296 75.7357 71.716 75.4357 72.16C75.1477 72.592 74.7217 73.084 74.1577 73.636L69.3517 78.352L68.9917 77.848H76.8037V79H67.9657ZM78.1961 79V78.082L83.4341 72.952C83.9141 72.484 84.2741 72.076 84.5141 71.728C84.7541 71.368 84.9161 71.032 85.0001 70.72C85.0841 70.408 85.1261 70.114 85.1261 69.838C85.1261 69.106 84.8741 68.53 84.3701 68.11C83.8781 67.69 83.1461 67.48 82.1741 67.48C81.4301 67.48 80.7701 67.594 80.1941 67.822C79.6301 68.05 79.1441 68.404 78.7361 68.884L77.8181 68.092C78.3101 67.516 78.9401 67.072 79.7081 66.76C80.4761 66.448 81.3341 66.292 82.2821 66.292C83.1341 66.292 83.8721 66.43 84.4961 66.706C85.1201 66.97 85.6001 67.36 85.9361 67.876C86.2841 68.392 86.4581 68.998 86.4581 69.694C86.4581 70.102 86.3981 70.504 86.2781 70.9C86.1701 71.296 85.9661 71.716 85.6661 72.16C85.3781 72.592 84.9521 73.084 84.3881 73.636L79.5821 78.352L79.2221 77.848H87.0341V79H78.1961ZM90.8566 79V66.94L91.4326 67.552H87.8866V66.4H92.1526V79H90.8566ZM100.331 79.108C99.2145 79.108 98.2725 78.862 97.5045 78.37C96.7365 77.866 96.1545 77.146 95.7585 76.21C95.3625 75.262 95.1645 74.128 95.1645 72.808C95.1645 71.38 95.4045 70.186 95.8845 69.226C96.3765 68.254 97.0545 67.522 97.9185 67.03C98.7825 66.538 99.7845 66.292 100.925 66.292C101.489 66.292 102.029 66.346 102.545 66.454C103.061 66.562 103.517 66.736 103.913 66.976L103.391 68.02C103.067 67.804 102.695 67.654 102.275 67.57C101.855 67.474 101.411 67.426 100.943 67.426C99.5865 67.426 98.5005 67.858 97.6845 68.722C96.8805 69.586 96.4785 70.876 96.4785 72.592C96.4785 72.856 96.4905 73.186 96.5145 73.582C96.5505 73.966 96.6225 74.35 96.7305 74.734L96.2805 74.392C96.4125 73.768 96.6705 73.24 97.0545 72.808C97.4385 72.364 97.9185 72.028 98.4945 71.8C99.0705 71.572 99.7005 71.458 100.385 71.458C101.225 71.458 101.963 71.614 102.599 71.926C103.235 72.238 103.733 72.676 104.093 73.24C104.453 73.804 104.633 74.47 104.633 75.238C104.633 76.018 104.447 76.702 104.075 77.29C103.703 77.866 103.187 78.316 102.527 78.64C101.879 78.952 101.147 79.108 100.331 79.108ZM100.277 78.01C100.877 78.01 101.405 77.902 101.861 77.686C102.329 77.458 102.695 77.14 102.959 76.732C103.223 76.312 103.355 75.826 103.355 75.274C103.355 74.446 103.067 73.786 102.491 73.294C101.927 72.802 101.159 72.556 100.187 72.556C99.5385 72.556 98.9745 72.676 98.4945 72.916C98.0145 73.156 97.6365 73.486 97.3605 73.906C97.0845 74.314 96.9465 74.782 96.9465 75.31C96.9465 75.766 97.0725 76.204 97.3245 76.624C97.5765 77.032 97.9485 77.368 98.4405 77.632C98.9445 77.884 99.5565 78.01 100.277 78.01ZM110.057 66.292C111.173 66.292 112.115 66.544 112.883 67.048C113.651 67.54 114.233 68.254 114.629 69.19C115.025 70.126 115.223 71.26 115.223 72.592C115.223 74.008 114.977 75.202 114.485 76.174C114.005 77.146 113.333 77.878 112.469 78.37C111.605 78.862 110.603 79.108 109.463 79.108C108.899 79.108 108.359 79.054 107.843 78.946C107.339 78.838 106.883 78.664 106.475 78.424L106.997 77.38C107.321 77.596 107.693 77.752 108.113 77.848C108.545 77.932 108.989 77.974 109.445 77.974C110.801 77.974 111.881 77.542 112.685 76.678C113.501 75.814 113.909 74.524 113.909 72.808C113.909 72.532 113.891 72.202 113.855 71.818C113.831 71.434 113.765 71.05 113.657 70.666L114.107 71.008C113.987 71.632 113.729 72.166 113.333 72.61C112.949 73.042 112.469 73.372 111.893 73.6C111.329 73.828 110.699 73.942 110.003 73.942C109.175 73.942 108.437 73.786 107.789 73.474C107.153 73.162 106.655 72.724 106.295 72.16C105.935 71.596 105.755 70.93 105.755 70.162C105.755 69.37 105.941 68.686 106.313 68.11C106.685 67.534 107.195 67.09 107.843 66.778C108.503 66.454 109.241 66.292 110.057 66.292ZM110.111 67.39C109.511 67.39 108.977 67.504 108.509 67.732C108.053 67.948 107.693 68.26 107.429 68.668C107.165 69.076 107.033 69.562 107.033 70.126C107.033 70.954 107.315 71.614 107.879 72.106C108.455 72.598 109.229 72.844 110.201 72.844C110.849 72.844 111.413 72.724 111.893 72.484C112.385 72.244 112.763 71.914 113.027 71.494C113.303 71.074 113.441 70.606 113.441 70.09C113.441 69.622 113.315 69.184 113.063 68.776C112.811 68.368 112.439 68.038 111.947 67.786C111.455 67.522 110.843 67.39 110.111 67.39ZM122.124 79.108C121.152 79.108 120.288 78.856 119.532 78.352C118.776 77.836 118.182 77.104 117.75 76.156C117.318 75.196 117.102 74.044 117.102 72.7C117.102 71.356 117.318 70.21 117.75 69.262C118.182 68.302 118.776 67.57 119.532 67.066C120.288 66.55 121.152 66.292 122.124 66.292C123.096 66.292 123.96 66.55 124.716 67.066C125.472 67.57 126.066 68.302 126.498 69.262C126.942 70.21 127.164 71.356 127.164 72.7C127.164 74.044 126.942 75.196 126.498 76.156C126.066 77.104 125.472 77.836 124.716 78.352C123.96 78.856 123.096 79.108 122.124 79.108ZM122.124 77.92C122.868 77.92 123.516 77.722 124.068 77.326C124.62 76.918 125.052 76.33 125.364 75.562C125.676 74.782 125.832 73.828 125.832 72.7C125.832 71.572 125.676 70.624 125.364 69.856C125.052 69.076 124.62 68.488 124.068 68.092C123.516 67.684 122.868 67.48 122.124 67.48C121.404 67.48 120.762 67.684 120.198 68.092C119.634 68.488 119.196 69.076 118.884 69.856C118.572 70.624 118.416 71.572 118.416 72.7C118.416 73.828 118.572 74.782 118.884 75.562C119.196 76.33 119.634 76.918 120.198 77.326C120.762 77.722 121.404 77.92 122.124 77.92ZM134.042 79.108C133.07 79.108 132.206 78.856 131.45 78.352C130.694 77.836 130.1 77.104 129.668 76.156C129.236 75.196 129.02 74.044 129.02 72.7C129.02 71.356 129.236 70.21 129.668 69.262C130.1 68.302 130.694 67.57 131.45 67.066C132.206 66.55 133.07 66.292 134.042 66.292C135.014 66.292 135.878 66.55 136.634 67.066C137.39 67.57 137.984 68.302 138.416 69.262C138.86 70.21 139.082 71.356 139.082 72.7C139.082 74.044 138.86 75.196 138.416 76.156C137.984 77.104 137.39 77.836 136.634 78.352C135.878 78.856 135.014 79.108 134.042 79.108ZM134.042 77.92C134.786 77.92 135.434 77.722 135.986 77.326C136.538 76.918 136.97 76.33 137.282 75.562C137.594 74.782 137.75 73.828 137.75 72.7C137.75 71.572 137.594 70.624 137.282 69.856C136.97 69.076 136.538 68.488 135.986 68.092C135.434 67.684 134.786 67.48 134.042 67.48C133.322 67.48 132.68 67.684 132.116 68.092C131.552 68.488 131.114 69.076 130.802 69.856C130.49 70.624 130.334 71.572 130.334 72.7C130.334 73.828 130.49 74.782 130.802 75.562C131.114 76.33 131.552 76.918 132.116 77.326C132.68 77.722 133.322 77.92 134.042 77.92ZM145.96 79.108C144.988 79.108 144.124 78.856 143.368 78.352C142.612 77.836 142.018 77.104 141.586 76.156C141.154 75.196 140.938 74.044 140.938 72.7C140.938 71.356 141.154 70.21 141.586 69.262C142.018 68.302 142.612 67.57 143.368 67.066C144.124 66.55 144.988 66.292 145.96 66.292C146.932 66.292 147.796 66.55 148.552 67.066C149.308 67.57 149.902 68.302 150.334 69.262C150.778 70.21 151 71.356 151 72.7C151 74.044 150.778 75.196 150.334 76.156C149.902 77.104 149.308 77.836 148.552 78.352C147.796 78.856 146.932 79.108 145.96 79.108ZM145.96 77.92C146.704 77.92 147.352 77.722 147.904 77.326C148.456 76.918 148.888 76.33 149.2 75.562C149.512 74.782 149.668 73.828 149.668 72.7C149.668 71.572 149.512 70.624 149.2 69.856C148.888 69.076 148.456 68.488 147.904 68.092C147.352 67.684 146.704 67.48 145.96 67.48C145.24 67.48 144.598 67.684 144.034 68.092C143.47 68.488 143.032 69.076 142.72 69.856C142.408 70.624 142.252 71.572 142.252 72.7C142.252 73.828 142.408 74.782 142.72 75.562C143.032 76.33 143.47 76.918 144.034 77.326C144.598 77.722 145.24 77.92 145.96 77.92ZM157.878 79.108C156.906 79.108 156.042 78.856 155.286 78.352C154.53 77.836 153.936 77.104 153.504 76.156C153.072 75.196 152.856 74.044 152.856 72.7C152.856 71.356 153.072 70.21 153.504 69.262C153.936 68.302 154.53 67.57 155.286 67.066C156.042 66.55 156.906 66.292 157.878 66.292C158.85 66.292 159.714 66.55 160.47 67.066C161.226 67.57 161.82 68.302 162.252 69.262C162.696 70.21 162.918 71.356 162.918 72.7C162.918 74.044 162.696 75.196 162.252 76.156C161.82 77.104 161.226 77.836 160.47 78.352C159.714 78.856 158.85 79.108 157.878 79.108ZM157.878 77.92C158.622 77.92 159.27 77.722 159.822 77.326C160.374 76.918 160.806 76.33 161.118 75.562C161.43 74.782 161.586 73.828 161.586 72.7C161.586 71.572 161.43 70.624 161.118 69.856C160.806 69.076 160.374 68.488 159.822 68.092C159.27 67.684 158.622 67.48 157.878 67.48C157.158 67.48 156.516 67.684 155.952 68.092C155.388 68.488 154.95 69.076 154.638 69.856C154.326 70.624 154.17 71.572 154.17 72.7C154.17 73.828 154.326 74.782 154.638 75.562C154.95 76.33 155.388 76.918 155.952 77.326C156.516 77.722 157.158 77.92 157.878 77.92ZM168.752 79.108C167.852 79.108 166.994 78.964 166.178 78.676C165.362 78.376 164.714 77.98 164.234 77.488L164.864 76.462C165.26 76.882 165.8 77.23 166.484 77.506C167.18 77.782 167.93 77.92 168.734 77.92C169.802 77.92 170.612 77.686 171.164 77.218C171.728 76.738 172.01 76.114 172.01 75.346C172.01 74.806 171.878 74.344 171.614 73.96C171.362 73.564 170.93 73.258 170.318 73.042C169.706 72.826 168.866 72.718 167.798 72.718H165.116L165.764 66.4H172.658V67.552H166.286L166.952 66.922L166.394 72.214L165.728 71.566H168.086C169.358 71.566 170.378 71.722 171.146 72.034C171.914 72.346 172.466 72.784 172.802 73.348C173.15 73.9 173.324 74.548 173.324 75.292C173.324 76 173.156 76.648 172.82 77.236C172.484 77.812 171.98 78.268 171.308 78.604C170.636 78.94 169.784 79.108 168.752 79.108ZM178.643 79.108C177.731 79.108 176.867 78.964 176.051 78.676C175.247 78.376 174.599 77.98 174.107 77.488L174.737 76.462C175.145 76.882 175.691 77.23 176.375 77.506C177.071 77.782 177.827 77.92 178.643 77.92C179.687 77.92 180.485 77.692 181.037 77.236C181.601 76.78 181.883 76.168 181.883 75.4C181.883 74.632 181.607 74.02 181.055 73.564C180.515 73.108 179.657 72.88 178.481 72.88H177.581V71.926L181.469 67.048L181.649 67.552H174.629V66.4H182.729V67.318L178.841 72.196L178.211 71.782H178.697C180.209 71.782 181.337 72.118 182.081 72.79C182.837 73.462 183.215 74.326 183.215 75.382C183.215 76.09 183.047 76.726 182.711 77.29C182.375 77.854 181.865 78.298 181.181 78.622C180.509 78.946 179.663 79.108 178.643 79.108ZM184.72 79V78.082L189.958 72.952C190.438 72.484 190.798 72.076 191.038 71.728C191.278 71.368 191.44 71.032 191.524 70.72C191.608 70.408 191.65 70.114 191.65 69.838C191.65 69.106 191.398 68.53 190.894 68.11C190.402 67.69 189.67 67.48 188.698 67.48C187.954 67.48 187.294 67.594 186.718 67.822C186.154 68.05 185.668 68.404 185.26 68.884L184.342 68.092C184.834 67.516 185.464 67.072 186.232 66.76C187 66.448 187.858 66.292 188.806 66.292C189.658 66.292 190.396 66.43 191.02 66.706C191.644 66.97 192.124 67.36 192.46 67.876C192.808 68.392 192.982 68.998 192.982 69.694C192.982 70.102 192.922 70.504 192.802 70.9C192.694 71.296 192.49 71.716 192.19 72.16C191.902 72.592 191.476 73.084 190.912 73.636L186.106 78.352L185.746 77.848H193.558V79H184.72ZM197.363 79L202.799 66.976L203.195 67.552H195.401L196.067 66.922V69.91H194.789V66.4H204.041V67.318L198.767 79H197.363ZM208.12 79V66.94L208.696 67.552H205.15V66.4H209.416V79H208.12ZM1.624 101V88.4H2.938V93.998H6.196V95.204H2.938V101H1.624ZM11.794 101.108C10.894 101.108 10.06 100.952 9.292 100.64C8.536 100.316 7.87 99.866 7.294 99.29C6.73 98.714 6.292 98.036 5.98 97.256C5.668 96.476 5.512 95.624 5.512 94.7C5.512 93.776 5.668 92.924 5.98 92.144C6.292 91.364 6.73 90.686 7.294 90.11C7.87 89.534 8.536 89.09 9.292 88.778C10.06 88.454 10.894 88.292 11.794 88.292C12.694 88.292 13.528 88.454 14.296 88.778C15.064 89.09 15.73 89.534 16.294 90.11C16.858 90.686 17.296 91.364 17.608 92.144C17.932 92.924 18.094 93.776 18.094 94.7C18.094 95.624 17.932 96.476 17.608 97.256C17.296 98.036 16.858 98.714 16.294 99.29C15.73 99.866 15.064 100.316 14.296 100.64C13.528 100.952 12.694 101.108 11.794 101.108ZM11.794 99.92C12.502 99.92 13.156 99.794 13.756 99.542C14.368 99.278 14.896 98.912 15.34 98.444C15.784 97.976 16.132 97.43 16.384 96.806C16.636 96.17 16.762 95.468 16.762 94.7C16.762 93.932 16.636 93.236 16.384 92.612C16.132 91.976 15.784 91.424 15.34 90.956C14.896 90.488 14.368 90.128 13.756 89.876C13.156 89.612 12.502 89.48 11.794 89.48C11.098 89.48 10.444 89.612 9.832 89.876C9.232 90.128 8.71 90.488 8.266 90.956C7.822 91.424 7.474 91.976 7.222 92.612C6.97 93.236 6.844 93.932 6.844 94.7C6.844 95.468 6.97 96.17 7.222 96.806C7.474 97.43 7.822 97.976 8.266 98.444C8.71 98.912 9.232 99.278 9.832 99.542C10.444 99.794 11.098 99.92 11.794 99.92ZM25.8483 101.09C25.0323 101.09 24.2943 100.904 23.6343 100.532C22.9743 100.148 22.4463 99.602 22.0503 98.894C21.6663 98.174 21.4743 97.298 21.4743 96.266C21.4743 95.234 21.6663 94.364 22.0503 93.656C22.4343 92.936 22.9563 92.39 23.6163 92.018C24.2763 91.646 25.0203 91.46 25.8483 91.46C26.7483 91.46 27.5523 91.664 28.2603 92.072C28.9803 92.468 29.5443 93.032 29.9523 93.764C30.3603 94.484 30.5643 95.318 30.5643 96.266C30.5643 97.226 30.3603 98.066 29.9523 98.786C29.5443 99.506 28.9803 100.07 28.2603 100.478C27.5523 100.886 26.7483 101.09 25.8483 101.09ZM20.9703 104.492V91.55H22.1943V94.394L22.0683 96.284L22.2483 98.192V104.492H20.9703ZM25.7583 99.956C26.4303 99.956 27.0303 99.806 27.5583 99.506C28.0863 99.194 28.5063 98.762 28.8183 98.21C29.1303 97.646 29.2863 96.998 29.2863 96.266C29.2863 95.534 29.1303 94.892 28.8183 94.34C28.5063 93.788 28.0863 93.356 27.5583 93.044C27.0303 92.732 26.4303 92.576 25.7583 92.576C25.0863 92.576 24.4803 92.732 23.9403 93.044C23.4123 93.356 22.9923 93.788 22.6803 94.34C22.3803 94.892 22.2303 95.534 22.2303 96.266C22.2303 96.998 22.3803 97.646 22.6803 98.21C22.9923 98.762 23.4123 99.194 23.9403 99.506C24.4803 99.806 25.0863 99.956 25.7583 99.956ZM33.3102 101V91.55H34.5882V99.056L40.9062 91.55H42.0402V101H40.7622V93.476L34.4622 101H33.3102ZM52.1828 100.388V92.666H47.6288L47.5208 94.772C47.4968 95.408 47.4548 96.032 47.3948 96.644C47.3468 97.256 47.2568 97.82 47.1248 98.336C47.0048 98.84 46.8308 99.254 46.6028 99.578C46.3748 99.89 46.0808 100.07 45.7208 100.118L44.4428 99.884C44.8148 99.896 45.1208 99.764 45.3608 99.488C45.6008 99.2 45.7868 98.81 45.9188 98.318C46.0508 97.826 46.1468 97.268 46.2068 96.644C46.2668 96.008 46.3148 95.36 46.3508 94.7L46.4768 91.55H53.4608V100.388H52.1828ZM44.0468 103.286V99.884H54.9368V103.286H53.7308V101H45.2528V103.286H44.0468ZM57.4274 101V91.55H58.7054V99.056L65.0234 91.55H66.1574V101H64.8794V93.476L58.5794 101H57.4274ZM75.796 97.004C75.244 97.244 74.686 97.436 74.122 97.58C73.57 97.712 73.018 97.778 72.466 97.778C71.35 97.778 70.468 97.526 69.82 97.022C69.172 96.506 68.848 95.714 68.848 94.646V91.55H70.108V94.574C70.108 95.294 70.342 95.834 70.81 96.194C71.278 96.554 71.908 96.734 72.7 96.734C73.18 96.734 73.684 96.674 74.212 96.554C74.74 96.422 75.274 96.236 75.814 95.996L75.796 97.004ZM75.688 101V91.55H76.966V101H75.688ZM84.6453 101.09C83.6613 101.09 82.7973 100.886 82.0533 100.478C81.3093 100.058 80.7273 99.488 80.3073 98.768C79.8873 98.036 79.6773 97.202 79.6773 96.266C79.6773 95.33 79.8753 94.502 80.2713 93.782C80.6793 93.062 81.2313 92.498 81.9273 92.09C82.6353 91.67 83.4273 91.46 84.3033 91.46C85.1913 91.46 85.9773 91.664 86.6613 92.072C87.3573 92.468 87.9033 93.032 88.2993 93.764C88.6953 94.484 88.8933 95.318 88.8933 96.266C88.8933 96.326 88.8873 96.392 88.8753 96.464C88.8753 96.524 88.8753 96.59 88.8753 96.662H80.6493V95.708H88.1913L87.6873 96.086C87.6873 95.402 87.5373 94.796 87.2373 94.268C86.9493 93.728 86.5533 93.308 86.0493 93.008C85.5453 92.708 84.9633 92.558 84.3033 92.558C83.6553 92.558 83.0733 92.708 82.5573 93.008C82.0413 93.308 81.6393 93.728 81.3513 94.268C81.0633 94.808 80.9193 95.426 80.9193 96.122V96.32C80.9193 97.04 81.0753 97.676 81.3873 98.228C81.7113 98.768 82.1553 99.194 82.7193 99.506C83.2953 99.806 83.9493 99.956 84.6813 99.956C85.2573 99.956 85.7913 99.854 86.2833 99.65C86.7873 99.446 87.2193 99.134 87.5793 98.714L88.2993 99.542C87.8793 100.046 87.3513 100.43 86.7153 100.694C86.0913 100.958 85.4013 101.09 84.6453 101.09ZM95.6823 101.09C94.7463 101.09 93.9063 100.886 93.1623 100.478C92.4303 100.058 91.8543 99.488 91.4343 98.768C91.0143 98.036 90.8043 97.202 90.8043 96.266C90.8043 95.318 91.0143 94.484 91.4343 93.764C91.8543 93.044 92.4303 92.48 93.1623 92.072C93.9063 91.664 94.7463 91.46 95.6823 91.46C96.4863 91.46 97.2123 91.616 97.8603 91.928C98.5083 92.24 99.0183 92.708 99.3903 93.332L98.4363 93.98C98.1123 93.5 97.7103 93.146 97.2303 92.918C96.7503 92.69 96.2283 92.576 95.6643 92.576C94.9923 92.576 94.3863 92.732 93.8463 93.044C93.3063 93.344 92.8803 93.77 92.5683 94.322C92.2563 94.874 92.1003 95.522 92.1003 96.266C92.1003 97.01 92.2563 97.658 92.5683 98.21C92.8803 98.762 93.3063 99.194 93.8463 99.506C94.3863 99.806 94.9923 99.956 95.6643 99.956C96.2283 99.956 96.7503 99.842 97.2303 99.614C97.7103 99.386 98.1123 99.038 98.4363 98.57L99.3903 99.218C99.0183 99.83 98.5083 100.298 97.8603 100.622C97.2123 100.934 96.4863 101.09 95.6823 101.09ZM108.795 101L104.907 96.32L105.969 95.69L110.307 101H108.795ZM101.865 101V91.55H103.143V101H101.865ZM102.747 96.788V95.69H105.789V96.788H102.747ZM106.077 96.41L104.889 96.23L108.651 91.55H110.037L106.077 96.41ZM112.324 101V91.55H113.602V99.056L119.92 91.55H121.054V101H119.776V93.476L113.476 101H112.324ZM124.716 101V91.55H125.994V99.056L132.312 91.55H133.446V101H132.168V93.476L125.868 101H124.716ZM129 90.182C128.208 90.182 127.566 89.984 127.074 89.588C126.594 89.18 126.342 88.598 126.318 87.842H127.236C127.248 88.322 127.416 88.7 127.74 88.976C128.064 89.252 128.484 89.39 129 89.39C129.516 89.39 129.936 89.252 130.26 88.976C130.596 88.7 130.77 88.322 130.782 87.842H131.7C131.688 88.598 131.436 89.18 130.944 89.588C130.452 89.984 129.804 90.182 129 90.182ZM147.688 101V98.912L147.634 98.57V95.078C147.634 94.274 147.406 93.656 146.95 93.224C146.506 92.792 145.84 92.576 144.952 92.576C144.34 92.576 143.758 92.678 143.206 92.882C142.654 93.086 142.186 93.356 141.802 93.692L141.226 92.738C141.706 92.33 142.282 92.018 142.954 91.802C143.626 91.574 144.334 91.46 145.078 91.46C146.302 91.46 147.244 91.766 147.904 92.378C148.576 92.978 148.912 93.896 148.912 95.132V101H147.688ZM144.43 101.09C143.722 101.09 143.104 100.976 142.576 100.748C142.06 100.508 141.664 100.184 141.388 99.776C141.112 99.356 140.974 98.876 140.974 98.336C140.974 97.844 141.088 97.4 141.316 97.004C141.556 96.596 141.94 96.272 142.468 96.032C143.008 95.78 143.728 95.654 144.628 95.654H147.886V96.608H144.664C143.752 96.608 143.116 96.77 142.756 97.094C142.408 97.418 142.234 97.82 142.234 98.3C142.234 98.84 142.444 99.272 142.864 99.596C143.284 99.92 143.872 100.082 144.628 100.082C145.348 100.082 145.966 99.92 146.482 99.596C147.01 99.26 147.394 98.78 147.634 98.156L147.922 99.038C147.682 99.662 147.262 100.16 146.662 100.532C146.074 100.904 145.33 101.09 144.43 101.09ZM158.794 100.388V92.666H154.24L154.132 94.772C154.108 95.408 154.066 96.032 154.006 96.644C153.958 97.256 153.868 97.82 153.736 98.336C153.616 98.84 153.442 99.254 153.214 99.578C152.986 99.89 152.692 100.07 152.332 100.118L151.054 99.884C151.426 99.896 151.732 99.764 151.972 99.488C152.212 99.2 152.398 98.81 152.53 98.318C152.662 97.826 152.758 97.268 152.818 96.644C152.878 96.008 152.926 95.36 152.962 94.7L153.088 91.55H160.072V100.388H158.794ZM150.658 103.286V99.884H161.548V103.286H160.342V101H151.864V103.286H150.658ZM168.917 101.09C168.101 101.09 167.363 100.904 166.703 100.532C166.043 100.148 165.515 99.602 165.119 98.894C164.735 98.174 164.543 97.298 164.543 96.266C164.543 95.234 164.735 94.364 165.119 93.656C165.503 92.936 166.025 92.39 166.685 92.018C167.345 91.646 168.089 91.46 168.917 91.46C169.817 91.46 170.621 91.664 171.329 92.072C172.049 92.468 172.613 93.032 173.021 93.764C173.429 94.484 173.633 95.318 173.633 96.266C173.633 97.226 173.429 98.066 173.021 98.786C172.613 99.506 172.049 100.07 171.329 100.478C170.621 100.886 169.817 101.09 168.917 101.09ZM164.039 104.492V91.55H165.263V94.394L165.137 96.284L165.317 98.192V104.492H164.039ZM168.827 99.956C169.499 99.956 170.099 99.806 170.627 99.506C171.155 99.194 171.575 98.762 171.887 98.21C172.199 97.646 172.355 96.998 172.355 96.266C172.355 95.534 172.199 94.892 171.887 94.34C171.575 93.788 171.155 93.356 170.627 93.044C170.099 92.732 169.499 92.576 168.827 92.576C168.155 92.576 167.549 92.732 167.009 93.044C166.481 93.356 166.061 93.788 165.749 94.34C165.449 94.892 165.299 95.534 165.299 96.266C165.299 96.998 165.449 97.646 165.749 98.21C166.061 98.762 166.481 99.194 167.009 99.506C167.549 99.806 168.155 99.956 168.827 99.956ZM180.429 101.09C179.445 101.09 178.581 100.886 177.837 100.478C177.093 100.058 176.511 99.488 176.091 98.768C175.671 98.036 175.461 97.202 175.461 96.266C175.461 95.33 175.659 94.502 176.055 93.782C176.463 93.062 177.015 92.498 177.711 92.09C178.419 91.67 179.211 91.46 180.087 91.46C180.975 91.46 181.761 91.664 182.445 92.072C183.141 92.468 183.687 93.032 184.083 93.764C184.479 94.484 184.677 95.318 184.677 96.266C184.677 96.326 184.671 96.392 184.659 96.464C184.659 96.524 184.659 96.59 184.659 96.662H176.433V95.708H183.975L183.471 96.086C183.471 95.402 183.321 94.796 183.021 94.268C182.733 93.728 182.337 93.308 181.833 93.008C181.329 92.708 180.747 92.558 180.087 92.558C179.439 92.558 178.857 92.708 178.341 93.008C177.825 93.308 177.423 93.728 177.135 94.268C176.847 94.808 176.703 95.426 176.703 96.122V96.32C176.703 97.04 176.859 97.676 177.171 98.228C177.495 98.768 177.939 99.194 178.503 99.506C179.079 99.806 179.733 99.956 180.465 99.956C181.041 99.956 181.575 99.854 182.067 99.65C182.571 99.446 183.003 99.134 183.363 98.714L184.083 99.542C183.663 100.046 183.135 100.43 182.499 100.694C181.875 100.958 181.185 101.09 180.429 101.09ZM191.466 101.09C190.53 101.09 189.69 100.886 188.946 100.478C188.214 100.058 187.638 99.488 187.218 98.768C186.798 98.036 186.588 97.202 186.588 96.266C186.588 95.318 186.798 94.484 187.218 93.764C187.638 93.044 188.214 92.48 188.946 92.072C189.69 91.664 190.53 91.46 191.466 91.46C192.27 91.46 192.996 91.616 193.644 91.928C194.292 92.24 194.802 92.708 195.174 93.332L194.22 93.98C193.896 93.5 193.494 93.146 193.014 92.918C192.534 92.69 192.012 92.576 191.448 92.576C190.776 92.576 190.17 92.732 189.63 93.044C189.09 93.344 188.664 93.77 188.352 94.322C188.04 94.874 187.884 95.522 187.884 96.266C187.884 97.01 188.04 97.658 188.352 98.21C188.664 98.762 189.09 99.194 189.63 99.506C190.17 99.806 190.776 99.956 191.448 99.956C192.012 99.956 192.534 99.842 193.014 99.614C193.494 99.386 193.896 99.038 194.22 98.57L195.174 99.218C194.802 99.83 194.292 100.298 193.644 100.622C192.996 100.934 192.27 101.09 191.466 101.09ZM197.844 93.422C197.58 93.422 197.352 93.326 197.16 93.134C196.98 92.942 196.89 92.708 196.89 92.432C196.89 92.144 196.98 91.91 197.16 91.73C197.352 91.55 197.58 91.46 197.844 91.46C198.108 91.46 198.33 91.55 198.51 91.73C198.702 91.91 198.798 92.144 198.798 92.432C198.798 92.708 198.702 92.942 198.51 93.134C198.33 93.326 198.108 93.422 197.844 93.422ZM197.844 101.09C197.58 101.09 197.352 100.994 197.16 100.802C196.98 100.61 196.89 100.376 196.89 100.1C196.89 99.812 196.98 99.578 197.16 99.398C197.352 99.218 197.58 99.128 197.844 99.128C198.108 99.128 198.33 99.218 198.51 99.398C198.702 99.578 198.798 99.812 198.798 100.1C198.798 100.376 198.702 100.61 198.51 100.802C198.33 100.994 198.108 101.09 197.844 101.09ZM206.279 101V91.55H212.975V92.666H207.233L207.557 92.342V101H206.279ZM214.103 101.09C213.839 101.09 213.611 100.994 213.419 100.802C213.239 100.61 213.149 100.376 213.149 100.1C213.149 99.812 213.239 99.578 213.419 99.398C213.611 99.218 213.839 99.128 214.103 99.128C214.367 99.128 214.589 99.218 214.769 99.398C214.961 99.578 215.057 99.812 215.057 100.1C215.057 100.376 214.961 100.61 214.769 100.802C214.589 100.994 214.367 101.09 214.103 101.09ZM222.845 101V88.4H232.061V89.534H224.159V93.656H228.281C229.769 93.656 230.897 93.962 231.665 94.574C232.445 95.174 232.835 96.062 232.835 97.238C232.835 98.45 232.415 99.38 231.575 100.028C230.747 100.676 229.553 101 227.993 101H222.845ZM224.159 99.938H227.975C229.139 99.938 230.015 99.716 230.603 99.272C231.203 98.816 231.503 98.156 231.503 97.292C231.503 95.576 230.327 94.718 227.975 94.718H224.159V99.938ZM241.467 101V98.912L241.413 98.57V95.078C241.413 94.274 241.185 93.656 240.729 93.224C240.285 92.792 239.619 92.576 238.731 92.576C238.119 92.576 237.537 92.678 236.985 92.882C236.433 93.086 235.965 93.356 235.581 93.692L235.005 92.738C235.485 92.33 236.061 92.018 236.733 91.802C237.405 91.574 238.113 91.46 238.857 91.46C240.081 91.46 241.023 91.766 241.683 92.378C242.355 92.978 242.691 93.896 242.691 95.132V101H241.467ZM238.209 101.09C237.501 101.09 236.883 100.976 236.355 100.748C235.839 100.508 235.443 100.184 235.167 99.776C234.891 99.356 234.753 98.876 234.753 98.336C234.753 97.844 234.867 97.4 235.095 97.004C235.335 96.596 235.719 96.272 236.247 96.032C236.787 95.78 237.507 95.654 238.407 95.654H241.665V96.608H238.443C237.531 96.608 236.895 96.77 236.535 97.094C236.187 97.418 236.013 97.82 236.013 98.3C236.013 98.84 236.223 99.272 236.643 99.596C237.063 99.92 237.651 100.082 238.407 100.082C239.127 100.082 239.745 99.92 240.261 99.596C240.789 99.26 241.173 98.78 241.413 98.156L241.701 99.038C241.461 99.662 241.041 100.16 240.441 100.532C239.853 100.904 239.109 101.09 238.209 101.09ZM246.093 101V91.55H250.269C251.337 91.55 252.177 91.754 252.789 92.162C253.413 92.57 253.725 93.17 253.725 93.962C253.725 94.73 253.431 95.324 252.843 95.744C252.255 96.152 251.481 96.356 250.521 96.356L250.773 95.978C251.901 95.978 252.729 96.188 253.257 96.608C253.785 97.028 254.049 97.634 254.049 98.426C254.049 99.242 253.749 99.878 253.149 100.334C252.561 100.778 251.643 101 250.395 101H246.093ZM247.335 99.992H250.341C251.145 99.992 251.751 99.866 252.159 99.614C252.579 99.35 252.789 98.93 252.789 98.354C252.789 97.778 252.603 97.358 252.231 97.094C251.859 96.83 251.271 96.698 250.467 96.698H247.335V99.992ZM247.335 95.744H250.179C250.911 95.744 251.469 95.606 251.853 95.33C252.249 95.054 252.447 94.652 252.447 94.124C252.447 93.596 252.249 93.2 251.853 92.936C251.469 92.672 250.911 92.54 250.179 92.54H247.335V95.744ZM255.317 100.982L255.407 99.884C255.491 99.896 255.569 99.914 255.641 99.938C255.725 99.95 255.797 99.956 255.857 99.956C256.241 99.956 256.547 99.812 256.775 99.524C257.015 99.236 257.195 98.852 257.315 98.372C257.435 97.892 257.519 97.352 257.567 96.752C257.615 96.14 257.657 95.528 257.693 94.916L257.855 91.55H264.785V101H263.507V92.288L263.831 92.666H258.683L258.989 92.27L258.845 95.006C258.809 95.822 258.743 96.602 258.647 97.346C258.563 98.09 258.425 98.744 258.233 99.308C258.053 99.872 257.801 100.316 257.477 100.64C257.153 100.952 256.739 101.108 256.235 101.108C256.091 101.108 255.941 101.096 255.785 101.072C255.641 101.048 255.485 101.018 255.317 100.982ZM277.634 101V91.55H278.912V101H277.634ZM272.396 94.88C273.584 94.892 274.49 95.156 275.114 95.672C275.738 96.188 276.05 96.932 276.05 97.904C276.05 98.912 275.714 99.686 275.042 100.226C274.37 100.766 273.41 101.03 272.162 101.018L268.418 101V91.55H269.696V94.844L272.396 94.88ZM272.072 100.046C272.96 100.058 273.626 99.884 274.07 99.524C274.526 99.152 274.754 98.612 274.754 97.904C274.754 97.196 274.532 96.68 274.088 96.356C273.644 96.02 272.972 95.846 272.072 95.834L269.696 95.798V100.01L272.072 100.046ZM281.74 103.628L282.532 100.298L282.676 101.072C282.4 101.072 282.166 100.982 281.974 100.802C281.794 100.622 281.704 100.388 281.704 100.1C281.704 99.812 281.794 99.578 281.974 99.398C282.166 99.218 282.394 99.128 282.658 99.128C282.934 99.128 283.156 99.224 283.324 99.416C283.504 99.608 283.594 99.836 283.594 100.1C283.594 100.196 283.588 100.292 283.576 100.388C283.564 100.484 283.54 100.592 283.504 100.712C283.468 100.832 283.42 100.976 283.36 101.144L282.604 103.628H281.74ZM291.238 104.582C290.794 104.582 290.368 104.51 289.96 104.366C289.564 104.222 289.222 104.006 288.934 103.718L289.528 102.764C289.768 102.992 290.026 103.166 290.302 103.286C290.59 103.418 290.908 103.484 291.256 103.484C291.676 103.484 292.036 103.364 292.336 103.124C292.648 102.896 292.942 102.488 293.218 101.9L293.83 100.514L293.974 100.316L297.862 91.55H299.122L294.388 102.134C294.124 102.746 293.83 103.232 293.506 103.592C293.194 103.952 292.852 104.204 292.48 104.348C292.108 104.504 291.694 104.582 291.238 104.582ZM293.758 101.27L289.402 91.55H290.734L294.586 100.226L293.758 101.27ZM298.981 100.982L299.071 99.884C299.155 99.896 299.233 99.914 299.305 99.938C299.389 99.95 299.461 99.956 299.521 99.956C299.905 99.956 300.211 99.812 300.439 99.524C300.679 99.236 300.859 98.852 300.979 98.372C301.099 97.892 301.183 97.352 301.231 96.752C301.279 96.14 301.321 95.528 301.357 94.916L301.519 91.55H308.449V101H307.171V92.288L307.495 92.666H302.347L302.653 92.27L302.509 95.006C302.473 95.822 302.407 96.602 302.311 97.346C302.227 98.09 302.089 98.744 301.897 99.308C301.717 99.872 301.465 100.316 301.141 100.64C300.817 100.952 300.403 101.108 299.899 101.108C299.755 101.108 299.605 101.096 299.449 101.072C299.305 101.048 299.149 101.018 298.981 100.982ZM312.172 101.09C311.908 101.09 311.68 100.994 311.488 100.802C311.308 100.61 311.218 100.376 311.218 100.1C311.218 99.812 311.308 99.578 311.488 99.398C311.68 99.218 311.908 99.128 312.172 99.128C312.436 99.128 312.658 99.218 312.838 99.398C313.03 99.578 313.126 99.812 313.126 100.1C313.126 100.376 313.03 100.61 312.838 100.802C312.658 100.994 312.436 101.09 312.172 101.09ZM326.421 101.108C325.473 101.108 324.597 100.952 323.793 100.64C322.989 100.316 322.293 99.866 321.705 99.29C321.117 98.714 320.655 98.036 320.319 97.256C319.995 96.476 319.833 95.624 319.833 94.7C319.833 93.776 319.995 92.924 320.319 92.144C320.655 91.364 321.117 90.686 321.705 90.11C322.305 89.534 323.007 89.09 323.811 88.778C324.615 88.454 325.491 88.292 326.439 88.292C327.351 88.292 328.209 88.448 329.013 88.76C329.817 89.06 330.495 89.516 331.047 90.128L330.201 90.974C329.685 90.446 329.115 90.068 328.491 89.84C327.867 89.6 327.195 89.48 326.475 89.48C325.719 89.48 325.017 89.612 324.369 89.876C323.721 90.128 323.157 90.494 322.677 90.974C322.197 91.442 321.819 91.994 321.543 92.63C321.279 93.254 321.147 93.944 321.147 94.7C321.147 95.456 321.279 96.152 321.543 96.788C321.819 97.412 322.197 97.964 322.677 98.444C323.157 98.912 323.721 99.278 324.369 99.542C325.017 99.794 325.719 99.92 326.475 99.92C327.195 99.92 327.867 99.8 328.491 99.56C329.115 99.32 329.685 98.936 330.201 98.408L331.047 99.254C330.495 99.866 329.817 100.328 329.013 100.64C328.209 100.952 327.345 101.108 326.421 101.108ZM339.219 101V98.912L339.165 98.57V95.078C339.165 94.274 338.937 93.656 338.481 93.224C338.037 92.792 337.371 92.576 336.483 92.576C335.871 92.576 335.289 92.678 334.737 92.882C334.185 93.086 333.717 93.356 333.333 93.692L332.757 92.738C333.237 92.33 333.813 92.018 334.485 91.802C335.157 91.574 335.865 91.46 336.609 91.46C337.833 91.46 338.775 91.766 339.435 92.378C340.107 92.978 340.443 93.896 340.443 95.132V101H339.219ZM335.961 101.09C335.253 101.09 334.635 100.976 334.107 100.748C333.591 100.508 333.195 100.184 332.919 99.776C332.643 99.356 332.505 98.876 332.505 98.336C332.505 97.844 332.619 97.4 332.847 97.004C333.087 96.596 333.471 96.272 333.999 96.032C334.539 95.78 335.259 95.654 336.159 95.654H339.417V96.608H336.195C335.283 96.608 334.647 96.77 334.287 97.094C333.939 97.418 333.765 97.82 333.765 98.3C333.765 98.84 333.975 99.272 334.395 99.596C334.815 99.92 335.403 100.082 336.159 100.082C336.879 100.082 337.497 99.92 338.013 99.596C338.541 99.26 338.925 98.78 339.165 98.156L339.453 99.038C339.213 99.662 338.793 100.16 338.193 100.532C337.605 100.904 336.861 101.09 335.961 101.09ZM343.845 101V91.55H345.123V99.056L351.441 91.55H352.575V101H351.297V93.476L344.997 101H343.845ZM348.129 90.182C347.337 90.182 346.695 89.984 346.203 89.588C345.723 89.18 345.471 88.598 345.447 87.842H346.365C346.377 88.322 346.545 88.7 346.869 88.976C347.193 89.252 347.613 89.39 348.129 89.39C348.645 89.39 349.065 89.252 349.389 88.976C349.725 88.7 349.899 88.322 349.911 87.842H350.829C350.817 88.598 350.565 89.18 350.073 89.588C349.581 89.984 348.933 90.182 348.129 90.182ZM362.718 100.388V92.666H358.164L358.056 94.772C358.032 95.408 357.99 96.032 357.93 96.644C357.882 97.256 357.792 97.82 357.66 98.336C357.54 98.84 357.366 99.254 357.138 99.578C356.91 99.89 356.616 100.07 356.256 100.118L354.978 99.884C355.35 99.896 355.656 99.764 355.896 99.488C356.136 99.2 356.322 98.81 356.454 98.318C356.586 97.826 356.682 97.268 356.742 96.644C356.802 96.008 356.85 95.36 356.886 94.7L357.012 91.55H363.996V100.388H362.718ZM354.582 103.286V99.884H365.472V103.286H364.266V101H355.788V103.286H354.582ZM373.831 101V98.912L373.777 98.57V95.078C373.777 94.274 373.549 93.656 373.093 93.224C372.649 92.792 371.983 92.576 371.095 92.576C370.483 92.576 369.901 92.678 369.349 92.882C368.797 93.086 368.329 93.356 367.945 93.692L367.369 92.738C367.849 92.33 368.425 92.018 369.097 91.802C369.769 91.574 370.477 91.46 371.221 91.46C372.445 91.46 373.387 91.766 374.047 92.378C374.719 92.978 375.055 93.896 375.055 95.132V101H373.831ZM370.573 101.09C369.865 101.09 369.247 100.976 368.719 100.748C368.203 100.508 367.807 100.184 367.531 99.776C367.255 99.356 367.117 98.876 367.117 98.336C367.117 97.844 367.231 97.4 367.459 97.004C367.699 96.596 368.083 96.272 368.611 96.032C369.151 95.78 369.871 95.654 370.771 95.654H374.029V96.608H370.807C369.895 96.608 369.259 96.77 368.899 97.094C368.551 97.418 368.377 97.82 368.377 98.3C368.377 98.84 368.587 99.272 369.007 99.596C369.427 99.92 370.015 100.082 370.771 100.082C371.491 100.082 372.109 99.92 372.625 99.596C373.153 99.26 373.537 98.78 373.777 98.156L374.065 99.038C373.825 99.662 373.405 100.16 372.805 100.532C372.217 100.904 371.473 101.09 370.573 101.09ZM384.667 99.884L384.379 100.226V91.55H385.657V100.226L385.315 99.884H390.589L390.247 100.226V91.55H391.525V101H378.457V91.55H379.735V100.226L379.411 99.884H384.667ZM399.206 101.09C398.222 101.09 397.358 100.886 396.614 100.478C395.87 100.058 395.288 99.488 394.868 98.768C394.448 98.036 394.238 97.202 394.238 96.266C394.238 95.33 394.436 94.502 394.832 93.782C395.24 93.062 395.792 92.498 396.488 92.09C397.196 91.67 397.988 91.46 398.864 91.46C399.752 91.46 400.538 91.664 401.222 92.072C401.918 92.468 402.464 93.032 402.86 93.764C403.256 94.484 403.454 95.318 403.454 96.266C403.454 96.326 403.448 96.392 403.436 96.464C403.436 96.524 403.436 96.59 403.436 96.662H395.21V95.708H402.752L402.248 96.086C402.248 95.402 402.098 94.796 401.798 94.268C401.51 93.728 401.114 93.308 400.61 93.008C400.106 92.708 399.524 92.558 398.864 92.558C398.216 92.558 397.634 92.708 397.118 93.008C396.602 93.308 396.2 93.728 395.912 94.268C395.624 94.808 395.48 95.426 395.48 96.122V96.32C395.48 97.04 395.636 97.676 395.948 98.228C396.272 98.768 396.716 99.194 397.28 99.506C397.856 99.806 398.51 99.956 399.242 99.956C399.818 99.956 400.352 99.854 400.844 99.65C401.348 99.446 401.78 99.134 402.14 98.714L402.86 99.542C402.44 100.046 401.912 100.43 401.276 100.694C400.652 100.958 399.962 101.09 399.206 101.09ZM406.283 101V91.55H410.459C411.527 91.55 412.367 91.754 412.979 92.162C413.603 92.57 413.915 93.17 413.915 93.962C413.915 94.73 413.621 95.324 413.033 95.744C412.445 96.152 411.671 96.356 410.711 96.356L410.963 95.978C412.091 95.978 412.919 96.188 413.447 96.608C413.975 97.028 414.239 97.634 414.239 98.426C414.239 99.242 413.939 99.878 413.339 100.334C412.751 100.778 411.833 101 410.585 101H406.283ZM407.525 99.992H410.531C411.335 99.992 411.941 99.866 412.349 99.614C412.769 99.35 412.979 98.93 412.979 98.354C412.979 97.778 412.793 97.358 412.421 97.094C412.049 96.83 411.461 96.698 410.657 96.698H407.525V99.992ZM407.525 95.744H410.369C411.101 95.744 411.659 95.606 412.043 95.33C412.439 95.054 412.637 94.652 412.637 94.124C412.637 93.596 412.439 93.2 412.043 92.936C411.659 92.672 411.101 92.54 410.369 92.54H407.525V95.744ZM423.102 101V98.912L423.048 98.57V95.078C423.048 94.274 422.82 93.656 422.364 93.224C421.92 92.792 421.254 92.576 420.366 92.576C419.754 92.576 419.172 92.678 418.62 92.882C418.068 93.086 417.6 93.356 417.216 93.692L416.64 92.738C417.12 92.33 417.696 92.018 418.368 91.802C419.04 91.574 419.748 91.46 420.492 91.46C421.716 91.46 422.658 91.766 423.318 92.378C423.99 92.978 424.326 93.896 424.326 95.132V101H423.102ZM419.844 101.09C419.136 101.09 418.518 100.976 417.99 100.748C417.474 100.508 417.078 100.184 416.802 99.776C416.526 99.356 416.388 98.876 416.388 98.336C416.388 97.844 416.502 97.4 416.73 97.004C416.97 96.596 417.354 96.272 417.882 96.032C418.422 95.78 419.142 95.654 420.042 95.654H423.3V96.608H420.078C419.166 96.608 418.53 96.77 418.17 97.094C417.822 97.418 417.648 97.82 417.648 98.3C417.648 98.84 417.858 99.272 418.278 99.596C418.698 99.92 419.286 100.082 420.042 100.082C420.762 100.082 421.38 99.92 421.896 99.596C422.424 99.26 422.808 98.78 423.048 98.156L423.336 99.038C423.096 99.662 422.676 100.16 422.076 100.532C421.488 100.904 420.744 101.09 419.844 101.09ZM435.319 101.108C434.407 101.108 433.543 100.964 432.727 100.676C431.923 100.376 431.275 99.98 430.783 99.488L431.413 98.462C431.821 98.882 432.367 99.23 433.051 99.506C433.747 99.782 434.503 99.92 435.319 99.92C436.363 99.92 437.161 99.692 437.713 99.236C438.277 98.78 438.559 98.168 438.559 97.4C438.559 96.632 438.283 96.02 437.731 95.564C437.191 95.108 436.333 94.88 435.157 94.88H434.257V93.926L438.145 89.048L438.325 89.552H431.305V88.4H439.405V89.318L435.517 94.196L434.887 93.782H435.373C436.885 93.782 438.013 94.118 438.757 94.79C439.513 95.462 439.891 96.326 439.891 97.382C439.891 98.09 439.723 98.726 439.387 99.29C439.051 99.854 438.541 100.298 437.857 100.622C437.185 100.946 436.339 101.108 435.319 101.108Z" fill="black"/>
</svg>
