<svg width="397" height="401" viewBox="0 0 397 401" fill="none" xmlns="http://www.w3.org/2000/svg">
<rect x="0.5" width="396" height="401" rx="20" fill="#FBEAE5"/>
<path d="M64.646 69.78C64.4993 69.9413 64.3013 70.0147 64.052 70C63.8027 70 63.6047 69.912 63.458 69.736L56.33 61.266L62.886 53.082C63.0473 52.906 63.2453 52.818 63.48 52.818C63.7147 52.8033 63.9127 52.8767 64.074 53.038C64.25 53.214 64.3307 53.4047 64.316 53.61C64.316 53.8007 64.2427 53.984 64.096 54.16L58.398 61.178L64.734 68.636C64.8953 68.8267 64.9613 69.0247 64.932 69.23C64.9173 69.4207 64.822 69.604 64.646 69.78ZM53.558 70C53.3087 70 53.1033 69.9193 52.942 69.758C52.7807 69.5967 52.7 69.3913 52.7 69.142V53.676C52.7 53.4267 52.7807 53.2213 52.942 53.06C53.1033 52.8987 53.3087 52.818 53.558 52.818C53.8073 52.818 54.0127 52.8987 54.174 53.06C54.3353 53.2213 54.416 53.4267 54.416 53.676V60.54H57.892V62.08H54.416V69.142C54.416 69.3913 54.3353 69.5967 54.174 69.758C54.0127 69.9193 53.8073 70 53.558 70ZM66.6147 75.258C66.292 75.2727 65.9693 75.2287 65.6467 75.126C65.3387 75.038 65.0307 74.906 64.7227 74.73C64.488 74.5833 64.3413 74.3927 64.2827 74.158C64.2093 73.938 64.2533 73.7253 64.4147 73.52C64.5613 73.3293 64.7373 73.2267 64.9427 73.212C65.1627 73.212 65.39 73.2707 65.6247 73.388C65.786 73.4907 65.9473 73.564 66.1087 73.608C66.27 73.652 66.4533 73.674 66.6587 73.674C67.1427 73.6593 67.6047 73.432 68.0447 72.992C68.4993 72.552 68.91 71.914 69.2767 71.078L74.7547 58.428C74.8427 58.208 74.9893 58.0613 75.1947 57.988C75.4147 57.9 75.6347 57.9073 75.8547 58.01C76.06 58.098 76.192 58.2447 76.2507 58.45C76.324 58.6553 76.3093 58.8753 76.2067 59.11L70.7067 71.738C70.2373 72.794 69.6433 73.6447 68.9247 74.29C68.2207 74.9353 67.4507 75.258 66.6147 75.258ZM71.2127 69.626C70.9927 69.7287 70.7873 69.7507 70.5967 69.692C70.406 69.6187 70.252 69.472 70.1347 69.252L65.2287 59.088C65.126 58.868 65.1113 58.6627 65.1847 58.472C65.258 58.2813 65.4047 58.1347 65.6247 58.032C65.8447 57.9293 66.05 57.9147 66.2407 57.988C66.4313 58.0467 66.578 58.186 66.6807 58.406L71.5207 68.526C71.6233 68.746 71.6527 68.9587 71.6087 69.164C71.5647 69.3693 71.4327 69.5233 71.2127 69.626ZM79.8712 75.148C79.6072 75.148 79.3945 75.0673 79.2332 74.906C79.0865 74.7593 79.0132 74.554 79.0132 74.29V63.906C79.0279 62.762 79.2992 61.7353 79.8272 60.826C80.3699 59.902 81.0959 59.176 82.0052 58.648C82.9292 58.12 83.9632 57.856 85.1072 57.856C86.2805 57.856 87.3292 58.1273 88.2532 58.67C89.1772 59.198 89.9032 59.924 90.4312 60.848C90.9739 61.772 91.2452 62.8207 91.2452 63.994C91.2452 65.1527 90.9812 66.194 90.4532 67.118C89.9399 68.042 89.2359 68.7753 88.3412 69.318C87.4465 69.846 86.4345 70.11 85.3052 70.11C84.3225 70.11 83.4279 69.9047 82.6212 69.494C81.8292 69.0687 81.1912 68.5113 80.7072 67.822V74.29C80.7072 74.554 80.6265 74.7593 80.4652 74.906C80.3185 75.0673 80.1205 75.148 79.8712 75.148ZM85.1072 68.57C85.9579 68.57 86.7205 68.372 87.3952 67.976C88.0699 67.58 88.5979 67.0373 88.9792 66.348C89.3752 65.644 89.5732 64.8593 89.5732 63.994C89.5732 63.114 89.3752 62.3293 88.9792 61.64C88.5979 60.9507 88.0699 60.408 87.3952 60.012C86.7205 59.6013 85.9579 59.396 85.1072 59.396C84.2712 59.396 83.5159 59.6013 82.8412 60.012C82.1665 60.408 81.6385 60.9507 81.2572 61.64C80.8759 62.3293 80.6852 63.114 80.6852 63.994C80.6852 64.8593 80.8759 65.644 81.2572 66.348C81.6385 67.0373 82.1665 67.58 82.8412 67.976C83.5159 68.372 84.2712 68.57 85.1072 68.57ZM99.6719 70.22C98.6599 70.22 97.7726 70.0293 97.0099 69.648C96.2472 69.2667 95.6459 68.746 95.2059 68.086C94.7806 67.4113 94.5679 66.6267 94.5679 65.732V58.802C94.5826 58.5527 94.6706 58.3547 94.8319 58.208C94.9932 58.0467 95.1912 57.966 95.4259 57.966C95.6606 57.966 95.8586 58.0467 96.0199 58.208C96.1812 58.3693 96.2619 58.5747 96.2619 58.824V61.948H99.8479C100.801 61.948 101.637 62.1167 102.356 62.454C103.089 62.7913 103.654 63.268 104.05 63.884C104.461 64.5 104.666 65.2113 104.666 66.018C104.666 66.8247 104.453 67.5507 104.028 68.196C103.617 68.8267 103.038 69.3253 102.29 69.692C101.542 70.044 100.669 70.22 99.6719 70.22ZM99.6719 68.658C100.625 68.658 101.417 68.438 102.048 67.998C102.679 67.558 102.994 66.898 102.994 66.018C102.994 65.1967 102.715 64.5587 102.158 64.104C101.601 63.6493 100.831 63.422 99.8479 63.422H96.2619V65.732C96.2619 66.2893 96.4012 66.7953 96.6799 67.25C96.9732 67.69 97.3692 68.0347 97.8679 68.284C98.3812 68.5333 98.9826 68.658 99.6719 68.658ZM112.957 70.11C111.769 70.11 110.713 69.8533 109.789 69.34C108.88 68.812 108.161 68.086 107.633 67.162C107.12 66.238 106.863 65.182 106.863 63.994C106.863 62.7913 107.105 61.7353 107.589 60.826C108.088 59.902 108.77 59.176 109.635 58.648C110.501 58.12 111.498 57.856 112.627 57.856C113.742 57.856 114.71 58.1127 115.531 58.626C116.367 59.1247 117.013 59.8213 117.467 60.716C117.922 61.6107 118.149 62.63 118.149 63.774C118.149 64.0087 118.076 64.1993 117.929 64.346C117.783 64.478 117.592 64.544 117.357 64.544H108.007V63.136H117.533L116.587 63.818C116.602 62.9673 116.448 62.2047 116.125 61.53C115.803 60.8553 115.341 60.3273 114.739 59.946C114.153 59.5647 113.449 59.374 112.627 59.374C111.791 59.374 111.058 59.572 110.427 59.968C109.797 60.364 109.305 60.914 108.953 61.618C108.616 62.3073 108.447 63.0993 108.447 63.994C108.447 64.8887 108.638 65.6807 109.019 66.37C109.415 67.0593 109.951 67.602 110.625 67.998C111.3 68.394 112.077 68.592 112.957 68.592C113.485 68.592 114.013 68.504 114.541 68.328C115.084 68.1373 115.517 67.9027 115.839 67.624C116.001 67.492 116.184 67.426 116.389 67.426C116.595 67.4113 116.771 67.4627 116.917 67.58C117.108 67.756 117.203 67.9467 117.203 68.152C117.218 68.3573 117.137 68.5333 116.961 68.68C116.477 69.0907 115.861 69.4353 115.113 69.714C114.365 69.978 113.647 70.11 112.957 70.11ZM121.873 75.148C121.609 75.148 121.396 75.0673 121.235 74.906C121.088 74.7593 121.015 74.554 121.015 74.29V63.906C121.03 62.762 121.301 61.7353 121.829 60.826C122.372 59.902 123.098 59.176 124.007 58.648C124.931 58.12 125.965 57.856 127.109 57.856C128.282 57.856 129.331 58.1273 130.255 58.67C131.179 59.198 131.905 59.924 132.433 60.848C132.976 61.772 133.247 62.8207 133.247 63.994C133.247 65.1527 132.983 66.194 132.455 67.118C131.942 68.042 131.238 68.7753 130.343 69.318C129.448 69.846 128.436 70.11 127.307 70.11C126.324 70.11 125.43 69.9047 124.623 69.494C123.831 69.0687 123.193 68.5113 122.709 67.822V74.29C122.709 74.554 122.628 74.7593 122.467 74.906C122.32 75.0673 122.122 75.148 121.873 75.148ZM127.109 68.57C127.96 68.57 128.722 68.372 129.397 67.976C130.072 67.58 130.6 67.0373 130.981 66.348C131.377 65.644 131.575 64.8593 131.575 63.994C131.575 63.114 131.377 62.3293 130.981 61.64C130.6 60.9507 130.072 60.408 129.397 60.012C128.722 59.6013 127.96 59.396 127.109 59.396C126.273 59.396 125.518 59.6013 124.843 60.012C124.168 60.408 123.64 60.9507 123.259 61.64C122.878 62.3293 122.687 63.114 122.687 63.994C122.687 64.8593 122.878 65.644 123.259 66.348C123.64 67.0373 124.168 67.58 124.843 67.976C125.518 68.372 126.273 68.57 127.109 68.57ZM142.048 70.11C140.875 70.11 139.826 69.846 138.902 69.318C137.978 68.79 137.252 68.064 136.724 67.14C136.196 66.216 135.932 65.1673 135.932 63.994C135.932 62.806 136.196 61.75 136.724 60.826C137.252 59.902 137.978 59.176 138.902 58.648C139.826 58.12 140.875 57.856 142.048 57.856C143.221 57.856 144.263 58.12 145.172 58.648C146.096 59.176 146.822 59.902 147.35 60.826C147.878 61.75 148.149 62.806 148.164 63.994C148.164 65.1673 147.893 66.216 147.35 67.14C146.822 68.064 146.096 68.79 145.172 69.318C144.263 69.846 143.221 70.11 142.048 70.11ZM142.048 68.57C142.899 68.57 143.661 68.372 144.336 67.976C145.011 67.58 145.539 67.0373 145.92 66.348C146.301 65.6587 146.492 64.874 146.492 63.994C146.492 63.114 146.301 62.3293 145.92 61.64C145.539 60.936 145.011 60.386 144.336 59.99C143.661 59.594 142.899 59.396 142.048 59.396C141.197 59.396 140.435 59.594 139.76 59.99C139.085 60.386 138.55 60.936 138.154 61.64C137.773 62.3293 137.582 63.114 137.582 63.994C137.582 64.874 137.773 65.6587 138.154 66.348C138.55 67.0373 139.085 67.58 139.76 67.976C140.435 68.372 141.197 68.57 142.048 68.57ZM152.317 70C152.053 70 151.84 69.9267 151.679 69.78C151.532 69.6187 151.459 69.406 151.459 69.142V58.824C151.459 58.56 151.532 58.3547 151.679 58.208C151.84 58.0467 152.053 57.966 152.317 57.966C152.698 57.966 153.006 58.142 153.241 58.494L158.103 65.534L162.965 58.494C163.199 58.142 163.507 57.966 163.889 57.966C164.153 57.966 164.358 58.0467 164.505 58.208C164.666 58.3547 164.747 58.56 164.747 58.824V69.142C164.747 69.406 164.666 69.6187 164.505 69.78C164.358 69.9267 164.153 70 163.889 70C163.625 70 163.419 69.9267 163.273 69.78C163.126 69.6187 163.053 69.406 163.053 69.142V59.924L163.603 60.1L158.895 66.898C158.66 67.2353 158.389 67.404 158.081 67.404C157.773 67.404 157.509 67.2353 157.289 66.898L152.581 60.166L153.153 59.99V69.142C153.153 69.406 153.079 69.6187 152.933 69.78C152.786 69.9267 152.581 70 152.317 70ZM180.458 70.11C179.299 70.11 178.272 69.8533 177.378 69.34C176.483 68.812 175.779 68.086 175.266 67.162C174.767 66.238 174.518 65.182 174.518 63.994C174.518 62.7913 174.782 61.728 175.31 60.804C175.838 59.88 176.564 59.1613 177.488 58.648C178.412 58.12 179.46 57.856 180.634 57.856C181.822 57.856 182.87 58.12 183.78 58.648C184.704 59.1613 185.422 59.88 185.936 60.804C186.464 61.728 186.735 62.7913 186.75 63.994L185.76 64.522C185.76 65.6073 185.532 66.5753 185.078 67.426C184.623 68.262 183.992 68.922 183.186 69.406C182.394 69.8753 181.484 70.11 180.458 70.11ZM180.678 74.752C179.519 74.752 178.5 74.532 177.62 74.092C176.74 73.6667 176.014 73.08 175.442 72.332C175.28 72.156 175.207 71.9653 175.222 71.76C175.251 71.5547 175.361 71.386 175.552 71.254C175.742 71.122 175.955 71.078 176.19 71.122C176.424 71.166 176.608 71.276 176.74 71.452C177.165 71.98 177.708 72.4053 178.368 72.728C179.042 73.0507 179.82 73.212 180.7 73.212C181.521 73.212 182.262 73.014 182.922 72.618C183.582 72.222 184.102 71.6647 184.484 70.946C184.88 70.2273 185.078 69.384 185.078 68.416V65.072L185.716 63.796L186.75 63.994V68.482C186.75 69.67 186.486 70.7333 185.958 71.672C185.43 72.6253 184.711 73.3733 183.802 73.916C182.892 74.4733 181.851 74.752 180.678 74.752ZM180.634 68.57C181.499 68.57 182.262 68.3793 182.922 67.998C183.596 67.602 184.124 67.0593 184.506 66.37C184.887 65.6807 185.078 64.8887 185.078 63.994C185.078 63.0993 184.887 62.3073 184.506 61.618C184.124 60.914 183.596 60.3713 182.922 59.99C182.262 59.594 181.499 59.396 180.634 59.396C179.768 59.396 178.998 59.594 178.324 59.99C177.649 60.3713 177.121 60.914 176.74 61.618C176.358 62.3073 176.168 63.0993 176.168 63.994C176.168 64.8887 176.358 65.6807 176.74 66.37C177.121 67.0593 177.649 67.602 178.324 67.998C178.998 68.3793 179.768 68.57 180.634 68.57ZM195.522 70.11C194.349 70.11 193.3 69.846 192.376 69.318C191.452 68.79 190.726 68.064 190.198 67.14C189.67 66.216 189.406 65.1673 189.406 63.994C189.406 62.806 189.67 61.75 190.198 60.826C190.726 59.902 191.452 59.176 192.376 58.648C193.3 58.12 194.349 57.856 195.522 57.856C196.696 57.856 197.737 58.12 198.646 58.648C199.57 59.176 200.296 59.902 200.824 60.826C201.352 61.75 201.624 62.806 201.638 63.994C201.638 65.1673 201.367 66.216 200.824 67.14C200.296 68.064 199.57 68.79 198.646 69.318C197.737 69.846 196.696 70.11 195.522 70.11ZM195.522 68.57C196.373 68.57 197.136 68.372 197.81 67.976C198.485 67.58 199.013 67.0373 199.394 66.348C199.776 65.6587 199.966 64.874 199.966 63.994C199.966 63.114 199.776 62.3293 199.394 61.64C199.013 60.936 198.485 60.386 197.81 59.99C197.136 59.594 196.373 59.396 195.522 59.396C194.672 59.396 193.909 59.594 193.234 59.99C192.56 60.386 192.024 60.936 191.628 61.64C191.247 62.3293 191.056 63.114 191.056 63.994C191.056 64.874 191.247 65.6587 191.628 66.348C192.024 67.0373 192.56 67.58 193.234 67.976C193.909 68.372 194.672 68.57 195.522 68.57ZM216.68 70.11C215.522 70.11 214.495 69.8533 213.6 69.34C212.706 68.812 212.002 68.086 211.488 67.162C210.99 66.238 210.74 65.182 210.74 63.994C210.74 62.7913 211.004 61.728 211.532 60.804C212.06 59.88 212.786 59.1613 213.71 58.648C214.634 58.12 215.683 57.856 216.856 57.856C218.044 57.856 219.093 58.12 220.002 58.648C220.926 59.1613 221.645 59.88 222.158 60.804C222.686 61.728 222.958 62.7913 222.972 63.994L221.982 64.522C221.982 65.6073 221.755 66.5753 221.3 67.426C220.846 68.262 220.215 68.922 219.408 69.406C218.616 69.8753 217.707 70.11 216.68 70.11ZM216.9 74.752C215.742 74.752 214.722 74.532 213.842 74.092C212.962 73.6667 212.236 73.08 211.664 72.332C211.503 72.156 211.43 71.9653 211.444 71.76C211.474 71.5547 211.584 71.386 211.774 71.254C211.965 71.122 212.178 71.078 212.412 71.122C212.647 71.166 212.83 71.276 212.962 71.452C213.388 71.98 213.93 72.4053 214.59 72.728C215.265 73.0507 216.042 73.212 216.922 73.212C217.744 73.212 218.484 73.014 219.144 72.618C219.804 72.222 220.325 71.6647 220.706 70.946C221.102 70.2273 221.3 69.384 221.3 68.416V65.072L221.938 63.796L222.972 63.994V68.482C222.972 69.67 222.708 70.7333 222.18 71.672C221.652 72.6253 220.934 73.3733 220.024 73.916C219.115 74.4733 218.074 74.752 216.9 74.752ZM216.856 68.57C217.722 68.57 218.484 68.3793 219.144 67.998C219.819 67.602 220.347 67.0593 220.728 66.37C221.11 65.6807 221.3 64.8887 221.3 63.994C221.3 63.0993 221.11 62.3073 220.728 61.618C220.347 60.914 219.819 60.3713 219.144 59.99C218.484 59.594 217.722 59.396 216.856 59.396C215.991 59.396 215.221 59.594 214.546 59.99C213.872 60.3713 213.344 60.914 212.962 61.618C212.581 62.3073 212.39 63.0993 212.39 63.994C212.39 64.8887 212.581 65.6807 212.962 66.37C213.344 67.0593 213.872 67.602 214.546 67.998C215.221 68.3793 215.991 68.57 216.856 68.57ZM227.125 70C226.861 70 226.648 69.9267 226.487 69.78C226.34 69.6187 226.267 69.406 226.267 69.142V58.802C226.282 58.5527 226.362 58.3547 226.509 58.208C226.67 58.0467 226.876 57.966 227.125 57.966C227.374 57.966 227.572 58.0467 227.719 58.208C227.88 58.3547 227.961 58.56 227.961 58.824V63.004H232.603V63.312C233.366 63.312 234.04 63.4513 234.627 63.73C235.228 64.0087 235.69 64.3973 236.013 64.896C236.35 65.38 236.519 65.9373 236.519 66.568C236.519 67.2427 236.35 67.8367 236.013 68.35C235.69 68.8633 235.228 69.2667 234.627 69.56C234.04 69.8533 233.366 70 232.603 70H227.125ZM227.961 68.438H232.603C233.263 68.438 233.806 68.2693 234.231 67.932C234.656 67.5947 234.869 67.1107 234.869 66.48C234.869 65.82 234.656 65.3213 234.231 64.984C233.806 64.632 233.263 64.456 232.603 64.456H227.961V68.438ZM230.425 63.95V63.004H232.603C233.116 63.004 233.534 62.8353 233.857 62.498C234.18 62.1607 234.341 61.728 234.341 61.2C234.341 60.7307 234.165 60.3347 233.813 60.012C233.476 59.6747 233.043 59.506 232.515 59.506H227.147V57.966H232.515C233.19 57.966 233.784 58.1053 234.297 58.384C234.825 58.648 235.236 59.0147 235.529 59.484C235.837 59.9533 235.991 60.496 235.991 61.112C235.991 62.0653 235.668 62.7767 235.023 63.246C234.392 63.7153 233.586 63.95 232.603 63.95H230.425ZM244.85 70.11C243.662 70.11 242.606 69.8533 241.682 69.34C240.773 68.812 240.054 68.086 239.526 67.162C239.013 66.238 238.756 65.182 238.756 63.994C238.756 62.7913 238.998 61.7353 239.482 60.826C239.981 59.902 240.663 59.176 241.528 58.648C242.393 58.12 243.391 57.856 244.52 57.856C245.635 57.856 246.603 58.1127 247.424 58.626C248.26 59.1247 248.905 59.8213 249.36 60.716C249.815 61.6107 250.042 62.63 250.042 63.774C250.042 64.0087 249.969 64.1993 249.822 64.346C249.675 64.478 249.485 64.544 249.25 64.544H239.9V63.136H249.426L248.48 63.818C248.495 62.9673 248.341 62.2047 248.018 61.53C247.695 60.8553 247.233 60.3273 246.632 59.946C246.045 59.5647 245.341 59.374 244.52 59.374C243.684 59.374 242.951 59.572 242.32 59.968C241.689 60.364 241.198 60.914 240.846 61.618C240.509 62.3073 240.34 63.0993 240.34 63.994C240.34 64.8887 240.531 65.6807 240.912 66.37C241.308 67.0593 241.843 67.602 242.518 67.998C243.193 68.394 243.97 68.592 244.85 68.592C245.378 68.592 245.906 68.504 246.434 68.328C246.977 68.1373 247.409 67.9027 247.732 67.624C247.893 67.492 248.077 67.426 248.282 67.426C248.487 67.4113 248.663 67.4627 248.81 67.58C249.001 67.756 249.096 67.9467 249.096 68.152C249.111 68.3573 249.03 68.5333 248.854 68.68C248.37 69.0907 247.754 69.4353 247.006 69.714C246.258 69.978 245.539 70.11 244.85 70.11ZM253.766 75.148C253.502 75.148 253.289 75.0673 253.128 74.906C252.981 74.7593 252.908 74.554 252.908 74.29V63.906C252.922 62.762 253.194 61.7353 253.722 60.826C254.264 59.902 254.99 59.176 255.9 58.648C256.824 58.12 257.858 57.856 259.002 57.856C260.175 57.856 261.224 58.1273 262.148 58.67C263.072 59.198 263.798 59.924 264.326 60.848C264.868 61.772 265.14 62.8207 265.14 63.994C265.14 65.1527 264.876 66.194 264.348 67.118C263.834 68.042 263.13 68.7753 262.236 69.318C261.341 69.846 260.329 70.11 259.2 70.11C258.217 70.11 257.322 69.9047 256.516 69.494C255.724 69.0687 255.086 68.5113 254.602 67.822V74.29C254.602 74.554 254.521 74.7593 254.36 74.906C254.213 75.0673 254.015 75.148 253.766 75.148ZM259.002 68.57C259.852 68.57 260.615 68.372 261.29 67.976C261.964 67.58 262.492 67.0373 262.874 66.348C263.27 65.644 263.468 64.8593 263.468 63.994C263.468 63.114 263.27 62.3293 262.874 61.64C262.492 60.9507 261.964 60.408 261.29 60.012C260.615 59.6013 259.852 59.396 259.002 59.396C258.166 59.396 257.41 59.6013 256.736 60.012C256.061 60.408 255.533 60.9507 255.152 61.64C254.77 62.3293 254.58 63.114 254.58 63.994C254.58 64.8593 254.77 65.644 255.152 66.348C255.533 67.0373 256.061 67.58 256.736 67.976C257.41 68.372 258.166 68.57 259.002 68.57ZM273.698 70.132C272.657 70.132 271.726 69.9193 270.904 69.494C270.083 69.054 269.43 68.416 268.946 67.58C268.477 66.744 268.242 65.7247 268.242 64.522V58.802C268.242 58.5673 268.323 58.3693 268.484 58.208C268.646 58.0467 268.844 57.966 269.078 57.966C269.328 57.966 269.533 58.0467 269.694 58.208C269.856 58.3693 269.936 58.5673 269.936 58.802V64.522C269.936 65.4313 270.105 66.1793 270.442 66.766C270.794 67.3527 271.264 67.7927 271.85 68.086C272.452 68.3793 273.126 68.526 273.874 68.526C274.593 68.526 275.238 68.3867 275.81 68.108C276.397 67.8293 276.859 67.448 277.196 66.964C277.534 66.48 277.702 65.93 277.702 65.314H278.912C278.868 66.238 278.612 67.0667 278.142 67.8C277.688 68.5187 277.072 69.0907 276.294 69.516C275.517 69.9267 274.652 70.132 273.698 70.132ZM278.538 70C278.289 70 278.084 69.9267 277.922 69.78C277.776 69.6187 277.702 69.406 277.702 69.142V58.802C277.702 58.5527 277.776 58.3547 277.922 58.208C278.084 58.0467 278.289 57.966 278.538 57.966C278.788 57.966 278.993 58.0467 279.154 58.208C279.316 58.3547 279.396 58.5527 279.396 58.802V69.142C279.396 69.406 279.316 69.6187 279.154 69.78C278.993 69.9267 278.788 70 278.538 70Z" fill="black"/>
<path d="M54.46 115.492C53.8 114.4 53.284 113.14 52.912 111.712C52.552 110.272 52.372 108.724 52.372 107.068C52.372 105.412 52.552 103.864 52.912 102.424C53.284 100.972 53.8 99.712 54.46 98.644H55.684C54.976 99.88 54.454 101.194 54.118 102.586C53.794 103.966 53.632 105.46 53.632 107.068C53.632 108.676 53.794 110.176 54.118 111.568C54.454 112.948 54.976 114.256 55.684 115.492H54.46ZM58.5478 112V99.4H67.7638V100.534H59.8618V104.656H63.9838C65.4718 104.656 66.5998 104.962 67.3678 105.574C68.1478 106.174 68.5378 107.062 68.5378 108.238C68.5378 109.45 68.1178 110.38 67.2778 111.028C66.4498 111.676 65.2558 112 63.6958 112H58.5478ZM59.8618 110.938H63.6778C64.8418 110.938 65.7178 110.716 66.3058 110.272C66.9058 109.816 67.2058 109.156 67.2058 108.292C67.2058 106.576 66.0298 105.718 63.6778 105.718H59.8618V110.938ZM77.1704 112V109.912L77.1164 109.57V106.078C77.1164 105.274 76.8884 104.656 76.4324 104.224C75.9884 103.792 75.3224 103.576 74.4344 103.576C73.8224 103.576 73.2404 103.678 72.6884 103.882C72.1364 104.086 71.6684 104.356 71.2844 104.692L70.7084 103.738C71.1884 103.33 71.7644 103.018 72.4364 102.802C73.1084 102.574 73.8164 102.46 74.5604 102.46C75.7844 102.46 76.7264 102.766 77.3864 103.378C78.0584 103.978 78.3944 104.896 78.3944 106.132V112H77.1704ZM73.9124 112.09C73.2044 112.09 72.5864 111.976 72.0584 111.748C71.5424 111.508 71.1464 111.184 70.8704 110.776C70.5944 110.356 70.4564 109.876 70.4564 109.336C70.4564 108.844 70.5704 108.4 70.7984 108.004C71.0384 107.596 71.4224 107.272 71.9504 107.032C72.4904 106.78 73.2104 106.654 74.1104 106.654H77.3684V107.608H74.1464C73.2344 107.608 72.5984 107.77 72.2384 108.094C71.8904 108.418 71.7164 108.82 71.7164 109.3C71.7164 109.84 71.9264 110.272 72.3464 110.596C72.7664 110.92 73.3544 111.082 74.1104 111.082C74.8304 111.082 75.4484 110.92 75.9644 110.596C76.4924 110.26 76.8764 109.78 77.1164 109.156L77.4044 110.038C77.1644 110.662 76.7444 111.16 76.1444 111.532C75.5564 111.904 74.8124 112.09 73.9124 112.09ZM81.7965 112V102.55H85.9725C87.0405 102.55 87.8805 102.754 88.4925 103.162C89.1165 103.57 89.4285 104.17 89.4285 104.962C89.4285 105.73 89.1345 106.324 88.5465 106.744C87.9585 107.152 87.1845 107.356 86.2245 107.356L86.4765 106.978C87.6045 106.978 88.4325 107.188 88.9605 107.608C89.4885 108.028 89.7525 108.634 89.7525 109.426C89.7525 110.242 89.4525 110.878 88.8525 111.334C88.2645 111.778 87.3465 112 86.0985 112H81.7965ZM83.0385 110.992H86.0445C86.8485 110.992 87.4545 110.866 87.8625 110.614C88.2825 110.35 88.4925 109.93 88.4925 109.354C88.4925 108.778 88.3065 108.358 87.9345 108.094C87.5625 107.83 86.9745 107.698 86.1705 107.698H83.0385V110.992ZM83.0385 106.744H85.8825C86.6145 106.744 87.1725 106.606 87.5565 106.33C87.9525 106.054 88.1505 105.652 88.1505 105.124C88.1505 104.596 87.9525 104.2 87.5565 103.936C87.1725 103.672 86.6145 103.54 85.8825 103.54H83.0385V106.744ZM91.0197 111.982L91.1097 110.884C91.1937 110.896 91.2717 110.914 91.3437 110.938C91.4277 110.95 91.4997 110.956 91.5597 110.956C91.9437 110.956 92.2497 110.812 92.4777 110.524C92.7177 110.236 92.8977 109.852 93.0177 109.372C93.1377 108.892 93.2217 108.352 93.2697 107.752C93.3177 107.14 93.3597 106.528 93.3957 105.916L93.5577 102.55H100.488V112H99.2097V103.288L99.5337 103.666H94.3857L94.6917 103.27L94.5477 106.006C94.5117 106.822 94.4457 107.602 94.3497 108.346C94.2657 109.09 94.1277 109.744 93.9357 110.308C93.7557 110.872 93.5037 111.316 93.1797 111.64C92.8557 111.952 92.4417 112.108 91.9377 112.108C91.7937 112.108 91.6437 112.096 91.4877 112.072C91.3437 112.048 91.1877 112.018 91.0197 111.982ZM113.337 112V102.55H114.615V112H113.337ZM108.099 105.88C109.287 105.892 110.193 106.156 110.817 106.672C111.441 107.188 111.753 107.932 111.753 108.904C111.753 109.912 111.417 110.686 110.745 111.226C110.073 111.766 109.113 112.03 107.865 112.018L104.121 112V102.55H105.399V105.844L108.099 105.88ZM107.775 111.046C108.663 111.058 109.329 110.884 109.773 110.524C110.229 110.152 110.457 109.612 110.457 108.904C110.457 108.196 110.235 107.68 109.791 107.356C109.347 107.02 108.675 106.846 107.775 106.834L105.399 106.798V111.01L107.775 111.046ZM117.444 114.628L118.236 111.298L118.38 112.072C118.104 112.072 117.87 111.982 117.678 111.802C117.498 111.622 117.408 111.388 117.408 111.1C117.408 110.812 117.498 110.578 117.678 110.398C117.87 110.218 118.098 110.128 118.362 110.128C118.638 110.128 118.86 110.224 119.028 110.416C119.208 110.608 119.298 110.836 119.298 111.1C119.298 111.196 119.292 111.292 119.28 111.388C119.268 111.484 119.244 111.592 119.208 111.712C119.172 111.832 119.124 111.976 119.064 112.144L118.308 114.628H117.444ZM125.231 112L130.991 99.4H132.305L138.065 112H136.661L131.369 100.174H131.909L126.617 112H125.231ZM127.499 108.634L127.895 107.554H135.221L135.617 108.634H127.499ZM138.445 111.982L138.535 110.884C138.619 110.896 138.697 110.914 138.769 110.938C138.853 110.95 138.925 110.956 138.985 110.956C139.369 110.956 139.675 110.812 139.903 110.524C140.143 110.236 140.323 109.852 140.443 109.372C140.563 108.892 140.647 108.352 140.695 107.752C140.743 107.14 140.785 106.528 140.821 105.916L140.983 102.55H147.913V112H146.635V103.288L146.959 103.666H141.811L142.117 103.27L141.973 106.006C141.937 106.822 141.871 107.602 141.775 108.346C141.691 109.09 141.553 109.744 141.361 110.308C141.181 110.872 140.929 111.316 140.605 111.64C140.281 111.952 139.867 112.108 139.363 112.108C139.219 112.108 139.069 112.096 138.913 112.072C138.769 112.048 138.613 112.018 138.445 111.982ZM155.615 105.88C156.803 105.892 157.703 106.156 158.315 106.672C158.939 107.188 159.251 107.932 159.251 108.904C159.251 109.912 158.915 110.686 158.243 111.226C157.583 111.766 156.623 112.03 155.363 112.018L151.547 112V102.55H152.825V105.844L155.615 105.88ZM155.291 111.046C156.167 111.058 156.827 110.884 157.271 110.524C157.727 110.152 157.955 109.612 157.955 108.904C157.955 108.196 157.733 107.68 157.289 107.356C156.845 107.02 156.179 106.846 155.291 106.834L152.825 106.798V111.01L155.291 111.046ZM161.689 112V102.55H162.985L167.269 109.804H166.729L171.085 102.55H172.273V112H171.103V104.008L171.337 104.116L167.269 110.848H166.693L162.589 104.044L162.859 103.99V112H161.689ZM179.96 112.09C178.976 112.09 178.112 111.886 177.368 111.478C176.624 111.058 176.042 110.488 175.622 109.768C175.202 109.036 174.992 108.202 174.992 107.266C174.992 106.33 175.19 105.502 175.586 104.782C175.994 104.062 176.546 103.498 177.242 103.09C177.95 102.67 178.742 102.46 179.618 102.46C180.506 102.46 181.292 102.664 181.976 103.072C182.672 103.468 183.218 104.032 183.614 104.764C184.01 105.484 184.208 106.318 184.208 107.266C184.208 107.326 184.202 107.392 184.19 107.464C184.19 107.524 184.19 107.59 184.19 107.662H175.964V106.708H183.506L183.002 107.086C183.002 106.402 182.852 105.796 182.552 105.268C182.264 104.728 181.868 104.308 181.364 104.008C180.86 103.708 180.278 103.558 179.618 103.558C178.97 103.558 178.388 103.708 177.872 104.008C177.356 104.308 176.954 104.728 176.666 105.268C176.378 105.808 176.234 106.426 176.234 107.122V107.32C176.234 108.04 176.39 108.676 176.702 109.228C177.026 109.768 177.47 110.194 178.034 110.506C178.61 110.806 179.264 110.956 179.996 110.956C180.572 110.956 181.106 110.854 181.598 110.65C182.102 110.446 182.534 110.134 182.894 109.714L183.614 110.542C183.194 111.046 182.666 111.43 182.03 111.694C181.406 111.958 180.716 112.09 179.96 112.09ZM188.415 112V103.324L188.739 103.666H184.833V102.55H193.275V103.666H189.369L189.693 103.324V112H188.415ZM199.191 105.88C200.379 105.892 201.279 106.156 201.891 106.672C202.515 107.188 202.827 107.932 202.827 108.904C202.827 109.912 202.491 110.686 201.819 111.226C201.159 111.766 200.199 112.03 198.939 112.018L195.123 112V102.55H196.401V105.844L199.191 105.88ZM198.867 111.046C199.743 111.058 200.403 110.884 200.847 110.524C201.303 110.152 201.531 109.612 201.531 108.904C201.531 108.196 201.309 107.68 200.865 107.356C200.421 107.02 199.755 106.846 198.867 106.834L196.401 106.798V111.01L198.867 111.046ZM209.315 112.09C208.331 112.09 207.467 111.886 206.723 111.478C205.979 111.058 205.397 110.488 204.977 109.768C204.557 109.036 204.347 108.202 204.347 107.266C204.347 106.33 204.545 105.502 204.941 104.782C205.349 104.062 205.901 103.498 206.597 103.09C207.305 102.67 208.097 102.46 208.973 102.46C209.861 102.46 210.647 102.664 211.331 103.072C212.027 103.468 212.573 104.032 212.969 104.764C213.365 105.484 213.563 106.318 213.563 107.266C213.563 107.326 213.557 107.392 213.545 107.464C213.545 107.524 213.545 107.59 213.545 107.662H205.319V106.708H212.861L212.357 107.086C212.357 106.402 212.207 105.796 211.907 105.268C211.619 104.728 211.223 104.308 210.719 104.008C210.215 103.708 209.633 103.558 208.973 103.558C208.325 103.558 207.743 103.708 207.227 104.008C206.711 104.308 206.309 104.728 206.021 105.268C205.733 105.808 205.589 106.426 205.589 107.122V107.32C205.589 108.04 205.745 108.676 206.057 109.228C206.381 109.768 206.825 110.194 207.389 110.506C207.965 110.806 208.619 110.956 209.351 110.956C209.927 110.956 210.461 110.854 210.953 110.65C211.457 110.446 211.889 110.134 212.249 109.714L212.969 110.542C212.549 111.046 212.021 111.43 211.385 111.694C210.761 111.958 210.071 112.09 209.315 112.09ZM216.392 112V102.55H220.568C221.636 102.55 222.476 102.754 223.088 103.162C223.712 103.57 224.024 104.17 224.024 104.962C224.024 105.73 223.73 106.324 223.142 106.744C222.554 107.152 221.78 107.356 220.82 107.356L221.072 106.978C222.2 106.978 223.028 107.188 223.556 107.608C224.084 108.028 224.348 108.634 224.348 109.426C224.348 110.242 224.048 110.878 223.448 111.334C222.86 111.778 221.942 112 220.694 112H216.392ZM217.634 110.992H220.64C221.444 110.992 222.05 110.866 222.458 110.614C222.878 110.35 223.088 109.93 223.088 109.354C223.088 108.778 222.902 108.358 222.53 108.094C222.158 107.83 221.57 107.698 220.766 107.698H217.634V110.992ZM217.634 106.744H220.478C221.21 106.744 221.768 106.606 222.152 106.33C222.548 106.054 222.746 105.652 222.746 105.124C222.746 104.596 222.548 104.2 222.152 103.936C221.768 103.672 221.21 103.54 220.478 103.54H217.634V106.744ZM231.303 112.09C230.367 112.09 229.527 111.886 228.783 111.478C228.051 111.058 227.475 110.488 227.055 109.768C226.635 109.036 226.425 108.202 226.425 107.266C226.425 106.318 226.635 105.484 227.055 104.764C227.475 104.044 228.051 103.48 228.783 103.072C229.527 102.664 230.367 102.46 231.303 102.46C232.107 102.46 232.833 102.616 233.481 102.928C234.129 103.24 234.639 103.708 235.011 104.332L234.057 104.98C233.733 104.5 233.331 104.146 232.851 103.918C232.371 103.69 231.849 103.576 231.285 103.576C230.613 103.576 230.007 103.732 229.467 104.044C228.927 104.344 228.501 104.77 228.189 105.322C227.877 105.874 227.721 106.522 227.721 107.266C227.721 108.01 227.877 108.658 228.189 109.21C228.501 109.762 228.927 110.194 229.467 110.506C230.007 110.806 230.613 110.956 231.285 110.956C231.849 110.956 232.371 110.842 232.851 110.614C233.331 110.386 233.733 110.038 234.057 109.57L235.011 110.218C234.639 110.83 234.129 111.298 233.481 111.622C232.833 111.934 232.107 112.09 231.303 112.09ZM244.416 112L240.528 107.32L241.59 106.69L245.928 112H244.416ZM237.486 112V102.55H238.764V112H237.486ZM238.368 107.788V106.69H241.41V107.788H238.368ZM241.698 107.41L240.51 107.23L244.272 102.55H245.658L241.698 107.41ZM248.071 115.492H246.847C247.567 114.256 248.089 112.948 248.413 111.568C248.749 110.176 248.917 108.676 248.917 107.068C248.917 105.46 248.749 103.966 248.413 102.586C248.089 101.194 247.567 99.88 246.847 98.644H248.071C248.755 99.712 249.277 100.972 249.637 102.424C249.997 103.864 250.177 105.412 250.177 107.068C250.177 108.724 249.997 110.272 249.637 111.712C249.277 113.14 248.755 114.4 248.071 115.492Z" fill="black"/>
<path d="M62.5 189C68.023 189 72.5 184.523 72.5 179C72.5 173.477 68.023 169 62.5 169C56.977 169 52.5 173.477 52.5 179C52.5 184.523 56.977 189 62.5 189Z" stroke="black" stroke-width="1.5" stroke-linecap="round" stroke-linejoin="round"/>
<path d="M65.5 175.5C64.815 174.815 63.609 174.339 62.5 174.309M62.5 174.309C61.18 174.273 60 174.87 60 176.5C60 179.5 65.5 178 65.5 181C65.5 182.711 64.036 183.446 62.5 183.391M62.5 174.309V172.5M59.5 182C60.144 182.86 61.343 183.35 62.5 183.391M62.5 183.391V185.5" stroke="black" stroke-width="1.5" stroke-linecap="round" stroke-linejoin="round"/>
<path d="M97.632 184V171.94L98.208 172.552H94.662V171.4H98.928V184H97.632ZM106.962 184.108C105.99 184.108 105.126 183.856 104.37 183.352C103.614 182.836 103.02 182.104 102.588 181.156C102.156 180.196 101.94 179.044 101.94 177.7C101.94 176.356 102.156 175.21 102.588 174.262C103.02 173.302 103.614 172.57 104.37 172.066C105.126 171.55 105.99 171.292 106.962 171.292C107.934 171.292 108.798 171.55 109.554 172.066C110.31 172.57 110.904 173.302 111.336 174.262C111.78 175.21 112.002 176.356 112.002 177.7C112.002 179.044 111.78 180.196 111.336 181.156C110.904 182.104 110.31 182.836 109.554 183.352C108.798 183.856 107.934 184.108 106.962 184.108ZM106.962 182.92C107.706 182.92 108.354 182.722 108.906 182.326C109.458 181.918 109.89 181.33 110.202 180.562C110.514 179.782 110.67 178.828 110.67 177.7C110.67 176.572 110.514 175.624 110.202 174.856C109.89 174.076 109.458 173.488 108.906 173.092C108.354 172.684 107.706 172.48 106.962 172.48C106.242 172.48 105.6 172.684 105.036 173.092C104.472 173.488 104.034 174.076 103.722 174.856C103.41 175.624 103.254 176.572 103.254 177.7C103.254 178.828 103.41 179.782 103.722 180.562C104.034 181.33 104.472 181.918 105.036 182.326C105.6 182.722 106.242 182.92 106.962 182.92ZM118.88 184.108C117.908 184.108 117.044 183.856 116.288 183.352C115.532 182.836 114.938 182.104 114.506 181.156C114.074 180.196 113.858 179.044 113.858 177.7C113.858 176.356 114.074 175.21 114.506 174.262C114.938 173.302 115.532 172.57 116.288 172.066C117.044 171.55 117.908 171.292 118.88 171.292C119.852 171.292 120.716 171.55 121.472 172.066C122.228 172.57 122.822 173.302 123.254 174.262C123.698 175.21 123.92 176.356 123.92 177.7C123.92 179.044 123.698 180.196 123.254 181.156C122.822 182.104 122.228 182.836 121.472 183.352C120.716 183.856 119.852 184.108 118.88 184.108ZM118.88 182.92C119.624 182.92 120.272 182.722 120.824 182.326C121.376 181.918 121.808 181.33 122.12 180.562C122.432 179.782 122.588 178.828 122.588 177.7C122.588 176.572 122.432 175.624 122.12 174.856C121.808 174.076 121.376 173.488 120.824 173.092C120.272 172.684 119.624 172.48 118.88 172.48C118.16 172.48 117.518 172.684 116.954 173.092C116.39 173.488 115.952 174.076 115.64 174.856C115.328 175.624 115.172 176.572 115.172 177.7C115.172 178.828 115.328 179.782 115.64 180.562C115.952 181.33 116.39 181.918 116.954 182.326C117.518 182.722 118.16 182.92 118.88 182.92ZM136.247 184.09C135.431 184.09 134.693 183.904 134.033 183.532C133.373 183.148 132.845 182.602 132.449 181.894C132.065 181.174 131.873 180.298 131.873 179.266C131.873 178.234 132.065 177.364 132.449 176.656C132.833 175.936 133.355 175.39 134.015 175.018C134.675 174.646 135.419 174.46 136.247 174.46C137.147 174.46 137.951 174.664 138.659 175.072C139.379 175.468 139.943 176.032 140.351 176.764C140.759 177.484 140.963 178.318 140.963 179.266C140.963 180.226 140.759 181.066 140.351 181.786C139.943 182.506 139.379 183.07 138.659 183.478C137.951 183.886 137.147 184.09 136.247 184.09ZM131.369 187.492V174.55H132.593V177.394L132.467 179.284L132.647 181.192V187.492H131.369ZM136.157 182.956C136.829 182.956 137.429 182.806 137.957 182.506C138.485 182.194 138.905 181.762 139.217 181.21C139.529 180.646 139.685 179.998 139.685 179.266C139.685 178.534 139.529 177.892 139.217 177.34C138.905 176.788 138.485 176.356 137.957 176.044C137.429 175.732 136.829 175.576 136.157 175.576C135.485 175.576 134.879 175.732 134.339 176.044C133.811 176.356 133.391 176.788 133.079 177.34C132.779 177.892 132.629 178.534 132.629 179.266C132.629 179.998 132.779 180.646 133.079 181.21C133.391 181.762 133.811 182.194 134.339 182.506C134.879 182.806 135.485 182.956 136.157 182.956ZM143.535 184.09C143.271 184.09 143.043 183.994 142.851 183.802C142.671 183.61 142.581 183.376 142.581 183.1C142.581 182.812 142.671 182.578 142.851 182.398C143.043 182.218 143.271 182.128 143.535 182.128C143.799 182.128 144.021 182.218 144.201 182.398C144.393 182.578 144.489 182.812 144.489 183.1C144.489 183.376 144.393 183.61 144.201 183.802C144.021 183.994 143.799 184.09 143.535 184.09Z" fill="black"/>
<path d="M96.624 216V203.4H105.84V204.534H97.938V208.656H102.06C103.548 208.656 104.676 208.962 105.444 209.574C106.224 210.174 106.614 211.062 106.614 212.238C106.614 213.45 106.194 214.38 105.354 215.028C104.526 215.676 103.332 216 101.772 216H96.624ZM97.938 214.938H101.754C102.918 214.938 103.794 214.716 104.382 214.272C104.982 213.816 105.282 213.156 105.282 212.292C105.282 210.576 104.106 209.718 101.754 209.718H97.938V214.938ZM113.429 216.09C112.445 216.09 111.581 215.886 110.837 215.478C110.093 215.058 109.511 214.488 109.091 213.768C108.671 213.036 108.461 212.202 108.461 211.266C108.461 210.33 108.659 209.502 109.055 208.782C109.463 208.062 110.015 207.498 110.711 207.09C111.419 206.67 112.211 206.46 113.087 206.46C113.975 206.46 114.761 206.664 115.445 207.072C116.141 207.468 116.687 208.032 117.083 208.764C117.479 209.484 117.677 210.318 117.677 211.266C117.677 211.326 117.671 211.392 117.659 211.464C117.659 211.524 117.659 211.59 117.659 211.662H109.433V210.708H116.975L116.471 211.086C116.471 210.402 116.321 209.796 116.021 209.268C115.733 208.728 115.337 208.308 114.833 208.008C114.329 207.708 113.747 207.558 113.087 207.558C112.439 207.558 111.857 207.708 111.341 208.008C110.825 208.308 110.423 208.728 110.135 209.268C109.847 209.808 109.703 210.426 109.703 211.122V211.32C109.703 212.04 109.859 212.676 110.171 213.228C110.495 213.768 110.939 214.194 111.503 214.506C112.079 214.806 112.733 214.956 113.465 214.956C114.041 214.956 114.575 214.854 115.067 214.65C115.571 214.446 116.003 214.134 116.363 213.714L117.083 214.542C116.663 215.046 116.135 215.43 115.499 215.694C114.875 215.958 114.185 216.09 113.429 216.09ZM124.466 216.09C123.53 216.09 122.69 215.886 121.946 215.478C121.214 215.058 120.638 214.488 120.218 213.768C119.798 213.036 119.588 212.202 119.588 211.266C119.588 210.318 119.798 209.484 120.218 208.764C120.638 208.044 121.214 207.48 121.946 207.072C122.69 206.664 123.53 206.46 124.466 206.46C125.27 206.46 125.996 206.616 126.644 206.928C127.292 207.24 127.802 207.708 128.174 208.332L127.22 208.98C126.896 208.5 126.494 208.146 126.014 207.918C125.534 207.69 125.012 207.576 124.448 207.576C123.776 207.576 123.17 207.732 122.63 208.044C122.09 208.344 121.664 208.77 121.352 209.322C121.04 209.874 120.884 210.522 120.884 211.266C120.884 212.01 121.04 212.658 121.352 213.21C121.664 213.762 122.09 214.194 122.63 214.506C123.17 214.806 123.776 214.956 124.448 214.956C125.012 214.956 125.534 214.842 126.014 214.614C126.494 214.386 126.896 214.038 127.22 213.57L128.174 214.218C127.802 214.83 127.292 215.298 126.644 215.622C125.996 215.934 125.27 216.09 124.466 216.09ZM130.648 216V206.55H139.144V216H137.866V207.324L138.19 207.666H131.602L131.926 207.324V216H130.648ZM141.049 215.982L141.139 214.884C141.223 214.896 141.301 214.914 141.373 214.938C141.457 214.95 141.529 214.956 141.589 214.956C141.973 214.956 142.279 214.812 142.507 214.524C142.747 214.236 142.927 213.852 143.047 213.372C143.167 212.892 143.251 212.352 143.299 211.752C143.347 211.14 143.389 210.528 143.425 209.916L143.587 206.55H150.517V216H149.239V207.288L149.563 207.666H144.415L144.721 207.27L144.577 210.006C144.541 210.822 144.475 211.602 144.379 212.346C144.295 213.09 144.157 213.744 143.965 214.308C143.785 214.872 143.533 215.316 143.209 215.64C142.885 215.952 142.471 216.108 141.967 216.108C141.823 216.108 141.673 216.096 141.517 216.072C141.373 216.048 141.217 216.018 141.049 215.982ZM160.018 216V213.912L159.964 213.57V210.078C159.964 209.274 159.736 208.656 159.28 208.224C158.836 207.792 158.17 207.576 157.282 207.576C156.67 207.576 156.088 207.678 155.536 207.882C154.984 208.086 154.516 208.356 154.132 208.692L153.556 207.738C154.036 207.33 154.612 207.018 155.284 206.802C155.956 206.574 156.664 206.46 157.408 206.46C158.632 206.46 159.574 206.766 160.234 207.378C160.906 207.978 161.242 208.896 161.242 210.132V216H160.018ZM156.76 216.09C156.052 216.09 155.434 215.976 154.906 215.748C154.39 215.508 153.994 215.184 153.718 214.776C153.442 214.356 153.304 213.876 153.304 213.336C153.304 212.844 153.418 212.4 153.646 212.004C153.886 211.596 154.27 211.272 154.798 211.032C155.338 210.78 156.058 210.654 156.958 210.654H160.216V211.608H156.994C156.082 211.608 155.446 211.77 155.086 212.094C154.738 212.418 154.564 212.82 154.564 213.3C154.564 213.84 154.774 214.272 155.194 214.596C155.614 214.92 156.202 215.082 156.958 215.082C157.678 215.082 158.296 214.92 158.812 214.596C159.34 214.26 159.724 213.78 159.964 213.156L160.252 214.038C160.012 214.662 159.592 215.16 158.992 215.532C158.404 215.904 157.66 216.09 156.76 216.09ZM166.444 216V207.324L166.768 207.666H162.862V206.55H171.304V207.666H167.398L167.722 207.324V216H166.444ZM173.152 216V206.55H174.43V210.726H180.388V206.55H181.666V216H180.388V211.824H174.43V216H173.152ZM189.186 216.09C188.274 216.09 187.452 215.886 186.72 215.478C186 215.058 185.43 214.488 185.01 213.768C184.59 213.036 184.38 212.202 184.38 211.266C184.38 210.318 184.59 209.484 185.01 208.764C185.43 208.044 186 207.48 186.72 207.072C187.44 206.664 188.262 206.46 189.186 206.46C190.122 206.46 190.95 206.664 191.67 207.072C192.402 207.48 192.972 208.044 193.38 208.764C193.8 209.484 194.01 210.318 194.01 211.266C194.01 212.202 193.8 213.036 193.38 213.768C192.972 214.488 192.402 215.058 191.67 215.478C190.938 215.886 190.11 216.09 189.186 216.09ZM189.186 214.956C189.87 214.956 190.476 214.806 191.004 214.506C191.532 214.194 191.946 213.762 192.246 213.21C192.558 212.646 192.714 211.998 192.714 211.266C192.714 210.522 192.558 209.874 192.246 209.322C191.946 208.77 191.532 208.344 191.004 208.044C190.476 207.732 189.876 207.576 189.204 207.576C188.532 207.576 187.932 207.732 187.404 208.044C186.876 208.344 186.456 208.77 186.144 209.322C185.832 209.874 185.676 210.522 185.676 211.266C185.676 211.998 185.832 212.646 186.144 213.21C186.456 213.762 186.876 214.194 187.404 214.506C187.932 214.806 188.526 214.956 189.186 214.956ZM201.453 216V206.55H209.949V216H208.671V207.324L208.995 207.666H202.407L202.731 207.324V216H201.453ZM218.46 216.09C217.644 216.09 216.906 215.904 216.246 215.532C215.586 215.148 215.058 214.602 214.662 213.894C214.278 213.174 214.086 212.298 214.086 211.266C214.086 210.234 214.278 209.364 214.662 208.656C215.046 207.936 215.568 207.39 216.228 207.018C216.888 206.646 217.632 206.46 218.46 206.46C219.36 206.46 220.164 206.664 220.872 207.072C221.592 207.468 222.156 208.032 222.564 208.764C222.972 209.484 223.176 210.318 223.176 211.266C223.176 212.226 222.972 213.066 222.564 213.786C222.156 214.506 221.592 215.07 220.872 215.478C220.164 215.886 219.36 216.09 218.46 216.09ZM213.582 219.492V206.55H214.806V209.394L214.68 211.284L214.86 213.192V219.492H213.582ZM218.37 214.956C219.042 214.956 219.642 214.806 220.17 214.506C220.698 214.194 221.118 213.762 221.43 213.21C221.742 212.646 221.898 211.998 221.898 211.266C221.898 210.534 221.742 209.892 221.43 209.34C221.118 208.788 220.698 208.356 220.17 208.044C219.642 207.732 219.042 207.576 218.37 207.576C217.698 207.576 217.092 207.732 216.552 208.044C216.024 208.356 215.604 208.788 215.292 209.34C214.992 209.892 214.842 210.534 214.842 211.266C214.842 211.998 214.992 212.646 215.292 213.21C215.604 213.762 216.024 214.194 216.552 214.506C217.092 214.806 217.698 214.956 218.37 214.956ZM225.922 216V206.55H227.2V214.056L233.518 206.55H234.652V216H233.374V208.476L227.074 216H225.922ZM245.563 216.108C244.879 216.108 244.201 216.012 243.529 215.82C242.857 215.628 242.263 215.334 241.747 214.938L242.161 213.984C242.617 214.32 243.145 214.578 243.745 214.758C244.345 214.926 244.939 215.01 245.527 215.01C246.115 214.998 246.625 214.914 247.057 214.758C247.489 214.602 247.825 214.386 248.065 214.11C248.305 213.834 248.425 213.522 248.425 213.174C248.425 212.67 248.197 212.28 247.741 212.004C247.285 211.716 246.661 211.572 245.869 211.572H244.249V210.636H245.779C246.247 210.636 246.661 210.576 247.021 210.456C247.381 210.336 247.657 210.162 247.849 209.934C248.053 209.706 248.155 209.436 248.155 209.124C248.155 208.788 248.035 208.5 247.795 208.26C247.567 208.02 247.249 207.84 246.841 207.72C246.433 207.6 245.971 207.54 245.455 207.54C244.987 207.552 244.501 207.624 243.997 207.756C243.493 207.876 242.995 208.062 242.503 208.314L242.143 207.324C242.695 207.036 243.241 206.82 243.781 206.676C244.333 206.52 244.885 206.442 245.437 206.442C246.193 206.418 246.871 206.508 247.471 206.712C248.083 206.916 248.569 207.21 248.929 207.594C249.289 207.966 249.469 208.416 249.469 208.944C249.469 209.412 249.325 209.82 249.037 210.168C248.749 210.516 248.365 210.786 247.885 210.978C247.405 211.17 246.859 211.266 246.247 211.266L246.301 210.924C247.381 210.924 248.221 211.134 248.821 211.554C249.433 211.974 249.739 212.544 249.739 213.264C249.739 213.828 249.553 214.326 249.181 214.758C248.809 215.178 248.305 215.508 247.669 215.748C247.045 215.988 246.343 216.108 245.563 216.108ZM258.508 216V213.912L258.454 213.57V210.078C258.454 209.274 258.226 208.656 257.77 208.224C257.326 207.792 256.66 207.576 255.772 207.576C255.16 207.576 254.578 207.678 254.026 207.882C253.474 208.086 253.006 208.356 252.622 208.692L252.046 207.738C252.526 207.33 253.102 207.018 253.774 206.802C254.446 206.574 255.154 206.46 255.898 206.46C257.122 206.46 258.064 206.766 258.724 207.378C259.396 207.978 259.732 208.896 259.732 210.132V216H258.508ZM255.25 216.09C254.542 216.09 253.924 215.976 253.396 215.748C252.88 215.508 252.484 215.184 252.208 214.776C251.932 214.356 251.794 213.876 251.794 213.336C251.794 212.844 251.908 212.4 252.136 212.004C252.376 211.596 252.76 211.272 253.288 211.032C253.828 210.78 254.548 210.654 255.448 210.654H258.706V211.608H255.484C254.572 211.608 253.936 211.77 253.576 212.094C253.228 212.418 253.054 212.82 253.054 213.3C253.054 213.84 253.264 214.272 253.684 214.596C254.104 214.92 254.692 215.082 255.448 215.082C256.168 215.082 256.786 214.92 257.302 214.596C257.83 214.26 258.214 213.78 258.454 213.156L258.742 214.038C258.502 214.662 258.082 215.16 257.482 215.532C256.894 215.904 256.15 216.09 255.25 216.09ZM270.064 216L266.176 211.32L267.238 210.69L271.576 216H270.064ZM263.134 216V206.55H264.412V216H263.134ZM264.016 211.788V210.69H267.058V211.788H264.016ZM267.346 211.41L266.158 211.23L269.92 206.55H271.306L267.346 211.41ZM279.286 216V213.912L279.232 213.57V210.078C279.232 209.274 279.004 208.656 278.548 208.224C278.104 207.792 277.438 207.576 276.55 207.576C275.938 207.576 275.356 207.678 274.804 207.882C274.252 208.086 273.784 208.356 273.4 208.692L272.824 207.738C273.304 207.33 273.88 207.018 274.552 206.802C275.224 206.574 275.932 206.46 276.676 206.46C277.9 206.46 278.842 206.766 279.502 207.378C280.174 207.978 280.51 208.896 280.51 210.132V216H279.286ZM276.028 216.09C275.32 216.09 274.702 215.976 274.174 215.748C273.658 215.508 273.262 215.184 272.986 214.776C272.71 214.356 272.572 213.876 272.572 213.336C272.572 212.844 272.686 212.4 272.914 212.004C273.154 211.596 273.538 211.272 274.066 211.032C274.606 210.78 275.326 210.654 276.226 210.654H279.484V211.608H276.262C275.35 211.608 274.714 211.77 274.354 212.094C274.006 212.418 273.832 212.82 273.832 213.3C273.832 213.84 274.042 214.272 274.462 214.596C274.882 214.92 275.47 215.082 276.226 215.082C276.946 215.082 277.564 214.92 278.08 214.596C278.608 214.26 278.992 213.78 279.232 213.156L279.52 214.038C279.28 214.662 278.86 215.16 278.26 215.532C277.672 215.904 276.928 216.09 276.028 216.09ZM286.256 216.108C285.572 216.108 284.894 216.012 284.222 215.82C283.55 215.628 282.956 215.334 282.44 214.938L282.854 213.984C283.31 214.32 283.838 214.578 284.438 214.758C285.038 214.926 285.632 215.01 286.22 215.01C286.808 214.998 287.318 214.914 287.75 214.758C288.182 214.602 288.518 214.386 288.758 214.11C288.998 213.834 289.118 213.522 289.118 213.174C289.118 212.67 288.89 212.28 288.434 212.004C287.978 211.716 287.354 211.572 286.562 211.572H284.942V210.636H286.472C286.94 210.636 287.354 210.576 287.714 210.456C288.074 210.336 288.35 210.162 288.542 209.934C288.746 209.706 288.848 209.436 288.848 209.124C288.848 208.788 288.728 208.5 288.488 208.26C288.26 208.02 287.942 207.84 287.534 207.72C287.126 207.6 286.664 207.54 286.148 207.54C285.68 207.552 285.194 207.624 284.69 207.756C284.186 207.876 283.688 208.062 283.196 208.314L282.836 207.324C283.388 207.036 283.934 206.82 284.474 206.676C285.026 206.52 285.578 206.442 286.13 206.442C286.886 206.418 287.564 206.508 288.164 206.712C288.776 206.916 289.262 207.21 289.622 207.594C289.982 207.966 290.162 208.416 290.162 208.944C290.162 209.412 290.018 209.82 289.73 210.168C289.442 210.516 289.058 210.786 288.578 210.978C288.098 211.17 287.552 211.266 286.94 211.266L286.994 210.924C288.074 210.924 288.914 211.134 289.514 211.554C290.126 211.974 290.432 212.544 290.432 213.264C290.432 213.828 290.246 214.326 289.874 214.758C289.502 215.178 288.998 215.508 288.362 215.748C287.738 215.988 287.036 216.108 286.256 216.108ZM297.384 216.09C296.4 216.09 295.536 215.886 294.792 215.478C294.048 215.058 293.466 214.488 293.046 213.768C292.626 213.036 292.416 212.202 292.416 211.266C292.416 210.33 292.614 209.502 293.01 208.782C293.418 208.062 293.97 207.498 294.666 207.09C295.374 206.67 296.166 206.46 297.042 206.46C297.93 206.46 298.716 206.664 299.4 207.072C300.096 207.468 300.642 208.032 301.038 208.764C301.434 209.484 301.632 210.318 301.632 211.266C301.632 211.326 301.626 211.392 301.614 211.464C301.614 211.524 301.614 211.59 301.614 211.662H293.388V210.708H300.93L300.426 211.086C300.426 210.402 300.276 209.796 299.976 209.268C299.688 208.728 299.292 208.308 298.788 208.008C298.284 207.708 297.702 207.558 297.042 207.558C296.394 207.558 295.812 207.708 295.296 208.008C294.78 208.308 294.378 208.728 294.09 209.268C293.802 209.808 293.658 210.426 293.658 211.122V211.32C293.658 212.04 293.814 212.676 294.126 213.228C294.45 213.768 294.894 214.194 295.458 214.506C296.034 214.806 296.688 214.956 297.42 214.956C297.996 214.956 298.53 214.854 299.022 214.65C299.526 214.446 299.958 214.134 300.318 213.714L301.038 214.542C300.618 215.046 300.09 215.43 299.454 215.694C298.83 215.958 298.14 216.09 297.384 216.09ZM313.06 216.09C312.148 216.09 311.326 215.886 310.594 215.478C309.874 215.058 309.304 214.488 308.884 213.768C308.464 213.036 308.254 212.202 308.254 211.266C308.254 210.318 308.464 209.484 308.884 208.764C309.304 208.044 309.874 207.48 310.594 207.072C311.314 206.664 312.136 206.46 313.06 206.46C313.996 206.46 314.824 206.664 315.544 207.072C316.276 207.48 316.846 208.044 317.254 208.764C317.674 209.484 317.884 210.318 317.884 211.266C317.884 212.202 317.674 213.036 317.254 213.768C316.846 214.488 316.276 215.058 315.544 215.478C314.812 215.886 313.984 216.09 313.06 216.09ZM313.06 214.956C313.744 214.956 314.35 214.806 314.878 214.506C315.406 214.194 315.82 213.762 316.12 213.21C316.432 212.646 316.588 211.998 316.588 211.266C316.588 210.522 316.432 209.874 316.12 209.322C315.82 208.77 315.406 208.344 314.878 208.044C314.35 207.732 313.75 207.576 313.078 207.576C312.406 207.576 311.806 207.732 311.278 208.044C310.75 208.344 310.33 208.77 310.018 209.322C309.706 209.874 309.55 210.522 309.55 211.266C309.55 211.998 309.706 212.646 310.018 213.21C310.33 213.762 310.75 214.194 311.278 214.506C311.806 214.806 312.4 214.956 313.06 214.956ZM322.063 216V207.324L322.387 207.666H318.481V206.55H326.923V207.666H323.017L323.341 207.324V216H322.063ZM97.632 238V225.94L98.208 226.552H94.662V225.4H98.928V238H97.632ZM106.962 238.108C105.99 238.108 105.126 237.856 104.37 237.352C103.614 236.836 103.02 236.104 102.588 235.156C102.156 234.196 101.94 233.044 101.94 231.7C101.94 230.356 102.156 229.21 102.588 228.262C103.02 227.302 103.614 226.57 104.37 226.066C105.126 225.55 105.99 225.292 106.962 225.292C107.934 225.292 108.798 225.55 109.554 226.066C110.31 226.57 110.904 227.302 111.336 228.262C111.78 229.21 112.002 230.356 112.002 231.7C112.002 233.044 111.78 234.196 111.336 235.156C110.904 236.104 110.31 236.836 109.554 237.352C108.798 237.856 107.934 238.108 106.962 238.108ZM106.962 236.92C107.706 236.92 108.354 236.722 108.906 236.326C109.458 235.918 109.89 235.33 110.202 234.562C110.514 233.782 110.67 232.828 110.67 231.7C110.67 230.572 110.514 229.624 110.202 228.856C109.89 228.076 109.458 227.488 108.906 227.092C108.354 226.684 107.706 226.48 106.962 226.48C106.242 226.48 105.6 226.684 105.036 227.092C104.472 227.488 104.034 228.076 103.722 228.856C103.41 229.624 103.254 230.572 103.254 231.7C103.254 232.828 103.41 233.782 103.722 234.562C104.034 235.33 104.472 235.918 105.036 236.326C105.6 236.722 106.242 236.92 106.962 236.92ZM118.88 238.108C117.908 238.108 117.044 237.856 116.288 237.352C115.532 236.836 114.938 236.104 114.506 235.156C114.074 234.196 113.858 233.044 113.858 231.7C113.858 230.356 114.074 229.21 114.506 228.262C114.938 227.302 115.532 226.57 116.288 226.066C117.044 225.55 117.908 225.292 118.88 225.292C119.852 225.292 120.716 225.55 121.472 226.066C122.228 226.57 122.822 227.302 123.254 228.262C123.698 229.21 123.92 230.356 123.92 231.7C123.92 233.044 123.698 234.196 123.254 235.156C122.822 236.104 122.228 236.836 121.472 237.352C120.716 237.856 119.852 238.108 118.88 238.108ZM118.88 236.92C119.624 236.92 120.272 236.722 120.824 236.326C121.376 235.918 121.808 235.33 122.12 234.562C122.432 233.782 122.588 232.828 122.588 231.7C122.588 230.572 122.432 229.624 122.12 228.856C121.808 228.076 121.376 227.488 120.824 227.092C120.272 226.684 119.624 226.48 118.88 226.48C118.16 226.48 117.518 226.684 116.954 227.092C116.39 227.488 115.952 228.076 115.64 228.856C115.328 229.624 115.172 230.572 115.172 231.7C115.172 232.828 115.328 233.782 115.64 234.562C115.952 235.33 116.39 235.918 116.954 236.326C117.518 236.722 118.16 236.92 118.88 236.92ZM130.798 238.108C129.826 238.108 128.962 237.856 128.206 237.352C127.45 236.836 126.856 236.104 126.424 235.156C125.992 234.196 125.776 233.044 125.776 231.7C125.776 230.356 125.992 229.21 126.424 228.262C126.856 227.302 127.45 226.57 128.206 226.066C128.962 225.55 129.826 225.292 130.798 225.292C131.77 225.292 132.634 225.55 133.39 226.066C134.146 226.57 134.74 227.302 135.172 228.262C135.616 229.21 135.838 230.356 135.838 231.7C135.838 233.044 135.616 234.196 135.172 235.156C134.74 236.104 134.146 236.836 133.39 237.352C132.634 237.856 131.77 238.108 130.798 238.108ZM130.798 236.92C131.542 236.92 132.19 236.722 132.742 236.326C133.294 235.918 133.726 235.33 134.038 234.562C134.35 233.782 134.506 232.828 134.506 231.7C134.506 230.572 134.35 229.624 134.038 228.856C133.726 228.076 133.294 227.488 132.742 227.092C132.19 226.684 131.542 226.48 130.798 226.48C130.078 226.48 129.436 226.684 128.872 227.092C128.308 227.488 127.87 228.076 127.558 228.856C127.246 229.624 127.09 230.572 127.09 231.7C127.09 232.828 127.246 233.782 127.558 234.562C127.87 235.33 128.308 235.918 128.872 236.326C129.436 236.722 130.078 236.92 130.798 236.92ZM148.165 238.09C147.349 238.09 146.611 237.904 145.951 237.532C145.291 237.148 144.763 236.602 144.367 235.894C143.983 235.174 143.791 234.298 143.791 233.266C143.791 232.234 143.983 231.364 144.367 230.656C144.751 229.936 145.273 229.39 145.933 229.018C146.593 228.646 147.337 228.46 148.165 228.46C149.065 228.46 149.869 228.664 150.577 229.072C151.297 229.468 151.861 230.032 152.269 230.764C152.677 231.484 152.881 232.318 152.881 233.266C152.881 234.226 152.677 235.066 152.269 235.786C151.861 236.506 151.297 237.07 150.577 237.478C149.869 237.886 149.065 238.09 148.165 238.09ZM143.287 241.492V228.55H144.511V231.394L144.385 233.284L144.565 235.192V241.492H143.287ZM148.075 236.956C148.747 236.956 149.347 236.806 149.875 236.506C150.403 236.194 150.823 235.762 151.135 235.21C151.447 234.646 151.603 233.998 151.603 233.266C151.603 232.534 151.447 231.892 151.135 231.34C150.823 230.788 150.403 230.356 149.875 230.044C149.347 229.732 148.747 229.576 148.075 229.576C147.403 229.576 146.797 229.732 146.257 230.044C145.729 230.356 145.309 230.788 144.997 231.34C144.697 231.892 144.547 232.534 144.547 233.266C144.547 233.998 144.697 234.646 144.997 235.21C145.309 235.762 145.729 236.194 146.257 236.506C146.797 236.806 147.403 236.956 148.075 236.956ZM155.453 238.09C155.189 238.09 154.961 237.994 154.769 237.802C154.589 237.61 154.499 237.376 154.499 237.1C154.499 236.812 154.589 236.578 154.769 236.398C154.961 236.218 155.189 236.128 155.453 236.128C155.717 236.128 155.939 236.218 156.119 236.398C156.311 236.578 156.407 236.812 156.407 237.1C156.407 237.376 156.311 237.61 156.119 237.802C155.939 237.994 155.717 238.09 155.453 238.09Z" fill="black"/>
<path d="M53.3574 280.428H71.6431M55.6431 275.857H69.3574C69.9636 275.857 70.545 276.098 70.9737 276.526C71.4023 276.955 71.6431 277.536 71.6431 278.143V291.857C71.6431 292.463 71.4023 293.045 70.9737 293.473C70.545 293.902 69.9636 294.143 69.3574 294.143H55.6431C55.0369 294.143 54.4555 293.902 54.0269 293.473C53.5982 293.045 53.3574 292.463 53.3574 291.857V278.143C53.3574 277.536 53.5982 276.955 54.0269 276.526C54.4555 276.098 55.0369 275.857 55.6431 275.857Z" stroke="black" stroke-linecap="round" stroke-linejoin="round"/>
<path d="M62.5003 286.143C63.1315 286.143 63.6431 285.631 63.6431 285C63.6431 284.369 63.1315 283.857 62.5003 283.857C61.8691 283.857 61.3574 284.369 61.3574 285C61.3574 285.631 61.8691 286.143 62.5003 286.143Z" fill="black"/>
<path d="M57.928 286.143C58.5592 286.143 59.0709 285.631 59.0709 285C59.0709 284.369 58.5592 283.857 57.928 283.857C57.2968 283.857 56.7852 284.369 56.7852 285C56.7852 285.631 57.2968 286.143 57.928 286.143Z" fill="black"/>
<path d="M57.928 290.714C58.5592 290.714 59.0709 290.202 59.0709 289.571C59.0709 288.94 58.5592 288.428 57.928 288.428C57.2968 288.428 56.7852 288.94 56.7852 289.571C56.7852 290.202 57.2968 290.714 57.928 290.714Z" fill="black"/>
<path d="M97.632 290V277.94L98.208 278.552H94.662V277.4H98.928V290H97.632ZM102.084 285.68V284.564H106.8V285.68H102.084ZM112.223 290.108C111.311 290.108 110.447 289.964 109.631 289.676C108.827 289.376 108.179 288.98 107.687 288.488L108.317 287.462C108.725 287.882 109.271 288.23 109.955 288.506C110.651 288.782 111.407 288.92 112.223 288.92C113.267 288.92 114.065 288.692 114.617 288.236C115.181 287.78 115.463 287.168 115.463 286.4C115.463 285.632 115.187 285.02 114.635 284.564C114.095 284.108 113.237 283.88 112.061 283.88H111.161V282.926L115.049 278.048L115.229 278.552H108.209V277.4H116.309V278.318L112.421 283.196L111.791 282.782H112.277C113.789 282.782 114.917 283.118 115.661 283.79C116.417 284.462 116.795 285.326 116.795 286.382C116.795 287.09 116.627 287.726 116.291 288.29C115.955 288.854 115.445 289.298 114.761 289.622C114.089 289.946 113.243 290.108 112.223 290.108ZM129.092 290.09C128.276 290.09 127.538 289.904 126.878 289.532C126.218 289.148 125.69 288.602 125.294 287.894C124.91 287.174 124.718 286.298 124.718 285.266C124.718 284.234 124.91 283.364 125.294 282.656C125.678 281.936 126.2 281.39 126.86 281.018C127.52 280.646 128.264 280.46 129.092 280.46C129.992 280.46 130.796 280.664 131.504 281.072C132.224 281.468 132.788 282.032 133.196 282.764C133.604 283.484 133.808 284.318 133.808 285.266C133.808 286.226 133.604 287.066 133.196 287.786C132.788 288.506 132.224 289.07 131.504 289.478C130.796 289.886 129.992 290.09 129.092 290.09ZM124.214 293.492V280.55H125.438V283.394L125.312 285.284L125.492 287.192V293.492H124.214ZM129.002 288.956C129.674 288.956 130.274 288.806 130.802 288.506C131.33 288.194 131.75 287.762 132.062 287.21C132.374 286.646 132.53 285.998 132.53 285.266C132.53 284.534 132.374 283.892 132.062 283.34C131.75 282.788 131.33 282.356 130.802 282.044C130.274 281.732 129.674 281.576 129.002 281.576C128.33 281.576 127.724 281.732 127.184 282.044C126.656 282.356 126.236 282.788 125.924 283.34C125.624 283.892 125.474 284.534 125.474 285.266C125.474 285.998 125.624 286.646 125.924 287.21C126.236 287.762 126.656 288.194 127.184 288.506C127.724 288.806 128.33 288.956 129.002 288.956ZM142.37 290V287.912L142.316 287.57V284.078C142.316 283.274 142.088 282.656 141.632 282.224C141.188 281.792 140.522 281.576 139.634 281.576C139.022 281.576 138.44 281.678 137.888 281.882C137.336 282.086 136.868 282.356 136.484 282.692L135.908 281.738C136.388 281.33 136.964 281.018 137.636 280.802C138.308 280.574 139.016 280.46 139.76 280.46C140.984 280.46 141.926 280.766 142.586 281.378C143.258 281.978 143.594 282.896 143.594 284.132V290H142.37ZM139.112 290.09C138.404 290.09 137.786 289.976 137.258 289.748C136.742 289.508 136.346 289.184 136.07 288.776C135.794 288.356 135.656 287.876 135.656 287.336C135.656 286.844 135.77 286.4 135.998 286.004C136.238 285.596 136.622 285.272 137.15 285.032C137.69 284.78 138.41 284.654 139.31 284.654H142.568V285.608H139.346C138.434 285.608 137.798 285.77 137.438 286.094C137.09 286.418 136.916 286.82 136.916 287.3C136.916 287.84 137.126 288.272 137.546 288.596C137.966 288.92 138.554 289.082 139.31 289.082C140.03 289.082 140.648 288.92 141.164 288.596C141.692 288.26 142.076 287.78 142.316 287.156L142.604 288.038C142.364 288.662 141.944 289.16 141.344 289.532C140.756 289.904 140.012 290.09 139.112 290.09ZM151.244 290.108C150.476 290.108 149.792 289.982 149.192 289.73C148.604 289.478 148.1 289.094 147.68 288.578C147.26 288.062 146.942 287.426 146.726 286.67C146.51 285.902 146.402 285.014 146.402 284.006C146.402 283.106 146.486 282.32 146.654 281.648C146.822 280.964 147.056 280.376 147.356 279.884C147.656 279.392 148.004 278.978 148.4 278.642C148.808 278.294 149.246 278.018 149.714 277.814C150.194 277.598 150.686 277.436 151.19 277.328L155.438 276.338L155.654 277.526L151.658 278.426C151.406 278.486 151.1 278.57 150.74 278.678C150.392 278.786 150.032 278.948 149.66 279.164C149.3 279.38 148.964 279.68 148.652 280.064C148.34 280.448 148.088 280.946 147.896 281.558C147.716 282.158 147.626 282.908 147.626 283.808C147.626 284 147.632 284.156 147.644 284.276C147.656 284.384 147.668 284.504 147.68 284.636C147.704 284.756 147.722 284.936 147.734 285.176L147.176 284.708C147.308 283.976 147.578 283.34 147.986 282.8C148.394 282.248 148.904 281.822 149.516 281.522C150.14 281.21 150.83 281.054 151.586 281.054C152.462 281.054 153.242 281.246 153.926 281.63C154.61 282.002 155.144 282.524 155.528 283.196C155.924 283.868 156.122 284.648 156.122 285.536C156.122 286.412 155.918 287.198 155.51 287.894C155.114 288.59 154.55 289.136 153.818 289.532C153.086 289.916 152.228 290.108 151.244 290.108ZM151.388 289.046C152.06 289.046 152.654 288.896 153.17 288.596C153.686 288.284 154.088 287.864 154.376 287.336C154.676 286.808 154.826 286.214 154.826 285.554C154.826 284.906 154.676 284.33 154.376 283.826C154.088 283.322 153.686 282.926 153.17 282.638C152.654 282.338 152.054 282.188 151.37 282.188C150.698 282.188 150.104 282.332 149.588 282.62C149.072 282.896 148.664 283.286 148.364 283.79C148.076 284.294 147.932 284.876 147.932 285.536C147.932 286.196 148.076 286.79 148.364 287.318C148.664 287.846 149.072 288.266 149.588 288.578C150.116 288.89 150.716 289.046 151.388 289.046ZM162.749 290.09C161.837 290.09 161.015 289.886 160.283 289.478C159.563 289.058 158.993 288.488 158.573 287.768C158.153 287.036 157.943 286.202 157.943 285.266C157.943 284.318 158.153 283.484 158.573 282.764C158.993 282.044 159.563 281.48 160.283 281.072C161.003 280.664 161.825 280.46 162.749 280.46C163.685 280.46 164.513 280.664 165.233 281.072C165.965 281.48 166.535 282.044 166.943 282.764C167.363 283.484 167.573 284.318 167.573 285.266C167.573 286.202 167.363 287.036 166.943 287.768C166.535 288.488 165.965 289.058 165.233 289.478C164.501 289.886 163.673 290.09 162.749 290.09ZM162.749 288.956C163.433 288.956 164.039 288.806 164.567 288.506C165.095 288.194 165.509 287.762 165.809 287.21C166.121 286.646 166.277 285.998 166.277 285.266C166.277 284.522 166.121 283.874 165.809 283.322C165.509 282.77 165.095 282.344 164.567 282.044C164.039 281.732 163.439 281.576 162.767 281.576C162.095 281.576 161.495 281.732 160.967 282.044C160.439 282.344 160.019 282.77 159.707 283.322C159.395 283.874 159.239 284.522 159.239 285.266C159.239 285.998 159.395 286.646 159.707 287.21C160.019 287.762 160.439 288.194 160.967 288.506C161.495 288.806 162.089 288.956 162.749 288.956ZM176.28 286.004C175.728 286.244 175.17 286.436 174.606 286.58C174.054 286.712 173.502 286.778 172.95 286.778C171.834 286.778 170.952 286.526 170.304 286.022C169.656 285.506 169.332 284.714 169.332 283.646V280.55H170.592V283.574C170.592 284.294 170.826 284.834 171.294 285.194C171.762 285.554 172.392 285.734 173.184 285.734C173.664 285.734 174.168 285.674 174.696 285.554C175.224 285.422 175.758 285.236 176.298 284.996L176.28 286.004ZM176.172 290V280.55H177.45V290H176.172ZM181.08 290V280.55H182.358V288.056L188.676 280.55H189.81V290H188.532V282.476L182.232 290H181.08ZM191.924 290L195.92 284.816L195.902 285.446L192.104 280.55H193.544L196.658 284.6L196.118 284.582L199.232 280.55H200.636L196.802 285.5L196.82 284.816L200.852 290H199.394L196.1 285.68L196.604 285.752L193.364 290H191.924ZM214.138 289.388V281.666H209.584L209.476 283.772C209.452 284.408 209.41 285.032 209.35 285.644C209.302 286.256 209.212 286.82 209.08 287.336C208.96 287.84 208.786 288.254 208.558 288.578C208.33 288.89 208.036 289.07 207.676 289.118L206.398 288.884C206.77 288.896 207.076 288.764 207.316 288.488C207.556 288.2 207.742 287.81 207.874 287.318C208.006 286.826 208.102 286.268 208.162 285.644C208.222 285.008 208.27 284.36 208.306 283.7L208.432 280.55H215.416V289.388H214.138ZM206.002 292.286V288.884H216.892V292.286H215.686V290H207.208V292.286H206.002ZM219.382 290V280.55H220.66V284.726H226.618V280.55H227.896V290H226.618V285.824H220.66V290H219.382ZM237.631 290V286.598L237.865 286.868H234.661C233.449 286.868 232.501 286.604 231.817 286.076C231.133 285.548 230.791 284.78 230.791 283.772C230.791 282.692 231.157 281.888 231.889 281.36C232.621 280.82 233.599 280.55 234.823 280.55H238.801V290H237.631ZM230.719 290L233.311 286.364H234.643L232.105 290H230.719ZM237.631 286.22V281.288L237.865 281.666H234.859C233.983 281.666 233.299 281.834 232.807 282.17C232.327 282.506 232.087 283.052 232.087 283.808C232.087 285.212 232.981 285.914 234.769 285.914H237.865L237.631 286.22Z" fill="black"/>
<path d="M58.75 342H64.75M52.75 336.75H72.25M67.75 342H69.25M54.25 332.25C53.5 332.25 52.75 333 52.75 333.75V344.25C52.75 345 53.5 345.75 54.25 345.75H70.75C71.5 345.75 72.25 345 72.25 344.25V333.75C72.25 333 71.5 332.25 70.75 332.25H54.25Z" stroke="black" stroke-width="2" stroke-linecap="round" stroke-linejoin="round"/>
<path d="M102.15 344.108C101.202 344.108 100.32 343.952 99.504 343.64C98.7 343.316 97.998 342.866 97.398 342.29C96.81 341.702 96.348 341.024 96.012 340.256C95.688 339.476 95.526 338.624 95.526 337.7C95.526 336.776 95.688 335.93 96.012 335.162C96.348 334.382 96.81 333.704 97.398 333.128C97.998 332.54 98.7 332.09 99.504 331.778C100.308 331.454 101.19 331.292 102.15 331.292C103.098 331.292 103.974 331.454 104.778 331.778C105.582 332.09 106.278 332.534 106.866 333.11C107.466 333.686 107.928 334.364 108.252 335.144C108.588 335.924 108.756 336.776 108.756 337.7C108.756 338.624 108.588 339.476 108.252 340.256C107.928 341.036 107.466 341.714 106.866 342.29C106.278 342.866 105.582 343.316 104.778 343.64C103.974 343.952 103.098 344.108 102.15 344.108ZM102.15 342.92C102.906 342.92 103.602 342.794 104.238 342.542C104.886 342.278 105.444 341.912 105.912 341.444C106.392 340.964 106.764 340.412 107.028 339.788C107.292 339.152 107.424 338.456 107.424 337.7C107.424 336.944 107.292 336.254 107.028 335.63C106.764 334.994 106.392 334.442 105.912 333.974C105.444 333.494 104.886 333.128 104.238 332.876C103.602 332.612 102.906 332.48 102.15 332.48C101.394 332.48 100.692 332.612 100.044 332.876C99.396 333.128 98.832 333.494 98.352 333.974C97.884 334.442 97.512 334.994 97.236 335.63C96.972 336.254 96.84 336.944 96.84 337.7C96.84 338.444 96.972 339.134 97.236 339.77C97.512 340.406 97.884 340.964 98.352 341.444C98.832 341.912 99.396 342.278 100.044 342.542C100.692 342.794 101.394 342.92 102.15 342.92ZM111.629 344V334.55H120.125V344H118.847V335.324L119.171 335.666H112.583L112.907 335.324V344H111.629ZM122.029 343.982L122.119 342.884C122.203 342.896 122.281 342.914 122.353 342.938C122.437 342.95 122.509 342.956 122.569 342.956C122.953 342.956 123.259 342.812 123.487 342.524C123.727 342.236 123.907 341.852 124.027 341.372C124.147 340.892 124.231 340.352 124.279 339.752C124.327 339.14 124.369 338.528 124.405 337.916L124.567 334.55H131.497V344H130.219V335.288L130.543 335.666H125.395L125.701 335.27L125.557 338.006C125.521 338.822 125.455 339.602 125.359 340.346C125.275 341.09 125.137 341.744 124.945 342.308C124.765 342.872 124.513 343.316 124.189 343.64C123.865 343.952 123.451 344.108 122.947 344.108C122.803 344.108 122.653 344.096 122.497 344.072C122.353 344.048 122.197 344.018 122.029 343.982ZM140.999 344V341.912L140.945 341.57V338.078C140.945 337.274 140.717 336.656 140.261 336.224C139.817 335.792 139.151 335.576 138.263 335.576C137.651 335.576 137.069 335.678 136.517 335.882C135.965 336.086 135.497 336.356 135.113 336.692L134.537 335.738C135.017 335.33 135.593 335.018 136.265 334.802C136.937 334.574 137.645 334.46 138.389 334.46C139.613 334.46 140.555 334.766 141.215 335.378C141.887 335.978 142.223 336.896 142.223 338.132V344H140.999ZM137.741 344.09C137.033 344.09 136.415 343.976 135.887 343.748C135.371 343.508 134.975 343.184 134.699 342.776C134.423 342.356 134.285 341.876 134.285 341.336C134.285 340.844 134.399 340.4 134.627 340.004C134.867 339.596 135.251 339.272 135.779 339.032C136.319 338.78 137.039 338.654 137.938 338.654H141.197V339.608H137.975C137.063 339.608 136.427 339.77 136.067 340.094C135.719 340.418 135.545 340.82 135.545 341.3C135.545 341.84 135.755 342.272 136.175 342.596C136.595 342.92 137.183 343.082 137.938 343.082C138.659 343.082 139.277 342.92 139.793 342.596C140.321 342.26 140.705 341.78 140.945 341.156L141.233 342.038C140.993 342.662 140.573 343.16 139.973 343.532C139.385 343.904 138.641 344.09 137.741 344.09ZM147.425 344V335.324L147.749 335.666H143.843V334.55H152.285V335.666H148.379L148.703 335.324V344H147.425ZM160 344V341.912L159.946 341.57V338.078C159.946 337.274 159.718 336.656 159.262 336.224C158.818 335.792 158.152 335.576 157.264 335.576C156.652 335.576 156.07 335.678 155.518 335.882C154.966 336.086 154.498 336.356 154.114 336.692L153.538 335.738C154.018 335.33 154.594 335.018 155.266 334.802C155.938 334.574 156.646 334.46 157.39 334.46C158.614 334.46 159.556 334.766 160.216 335.378C160.888 335.978 161.224 336.896 161.224 338.132V344H160ZM156.742 344.09C156.034 344.09 155.416 343.976 154.888 343.748C154.372 343.508 153.976 343.184 153.7 342.776C153.424 342.356 153.286 341.876 153.286 341.336C153.286 340.844 153.4 340.4 153.628 340.004C153.868 339.596 154.252 339.272 154.78 339.032C155.32 338.78 156.04 338.654 156.94 338.654H160.198V339.608H156.976C156.064 339.608 155.428 339.77 155.068 340.094C154.72 340.418 154.546 340.82 154.546 341.3C154.546 341.84 154.756 342.272 155.176 342.596C155.596 342.92 156.184 343.082 156.94 343.082C157.66 343.082 158.278 342.92 158.794 342.596C159.322 342.26 159.706 341.78 159.946 341.156L160.234 342.038C159.994 342.662 159.574 343.16 158.974 343.532C158.386 343.904 157.642 344.09 156.742 344.09ZM173.226 344.09C172.314 344.09 171.492 343.886 170.76 343.478C170.04 343.058 169.47 342.488 169.05 341.768C168.63 341.036 168.42 340.202 168.42 339.266C168.42 338.318 168.63 337.484 169.05 336.764C169.47 336.044 170.04 335.48 170.76 335.072C171.48 334.664 172.302 334.46 173.226 334.46C174.162 334.46 174.99 334.664 175.71 335.072C176.442 335.48 177.012 336.044 177.42 336.764C177.84 337.484 178.05 338.318 178.05 339.266C178.05 340.202 177.84 341.036 177.42 341.768C177.012 342.488 176.442 343.058 175.71 343.478C174.978 343.886 174.15 344.09 173.226 344.09ZM173.226 342.956C173.91 342.956 174.516 342.806 175.044 342.506C175.572 342.194 175.986 341.762 176.286 341.21C176.598 340.646 176.754 339.998 176.754 339.266C176.754 338.522 176.598 337.874 176.286 337.322C175.986 336.77 175.572 336.344 175.044 336.044C174.516 335.732 173.916 335.576 173.244 335.576C172.572 335.576 171.972 335.732 171.444 336.044C170.916 336.344 170.496 336.77 170.184 337.322C169.872 337.874 169.716 338.522 169.716 339.266C169.716 339.998 169.872 340.646 170.184 341.21C170.496 341.762 170.916 342.194 171.444 342.506C171.972 342.806 172.566 342.956 173.226 342.956ZM180.781 344V334.55H182.059V338.726H188.017V334.55H189.295V344H188.017V339.824H182.059V344H180.781ZM191.199 343.982L191.289 342.884C191.373 342.896 191.451 342.914 191.523 342.938C191.607 342.95 191.679 342.956 191.739 342.956C192.123 342.956 192.429 342.812 192.657 342.524C192.897 342.236 193.077 341.852 193.197 341.372C193.317 340.892 193.401 340.352 193.449 339.752C193.497 339.14 193.539 338.528 193.575 337.916L193.737 334.55H200.667V344H199.389V335.288L199.713 335.666H194.565L194.871 335.27L194.727 338.006C194.691 338.822 194.625 339.602 194.529 340.346C194.445 341.09 194.307 341.744 194.115 342.308C193.935 342.872 193.683 343.316 193.359 343.64C193.035 343.952 192.621 344.108 192.117 344.108C191.973 344.108 191.823 344.096 191.667 344.072C191.523 344.048 191.367 344.018 191.199 343.982ZM210.168 344V341.912L210.114 341.57V338.078C210.114 337.274 209.886 336.656 209.43 336.224C208.986 335.792 208.32 335.576 207.432 335.576C206.82 335.576 206.238 335.678 205.686 335.882C205.134 336.086 204.666 336.356 204.282 336.692L203.706 335.738C204.186 335.33 204.762 335.018 205.434 334.802C206.106 334.574 206.814 334.46 207.558 334.46C208.782 334.46 209.724 334.766 210.384 335.378C211.056 335.978 211.392 336.896 211.392 338.132V344H210.168ZM206.91 344.09C206.202 344.09 205.584 343.976 205.056 343.748C204.54 343.508 204.144 343.184 203.868 342.776C203.592 342.356 203.454 341.876 203.454 341.336C203.454 340.844 203.568 340.4 203.796 340.004C204.036 339.596 204.42 339.272 204.948 339.032C205.488 338.78 206.208 338.654 207.108 338.654H210.366V339.608H207.144C206.232 339.608 205.596 339.77 205.236 340.094C204.888 340.418 204.714 340.82 204.714 341.3C204.714 341.84 204.924 342.272 205.344 342.596C205.764 342.92 206.352 343.082 207.108 343.082C207.828 343.082 208.446 342.92 208.962 342.596C209.49 342.26 209.874 341.78 210.114 341.156L210.402 342.038C210.162 342.662 209.742 343.16 209.142 343.532C208.554 343.904 207.81 344.09 206.91 344.09ZM214.795 344V334.55H216.073V342.056L222.391 334.55H223.525V344H222.247V336.476L215.947 344H214.795ZM219.079 333.182C218.287 333.182 217.645 332.984 217.153 332.588C216.673 332.18 216.421 331.598 216.397 330.842H217.315C217.327 331.322 217.495 331.7 217.819 331.976C218.143 332.252 218.563 332.39 219.079 332.39C219.595 332.39 220.015 332.252 220.339 331.976C220.675 331.7 220.849 331.322 220.861 330.842H221.779C221.767 331.598 221.515 332.18 221.023 332.588C220.531 332.984 219.883 333.182 219.079 333.182ZM227.187 344V334.55H228.465V338.726H234.423V334.55H235.701V344H234.423V339.824H228.465V344H227.187Z" fill="black"/>
</svg>
