<svg width="449" height="337" viewBox="0 0 449 337" fill="none" xmlns="http://www.w3.org/2000/svg">
<rect x="0.5" width="448" height="337" rx="20" fill="#D7F1F4"/>
<path d="M141.558 70C141.309 70 141.103 69.9193 140.942 69.758C140.781 69.5967 140.7 69.3913 140.7 69.142V53.676C140.7 53.4267 140.781 53.2213 140.942 53.06C141.103 52.8987 141.309 52.818 141.558 52.818H153.262C153.511 52.818 153.717 52.8987 153.878 53.06C154.039 53.2213 154.12 53.4267 154.12 53.676V69.142C154.12 69.3913 154.039 69.5967 153.878 69.758C153.717 69.9193 153.511 70 153.262 70C153.013 70 152.807 69.9193 152.646 69.758C152.485 69.5967 152.404 69.3913 152.404 69.142V54.424H142.416V69.142C142.416 69.3913 142.335 69.5967 142.174 69.758C142.013 69.9193 141.807 70 141.558 70ZM163.769 70.11C162.595 70.11 161.547 69.846 160.623 69.318C159.699 68.79 158.973 68.064 158.445 67.14C157.917 66.216 157.653 65.1673 157.653 63.994C157.653 62.806 157.917 61.75 158.445 60.826C158.973 59.902 159.699 59.176 160.623 58.648C161.547 58.12 162.595 57.856 163.769 57.856C164.942 57.856 165.983 58.12 166.893 58.648C167.817 59.176 168.543 59.902 169.071 60.826C169.599 61.75 169.87 62.806 169.885 63.994C169.885 65.1673 169.613 66.216 169.071 67.14C168.543 68.064 167.817 68.79 166.893 69.318C165.983 69.846 164.942 70.11 163.769 70.11ZM163.769 68.57C164.619 68.57 165.382 68.372 166.057 67.976C166.731 67.58 167.259 67.0373 167.641 66.348C168.022 65.6587 168.213 64.874 168.213 63.994C168.213 63.114 168.022 62.3293 167.641 61.64C167.259 60.936 166.731 60.386 166.057 59.99C165.382 59.594 164.619 59.396 163.769 59.396C162.918 59.396 162.155 59.594 161.481 59.99C160.806 60.386 160.271 60.936 159.875 61.64C159.493 62.3293 159.303 63.114 159.303 63.994C159.303 64.874 159.493 65.6587 159.875 66.348C160.271 67.0373 160.806 67.58 161.481 67.976C162.155 68.372 162.918 68.57 163.769 68.57ZM177.117 66.282C176.047 66.282 175.145 66.062 174.411 65.622C173.693 65.182 173.143 64.5587 172.761 63.752C172.38 62.9453 172.189 61.9993 172.189 60.914V58.824C172.189 58.56 172.263 58.3547 172.409 58.208C172.571 58.0467 172.783 57.966 173.047 57.966C173.297 57.966 173.495 58.0467 173.641 58.208C173.803 58.3547 173.883 58.56 173.883 58.824V60.914C173.883 62.0727 174.162 62.9893 174.719 63.664C175.291 64.3387 176.149 64.676 177.293 64.676C178.217 64.676 178.965 64.5147 179.537 64.192C180.124 63.8547 180.417 63.4293 180.417 62.916H181.275C181.261 63.5613 181.07 64.1407 180.703 64.654C180.337 65.1527 179.845 65.5487 179.229 65.842C178.613 66.1353 177.909 66.282 177.117 66.282ZM181.275 70C181.011 70 180.799 69.9267 180.637 69.78C180.491 69.6187 180.417 69.406 180.417 69.142V58.824C180.417 58.56 180.491 58.3547 180.637 58.208C180.799 58.0467 181.011 57.966 181.275 57.966C181.525 57.966 181.723 58.0467 181.869 58.208C182.031 58.3547 182.111 58.56 182.111 58.824V69.142C182.111 69.406 182.031 69.6187 181.869 69.78C181.723 69.9267 181.525 70 181.275 70ZM202.328 70C202.079 70 201.873 69.9267 201.712 69.78C201.551 69.6187 201.47 69.4133 201.47 69.164V62.828C201.47 61.7867 201.199 60.9653 200.656 60.364C200.113 59.748 199.417 59.44 198.566 59.44C197.657 59.44 196.909 59.748 196.322 60.364C195.75 60.9653 195.471 61.772 195.486 62.784H193.968C193.983 61.8013 194.195 60.936 194.606 60.188C195.017 59.44 195.581 58.8607 196.3 58.45C197.019 58.0393 197.833 57.834 198.742 57.834C199.607 57.834 200.37 58.0393 201.03 58.45C201.705 58.8607 202.225 59.44 202.592 60.188C202.973 60.936 203.164 61.816 203.164 62.828V69.164C203.164 69.4133 203.083 69.6187 202.922 69.78C202.775 69.9267 202.577 70 202.328 70ZM186.928 70C186.664 70 186.451 69.9267 186.29 69.78C186.143 69.6187 186.07 69.4133 186.07 69.164V58.824C186.07 58.5747 186.143 58.3693 186.29 58.208C186.451 58.0467 186.664 57.966 186.928 57.966C187.177 57.966 187.375 58.0467 187.522 58.208C187.683 58.3693 187.764 58.5747 187.764 58.824V69.164C187.764 69.4133 187.683 69.6187 187.522 69.78C187.375 69.9267 187.177 70 186.928 70ZM194.65 70C194.401 70 194.195 69.9267 194.034 69.78C193.873 69.6187 193.792 69.4133 193.792 69.164V62.828C193.792 61.7867 193.521 60.9653 192.978 60.364C192.435 59.748 191.739 59.44 190.888 59.44C189.979 59.44 189.231 59.7407 188.644 60.342C188.057 60.9287 187.764 61.6987 187.764 62.652H186.554C186.583 61.7133 186.789 60.8847 187.17 60.166C187.566 59.4327 188.101 58.8607 188.776 58.45C189.451 58.0393 190.213 57.834 191.064 57.834C191.929 57.834 192.692 58.0393 193.352 58.45C194.027 58.8607 194.547 59.44 194.914 60.188C195.295 60.936 195.486 61.816 195.486 62.828V69.164C195.486 69.4133 195.405 69.6187 195.244 69.78C195.097 69.9267 194.899 70 194.65 70ZM212.212 70.11C211.082 70.11 210.07 69.846 209.176 69.318C208.281 68.7753 207.57 68.042 207.042 67.118C206.528 66.194 206.272 65.1527 206.272 63.994C206.272 62.8207 206.536 61.772 207.064 60.848C207.606 59.924 208.34 59.198 209.264 58.67C210.188 58.1273 211.229 57.856 212.388 57.856C213.546 57.856 214.58 58.1273 215.49 58.67C216.414 59.198 217.14 59.924 217.668 60.848C218.21 61.772 218.489 62.8207 218.504 63.994L217.822 64.522C217.822 65.578 217.572 66.5313 217.074 67.382C216.59 68.218 215.922 68.8853 215.072 69.384C214.236 69.868 213.282 70.11 212.212 70.11ZM212.388 68.57C213.238 68.57 213.994 68.372 214.654 67.976C215.328 67.58 215.856 67.0373 216.238 66.348C216.634 65.644 216.832 64.8593 216.832 63.994C216.832 63.114 216.634 62.3293 216.238 61.64C215.856 60.9507 215.328 60.408 214.654 60.012C213.994 59.6013 213.238 59.396 212.388 59.396C211.552 59.396 210.796 59.6013 210.122 60.012C209.447 60.408 208.912 60.9507 208.516 61.64C208.12 62.3293 207.922 63.114 207.922 63.994C207.922 64.8593 208.12 65.644 208.516 66.348C208.912 67.0373 209.447 67.58 210.122 67.976C210.796 68.372 211.552 68.57 212.388 68.57ZM217.646 70C217.396 70 217.191 69.9267 217.03 69.78C216.868 69.6187 216.788 69.4133 216.788 69.164V65.402L217.206 63.664L218.504 63.994V69.164C218.504 69.4133 218.423 69.6187 218.262 69.78C218.1 69.9267 217.895 70 217.646 70ZM229.322 70C229.072 70 228.867 69.9193 228.706 69.758C228.544 69.5967 228.464 69.3913 228.464 69.142V53.676C228.464 53.4267 228.544 53.2213 228.706 53.06C228.867 52.8987 229.072 52.818 229.322 52.818H233.722C234.807 52.818 235.768 53.06 236.604 53.544C237.44 54.0133 238.092 54.666 238.562 55.502C239.031 56.338 239.266 57.306 239.266 58.406C239.266 59.4767 239.031 60.43 238.562 61.266C238.092 62.0873 237.44 62.74 236.604 63.224C235.768 63.6933 234.807 63.928 233.722 63.928H230.18V69.142C230.18 69.3913 230.099 69.5967 229.938 69.758C229.776 69.9193 229.571 70 229.322 70ZM230.18 62.278H233.722C234.47 62.278 235.137 62.1167 235.724 61.794C236.31 61.4567 236.765 60.9947 237.088 60.408C237.425 59.8213 237.594 59.154 237.594 58.406C237.594 57.6287 237.425 56.9467 237.088 56.36C236.765 55.7733 236.31 55.3113 235.724 54.974C235.137 54.6367 234.47 54.468 233.722 54.468H230.18V62.278ZM246.763 70.11C245.589 70.11 244.541 69.846 243.617 69.318C242.693 68.79 241.967 68.064 241.439 67.14C240.911 66.216 240.647 65.1673 240.647 63.994C240.647 62.806 240.911 61.75 241.439 60.826C241.967 59.902 242.693 59.176 243.617 58.648C244.541 58.12 245.589 57.856 246.763 57.856C247.936 57.856 248.977 58.12 249.887 58.648C250.811 59.176 251.537 59.902 252.065 60.826C252.593 61.75 252.864 62.806 252.879 63.994C252.879 65.1673 252.607 66.216 252.065 67.14C251.537 68.064 250.811 68.79 249.887 69.318C248.977 69.846 247.936 70.11 246.763 70.11ZM246.763 68.57C247.613 68.57 248.376 68.372 249.051 67.976C249.725 67.58 250.253 67.0373 250.635 66.348C251.016 65.6587 251.207 64.874 251.207 63.994C251.207 63.114 251.016 62.3293 250.635 61.64C250.253 60.936 249.725 60.386 249.051 59.99C248.376 59.594 247.613 59.396 246.763 59.396C245.912 59.396 245.149 59.594 244.475 59.99C243.8 60.386 243.265 60.936 242.869 61.64C242.487 62.3293 242.297 63.114 242.297 63.994C242.297 64.874 242.487 65.6587 242.869 66.348C243.265 67.0373 243.8 67.58 244.475 67.976C245.149 68.372 245.912 68.57 246.763 68.57ZM261.541 70.11C260.383 70.11 259.349 69.846 258.439 69.318C257.545 68.7753 256.833 68.042 256.305 67.118C255.792 66.194 255.535 65.1527 255.535 63.994C255.535 62.8207 255.785 61.772 256.283 60.848C256.782 59.924 257.464 59.198 258.329 58.67C259.195 58.1273 260.192 57.856 261.321 57.856C262.216 57.856 263.037 58.032 263.785 58.384C264.548 58.736 265.215 59.264 265.787 59.968C265.949 60.144 266.007 60.3347 265.963 60.54C265.919 60.7307 265.795 60.8993 265.589 61.046C265.428 61.1633 265.245 61.2073 265.039 61.178C264.849 61.134 264.68 61.024 264.533 60.848C263.683 59.88 262.612 59.396 261.321 59.396C260.5 59.396 259.774 59.594 259.143 59.99C258.527 60.386 258.043 60.9287 257.691 61.618C257.354 62.3073 257.185 63.0993 257.185 63.994C257.185 64.874 257.369 65.6587 257.735 66.348C258.102 67.0373 258.615 67.58 259.275 67.976C259.935 68.372 260.691 68.57 261.541 68.57C262.113 68.57 262.634 68.4967 263.103 68.35C263.587 68.1887 264.013 67.9467 264.379 67.624C264.555 67.4773 264.739 67.3967 264.929 67.382C265.12 67.3673 265.296 67.426 265.457 67.558C265.633 67.7193 265.729 67.9027 265.743 68.108C265.773 68.3133 265.707 68.4893 265.545 68.636C264.475 69.6187 263.14 70.11 261.541 70.11ZM274.625 70.11C273.467 70.11 272.433 69.846 271.523 69.318C270.629 68.7753 269.917 68.042 269.389 67.118C268.876 66.194 268.619 65.1527 268.619 63.994C268.619 62.8207 268.869 61.772 269.367 60.848C269.866 59.924 270.548 59.198 271.413 58.67C272.279 58.1273 273.276 57.856 274.405 57.856C275.3 57.856 276.121 58.032 276.869 58.384C277.632 58.736 278.299 59.264 278.871 59.968C279.033 60.144 279.091 60.3347 279.047 60.54C279.003 60.7307 278.879 60.8993 278.673 61.046C278.512 61.1633 278.329 61.2073 278.123 61.178C277.933 61.134 277.764 61.024 277.617 60.848C276.767 59.88 275.696 59.396 274.405 59.396C273.584 59.396 272.858 59.594 272.227 59.99C271.611 60.386 271.127 60.9287 270.775 61.618C270.438 62.3073 270.269 63.0993 270.269 63.994C270.269 64.874 270.453 65.6587 270.819 66.348C271.186 67.0373 271.699 67.58 272.359 67.976C273.019 68.372 273.775 68.57 274.625 68.57C275.197 68.57 275.718 68.4967 276.187 68.35C276.671 68.1887 277.097 67.9467 277.463 67.624C277.639 67.4773 277.823 67.3967 278.013 67.382C278.204 67.3673 278.38 67.426 278.541 67.558C278.717 67.7193 278.813 67.9027 278.827 68.108C278.857 68.3133 278.791 68.4893 278.629 68.636C277.559 69.6187 276.224 70.11 274.625 70.11ZM287.577 70.132C286.536 70.132 285.605 69.9193 284.783 69.494C283.962 69.054 283.309 68.416 282.825 67.58C282.356 66.744 282.121 65.7247 282.121 64.522V58.802C282.121 58.5673 282.202 58.3693 282.363 58.208C282.525 58.0467 282.723 57.966 282.957 57.966C283.207 57.966 283.412 58.0467 283.573 58.208C283.735 58.3693 283.815 58.5673 283.815 58.802V64.522C283.815 65.4313 283.984 66.1793 284.321 66.766C284.673 67.3527 285.143 67.7927 285.729 68.086C286.331 68.3793 287.005 68.526 287.753 68.526C288.472 68.526 289.117 68.3867 289.689 68.108C290.276 67.8293 290.738 67.448 291.075 66.964C291.413 66.48 291.581 65.93 291.581 65.314H292.791C292.747 66.238 292.491 67.0667 292.021 67.8C291.567 68.5187 290.951 69.0907 290.173 69.516C289.396 69.9267 288.531 70.132 287.577 70.132ZM292.417 70C292.168 70 291.963 69.9267 291.801 69.78C291.655 69.6187 291.581 69.406 291.581 69.142V58.802C291.581 58.5527 291.655 58.3547 291.801 58.208C291.963 58.0467 292.168 57.966 292.417 57.966C292.667 57.966 292.872 58.0467 293.033 58.208C293.195 58.3547 293.275 58.5527 293.275 58.802V69.142C293.275 69.406 293.195 69.6187 293.033 69.78C292.872 69.9267 292.667 70 292.417 70ZM302.466 70.132C301.425 70.132 300.493 69.9193 299.672 69.494C298.851 69.054 298.198 68.416 297.714 67.58C297.245 66.744 297.01 65.7247 297.01 64.522V58.802C297.01 58.5673 297.091 58.3693 297.252 58.208C297.413 58.0467 297.611 57.966 297.846 57.966C298.095 57.966 298.301 58.0467 298.462 58.208C298.623 58.3693 298.704 58.5673 298.704 58.802V64.522C298.704 65.4313 298.873 66.1793 299.21 66.766C299.562 67.3527 300.031 67.7927 300.618 68.086C301.219 68.3793 301.894 68.526 302.642 68.526C303.361 68.526 304.006 68.3867 304.578 68.108C305.165 67.8293 305.627 67.448 305.964 66.964C306.301 66.48 306.47 65.93 306.47 65.314H307.68C307.636 66.238 307.379 67.0667 306.91 67.8C306.455 68.5187 305.839 69.0907 305.062 69.516C304.285 69.9267 303.419 70.132 302.466 70.132ZM307.306 70C307.057 70 306.851 69.9267 306.69 69.78C306.543 69.6187 306.47 69.406 306.47 69.142V58.802C306.47 58.5527 306.543 58.3547 306.69 58.208C306.851 58.0467 307.057 57.966 307.306 57.966C307.555 57.966 307.761 58.0467 307.922 58.208C308.083 58.3547 308.164 58.5527 308.164 58.802V69.142C308.164 69.406 308.083 69.6187 307.922 69.78C307.761 69.9267 307.555 70 307.306 70Z" fill="black"/>
<path d="M62.5 147C68.023 147 72.5 142.523 72.5 137C72.5 131.477 68.023 127 62.5 127C56.977 127 52.5 131.477 52.5 137C52.5 142.523 56.977 147 62.5 147Z" stroke="black" stroke-width="1.5" stroke-linecap="round" stroke-linejoin="round"/>
<path d="M65.5 133.5C64.815 132.815 63.609 132.339 62.5 132.309M62.5 132.309C61.18 132.273 60 132.87 60 134.5C60 137.5 65.5 136 65.5 139C65.5 140.711 64.036 141.446 62.5 141.391M62.5 132.309V130.5M59.5 140C60.144 140.86 61.343 141.35 62.5 141.391M62.5 141.391V143.5" stroke="black" stroke-width="1.5" stroke-linecap="round" stroke-linejoin="round"/>
<path d="M99.198 142.108C98.286 142.108 97.422 141.964 96.606 141.676C95.802 141.376 95.154 140.98 94.662 140.488L95.292 139.462C95.7 139.882 96.246 140.23 96.93 140.506C97.626 140.782 98.382 140.92 99.198 140.92C100.242 140.92 101.04 140.692 101.592 140.236C102.156 139.78 102.438 139.168 102.438 138.4C102.438 137.632 102.162 137.02 101.61 136.564C101.07 136.108 100.212 135.88 99.036 135.88H98.136V134.926L102.024 130.048L102.204 130.552H95.184V129.4H103.284V130.318L99.396 135.196L98.766 134.782H99.252C100.764 134.782 101.892 135.118 102.636 135.79C103.392 136.462 103.77 137.326 103.77 138.382C103.77 139.09 103.602 139.726 103.266 140.29C102.93 140.854 102.42 141.298 101.736 141.622C101.064 141.946 100.218 142.108 99.198 142.108ZM109.398 142.108C108.498 142.108 107.64 141.964 106.824 141.676C106.008 141.376 105.36 140.98 104.88 140.488L105.51 139.462C105.906 139.882 106.446 140.23 107.13 140.506C107.826 140.782 108.576 140.92 109.38 140.92C110.448 140.92 111.258 140.686 111.81 140.218C112.374 139.738 112.656 139.114 112.656 138.346C112.656 137.806 112.524 137.344 112.26 136.96C112.008 136.564 111.576 136.258 110.964 136.042C110.352 135.826 109.512 135.718 108.444 135.718H105.762L106.41 129.4H113.304V130.552H106.932L107.598 129.922L107.04 135.214L106.374 134.566H108.732C110.004 134.566 111.024 134.722 111.792 135.034C112.56 135.346 113.112 135.784 113.448 136.348C113.796 136.9 113.97 137.548 113.97 138.292C113.97 139 113.802 139.648 113.466 140.236C113.13 140.812 112.626 141.268 111.954 141.604C111.282 141.94 110.43 142.108 109.398 142.108ZM120.638 142.108C119.666 142.108 118.802 141.856 118.046 141.352C117.29 140.836 116.696 140.104 116.264 139.156C115.832 138.196 115.616 137.044 115.616 135.7C115.616 134.356 115.832 133.21 116.264 132.262C116.696 131.302 117.29 130.57 118.046 130.066C118.802 129.55 119.666 129.292 120.638 129.292C121.61 129.292 122.474 129.55 123.23 130.066C123.986 130.57 124.58 131.302 125.012 132.262C125.456 133.21 125.678 134.356 125.678 135.7C125.678 137.044 125.456 138.196 125.012 139.156C124.58 140.104 123.986 140.836 123.23 141.352C122.474 141.856 121.61 142.108 120.638 142.108ZM120.638 140.92C121.382 140.92 122.03 140.722 122.582 140.326C123.134 139.918 123.566 139.33 123.878 138.562C124.19 137.782 124.346 136.828 124.346 135.7C124.346 134.572 124.19 133.624 123.878 132.856C123.566 132.076 123.134 131.488 122.582 131.092C122.03 130.684 121.382 130.48 120.638 130.48C119.918 130.48 119.276 130.684 118.712 131.092C118.148 131.488 117.71 132.076 117.398 132.856C117.086 133.624 116.93 134.572 116.93 135.7C116.93 136.828 117.086 137.782 117.398 138.562C117.71 139.33 118.148 139.918 118.712 140.326C119.276 140.722 119.918 140.92 120.638 140.92ZM138.005 142.09C137.189 142.09 136.451 141.904 135.791 141.532C135.131 141.148 134.603 140.602 134.207 139.894C133.823 139.174 133.631 138.298 133.631 137.266C133.631 136.234 133.823 135.364 134.207 134.656C134.591 133.936 135.113 133.39 135.773 133.018C136.433 132.646 137.177 132.46 138.005 132.46C138.905 132.46 139.709 132.664 140.417 133.072C141.137 133.468 141.701 134.032 142.109 134.764C142.517 135.484 142.721 136.318 142.721 137.266C142.721 138.226 142.517 139.066 142.109 139.786C141.701 140.506 141.137 141.07 140.417 141.478C139.709 141.886 138.905 142.09 138.005 142.09ZM133.127 145.492V132.55H134.351V135.394L134.225 137.284L134.405 139.192V145.492H133.127ZM137.915 140.956C138.587 140.956 139.187 140.806 139.715 140.506C140.243 140.194 140.663 139.762 140.975 139.21C141.287 138.646 141.443 137.998 141.443 137.266C141.443 136.534 141.287 135.892 140.975 135.34C140.663 134.788 140.243 134.356 139.715 134.044C139.187 133.732 138.587 133.576 137.915 133.576C137.243 133.576 136.637 133.732 136.097 134.044C135.569 134.356 135.149 134.788 134.837 135.34C134.537 135.892 134.387 136.534 134.387 137.266C134.387 137.998 134.537 138.646 134.837 139.21C135.149 139.762 135.569 140.194 136.097 140.506C136.637 140.806 137.243 140.956 137.915 140.956ZM145.293 142.09C145.029 142.09 144.801 141.994 144.609 141.802C144.429 141.61 144.339 141.376 144.339 141.1C144.339 140.812 144.429 140.578 144.609 140.398C144.801 140.218 145.029 140.128 145.293 140.128C145.557 140.128 145.779 140.218 145.959 140.398C146.151 140.578 146.247 140.812 146.247 141.1C146.247 141.376 146.151 141.61 145.959 141.802C145.779 141.994 145.557 142.09 145.293 142.09Z" fill="black"/>
<path d="M96.624 174V161.4H105.84V162.534H97.938V166.656H102.06C103.548 166.656 104.676 166.962 105.444 167.574C106.224 168.174 106.614 169.062 106.614 170.238C106.614 171.45 106.194 172.38 105.354 173.028C104.526 173.676 103.332 174 101.772 174H96.624ZM97.938 172.938H101.754C102.918 172.938 103.794 172.716 104.382 172.272C104.982 171.816 105.282 171.156 105.282 170.292C105.282 168.576 104.106 167.718 101.754 167.718H97.938V172.938ZM113.429 174.09C112.445 174.09 111.581 173.886 110.837 173.478C110.093 173.058 109.511 172.488 109.091 171.768C108.671 171.036 108.461 170.202 108.461 169.266C108.461 168.33 108.659 167.502 109.055 166.782C109.463 166.062 110.015 165.498 110.711 165.09C111.419 164.67 112.211 164.46 113.087 164.46C113.975 164.46 114.761 164.664 115.445 165.072C116.141 165.468 116.687 166.032 117.083 166.764C117.479 167.484 117.677 168.318 117.677 169.266C117.677 169.326 117.671 169.392 117.659 169.464C117.659 169.524 117.659 169.59 117.659 169.662H109.433V168.708H116.975L116.471 169.086C116.471 168.402 116.321 167.796 116.021 167.268C115.733 166.728 115.337 166.308 114.833 166.008C114.329 165.708 113.747 165.558 113.087 165.558C112.439 165.558 111.857 165.708 111.341 166.008C110.825 166.308 110.423 166.728 110.135 167.268C109.847 167.808 109.703 168.426 109.703 169.122V169.32C109.703 170.04 109.859 170.676 110.171 171.228C110.495 171.768 110.939 172.194 111.503 172.506C112.079 172.806 112.733 172.956 113.465 172.956C114.041 172.956 114.575 172.854 115.067 172.65C115.571 172.446 116.003 172.134 116.363 171.714L117.083 172.542C116.663 173.046 116.135 173.43 115.499 173.694C114.875 173.958 114.185 174.09 113.429 174.09ZM124.466 174.09C123.53 174.09 122.69 173.886 121.946 173.478C121.214 173.058 120.638 172.488 120.218 171.768C119.798 171.036 119.588 170.202 119.588 169.266C119.588 168.318 119.798 167.484 120.218 166.764C120.638 166.044 121.214 165.48 121.946 165.072C122.69 164.664 123.53 164.46 124.466 164.46C125.27 164.46 125.996 164.616 126.644 164.928C127.292 165.24 127.802 165.708 128.174 166.332L127.22 166.98C126.896 166.5 126.494 166.146 126.014 165.918C125.534 165.69 125.012 165.576 124.448 165.576C123.776 165.576 123.17 165.732 122.63 166.044C122.09 166.344 121.664 166.77 121.352 167.322C121.04 167.874 120.884 168.522 120.884 169.266C120.884 170.01 121.04 170.658 121.352 171.21C121.664 171.762 122.09 172.194 122.63 172.506C123.17 172.806 123.776 172.956 124.448 172.956C125.012 172.956 125.534 172.842 126.014 172.614C126.494 172.386 126.896 172.038 127.22 171.57L128.174 172.218C127.802 172.83 127.292 173.298 126.644 173.622C125.996 173.934 125.27 174.09 124.466 174.09ZM130.648 174V164.55H139.144V174H137.866V165.324L138.19 165.666H131.602L131.926 165.324V174H130.648ZM141.049 173.982L141.139 172.884C141.223 172.896 141.301 172.914 141.373 172.938C141.457 172.95 141.529 172.956 141.589 172.956C141.973 172.956 142.279 172.812 142.507 172.524C142.747 172.236 142.927 171.852 143.047 171.372C143.167 170.892 143.251 170.352 143.299 169.752C143.347 169.14 143.389 168.528 143.425 167.916L143.587 164.55H150.517V174H149.239V165.288L149.563 165.666H144.415L144.721 165.27L144.577 168.006C144.541 168.822 144.475 169.602 144.379 170.346C144.295 171.09 144.157 171.744 143.965 172.308C143.785 172.872 143.533 173.316 143.209 173.64C142.885 173.952 142.471 174.108 141.967 174.108C141.823 174.108 141.673 174.096 141.517 174.072C141.373 174.048 141.217 174.018 141.049 173.982ZM160.018 174V171.912L159.964 171.57V168.078C159.964 167.274 159.736 166.656 159.28 166.224C158.836 165.792 158.17 165.576 157.282 165.576C156.67 165.576 156.088 165.678 155.536 165.882C154.984 166.086 154.516 166.356 154.132 166.692L153.556 165.738C154.036 165.33 154.612 165.018 155.284 164.802C155.956 164.574 156.664 164.46 157.408 164.46C158.632 164.46 159.574 164.766 160.234 165.378C160.906 165.978 161.242 166.896 161.242 168.132V174H160.018ZM156.76 174.09C156.052 174.09 155.434 173.976 154.906 173.748C154.39 173.508 153.994 173.184 153.718 172.776C153.442 172.356 153.304 171.876 153.304 171.336C153.304 170.844 153.418 170.4 153.646 170.004C153.886 169.596 154.27 169.272 154.798 169.032C155.338 168.78 156.058 168.654 156.958 168.654H160.216V169.608H156.994C156.082 169.608 155.446 169.77 155.086 170.094C154.738 170.418 154.564 170.82 154.564 171.3C154.564 171.84 154.774 172.272 155.194 172.596C155.614 172.92 156.202 173.082 156.958 173.082C157.678 173.082 158.296 172.92 158.812 172.596C159.34 172.26 159.724 171.78 159.964 171.156L160.252 172.038C160.012 172.662 159.592 173.16 158.992 173.532C158.404 173.904 157.66 174.09 156.76 174.09ZM166.444 174V165.324L166.768 165.666H162.862V164.55H171.304V165.666H167.398L167.722 165.324V174H166.444ZM173.152 174V164.55H174.43V168.726H180.388V164.55H181.666V174H180.388V169.824H174.43V174H173.152ZM189.186 174.09C188.274 174.09 187.452 173.886 186.72 173.478C186 173.058 185.43 172.488 185.01 171.768C184.59 171.036 184.38 170.202 184.38 169.266C184.38 168.318 184.59 167.484 185.01 166.764C185.43 166.044 186 165.48 186.72 165.072C187.44 164.664 188.262 164.46 189.186 164.46C190.122 164.46 190.95 164.664 191.67 165.072C192.402 165.48 192.972 166.044 193.38 166.764C193.8 167.484 194.01 168.318 194.01 169.266C194.01 170.202 193.8 171.036 193.38 171.768C192.972 172.488 192.402 173.058 191.67 173.478C190.938 173.886 190.11 174.09 189.186 174.09ZM189.186 172.956C189.87 172.956 190.476 172.806 191.004 172.506C191.532 172.194 191.946 171.762 192.246 171.21C192.558 170.646 192.714 169.998 192.714 169.266C192.714 168.522 192.558 167.874 192.246 167.322C191.946 166.77 191.532 166.344 191.004 166.044C190.476 165.732 189.876 165.576 189.204 165.576C188.532 165.576 187.932 165.732 187.404 166.044C186.876 166.344 186.456 166.77 186.144 167.322C185.832 167.874 185.676 168.522 185.676 169.266C185.676 169.998 185.832 170.646 186.144 171.21C186.456 171.762 186.876 172.194 187.404 172.506C187.932 172.806 188.526 172.956 189.186 172.956ZM201.453 174V164.55H209.949V174H208.671V165.324L208.995 165.666H202.407L202.731 165.324V174H201.453ZM218.46 174.09C217.644 174.09 216.906 173.904 216.246 173.532C215.586 173.148 215.058 172.602 214.662 171.894C214.278 171.174 214.086 170.298 214.086 169.266C214.086 168.234 214.278 167.364 214.662 166.656C215.046 165.936 215.568 165.39 216.228 165.018C216.888 164.646 217.632 164.46 218.46 164.46C219.36 164.46 220.164 164.664 220.872 165.072C221.592 165.468 222.156 166.032 222.564 166.764C222.972 167.484 223.176 168.318 223.176 169.266C223.176 170.226 222.972 171.066 222.564 171.786C222.156 172.506 221.592 173.07 220.872 173.478C220.164 173.886 219.36 174.09 218.46 174.09ZM213.582 177.492V164.55H214.806V167.394L214.68 169.284L214.86 171.192V177.492H213.582ZM218.37 172.956C219.042 172.956 219.642 172.806 220.17 172.506C220.698 172.194 221.118 171.762 221.43 171.21C221.742 170.646 221.898 169.998 221.898 169.266C221.898 168.534 221.742 167.892 221.43 167.34C221.118 166.788 220.698 166.356 220.17 166.044C219.642 165.732 219.042 165.576 218.37 165.576C217.698 165.576 217.092 165.732 216.552 166.044C216.024 166.356 215.604 166.788 215.292 167.34C214.992 167.892 214.842 168.534 214.842 169.266C214.842 169.998 214.992 170.646 215.292 171.21C215.604 171.762 216.024 172.194 216.552 172.506C217.092 172.806 217.698 172.956 218.37 172.956ZM225.922 174V164.55H227.2V172.056L233.518 164.55H234.652V174H233.374V166.476L227.074 174H225.922ZM245.563 174.108C244.879 174.108 244.201 174.012 243.529 173.82C242.857 173.628 242.263 173.334 241.747 172.938L242.161 171.984C242.617 172.32 243.145 172.578 243.745 172.758C244.345 172.926 244.939 173.01 245.527 173.01C246.115 172.998 246.625 172.914 247.057 172.758C247.489 172.602 247.825 172.386 248.065 172.11C248.305 171.834 248.425 171.522 248.425 171.174C248.425 170.67 248.197 170.28 247.741 170.004C247.285 169.716 246.661 169.572 245.869 169.572H244.249V168.636H245.779C246.247 168.636 246.661 168.576 247.021 168.456C247.381 168.336 247.657 168.162 247.849 167.934C248.053 167.706 248.155 167.436 248.155 167.124C248.155 166.788 248.035 166.5 247.795 166.26C247.567 166.02 247.249 165.84 246.841 165.72C246.433 165.6 245.971 165.54 245.455 165.54C244.987 165.552 244.501 165.624 243.997 165.756C243.493 165.876 242.995 166.062 242.503 166.314L242.143 165.324C242.695 165.036 243.241 164.82 243.781 164.676C244.333 164.52 244.885 164.442 245.437 164.442C246.193 164.418 246.871 164.508 247.471 164.712C248.083 164.916 248.569 165.21 248.929 165.594C249.289 165.966 249.469 166.416 249.469 166.944C249.469 167.412 249.325 167.82 249.037 168.168C248.749 168.516 248.365 168.786 247.885 168.978C247.405 169.17 246.859 169.266 246.247 169.266L246.301 168.924C247.381 168.924 248.221 169.134 248.821 169.554C249.433 169.974 249.739 170.544 249.739 171.264C249.739 171.828 249.553 172.326 249.181 172.758C248.809 173.178 248.305 173.508 247.669 173.748C247.045 173.988 246.343 174.108 245.563 174.108ZM258.508 174V171.912L258.454 171.57V168.078C258.454 167.274 258.226 166.656 257.77 166.224C257.326 165.792 256.66 165.576 255.772 165.576C255.16 165.576 254.578 165.678 254.026 165.882C253.474 166.086 253.006 166.356 252.622 166.692L252.046 165.738C252.526 165.33 253.102 165.018 253.774 164.802C254.446 164.574 255.154 164.46 255.898 164.46C257.122 164.46 258.064 164.766 258.724 165.378C259.396 165.978 259.732 166.896 259.732 168.132V174H258.508ZM255.25 174.09C254.542 174.09 253.924 173.976 253.396 173.748C252.88 173.508 252.484 173.184 252.208 172.776C251.932 172.356 251.794 171.876 251.794 171.336C251.794 170.844 251.908 170.4 252.136 170.004C252.376 169.596 252.76 169.272 253.288 169.032C253.828 168.78 254.548 168.654 255.448 168.654H258.706V169.608H255.484C254.572 169.608 253.936 169.77 253.576 170.094C253.228 170.418 253.054 170.82 253.054 171.3C253.054 171.84 253.264 172.272 253.684 172.596C254.104 172.92 254.692 173.082 255.448 173.082C256.168 173.082 256.786 172.92 257.302 172.596C257.83 172.26 258.214 171.78 258.454 171.156L258.742 172.038C258.502 172.662 258.082 173.16 257.482 173.532C256.894 173.904 256.15 174.09 255.25 174.09ZM270.064 174L266.176 169.32L267.238 168.69L271.576 174H270.064ZM263.134 174V164.55H264.412V174H263.134ZM264.016 169.788V168.69H267.058V169.788H264.016ZM267.346 169.41L266.158 169.23L269.92 164.55H271.306L267.346 169.41ZM279.286 174V171.912L279.232 171.57V168.078C279.232 167.274 279.004 166.656 278.548 166.224C278.104 165.792 277.438 165.576 276.55 165.576C275.938 165.576 275.356 165.678 274.804 165.882C274.252 166.086 273.784 166.356 273.4 166.692L272.824 165.738C273.304 165.33 273.88 165.018 274.552 164.802C275.224 164.574 275.932 164.46 276.676 164.46C277.9 164.46 278.842 164.766 279.502 165.378C280.174 165.978 280.51 166.896 280.51 168.132V174H279.286ZM276.028 174.09C275.32 174.09 274.702 173.976 274.174 173.748C273.658 173.508 273.262 173.184 272.986 172.776C272.71 172.356 272.572 171.876 272.572 171.336C272.572 170.844 272.686 170.4 272.914 170.004C273.154 169.596 273.538 169.272 274.066 169.032C274.606 168.78 275.326 168.654 276.226 168.654H279.484V169.608H276.262C275.35 169.608 274.714 169.77 274.354 170.094C274.006 170.418 273.832 170.82 273.832 171.3C273.832 171.84 274.042 172.272 274.462 172.596C274.882 172.92 275.47 173.082 276.226 173.082C276.946 173.082 277.564 172.92 278.08 172.596C278.608 172.26 278.992 171.78 279.232 171.156L279.52 172.038C279.28 172.662 278.86 173.16 278.26 173.532C277.672 173.904 276.928 174.09 276.028 174.09ZM286.256 174.108C285.572 174.108 284.894 174.012 284.222 173.82C283.55 173.628 282.956 173.334 282.44 172.938L282.854 171.984C283.31 172.32 283.838 172.578 284.438 172.758C285.038 172.926 285.632 173.01 286.22 173.01C286.808 172.998 287.318 172.914 287.75 172.758C288.182 172.602 288.518 172.386 288.758 172.11C288.998 171.834 289.118 171.522 289.118 171.174C289.118 170.67 288.89 170.28 288.434 170.004C287.978 169.716 287.354 169.572 286.562 169.572H284.942V168.636H286.472C286.94 168.636 287.354 168.576 287.714 168.456C288.074 168.336 288.35 168.162 288.542 167.934C288.746 167.706 288.848 167.436 288.848 167.124C288.848 166.788 288.728 166.5 288.488 166.26C288.26 166.02 287.942 165.84 287.534 165.72C287.126 165.6 286.664 165.54 286.148 165.54C285.68 165.552 285.194 165.624 284.69 165.756C284.186 165.876 283.688 166.062 283.196 166.314L282.836 165.324C283.388 165.036 283.934 164.82 284.474 164.676C285.026 164.52 285.578 164.442 286.13 164.442C286.886 164.418 287.564 164.508 288.164 164.712C288.776 164.916 289.262 165.21 289.622 165.594C289.982 165.966 290.162 166.416 290.162 166.944C290.162 167.412 290.018 167.82 289.73 168.168C289.442 168.516 289.058 168.786 288.578 168.978C288.098 169.17 287.552 169.266 286.94 169.266L286.994 168.924C288.074 168.924 288.914 169.134 289.514 169.554C290.126 169.974 290.432 170.544 290.432 171.264C290.432 171.828 290.246 172.326 289.874 172.758C289.502 173.178 288.998 173.508 288.362 173.748C287.738 173.988 287.036 174.108 286.256 174.108ZM297.384 174.09C296.4 174.09 295.536 173.886 294.792 173.478C294.048 173.058 293.466 172.488 293.046 171.768C292.626 171.036 292.416 170.202 292.416 169.266C292.416 168.33 292.614 167.502 293.01 166.782C293.418 166.062 293.97 165.498 294.666 165.09C295.374 164.67 296.166 164.46 297.042 164.46C297.93 164.46 298.716 164.664 299.4 165.072C300.096 165.468 300.642 166.032 301.038 166.764C301.434 167.484 301.632 168.318 301.632 169.266C301.632 169.326 301.626 169.392 301.614 169.464C301.614 169.524 301.614 169.59 301.614 169.662H293.388V168.708H300.93L300.426 169.086C300.426 168.402 300.276 167.796 299.976 167.268C299.688 166.728 299.292 166.308 298.788 166.008C298.284 165.708 297.702 165.558 297.042 165.558C296.394 165.558 295.812 165.708 295.296 166.008C294.78 166.308 294.378 166.728 294.09 167.268C293.802 167.808 293.658 168.426 293.658 169.122V169.32C293.658 170.04 293.814 170.676 294.126 171.228C294.45 171.768 294.894 172.194 295.458 172.506C296.034 172.806 296.688 172.956 297.42 172.956C297.996 172.956 298.53 172.854 299.022 172.65C299.526 172.446 299.958 172.134 300.318 171.714L301.038 172.542C300.618 173.046 300.09 173.43 299.454 173.694C298.83 173.958 298.14 174.09 297.384 174.09ZM313.06 174.09C312.148 174.09 311.326 173.886 310.594 173.478C309.874 173.058 309.304 172.488 308.884 171.768C308.464 171.036 308.254 170.202 308.254 169.266C308.254 168.318 308.464 167.484 308.884 166.764C309.304 166.044 309.874 165.48 310.594 165.072C311.314 164.664 312.136 164.46 313.06 164.46C313.996 164.46 314.824 164.664 315.544 165.072C316.276 165.48 316.846 166.044 317.254 166.764C317.674 167.484 317.884 168.318 317.884 169.266C317.884 170.202 317.674 171.036 317.254 171.768C316.846 172.488 316.276 173.058 315.544 173.478C314.812 173.886 313.984 174.09 313.06 174.09ZM313.06 172.956C313.744 172.956 314.35 172.806 314.878 172.506C315.406 172.194 315.82 171.762 316.12 171.21C316.432 170.646 316.588 169.998 316.588 169.266C316.588 168.522 316.432 167.874 316.12 167.322C315.82 166.77 315.406 166.344 314.878 166.044C314.35 165.732 313.75 165.576 313.078 165.576C312.406 165.576 311.806 165.732 311.278 166.044C310.75 166.344 310.33 166.77 310.018 167.322C309.706 167.874 309.55 168.522 309.55 169.266C309.55 169.998 309.706 170.646 310.018 171.21C310.33 171.762 310.75 172.194 311.278 172.506C311.806 172.806 312.4 172.956 313.06 172.956ZM322.063 174V165.324L322.387 165.666H318.481V164.55H326.923V165.666H323.017L323.341 165.324V174H322.063ZM336.362 174.108C335.45 174.108 334.586 173.964 333.77 173.676C332.966 173.376 332.318 172.98 331.826 172.488L332.456 171.462C332.864 171.882 333.41 172.23 334.094 172.506C334.79 172.782 335.546 172.92 336.362 172.92C337.406 172.92 338.204 172.692 338.756 172.236C339.32 171.78 339.602 171.168 339.602 170.4C339.602 169.632 339.326 169.02 338.774 168.564C338.234 168.108 337.376 167.88 336.2 167.88H335.3V166.926L339.188 162.048L339.368 162.552H332.348V161.4H340.448V162.318L336.56 167.196L335.93 166.782H336.416C337.928 166.782 339.056 167.118 339.8 167.79C340.556 168.462 340.934 169.326 340.934 170.382C340.934 171.09 340.766 171.726 340.43 172.29C340.094 172.854 339.584 173.298 338.9 173.622C338.228 173.946 337.382 174.108 336.362 174.108ZM347.782 174.108C346.81 174.108 345.946 173.856 345.19 173.352C344.434 172.836 343.84 172.104 343.408 171.156C342.976 170.196 342.76 169.044 342.76 167.7C342.76 166.356 342.976 165.21 343.408 164.262C343.84 163.302 344.434 162.57 345.19 162.066C345.946 161.55 346.81 161.292 347.782 161.292C348.754 161.292 349.618 161.55 350.374 162.066C351.13 162.57 351.724 163.302 352.156 164.262C352.6 165.21 352.822 166.356 352.822 167.7C352.822 169.044 352.6 170.196 352.156 171.156C351.724 172.104 351.13 172.836 350.374 173.352C349.618 173.856 348.754 174.108 347.782 174.108ZM347.782 172.92C348.526 172.92 349.174 172.722 349.726 172.326C350.278 171.918 350.71 171.33 351.022 170.562C351.334 169.782 351.49 168.828 351.49 167.7C351.49 166.572 351.334 165.624 351.022 164.856C350.71 164.076 350.278 163.488 349.726 163.092C349.174 162.684 348.526 162.48 347.782 162.48C347.062 162.48 346.42 162.684 345.856 163.092C345.292 163.488 344.854 164.076 344.542 164.856C344.23 165.624 344.074 166.572 344.074 167.7C344.074 168.828 344.23 169.782 344.542 170.562C344.854 171.33 345.292 171.918 345.856 172.326C346.42 172.722 347.062 172.92 347.782 172.92ZM359.7 174.108C358.728 174.108 357.864 173.856 357.108 173.352C356.352 172.836 355.758 172.104 355.326 171.156C354.894 170.196 354.678 169.044 354.678 167.7C354.678 166.356 354.894 165.21 355.326 164.262C355.758 163.302 356.352 162.57 357.108 162.066C357.864 161.55 358.728 161.292 359.7 161.292C360.672 161.292 361.536 161.55 362.292 162.066C363.048 162.57 363.642 163.302 364.074 164.262C364.518 165.21 364.74 166.356 364.74 167.7C364.74 169.044 364.518 170.196 364.074 171.156C363.642 172.104 363.048 172.836 362.292 173.352C361.536 173.856 360.672 174.108 359.7 174.108ZM359.7 172.92C360.444 172.92 361.092 172.722 361.644 172.326C362.196 171.918 362.628 171.33 362.94 170.562C363.252 169.782 363.408 168.828 363.408 167.7C363.408 166.572 363.252 165.624 362.94 164.856C362.628 164.076 362.196 163.488 361.644 163.092C361.092 162.684 360.444 162.48 359.7 162.48C358.98 162.48 358.338 162.684 357.774 163.092C357.21 163.488 356.772 164.076 356.46 164.856C356.148 165.624 355.992 166.572 355.992 167.7C355.992 168.828 356.148 169.782 356.46 170.562C356.772 171.33 357.21 171.918 357.774 172.326C358.338 172.722 358.98 172.92 359.7 172.92ZM371.618 174.108C370.646 174.108 369.782 173.856 369.026 173.352C368.27 172.836 367.676 172.104 367.244 171.156C366.812 170.196 366.596 169.044 366.596 167.7C366.596 166.356 366.812 165.21 367.244 164.262C367.676 163.302 368.27 162.57 369.026 162.066C369.782 161.55 370.646 161.292 371.618 161.292C372.59 161.292 373.454 161.55 374.21 162.066C374.966 162.57 375.56 163.302 375.992 164.262C376.436 165.21 376.658 166.356 376.658 167.7C376.658 169.044 376.436 170.196 375.992 171.156C375.56 172.104 374.966 172.836 374.21 173.352C373.454 173.856 372.59 174.108 371.618 174.108ZM371.618 172.92C372.362 172.92 373.01 172.722 373.562 172.326C374.114 171.918 374.546 171.33 374.858 170.562C375.17 169.782 375.326 168.828 375.326 167.7C375.326 166.572 375.17 165.624 374.858 164.856C374.546 164.076 374.114 163.488 373.562 163.092C373.01 162.684 372.362 162.48 371.618 162.48C370.898 162.48 370.256 162.684 369.692 163.092C369.128 163.488 368.69 164.076 368.378 164.856C368.066 165.624 367.91 166.572 367.91 167.7C367.91 168.828 368.066 169.782 368.378 170.562C368.69 171.33 369.128 171.918 369.692 172.326C370.256 172.722 370.898 172.92 371.618 172.92ZM388.985 174.09C388.169 174.09 387.431 173.904 386.771 173.532C386.111 173.148 385.583 172.602 385.187 171.894C384.803 171.174 384.611 170.298 384.611 169.266C384.611 168.234 384.803 167.364 385.187 166.656C385.571 165.936 386.093 165.39 386.753 165.018C387.413 164.646 388.157 164.46 388.985 164.46C389.885 164.46 390.689 164.664 391.397 165.072C392.117 165.468 392.681 166.032 393.089 166.764C393.497 167.484 393.701 168.318 393.701 169.266C393.701 170.226 393.497 171.066 393.089 171.786C392.681 172.506 392.117 173.07 391.397 173.478C390.689 173.886 389.885 174.09 388.985 174.09ZM384.107 177.492V164.55H385.331V167.394L385.205 169.284L385.385 171.192V177.492H384.107ZM388.895 172.956C389.567 172.956 390.167 172.806 390.695 172.506C391.223 172.194 391.643 171.762 391.955 171.21C392.267 170.646 392.423 169.998 392.423 169.266C392.423 168.534 392.267 167.892 391.955 167.34C391.643 166.788 391.223 166.356 390.695 166.044C390.167 165.732 389.567 165.576 388.895 165.576C388.223 165.576 387.617 165.732 387.077 166.044C386.549 166.356 386.129 166.788 385.817 167.34C385.517 167.892 385.367 168.534 385.367 169.266C385.367 169.998 385.517 170.646 385.817 171.21C386.129 171.762 386.549 172.194 387.077 172.506C387.617 172.806 388.223 172.956 388.895 172.956ZM396.273 174.09C396.009 174.09 395.781 173.994 395.589 173.802C395.409 173.61 395.319 173.376 395.319 173.1C395.319 172.812 395.409 172.578 395.589 172.398C395.781 172.218 396.009 172.128 396.273 172.128C396.537 172.128 396.759 172.218 396.939 172.398C397.131 172.578 397.227 172.812 397.227 173.1C397.227 173.376 397.131 173.61 396.939 173.802C396.759 173.994 396.537 174.09 396.273 174.09Z" fill="black"/>
<path d="M53.3574 216.429H71.6431M55.6431 211.857H69.3574C69.9636 211.857 70.545 212.098 70.9737 212.527C71.4023 212.956 71.6431 213.537 71.6431 214.143V227.857C71.6431 228.464 71.4023 229.045 70.9737 229.474C70.545 229.902 69.9636 230.143 69.3574 230.143H55.6431C55.0369 230.143 54.4555 229.902 54.0269 229.474C53.5982 229.045 53.3574 228.464 53.3574 227.857V214.143C53.3574 213.537 53.5982 212.956 54.0269 212.527C54.4555 212.098 55.0369 211.857 55.6431 211.857Z" stroke="black" stroke-linecap="round" stroke-linejoin="round"/>
<path d="M62.5003 222.143C63.1315 222.143 63.6431 221.631 63.6431 221C63.6431 220.369 63.1315 219.857 62.5003 219.857C61.8691 219.857 61.3574 220.369 61.3574 221C61.3574 221.631 61.8691 222.143 62.5003 222.143Z" fill="black"/>
<path d="M57.928 222.143C58.5592 222.143 59.0709 221.631 59.0709 221C59.0709 220.369 58.5592 219.857 57.928 219.857C57.2968 219.857 56.7852 220.369 56.7852 221C56.7852 221.631 57.2968 222.143 57.928 222.143Z" fill="black"/>
<path d="M57.928 226.714C58.5592 226.714 59.0709 226.203 59.0709 225.572C59.0709 224.94 58.5592 224.429 57.928 224.429C57.2968 224.429 56.7852 224.94 56.7852 225.572C56.7852 226.203 57.2968 226.714 57.928 226.714Z" fill="black"/>
<path d="M97.632 226V213.94L98.208 214.552H94.662V213.4H98.928V226H97.632ZM106.962 226.108C105.99 226.108 105.126 225.856 104.37 225.352C103.614 224.836 103.02 224.104 102.588 223.156C102.156 222.196 101.94 221.044 101.94 219.7C101.94 218.356 102.156 217.21 102.588 216.262C103.02 215.302 103.614 214.57 104.37 214.066C105.126 213.55 105.99 213.292 106.962 213.292C107.934 213.292 108.798 213.55 109.554 214.066C110.31 214.57 110.904 215.302 111.336 216.262C111.78 217.21 112.002 218.356 112.002 219.7C112.002 221.044 111.78 222.196 111.336 223.156C110.904 224.104 110.31 224.836 109.554 225.352C108.798 225.856 107.934 226.108 106.962 226.108ZM106.962 224.92C107.706 224.92 108.354 224.722 108.906 224.326C109.458 223.918 109.89 223.33 110.202 222.562C110.514 221.782 110.67 220.828 110.67 219.7C110.67 218.572 110.514 217.624 110.202 216.856C109.89 216.076 109.458 215.488 108.906 215.092C108.354 214.684 107.706 214.48 106.962 214.48C106.242 214.48 105.6 214.684 105.036 215.092C104.472 215.488 104.034 216.076 103.722 216.856C103.41 217.624 103.254 218.572 103.254 219.7C103.254 220.828 103.41 221.782 103.722 222.562C104.034 223.33 104.472 223.918 105.036 224.326C105.6 224.722 106.242 224.92 106.962 224.92ZM114.143 221.68V220.564H118.859V221.68H114.143ZM122.769 226V213.94L123.345 214.552H119.799V213.4H124.065V226H122.769ZM126.861 222.688V221.752L133.539 213.4H134.979L128.355 221.752L127.653 221.536H137.787V222.688H126.861ZM133.971 226V222.688L134.007 221.536V218.62H135.267V226H133.971ZM149.448 226.09C148.632 226.09 147.894 225.904 147.234 225.532C146.574 225.148 146.046 224.602 145.65 223.894C145.266 223.174 145.074 222.298 145.074 221.266C145.074 220.234 145.266 219.364 145.65 218.656C146.034 217.936 146.556 217.39 147.216 217.018C147.876 216.646 148.62 216.46 149.448 216.46C150.348 216.46 151.152 216.664 151.86 217.072C152.58 217.468 153.144 218.032 153.552 218.764C153.96 219.484 154.164 220.318 154.164 221.266C154.164 222.226 153.96 223.066 153.552 223.786C153.144 224.506 152.58 225.07 151.86 225.478C151.152 225.886 150.348 226.09 149.448 226.09ZM144.57 229.492V216.55H145.794V219.394L145.668 221.284L145.848 223.192V229.492H144.57ZM149.358 224.956C150.03 224.956 150.63 224.806 151.158 224.506C151.686 224.194 152.106 223.762 152.418 223.21C152.73 222.646 152.886 221.998 152.886 221.266C152.886 220.534 152.73 219.892 152.418 219.34C152.106 218.788 151.686 218.356 151.158 218.044C150.63 217.732 150.03 217.576 149.358 217.576C148.686 217.576 148.08 217.732 147.54 218.044C147.012 218.356 146.592 218.788 146.28 219.34C145.98 219.892 145.83 220.534 145.83 221.266C145.83 221.998 145.98 222.646 146.28 223.21C146.592 223.762 147.012 224.194 147.54 224.506C148.08 224.806 148.686 224.956 149.358 224.956ZM162.725 226V223.912L162.671 223.57V220.078C162.671 219.274 162.443 218.656 161.987 218.224C161.543 217.792 160.877 217.576 159.989 217.576C159.377 217.576 158.795 217.678 158.243 217.882C157.691 218.086 157.223 218.356 156.839 218.692L156.263 217.738C156.743 217.33 157.319 217.018 157.991 216.802C158.663 216.574 159.371 216.46 160.115 216.46C161.339 216.46 162.281 216.766 162.941 217.378C163.613 217.978 163.949 218.896 163.949 220.132V226H162.725ZM159.467 226.09C158.759 226.09 158.141 225.976 157.613 225.748C157.097 225.508 156.701 225.184 156.425 224.776C156.149 224.356 156.011 223.876 156.011 223.336C156.011 222.844 156.125 222.4 156.353 222.004C156.593 221.596 156.977 221.272 157.505 221.032C158.045 220.78 158.765 220.654 159.665 220.654H162.923V221.608H159.701C158.789 221.608 158.153 221.77 157.793 222.094C157.445 222.418 157.271 222.82 157.271 223.3C157.271 223.84 157.481 224.272 157.901 224.596C158.321 224.92 158.909 225.082 159.665 225.082C160.385 225.082 161.003 224.92 161.519 224.596C162.047 224.26 162.431 223.78 162.671 223.156L162.959 224.038C162.719 224.662 162.299 225.16 161.699 225.532C161.111 225.904 160.367 226.09 159.467 226.09ZM171.599 226.108C170.831 226.108 170.147 225.982 169.547 225.73C168.959 225.478 168.455 225.094 168.035 224.578C167.615 224.062 167.297 223.426 167.081 222.67C166.865 221.902 166.757 221.014 166.757 220.006C166.757 219.106 166.841 218.32 167.009 217.648C167.177 216.964 167.411 216.376 167.711 215.884C168.011 215.392 168.359 214.978 168.755 214.642C169.163 214.294 169.601 214.018 170.069 213.814C170.549 213.598 171.041 213.436 171.545 213.328L175.793 212.338L176.009 213.526L172.013 214.426C171.761 214.486 171.455 214.57 171.095 214.678C170.747 214.786 170.387 214.948 170.015 215.164C169.655 215.38 169.319 215.68 169.007 216.064C168.695 216.448 168.443 216.946 168.251 217.558C168.071 218.158 167.981 218.908 167.981 219.808C167.981 220 167.987 220.156 167.999 220.276C168.011 220.384 168.023 220.504 168.035 220.636C168.059 220.756 168.077 220.936 168.089 221.176L167.531 220.708C167.663 219.976 167.933 219.34 168.341 218.8C168.749 218.248 169.259 217.822 169.871 217.522C170.495 217.21 171.185 217.054 171.941 217.054C172.817 217.054 173.597 217.246 174.281 217.63C174.965 218.002 175.499 218.524 175.883 219.196C176.279 219.868 176.477 220.648 176.477 221.536C176.477 222.412 176.273 223.198 175.865 223.894C175.469 224.59 174.905 225.136 174.173 225.532C173.441 225.916 172.583 226.108 171.599 226.108ZM171.743 225.046C172.415 225.046 173.009 224.896 173.525 224.596C174.041 224.284 174.443 223.864 174.731 223.336C175.031 222.808 175.181 222.214 175.181 221.554C175.181 220.906 175.031 220.33 174.731 219.826C174.443 219.322 174.041 218.926 173.525 218.638C173.009 218.338 172.409 218.188 171.725 218.188C171.053 218.188 170.459 218.332 169.943 218.62C169.427 218.896 169.019 219.286 168.719 219.79C168.431 220.294 168.287 220.876 168.287 221.536C168.287 222.196 168.431 222.79 168.719 223.318C169.019 223.846 169.427 224.266 169.943 224.578C170.471 224.89 171.071 225.046 171.743 225.046ZM183.104 226.09C182.192 226.09 181.37 225.886 180.638 225.478C179.918 225.058 179.348 224.488 178.928 223.768C178.508 223.036 178.298 222.202 178.298 221.266C178.298 220.318 178.508 219.484 178.928 218.764C179.348 218.044 179.918 217.48 180.638 217.072C181.358 216.664 182.18 216.46 183.104 216.46C184.04 216.46 184.868 216.664 185.588 217.072C186.32 217.48 186.89 218.044 187.298 218.764C187.718 219.484 187.928 220.318 187.928 221.266C187.928 222.202 187.718 223.036 187.298 223.768C186.89 224.488 186.32 225.058 185.588 225.478C184.856 225.886 184.028 226.09 183.104 226.09ZM183.104 224.956C183.788 224.956 184.394 224.806 184.922 224.506C185.45 224.194 185.864 223.762 186.164 223.21C186.476 222.646 186.632 221.998 186.632 221.266C186.632 220.522 186.476 219.874 186.164 219.322C185.864 218.77 185.45 218.344 184.922 218.044C184.394 217.732 183.794 217.576 183.122 217.576C182.45 217.576 181.85 217.732 181.322 218.044C180.794 218.344 180.374 218.77 180.062 219.322C179.75 219.874 179.594 220.522 179.594 221.266C179.594 221.998 179.75 222.646 180.062 223.21C180.374 223.762 180.794 224.194 181.322 224.506C181.85 224.806 182.444 224.956 183.104 224.956ZM196.636 222.004C196.084 222.244 195.526 222.436 194.962 222.58C194.41 222.712 193.858 222.778 193.306 222.778C192.19 222.778 191.308 222.526 190.66 222.022C190.012 221.506 189.688 220.714 189.688 219.646V216.55H190.948V219.574C190.948 220.294 191.182 220.834 191.65 221.194C192.118 221.554 192.748 221.734 193.54 221.734C194.02 221.734 194.524 221.674 195.052 221.554C195.58 221.422 196.114 221.236 196.654 220.996L196.636 222.004ZM196.528 226V216.55H197.806V226H196.528ZM201.435 226V216.55H202.713V224.056L209.031 216.55H210.165V226H208.887V218.476L202.587 226H201.435ZM212.28 226L216.276 220.816L216.258 221.446L212.46 216.55H213.9L217.014 220.6L216.474 220.582L219.588 216.55H220.992L217.158 221.5L217.176 220.816L221.208 226H219.75L216.456 221.68L216.96 221.752L213.72 226H212.28ZM234.493 225.388V217.666H229.939L229.831 219.772C229.807 220.408 229.765 221.032 229.705 221.644C229.657 222.256 229.567 222.82 229.435 223.336C229.315 223.84 229.141 224.254 228.913 224.578C228.685 224.89 228.391 225.07 228.031 225.118L226.753 224.884C227.125 224.896 227.431 224.764 227.671 224.488C227.911 224.2 228.097 223.81 228.229 223.318C228.361 222.826 228.457 222.268 228.517 221.644C228.577 221.008 228.625 220.36 228.661 219.7L228.787 216.55H235.771V225.388H234.493ZM226.357 228.286V224.884H237.247V228.286H236.041V226H227.563V228.286H226.357ZM239.738 226V216.55H241.016V220.726H246.974V216.55H248.252V226H246.974V221.824H241.016V226H239.738ZM257.986 226V222.598L258.22 222.868H255.016C253.804 222.868 252.856 222.604 252.172 222.076C251.488 221.548 251.146 220.78 251.146 219.772C251.146 218.692 251.512 217.888 252.244 217.36C252.976 216.82 253.954 216.55 255.178 216.55H259.156V226H257.986ZM251.074 226L253.666 222.364H254.998L252.46 226H251.074ZM257.986 222.22V217.288L258.22 217.666H255.214C254.338 217.666 253.654 217.834 253.162 218.17C252.682 218.506 252.442 219.052 252.442 219.808C252.442 221.212 253.336 221.914 255.124 221.914H258.22L257.986 222.22Z" fill="black"/>
<path d="M58.75 278H64.75M52.75 272.75H72.25M67.75 278H69.25M54.25 268.25C53.5 268.25 52.75 269 52.75 269.75V280.25C52.75 281 53.5 281.75 54.25 281.75H70.75C71.5 281.75 72.25 281 72.25 280.25V269.75C72.25 269 71.5 268.25 70.75 268.25H54.25Z" stroke="black" stroke-width="2" stroke-linecap="round" stroke-linejoin="round"/>
<path d="M102.15 280.108C101.202 280.108 100.32 279.952 99.504 279.64C98.7 279.316 97.998 278.866 97.398 278.29C96.81 277.702 96.348 277.024 96.012 276.256C95.688 275.476 95.526 274.624 95.526 273.7C95.526 272.776 95.688 271.93 96.012 271.162C96.348 270.382 96.81 269.704 97.398 269.128C97.998 268.54 98.7 268.09 99.504 267.778C100.308 267.454 101.19 267.292 102.15 267.292C103.098 267.292 103.974 267.454 104.778 267.778C105.582 268.09 106.278 268.534 106.866 269.11C107.466 269.686 107.928 270.364 108.252 271.144C108.588 271.924 108.756 272.776 108.756 273.7C108.756 274.624 108.588 275.476 108.252 276.256C107.928 277.036 107.466 277.714 106.866 278.29C106.278 278.866 105.582 279.316 104.778 279.64C103.974 279.952 103.098 280.108 102.15 280.108ZM102.15 278.92C102.906 278.92 103.602 278.794 104.238 278.542C104.886 278.278 105.444 277.912 105.912 277.444C106.392 276.964 106.764 276.412 107.028 275.788C107.292 275.152 107.424 274.456 107.424 273.7C107.424 272.944 107.292 272.254 107.028 271.63C106.764 270.994 106.392 270.442 105.912 269.974C105.444 269.494 104.886 269.128 104.238 268.876C103.602 268.612 102.906 268.48 102.15 268.48C101.394 268.48 100.692 268.612 100.044 268.876C99.396 269.128 98.832 269.494 98.352 269.974C97.884 270.442 97.512 270.994 97.236 271.63C96.972 272.254 96.84 272.944 96.84 273.7C96.84 274.444 96.972 275.134 97.236 275.77C97.512 276.406 97.884 276.964 98.352 277.444C98.832 277.912 99.396 278.278 100.044 278.542C100.692 278.794 101.394 278.92 102.15 278.92ZM111.629 280V270.55H120.125V280H118.847V271.324L119.171 271.666H112.583L112.907 271.324V280H111.629ZM122.029 279.982L122.119 278.884C122.203 278.896 122.281 278.914 122.353 278.938C122.437 278.95 122.509 278.956 122.569 278.956C122.953 278.956 123.259 278.812 123.487 278.524C123.727 278.236 123.907 277.852 124.027 277.372C124.147 276.892 124.231 276.352 124.279 275.752C124.327 275.14 124.369 274.528 124.405 273.916L124.567 270.55H131.497V280H130.219V271.288L130.543 271.666H125.395L125.701 271.27L125.557 274.006C125.521 274.822 125.455 275.602 125.359 276.346C125.275 277.09 125.137 277.744 124.945 278.308C124.765 278.872 124.513 279.316 124.189 279.64C123.865 279.952 123.451 280.108 122.947 280.108C122.803 280.108 122.653 280.096 122.497 280.072C122.353 280.048 122.197 280.018 122.029 279.982ZM140.999 280V277.912L140.945 277.57V274.078C140.945 273.274 140.717 272.656 140.261 272.224C139.817 271.792 139.151 271.576 138.263 271.576C137.651 271.576 137.069 271.678 136.517 271.882C135.965 272.086 135.497 272.356 135.113 272.692L134.537 271.738C135.017 271.33 135.593 271.018 136.265 270.802C136.937 270.574 137.645 270.46 138.389 270.46C139.613 270.46 140.555 270.766 141.215 271.378C141.887 271.978 142.223 272.896 142.223 274.132V280H140.999ZM137.741 280.09C137.033 280.09 136.415 279.976 135.887 279.748C135.371 279.508 134.975 279.184 134.699 278.776C134.423 278.356 134.285 277.876 134.285 277.336C134.285 276.844 134.399 276.4 134.627 276.004C134.867 275.596 135.251 275.272 135.779 275.032C136.319 274.78 137.039 274.654 137.938 274.654H141.197V275.608H137.975C137.063 275.608 136.427 275.77 136.067 276.094C135.719 276.418 135.545 276.82 135.545 277.3C135.545 277.84 135.755 278.272 136.175 278.596C136.595 278.92 137.183 279.082 137.938 279.082C138.659 279.082 139.277 278.92 139.793 278.596C140.321 278.26 140.705 277.78 140.945 277.156L141.233 278.038C140.993 278.662 140.573 279.16 139.973 279.532C139.385 279.904 138.641 280.09 137.741 280.09ZM147.425 280V271.324L147.749 271.666H143.843V270.55H152.285V271.666H148.379L148.703 271.324V280H147.425ZM160 280V277.912L159.946 277.57V274.078C159.946 273.274 159.718 272.656 159.262 272.224C158.818 271.792 158.152 271.576 157.264 271.576C156.652 271.576 156.07 271.678 155.518 271.882C154.966 272.086 154.498 272.356 154.114 272.692L153.538 271.738C154.018 271.33 154.594 271.018 155.266 270.802C155.938 270.574 156.646 270.46 157.39 270.46C158.614 270.46 159.556 270.766 160.216 271.378C160.888 271.978 161.224 272.896 161.224 274.132V280H160ZM156.742 280.09C156.034 280.09 155.416 279.976 154.888 279.748C154.372 279.508 153.976 279.184 153.7 278.776C153.424 278.356 153.286 277.876 153.286 277.336C153.286 276.844 153.4 276.4 153.628 276.004C153.868 275.596 154.252 275.272 154.78 275.032C155.32 274.78 156.04 274.654 156.94 274.654H160.198V275.608H156.976C156.064 275.608 155.428 275.77 155.068 276.094C154.72 276.418 154.546 276.82 154.546 277.3C154.546 277.84 154.756 278.272 155.176 278.596C155.596 278.92 156.184 279.082 156.94 279.082C157.66 279.082 158.278 278.92 158.794 278.596C159.322 278.26 159.706 277.78 159.946 277.156L160.234 278.038C159.994 278.662 159.574 279.16 158.974 279.532C158.386 279.904 157.642 280.09 156.742 280.09ZM173.226 280.09C172.314 280.09 171.492 279.886 170.76 279.478C170.04 279.058 169.47 278.488 169.05 277.768C168.63 277.036 168.42 276.202 168.42 275.266C168.42 274.318 168.63 273.484 169.05 272.764C169.47 272.044 170.04 271.48 170.76 271.072C171.48 270.664 172.302 270.46 173.226 270.46C174.162 270.46 174.99 270.664 175.71 271.072C176.442 271.48 177.012 272.044 177.42 272.764C177.84 273.484 178.05 274.318 178.05 275.266C178.05 276.202 177.84 277.036 177.42 277.768C177.012 278.488 176.442 279.058 175.71 279.478C174.978 279.886 174.15 280.09 173.226 280.09ZM173.226 278.956C173.91 278.956 174.516 278.806 175.044 278.506C175.572 278.194 175.986 277.762 176.286 277.21C176.598 276.646 176.754 275.998 176.754 275.266C176.754 274.522 176.598 273.874 176.286 273.322C175.986 272.77 175.572 272.344 175.044 272.044C174.516 271.732 173.916 271.576 173.244 271.576C172.572 271.576 171.972 271.732 171.444 272.044C170.916 272.344 170.496 272.77 170.184 273.322C169.872 273.874 169.716 274.522 169.716 275.266C169.716 275.998 169.872 276.646 170.184 277.21C170.496 277.762 170.916 278.194 171.444 278.506C171.972 278.806 172.566 278.956 173.226 278.956ZM180.781 280V270.55H182.059V274.726H188.017V270.55H189.295V280H188.017V275.824H182.059V280H180.781ZM191.199 279.982L191.289 278.884C191.373 278.896 191.451 278.914 191.523 278.938C191.607 278.95 191.679 278.956 191.739 278.956C192.123 278.956 192.429 278.812 192.657 278.524C192.897 278.236 193.077 277.852 193.197 277.372C193.317 276.892 193.401 276.352 193.449 275.752C193.497 275.14 193.539 274.528 193.575 273.916L193.737 270.55H200.667V280H199.389V271.288L199.713 271.666H194.565L194.871 271.27L194.727 274.006C194.691 274.822 194.625 275.602 194.529 276.346C194.445 277.09 194.307 277.744 194.115 278.308C193.935 278.872 193.683 279.316 193.359 279.64C193.035 279.952 192.621 280.108 192.117 280.108C191.973 280.108 191.823 280.096 191.667 280.072C191.523 280.048 191.367 280.018 191.199 279.982ZM210.168 280V277.912L210.114 277.57V274.078C210.114 273.274 209.886 272.656 209.43 272.224C208.986 271.792 208.32 271.576 207.432 271.576C206.82 271.576 206.238 271.678 205.686 271.882C205.134 272.086 204.666 272.356 204.282 272.692L203.706 271.738C204.186 271.33 204.762 271.018 205.434 270.802C206.106 270.574 206.814 270.46 207.558 270.46C208.782 270.46 209.724 270.766 210.384 271.378C211.056 271.978 211.392 272.896 211.392 274.132V280H210.168ZM206.91 280.09C206.202 280.09 205.584 279.976 205.056 279.748C204.54 279.508 204.144 279.184 203.868 278.776C203.592 278.356 203.454 277.876 203.454 277.336C203.454 276.844 203.568 276.4 203.796 276.004C204.036 275.596 204.42 275.272 204.948 275.032C205.488 274.78 206.208 274.654 207.108 274.654H210.366V275.608H207.144C206.232 275.608 205.596 275.77 205.236 276.094C204.888 276.418 204.714 276.82 204.714 277.3C204.714 277.84 204.924 278.272 205.344 278.596C205.764 278.92 206.352 279.082 207.108 279.082C207.828 279.082 208.446 278.92 208.962 278.596C209.49 278.26 209.874 277.78 210.114 277.156L210.402 278.038C210.162 278.662 209.742 279.16 209.142 279.532C208.554 279.904 207.81 280.09 206.91 280.09ZM214.795 280V270.55H216.073V278.056L222.391 270.55H223.525V280H222.247V272.476L215.947 280H214.795ZM219.079 269.182C218.287 269.182 217.645 268.984 217.153 268.588C216.673 268.18 216.421 267.598 216.397 266.842H217.315C217.327 267.322 217.495 267.7 217.819 267.976C218.143 268.252 218.563 268.39 219.079 268.39C219.595 268.39 220.015 268.252 220.339 267.976C220.675 267.7 220.849 267.322 220.861 266.842H221.779C221.767 267.598 221.515 268.18 221.023 268.588C220.531 268.984 219.883 269.182 219.079 269.182ZM227.187 280V270.55H228.465V274.726H234.423V270.55H235.701V280H234.423V275.824H228.465V280H227.187Z" fill="black"/>
</svg>
