<svg width="449" height="337" viewBox="0 0 449 337" fill="none" xmlns="http://www.w3.org/2000/svg">
<rect x="0.5" width="448" height="337" rx="20" fill="#E5FBE7"/>
<path d="M104.058 70C103.809 70 103.603 69.9193 103.442 69.758C103.281 69.5967 103.2 69.3913 103.2 69.142V53.676C103.2 53.4267 103.281 53.2213 103.442 53.06C103.603 52.8987 103.809 52.818 104.058 52.818H115.762C116.011 52.818 116.217 52.8987 116.378 53.06C116.539 53.2213 116.62 53.4267 116.62 53.676V69.142C116.62 69.3913 116.539 69.5967 116.378 69.758C116.217 69.9193 116.011 70 115.762 70C115.513 70 115.307 69.9193 115.146 69.758C114.985 69.5967 114.904 69.3913 114.904 69.142V54.424H104.916V69.142C104.916 69.3913 104.835 69.5967 104.674 69.758C104.513 69.9193 104.307 70 104.058 70ZM120.703 75.258C120.38 75.2727 120.057 75.2287 119.735 75.126C119.427 75.038 119.119 74.906 118.811 74.73C118.576 74.5833 118.429 74.3927 118.371 74.158C118.297 73.938 118.341 73.7253 118.503 73.52C118.649 73.3293 118.825 73.2267 119.031 73.212C119.251 73.212 119.478 73.2707 119.713 73.388C119.874 73.4907 120.035 73.564 120.197 73.608C120.358 73.652 120.541 73.674 120.747 73.674C121.231 73.6593 121.693 73.432 122.133 72.992C122.587 72.552 122.998 71.914 123.365 71.078L128.843 58.428C128.931 58.208 129.077 58.0613 129.283 57.988C129.503 57.9 129.723 57.9073 129.943 58.01C130.148 58.098 130.28 58.2447 130.339 58.45C130.412 58.6553 130.397 58.8753 130.295 59.11L124.795 71.738C124.325 72.794 123.731 73.6447 123.013 74.29C122.309 74.9353 121.539 75.258 120.703 75.258ZM125.301 69.626C125.081 69.7287 124.875 69.7507 124.685 69.692C124.494 69.6187 124.34 69.472 124.223 69.252L119.317 59.088C119.214 58.868 119.199 58.6627 119.273 58.472C119.346 58.2813 119.493 58.1347 119.713 58.032C119.933 57.9293 120.138 57.9147 120.329 57.988C120.519 58.0467 120.666 58.186 120.769 58.406L125.609 68.526C125.711 68.746 125.741 68.9587 125.697 69.164C125.653 69.3693 125.521 69.5233 125.301 69.626ZM143.397 70C143.148 70 142.942 69.9267 142.781 69.78C142.62 69.6187 142.539 69.406 142.539 69.142V58.824C142.539 58.56 142.62 58.3547 142.781 58.208C142.942 58.0467 143.148 57.966 143.397 57.966C143.646 57.966 143.844 58.0467 143.991 58.208C144.138 58.3547 144.211 58.56 144.211 58.824V69.142C144.211 69.406 144.138 69.6187 143.991 69.78C143.844 69.9267 143.646 70 143.397 70ZM133.937 70C133.688 70 133.482 69.9267 133.321 69.78C133.174 69.6187 133.101 69.406 133.101 69.142V58.824C133.101 58.56 133.174 58.3547 133.321 58.208C133.482 58.0467 133.688 57.966 133.937 57.966C134.186 57.966 134.384 58.0467 134.531 58.208C134.692 58.3547 134.773 58.56 134.773 58.824V69.142C134.773 69.406 134.692 69.6187 134.531 69.78C134.384 69.9267 134.186 70 133.937 70ZM134.487 64.698V63.18H143.133V64.698H134.487ZM157.512 69.78C157.365 69.9267 157.167 70 156.918 70C156.683 70 156.492 69.9193 156.346 69.758L151.088 63.994L156.126 58.23C156.272 58.0687 156.456 57.9807 156.676 57.966C156.896 57.9513 157.086 58.01 157.248 58.142C157.424 58.3033 157.519 58.4867 157.534 58.692C157.548 58.8827 157.482 59.066 157.336 59.242L153.2 63.906L157.556 68.702C157.702 68.8633 157.776 69.0467 157.776 69.252C157.776 69.4427 157.688 69.6187 157.512 69.78ZM148.976 70C148.726 70 148.528 69.9267 148.382 69.78C148.235 69.6187 148.162 69.4133 148.162 69.164V58.824C148.162 58.56 148.235 58.3547 148.382 58.208C148.528 58.0467 148.726 57.966 148.976 57.966C149.24 57.966 149.445 58.0467 149.592 58.208C149.753 58.3547 149.834 58.56 149.834 58.824V63.18H152.518V64.72H149.834V69.164C149.834 69.4133 149.753 69.6187 149.592 69.78C149.445 69.9267 149.24 70 148.976 70ZM176.773 70C176.524 70 176.318 69.9267 176.157 69.78C175.996 69.6187 175.915 69.4133 175.915 69.164V62.828C175.915 61.7867 175.644 60.9653 175.101 60.364C174.558 59.748 173.862 59.44 173.011 59.44C172.102 59.44 171.354 59.748 170.767 60.364C170.195 60.9653 169.916 61.772 169.931 62.784H168.413C168.428 61.8013 168.64 60.936 169.051 60.188C169.462 59.44 170.026 58.8607 170.745 58.45C171.464 58.0393 172.278 57.834 173.187 57.834C174.052 57.834 174.815 58.0393 175.475 58.45C176.15 58.8607 176.67 59.44 177.037 60.188C177.418 60.936 177.609 61.816 177.609 62.828V69.164C177.609 69.4133 177.528 69.6187 177.367 69.78C177.22 69.9267 177.022 70 176.773 70ZM161.373 70C161.109 70 160.896 69.9267 160.735 69.78C160.588 69.6187 160.515 69.4133 160.515 69.164V58.824C160.515 58.5747 160.588 58.3693 160.735 58.208C160.896 58.0467 161.109 57.966 161.373 57.966C161.622 57.966 161.82 58.0467 161.967 58.208C162.128 58.3693 162.209 58.5747 162.209 58.824V69.164C162.209 69.4133 162.128 69.6187 161.967 69.78C161.82 69.9267 161.622 70 161.373 70ZM169.095 70C168.846 70 168.64 69.9267 168.479 69.78C168.318 69.6187 168.237 69.4133 168.237 69.164V62.828C168.237 61.7867 167.966 60.9653 167.423 60.364C166.88 59.748 166.184 59.44 165.333 59.44C164.424 59.44 163.676 59.7407 163.089 60.342C162.502 60.9287 162.209 61.6987 162.209 62.652H160.999C161.028 61.7133 161.234 60.8847 161.615 60.166C162.011 59.4327 162.546 58.8607 163.221 58.45C163.896 58.0393 164.658 57.834 165.509 57.834C166.374 57.834 167.137 58.0393 167.797 58.45C168.472 58.8607 168.992 59.44 169.359 60.188C169.74 60.936 169.931 61.816 169.931 62.828V69.164C169.931 69.4133 169.85 69.6187 169.689 69.78C169.542 69.9267 169.344 70 169.095 70ZM188.658 70C188.394 70 188.182 69.9267 188.02 69.78C187.874 69.6187 187.8 69.406 187.8 69.142V58.802C187.815 58.5527 187.896 58.3547 188.042 58.208C188.204 58.0467 188.409 57.966 188.658 57.966C188.908 57.966 189.106 58.0467 189.252 58.208C189.414 58.3547 189.494 58.56 189.494 58.824V63.004H194.136V63.312C194.899 63.312 195.574 63.4513 196.16 63.73C196.762 64.0087 197.224 64.3973 197.546 64.896C197.884 65.38 198.052 65.9373 198.052 66.568C198.052 67.2427 197.884 67.8367 197.546 68.35C197.224 68.8633 196.762 69.2667 196.16 69.56C195.574 69.8533 194.899 70 194.136 70H188.658ZM189.494 68.438H194.136C194.796 68.438 195.339 68.2693 195.764 67.932C196.19 67.5947 196.402 67.1107 196.402 66.48C196.402 65.82 196.19 65.3213 195.764 64.984C195.339 64.632 194.796 64.456 194.136 64.456H189.494V68.438ZM191.958 63.95V63.004H194.136C194.65 63.004 195.068 62.8353 195.39 62.498C195.713 62.1607 195.874 61.728 195.874 61.2C195.874 60.7307 195.698 60.3347 195.346 60.012C195.009 59.6747 194.576 59.506 194.048 59.506H188.68V57.966H194.048C194.723 57.966 195.317 58.1053 195.83 58.384C196.358 58.648 196.769 59.0147 197.062 59.484C197.37 59.9533 197.524 60.496 197.524 61.112C197.524 62.0653 197.202 62.7767 196.556 63.246C195.926 63.7153 195.119 63.95 194.136 63.95H191.958ZM205.789 70.22C204.836 70.22 203.993 70.0293 203.259 69.648C202.541 69.2667 201.969 68.7387 201.543 68.064C201.133 67.3893 200.927 66.612 200.927 65.732V58.802C200.942 58.5527 201.023 58.3547 201.169 58.208C201.331 58.0467 201.536 57.966 201.785 57.966C202.035 57.966 202.233 58.0467 202.379 58.208C202.541 58.3547 202.621 58.56 202.621 58.824V61.948H205.877C206.757 61.948 207.535 62.1167 208.209 62.454C208.899 62.7767 209.434 63.246 209.815 63.862C210.197 64.4633 210.387 65.182 210.387 66.018C210.387 66.8687 210.189 67.6093 209.793 68.24C209.412 68.8707 208.869 69.362 208.165 69.714C207.476 70.0513 206.684 70.22 205.789 70.22ZM205.789 68.658C206.64 68.658 207.344 68.438 207.901 67.998C208.459 67.558 208.737 66.898 208.737 66.018C208.737 65.138 208.466 64.4853 207.923 64.06C207.395 63.6347 206.713 63.422 205.877 63.422H202.621V65.732C202.621 66.5827 202.915 67.2867 203.501 67.844C204.103 68.3867 204.865 68.658 205.789 68.658ZM213.137 70C212.888 70 212.683 69.9267 212.521 69.78C212.375 69.6187 212.301 69.406 212.301 69.142V58.824C212.301 58.56 212.375 58.3547 212.521 58.208C212.683 58.0467 212.888 57.966 213.137 57.966C213.401 57.966 213.607 58.0467 213.753 58.208C213.915 58.3547 213.995 58.56 213.995 58.824V69.142C213.995 69.406 213.915 69.6187 213.753 69.78C213.607 69.9267 213.401 70 213.137 70ZM223.266 70.11C222.108 70.11 221.081 69.8533 220.186 69.34C219.292 68.812 218.588 68.086 218.074 67.162C217.576 66.238 217.326 65.182 217.326 63.994C217.326 62.7913 217.59 61.728 218.118 60.804C218.646 59.88 219.372 59.1613 220.296 58.648C221.22 58.12 222.269 57.856 223.442 57.856C224.63 57.856 225.679 58.12 226.588 58.648C227.512 59.1613 228.231 59.88 228.744 60.804C229.272 61.728 229.544 62.7913 229.558 63.994L228.568 64.522C228.568 65.6073 228.341 66.5753 227.886 67.426C227.432 68.262 226.801 68.922 225.994 69.406C225.202 69.8753 224.293 70.11 223.266 70.11ZM223.486 74.752C222.328 74.752 221.308 74.532 220.428 74.092C219.548 73.6667 218.822 73.08 218.25 72.332C218.089 72.156 218.016 71.9653 218.03 71.76C218.06 71.5547 218.17 71.386 218.36 71.254C218.551 71.122 218.764 71.078 218.998 71.122C219.233 71.166 219.416 71.276 219.548 71.452C219.974 71.98 220.516 72.4053 221.176 72.728C221.851 73.0507 222.628 73.212 223.508 73.212C224.33 73.212 225.07 73.014 225.73 72.618C226.39 72.222 226.911 71.6647 227.292 70.946C227.688 70.2273 227.886 69.384 227.886 68.416V65.072L228.524 63.796L229.558 63.994V68.482C229.558 69.67 229.294 70.7333 228.766 71.672C228.238 72.6253 227.52 73.3733 226.61 73.916C225.701 74.4733 224.66 74.752 223.486 74.752ZM223.442 68.57C224.308 68.57 225.07 68.3793 225.73 67.998C226.405 67.602 226.933 67.0593 227.314 66.37C227.696 65.6807 227.886 64.8887 227.886 63.994C227.886 63.0993 227.696 62.3073 227.314 61.618C226.933 60.914 226.405 60.3713 225.73 59.99C225.07 59.594 224.308 59.396 223.442 59.396C222.577 59.396 221.807 59.594 221.132 59.99C220.458 60.3713 219.93 60.914 219.548 61.618C219.167 62.3073 218.976 63.0993 218.976 63.994C218.976 64.8887 219.167 65.6807 219.548 66.37C219.93 67.0593 220.458 67.602 221.132 67.998C221.807 68.3793 222.577 68.57 223.442 68.57ZM238.155 70.11C237.026 70.11 236.014 69.846 235.119 69.318C234.224 68.7753 233.513 68.042 232.985 67.118C232.472 66.194 232.215 65.1527 232.215 63.994C232.215 62.8207 232.479 61.772 233.007 60.848C233.55 59.924 234.283 59.198 235.207 58.67C236.131 58.1273 237.172 57.856 238.331 57.856C239.49 57.856 240.524 58.1273 241.433 58.67C242.357 59.198 243.083 59.924 243.611 60.848C244.154 61.772 244.432 62.8207 244.447 63.994L243.765 64.522C243.765 65.578 243.516 66.5313 243.017 67.382C242.533 68.218 241.866 68.8853 241.015 69.384C240.179 69.868 239.226 70.11 238.155 70.11ZM238.331 68.57C239.182 68.57 239.937 68.372 240.597 67.976C241.272 67.58 241.8 67.0373 242.181 66.348C242.577 65.644 242.775 64.8593 242.775 63.994C242.775 63.114 242.577 62.3293 242.181 61.64C241.8 60.9507 241.272 60.408 240.597 60.012C239.937 59.6013 239.182 59.396 238.331 59.396C237.495 59.396 236.74 59.6013 236.065 60.012C235.39 60.408 234.855 60.9507 234.459 61.64C234.063 62.3293 233.865 63.114 233.865 63.994C233.865 64.8593 234.063 65.644 234.459 66.348C234.855 67.0373 235.39 67.58 236.065 67.976C236.74 68.372 237.495 68.57 238.331 68.57ZM243.589 70C243.34 70 243.134 69.9267 242.973 69.78C242.812 69.6187 242.731 69.4133 242.731 69.164V65.402L243.149 63.664L244.447 63.994V69.164C244.447 69.4133 244.366 69.6187 244.205 69.78C244.044 69.9267 243.838 70 243.589 70ZM251.68 66.282C250.609 66.282 249.707 66.062 248.974 65.622C248.255 65.182 247.705 64.5587 247.324 63.752C246.942 62.9453 246.752 61.9993 246.752 60.914V58.824C246.752 58.56 246.825 58.3547 246.972 58.208C247.133 58.0467 247.346 57.966 247.61 57.966C247.859 57.966 248.057 58.0467 248.204 58.208C248.365 58.3547 248.446 58.56 248.446 58.824V60.914C248.446 62.0727 248.724 62.9893 249.282 63.664C249.854 64.3387 250.712 64.676 251.856 64.676C252.78 64.676 253.528 64.5147 254.1 64.192C254.686 63.8547 254.98 63.4293 254.98 62.916H255.838C255.823 63.5613 255.632 64.1407 255.266 64.654C254.899 65.1527 254.408 65.5487 253.792 65.842C253.176 66.1353 252.472 66.282 251.68 66.282ZM255.838 70C255.574 70 255.361 69.9267 255.2 69.78C255.053 69.6187 254.98 69.406 254.98 69.142V58.824C254.98 58.56 255.053 58.3547 255.2 58.208C255.361 58.0467 255.574 57.966 255.838 57.966C256.087 57.966 256.285 58.0467 256.432 58.208C256.593 58.3547 256.674 58.56 256.674 58.824V69.142C256.674 69.406 256.593 69.6187 256.432 69.78C256.285 69.9267 256.087 70 255.838 70ZM265.868 70.132C264.827 70.132 263.896 69.9193 263.074 69.494C262.253 69.054 261.6 68.416 261.116 67.58C260.647 66.744 260.412 65.7247 260.412 64.522V58.802C260.412 58.5673 260.493 58.3693 260.654 58.208C260.816 58.0467 261.014 57.966 261.248 57.966C261.498 57.966 261.703 58.0467 261.864 58.208C262.026 58.3693 262.106 58.5673 262.106 58.802V64.522C262.106 65.4313 262.275 66.1793 262.612 66.766C262.964 67.3527 263.434 67.7927 264.02 68.086C264.622 68.3793 265.296 68.526 266.044 68.526C266.763 68.526 267.408 68.3867 267.98 68.108C268.567 67.8293 269.029 67.448 269.366 66.964C269.704 66.48 269.872 65.93 269.872 65.314H271.082C271.038 66.238 270.782 67.0667 270.312 67.8C269.858 68.5187 269.242 69.0907 268.464 69.516C267.687 69.9267 266.822 70.132 265.868 70.132ZM270.708 70C270.459 70 270.254 69.9267 270.092 69.78C269.946 69.6187 269.872 69.406 269.872 69.142V58.802C269.872 58.5527 269.946 58.3547 270.092 58.208C270.254 58.0467 270.459 57.966 270.708 57.966C270.958 57.966 271.163 58.0467 271.324 58.208C271.486 58.3547 271.566 58.5527 271.566 58.802V69.142C271.566 69.406 271.486 69.6187 271.324 69.78C271.163 69.9267 270.958 70 270.708 70ZM289.908 70.22C288.72 70.22 287.606 69.9927 286.564 69.538C285.538 69.0833 284.628 68.4527 283.836 67.646C283.059 66.8247 282.45 65.886 282.01 64.83C281.57 63.7593 281.35 62.6153 281.35 61.398C281.35 60.1953 281.563 59.066 281.988 58.01C282.428 56.9393 283.037 56.0007 283.814 55.194C284.606 54.3873 285.516 53.7567 286.542 53.302C287.584 52.8327 288.706 52.598 289.908 52.598C290.964 52.598 291.925 52.752 292.79 53.06C293.656 53.368 294.492 53.8593 295.298 54.534C295.43 54.6367 295.504 54.7613 295.518 54.908C295.548 55.04 295.533 55.172 295.474 55.304C295.416 55.4213 295.328 55.5093 295.21 55.568C295.181 55.6853 295.108 55.7733 294.99 55.832C294.873 55.8907 294.734 55.9127 294.572 55.898C294.426 55.8833 294.279 55.8173 294.132 55.7C293.56 55.2013 292.937 54.8347 292.262 54.6C291.588 54.3507 290.803 54.226 289.908 54.226C288.955 54.226 288.06 54.4167 287.224 54.798C286.403 55.1793 285.677 55.7 285.046 56.36C284.416 57.02 283.917 57.7827 283.55 58.648C283.198 59.5133 283.022 60.43 283.022 61.398C283.022 62.3953 283.198 63.3267 283.55 64.192C283.917 65.0573 284.416 65.82 285.046 66.48C285.677 67.14 286.403 67.6607 287.224 68.042C288.06 68.4087 288.955 68.592 289.908 68.592C290.715 68.592 291.478 68.46 292.196 68.196C292.915 67.932 293.597 67.5507 294.242 67.052C294.418 66.9053 294.602 66.8467 294.792 66.876C294.998 66.9053 295.174 66.9933 295.32 67.14C295.467 67.2867 295.54 67.4773 295.54 67.712C295.54 67.8293 295.518 67.9393 295.474 68.042C295.445 68.13 295.386 68.2253 295.298 68.328C294.55 69.0173 293.714 69.5087 292.79 69.802C291.866 70.0807 290.906 70.22 289.908 70.22ZM300.349 69.472L298.875 68.768L305.211 53.412C305.387 53.016 305.658 52.818 306.025 52.818C306.421 52.818 306.7 53.016 306.861 53.412L313.197 68.79L311.767 69.472L305.783 54.798H306.267L300.349 69.472ZM298.281 73.762C298.017 73.762 297.804 73.6813 297.643 73.52C297.496 73.3733 297.423 73.168 297.423 72.904V69.252C297.423 68.988 297.496 68.7827 297.643 68.636C297.804 68.4747 298.017 68.394 298.281 68.394H313.857C314.121 68.394 314.326 68.4747 314.473 68.636C314.634 68.7827 314.715 68.988 314.715 69.252V72.904C314.715 73.168 314.634 73.3733 314.473 73.52C314.326 73.6813 314.121 73.762 313.857 73.762C313.593 73.762 313.38 73.6813 313.219 73.52C313.072 73.3733 312.999 73.168 312.999 72.904V70H299.139V72.904C299.139 73.168 299.058 73.3733 298.897 73.52C298.75 73.6813 298.545 73.762 298.281 73.762ZM322.326 70.22C321.314 70.22 320.346 70.0807 319.422 69.802C318.512 69.5087 317.676 69.0173 316.914 68.328C316.826 68.2253 316.767 68.13 316.738 68.042C316.708 67.9393 316.694 67.8293 316.694 67.712C316.694 67.4773 316.76 67.2867 316.892 67.14C317.038 66.9933 317.207 66.9053 317.398 66.876C317.603 66.8467 317.794 66.9053 317.97 67.052C318.615 67.5507 319.297 67.932 320.016 68.196C320.734 68.46 321.504 68.592 322.326 68.592C323.264 68.592 324.144 68.4087 324.966 68.042C325.802 67.6607 326.535 67.14 327.166 66.48C327.796 65.82 328.288 65.0573 328.64 64.192C329.006 63.3267 329.19 62.3953 329.19 61.398C329.19 60.43 329.006 59.5133 328.64 58.648C328.288 57.7827 327.796 57.02 327.166 56.36C326.535 55.7 325.802 55.1793 324.966 54.798C324.144 54.4167 323.264 54.226 322.326 54.226C321.416 54.226 320.624 54.3507 319.95 54.6C319.275 54.8347 318.652 55.2013 318.08 55.7C317.933 55.8173 317.779 55.8833 317.618 55.898C317.471 55.9127 317.339 55.8907 317.222 55.832C317.119 55.7733 317.046 55.6853 317.002 55.568C316.884 55.5093 316.796 55.4213 316.738 55.304C316.679 55.172 316.657 55.04 316.672 54.908C316.701 54.7613 316.782 54.6367 316.914 54.534C317.72 53.8593 318.556 53.368 319.422 53.06C320.302 52.752 321.27 52.598 322.326 52.598C323.514 52.598 324.628 52.8327 325.67 53.302C326.711 53.7567 327.62 54.3873 328.398 55.194C329.175 56.0007 329.776 56.9393 330.202 58.01C330.642 59.066 330.862 60.1953 330.862 61.398C330.862 62.6153 330.642 63.7593 330.202 64.83C329.762 65.886 329.146 66.8247 328.354 67.646C327.576 68.4527 326.667 69.0833 325.626 69.538C324.599 69.9927 323.499 70.22 322.326 70.22ZM321.314 62.08C321.094 62.08 320.91 62.0067 320.764 61.86C320.617 61.7133 320.544 61.53 320.544 61.31C320.544 61.1047 320.617 60.9287 320.764 60.782C320.91 60.6207 321.094 60.54 321.314 60.54H329.894V62.08H321.314ZM346.382 69.78C346.236 69.9413 346.038 70.0147 345.788 70C345.539 70 345.341 69.912 345.194 69.736L338.066 61.266L344.622 53.082C344.784 52.906 344.982 52.818 345.216 52.818C345.451 52.8033 345.649 52.8767 345.81 53.038C345.986 53.214 346.067 53.4047 346.052 53.61C346.052 53.8007 345.979 53.984 345.832 54.16L340.134 61.178L346.47 68.636C346.632 68.8267 346.698 69.0247 346.668 69.23C346.654 69.4207 346.558 69.604 346.382 69.78ZM335.294 70C335.045 70 334.84 69.9193 334.678 69.758C334.517 69.5967 334.436 69.3913 334.436 69.142V53.676C334.436 53.4267 334.517 53.2213 334.678 53.06C334.84 52.8987 335.045 52.818 335.294 52.818C335.544 52.818 335.749 52.8987 335.91 53.06C336.072 53.2213 336.152 53.4267 336.152 53.676V60.54H339.628V62.08H336.152V69.142C336.152 69.3913 336.072 69.5967 335.91 69.758C335.749 69.9193 335.544 70 335.294 70Z" fill="black"/>
<path d="M62.5 147C68.023 147 72.5 142.523 72.5 137C72.5 131.477 68.023 127 62.5 127C56.977 127 52.5 131.477 52.5 137C52.5 142.523 56.977 147 62.5 147Z" stroke="black" stroke-width="1.5" stroke-linecap="round" stroke-linejoin="round"/>
<path d="M65.5 133.5C64.815 132.815 63.609 132.339 62.5 132.309M62.5 132.309C61.18 132.273 60 132.87 60 134.5C60 137.5 65.5 136 65.5 139C65.5 140.711 64.036 141.446 62.5 141.391M62.5 132.309V130.5M59.5 140C60.144 140.86 61.343 141.35 62.5 141.391M62.5 141.391V143.5" stroke="black" stroke-width="1.5" stroke-linecap="round" stroke-linejoin="round"/>
<path d="M99.198 142.108C98.286 142.108 97.422 141.964 96.606 141.676C95.802 141.376 95.154 140.98 94.662 140.488L95.292 139.462C95.7 139.882 96.246 140.23 96.93 140.506C97.626 140.782 98.382 140.92 99.198 140.92C100.242 140.92 101.04 140.692 101.592 140.236C102.156 139.78 102.438 139.168 102.438 138.4C102.438 137.632 102.162 137.02 101.61 136.564C101.07 136.108 100.212 135.88 99.036 135.88H98.136V134.926L102.024 130.048L102.204 130.552H95.184V129.4H103.284V130.318L99.396 135.196L98.766 134.782H99.252C100.764 134.782 101.892 135.118 102.636 135.79C103.392 136.462 103.77 137.326 103.77 138.382C103.77 139.09 103.602 139.726 103.266 140.29C102.93 140.854 102.42 141.298 101.736 141.622C101.064 141.946 100.218 142.108 99.198 142.108ZM109.398 142.108C108.498 142.108 107.64 141.964 106.824 141.676C106.008 141.376 105.36 140.98 104.88 140.488L105.51 139.462C105.906 139.882 106.446 140.23 107.13 140.506C107.826 140.782 108.576 140.92 109.38 140.92C110.448 140.92 111.258 140.686 111.81 140.218C112.374 139.738 112.656 139.114 112.656 138.346C112.656 137.806 112.524 137.344 112.26 136.96C112.008 136.564 111.576 136.258 110.964 136.042C110.352 135.826 109.512 135.718 108.444 135.718H105.762L106.41 129.4H113.304V130.552H106.932L107.598 129.922L107.04 135.214L106.374 134.566H108.732C110.004 134.566 111.024 134.722 111.792 135.034C112.56 135.346 113.112 135.784 113.448 136.348C113.796 136.9 113.97 137.548 113.97 138.292C113.97 139 113.802 139.648 113.466 140.236C113.13 140.812 112.626 141.268 111.954 141.604C111.282 141.94 110.43 142.108 109.398 142.108ZM120.638 142.108C119.666 142.108 118.802 141.856 118.046 141.352C117.29 140.836 116.696 140.104 116.264 139.156C115.832 138.196 115.616 137.044 115.616 135.7C115.616 134.356 115.832 133.21 116.264 132.262C116.696 131.302 117.29 130.57 118.046 130.066C118.802 129.55 119.666 129.292 120.638 129.292C121.61 129.292 122.474 129.55 123.23 130.066C123.986 130.57 124.58 131.302 125.012 132.262C125.456 133.21 125.678 134.356 125.678 135.7C125.678 137.044 125.456 138.196 125.012 139.156C124.58 140.104 123.986 140.836 123.23 141.352C122.474 141.856 121.61 142.108 120.638 142.108ZM120.638 140.92C121.382 140.92 122.03 140.722 122.582 140.326C123.134 139.918 123.566 139.33 123.878 138.562C124.19 137.782 124.346 136.828 124.346 135.7C124.346 134.572 124.19 133.624 123.878 132.856C123.566 132.076 123.134 131.488 122.582 131.092C122.03 130.684 121.382 130.48 120.638 130.48C119.918 130.48 119.276 130.684 118.712 131.092C118.148 131.488 117.71 132.076 117.398 132.856C117.086 133.624 116.93 134.572 116.93 135.7C116.93 136.828 117.086 137.782 117.398 138.562C117.71 139.33 118.148 139.918 118.712 140.326C119.276 140.722 119.918 140.92 120.638 140.92ZM138.005 142.09C137.189 142.09 136.451 141.904 135.791 141.532C135.131 141.148 134.603 140.602 134.207 139.894C133.823 139.174 133.631 138.298 133.631 137.266C133.631 136.234 133.823 135.364 134.207 134.656C134.591 133.936 135.113 133.39 135.773 133.018C136.433 132.646 137.177 132.46 138.005 132.46C138.905 132.46 139.709 132.664 140.417 133.072C141.137 133.468 141.701 134.032 142.109 134.764C142.517 135.484 142.721 136.318 142.721 137.266C142.721 138.226 142.517 139.066 142.109 139.786C141.701 140.506 141.137 141.07 140.417 141.478C139.709 141.886 138.905 142.09 138.005 142.09ZM133.127 145.492V132.55H134.351V135.394L134.225 137.284L134.405 139.192V145.492H133.127ZM137.915 140.956C138.587 140.956 139.187 140.806 139.715 140.506C140.243 140.194 140.663 139.762 140.975 139.21C141.287 138.646 141.443 137.998 141.443 137.266C141.443 136.534 141.287 135.892 140.975 135.34C140.663 134.788 140.243 134.356 139.715 134.044C139.187 133.732 138.587 133.576 137.915 133.576C137.243 133.576 136.637 133.732 136.097 134.044C135.569 134.356 135.149 134.788 134.837 135.34C134.537 135.892 134.387 136.534 134.387 137.266C134.387 137.998 134.537 138.646 134.837 139.21C135.149 139.762 135.569 140.194 136.097 140.506C136.637 140.806 137.243 140.956 137.915 140.956ZM145.293 142.09C145.029 142.09 144.801 141.994 144.609 141.802C144.429 141.61 144.339 141.376 144.339 141.1C144.339 140.812 144.429 140.578 144.609 140.398C144.801 140.218 145.029 140.128 145.293 140.128C145.557 140.128 145.779 140.218 145.959 140.398C146.151 140.578 146.247 140.812 146.247 141.1C146.247 141.376 146.151 141.61 145.959 141.802C145.779 141.994 145.557 142.09 145.293 142.09Z" fill="black"/>
<path d="M96.624 174V161.4H105.84V162.534H97.938V166.656H102.06C103.548 166.656 104.676 166.962 105.444 167.574C106.224 168.174 106.614 169.062 106.614 170.238C106.614 171.45 106.194 172.38 105.354 173.028C104.526 173.676 103.332 174 101.772 174H96.624ZM97.938 172.938H101.754C102.918 172.938 103.794 172.716 104.382 172.272C104.982 171.816 105.282 171.156 105.282 170.292C105.282 168.576 104.106 167.718 101.754 167.718H97.938V172.938ZM113.429 174.09C112.445 174.09 111.581 173.886 110.837 173.478C110.093 173.058 109.511 172.488 109.091 171.768C108.671 171.036 108.461 170.202 108.461 169.266C108.461 168.33 108.659 167.502 109.055 166.782C109.463 166.062 110.015 165.498 110.711 165.09C111.419 164.67 112.211 164.46 113.087 164.46C113.975 164.46 114.761 164.664 115.445 165.072C116.141 165.468 116.687 166.032 117.083 166.764C117.479 167.484 117.677 168.318 117.677 169.266C117.677 169.326 117.671 169.392 117.659 169.464C117.659 169.524 117.659 169.59 117.659 169.662H109.433V168.708H116.975L116.471 169.086C116.471 168.402 116.321 167.796 116.021 167.268C115.733 166.728 115.337 166.308 114.833 166.008C114.329 165.708 113.747 165.558 113.087 165.558C112.439 165.558 111.857 165.708 111.341 166.008C110.825 166.308 110.423 166.728 110.135 167.268C109.847 167.808 109.703 168.426 109.703 169.122V169.32C109.703 170.04 109.859 170.676 110.171 171.228C110.495 171.768 110.939 172.194 111.503 172.506C112.079 172.806 112.733 172.956 113.465 172.956C114.041 172.956 114.575 172.854 115.067 172.65C115.571 172.446 116.003 172.134 116.363 171.714L117.083 172.542C116.663 173.046 116.135 173.43 115.499 173.694C114.875 173.958 114.185 174.09 113.429 174.09ZM124.466 174.09C123.53 174.09 122.69 173.886 121.946 173.478C121.214 173.058 120.638 172.488 120.218 171.768C119.798 171.036 119.588 170.202 119.588 169.266C119.588 168.318 119.798 167.484 120.218 166.764C120.638 166.044 121.214 165.48 121.946 165.072C122.69 164.664 123.53 164.46 124.466 164.46C125.27 164.46 125.996 164.616 126.644 164.928C127.292 165.24 127.802 165.708 128.174 166.332L127.22 166.98C126.896 166.5 126.494 166.146 126.014 165.918C125.534 165.69 125.012 165.576 124.448 165.576C123.776 165.576 123.17 165.732 122.63 166.044C122.09 166.344 121.664 166.77 121.352 167.322C121.04 167.874 120.884 168.522 120.884 169.266C120.884 170.01 121.04 170.658 121.352 171.21C121.664 171.762 122.09 172.194 122.63 172.506C123.17 172.806 123.776 172.956 124.448 172.956C125.012 172.956 125.534 172.842 126.014 172.614C126.494 172.386 126.896 172.038 127.22 171.57L128.174 172.218C127.802 172.83 127.292 173.298 126.644 173.622C125.996 173.934 125.27 174.09 124.466 174.09ZM130.648 174V164.55H139.144V174H137.866V165.324L138.19 165.666H131.602L131.926 165.324V174H130.648ZM141.049 173.982L141.139 172.884C141.223 172.896 141.301 172.914 141.373 172.938C141.457 172.95 141.529 172.956 141.589 172.956C141.973 172.956 142.279 172.812 142.507 172.524C142.747 172.236 142.927 171.852 143.047 171.372C143.167 170.892 143.251 170.352 143.299 169.752C143.347 169.14 143.389 168.528 143.425 167.916L143.587 164.55H150.517V174H149.239V165.288L149.563 165.666H144.415L144.721 165.27L144.577 168.006C144.541 168.822 144.475 169.602 144.379 170.346C144.295 171.09 144.157 171.744 143.965 172.308C143.785 172.872 143.533 173.316 143.209 173.64C142.885 173.952 142.471 174.108 141.967 174.108C141.823 174.108 141.673 174.096 141.517 174.072C141.373 174.048 141.217 174.018 141.049 173.982ZM160.018 174V171.912L159.964 171.57V168.078C159.964 167.274 159.736 166.656 159.28 166.224C158.836 165.792 158.17 165.576 157.282 165.576C156.67 165.576 156.088 165.678 155.536 165.882C154.984 166.086 154.516 166.356 154.132 166.692L153.556 165.738C154.036 165.33 154.612 165.018 155.284 164.802C155.956 164.574 156.664 164.46 157.408 164.46C158.632 164.46 159.574 164.766 160.234 165.378C160.906 165.978 161.242 166.896 161.242 168.132V174H160.018ZM156.76 174.09C156.052 174.09 155.434 173.976 154.906 173.748C154.39 173.508 153.994 173.184 153.718 172.776C153.442 172.356 153.304 171.876 153.304 171.336C153.304 170.844 153.418 170.4 153.646 170.004C153.886 169.596 154.27 169.272 154.798 169.032C155.338 168.78 156.058 168.654 156.958 168.654H160.216V169.608H156.994C156.082 169.608 155.446 169.77 155.086 170.094C154.738 170.418 154.564 170.82 154.564 171.3C154.564 171.84 154.774 172.272 155.194 172.596C155.614 172.92 156.202 173.082 156.958 173.082C157.678 173.082 158.296 172.92 158.812 172.596C159.34 172.26 159.724 171.78 159.964 171.156L160.252 172.038C160.012 172.662 159.592 173.16 158.992 173.532C158.404 173.904 157.66 174.09 156.76 174.09ZM166.444 174V165.324L166.768 165.666H162.862V164.55H171.304V165.666H167.398L167.722 165.324V174H166.444ZM173.152 174V164.55H174.43V168.726H180.388V164.55H181.666V174H180.388V169.824H174.43V174H173.152ZM189.186 174.09C188.274 174.09 187.452 173.886 186.72 173.478C186 173.058 185.43 172.488 185.01 171.768C184.59 171.036 184.38 170.202 184.38 169.266C184.38 168.318 184.59 167.484 185.01 166.764C185.43 166.044 186 165.48 186.72 165.072C187.44 164.664 188.262 164.46 189.186 164.46C190.122 164.46 190.95 164.664 191.67 165.072C192.402 165.48 192.972 166.044 193.38 166.764C193.8 167.484 194.01 168.318 194.01 169.266C194.01 170.202 193.8 171.036 193.38 171.768C192.972 172.488 192.402 173.058 191.67 173.478C190.938 173.886 190.11 174.09 189.186 174.09ZM189.186 172.956C189.87 172.956 190.476 172.806 191.004 172.506C191.532 172.194 191.946 171.762 192.246 171.21C192.558 170.646 192.714 169.998 192.714 169.266C192.714 168.522 192.558 167.874 192.246 167.322C191.946 166.77 191.532 166.344 191.004 166.044C190.476 165.732 189.876 165.576 189.204 165.576C188.532 165.576 187.932 165.732 187.404 166.044C186.876 166.344 186.456 166.77 186.144 167.322C185.832 167.874 185.676 168.522 185.676 169.266C185.676 169.998 185.832 170.646 186.144 171.21C186.456 171.762 186.876 172.194 187.404 172.506C187.932 172.806 188.526 172.956 189.186 172.956ZM201.453 174V164.55H209.949V174H208.671V165.324L208.995 165.666H202.407L202.731 165.324V174H201.453ZM218.46 174.09C217.644 174.09 216.906 173.904 216.246 173.532C215.586 173.148 215.058 172.602 214.662 171.894C214.278 171.174 214.086 170.298 214.086 169.266C214.086 168.234 214.278 167.364 214.662 166.656C215.046 165.936 215.568 165.39 216.228 165.018C216.888 164.646 217.632 164.46 218.46 164.46C219.36 164.46 220.164 164.664 220.872 165.072C221.592 165.468 222.156 166.032 222.564 166.764C222.972 167.484 223.176 168.318 223.176 169.266C223.176 170.226 222.972 171.066 222.564 171.786C222.156 172.506 221.592 173.07 220.872 173.478C220.164 173.886 219.36 174.09 218.46 174.09ZM213.582 177.492V164.55H214.806V167.394L214.68 169.284L214.86 171.192V177.492H213.582ZM218.37 172.956C219.042 172.956 219.642 172.806 220.17 172.506C220.698 172.194 221.118 171.762 221.43 171.21C221.742 170.646 221.898 169.998 221.898 169.266C221.898 168.534 221.742 167.892 221.43 167.34C221.118 166.788 220.698 166.356 220.17 166.044C219.642 165.732 219.042 165.576 218.37 165.576C217.698 165.576 217.092 165.732 216.552 166.044C216.024 166.356 215.604 166.788 215.292 167.34C214.992 167.892 214.842 168.534 214.842 169.266C214.842 169.998 214.992 170.646 215.292 171.21C215.604 171.762 216.024 172.194 216.552 172.506C217.092 172.806 217.698 172.956 218.37 172.956ZM225.922 174V164.55H227.2V172.056L233.518 164.55H234.652V174H233.374V166.476L227.074 174H225.922ZM245.563 174.108C244.879 174.108 244.201 174.012 243.529 173.82C242.857 173.628 242.263 173.334 241.747 172.938L242.161 171.984C242.617 172.32 243.145 172.578 243.745 172.758C244.345 172.926 244.939 173.01 245.527 173.01C246.115 172.998 246.625 172.914 247.057 172.758C247.489 172.602 247.825 172.386 248.065 172.11C248.305 171.834 248.425 171.522 248.425 171.174C248.425 170.67 248.197 170.28 247.741 170.004C247.285 169.716 246.661 169.572 245.869 169.572H244.249V168.636H245.779C246.247 168.636 246.661 168.576 247.021 168.456C247.381 168.336 247.657 168.162 247.849 167.934C248.053 167.706 248.155 167.436 248.155 167.124C248.155 166.788 248.035 166.5 247.795 166.26C247.567 166.02 247.249 165.84 246.841 165.72C246.433 165.6 245.971 165.54 245.455 165.54C244.987 165.552 244.501 165.624 243.997 165.756C243.493 165.876 242.995 166.062 242.503 166.314L242.143 165.324C242.695 165.036 243.241 164.82 243.781 164.676C244.333 164.52 244.885 164.442 245.437 164.442C246.193 164.418 246.871 164.508 247.471 164.712C248.083 164.916 248.569 165.21 248.929 165.594C249.289 165.966 249.469 166.416 249.469 166.944C249.469 167.412 249.325 167.82 249.037 168.168C248.749 168.516 248.365 168.786 247.885 168.978C247.405 169.17 246.859 169.266 246.247 169.266L246.301 168.924C247.381 168.924 248.221 169.134 248.821 169.554C249.433 169.974 249.739 170.544 249.739 171.264C249.739 171.828 249.553 172.326 249.181 172.758C248.809 173.178 248.305 173.508 247.669 173.748C247.045 173.988 246.343 174.108 245.563 174.108ZM258.508 174V171.912L258.454 171.57V168.078C258.454 167.274 258.226 166.656 257.77 166.224C257.326 165.792 256.66 165.576 255.772 165.576C255.16 165.576 254.578 165.678 254.026 165.882C253.474 166.086 253.006 166.356 252.622 166.692L252.046 165.738C252.526 165.33 253.102 165.018 253.774 164.802C254.446 164.574 255.154 164.46 255.898 164.46C257.122 164.46 258.064 164.766 258.724 165.378C259.396 165.978 259.732 166.896 259.732 168.132V174H258.508ZM255.25 174.09C254.542 174.09 253.924 173.976 253.396 173.748C252.88 173.508 252.484 173.184 252.208 172.776C251.932 172.356 251.794 171.876 251.794 171.336C251.794 170.844 251.908 170.4 252.136 170.004C252.376 169.596 252.76 169.272 253.288 169.032C253.828 168.78 254.548 168.654 255.448 168.654H258.706V169.608H255.484C254.572 169.608 253.936 169.77 253.576 170.094C253.228 170.418 253.054 170.82 253.054 171.3C253.054 171.84 253.264 172.272 253.684 172.596C254.104 172.92 254.692 173.082 255.448 173.082C256.168 173.082 256.786 172.92 257.302 172.596C257.83 172.26 258.214 171.78 258.454 171.156L258.742 172.038C258.502 172.662 258.082 173.16 257.482 173.532C256.894 173.904 256.15 174.09 255.25 174.09ZM270.064 174L266.176 169.32L267.238 168.69L271.576 174H270.064ZM263.134 174V164.55H264.412V174H263.134ZM264.016 169.788V168.69H267.058V169.788H264.016ZM267.346 169.41L266.158 169.23L269.92 164.55H271.306L267.346 169.41ZM279.286 174V171.912L279.232 171.57V168.078C279.232 167.274 279.004 166.656 278.548 166.224C278.104 165.792 277.438 165.576 276.55 165.576C275.938 165.576 275.356 165.678 274.804 165.882C274.252 166.086 273.784 166.356 273.4 166.692L272.824 165.738C273.304 165.33 273.88 165.018 274.552 164.802C275.224 164.574 275.932 164.46 276.676 164.46C277.9 164.46 278.842 164.766 279.502 165.378C280.174 165.978 280.51 166.896 280.51 168.132V174H279.286ZM276.028 174.09C275.32 174.09 274.702 173.976 274.174 173.748C273.658 173.508 273.262 173.184 272.986 172.776C272.71 172.356 272.572 171.876 272.572 171.336C272.572 170.844 272.686 170.4 272.914 170.004C273.154 169.596 273.538 169.272 274.066 169.032C274.606 168.78 275.326 168.654 276.226 168.654H279.484V169.608H276.262C275.35 169.608 274.714 169.77 274.354 170.094C274.006 170.418 273.832 170.82 273.832 171.3C273.832 171.84 274.042 172.272 274.462 172.596C274.882 172.92 275.47 173.082 276.226 173.082C276.946 173.082 277.564 172.92 278.08 172.596C278.608 172.26 278.992 171.78 279.232 171.156L279.52 172.038C279.28 172.662 278.86 173.16 278.26 173.532C277.672 173.904 276.928 174.09 276.028 174.09ZM286.256 174.108C285.572 174.108 284.894 174.012 284.222 173.82C283.55 173.628 282.956 173.334 282.44 172.938L282.854 171.984C283.31 172.32 283.838 172.578 284.438 172.758C285.038 172.926 285.632 173.01 286.22 173.01C286.808 172.998 287.318 172.914 287.75 172.758C288.182 172.602 288.518 172.386 288.758 172.11C288.998 171.834 289.118 171.522 289.118 171.174C289.118 170.67 288.89 170.28 288.434 170.004C287.978 169.716 287.354 169.572 286.562 169.572H284.942V168.636H286.472C286.94 168.636 287.354 168.576 287.714 168.456C288.074 168.336 288.35 168.162 288.542 167.934C288.746 167.706 288.848 167.436 288.848 167.124C288.848 166.788 288.728 166.5 288.488 166.26C288.26 166.02 287.942 165.84 287.534 165.72C287.126 165.6 286.664 165.54 286.148 165.54C285.68 165.552 285.194 165.624 284.69 165.756C284.186 165.876 283.688 166.062 283.196 166.314L282.836 165.324C283.388 165.036 283.934 164.82 284.474 164.676C285.026 164.52 285.578 164.442 286.13 164.442C286.886 164.418 287.564 164.508 288.164 164.712C288.776 164.916 289.262 165.21 289.622 165.594C289.982 165.966 290.162 166.416 290.162 166.944C290.162 167.412 290.018 167.82 289.73 168.168C289.442 168.516 289.058 168.786 288.578 168.978C288.098 169.17 287.552 169.266 286.94 169.266L286.994 168.924C288.074 168.924 288.914 169.134 289.514 169.554C290.126 169.974 290.432 170.544 290.432 171.264C290.432 171.828 290.246 172.326 289.874 172.758C289.502 173.178 288.998 173.508 288.362 173.748C287.738 173.988 287.036 174.108 286.256 174.108ZM297.384 174.09C296.4 174.09 295.536 173.886 294.792 173.478C294.048 173.058 293.466 172.488 293.046 171.768C292.626 171.036 292.416 170.202 292.416 169.266C292.416 168.33 292.614 167.502 293.01 166.782C293.418 166.062 293.97 165.498 294.666 165.09C295.374 164.67 296.166 164.46 297.042 164.46C297.93 164.46 298.716 164.664 299.4 165.072C300.096 165.468 300.642 166.032 301.038 166.764C301.434 167.484 301.632 168.318 301.632 169.266C301.632 169.326 301.626 169.392 301.614 169.464C301.614 169.524 301.614 169.59 301.614 169.662H293.388V168.708H300.93L300.426 169.086C300.426 168.402 300.276 167.796 299.976 167.268C299.688 166.728 299.292 166.308 298.788 166.008C298.284 165.708 297.702 165.558 297.042 165.558C296.394 165.558 295.812 165.708 295.296 166.008C294.78 166.308 294.378 166.728 294.09 167.268C293.802 167.808 293.658 168.426 293.658 169.122V169.32C293.658 170.04 293.814 170.676 294.126 171.228C294.45 171.768 294.894 172.194 295.458 172.506C296.034 172.806 296.688 172.956 297.42 172.956C297.996 172.956 298.53 172.854 299.022 172.65C299.526 172.446 299.958 172.134 300.318 171.714L301.038 172.542C300.618 173.046 300.09 173.43 299.454 173.694C298.83 173.958 298.14 174.09 297.384 174.09ZM313.06 174.09C312.148 174.09 311.326 173.886 310.594 173.478C309.874 173.058 309.304 172.488 308.884 171.768C308.464 171.036 308.254 170.202 308.254 169.266C308.254 168.318 308.464 167.484 308.884 166.764C309.304 166.044 309.874 165.48 310.594 165.072C311.314 164.664 312.136 164.46 313.06 164.46C313.996 164.46 314.824 164.664 315.544 165.072C316.276 165.48 316.846 166.044 317.254 166.764C317.674 167.484 317.884 168.318 317.884 169.266C317.884 170.202 317.674 171.036 317.254 171.768C316.846 172.488 316.276 173.058 315.544 173.478C314.812 173.886 313.984 174.09 313.06 174.09ZM313.06 172.956C313.744 172.956 314.35 172.806 314.878 172.506C315.406 172.194 315.82 171.762 316.12 171.21C316.432 170.646 316.588 169.998 316.588 169.266C316.588 168.522 316.432 167.874 316.12 167.322C315.82 166.77 315.406 166.344 314.878 166.044C314.35 165.732 313.75 165.576 313.078 165.576C312.406 165.576 311.806 165.732 311.278 166.044C310.75 166.344 310.33 166.77 310.018 167.322C309.706 167.874 309.55 168.522 309.55 169.266C309.55 169.998 309.706 170.646 310.018 171.21C310.33 171.762 310.75 172.194 311.278 172.506C311.806 172.806 312.4 172.956 313.06 172.956ZM322.063 174V165.324L322.387 165.666H318.481V164.55H326.923V165.666H323.017L323.341 165.324V174H322.063ZM336.362 174.108C335.45 174.108 334.586 173.964 333.77 173.676C332.966 173.376 332.318 172.98 331.826 172.488L332.456 171.462C332.864 171.882 333.41 172.23 334.094 172.506C334.79 172.782 335.546 172.92 336.362 172.92C337.406 172.92 338.204 172.692 338.756 172.236C339.32 171.78 339.602 171.168 339.602 170.4C339.602 169.632 339.326 169.02 338.774 168.564C338.234 168.108 337.376 167.88 336.2 167.88H335.3V166.926L339.188 162.048L339.368 162.552H332.348V161.4H340.448V162.318L336.56 167.196L335.93 166.782H336.416C337.928 166.782 339.056 167.118 339.8 167.79C340.556 168.462 340.934 169.326 340.934 170.382C340.934 171.09 340.766 171.726 340.43 172.29C340.094 172.854 339.584 173.298 338.9 173.622C338.228 173.946 337.382 174.108 336.362 174.108ZM347.782 174.108C346.81 174.108 345.946 173.856 345.19 173.352C344.434 172.836 343.84 172.104 343.408 171.156C342.976 170.196 342.76 169.044 342.76 167.7C342.76 166.356 342.976 165.21 343.408 164.262C343.84 163.302 344.434 162.57 345.19 162.066C345.946 161.55 346.81 161.292 347.782 161.292C348.754 161.292 349.618 161.55 350.374 162.066C351.13 162.57 351.724 163.302 352.156 164.262C352.6 165.21 352.822 166.356 352.822 167.7C352.822 169.044 352.6 170.196 352.156 171.156C351.724 172.104 351.13 172.836 350.374 173.352C349.618 173.856 348.754 174.108 347.782 174.108ZM347.782 172.92C348.526 172.92 349.174 172.722 349.726 172.326C350.278 171.918 350.71 171.33 351.022 170.562C351.334 169.782 351.49 168.828 351.49 167.7C351.49 166.572 351.334 165.624 351.022 164.856C350.71 164.076 350.278 163.488 349.726 163.092C349.174 162.684 348.526 162.48 347.782 162.48C347.062 162.48 346.42 162.684 345.856 163.092C345.292 163.488 344.854 164.076 344.542 164.856C344.23 165.624 344.074 166.572 344.074 167.7C344.074 168.828 344.23 169.782 344.542 170.562C344.854 171.33 345.292 171.918 345.856 172.326C346.42 172.722 347.062 172.92 347.782 172.92ZM359.7 174.108C358.728 174.108 357.864 173.856 357.108 173.352C356.352 172.836 355.758 172.104 355.326 171.156C354.894 170.196 354.678 169.044 354.678 167.7C354.678 166.356 354.894 165.21 355.326 164.262C355.758 163.302 356.352 162.57 357.108 162.066C357.864 161.55 358.728 161.292 359.7 161.292C360.672 161.292 361.536 161.55 362.292 162.066C363.048 162.57 363.642 163.302 364.074 164.262C364.518 165.21 364.74 166.356 364.74 167.7C364.74 169.044 364.518 170.196 364.074 171.156C363.642 172.104 363.048 172.836 362.292 173.352C361.536 173.856 360.672 174.108 359.7 174.108ZM359.7 172.92C360.444 172.92 361.092 172.722 361.644 172.326C362.196 171.918 362.628 171.33 362.94 170.562C363.252 169.782 363.408 168.828 363.408 167.7C363.408 166.572 363.252 165.624 362.94 164.856C362.628 164.076 362.196 163.488 361.644 163.092C361.092 162.684 360.444 162.48 359.7 162.48C358.98 162.48 358.338 162.684 357.774 163.092C357.21 163.488 356.772 164.076 356.46 164.856C356.148 165.624 355.992 166.572 355.992 167.7C355.992 168.828 356.148 169.782 356.46 170.562C356.772 171.33 357.21 171.918 357.774 172.326C358.338 172.722 358.98 172.92 359.7 172.92ZM371.618 174.108C370.646 174.108 369.782 173.856 369.026 173.352C368.27 172.836 367.676 172.104 367.244 171.156C366.812 170.196 366.596 169.044 366.596 167.7C366.596 166.356 366.812 165.21 367.244 164.262C367.676 163.302 368.27 162.57 369.026 162.066C369.782 161.55 370.646 161.292 371.618 161.292C372.59 161.292 373.454 161.55 374.21 162.066C374.966 162.57 375.56 163.302 375.992 164.262C376.436 165.21 376.658 166.356 376.658 167.7C376.658 169.044 376.436 170.196 375.992 171.156C375.56 172.104 374.966 172.836 374.21 173.352C373.454 173.856 372.59 174.108 371.618 174.108ZM371.618 172.92C372.362 172.92 373.01 172.722 373.562 172.326C374.114 171.918 374.546 171.33 374.858 170.562C375.17 169.782 375.326 168.828 375.326 167.7C375.326 166.572 375.17 165.624 374.858 164.856C374.546 164.076 374.114 163.488 373.562 163.092C373.01 162.684 372.362 162.48 371.618 162.48C370.898 162.48 370.256 162.684 369.692 163.092C369.128 163.488 368.69 164.076 368.378 164.856C368.066 165.624 367.91 166.572 367.91 167.7C367.91 168.828 368.066 169.782 368.378 170.562C368.69 171.33 369.128 171.918 369.692 172.326C370.256 172.722 370.898 172.92 371.618 172.92ZM388.985 174.09C388.169 174.09 387.431 173.904 386.771 173.532C386.111 173.148 385.583 172.602 385.187 171.894C384.803 171.174 384.611 170.298 384.611 169.266C384.611 168.234 384.803 167.364 385.187 166.656C385.571 165.936 386.093 165.39 386.753 165.018C387.413 164.646 388.157 164.46 388.985 164.46C389.885 164.46 390.689 164.664 391.397 165.072C392.117 165.468 392.681 166.032 393.089 166.764C393.497 167.484 393.701 168.318 393.701 169.266C393.701 170.226 393.497 171.066 393.089 171.786C392.681 172.506 392.117 173.07 391.397 173.478C390.689 173.886 389.885 174.09 388.985 174.09ZM384.107 177.492V164.55H385.331V167.394L385.205 169.284L385.385 171.192V177.492H384.107ZM388.895 172.956C389.567 172.956 390.167 172.806 390.695 172.506C391.223 172.194 391.643 171.762 391.955 171.21C392.267 170.646 392.423 169.998 392.423 169.266C392.423 168.534 392.267 167.892 391.955 167.34C391.643 166.788 391.223 166.356 390.695 166.044C390.167 165.732 389.567 165.576 388.895 165.576C388.223 165.576 387.617 165.732 387.077 166.044C386.549 166.356 386.129 166.788 385.817 167.34C385.517 167.892 385.367 168.534 385.367 169.266C385.367 169.998 385.517 170.646 385.817 171.21C386.129 171.762 386.549 172.194 387.077 172.506C387.617 172.806 388.223 172.956 388.895 172.956ZM396.273 174.09C396.009 174.09 395.781 173.994 395.589 173.802C395.409 173.61 395.319 173.376 395.319 173.1C395.319 172.812 395.409 172.578 395.589 172.398C395.781 172.218 396.009 172.128 396.273 172.128C396.537 172.128 396.759 172.218 396.939 172.398C397.131 172.578 397.227 172.812 397.227 173.1C397.227 173.376 397.131 173.61 396.939 173.802C396.759 173.994 396.537 174.09 396.273 174.09Z" fill="black"/>
<path d="M53.3574 216.429H71.6431M55.6431 211.857H69.3574C69.9636 211.857 70.545 212.098 70.9737 212.527C71.4023 212.956 71.6431 213.537 71.6431 214.143V227.857C71.6431 228.464 71.4023 229.045 70.9737 229.474C70.545 229.902 69.9636 230.143 69.3574 230.143H55.6431C55.0369 230.143 54.4555 229.902 54.0269 229.474C53.5982 229.045 53.3574 228.464 53.3574 227.857V214.143C53.3574 213.537 53.5982 212.956 54.0269 212.527C54.4555 212.098 55.0369 211.857 55.6431 211.857Z" stroke="black" stroke-linecap="round" stroke-linejoin="round"/>
<path d="M62.5003 222.143C63.1315 222.143 63.6431 221.631 63.6431 221C63.6431 220.369 63.1315 219.857 62.5003 219.857C61.8691 219.857 61.3574 220.369 61.3574 221C61.3574 221.631 61.8691 222.143 62.5003 222.143Z" fill="black"/>
<path d="M57.928 222.143C58.5592 222.143 59.0709 221.631 59.0709 221C59.0709 220.369 58.5592 219.857 57.928 219.857C57.2968 219.857 56.7852 220.369 56.7852 221C56.7852 221.631 57.2968 222.143 57.928 222.143Z" fill="black"/>
<path d="M57.928 226.714C58.5592 226.714 59.0709 226.203 59.0709 225.572C59.0709 224.94 58.5592 224.429 57.928 224.429C57.2968 224.429 56.7852 224.94 56.7852 225.572C56.7852 226.203 57.2968 226.714 57.928 226.714Z" fill="black"/>
<path d="M97.632 226V213.94L98.208 214.552H94.662V213.4H98.928V226H97.632ZM102.084 221.68V220.564H106.8V221.68H102.084ZM112.223 226.108C111.311 226.108 110.447 225.964 109.631 225.676C108.827 225.376 108.179 224.98 107.687 224.488L108.317 223.462C108.725 223.882 109.271 224.23 109.955 224.506C110.651 224.782 111.407 224.92 112.223 224.92C113.267 224.92 114.065 224.692 114.617 224.236C115.181 223.78 115.463 223.168 115.463 222.4C115.463 221.632 115.187 221.02 114.635 220.564C114.095 220.108 113.237 219.88 112.061 219.88H111.161V218.926L115.049 214.048L115.229 214.552H108.209V213.4H116.309V214.318L112.421 219.196L111.791 218.782H112.277C113.789 218.782 114.917 219.118 115.661 219.79C116.417 220.462 116.795 221.326 116.795 222.382C116.795 223.09 116.627 223.726 116.291 224.29C115.955 224.854 115.445 225.298 114.761 225.622C114.089 225.946 113.243 226.108 112.223 226.108ZM129.092 226.09C128.276 226.09 127.538 225.904 126.878 225.532C126.218 225.148 125.69 224.602 125.294 223.894C124.91 223.174 124.718 222.298 124.718 221.266C124.718 220.234 124.91 219.364 125.294 218.656C125.678 217.936 126.2 217.39 126.86 217.018C127.52 216.646 128.264 216.46 129.092 216.46C129.992 216.46 130.796 216.664 131.504 217.072C132.224 217.468 132.788 218.032 133.196 218.764C133.604 219.484 133.808 220.318 133.808 221.266C133.808 222.226 133.604 223.066 133.196 223.786C132.788 224.506 132.224 225.07 131.504 225.478C130.796 225.886 129.992 226.09 129.092 226.09ZM124.214 229.492V216.55H125.438V219.394L125.312 221.284L125.492 223.192V229.492H124.214ZM129.002 224.956C129.674 224.956 130.274 224.806 130.802 224.506C131.33 224.194 131.75 223.762 132.062 223.21C132.374 222.646 132.53 221.998 132.53 221.266C132.53 220.534 132.374 219.892 132.062 219.34C131.75 218.788 131.33 218.356 130.802 218.044C130.274 217.732 129.674 217.576 129.002 217.576C128.33 217.576 127.724 217.732 127.184 218.044C126.656 218.356 126.236 218.788 125.924 219.34C125.624 219.892 125.474 220.534 125.474 221.266C125.474 221.998 125.624 222.646 125.924 223.21C126.236 223.762 126.656 224.194 127.184 224.506C127.724 224.806 128.33 224.956 129.002 224.956ZM142.37 226V223.912L142.316 223.57V220.078C142.316 219.274 142.088 218.656 141.632 218.224C141.188 217.792 140.522 217.576 139.634 217.576C139.022 217.576 138.44 217.678 137.888 217.882C137.336 218.086 136.868 218.356 136.484 218.692L135.908 217.738C136.388 217.33 136.964 217.018 137.636 216.802C138.308 216.574 139.016 216.46 139.76 216.46C140.984 216.46 141.926 216.766 142.586 217.378C143.258 217.978 143.594 218.896 143.594 220.132V226H142.37ZM139.112 226.09C138.404 226.09 137.786 225.976 137.258 225.748C136.742 225.508 136.346 225.184 136.07 224.776C135.794 224.356 135.656 223.876 135.656 223.336C135.656 222.844 135.77 222.4 135.998 222.004C136.238 221.596 136.622 221.272 137.15 221.032C137.69 220.78 138.41 220.654 139.31 220.654H142.568V221.608H139.346C138.434 221.608 137.798 221.77 137.438 222.094C137.09 222.418 136.916 222.82 136.916 223.3C136.916 223.84 137.126 224.272 137.546 224.596C137.966 224.92 138.554 225.082 139.31 225.082C140.03 225.082 140.648 224.92 141.164 224.596C141.692 224.26 142.076 223.78 142.316 223.156L142.604 224.038C142.364 224.662 141.944 225.16 141.344 225.532C140.756 225.904 140.012 226.09 139.112 226.09ZM151.244 226.108C150.476 226.108 149.792 225.982 149.192 225.73C148.604 225.478 148.1 225.094 147.68 224.578C147.26 224.062 146.942 223.426 146.726 222.67C146.51 221.902 146.402 221.014 146.402 220.006C146.402 219.106 146.486 218.32 146.654 217.648C146.822 216.964 147.056 216.376 147.356 215.884C147.656 215.392 148.004 214.978 148.4 214.642C148.808 214.294 149.246 214.018 149.714 213.814C150.194 213.598 150.686 213.436 151.19 213.328L155.438 212.338L155.654 213.526L151.658 214.426C151.406 214.486 151.1 214.57 150.74 214.678C150.392 214.786 150.032 214.948 149.66 215.164C149.3 215.38 148.964 215.68 148.652 216.064C148.34 216.448 148.088 216.946 147.896 217.558C147.716 218.158 147.626 218.908 147.626 219.808C147.626 220 147.632 220.156 147.644 220.276C147.656 220.384 147.668 220.504 147.68 220.636C147.704 220.756 147.722 220.936 147.734 221.176L147.176 220.708C147.308 219.976 147.578 219.34 147.986 218.8C148.394 218.248 148.904 217.822 149.516 217.522C150.14 217.21 150.83 217.054 151.586 217.054C152.462 217.054 153.242 217.246 153.926 217.63C154.61 218.002 155.144 218.524 155.528 219.196C155.924 219.868 156.122 220.648 156.122 221.536C156.122 222.412 155.918 223.198 155.51 223.894C155.114 224.59 154.55 225.136 153.818 225.532C153.086 225.916 152.228 226.108 151.244 226.108ZM151.388 225.046C152.06 225.046 152.654 224.896 153.17 224.596C153.686 224.284 154.088 223.864 154.376 223.336C154.676 222.808 154.826 222.214 154.826 221.554C154.826 220.906 154.676 220.33 154.376 219.826C154.088 219.322 153.686 218.926 153.17 218.638C152.654 218.338 152.054 218.188 151.37 218.188C150.698 218.188 150.104 218.332 149.588 218.62C149.072 218.896 148.664 219.286 148.364 219.79C148.076 220.294 147.932 220.876 147.932 221.536C147.932 222.196 148.076 222.79 148.364 223.318C148.664 223.846 149.072 224.266 149.588 224.578C150.116 224.89 150.716 225.046 151.388 225.046ZM162.749 226.09C161.837 226.09 161.015 225.886 160.283 225.478C159.563 225.058 158.993 224.488 158.573 223.768C158.153 223.036 157.943 222.202 157.943 221.266C157.943 220.318 158.153 219.484 158.573 218.764C158.993 218.044 159.563 217.48 160.283 217.072C161.003 216.664 161.825 216.46 162.749 216.46C163.685 216.46 164.513 216.664 165.233 217.072C165.965 217.48 166.535 218.044 166.943 218.764C167.363 219.484 167.573 220.318 167.573 221.266C167.573 222.202 167.363 223.036 166.943 223.768C166.535 224.488 165.965 225.058 165.233 225.478C164.501 225.886 163.673 226.09 162.749 226.09ZM162.749 224.956C163.433 224.956 164.039 224.806 164.567 224.506C165.095 224.194 165.509 223.762 165.809 223.21C166.121 222.646 166.277 221.998 166.277 221.266C166.277 220.522 166.121 219.874 165.809 219.322C165.509 218.77 165.095 218.344 164.567 218.044C164.039 217.732 163.439 217.576 162.767 217.576C162.095 217.576 161.495 217.732 160.967 218.044C160.439 218.344 160.019 218.77 159.707 219.322C159.395 219.874 159.239 220.522 159.239 221.266C159.239 221.998 159.395 222.646 159.707 223.21C160.019 223.762 160.439 224.194 160.967 224.506C161.495 224.806 162.089 224.956 162.749 224.956ZM176.28 222.004C175.728 222.244 175.17 222.436 174.606 222.58C174.054 222.712 173.502 222.778 172.95 222.778C171.834 222.778 170.952 222.526 170.304 222.022C169.656 221.506 169.332 220.714 169.332 219.646V216.55H170.592V219.574C170.592 220.294 170.826 220.834 171.294 221.194C171.762 221.554 172.392 221.734 173.184 221.734C173.664 221.734 174.168 221.674 174.696 221.554C175.224 221.422 175.758 221.236 176.298 220.996L176.28 222.004ZM176.172 226V216.55H177.45V226H176.172ZM181.08 226V216.55H182.358V224.056L188.676 216.55H189.81V226H188.532V218.476L182.232 226H181.08ZM191.924 226L195.92 220.816L195.902 221.446L192.104 216.55H193.544L196.658 220.6L196.118 220.582L199.232 216.55H200.636L196.802 221.5L196.82 220.816L200.852 226H199.394L196.1 221.68L196.604 221.752L193.364 226H191.924ZM214.138 225.388V217.666H209.584L209.476 219.772C209.452 220.408 209.41 221.032 209.35 221.644C209.302 222.256 209.212 222.82 209.08 223.336C208.96 223.84 208.786 224.254 208.558 224.578C208.33 224.89 208.036 225.07 207.676 225.118L206.398 224.884C206.77 224.896 207.076 224.764 207.316 224.488C207.556 224.2 207.742 223.81 207.874 223.318C208.006 222.826 208.102 222.268 208.162 221.644C208.222 221.008 208.27 220.36 208.306 219.7L208.432 216.55H215.416V225.388H214.138ZM206.002 228.286V224.884H216.892V228.286H215.686V226H207.208V228.286H206.002ZM219.382 226V216.55H220.66V220.726H226.618V216.55H227.896V226H226.618V221.824H220.66V226H219.382ZM237.631 226V222.598L237.865 222.868H234.661C233.449 222.868 232.501 222.604 231.817 222.076C231.133 221.548 230.791 220.78 230.791 219.772C230.791 218.692 231.157 217.888 231.889 217.36C232.621 216.82 233.599 216.55 234.823 216.55H238.801V226H237.631ZM230.719 226L233.311 222.364H234.643L232.105 226H230.719ZM237.631 222.22V217.288L237.865 217.666H234.859C233.983 217.666 233.299 217.834 232.807 218.17C232.327 218.506 232.087 219.052 232.087 219.808C232.087 221.212 232.981 221.914 234.769 221.914H237.865L237.631 222.22Z" fill="black"/>
<path d="M58.75 278H64.75M52.75 272.75H72.25M67.75 278H69.25M54.25 268.25C53.5 268.25 52.75 269 52.75 269.75V280.25C52.75 281 53.5 281.75 54.25 281.75H70.75C71.5 281.75 72.25 281 72.25 280.25V269.75C72.25 269 71.5 268.25 70.75 268.25H54.25Z" stroke="black" stroke-width="2" stroke-linecap="round" stroke-linejoin="round"/>
<path d="M102.15 280.108C101.202 280.108 100.32 279.952 99.504 279.64C98.7 279.316 97.998 278.866 97.398 278.29C96.81 277.702 96.348 277.024 96.012 276.256C95.688 275.476 95.526 274.624 95.526 273.7C95.526 272.776 95.688 271.93 96.012 271.162C96.348 270.382 96.81 269.704 97.398 269.128C97.998 268.54 98.7 268.09 99.504 267.778C100.308 267.454 101.19 267.292 102.15 267.292C103.098 267.292 103.974 267.454 104.778 267.778C105.582 268.09 106.278 268.534 106.866 269.11C107.466 269.686 107.928 270.364 108.252 271.144C108.588 271.924 108.756 272.776 108.756 273.7C108.756 274.624 108.588 275.476 108.252 276.256C107.928 277.036 107.466 277.714 106.866 278.29C106.278 278.866 105.582 279.316 104.778 279.64C103.974 279.952 103.098 280.108 102.15 280.108ZM102.15 278.92C102.906 278.92 103.602 278.794 104.238 278.542C104.886 278.278 105.444 277.912 105.912 277.444C106.392 276.964 106.764 276.412 107.028 275.788C107.292 275.152 107.424 274.456 107.424 273.7C107.424 272.944 107.292 272.254 107.028 271.63C106.764 270.994 106.392 270.442 105.912 269.974C105.444 269.494 104.886 269.128 104.238 268.876C103.602 268.612 102.906 268.48 102.15 268.48C101.394 268.48 100.692 268.612 100.044 268.876C99.396 269.128 98.832 269.494 98.352 269.974C97.884 270.442 97.512 270.994 97.236 271.63C96.972 272.254 96.84 272.944 96.84 273.7C96.84 274.444 96.972 275.134 97.236 275.77C97.512 276.406 97.884 276.964 98.352 277.444C98.832 277.912 99.396 278.278 100.044 278.542C100.692 278.794 101.394 278.92 102.15 278.92ZM111.629 280V270.55H120.125V280H118.847V271.324L119.171 271.666H112.583L112.907 271.324V280H111.629ZM122.029 279.982L122.119 278.884C122.203 278.896 122.281 278.914 122.353 278.938C122.437 278.95 122.509 278.956 122.569 278.956C122.953 278.956 123.259 278.812 123.487 278.524C123.727 278.236 123.907 277.852 124.027 277.372C124.147 276.892 124.231 276.352 124.279 275.752C124.327 275.14 124.369 274.528 124.405 273.916L124.567 270.55H131.497V280H130.219V271.288L130.543 271.666H125.395L125.701 271.27L125.557 274.006C125.521 274.822 125.455 275.602 125.359 276.346C125.275 277.09 125.137 277.744 124.945 278.308C124.765 278.872 124.513 279.316 124.189 279.64C123.865 279.952 123.451 280.108 122.947 280.108C122.803 280.108 122.653 280.096 122.497 280.072C122.353 280.048 122.197 280.018 122.029 279.982ZM140.999 280V277.912L140.945 277.57V274.078C140.945 273.274 140.717 272.656 140.261 272.224C139.817 271.792 139.151 271.576 138.263 271.576C137.651 271.576 137.069 271.678 136.517 271.882C135.965 272.086 135.497 272.356 135.113 272.692L134.537 271.738C135.017 271.33 135.593 271.018 136.265 270.802C136.937 270.574 137.645 270.46 138.389 270.46C139.613 270.46 140.555 270.766 141.215 271.378C141.887 271.978 142.223 272.896 142.223 274.132V280H140.999ZM137.741 280.09C137.033 280.09 136.415 279.976 135.887 279.748C135.371 279.508 134.975 279.184 134.699 278.776C134.423 278.356 134.285 277.876 134.285 277.336C134.285 276.844 134.399 276.4 134.627 276.004C134.867 275.596 135.251 275.272 135.779 275.032C136.319 274.78 137.039 274.654 137.938 274.654H141.197V275.608H137.975C137.063 275.608 136.427 275.77 136.067 276.094C135.719 276.418 135.545 276.82 135.545 277.3C135.545 277.84 135.755 278.272 136.175 278.596C136.595 278.92 137.183 279.082 137.938 279.082C138.659 279.082 139.277 278.92 139.793 278.596C140.321 278.26 140.705 277.78 140.945 277.156L141.233 278.038C140.993 278.662 140.573 279.16 139.973 279.532C139.385 279.904 138.641 280.09 137.741 280.09ZM147.425 280V271.324L147.749 271.666H143.843V270.55H152.285V271.666H148.379L148.703 271.324V280H147.425ZM160 280V277.912L159.946 277.57V274.078C159.946 273.274 159.718 272.656 159.262 272.224C158.818 271.792 158.152 271.576 157.264 271.576C156.652 271.576 156.07 271.678 155.518 271.882C154.966 272.086 154.498 272.356 154.114 272.692L153.538 271.738C154.018 271.33 154.594 271.018 155.266 270.802C155.938 270.574 156.646 270.46 157.39 270.46C158.614 270.46 159.556 270.766 160.216 271.378C160.888 271.978 161.224 272.896 161.224 274.132V280H160ZM156.742 280.09C156.034 280.09 155.416 279.976 154.888 279.748C154.372 279.508 153.976 279.184 153.7 278.776C153.424 278.356 153.286 277.876 153.286 277.336C153.286 276.844 153.4 276.4 153.628 276.004C153.868 275.596 154.252 275.272 154.78 275.032C155.32 274.78 156.04 274.654 156.94 274.654H160.198V275.608H156.976C156.064 275.608 155.428 275.77 155.068 276.094C154.72 276.418 154.546 276.82 154.546 277.3C154.546 277.84 154.756 278.272 155.176 278.596C155.596 278.92 156.184 279.082 156.94 279.082C157.66 279.082 158.278 278.92 158.794 278.596C159.322 278.26 159.706 277.78 159.946 277.156L160.234 278.038C159.994 278.662 159.574 279.16 158.974 279.532C158.386 279.904 157.642 280.09 156.742 280.09ZM173.226 280.09C172.314 280.09 171.492 279.886 170.76 279.478C170.04 279.058 169.47 278.488 169.05 277.768C168.63 277.036 168.42 276.202 168.42 275.266C168.42 274.318 168.63 273.484 169.05 272.764C169.47 272.044 170.04 271.48 170.76 271.072C171.48 270.664 172.302 270.46 173.226 270.46C174.162 270.46 174.99 270.664 175.71 271.072C176.442 271.48 177.012 272.044 177.42 272.764C177.84 273.484 178.05 274.318 178.05 275.266C178.05 276.202 177.84 277.036 177.42 277.768C177.012 278.488 176.442 279.058 175.71 279.478C174.978 279.886 174.15 280.09 173.226 280.09ZM173.226 278.956C173.91 278.956 174.516 278.806 175.044 278.506C175.572 278.194 175.986 277.762 176.286 277.21C176.598 276.646 176.754 275.998 176.754 275.266C176.754 274.522 176.598 273.874 176.286 273.322C175.986 272.77 175.572 272.344 175.044 272.044C174.516 271.732 173.916 271.576 173.244 271.576C172.572 271.576 171.972 271.732 171.444 272.044C170.916 272.344 170.496 272.77 170.184 273.322C169.872 273.874 169.716 274.522 169.716 275.266C169.716 275.998 169.872 276.646 170.184 277.21C170.496 277.762 170.916 278.194 171.444 278.506C171.972 278.806 172.566 278.956 173.226 278.956ZM180.781 280V270.55H182.059V274.726H188.017V270.55H189.295V280H188.017V275.824H182.059V280H180.781ZM191.199 279.982L191.289 278.884C191.373 278.896 191.451 278.914 191.523 278.938C191.607 278.95 191.679 278.956 191.739 278.956C192.123 278.956 192.429 278.812 192.657 278.524C192.897 278.236 193.077 277.852 193.197 277.372C193.317 276.892 193.401 276.352 193.449 275.752C193.497 275.14 193.539 274.528 193.575 273.916L193.737 270.55H200.667V280H199.389V271.288L199.713 271.666H194.565L194.871 271.27L194.727 274.006C194.691 274.822 194.625 275.602 194.529 276.346C194.445 277.09 194.307 277.744 194.115 278.308C193.935 278.872 193.683 279.316 193.359 279.64C193.035 279.952 192.621 280.108 192.117 280.108C191.973 280.108 191.823 280.096 191.667 280.072C191.523 280.048 191.367 280.018 191.199 279.982ZM210.168 280V277.912L210.114 277.57V274.078C210.114 273.274 209.886 272.656 209.43 272.224C208.986 271.792 208.32 271.576 207.432 271.576C206.82 271.576 206.238 271.678 205.686 271.882C205.134 272.086 204.666 272.356 204.282 272.692L203.706 271.738C204.186 271.33 204.762 271.018 205.434 270.802C206.106 270.574 206.814 270.46 207.558 270.46C208.782 270.46 209.724 270.766 210.384 271.378C211.056 271.978 211.392 272.896 211.392 274.132V280H210.168ZM206.91 280.09C206.202 280.09 205.584 279.976 205.056 279.748C204.54 279.508 204.144 279.184 203.868 278.776C203.592 278.356 203.454 277.876 203.454 277.336C203.454 276.844 203.568 276.4 203.796 276.004C204.036 275.596 204.42 275.272 204.948 275.032C205.488 274.78 206.208 274.654 207.108 274.654H210.366V275.608H207.144C206.232 275.608 205.596 275.77 205.236 276.094C204.888 276.418 204.714 276.82 204.714 277.3C204.714 277.84 204.924 278.272 205.344 278.596C205.764 278.92 206.352 279.082 207.108 279.082C207.828 279.082 208.446 278.92 208.962 278.596C209.49 278.26 209.874 277.78 210.114 277.156L210.402 278.038C210.162 278.662 209.742 279.16 209.142 279.532C208.554 279.904 207.81 280.09 206.91 280.09ZM214.795 280V270.55H216.073V278.056L222.391 270.55H223.525V280H222.247V272.476L215.947 280H214.795ZM219.079 269.182C218.287 269.182 217.645 268.984 217.153 268.588C216.673 268.18 216.421 267.598 216.397 266.842H217.315C217.327 267.322 217.495 267.7 217.819 267.976C218.143 268.252 218.563 268.39 219.079 268.39C219.595 268.39 220.015 268.252 220.339 267.976C220.675 267.7 220.849 267.322 220.861 266.842H221.779C221.767 267.598 221.515 268.18 221.023 268.588C220.531 268.984 219.883 269.182 219.079 269.182ZM227.187 280V270.55H228.465V274.726H234.423V270.55H235.701V280H234.423V275.824H228.465V280H227.187Z" fill="black"/>
</svg>
