<svg width="445" height="337" viewBox="0 0 445 337" fill="none" xmlns="http://www.w3.org/2000/svg">
<rect x="0.5" width="444" height="337" rx="20" fill="#EBE5FB"/>
<path d="M165.922 70.22C164.734 70.22 163.619 69.9927 162.578 69.538C161.551 69.0833 160.642 68.4527 159.85 67.646C159.073 66.8247 158.464 65.886 158.024 64.83C157.584 63.7593 157.364 62.6153 157.364 61.398C157.364 60.1953 157.577 59.066 158.002 58.01C158.442 56.9393 159.051 56.0007 159.828 55.194C160.62 54.3873 161.529 53.7567 162.556 53.302C163.597 52.8327 164.719 52.598 165.922 52.598C166.978 52.598 167.939 52.752 168.804 53.06C169.669 53.368 170.505 53.8593 171.312 54.534C171.444 54.6367 171.517 54.7613 171.532 54.908C171.561 55.04 171.547 55.172 171.488 55.304C171.429 55.4213 171.341 55.5093 171.224 55.568C171.195 55.6853 171.121 55.7733 171.004 55.832C170.887 55.8907 170.747 55.9127 170.586 55.898C170.439 55.8833 170.293 55.8173 170.146 55.7C169.574 55.2013 168.951 54.8347 168.276 54.6C167.601 54.3507 166.817 54.226 165.922 54.226C164.969 54.226 164.074 54.4167 163.238 54.798C162.417 55.1793 161.691 55.7 161.06 56.36C160.429 57.02 159.931 57.7827 159.564 58.648C159.212 59.5133 159.036 60.43 159.036 61.398C159.036 62.3953 159.212 63.3267 159.564 64.192C159.931 65.0573 160.429 65.82 161.06 66.48C161.691 67.14 162.417 67.6607 163.238 68.042C164.074 68.4087 164.969 68.592 165.922 68.592C166.729 68.592 167.491 68.46 168.21 68.196C168.929 67.932 169.611 67.5507 170.256 67.052C170.432 66.9053 170.615 66.8467 170.806 66.876C171.011 66.9053 171.187 66.9933 171.334 67.14C171.481 67.2867 171.554 67.4773 171.554 67.712C171.554 67.8293 171.532 67.9393 171.488 68.042C171.459 68.13 171.4 68.2253 171.312 68.328C170.564 69.0173 169.728 69.5087 168.804 69.802C167.88 70.0807 166.919 70.22 165.922 70.22ZM179.288 70.11C178.159 70.11 177.147 69.846 176.252 69.318C175.357 68.7753 174.646 68.042 174.118 67.118C173.605 66.194 173.348 65.1527 173.348 63.994C173.348 62.8207 173.612 61.772 174.14 60.848C174.683 59.924 175.416 59.198 176.34 58.67C177.264 58.1273 178.305 57.856 179.464 57.856C180.623 57.856 181.657 58.1273 182.566 58.67C183.49 59.198 184.216 59.924 184.744 60.848C185.287 61.772 185.565 62.8207 185.58 63.994L184.898 64.522C184.898 65.578 184.649 66.5313 184.15 67.382C183.666 68.218 182.999 68.8853 182.148 69.384C181.312 69.868 180.359 70.11 179.288 70.11ZM179.464 68.57C180.315 68.57 181.07 68.372 181.73 67.976C182.405 67.58 182.933 67.0373 183.314 66.348C183.71 65.644 183.908 64.8593 183.908 63.994C183.908 63.114 183.71 62.3293 183.314 61.64C182.933 60.9507 182.405 60.408 181.73 60.012C181.07 59.6013 180.315 59.396 179.464 59.396C178.628 59.396 177.873 59.6013 177.198 60.012C176.523 60.408 175.988 60.9507 175.592 61.64C175.196 62.3293 174.998 63.114 174.998 63.994C174.998 64.8593 175.196 65.644 175.592 66.348C175.988 67.0373 176.523 67.58 177.198 67.976C177.873 68.372 178.628 68.57 179.464 68.57ZM184.722 70C184.473 70 184.267 69.9267 184.106 69.78C183.945 69.6187 183.864 69.4133 183.864 69.164V65.402L184.282 63.664L185.58 63.994V69.164C185.58 69.4133 185.499 69.6187 185.338 69.78C185.177 69.9267 184.971 70 184.722 70ZM189.733 70C189.469 70 189.256 69.9267 189.095 69.78C188.948 69.6187 188.875 69.406 188.875 69.142V58.824C188.875 58.56 188.948 58.3547 189.095 58.208C189.256 58.0467 189.469 57.966 189.733 57.966C190.114 57.966 190.422 58.142 190.657 58.494L195.519 65.534L200.381 58.494C200.615 58.142 200.923 57.966 201.305 57.966C201.569 57.966 201.774 58.0467 201.921 58.208C202.082 58.3547 202.163 58.56 202.163 58.824V69.142C202.163 69.406 202.082 69.6187 201.921 69.78C201.774 69.9267 201.569 70 201.305 70C201.041 70 200.835 69.9267 200.689 69.78C200.542 69.6187 200.469 69.406 200.469 69.142V59.924L201.019 60.1L196.311 66.898C196.076 67.2353 195.805 67.404 195.497 67.404C195.189 67.404 194.925 67.2353 194.705 66.898L189.997 60.166L190.569 59.99V69.142C190.569 69.406 190.495 69.6187 190.349 69.78C190.202 69.9267 189.997 70 189.733 70ZM211.604 70.11C210.431 70.11 209.382 69.846 208.458 69.318C207.534 68.79 206.808 68.064 206.28 67.14C205.752 66.216 205.488 65.1673 205.488 63.994C205.488 62.806 205.752 61.75 206.28 60.826C206.808 59.902 207.534 59.176 208.458 58.648C209.382 58.12 210.431 57.856 211.604 57.856C212.778 57.856 213.819 58.12 214.728 58.648C215.652 59.176 216.378 59.902 216.906 60.826C217.434 61.75 217.706 62.806 217.72 63.994C217.72 65.1673 217.449 66.216 216.906 67.14C216.378 68.064 215.652 68.79 214.728 69.318C213.819 69.846 212.778 70.11 211.604 70.11ZM211.604 68.57C212.455 68.57 213.218 68.372 213.892 67.976C214.567 67.58 215.095 67.0373 215.476 66.348C215.858 65.6587 216.048 64.874 216.048 63.994C216.048 63.114 215.858 62.3293 215.476 61.64C215.095 60.936 214.567 60.386 213.892 59.99C213.218 59.594 212.455 59.396 211.604 59.396C210.754 59.396 209.991 59.594 209.316 59.99C208.642 60.386 208.106 60.936 207.71 61.64C207.329 62.3293 207.138 63.114 207.138 63.994C207.138 64.874 207.329 65.6587 207.71 66.348C208.106 67.0373 208.642 67.58 209.316 67.976C209.991 68.372 210.754 68.57 211.604 68.57ZM221.873 70C221.609 70 221.396 69.9267 221.235 69.78C221.088 69.6187 221.015 69.406 221.015 69.142V58.802C221.03 58.5527 221.11 58.3547 221.257 58.208C221.418 58.0467 221.624 57.966 221.873 57.966C222.122 57.966 222.32 58.0467 222.467 58.208C222.628 58.3547 222.709 58.56 222.709 58.824V63.004H227.351V63.312C228.114 63.312 228.788 63.4513 229.375 63.73C229.976 64.0087 230.438 64.3973 230.761 64.896C231.098 65.38 231.267 65.9373 231.267 66.568C231.267 67.2427 231.098 67.8367 230.761 68.35C230.438 68.8633 229.976 69.2667 229.375 69.56C228.788 69.8533 228.114 70 227.351 70H221.873ZM222.709 68.438H227.351C228.011 68.438 228.554 68.2693 228.979 67.932C229.404 67.5947 229.617 67.1107 229.617 66.48C229.617 65.82 229.404 65.3213 228.979 64.984C228.554 64.632 228.011 64.456 227.351 64.456H222.709V68.438ZM225.173 63.95V63.004H227.351C227.864 63.004 228.282 62.8353 228.605 62.498C228.928 62.1607 229.089 61.728 229.089 61.2C229.089 60.7307 228.913 60.3347 228.561 60.012C228.224 59.6747 227.791 59.506 227.263 59.506H221.895V57.966H227.263C227.938 57.966 228.532 58.1053 229.045 58.384C229.573 58.648 229.984 59.0147 230.277 59.484C230.585 59.9533 230.739 60.496 230.739 61.112C230.739 62.0653 230.416 62.7767 229.771 63.246C229.14 63.7153 228.334 63.95 227.351 63.95H225.173ZM239.004 70.22C238.051 70.22 237.207 70.0293 236.474 69.648C235.755 69.2667 235.183 68.7387 234.758 68.064C234.347 67.3893 234.142 66.612 234.142 65.732V58.802C234.157 58.5527 234.237 58.3547 234.384 58.208C234.545 58.0467 234.751 57.966 235 57.966C235.249 57.966 235.447 58.0467 235.594 58.208C235.755 58.3547 235.836 58.56 235.836 58.824V61.948H239.092C239.972 61.948 240.749 62.1167 241.424 62.454C242.113 62.7767 242.649 63.246 243.03 63.862C243.411 64.4633 243.602 65.182 243.602 66.018C243.602 66.8687 243.404 67.6093 243.008 68.24C242.627 68.8707 242.084 69.362 241.38 69.714C240.691 70.0513 239.899 70.22 239.004 70.22ZM239.004 68.658C239.855 68.658 240.559 68.438 241.116 67.998C241.673 67.558 241.952 66.898 241.952 66.018C241.952 65.138 241.681 64.4853 241.138 64.06C240.61 63.6347 239.928 63.422 239.092 63.422H235.836V65.732C235.836 66.5827 236.129 67.2867 236.716 67.844C237.317 68.3867 238.08 68.658 239.004 68.658ZM246.352 70C246.103 70 245.897 69.9267 245.736 69.78C245.589 69.6187 245.516 69.406 245.516 69.142V58.824C245.516 58.56 245.589 58.3547 245.736 58.208C245.897 58.0467 246.103 57.966 246.352 57.966C246.616 57.966 246.821 58.0467 246.968 58.208C247.129 58.3547 247.21 58.56 247.21 58.824V69.142C247.21 69.406 247.129 69.6187 246.968 69.78C246.821 69.9267 246.616 70 246.352 70ZM252.037 70C251.773 70 251.561 69.9267 251.399 69.78C251.253 69.6187 251.179 69.406 251.179 69.142V58.802C251.194 58.5527 251.275 58.3547 251.421 58.208C251.583 58.0467 251.788 57.966 252.037 57.966C252.287 57.966 252.485 58.0467 252.631 58.208C252.793 58.3547 252.873 58.56 252.873 58.824V63.004H257.515V63.312C258.278 63.312 258.953 63.4513 259.539 63.73C260.141 64.0087 260.603 64.3973 260.925 64.896C261.263 65.38 261.431 65.9373 261.431 66.568C261.431 67.2427 261.263 67.8367 260.925 68.35C260.603 68.8633 260.141 69.2667 259.539 69.56C258.953 69.8533 258.278 70 257.515 70H252.037ZM252.873 68.438H257.515C258.175 68.438 258.718 68.2693 259.143 67.932C259.569 67.5947 259.781 67.1107 259.781 66.48C259.781 65.82 259.569 65.3213 259.143 64.984C258.718 64.632 258.175 64.456 257.515 64.456H252.873V68.438ZM255.337 63.95V63.004H257.515C258.029 63.004 258.447 62.8353 258.769 62.498C259.092 62.1607 259.253 61.728 259.253 61.2C259.253 60.7307 259.077 60.3347 258.725 60.012C258.388 59.6747 257.955 59.506 257.427 59.506H252.059V57.966H257.427C258.102 57.966 258.696 58.1053 259.209 58.384C259.737 58.648 260.148 59.0147 260.441 59.484C260.749 59.9533 260.903 60.496 260.903 61.112C260.903 62.0653 260.581 62.7767 259.935 63.246C259.305 63.7153 258.498 63.95 257.515 63.95H255.337ZM269.784 70.11C268.611 70.11 267.562 69.846 266.638 69.318C265.714 68.79 264.988 68.064 264.46 67.14C263.932 66.216 263.668 65.1673 263.668 63.994C263.668 62.806 263.932 61.75 264.46 60.826C264.988 59.902 265.714 59.176 266.638 58.648C267.562 58.12 268.611 57.856 269.784 57.856C270.958 57.856 271.999 58.12 272.908 58.648C273.832 59.176 274.558 59.902 275.086 60.826C275.614 61.75 275.886 62.806 275.9 63.994C275.9 65.1673 275.629 66.216 275.086 67.14C274.558 68.064 273.832 68.79 272.908 69.318C271.999 69.846 270.958 70.11 269.784 70.11ZM269.784 68.57C270.635 68.57 271.398 68.372 272.072 67.976C272.747 67.58 273.275 67.0373 273.656 66.348C274.038 65.6587 274.228 64.874 274.228 63.994C274.228 63.114 274.038 62.3293 273.656 61.64C273.275 60.936 272.747 60.386 272.072 59.99C271.398 59.594 270.635 59.396 269.784 59.396C268.934 59.396 268.171 59.594 267.496 59.99C266.822 60.386 266.286 60.936 265.89 61.64C265.509 62.3293 265.318 63.114 265.318 63.994C265.318 64.874 265.509 65.6587 265.89 66.348C266.286 67.0373 266.822 67.58 267.496 67.976C268.171 68.372 268.934 68.57 269.784 68.57ZM283.001 70.198C282.37 70.198 281.754 70.1173 281.153 69.956C280.552 69.78 280.009 69.5453 279.525 69.252C279.041 68.944 278.66 68.6067 278.381 68.24C278.234 68.0493 278.176 67.844 278.205 67.624C278.249 67.404 278.381 67.228 278.601 67.096C278.762 66.9933 278.953 66.9713 279.173 67.03C279.408 67.074 279.598 67.1767 279.745 67.338C280.112 67.7193 280.574 68.0347 281.131 68.284C281.688 68.5333 282.304 68.658 282.979 68.658C283.859 68.658 284.57 68.4747 285.113 68.108C285.67 67.7413 285.949 67.2207 285.949 66.546C285.949 65.9593 285.729 65.468 285.289 65.072C284.864 64.676 284.328 64.4633 283.683 64.434H282.561C282.282 64.434 282.055 64.368 281.879 64.236C281.703 64.0893 281.615 63.9133 281.615 63.708C281.615 63.5027 281.703 63.334 281.879 63.202C282.055 63.07 282.282 63.004 282.561 63.004H283.683C284.226 62.9893 284.666 62.806 285.003 62.454C285.34 62.102 285.509 61.6693 285.509 61.156C285.509 60.628 285.274 60.1953 284.805 59.858C284.35 59.5207 283.734 59.352 282.957 59.352C282.238 59.352 281.637 59.4693 281.153 59.704C280.669 59.9387 280.28 60.2393 279.987 60.606C279.826 60.782 279.635 60.892 279.415 60.936C279.21 60.9653 279.012 60.9213 278.821 60.804C278.63 60.7013 278.52 60.54 278.491 60.32C278.476 60.1 278.542 59.8947 278.689 59.704C279.158 59.1613 279.752 58.7067 280.471 58.34C281.204 57.9733 282.026 57.79 282.935 57.79C283.756 57.79 284.482 57.9367 285.113 58.23C285.758 58.5087 286.264 58.8973 286.631 59.396C286.998 59.88 287.181 60.4227 287.181 61.024C287.181 61.508 287.049 61.9553 286.785 62.366C286.536 62.762 286.191 63.092 285.751 63.356C285.326 63.6053 284.849 63.752 284.321 63.796V63.554C284.937 63.554 285.494 63.686 285.993 63.95C286.492 64.214 286.888 64.5807 287.181 65.05C287.474 65.5047 287.621 66.018 287.621 66.59C287.621 67.2793 287.416 67.8953 287.005 68.438C286.609 68.9807 286.059 69.4133 285.355 69.736C284.666 70.044 283.881 70.198 283.001 70.198Z" fill="black"/>
<path d="M62.5 147C68.023 147 72.5 142.523 72.5 137C72.5 131.477 68.023 127 62.5 127C56.977 127 52.5 131.477 52.5 137C52.5 142.523 56.977 147 62.5 147Z" stroke="black" stroke-width="1.5" stroke-linecap="round" stroke-linejoin="round"/>
<path d="M65.5 133.5C64.815 132.815 63.609 132.339 62.5 132.309M62.5 132.309C61.18 132.273 60 132.87 60 134.5C60 137.5 65.5 136 65.5 139C65.5 140.711 64.036 141.446 62.5 141.391M62.5 132.309V130.5M59.5 140C60.144 140.86 61.343 141.35 62.5 141.391M62.5 141.391V143.5" stroke="black" stroke-width="1.5" stroke-linecap="round" stroke-linejoin="round"/>
<path d="M100.458 142.108C99.486 142.108 98.622 141.856 97.866 141.352C97.11 140.836 96.516 140.104 96.084 139.156C95.652 138.196 95.436 137.044 95.436 135.7C95.436 134.356 95.652 133.21 96.084 132.262C96.516 131.302 97.11 130.57 97.866 130.066C98.622 129.55 99.486 129.292 100.458 129.292C101.43 129.292 102.294 129.55 103.05 130.066C103.806 130.57 104.4 131.302 104.832 132.262C105.276 133.21 105.498 134.356 105.498 135.7C105.498 137.044 105.276 138.196 104.832 139.156C104.4 140.104 103.806 140.836 103.05 141.352C102.294 141.856 101.43 142.108 100.458 142.108ZM100.458 140.92C101.202 140.92 101.85 140.722 102.402 140.326C102.954 139.918 103.386 139.33 103.698 138.562C104.01 137.782 104.166 136.828 104.166 135.7C104.166 134.572 104.01 133.624 103.698 132.856C103.386 132.076 102.954 131.488 102.402 131.092C101.85 130.684 101.202 130.48 100.458 130.48C99.738 130.48 99.096 130.684 98.532 131.092C97.968 131.488 97.53 132.076 97.218 132.856C96.906 133.624 96.75 134.572 96.75 135.7C96.75 136.828 96.906 137.782 97.218 138.562C97.53 139.33 97.968 139.918 98.532 140.326C99.096 140.722 99.738 140.92 100.458 140.92ZM117.825 142.09C117.009 142.09 116.271 141.904 115.611 141.532C114.951 141.148 114.423 140.602 114.027 139.894C113.643 139.174 113.451 138.298 113.451 137.266C113.451 136.234 113.643 135.364 114.027 134.656C114.411 133.936 114.933 133.39 115.593 133.018C116.253 132.646 116.997 132.46 117.825 132.46C118.725 132.46 119.529 132.664 120.237 133.072C120.957 133.468 121.521 134.032 121.929 134.764C122.337 135.484 122.541 136.318 122.541 137.266C122.541 138.226 122.337 139.066 121.929 139.786C121.521 140.506 120.957 141.07 120.237 141.478C119.529 141.886 118.725 142.09 117.825 142.09ZM112.947 145.492V132.55H114.171V135.394L114.045 137.284L114.225 139.192V145.492H112.947ZM117.735 140.956C118.407 140.956 119.007 140.806 119.535 140.506C120.063 140.194 120.483 139.762 120.795 139.21C121.107 138.646 121.263 137.998 121.263 137.266C121.263 136.534 121.107 135.892 120.795 135.34C120.483 134.788 120.063 134.356 119.535 134.044C119.007 133.732 118.407 133.576 117.735 133.576C117.063 133.576 116.457 133.732 115.917 134.044C115.389 134.356 114.969 134.788 114.657 135.34C114.357 135.892 114.207 136.534 114.207 137.266C114.207 137.998 114.357 138.646 114.657 139.21C114.969 139.762 115.389 140.194 115.917 140.506C116.457 140.806 117.063 140.956 117.735 140.956ZM125.113 142.09C124.849 142.09 124.621 141.994 124.429 141.802C124.249 141.61 124.159 141.376 124.159 141.1C124.159 140.812 124.249 140.578 124.429 140.398C124.621 140.218 124.849 140.128 125.113 140.128C125.377 140.128 125.599 140.218 125.779 140.398C125.971 140.578 126.067 140.812 126.067 141.1C126.067 141.376 125.971 141.61 125.779 141.802C125.599 141.994 125.377 142.09 125.113 142.09Z" fill="black"/>
<path d="M53.3574 186.428H71.6431M55.6431 181.857H69.3574C69.9636 181.857 70.545 182.098 70.9737 182.526C71.4023 182.955 71.6431 183.536 71.6431 184.143V197.857C71.6431 198.463 71.4023 199.045 70.9737 199.473C70.545 199.902 69.9636 200.143 69.3574 200.143H55.6431C55.0369 200.143 54.4555 199.902 54.0269 199.473C53.5982 199.045 53.3574 198.463 53.3574 197.857V184.143C53.3574 183.536 53.5982 182.955 54.0269 182.526C54.4555 182.098 55.0369 181.857 55.6431 181.857Z" stroke="black" stroke-linecap="round" stroke-linejoin="round"/>
<path d="M62.5003 192.143C63.1315 192.143 63.6431 191.631 63.6431 191C63.6431 190.369 63.1315 189.857 62.5003 189.857C61.8691 189.857 61.3574 190.369 61.3574 191C61.3574 191.631 61.8691 192.143 62.5003 192.143Z" fill="black"/>
<path d="M57.928 192.143C58.5592 192.143 59.0709 191.631 59.0709 191C59.0709 190.369 58.5592 189.857 57.928 189.857C57.2968 189.857 56.7852 190.369 56.7852 191C56.7852 191.631 57.2968 192.143 57.928 192.143Z" fill="black"/>
<path d="M57.928 196.714C58.5592 196.714 59.0709 196.202 59.0709 195.571C59.0709 194.94 58.5592 194.428 57.928 194.428C57.2968 194.428 56.7852 194.94 56.7852 195.571C56.7852 196.202 57.2968 196.714 57.928 196.714Z" fill="black"/>
<path d="M97.632 196V183.94L98.208 184.552H94.662V183.4H98.928V196H97.632ZM102.084 191.68V190.564H106.8V191.68H102.084ZM108.368 196V195.082L113.606 189.952C114.086 189.484 114.446 189.076 114.686 188.728C114.926 188.368 115.088 188.032 115.172 187.72C115.256 187.408 115.298 187.114 115.298 186.838C115.298 186.106 115.046 185.53 114.542 185.11C114.05 184.69 113.318 184.48 112.346 184.48C111.602 184.48 110.942 184.594 110.366 184.822C109.802 185.05 109.316 185.404 108.908 185.884L107.99 185.092C108.482 184.516 109.112 184.072 109.88 183.76C110.648 183.448 111.506 183.292 112.454 183.292C113.306 183.292 114.044 183.43 114.668 183.706C115.292 183.97 115.772 184.36 116.108 184.876C116.456 185.392 116.63 185.998 116.63 186.694C116.63 187.102 116.57 187.504 116.45 187.9C116.342 188.296 116.138 188.716 115.838 189.16C115.55 189.592 115.124 190.084 114.56 190.636L109.754 195.352L109.394 194.848H117.206V196H108.368ZM129.303 196.09C128.487 196.09 127.749 195.904 127.089 195.532C126.429 195.148 125.901 194.602 125.505 193.894C125.121 193.174 124.929 192.298 124.929 191.266C124.929 190.234 125.121 189.364 125.505 188.656C125.889 187.936 126.411 187.39 127.071 187.018C127.731 186.646 128.475 186.46 129.303 186.46C130.203 186.46 131.007 186.664 131.715 187.072C132.435 187.468 132.999 188.032 133.407 188.764C133.815 189.484 134.019 190.318 134.019 191.266C134.019 192.226 133.815 193.066 133.407 193.786C132.999 194.506 132.435 195.07 131.715 195.478C131.007 195.886 130.203 196.09 129.303 196.09ZM124.425 199.492V186.55H125.649V189.394L125.523 191.284L125.703 193.192V199.492H124.425ZM129.213 194.956C129.885 194.956 130.485 194.806 131.013 194.506C131.541 194.194 131.961 193.762 132.273 193.21C132.585 192.646 132.741 191.998 132.741 191.266C132.741 190.534 132.585 189.892 132.273 189.34C131.961 188.788 131.541 188.356 131.013 188.044C130.485 187.732 129.885 187.576 129.213 187.576C128.541 187.576 127.935 187.732 127.395 188.044C126.867 188.356 126.447 188.788 126.135 189.34C125.835 189.892 125.685 190.534 125.685 191.266C125.685 191.998 125.835 192.646 126.135 193.21C126.447 193.762 126.867 194.194 127.395 194.506C127.935 194.806 128.541 194.956 129.213 194.956ZM142.581 196V193.912L142.527 193.57V190.078C142.527 189.274 142.299 188.656 141.843 188.224C141.399 187.792 140.733 187.576 139.845 187.576C139.233 187.576 138.651 187.678 138.099 187.882C137.547 188.086 137.079 188.356 136.695 188.692L136.119 187.738C136.599 187.33 137.175 187.018 137.847 186.802C138.519 186.574 139.227 186.46 139.971 186.46C141.195 186.46 142.137 186.766 142.797 187.378C143.469 187.978 143.805 188.896 143.805 190.132V196H142.581ZM139.323 196.09C138.615 196.09 137.997 195.976 137.469 195.748C136.953 195.508 136.557 195.184 136.281 194.776C136.005 194.356 135.867 193.876 135.867 193.336C135.867 192.844 135.981 192.4 136.209 192.004C136.449 191.596 136.833 191.272 137.361 191.032C137.901 190.78 138.621 190.654 139.521 190.654H142.779V191.608H139.557C138.645 191.608 138.009 191.77 137.649 192.094C137.301 192.418 137.127 192.82 137.127 193.3C137.127 193.84 137.337 194.272 137.757 194.596C138.177 194.92 138.765 195.082 139.521 195.082C140.241 195.082 140.859 194.92 141.375 194.596C141.903 194.26 142.287 193.78 142.527 193.156L142.815 194.038C142.575 194.662 142.155 195.16 141.555 195.532C140.967 195.904 140.223 196.09 139.323 196.09ZM151.455 196.108C150.687 196.108 150.003 195.982 149.403 195.73C148.815 195.478 148.311 195.094 147.891 194.578C147.471 194.062 147.153 193.426 146.937 192.67C146.721 191.902 146.613 191.014 146.613 190.006C146.613 189.106 146.697 188.32 146.865 187.648C147.033 186.964 147.267 186.376 147.567 185.884C147.867 185.392 148.215 184.978 148.611 184.642C149.019 184.294 149.457 184.018 149.925 183.814C150.405 183.598 150.897 183.436 151.401 183.328L155.649 182.338L155.865 183.526L151.869 184.426C151.617 184.486 151.311 184.57 150.951 184.678C150.603 184.786 150.243 184.948 149.871 185.164C149.511 185.38 149.175 185.68 148.863 186.064C148.551 186.448 148.299 186.946 148.107 187.558C147.927 188.158 147.837 188.908 147.837 189.808C147.837 190 147.843 190.156 147.855 190.276C147.867 190.384 147.879 190.504 147.891 190.636C147.915 190.756 147.933 190.936 147.945 191.176L147.387 190.708C147.519 189.976 147.789 189.34 148.197 188.8C148.605 188.248 149.115 187.822 149.727 187.522C150.351 187.21 151.041 187.054 151.797 187.054C152.673 187.054 153.453 187.246 154.137 187.63C154.821 188.002 155.355 188.524 155.739 189.196C156.135 189.868 156.333 190.648 156.333 191.536C156.333 192.412 156.129 193.198 155.721 193.894C155.325 194.59 154.761 195.136 154.029 195.532C153.297 195.916 152.439 196.108 151.455 196.108ZM151.599 195.046C152.271 195.046 152.865 194.896 153.381 194.596C153.897 194.284 154.299 193.864 154.587 193.336C154.887 192.808 155.037 192.214 155.037 191.554C155.037 190.906 154.887 190.33 154.587 189.826C154.299 189.322 153.897 188.926 153.381 188.638C152.865 188.338 152.265 188.188 151.581 188.188C150.909 188.188 150.315 188.332 149.799 188.62C149.283 188.896 148.875 189.286 148.575 189.79C148.287 190.294 148.143 190.876 148.143 191.536C148.143 192.196 148.287 192.79 148.575 193.318C148.875 193.846 149.283 194.266 149.799 194.578C150.327 194.89 150.927 195.046 151.599 195.046ZM162.96 196.09C162.048 196.09 161.226 195.886 160.494 195.478C159.774 195.058 159.204 194.488 158.784 193.768C158.364 193.036 158.154 192.202 158.154 191.266C158.154 190.318 158.364 189.484 158.784 188.764C159.204 188.044 159.774 187.48 160.494 187.072C161.214 186.664 162.036 186.46 162.96 186.46C163.896 186.46 164.724 186.664 165.444 187.072C166.176 187.48 166.746 188.044 167.154 188.764C167.574 189.484 167.784 190.318 167.784 191.266C167.784 192.202 167.574 193.036 167.154 193.768C166.746 194.488 166.176 195.058 165.444 195.478C164.712 195.886 163.884 196.09 162.96 196.09ZM162.96 194.956C163.644 194.956 164.25 194.806 164.778 194.506C165.306 194.194 165.72 193.762 166.02 193.21C166.332 192.646 166.488 191.998 166.488 191.266C166.488 190.522 166.332 189.874 166.02 189.322C165.72 188.77 165.306 188.344 164.778 188.044C164.25 187.732 163.65 187.576 162.978 187.576C162.306 187.576 161.706 187.732 161.178 188.044C160.65 188.344 160.23 188.77 159.918 189.322C159.606 189.874 159.45 190.522 159.45 191.266C159.45 191.998 159.606 192.646 159.918 193.21C160.23 193.762 160.65 194.194 161.178 194.506C161.706 194.806 162.3 194.956 162.96 194.956ZM176.491 192.004C175.939 192.244 175.381 192.436 174.817 192.58C174.265 192.712 173.713 192.778 173.161 192.778C172.045 192.778 171.163 192.526 170.515 192.022C169.867 191.506 169.543 190.714 169.543 189.646V186.55H170.803V189.574C170.803 190.294 171.037 190.834 171.505 191.194C171.973 191.554 172.603 191.734 173.395 191.734C173.875 191.734 174.379 191.674 174.907 191.554C175.435 191.422 175.969 191.236 176.509 190.996L176.491 192.004ZM176.383 196V186.55H177.661V196H176.383ZM181.291 196V186.55H182.569V194.056L188.887 186.55H190.021V196H188.743V188.476L182.443 196H181.291ZM192.135 196L196.131 190.816L196.113 191.446L192.315 186.55H193.755L196.869 190.6L196.329 190.582L199.443 186.55H200.847L197.013 191.5L197.031 190.816L201.063 196H199.605L196.311 191.68L196.815 191.752L193.575 196H192.135ZM214.349 195.388V187.666H209.795L209.687 189.772C209.663 190.408 209.621 191.032 209.561 191.644C209.513 192.256 209.423 192.82 209.291 193.336C209.171 193.84 208.997 194.254 208.769 194.578C208.541 194.89 208.247 195.07 207.887 195.118L206.609 194.884C206.981 194.896 207.287 194.764 207.527 194.488C207.767 194.2 207.953 193.81 208.085 193.318C208.217 192.826 208.313 192.268 208.373 191.644C208.433 191.008 208.481 190.36 208.517 189.7L208.643 186.55H215.627V195.388H214.349ZM206.213 198.286V194.884H217.103V198.286H215.897V196H207.419V198.286H206.213ZM219.593 196V186.55H220.871V190.726H226.829V186.55H228.107V196H226.829V191.824H220.871V196H219.593ZM237.842 196V192.598L238.076 192.868H234.872C233.66 192.868 232.712 192.604 232.028 192.076C231.344 191.548 231.002 190.78 231.002 189.772C231.002 188.692 231.368 187.888 232.1 187.36C232.832 186.82 233.81 186.55 235.034 186.55H239.012V196H237.842ZM230.93 196L233.522 192.364H234.854L232.316 196H230.93ZM237.842 192.22V187.288L238.076 187.666H235.07C234.194 187.666 233.51 187.834 233.018 188.17C232.538 188.506 232.298 189.052 232.298 189.808C232.298 191.212 233.192 191.914 234.98 191.914H238.076L237.842 192.22Z" fill="black"/>
<path d="M58.75 248H64.75M52.75 242.75H72.25M67.75 248H69.25M54.25 238.25C53.5 238.25 52.75 239 52.75 239.75V250.25C52.75 251 53.5 251.75 54.25 251.75H70.75C71.5 251.75 72.25 251 72.25 250.25V239.75C72.25 239 71.5 238.25 70.75 238.25H54.25Z" stroke="black" stroke-width="2" stroke-linecap="round" stroke-linejoin="round"/>
<path d="M102.15 250.108C101.202 250.108 100.32 249.952 99.504 249.64C98.7 249.316 97.998 248.866 97.398 248.29C96.81 247.702 96.348 247.024 96.012 246.256C95.688 245.476 95.526 244.624 95.526 243.7C95.526 242.776 95.688 241.93 96.012 241.162C96.348 240.382 96.81 239.704 97.398 239.128C97.998 238.54 98.7 238.09 99.504 237.778C100.308 237.454 101.19 237.292 102.15 237.292C103.098 237.292 103.974 237.454 104.778 237.778C105.582 238.09 106.278 238.534 106.866 239.11C107.466 239.686 107.928 240.364 108.252 241.144C108.588 241.924 108.756 242.776 108.756 243.7C108.756 244.624 108.588 245.476 108.252 246.256C107.928 247.036 107.466 247.714 106.866 248.29C106.278 248.866 105.582 249.316 104.778 249.64C103.974 249.952 103.098 250.108 102.15 250.108ZM102.15 248.92C102.906 248.92 103.602 248.794 104.238 248.542C104.886 248.278 105.444 247.912 105.912 247.444C106.392 246.964 106.764 246.412 107.028 245.788C107.292 245.152 107.424 244.456 107.424 243.7C107.424 242.944 107.292 242.254 107.028 241.63C106.764 240.994 106.392 240.442 105.912 239.974C105.444 239.494 104.886 239.128 104.238 238.876C103.602 238.612 102.906 238.48 102.15 238.48C101.394 238.48 100.692 238.612 100.044 238.876C99.396 239.128 98.832 239.494 98.352 239.974C97.884 240.442 97.512 240.994 97.236 241.63C96.972 242.254 96.84 242.944 96.84 243.7C96.84 244.444 96.972 245.134 97.236 245.77C97.512 246.406 97.884 246.964 98.352 247.444C98.832 247.912 99.396 248.278 100.044 248.542C100.692 248.794 101.394 248.92 102.15 248.92ZM111.629 250V240.55H120.125V250H118.847V241.324L119.171 241.666H112.583L112.907 241.324V250H111.629ZM122.029 249.982L122.119 248.884C122.203 248.896 122.281 248.914 122.353 248.938C122.437 248.95 122.509 248.956 122.569 248.956C122.953 248.956 123.259 248.812 123.487 248.524C123.727 248.236 123.907 247.852 124.027 247.372C124.147 246.892 124.231 246.352 124.279 245.752C124.327 245.14 124.369 244.528 124.405 243.916L124.567 240.55H131.497V250H130.219V241.288L130.543 241.666H125.395L125.701 241.27L125.557 244.006C125.521 244.822 125.455 245.602 125.359 246.346C125.275 247.09 125.137 247.744 124.945 248.308C124.765 248.872 124.513 249.316 124.189 249.64C123.865 249.952 123.451 250.108 122.947 250.108C122.803 250.108 122.653 250.096 122.497 250.072C122.353 250.048 122.197 250.018 122.029 249.982ZM140.999 250V247.912L140.945 247.57V244.078C140.945 243.274 140.717 242.656 140.261 242.224C139.817 241.792 139.151 241.576 138.263 241.576C137.651 241.576 137.069 241.678 136.517 241.882C135.965 242.086 135.497 242.356 135.113 242.692L134.537 241.738C135.017 241.33 135.593 241.018 136.265 240.802C136.937 240.574 137.645 240.46 138.389 240.46C139.613 240.46 140.555 240.766 141.215 241.378C141.887 241.978 142.223 242.896 142.223 244.132V250H140.999ZM137.741 250.09C137.033 250.09 136.415 249.976 135.887 249.748C135.371 249.508 134.975 249.184 134.699 248.776C134.423 248.356 134.285 247.876 134.285 247.336C134.285 246.844 134.399 246.4 134.627 246.004C134.867 245.596 135.251 245.272 135.779 245.032C136.319 244.78 137.039 244.654 137.938 244.654H141.197V245.608H137.975C137.063 245.608 136.427 245.77 136.067 246.094C135.719 246.418 135.545 246.82 135.545 247.3C135.545 247.84 135.755 248.272 136.175 248.596C136.595 248.92 137.183 249.082 137.938 249.082C138.659 249.082 139.277 248.92 139.793 248.596C140.321 248.26 140.705 247.78 140.945 247.156L141.233 248.038C140.993 248.662 140.573 249.16 139.973 249.532C139.385 249.904 138.641 250.09 137.741 250.09ZM147.425 250V241.324L147.749 241.666H143.843V240.55H152.285V241.666H148.379L148.703 241.324V250H147.425ZM160 250V247.912L159.946 247.57V244.078C159.946 243.274 159.718 242.656 159.262 242.224C158.818 241.792 158.152 241.576 157.264 241.576C156.652 241.576 156.07 241.678 155.518 241.882C154.966 242.086 154.498 242.356 154.114 242.692L153.538 241.738C154.018 241.33 154.594 241.018 155.266 240.802C155.938 240.574 156.646 240.46 157.39 240.46C158.614 240.46 159.556 240.766 160.216 241.378C160.888 241.978 161.224 242.896 161.224 244.132V250H160ZM156.742 250.09C156.034 250.09 155.416 249.976 154.888 249.748C154.372 249.508 153.976 249.184 153.7 248.776C153.424 248.356 153.286 247.876 153.286 247.336C153.286 246.844 153.4 246.4 153.628 246.004C153.868 245.596 154.252 245.272 154.78 245.032C155.32 244.78 156.04 244.654 156.94 244.654H160.198V245.608H156.976C156.064 245.608 155.428 245.77 155.068 246.094C154.72 246.418 154.546 246.82 154.546 247.3C154.546 247.84 154.756 248.272 155.176 248.596C155.596 248.92 156.184 249.082 156.94 249.082C157.66 249.082 158.278 248.92 158.794 248.596C159.322 248.26 159.706 247.78 159.946 247.156L160.234 248.038C159.994 248.662 159.574 249.16 158.974 249.532C158.386 249.904 157.642 250.09 156.742 250.09ZM173.226 250.09C172.314 250.09 171.492 249.886 170.76 249.478C170.04 249.058 169.47 248.488 169.05 247.768C168.63 247.036 168.42 246.202 168.42 245.266C168.42 244.318 168.63 243.484 169.05 242.764C169.47 242.044 170.04 241.48 170.76 241.072C171.48 240.664 172.302 240.46 173.226 240.46C174.162 240.46 174.99 240.664 175.71 241.072C176.442 241.48 177.012 242.044 177.42 242.764C177.84 243.484 178.05 244.318 178.05 245.266C178.05 246.202 177.84 247.036 177.42 247.768C177.012 248.488 176.442 249.058 175.71 249.478C174.978 249.886 174.15 250.09 173.226 250.09ZM173.226 248.956C173.91 248.956 174.516 248.806 175.044 248.506C175.572 248.194 175.986 247.762 176.286 247.21C176.598 246.646 176.754 245.998 176.754 245.266C176.754 244.522 176.598 243.874 176.286 243.322C175.986 242.77 175.572 242.344 175.044 242.044C174.516 241.732 173.916 241.576 173.244 241.576C172.572 241.576 171.972 241.732 171.444 242.044C170.916 242.344 170.496 242.77 170.184 243.322C169.872 243.874 169.716 244.522 169.716 245.266C169.716 245.998 169.872 246.646 170.184 247.21C170.496 247.762 170.916 248.194 171.444 248.506C171.972 248.806 172.566 248.956 173.226 248.956ZM180.781 250V240.55H182.059V244.726H188.017V240.55H189.295V250H188.017V245.824H182.059V250H180.781ZM191.199 249.982L191.289 248.884C191.373 248.896 191.451 248.914 191.523 248.938C191.607 248.95 191.679 248.956 191.739 248.956C192.123 248.956 192.429 248.812 192.657 248.524C192.897 248.236 193.077 247.852 193.197 247.372C193.317 246.892 193.401 246.352 193.449 245.752C193.497 245.14 193.539 244.528 193.575 243.916L193.737 240.55H200.667V250H199.389V241.288L199.713 241.666H194.565L194.871 241.27L194.727 244.006C194.691 244.822 194.625 245.602 194.529 246.346C194.445 247.09 194.307 247.744 194.115 248.308C193.935 248.872 193.683 249.316 193.359 249.64C193.035 249.952 192.621 250.108 192.117 250.108C191.973 250.108 191.823 250.096 191.667 250.072C191.523 250.048 191.367 250.018 191.199 249.982ZM210.168 250V247.912L210.114 247.57V244.078C210.114 243.274 209.886 242.656 209.43 242.224C208.986 241.792 208.32 241.576 207.432 241.576C206.82 241.576 206.238 241.678 205.686 241.882C205.134 242.086 204.666 242.356 204.282 242.692L203.706 241.738C204.186 241.33 204.762 241.018 205.434 240.802C206.106 240.574 206.814 240.46 207.558 240.46C208.782 240.46 209.724 240.766 210.384 241.378C211.056 241.978 211.392 242.896 211.392 244.132V250H210.168ZM206.91 250.09C206.202 250.09 205.584 249.976 205.056 249.748C204.54 249.508 204.144 249.184 203.868 248.776C203.592 248.356 203.454 247.876 203.454 247.336C203.454 246.844 203.568 246.4 203.796 246.004C204.036 245.596 204.42 245.272 204.948 245.032C205.488 244.78 206.208 244.654 207.108 244.654H210.366V245.608H207.144C206.232 245.608 205.596 245.77 205.236 246.094C204.888 246.418 204.714 246.82 204.714 247.3C204.714 247.84 204.924 248.272 205.344 248.596C205.764 248.92 206.352 249.082 207.108 249.082C207.828 249.082 208.446 248.92 208.962 248.596C209.49 248.26 209.874 247.78 210.114 247.156L210.402 248.038C210.162 248.662 209.742 249.16 209.142 249.532C208.554 249.904 207.81 250.09 206.91 250.09ZM214.795 250V240.55H216.073V248.056L222.391 240.55H223.525V250H222.247V242.476L215.947 250H214.795ZM219.079 239.182C218.287 239.182 217.645 238.984 217.153 238.588C216.673 238.18 216.421 237.598 216.397 236.842H217.315C217.327 237.322 217.495 237.7 217.819 237.976C218.143 238.252 218.563 238.39 219.079 238.39C219.595 238.39 220.015 238.252 220.339 237.976C220.675 237.7 220.849 237.322 220.861 236.842H221.779C221.767 237.598 221.515 238.18 221.023 238.588C220.531 238.984 219.883 239.182 219.079 239.182ZM227.187 250V240.55H228.465V244.726H234.423V240.55H235.701V250H234.423V245.824H228.465V250H227.187ZM237.066 251.8L243.006 234.844H244.176L238.236 251.8H237.066ZM250.074 250V240.55H258.57V250H257.292V241.324L257.616 241.666H251.028L251.352 241.324V250H250.074ZM267.081 250.09C266.265 250.09 265.527 249.904 264.867 249.532C264.207 249.148 263.679 248.602 263.283 247.894C262.899 247.174 262.707 246.298 262.707 245.266C262.707 244.234 262.899 243.364 263.283 242.656C263.667 241.936 264.189 241.39 264.849 241.018C265.509 240.646 266.253 240.46 267.081 240.46C267.981 240.46 268.785 240.664 269.493 241.072C270.213 241.468 270.777 242.032 271.185 242.764C271.593 243.484 271.797 244.318 271.797 245.266C271.797 246.226 271.593 247.066 271.185 247.786C270.777 248.506 270.213 249.07 269.493 249.478C268.785 249.886 267.981 250.09 267.081 250.09ZM262.203 253.492V240.55H263.427V243.394L263.301 245.284L263.481 247.192V253.492H262.203ZM266.991 248.956C267.663 248.956 268.263 248.806 268.791 248.506C269.319 248.194 269.739 247.762 270.051 247.21C270.363 246.646 270.519 245.998 270.519 245.266C270.519 244.534 270.363 243.892 270.051 243.34C269.739 242.788 269.319 242.356 268.791 242.044C268.263 241.732 267.663 241.576 266.991 241.576C266.319 241.576 265.713 241.732 265.173 242.044C264.645 242.356 264.225 242.788 263.913 243.34C263.613 243.892 263.463 244.534 263.463 245.266C263.463 245.998 263.613 246.646 263.913 247.21C264.225 247.762 264.645 248.194 265.173 248.506C265.713 248.806 266.319 248.956 266.991 248.956ZM274.543 250V240.55H275.821V248.056L282.139 240.55H283.273V250H281.995V242.476L275.695 250H274.543ZM291.646 250V240.55H300.142V250H298.864V241.324L299.188 241.666H292.6L292.924 241.324V250H291.646ZM307.663 250.09C306.751 250.09 305.929 249.886 305.197 249.478C304.477 249.058 303.907 248.488 303.487 247.768C303.067 247.036 302.857 246.202 302.857 245.266C302.857 244.318 303.067 243.484 303.487 242.764C303.907 242.044 304.477 241.48 305.197 241.072C305.917 240.664 306.739 240.46 307.663 240.46C308.599 240.46 309.427 240.664 310.147 241.072C310.879 241.48 311.449 242.044 311.857 242.764C312.277 243.484 312.487 244.318 312.487 245.266C312.487 246.202 312.277 247.036 311.857 247.768C311.449 248.488 310.879 249.058 310.147 249.478C309.415 249.886 308.587 250.09 307.663 250.09ZM307.663 248.956C308.347 248.956 308.953 248.806 309.481 248.506C310.009 248.194 310.423 247.762 310.723 247.21C311.035 246.646 311.191 245.998 311.191 245.266C311.191 244.522 311.035 243.874 310.723 243.322C310.423 242.77 310.009 242.344 309.481 242.044C308.953 241.732 308.353 241.576 307.681 241.576C307.009 241.576 306.409 241.732 305.881 242.044C305.353 242.344 304.933 242.77 304.621 243.322C304.309 243.874 304.153 244.522 304.153 245.266C304.153 245.998 304.309 246.646 304.621 247.21C304.933 247.762 305.353 248.194 305.881 248.506C306.409 248.806 307.003 248.956 307.663 248.956ZM313.438 249.982L313.528 248.884C313.612 248.896 313.69 248.914 313.762 248.938C313.846 248.95 313.918 248.956 313.978 248.956C314.362 248.956 314.668 248.812 314.896 248.524C315.136 248.236 315.316 247.852 315.436 247.372C315.556 246.892 315.64 246.352 315.688 245.752C315.736 245.14 315.778 244.528 315.814 243.916L315.976 240.55H322.906V250H321.628V241.288L321.952 241.666H316.804L317.11 241.27L316.966 244.006C316.93 244.822 316.864 245.602 316.768 246.346C316.684 247.09 316.546 247.744 316.354 248.308C316.174 248.872 315.922 249.316 315.598 249.64C315.274 249.952 314.86 250.108 314.356 250.108C314.212 250.108 314.062 250.096 313.906 250.072C313.762 250.048 313.606 250.018 313.438 249.982ZM326.701 253.582C326.257 253.582 325.831 253.51 325.423 253.366C325.027 253.222 324.685 253.006 324.397 252.718L324.991 251.764C325.231 251.992 325.489 252.166 325.765 252.286C326.053 252.418 326.371 252.484 326.719 252.484C327.139 252.484 327.499 252.364 327.799 252.124C328.111 251.896 328.405 251.488 328.681 250.9L329.293 249.514L329.437 249.316L333.325 240.55H334.585L329.851 251.134C329.587 251.746 329.293 252.232 328.969 252.592C328.657 252.952 328.315 253.204 327.943 253.348C327.571 253.504 327.157 253.582 326.701 253.582ZM329.221 250.27L324.865 240.55H326.197L330.049 249.226L329.221 250.27ZM342.552 246.004C342 246.244 341.442 246.436 340.878 246.58C340.326 246.712 339.774 246.778 339.222 246.778C338.106 246.778 337.224 246.526 336.576 246.022C335.928 245.506 335.604 244.714 335.604 243.646V240.55H336.864V243.574C336.864 244.294 337.098 244.834 337.566 245.194C338.034 245.554 338.664 245.734 339.456 245.734C339.936 245.734 340.44 245.674 340.968 245.554C341.496 245.422 342.03 245.236 342.57 244.996L342.552 246.004ZM342.444 250V240.55H343.722V250H342.444ZM351.401 250.09C350.417 250.09 349.553 249.886 348.809 249.478C348.065 249.058 347.483 248.488 347.063 247.768C346.643 247.036 346.433 246.202 346.433 245.266C346.433 244.33 346.631 243.502 347.027 242.782C347.435 242.062 347.987 241.498 348.683 241.09C349.391 240.67 350.183 240.46 351.059 240.46C351.947 240.46 352.733 240.664 353.417 241.072C354.113 241.468 354.659 242.032 355.055 242.764C355.451 243.484 355.649 244.318 355.649 245.266C355.649 245.326 355.643 245.392 355.631 245.464C355.631 245.524 355.631 245.59 355.631 245.662H347.405V244.708H354.947L354.443 245.086C354.443 244.402 354.293 243.796 353.993 243.268C353.705 242.728 353.309 242.308 352.805 242.008C352.301 241.708 351.719 241.558 351.059 241.558C350.411 241.558 349.829 241.708 349.313 242.008C348.797 242.308 348.395 242.728 348.107 243.268C347.819 243.808 347.675 244.426 347.675 245.122V245.32C347.675 246.04 347.831 246.676 348.143 247.228C348.467 247.768 348.911 248.194 349.475 248.506C350.051 248.806 350.705 248.956 351.437 248.956C352.013 248.956 352.547 248.854 353.039 248.65C353.543 248.446 353.975 248.134 354.335 247.714L355.055 248.542C354.635 249.046 354.107 249.43 353.471 249.694C352.847 249.958 352.157 250.09 351.401 250.09ZM358.478 250V240.55H359.756V244.726H365.714V240.55H366.992V250H365.714V245.824H359.756V250H358.478ZM370.625 250V240.55H371.903V248.056L378.221 240.55H379.355V250H378.077V242.476L371.777 250H370.625ZM383.017 250V240.55H384.295V248.056L390.613 240.55H391.747V250H390.469V242.476L384.169 250H383.017Z" fill="black"/>
</svg>
