<svg width="449" height="337" viewBox="0 0 449 337" fill="none" xmlns="http://www.w3.org/2000/svg">
<rect x="0.5" width="445" height="337" rx="20" fill="#FBEAE5"/>
<path d="M121.646 69.78C121.499 69.9413 121.301 70.0147 121.052 70C120.803 70 120.605 69.912 120.458 69.736L113.33 61.266L119.886 53.082C120.047 52.906 120.245 52.818 120.48 52.818C120.715 52.8033 120.913 52.8767 121.074 53.038C121.25 53.214 121.331 53.4047 121.316 53.61C121.316 53.8007 121.243 53.984 121.096 54.16L115.398 61.178L121.734 68.636C121.895 68.8267 121.961 69.0247 121.932 69.23C121.917 69.4207 121.822 69.604 121.646 69.78ZM110.558 70C110.309 70 110.103 69.9193 109.942 69.758C109.781 69.5967 109.7 69.3913 109.7 69.142V53.676C109.7 53.4267 109.781 53.2213 109.942 53.06C110.103 52.8987 110.309 52.818 110.558 52.818C110.807 52.818 111.013 52.8987 111.174 53.06C111.335 53.2213 111.416 53.4267 111.416 53.676V60.54H114.892V62.08H111.416V69.142C111.416 69.3913 111.335 69.5967 111.174 69.758C111.013 69.9193 110.807 70 110.558 70ZM123.615 75.258C123.292 75.2727 122.969 75.2287 122.647 75.126C122.339 75.038 122.031 74.906 121.723 74.73C121.488 74.5833 121.341 74.3927 121.283 74.158C121.209 73.938 121.253 73.7253 121.415 73.52C121.561 73.3293 121.737 73.2267 121.943 73.212C122.163 73.212 122.39 73.2707 122.625 73.388C122.786 73.4907 122.947 73.564 123.109 73.608C123.27 73.652 123.453 73.674 123.659 73.674C124.143 73.6593 124.605 73.432 125.045 72.992C125.499 72.552 125.91 71.914 126.277 71.078L131.755 58.428C131.843 58.208 131.989 58.0613 132.195 57.988C132.415 57.9 132.635 57.9073 132.855 58.01C133.06 58.098 133.192 58.2447 133.251 58.45C133.324 58.6553 133.309 58.8753 133.207 59.11L127.707 71.738C127.237 72.794 126.643 73.6447 125.925 74.29C125.221 74.9353 124.451 75.258 123.615 75.258ZM128.213 69.626C127.993 69.7287 127.787 69.7507 127.597 69.692C127.406 69.6187 127.252 69.472 127.135 69.252L122.229 59.088C122.126 58.868 122.111 58.6627 122.185 58.472C122.258 58.2813 122.405 58.1347 122.625 58.032C122.845 57.9293 123.05 57.9147 123.241 57.988C123.431 58.0467 123.578 58.186 123.681 58.406L128.521 68.526C128.623 68.746 128.653 68.9587 128.609 69.164C128.565 69.3693 128.433 69.5233 128.213 69.626ZM136.871 75.148C136.607 75.148 136.395 75.0673 136.233 74.906C136.087 74.7593 136.013 74.554 136.013 74.29V63.906C136.028 62.762 136.299 61.7353 136.827 60.826C137.37 59.902 138.096 59.176 139.005 58.648C139.929 58.12 140.963 57.856 142.107 57.856C143.281 57.856 144.329 58.1273 145.253 58.67C146.177 59.198 146.903 59.924 147.431 60.848C147.974 61.772 148.245 62.8207 148.245 63.994C148.245 65.1527 147.981 66.194 147.453 67.118C146.94 68.042 146.236 68.7753 145.341 69.318C144.447 69.846 143.435 70.11 142.305 70.11C141.323 70.11 140.428 69.9047 139.621 69.494C138.829 69.0687 138.191 68.5113 137.707 67.822V74.29C137.707 74.554 137.627 74.7593 137.465 74.906C137.319 75.0673 137.121 75.148 136.871 75.148ZM142.107 68.57C142.958 68.57 143.721 68.372 144.395 67.976C145.07 67.58 145.598 67.0373 145.979 66.348C146.375 65.644 146.573 64.8593 146.573 63.994C146.573 63.114 146.375 62.3293 145.979 61.64C145.598 60.9507 145.07 60.408 144.395 60.012C143.721 59.6013 142.958 59.396 142.107 59.396C141.271 59.396 140.516 59.6013 139.841 60.012C139.167 60.408 138.639 60.9507 138.257 61.64C137.876 62.3293 137.685 63.114 137.685 63.994C137.685 64.8593 137.876 65.644 138.257 66.348C138.639 67.0373 139.167 67.58 139.841 67.976C140.516 68.372 141.271 68.57 142.107 68.57ZM156.672 70.22C155.66 70.22 154.773 70.0293 154.01 69.648C153.247 69.2667 152.646 68.746 152.206 68.086C151.781 67.4113 151.568 66.6267 151.568 65.732V58.802C151.583 58.5527 151.671 58.3547 151.832 58.208C151.993 58.0467 152.191 57.966 152.426 57.966C152.661 57.966 152.859 58.0467 153.02 58.208C153.181 58.3693 153.262 58.5747 153.262 58.824V61.948H156.848C157.801 61.948 158.637 62.1167 159.356 62.454C160.089 62.7913 160.654 63.268 161.05 63.884C161.461 64.5 161.666 65.2113 161.666 66.018C161.666 66.8247 161.453 67.5507 161.028 68.196C160.617 68.8267 160.038 69.3253 159.29 69.692C158.542 70.044 157.669 70.22 156.672 70.22ZM156.672 68.658C157.625 68.658 158.417 68.438 159.048 67.998C159.679 67.558 159.994 66.898 159.994 66.018C159.994 65.1967 159.715 64.5587 159.158 64.104C158.601 63.6493 157.831 63.422 156.848 63.422H153.262V65.732C153.262 66.2893 153.401 66.7953 153.68 67.25C153.973 67.69 154.369 68.0347 154.868 68.284C155.381 68.5333 155.983 68.658 156.672 68.658ZM169.957 70.11C168.769 70.11 167.713 69.8533 166.789 69.34C165.88 68.812 165.161 68.086 164.633 67.162C164.12 66.238 163.863 65.182 163.863 63.994C163.863 62.7913 164.105 61.7353 164.589 60.826C165.088 59.902 165.77 59.176 166.635 58.648C167.501 58.12 168.498 57.856 169.627 57.856C170.742 57.856 171.71 58.1127 172.531 58.626C173.367 59.1247 174.013 59.8213 174.467 60.716C174.922 61.6107 175.149 62.63 175.149 63.774C175.149 64.0087 175.076 64.1993 174.929 64.346C174.783 64.478 174.592 64.544 174.357 64.544H165.007V63.136H174.533L173.587 63.818C173.602 62.9673 173.448 62.2047 173.125 61.53C172.803 60.8553 172.341 60.3273 171.739 59.946C171.153 59.5647 170.449 59.374 169.627 59.374C168.791 59.374 168.058 59.572 167.427 59.968C166.797 60.364 166.305 60.914 165.953 61.618C165.616 62.3073 165.447 63.0993 165.447 63.994C165.447 64.8887 165.638 65.6807 166.019 66.37C166.415 67.0593 166.951 67.602 167.625 67.998C168.3 68.394 169.077 68.592 169.957 68.592C170.485 68.592 171.013 68.504 171.541 68.328C172.084 68.1373 172.517 67.9027 172.839 67.624C173.001 67.492 173.184 67.426 173.389 67.426C173.595 67.4113 173.771 67.4627 173.917 67.58C174.108 67.756 174.203 67.9467 174.203 68.152C174.218 68.3573 174.137 68.5333 173.961 68.68C173.477 69.0907 172.861 69.4353 172.113 69.714C171.365 69.978 170.647 70.11 169.957 70.11ZM178.873 75.148C178.609 75.148 178.396 75.0673 178.235 74.906C178.088 74.7593 178.015 74.554 178.015 74.29V63.906C178.03 62.762 178.301 61.7353 178.829 60.826C179.372 59.902 180.098 59.176 181.007 58.648C181.931 58.12 182.965 57.856 184.109 57.856C185.282 57.856 186.331 58.1273 187.255 58.67C188.179 59.198 188.905 59.924 189.433 60.848C189.976 61.772 190.247 62.8207 190.247 63.994C190.247 65.1527 189.983 66.194 189.455 67.118C188.942 68.042 188.238 68.7753 187.343 69.318C186.448 69.846 185.436 70.11 184.307 70.11C183.324 70.11 182.43 69.9047 181.623 69.494C180.831 69.0687 180.193 68.5113 179.709 67.822V74.29C179.709 74.554 179.628 74.7593 179.467 74.906C179.32 75.0673 179.122 75.148 178.873 75.148ZM184.109 68.57C184.96 68.57 185.722 68.372 186.397 67.976C187.072 67.58 187.6 67.0373 187.981 66.348C188.377 65.644 188.575 64.8593 188.575 63.994C188.575 63.114 188.377 62.3293 187.981 61.64C187.6 60.9507 187.072 60.408 186.397 60.012C185.722 59.6013 184.96 59.396 184.109 59.396C183.273 59.396 182.518 59.6013 181.843 60.012C181.168 60.408 180.64 60.9507 180.259 61.64C179.878 62.3293 179.687 63.114 179.687 63.994C179.687 64.8593 179.878 65.644 180.259 66.348C180.64 67.0373 181.168 67.58 181.843 67.976C182.518 68.372 183.273 68.57 184.109 68.57ZM199.048 70.11C197.875 70.11 196.826 69.846 195.902 69.318C194.978 68.79 194.252 68.064 193.724 67.14C193.196 66.216 192.932 65.1673 192.932 63.994C192.932 62.806 193.196 61.75 193.724 60.826C194.252 59.902 194.978 59.176 195.902 58.648C196.826 58.12 197.875 57.856 199.048 57.856C200.221 57.856 201.263 58.12 202.172 58.648C203.096 59.176 203.822 59.902 204.35 60.826C204.878 61.75 205.149 62.806 205.164 63.994C205.164 65.1673 204.893 66.216 204.35 67.14C203.822 68.064 203.096 68.79 202.172 69.318C201.263 69.846 200.221 70.11 199.048 70.11ZM199.048 68.57C199.899 68.57 200.661 68.372 201.336 67.976C202.011 67.58 202.539 67.0373 202.92 66.348C203.301 65.6587 203.492 64.874 203.492 63.994C203.492 63.114 203.301 62.3293 202.92 61.64C202.539 60.936 202.011 60.386 201.336 59.99C200.661 59.594 199.899 59.396 199.048 59.396C198.197 59.396 197.435 59.594 196.76 59.99C196.085 60.386 195.55 60.936 195.154 61.64C194.773 62.3293 194.582 63.114 194.582 63.994C194.582 64.874 194.773 65.6587 195.154 66.348C195.55 67.0373 196.085 67.58 196.76 67.976C197.435 68.372 198.197 68.57 199.048 68.57ZM209.317 70C209.053 70 208.84 69.9267 208.679 69.78C208.532 69.6187 208.459 69.406 208.459 69.142V58.824C208.459 58.56 208.532 58.3547 208.679 58.208C208.84 58.0467 209.053 57.966 209.317 57.966C209.698 57.966 210.006 58.142 210.241 58.494L215.103 65.534L219.965 58.494C220.199 58.142 220.507 57.966 220.889 57.966C221.153 57.966 221.358 58.0467 221.505 58.208C221.666 58.3547 221.747 58.56 221.747 58.824V69.142C221.747 69.406 221.666 69.6187 221.505 69.78C221.358 69.9267 221.153 70 220.889 70C220.625 70 220.419 69.9267 220.273 69.78C220.126 69.6187 220.053 69.406 220.053 69.142V59.924L220.603 60.1L215.895 66.898C215.66 67.2353 215.389 67.404 215.081 67.404C214.773 67.404 214.509 67.2353 214.289 66.898L209.581 60.166L210.153 59.99V69.142C210.153 69.406 210.079 69.6187 209.933 69.78C209.786 69.9267 209.581 70 209.317 70ZM237.458 70.11C236.299 70.11 235.272 69.8533 234.378 69.34C233.483 68.812 232.779 68.086 232.266 67.162C231.767 66.238 231.518 65.182 231.518 63.994C231.518 62.7913 231.782 61.728 232.31 60.804C232.838 59.88 233.564 59.1613 234.488 58.648C235.412 58.12 236.46 57.856 237.634 57.856C238.822 57.856 239.87 58.12 240.78 58.648C241.704 59.1613 242.422 59.88 242.936 60.804C243.464 61.728 243.735 62.7913 243.75 63.994L242.76 64.522C242.76 65.6073 242.532 66.5753 242.078 67.426C241.623 68.262 240.992 68.922 240.186 69.406C239.394 69.8753 238.484 70.11 237.458 70.11ZM237.678 74.752C236.519 74.752 235.5 74.532 234.62 74.092C233.74 73.6667 233.014 73.08 232.442 72.332C232.28 72.156 232.207 71.9653 232.222 71.76C232.251 71.5547 232.361 71.386 232.552 71.254C232.742 71.122 232.955 71.078 233.19 71.122C233.424 71.166 233.608 71.276 233.74 71.452C234.165 71.98 234.708 72.4053 235.368 72.728C236.042 73.0507 236.82 73.212 237.7 73.212C238.521 73.212 239.262 73.014 239.922 72.618C240.582 72.222 241.102 71.6647 241.484 70.946C241.88 70.2273 242.078 69.384 242.078 68.416V65.072L242.716 63.796L243.75 63.994V68.482C243.75 69.67 243.486 70.7333 242.958 71.672C242.43 72.6253 241.711 73.3733 240.802 73.916C239.892 74.4733 238.851 74.752 237.678 74.752ZM237.634 68.57C238.499 68.57 239.262 68.3793 239.922 67.998C240.596 67.602 241.124 67.0593 241.506 66.37C241.887 65.6807 242.078 64.8887 242.078 63.994C242.078 63.0993 241.887 62.3073 241.506 61.618C241.124 60.914 240.596 60.3713 239.922 59.99C239.262 59.594 238.499 59.396 237.634 59.396C236.768 59.396 235.998 59.594 235.324 59.99C234.649 60.3713 234.121 60.914 233.74 61.618C233.358 62.3073 233.168 63.0993 233.168 63.994C233.168 64.8887 233.358 65.6807 233.74 66.37C234.121 67.0593 234.649 67.602 235.324 67.998C235.998 68.3793 236.768 68.57 237.634 68.57ZM252.522 70.11C251.349 70.11 250.3 69.846 249.376 69.318C248.452 68.79 247.726 68.064 247.198 67.14C246.67 66.216 246.406 65.1673 246.406 63.994C246.406 62.806 246.67 61.75 247.198 60.826C247.726 59.902 248.452 59.176 249.376 58.648C250.3 58.12 251.349 57.856 252.522 57.856C253.696 57.856 254.737 58.12 255.646 58.648C256.57 59.176 257.296 59.902 257.824 60.826C258.352 61.75 258.624 62.806 258.638 63.994C258.638 65.1673 258.367 66.216 257.824 67.14C257.296 68.064 256.57 68.79 255.646 69.318C254.737 69.846 253.696 70.11 252.522 70.11ZM252.522 68.57C253.373 68.57 254.136 68.372 254.81 67.976C255.485 67.58 256.013 67.0373 256.394 66.348C256.776 65.6587 256.966 64.874 256.966 63.994C256.966 63.114 256.776 62.3293 256.394 61.64C256.013 60.936 255.485 60.386 254.81 59.99C254.136 59.594 253.373 59.396 252.522 59.396C251.672 59.396 250.909 59.594 250.234 59.99C249.56 60.386 249.024 60.936 248.628 61.64C248.247 62.3293 248.056 63.114 248.056 63.994C248.056 64.874 248.247 65.6587 248.628 66.348C249.024 67.0373 249.56 67.58 250.234 67.976C250.909 68.372 251.672 68.57 252.522 68.57ZM273.68 70.11C272.522 70.11 271.495 69.8533 270.6 69.34C269.706 68.812 269.002 68.086 268.488 67.162C267.99 66.238 267.74 65.182 267.74 63.994C267.74 62.7913 268.004 61.728 268.532 60.804C269.06 59.88 269.786 59.1613 270.71 58.648C271.634 58.12 272.683 57.856 273.856 57.856C275.044 57.856 276.093 58.12 277.002 58.648C277.926 59.1613 278.645 59.88 279.158 60.804C279.686 61.728 279.958 62.7913 279.972 63.994L278.982 64.522C278.982 65.6073 278.755 66.5753 278.3 67.426C277.846 68.262 277.215 68.922 276.408 69.406C275.616 69.8753 274.707 70.11 273.68 70.11ZM273.9 74.752C272.742 74.752 271.722 74.532 270.842 74.092C269.962 73.6667 269.236 73.08 268.664 72.332C268.503 72.156 268.43 71.9653 268.444 71.76C268.474 71.5547 268.584 71.386 268.774 71.254C268.965 71.122 269.178 71.078 269.412 71.122C269.647 71.166 269.83 71.276 269.962 71.452C270.388 71.98 270.93 72.4053 271.59 72.728C272.265 73.0507 273.042 73.212 273.922 73.212C274.744 73.212 275.484 73.014 276.144 72.618C276.804 72.222 277.325 71.6647 277.706 70.946C278.102 70.2273 278.3 69.384 278.3 68.416V65.072L278.938 63.796L279.972 63.994V68.482C279.972 69.67 279.708 70.7333 279.18 71.672C278.652 72.6253 277.934 73.3733 277.024 73.916C276.115 74.4733 275.074 74.752 273.9 74.752ZM273.856 68.57C274.722 68.57 275.484 68.3793 276.144 67.998C276.819 67.602 277.347 67.0593 277.728 66.37C278.11 65.6807 278.3 64.8887 278.3 63.994C278.3 63.0993 278.11 62.3073 277.728 61.618C277.347 60.914 276.819 60.3713 276.144 59.99C275.484 59.594 274.722 59.396 273.856 59.396C272.991 59.396 272.221 59.594 271.546 59.99C270.872 60.3713 270.344 60.914 269.962 61.618C269.581 62.3073 269.39 63.0993 269.39 63.994C269.39 64.8887 269.581 65.6807 269.962 66.37C270.344 67.0593 270.872 67.602 271.546 67.998C272.221 68.3793 272.991 68.57 273.856 68.57ZM284.125 70C283.861 70 283.648 69.9267 283.487 69.78C283.34 69.6187 283.267 69.406 283.267 69.142V58.802C283.282 58.5527 283.362 58.3547 283.509 58.208C283.67 58.0467 283.876 57.966 284.125 57.966C284.374 57.966 284.572 58.0467 284.719 58.208C284.88 58.3547 284.961 58.56 284.961 58.824V63.004H289.603V63.312C290.366 63.312 291.04 63.4513 291.627 63.73C292.228 64.0087 292.69 64.3973 293.013 64.896C293.35 65.38 293.519 65.9373 293.519 66.568C293.519 67.2427 293.35 67.8367 293.013 68.35C292.69 68.8633 292.228 69.2667 291.627 69.56C291.04 69.8533 290.366 70 289.603 70H284.125ZM284.961 68.438H289.603C290.263 68.438 290.806 68.2693 291.231 67.932C291.656 67.5947 291.869 67.1107 291.869 66.48C291.869 65.82 291.656 65.3213 291.231 64.984C290.806 64.632 290.263 64.456 289.603 64.456H284.961V68.438ZM287.425 63.95V63.004H289.603C290.116 63.004 290.534 62.8353 290.857 62.498C291.18 62.1607 291.341 61.728 291.341 61.2C291.341 60.7307 291.165 60.3347 290.813 60.012C290.476 59.6747 290.043 59.506 289.515 59.506H284.147V57.966H289.515C290.19 57.966 290.784 58.1053 291.297 58.384C291.825 58.648 292.236 59.0147 292.529 59.484C292.837 59.9533 292.991 60.496 292.991 61.112C292.991 62.0653 292.668 62.7767 292.023 63.246C291.392 63.7153 290.586 63.95 289.603 63.95H287.425ZM301.85 70.11C300.662 70.11 299.606 69.8533 298.682 69.34C297.773 68.812 297.054 68.086 296.526 67.162C296.013 66.238 295.756 65.182 295.756 63.994C295.756 62.7913 295.998 61.7353 296.482 60.826C296.981 59.902 297.663 59.176 298.528 58.648C299.393 58.12 300.391 57.856 301.52 57.856C302.635 57.856 303.603 58.1127 304.424 58.626C305.26 59.1247 305.905 59.8213 306.36 60.716C306.815 61.6107 307.042 62.63 307.042 63.774C307.042 64.0087 306.969 64.1993 306.822 64.346C306.675 64.478 306.485 64.544 306.25 64.544H296.9V63.136H306.426L305.48 63.818C305.495 62.9673 305.341 62.2047 305.018 61.53C304.695 60.8553 304.233 60.3273 303.632 59.946C303.045 59.5647 302.341 59.374 301.52 59.374C300.684 59.374 299.951 59.572 299.32 59.968C298.689 60.364 298.198 60.914 297.846 61.618C297.509 62.3073 297.34 63.0993 297.34 63.994C297.34 64.8887 297.531 65.6807 297.912 66.37C298.308 67.0593 298.843 67.602 299.518 67.998C300.193 68.394 300.97 68.592 301.85 68.592C302.378 68.592 302.906 68.504 303.434 68.328C303.977 68.1373 304.409 67.9027 304.732 67.624C304.893 67.492 305.077 67.426 305.282 67.426C305.487 67.4113 305.663 67.4627 305.81 67.58C306.001 67.756 306.096 67.9467 306.096 68.152C306.111 68.3573 306.03 68.5333 305.854 68.68C305.37 69.0907 304.754 69.4353 304.006 69.714C303.258 69.978 302.539 70.11 301.85 70.11ZM310.766 75.148C310.502 75.148 310.289 75.0673 310.128 74.906C309.981 74.7593 309.908 74.554 309.908 74.29V63.906C309.922 62.762 310.194 61.7353 310.722 60.826C311.264 59.902 311.99 59.176 312.9 58.648C313.824 58.12 314.858 57.856 316.002 57.856C317.175 57.856 318.224 58.1273 319.148 58.67C320.072 59.198 320.798 59.924 321.326 60.848C321.868 61.772 322.14 62.8207 322.14 63.994C322.14 65.1527 321.876 66.194 321.348 67.118C320.834 68.042 320.13 68.7753 319.236 69.318C318.341 69.846 317.329 70.11 316.2 70.11C315.217 70.11 314.322 69.9047 313.516 69.494C312.724 69.0687 312.086 68.5113 311.602 67.822V74.29C311.602 74.554 311.521 74.7593 311.36 74.906C311.213 75.0673 311.015 75.148 310.766 75.148ZM316.002 68.57C316.852 68.57 317.615 68.372 318.29 67.976C318.964 67.58 319.492 67.0373 319.874 66.348C320.27 65.644 320.468 64.8593 320.468 63.994C320.468 63.114 320.27 62.3293 319.874 61.64C319.492 60.9507 318.964 60.408 318.29 60.012C317.615 59.6013 316.852 59.396 316.002 59.396C315.166 59.396 314.41 59.6013 313.736 60.012C313.061 60.408 312.533 60.9507 312.152 61.64C311.77 62.3293 311.58 63.114 311.58 63.994C311.58 64.8593 311.77 65.644 312.152 66.348C312.533 67.0373 313.061 67.58 313.736 67.976C314.41 68.372 315.166 68.57 316.002 68.57ZM330.698 70.132C329.657 70.132 328.726 69.9193 327.904 69.494C327.083 69.054 326.43 68.416 325.946 67.58C325.477 66.744 325.242 65.7247 325.242 64.522V58.802C325.242 58.5673 325.323 58.3693 325.484 58.208C325.646 58.0467 325.844 57.966 326.078 57.966C326.328 57.966 326.533 58.0467 326.694 58.208C326.856 58.3693 326.936 58.5673 326.936 58.802V64.522C326.936 65.4313 327.105 66.1793 327.442 66.766C327.794 67.3527 328.264 67.7927 328.85 68.086C329.452 68.3793 330.126 68.526 330.874 68.526C331.593 68.526 332.238 68.3867 332.81 68.108C333.397 67.8293 333.859 67.448 334.196 66.964C334.534 66.48 334.702 65.93 334.702 65.314H335.912C335.868 66.238 335.612 67.0667 335.142 67.8C334.688 68.5187 334.072 69.0907 333.294 69.516C332.517 69.9267 331.652 70.132 330.698 70.132ZM335.538 70C335.289 70 335.084 69.9267 334.922 69.78C334.776 69.6187 334.702 69.406 334.702 69.142V58.802C334.702 58.5527 334.776 58.3547 334.922 58.208C335.084 58.0467 335.289 57.966 335.538 57.966C335.788 57.966 335.993 58.0467 336.154 58.208C336.316 58.3547 336.396 58.5527 336.396 58.802V69.142C336.396 69.406 336.316 69.6187 336.154 69.78C335.993 69.9267 335.788 70 335.538 70Z" fill="black"/>
<path d="M62.5 147C68.023 147 72.5 142.523 72.5 137C72.5 131.477 68.023 127 62.5 127C56.977 127 52.5 131.477 52.5 137C52.5 142.523 56.977 147 62.5 147Z" stroke="black" stroke-width="1.5" stroke-linecap="round" stroke-linejoin="round"/>
<path d="M65.5 133.5C64.815 132.815 63.609 132.339 62.5 132.309M62.5 132.309C61.18 132.273 60 132.87 60 134.5C60 137.5 65.5 136 65.5 139C65.5 140.711 64.036 141.446 62.5 141.391M62.5 132.309V130.5M59.5 140C60.144 140.86 61.343 141.35 62.5 141.391M62.5 141.391V143.5" stroke="black" stroke-width="1.5" stroke-linecap="round" stroke-linejoin="round"/>
<path d="M97.632 142V129.94L98.208 130.552H94.662V129.4H98.928V142H97.632ZM106.962 142.108C105.99 142.108 105.126 141.856 104.37 141.352C103.614 140.836 103.02 140.104 102.588 139.156C102.156 138.196 101.94 137.044 101.94 135.7C101.94 134.356 102.156 133.21 102.588 132.262C103.02 131.302 103.614 130.57 104.37 130.066C105.126 129.55 105.99 129.292 106.962 129.292C107.934 129.292 108.798 129.55 109.554 130.066C110.31 130.57 110.904 131.302 111.336 132.262C111.78 133.21 112.002 134.356 112.002 135.7C112.002 137.044 111.78 138.196 111.336 139.156C110.904 140.104 110.31 140.836 109.554 141.352C108.798 141.856 107.934 142.108 106.962 142.108ZM106.962 140.92C107.706 140.92 108.354 140.722 108.906 140.326C109.458 139.918 109.89 139.33 110.202 138.562C110.514 137.782 110.67 136.828 110.67 135.7C110.67 134.572 110.514 133.624 110.202 132.856C109.89 132.076 109.458 131.488 108.906 131.092C108.354 130.684 107.706 130.48 106.962 130.48C106.242 130.48 105.6 130.684 105.036 131.092C104.472 131.488 104.034 132.076 103.722 132.856C103.41 133.624 103.254 134.572 103.254 135.7C103.254 136.828 103.41 137.782 103.722 138.562C104.034 139.33 104.472 139.918 105.036 140.326C105.6 140.722 106.242 140.92 106.962 140.92ZM118.88 142.108C117.908 142.108 117.044 141.856 116.288 141.352C115.532 140.836 114.938 140.104 114.506 139.156C114.074 138.196 113.858 137.044 113.858 135.7C113.858 134.356 114.074 133.21 114.506 132.262C114.938 131.302 115.532 130.57 116.288 130.066C117.044 129.55 117.908 129.292 118.88 129.292C119.852 129.292 120.716 129.55 121.472 130.066C122.228 130.57 122.822 131.302 123.254 132.262C123.698 133.21 123.92 134.356 123.92 135.7C123.92 137.044 123.698 138.196 123.254 139.156C122.822 140.104 122.228 140.836 121.472 141.352C120.716 141.856 119.852 142.108 118.88 142.108ZM118.88 140.92C119.624 140.92 120.272 140.722 120.824 140.326C121.376 139.918 121.808 139.33 122.12 138.562C122.432 137.782 122.588 136.828 122.588 135.7C122.588 134.572 122.432 133.624 122.12 132.856C121.808 132.076 121.376 131.488 120.824 131.092C120.272 130.684 119.624 130.48 118.88 130.48C118.16 130.48 117.518 130.684 116.954 131.092C116.39 131.488 115.952 132.076 115.64 132.856C115.328 133.624 115.172 134.572 115.172 135.7C115.172 136.828 115.328 137.782 115.64 138.562C115.952 139.33 116.39 139.918 116.954 140.326C117.518 140.722 118.16 140.92 118.88 140.92ZM136.247 142.09C135.431 142.09 134.693 141.904 134.033 141.532C133.373 141.148 132.845 140.602 132.449 139.894C132.065 139.174 131.873 138.298 131.873 137.266C131.873 136.234 132.065 135.364 132.449 134.656C132.833 133.936 133.355 133.39 134.015 133.018C134.675 132.646 135.419 132.46 136.247 132.46C137.147 132.46 137.951 132.664 138.659 133.072C139.379 133.468 139.943 134.032 140.351 134.764C140.759 135.484 140.963 136.318 140.963 137.266C140.963 138.226 140.759 139.066 140.351 139.786C139.943 140.506 139.379 141.07 138.659 141.478C137.951 141.886 137.147 142.09 136.247 142.09ZM131.369 145.492V132.55H132.593V135.394L132.467 137.284L132.647 139.192V145.492H131.369ZM136.157 140.956C136.829 140.956 137.429 140.806 137.957 140.506C138.485 140.194 138.905 139.762 139.217 139.21C139.529 138.646 139.685 137.998 139.685 137.266C139.685 136.534 139.529 135.892 139.217 135.34C138.905 134.788 138.485 134.356 137.957 134.044C137.429 133.732 136.829 133.576 136.157 133.576C135.485 133.576 134.879 133.732 134.339 134.044C133.811 134.356 133.391 134.788 133.079 135.34C132.779 135.892 132.629 136.534 132.629 137.266C132.629 137.998 132.779 138.646 133.079 139.21C133.391 139.762 133.811 140.194 134.339 140.506C134.879 140.806 135.485 140.956 136.157 140.956ZM143.535 142.09C143.271 142.09 143.043 141.994 142.851 141.802C142.671 141.61 142.581 141.376 142.581 141.1C142.581 140.812 142.671 140.578 142.851 140.398C143.043 140.218 143.271 140.128 143.535 140.128C143.799 140.128 144.021 140.218 144.201 140.398C144.393 140.578 144.489 140.812 144.489 141.1C144.489 141.376 144.393 141.61 144.201 141.802C144.021 141.994 143.799 142.09 143.535 142.09Z" fill="black"/>
<path d="M96.624 174V161.4H105.84V162.534H97.938V166.656H102.06C103.548 166.656 104.676 166.962 105.444 167.574C106.224 168.174 106.614 169.062 106.614 170.238C106.614 171.45 106.194 172.38 105.354 173.028C104.526 173.676 103.332 174 101.772 174H96.624ZM97.938 172.938H101.754C102.918 172.938 103.794 172.716 104.382 172.272C104.982 171.816 105.282 171.156 105.282 170.292C105.282 168.576 104.106 167.718 101.754 167.718H97.938V172.938ZM113.429 174.09C112.445 174.09 111.581 173.886 110.837 173.478C110.093 173.058 109.511 172.488 109.091 171.768C108.671 171.036 108.461 170.202 108.461 169.266C108.461 168.33 108.659 167.502 109.055 166.782C109.463 166.062 110.015 165.498 110.711 165.09C111.419 164.67 112.211 164.46 113.087 164.46C113.975 164.46 114.761 164.664 115.445 165.072C116.141 165.468 116.687 166.032 117.083 166.764C117.479 167.484 117.677 168.318 117.677 169.266C117.677 169.326 117.671 169.392 117.659 169.464C117.659 169.524 117.659 169.59 117.659 169.662H109.433V168.708H116.975L116.471 169.086C116.471 168.402 116.321 167.796 116.021 167.268C115.733 166.728 115.337 166.308 114.833 166.008C114.329 165.708 113.747 165.558 113.087 165.558C112.439 165.558 111.857 165.708 111.341 166.008C110.825 166.308 110.423 166.728 110.135 167.268C109.847 167.808 109.703 168.426 109.703 169.122V169.32C109.703 170.04 109.859 170.676 110.171 171.228C110.495 171.768 110.939 172.194 111.503 172.506C112.079 172.806 112.733 172.956 113.465 172.956C114.041 172.956 114.575 172.854 115.067 172.65C115.571 172.446 116.003 172.134 116.363 171.714L117.083 172.542C116.663 173.046 116.135 173.43 115.499 173.694C114.875 173.958 114.185 174.09 113.429 174.09ZM124.466 174.09C123.53 174.09 122.69 173.886 121.946 173.478C121.214 173.058 120.638 172.488 120.218 171.768C119.798 171.036 119.588 170.202 119.588 169.266C119.588 168.318 119.798 167.484 120.218 166.764C120.638 166.044 121.214 165.48 121.946 165.072C122.69 164.664 123.53 164.46 124.466 164.46C125.27 164.46 125.996 164.616 126.644 164.928C127.292 165.24 127.802 165.708 128.174 166.332L127.22 166.98C126.896 166.5 126.494 166.146 126.014 165.918C125.534 165.69 125.012 165.576 124.448 165.576C123.776 165.576 123.17 165.732 122.63 166.044C122.09 166.344 121.664 166.77 121.352 167.322C121.04 167.874 120.884 168.522 120.884 169.266C120.884 170.01 121.04 170.658 121.352 171.21C121.664 171.762 122.09 172.194 122.63 172.506C123.17 172.806 123.776 172.956 124.448 172.956C125.012 172.956 125.534 172.842 126.014 172.614C126.494 172.386 126.896 172.038 127.22 171.57L128.174 172.218C127.802 172.83 127.292 173.298 126.644 173.622C125.996 173.934 125.27 174.09 124.466 174.09ZM130.648 174V164.55H139.144V174H137.866V165.324L138.19 165.666H131.602L131.926 165.324V174H130.648ZM141.049 173.982L141.139 172.884C141.223 172.896 141.301 172.914 141.373 172.938C141.457 172.95 141.529 172.956 141.589 172.956C141.973 172.956 142.279 172.812 142.507 172.524C142.747 172.236 142.927 171.852 143.047 171.372C143.167 170.892 143.251 170.352 143.299 169.752C143.347 169.14 143.389 168.528 143.425 167.916L143.587 164.55H150.517V174H149.239V165.288L149.563 165.666H144.415L144.721 165.27L144.577 168.006C144.541 168.822 144.475 169.602 144.379 170.346C144.295 171.09 144.157 171.744 143.965 172.308C143.785 172.872 143.533 173.316 143.209 173.64C142.885 173.952 142.471 174.108 141.967 174.108C141.823 174.108 141.673 174.096 141.517 174.072C141.373 174.048 141.217 174.018 141.049 173.982ZM160.018 174V171.912L159.964 171.57V168.078C159.964 167.274 159.736 166.656 159.28 166.224C158.836 165.792 158.17 165.576 157.282 165.576C156.67 165.576 156.088 165.678 155.536 165.882C154.984 166.086 154.516 166.356 154.132 166.692L153.556 165.738C154.036 165.33 154.612 165.018 155.284 164.802C155.956 164.574 156.664 164.46 157.408 164.46C158.632 164.46 159.574 164.766 160.234 165.378C160.906 165.978 161.242 166.896 161.242 168.132V174H160.018ZM156.76 174.09C156.052 174.09 155.434 173.976 154.906 173.748C154.39 173.508 153.994 173.184 153.718 172.776C153.442 172.356 153.304 171.876 153.304 171.336C153.304 170.844 153.418 170.4 153.646 170.004C153.886 169.596 154.27 169.272 154.798 169.032C155.338 168.78 156.058 168.654 156.958 168.654H160.216V169.608H156.994C156.082 169.608 155.446 169.77 155.086 170.094C154.738 170.418 154.564 170.82 154.564 171.3C154.564 171.84 154.774 172.272 155.194 172.596C155.614 172.92 156.202 173.082 156.958 173.082C157.678 173.082 158.296 172.92 158.812 172.596C159.34 172.26 159.724 171.78 159.964 171.156L160.252 172.038C160.012 172.662 159.592 173.16 158.992 173.532C158.404 173.904 157.66 174.09 156.76 174.09ZM166.444 174V165.324L166.768 165.666H162.862V164.55H171.304V165.666H167.398L167.722 165.324V174H166.444ZM173.152 174V164.55H174.43V168.726H180.388V164.55H181.666V174H180.388V169.824H174.43V174H173.152ZM189.186 174.09C188.274 174.09 187.452 173.886 186.72 173.478C186 173.058 185.43 172.488 185.01 171.768C184.59 171.036 184.38 170.202 184.38 169.266C184.38 168.318 184.59 167.484 185.01 166.764C185.43 166.044 186 165.48 186.72 165.072C187.44 164.664 188.262 164.46 189.186 164.46C190.122 164.46 190.95 164.664 191.67 165.072C192.402 165.48 192.972 166.044 193.38 166.764C193.8 167.484 194.01 168.318 194.01 169.266C194.01 170.202 193.8 171.036 193.38 171.768C192.972 172.488 192.402 173.058 191.67 173.478C190.938 173.886 190.11 174.09 189.186 174.09ZM189.186 172.956C189.87 172.956 190.476 172.806 191.004 172.506C191.532 172.194 191.946 171.762 192.246 171.21C192.558 170.646 192.714 169.998 192.714 169.266C192.714 168.522 192.558 167.874 192.246 167.322C191.946 166.77 191.532 166.344 191.004 166.044C190.476 165.732 189.876 165.576 189.204 165.576C188.532 165.576 187.932 165.732 187.404 166.044C186.876 166.344 186.456 166.77 186.144 167.322C185.832 167.874 185.676 168.522 185.676 169.266C185.676 169.998 185.832 170.646 186.144 171.21C186.456 171.762 186.876 172.194 187.404 172.506C187.932 172.806 188.526 172.956 189.186 172.956ZM201.453 174V164.55H209.949V174H208.671V165.324L208.995 165.666H202.407L202.731 165.324V174H201.453ZM218.46 174.09C217.644 174.09 216.906 173.904 216.246 173.532C215.586 173.148 215.058 172.602 214.662 171.894C214.278 171.174 214.086 170.298 214.086 169.266C214.086 168.234 214.278 167.364 214.662 166.656C215.046 165.936 215.568 165.39 216.228 165.018C216.888 164.646 217.632 164.46 218.46 164.46C219.36 164.46 220.164 164.664 220.872 165.072C221.592 165.468 222.156 166.032 222.564 166.764C222.972 167.484 223.176 168.318 223.176 169.266C223.176 170.226 222.972 171.066 222.564 171.786C222.156 172.506 221.592 173.07 220.872 173.478C220.164 173.886 219.36 174.09 218.46 174.09ZM213.582 177.492V164.55H214.806V167.394L214.68 169.284L214.86 171.192V177.492H213.582ZM218.37 172.956C219.042 172.956 219.642 172.806 220.17 172.506C220.698 172.194 221.118 171.762 221.43 171.21C221.742 170.646 221.898 169.998 221.898 169.266C221.898 168.534 221.742 167.892 221.43 167.34C221.118 166.788 220.698 166.356 220.17 166.044C219.642 165.732 219.042 165.576 218.37 165.576C217.698 165.576 217.092 165.732 216.552 166.044C216.024 166.356 215.604 166.788 215.292 167.34C214.992 167.892 214.842 168.534 214.842 169.266C214.842 169.998 214.992 170.646 215.292 171.21C215.604 171.762 216.024 172.194 216.552 172.506C217.092 172.806 217.698 172.956 218.37 172.956ZM225.922 174V164.55H227.2V172.056L233.518 164.55H234.652V174H233.374V166.476L227.074 174H225.922ZM245.563 174.108C244.879 174.108 244.201 174.012 243.529 173.82C242.857 173.628 242.263 173.334 241.747 172.938L242.161 171.984C242.617 172.32 243.145 172.578 243.745 172.758C244.345 172.926 244.939 173.01 245.527 173.01C246.115 172.998 246.625 172.914 247.057 172.758C247.489 172.602 247.825 172.386 248.065 172.11C248.305 171.834 248.425 171.522 248.425 171.174C248.425 170.67 248.197 170.28 247.741 170.004C247.285 169.716 246.661 169.572 245.869 169.572H244.249V168.636H245.779C246.247 168.636 246.661 168.576 247.021 168.456C247.381 168.336 247.657 168.162 247.849 167.934C248.053 167.706 248.155 167.436 248.155 167.124C248.155 166.788 248.035 166.5 247.795 166.26C247.567 166.02 247.249 165.84 246.841 165.72C246.433 165.6 245.971 165.54 245.455 165.54C244.987 165.552 244.501 165.624 243.997 165.756C243.493 165.876 242.995 166.062 242.503 166.314L242.143 165.324C242.695 165.036 243.241 164.82 243.781 164.676C244.333 164.52 244.885 164.442 245.437 164.442C246.193 164.418 246.871 164.508 247.471 164.712C248.083 164.916 248.569 165.21 248.929 165.594C249.289 165.966 249.469 166.416 249.469 166.944C249.469 167.412 249.325 167.82 249.037 168.168C248.749 168.516 248.365 168.786 247.885 168.978C247.405 169.17 246.859 169.266 246.247 169.266L246.301 168.924C247.381 168.924 248.221 169.134 248.821 169.554C249.433 169.974 249.739 170.544 249.739 171.264C249.739 171.828 249.553 172.326 249.181 172.758C248.809 173.178 248.305 173.508 247.669 173.748C247.045 173.988 246.343 174.108 245.563 174.108ZM258.508 174V171.912L258.454 171.57V168.078C258.454 167.274 258.226 166.656 257.77 166.224C257.326 165.792 256.66 165.576 255.772 165.576C255.16 165.576 254.578 165.678 254.026 165.882C253.474 166.086 253.006 166.356 252.622 166.692L252.046 165.738C252.526 165.33 253.102 165.018 253.774 164.802C254.446 164.574 255.154 164.46 255.898 164.46C257.122 164.46 258.064 164.766 258.724 165.378C259.396 165.978 259.732 166.896 259.732 168.132V174H258.508ZM255.25 174.09C254.542 174.09 253.924 173.976 253.396 173.748C252.88 173.508 252.484 173.184 252.208 172.776C251.932 172.356 251.794 171.876 251.794 171.336C251.794 170.844 251.908 170.4 252.136 170.004C252.376 169.596 252.76 169.272 253.288 169.032C253.828 168.78 254.548 168.654 255.448 168.654H258.706V169.608H255.484C254.572 169.608 253.936 169.77 253.576 170.094C253.228 170.418 253.054 170.82 253.054 171.3C253.054 171.84 253.264 172.272 253.684 172.596C254.104 172.92 254.692 173.082 255.448 173.082C256.168 173.082 256.786 172.92 257.302 172.596C257.83 172.26 258.214 171.78 258.454 171.156L258.742 172.038C258.502 172.662 258.082 173.16 257.482 173.532C256.894 173.904 256.15 174.09 255.25 174.09ZM270.064 174L266.176 169.32L267.238 168.69L271.576 174H270.064ZM263.134 174V164.55H264.412V174H263.134ZM264.016 169.788V168.69H267.058V169.788H264.016ZM267.346 169.41L266.158 169.23L269.92 164.55H271.306L267.346 169.41ZM279.286 174V171.912L279.232 171.57V168.078C279.232 167.274 279.004 166.656 278.548 166.224C278.104 165.792 277.438 165.576 276.55 165.576C275.938 165.576 275.356 165.678 274.804 165.882C274.252 166.086 273.784 166.356 273.4 166.692L272.824 165.738C273.304 165.33 273.88 165.018 274.552 164.802C275.224 164.574 275.932 164.46 276.676 164.46C277.9 164.46 278.842 164.766 279.502 165.378C280.174 165.978 280.51 166.896 280.51 168.132V174H279.286ZM276.028 174.09C275.32 174.09 274.702 173.976 274.174 173.748C273.658 173.508 273.262 173.184 272.986 172.776C272.71 172.356 272.572 171.876 272.572 171.336C272.572 170.844 272.686 170.4 272.914 170.004C273.154 169.596 273.538 169.272 274.066 169.032C274.606 168.78 275.326 168.654 276.226 168.654H279.484V169.608H276.262C275.35 169.608 274.714 169.77 274.354 170.094C274.006 170.418 273.832 170.82 273.832 171.3C273.832 171.84 274.042 172.272 274.462 172.596C274.882 172.92 275.47 173.082 276.226 173.082C276.946 173.082 277.564 172.92 278.08 172.596C278.608 172.26 278.992 171.78 279.232 171.156L279.52 172.038C279.28 172.662 278.86 173.16 278.26 173.532C277.672 173.904 276.928 174.09 276.028 174.09ZM286.256 174.108C285.572 174.108 284.894 174.012 284.222 173.82C283.55 173.628 282.956 173.334 282.44 172.938L282.854 171.984C283.31 172.32 283.838 172.578 284.438 172.758C285.038 172.926 285.632 173.01 286.22 173.01C286.808 172.998 287.318 172.914 287.75 172.758C288.182 172.602 288.518 172.386 288.758 172.11C288.998 171.834 289.118 171.522 289.118 171.174C289.118 170.67 288.89 170.28 288.434 170.004C287.978 169.716 287.354 169.572 286.562 169.572H284.942V168.636H286.472C286.94 168.636 287.354 168.576 287.714 168.456C288.074 168.336 288.35 168.162 288.542 167.934C288.746 167.706 288.848 167.436 288.848 167.124C288.848 166.788 288.728 166.5 288.488 166.26C288.26 166.02 287.942 165.84 287.534 165.72C287.126 165.6 286.664 165.54 286.148 165.54C285.68 165.552 285.194 165.624 284.69 165.756C284.186 165.876 283.688 166.062 283.196 166.314L282.836 165.324C283.388 165.036 283.934 164.82 284.474 164.676C285.026 164.52 285.578 164.442 286.13 164.442C286.886 164.418 287.564 164.508 288.164 164.712C288.776 164.916 289.262 165.21 289.622 165.594C289.982 165.966 290.162 166.416 290.162 166.944C290.162 167.412 290.018 167.82 289.73 168.168C289.442 168.516 289.058 168.786 288.578 168.978C288.098 169.17 287.552 169.266 286.94 169.266L286.994 168.924C288.074 168.924 288.914 169.134 289.514 169.554C290.126 169.974 290.432 170.544 290.432 171.264C290.432 171.828 290.246 172.326 289.874 172.758C289.502 173.178 288.998 173.508 288.362 173.748C287.738 173.988 287.036 174.108 286.256 174.108ZM297.384 174.09C296.4 174.09 295.536 173.886 294.792 173.478C294.048 173.058 293.466 172.488 293.046 171.768C292.626 171.036 292.416 170.202 292.416 169.266C292.416 168.33 292.614 167.502 293.01 166.782C293.418 166.062 293.97 165.498 294.666 165.09C295.374 164.67 296.166 164.46 297.042 164.46C297.93 164.46 298.716 164.664 299.4 165.072C300.096 165.468 300.642 166.032 301.038 166.764C301.434 167.484 301.632 168.318 301.632 169.266C301.632 169.326 301.626 169.392 301.614 169.464C301.614 169.524 301.614 169.59 301.614 169.662H293.388V168.708H300.93L300.426 169.086C300.426 168.402 300.276 167.796 299.976 167.268C299.688 166.728 299.292 166.308 298.788 166.008C298.284 165.708 297.702 165.558 297.042 165.558C296.394 165.558 295.812 165.708 295.296 166.008C294.78 166.308 294.378 166.728 294.09 167.268C293.802 167.808 293.658 168.426 293.658 169.122V169.32C293.658 170.04 293.814 170.676 294.126 171.228C294.45 171.768 294.894 172.194 295.458 172.506C296.034 172.806 296.688 172.956 297.42 172.956C297.996 172.956 298.53 172.854 299.022 172.65C299.526 172.446 299.958 172.134 300.318 171.714L301.038 172.542C300.618 173.046 300.09 173.43 299.454 173.694C298.83 173.958 298.14 174.09 297.384 174.09ZM313.06 174.09C312.148 174.09 311.326 173.886 310.594 173.478C309.874 173.058 309.304 172.488 308.884 171.768C308.464 171.036 308.254 170.202 308.254 169.266C308.254 168.318 308.464 167.484 308.884 166.764C309.304 166.044 309.874 165.48 310.594 165.072C311.314 164.664 312.136 164.46 313.06 164.46C313.996 164.46 314.824 164.664 315.544 165.072C316.276 165.48 316.846 166.044 317.254 166.764C317.674 167.484 317.884 168.318 317.884 169.266C317.884 170.202 317.674 171.036 317.254 171.768C316.846 172.488 316.276 173.058 315.544 173.478C314.812 173.886 313.984 174.09 313.06 174.09ZM313.06 172.956C313.744 172.956 314.35 172.806 314.878 172.506C315.406 172.194 315.82 171.762 316.12 171.21C316.432 170.646 316.588 169.998 316.588 169.266C316.588 168.522 316.432 167.874 316.12 167.322C315.82 166.77 315.406 166.344 314.878 166.044C314.35 165.732 313.75 165.576 313.078 165.576C312.406 165.576 311.806 165.732 311.278 166.044C310.75 166.344 310.33 166.77 310.018 167.322C309.706 167.874 309.55 168.522 309.55 169.266C309.55 169.998 309.706 170.646 310.018 171.21C310.33 171.762 310.75 172.194 311.278 172.506C311.806 172.806 312.4 172.956 313.06 172.956ZM322.063 174V165.324L322.387 165.666H318.481V164.55H326.923V165.666H323.017L323.341 165.324V174H322.063ZM334.796 174V161.94L335.372 162.552H331.826V161.4H336.092V174H334.796ZM344.126 174.108C343.154 174.108 342.29 173.856 341.534 173.352C340.778 172.836 340.184 172.104 339.752 171.156C339.32 170.196 339.104 169.044 339.104 167.7C339.104 166.356 339.32 165.21 339.752 164.262C340.184 163.302 340.778 162.57 341.534 162.066C342.29 161.55 343.154 161.292 344.126 161.292C345.098 161.292 345.962 161.55 346.718 162.066C347.474 162.57 348.068 163.302 348.5 164.262C348.944 165.21 349.166 166.356 349.166 167.7C349.166 169.044 348.944 170.196 348.5 171.156C348.068 172.104 347.474 172.836 346.718 173.352C345.962 173.856 345.098 174.108 344.126 174.108ZM344.126 172.92C344.87 172.92 345.518 172.722 346.07 172.326C346.622 171.918 347.054 171.33 347.366 170.562C347.678 169.782 347.834 168.828 347.834 167.7C347.834 166.572 347.678 165.624 347.366 164.856C347.054 164.076 346.622 163.488 346.07 163.092C345.518 162.684 344.87 162.48 344.126 162.48C343.406 162.48 342.764 162.684 342.2 163.092C341.636 163.488 341.198 164.076 340.886 164.856C340.574 165.624 340.418 166.572 340.418 167.7C340.418 168.828 340.574 169.782 340.886 170.562C341.198 171.33 341.636 171.918 342.2 172.326C342.764 172.722 343.406 172.92 344.126 172.92ZM356.044 174.108C355.072 174.108 354.208 173.856 353.452 173.352C352.696 172.836 352.102 172.104 351.67 171.156C351.238 170.196 351.022 169.044 351.022 167.7C351.022 166.356 351.238 165.21 351.67 164.262C352.102 163.302 352.696 162.57 353.452 162.066C354.208 161.55 355.072 161.292 356.044 161.292C357.016 161.292 357.88 161.55 358.636 162.066C359.392 162.57 359.986 163.302 360.418 164.262C360.862 165.21 361.084 166.356 361.084 167.7C361.084 169.044 360.862 170.196 360.418 171.156C359.986 172.104 359.392 172.836 358.636 173.352C357.88 173.856 357.016 174.108 356.044 174.108ZM356.044 172.92C356.788 172.92 357.436 172.722 357.988 172.326C358.54 171.918 358.972 171.33 359.284 170.562C359.596 169.782 359.752 168.828 359.752 167.7C359.752 166.572 359.596 165.624 359.284 164.856C358.972 164.076 358.54 163.488 357.988 163.092C357.436 162.684 356.788 162.48 356.044 162.48C355.324 162.48 354.682 162.684 354.118 163.092C353.554 163.488 353.116 164.076 352.804 164.856C352.492 165.624 352.336 166.572 352.336 167.7C352.336 168.828 352.492 169.782 352.804 170.562C353.116 171.33 353.554 171.918 354.118 172.326C354.682 172.722 355.324 172.92 356.044 172.92ZM367.962 174.108C366.99 174.108 366.126 173.856 365.37 173.352C364.614 172.836 364.02 172.104 363.588 171.156C363.156 170.196 362.94 169.044 362.94 167.7C362.94 166.356 363.156 165.21 363.588 164.262C364.02 163.302 364.614 162.57 365.37 162.066C366.126 161.55 366.99 161.292 367.962 161.292C368.934 161.292 369.798 161.55 370.554 162.066C371.31 162.57 371.904 163.302 372.336 164.262C372.78 165.21 373.002 166.356 373.002 167.7C373.002 169.044 372.78 170.196 372.336 171.156C371.904 172.104 371.31 172.836 370.554 173.352C369.798 173.856 368.934 174.108 367.962 174.108ZM367.962 172.92C368.706 172.92 369.354 172.722 369.906 172.326C370.458 171.918 370.89 171.33 371.202 170.562C371.514 169.782 371.67 168.828 371.67 167.7C371.67 166.572 371.514 165.624 371.202 164.856C370.89 164.076 370.458 163.488 369.906 163.092C369.354 162.684 368.706 162.48 367.962 162.48C367.242 162.48 366.6 162.684 366.036 163.092C365.472 163.488 365.034 164.076 364.722 164.856C364.41 165.624 364.254 166.572 364.254 167.7C364.254 168.828 364.41 169.782 364.722 170.562C365.034 171.33 365.472 171.918 366.036 172.326C366.6 172.722 367.242 172.92 367.962 172.92ZM385.329 174.09C384.513 174.09 383.775 173.904 383.115 173.532C382.455 173.148 381.927 172.602 381.531 171.894C381.147 171.174 380.955 170.298 380.955 169.266C380.955 168.234 381.147 167.364 381.531 166.656C381.915 165.936 382.437 165.39 383.097 165.018C383.757 164.646 384.501 164.46 385.329 164.46C386.229 164.46 387.033 164.664 387.741 165.072C388.461 165.468 389.025 166.032 389.433 166.764C389.841 167.484 390.045 168.318 390.045 169.266C390.045 170.226 389.841 171.066 389.433 171.786C389.025 172.506 388.461 173.07 387.741 173.478C387.033 173.886 386.229 174.09 385.329 174.09ZM380.451 177.492V164.55H381.675V167.394L381.549 169.284L381.729 171.192V177.492H380.451ZM385.239 172.956C385.911 172.956 386.511 172.806 387.039 172.506C387.567 172.194 387.987 171.762 388.299 171.21C388.611 170.646 388.767 169.998 388.767 169.266C388.767 168.534 388.611 167.892 388.299 167.34C387.987 166.788 387.567 166.356 387.039 166.044C386.511 165.732 385.911 165.576 385.239 165.576C384.567 165.576 383.961 165.732 383.421 166.044C382.893 166.356 382.473 166.788 382.161 167.34C381.861 167.892 381.711 168.534 381.711 169.266C381.711 169.998 381.861 170.646 382.161 171.21C382.473 171.762 382.893 172.194 383.421 172.506C383.961 172.806 384.567 172.956 385.239 172.956ZM392.617 174.09C392.353 174.09 392.125 173.994 391.933 173.802C391.753 173.61 391.663 173.376 391.663 173.1C391.663 172.812 391.753 172.578 391.933 172.398C392.125 172.218 392.353 172.128 392.617 172.128C392.881 172.128 393.103 172.218 393.283 172.398C393.475 172.578 393.571 172.812 393.571 173.1C393.571 173.376 393.475 173.61 393.283 173.802C393.103 173.994 392.881 174.09 392.617 174.09Z" fill="black"/>
<path d="M53.3574 216.428H71.6431M55.6431 211.857H69.3574C69.9636 211.857 70.545 212.098 70.9737 212.526C71.4023 212.955 71.6431 213.536 71.6431 214.143V227.857C71.6431 228.463 71.4023 229.045 70.9737 229.473C70.545 229.902 69.9636 230.143 69.3574 230.143H55.6431C55.0369 230.143 54.4555 229.902 54.0269 229.473C53.5982 229.045 53.3574 228.463 53.3574 227.857V214.143C53.3574 213.536 53.5982 212.955 54.0269 212.526C54.4555 212.098 55.0369 211.857 55.6431 211.857Z" stroke="black" stroke-linecap="round" stroke-linejoin="round"/>
<path d="M62.5003 222.143C63.1315 222.143 63.6431 221.631 63.6431 221C63.6431 220.369 63.1315 219.857 62.5003 219.857C61.8691 219.857 61.3574 220.369 61.3574 221C61.3574 221.631 61.8691 222.143 62.5003 222.143Z" fill="black"/>
<path d="M57.928 222.143C58.5592 222.143 59.0709 221.631 59.0709 221C59.0709 220.369 58.5592 219.857 57.928 219.857C57.2968 219.857 56.7852 220.369 56.7852 221C56.7852 221.631 57.2968 222.143 57.928 222.143Z" fill="black"/>
<path d="M57.928 226.714C58.5592 226.714 59.0709 226.202 59.0709 225.571C59.0709 224.94 58.5592 224.428 57.928 224.428C57.2968 224.428 56.7852 224.94 56.7852 225.571C56.7852 226.202 57.2968 226.714 57.928 226.714Z" fill="black"/>
<path d="M97.632 226V213.94L98.208 214.552H94.662V213.4H98.928V226H97.632ZM102.084 221.68V220.564H106.8V221.68H102.084ZM112.223 226.108C111.311 226.108 110.447 225.964 109.631 225.676C108.827 225.376 108.179 224.98 107.687 224.488L108.317 223.462C108.725 223.882 109.271 224.23 109.955 224.506C110.651 224.782 111.407 224.92 112.223 224.92C113.267 224.92 114.065 224.692 114.617 224.236C115.181 223.78 115.463 223.168 115.463 222.4C115.463 221.632 115.187 221.02 114.635 220.564C114.095 220.108 113.237 219.88 112.061 219.88H111.161V218.926L115.049 214.048L115.229 214.552H108.209V213.4H116.309V214.318L112.421 219.196L111.791 218.782H112.277C113.789 218.782 114.917 219.118 115.661 219.79C116.417 220.462 116.795 221.326 116.795 222.382C116.795 223.09 116.627 223.726 116.291 224.29C115.955 224.854 115.445 225.298 114.761 225.622C114.089 225.946 113.243 226.108 112.223 226.108ZM129.092 226.09C128.276 226.09 127.538 225.904 126.878 225.532C126.218 225.148 125.69 224.602 125.294 223.894C124.91 223.174 124.718 222.298 124.718 221.266C124.718 220.234 124.91 219.364 125.294 218.656C125.678 217.936 126.2 217.39 126.86 217.018C127.52 216.646 128.264 216.46 129.092 216.46C129.992 216.46 130.796 216.664 131.504 217.072C132.224 217.468 132.788 218.032 133.196 218.764C133.604 219.484 133.808 220.318 133.808 221.266C133.808 222.226 133.604 223.066 133.196 223.786C132.788 224.506 132.224 225.07 131.504 225.478C130.796 225.886 129.992 226.09 129.092 226.09ZM124.214 229.492V216.55H125.438V219.394L125.312 221.284L125.492 223.192V229.492H124.214ZM129.002 224.956C129.674 224.956 130.274 224.806 130.802 224.506C131.33 224.194 131.75 223.762 132.062 223.21C132.374 222.646 132.53 221.998 132.53 221.266C132.53 220.534 132.374 219.892 132.062 219.34C131.75 218.788 131.33 218.356 130.802 218.044C130.274 217.732 129.674 217.576 129.002 217.576C128.33 217.576 127.724 217.732 127.184 218.044C126.656 218.356 126.236 218.788 125.924 219.34C125.624 219.892 125.474 220.534 125.474 221.266C125.474 221.998 125.624 222.646 125.924 223.21C126.236 223.762 126.656 224.194 127.184 224.506C127.724 224.806 128.33 224.956 129.002 224.956ZM142.37 226V223.912L142.316 223.57V220.078C142.316 219.274 142.088 218.656 141.632 218.224C141.188 217.792 140.522 217.576 139.634 217.576C139.022 217.576 138.44 217.678 137.888 217.882C137.336 218.086 136.868 218.356 136.484 218.692L135.908 217.738C136.388 217.33 136.964 217.018 137.636 216.802C138.308 216.574 139.016 216.46 139.76 216.46C140.984 216.46 141.926 216.766 142.586 217.378C143.258 217.978 143.594 218.896 143.594 220.132V226H142.37ZM139.112 226.09C138.404 226.09 137.786 225.976 137.258 225.748C136.742 225.508 136.346 225.184 136.07 224.776C135.794 224.356 135.656 223.876 135.656 223.336C135.656 222.844 135.77 222.4 135.998 222.004C136.238 221.596 136.622 221.272 137.15 221.032C137.69 220.78 138.41 220.654 139.31 220.654H142.568V221.608H139.346C138.434 221.608 137.798 221.77 137.438 222.094C137.09 222.418 136.916 222.82 136.916 223.3C136.916 223.84 137.126 224.272 137.546 224.596C137.966 224.92 138.554 225.082 139.31 225.082C140.03 225.082 140.648 224.92 141.164 224.596C141.692 224.26 142.076 223.78 142.316 223.156L142.604 224.038C142.364 224.662 141.944 225.16 141.344 225.532C140.756 225.904 140.012 226.09 139.112 226.09ZM151.244 226.108C150.476 226.108 149.792 225.982 149.192 225.73C148.604 225.478 148.1 225.094 147.68 224.578C147.26 224.062 146.942 223.426 146.726 222.67C146.51 221.902 146.402 221.014 146.402 220.006C146.402 219.106 146.486 218.32 146.654 217.648C146.822 216.964 147.056 216.376 147.356 215.884C147.656 215.392 148.004 214.978 148.4 214.642C148.808 214.294 149.246 214.018 149.714 213.814C150.194 213.598 150.686 213.436 151.19 213.328L155.438 212.338L155.654 213.526L151.658 214.426C151.406 214.486 151.1 214.57 150.74 214.678C150.392 214.786 150.032 214.948 149.66 215.164C149.3 215.38 148.964 215.68 148.652 216.064C148.34 216.448 148.088 216.946 147.896 217.558C147.716 218.158 147.626 218.908 147.626 219.808C147.626 220 147.632 220.156 147.644 220.276C147.656 220.384 147.668 220.504 147.68 220.636C147.704 220.756 147.722 220.936 147.734 221.176L147.176 220.708C147.308 219.976 147.578 219.34 147.986 218.8C148.394 218.248 148.904 217.822 149.516 217.522C150.14 217.21 150.83 217.054 151.586 217.054C152.462 217.054 153.242 217.246 153.926 217.63C154.61 218.002 155.144 218.524 155.528 219.196C155.924 219.868 156.122 220.648 156.122 221.536C156.122 222.412 155.918 223.198 155.51 223.894C155.114 224.59 154.55 225.136 153.818 225.532C153.086 225.916 152.228 226.108 151.244 226.108ZM151.388 225.046C152.06 225.046 152.654 224.896 153.17 224.596C153.686 224.284 154.088 223.864 154.376 223.336C154.676 222.808 154.826 222.214 154.826 221.554C154.826 220.906 154.676 220.33 154.376 219.826C154.088 219.322 153.686 218.926 153.17 218.638C152.654 218.338 152.054 218.188 151.37 218.188C150.698 218.188 150.104 218.332 149.588 218.62C149.072 218.896 148.664 219.286 148.364 219.79C148.076 220.294 147.932 220.876 147.932 221.536C147.932 222.196 148.076 222.79 148.364 223.318C148.664 223.846 149.072 224.266 149.588 224.578C150.116 224.89 150.716 225.046 151.388 225.046ZM162.749 226.09C161.837 226.09 161.015 225.886 160.283 225.478C159.563 225.058 158.993 224.488 158.573 223.768C158.153 223.036 157.943 222.202 157.943 221.266C157.943 220.318 158.153 219.484 158.573 218.764C158.993 218.044 159.563 217.48 160.283 217.072C161.003 216.664 161.825 216.46 162.749 216.46C163.685 216.46 164.513 216.664 165.233 217.072C165.965 217.48 166.535 218.044 166.943 218.764C167.363 219.484 167.573 220.318 167.573 221.266C167.573 222.202 167.363 223.036 166.943 223.768C166.535 224.488 165.965 225.058 165.233 225.478C164.501 225.886 163.673 226.09 162.749 226.09ZM162.749 224.956C163.433 224.956 164.039 224.806 164.567 224.506C165.095 224.194 165.509 223.762 165.809 223.21C166.121 222.646 166.277 221.998 166.277 221.266C166.277 220.522 166.121 219.874 165.809 219.322C165.509 218.77 165.095 218.344 164.567 218.044C164.039 217.732 163.439 217.576 162.767 217.576C162.095 217.576 161.495 217.732 160.967 218.044C160.439 218.344 160.019 218.77 159.707 219.322C159.395 219.874 159.239 220.522 159.239 221.266C159.239 221.998 159.395 222.646 159.707 223.21C160.019 223.762 160.439 224.194 160.967 224.506C161.495 224.806 162.089 224.956 162.749 224.956ZM176.28 222.004C175.728 222.244 175.17 222.436 174.606 222.58C174.054 222.712 173.502 222.778 172.95 222.778C171.834 222.778 170.952 222.526 170.304 222.022C169.656 221.506 169.332 220.714 169.332 219.646V216.55H170.592V219.574C170.592 220.294 170.826 220.834 171.294 221.194C171.762 221.554 172.392 221.734 173.184 221.734C173.664 221.734 174.168 221.674 174.696 221.554C175.224 221.422 175.758 221.236 176.298 220.996L176.28 222.004ZM176.172 226V216.55H177.45V226H176.172ZM181.08 226V216.55H182.358V224.056L188.676 216.55H189.81V226H188.532V218.476L182.232 226H181.08ZM191.924 226L195.92 220.816L195.902 221.446L192.104 216.55H193.544L196.658 220.6L196.118 220.582L199.232 216.55H200.636L196.802 221.5L196.82 220.816L200.852 226H199.394L196.1 221.68L196.604 221.752L193.364 226H191.924ZM214.138 225.388V217.666H209.584L209.476 219.772C209.452 220.408 209.41 221.032 209.35 221.644C209.302 222.256 209.212 222.82 209.08 223.336C208.96 223.84 208.786 224.254 208.558 224.578C208.33 224.89 208.036 225.07 207.676 225.118L206.398 224.884C206.77 224.896 207.076 224.764 207.316 224.488C207.556 224.2 207.742 223.81 207.874 223.318C208.006 222.826 208.102 222.268 208.162 221.644C208.222 221.008 208.27 220.36 208.306 219.7L208.432 216.55H215.416V225.388H214.138ZM206.002 228.286V224.884H216.892V228.286H215.686V226H207.208V228.286H206.002ZM219.382 226V216.55H220.66V220.726H226.618V216.55H227.896V226H226.618V221.824H220.66V226H219.382ZM237.631 226V222.598L237.865 222.868H234.661C233.449 222.868 232.501 222.604 231.817 222.076C231.133 221.548 230.791 220.78 230.791 219.772C230.791 218.692 231.157 217.888 231.889 217.36C232.621 216.82 233.599 216.55 234.823 216.55H238.801V226H237.631ZM230.719 226L233.311 222.364H234.643L232.105 226H230.719ZM237.631 222.22V217.288L237.865 217.666H234.859C233.983 217.666 233.299 217.834 232.807 218.17C232.327 218.506 232.087 219.052 232.087 219.808C232.087 221.212 232.981 221.914 234.769 221.914H237.865L237.631 222.22Z" fill="black"/>
<path d="M58.75 278H64.75M52.75 272.75H72.25M67.75 278H69.25M54.25 268.25C53.5 268.25 52.75 269 52.75 269.75V280.25C52.75 281 53.5 281.75 54.25 281.75H70.75C71.5 281.75 72.25 281 72.25 280.25V269.75C72.25 269 71.5 268.25 70.75 268.25H54.25Z" stroke="black" stroke-width="2" stroke-linecap="round" stroke-linejoin="round"/>
<path d="M102.15 280.108C101.202 280.108 100.32 279.952 99.504 279.64C98.7 279.316 97.998 278.866 97.398 278.29C96.81 277.702 96.348 277.024 96.012 276.256C95.688 275.476 95.526 274.624 95.526 273.7C95.526 272.776 95.688 271.93 96.012 271.162C96.348 270.382 96.81 269.704 97.398 269.128C97.998 268.54 98.7 268.09 99.504 267.778C100.308 267.454 101.19 267.292 102.15 267.292C103.098 267.292 103.974 267.454 104.778 267.778C105.582 268.09 106.278 268.534 106.866 269.11C107.466 269.686 107.928 270.364 108.252 271.144C108.588 271.924 108.756 272.776 108.756 273.7C108.756 274.624 108.588 275.476 108.252 276.256C107.928 277.036 107.466 277.714 106.866 278.29C106.278 278.866 105.582 279.316 104.778 279.64C103.974 279.952 103.098 280.108 102.15 280.108ZM102.15 278.92C102.906 278.92 103.602 278.794 104.238 278.542C104.886 278.278 105.444 277.912 105.912 277.444C106.392 276.964 106.764 276.412 107.028 275.788C107.292 275.152 107.424 274.456 107.424 273.7C107.424 272.944 107.292 272.254 107.028 271.63C106.764 270.994 106.392 270.442 105.912 269.974C105.444 269.494 104.886 269.128 104.238 268.876C103.602 268.612 102.906 268.48 102.15 268.48C101.394 268.48 100.692 268.612 100.044 268.876C99.396 269.128 98.832 269.494 98.352 269.974C97.884 270.442 97.512 270.994 97.236 271.63C96.972 272.254 96.84 272.944 96.84 273.7C96.84 274.444 96.972 275.134 97.236 275.77C97.512 276.406 97.884 276.964 98.352 277.444C98.832 277.912 99.396 278.278 100.044 278.542C100.692 278.794 101.394 278.92 102.15 278.92ZM111.629 280V270.55H120.125V280H118.847V271.324L119.171 271.666H112.583L112.907 271.324V280H111.629ZM122.029 279.982L122.119 278.884C122.203 278.896 122.281 278.914 122.353 278.938C122.437 278.95 122.509 278.956 122.569 278.956C122.953 278.956 123.259 278.812 123.487 278.524C123.727 278.236 123.907 277.852 124.027 277.372C124.147 276.892 124.231 276.352 124.279 275.752C124.327 275.14 124.369 274.528 124.405 273.916L124.567 270.55H131.497V280H130.219V271.288L130.543 271.666H125.395L125.701 271.27L125.557 274.006C125.521 274.822 125.455 275.602 125.359 276.346C125.275 277.09 125.137 277.744 124.945 278.308C124.765 278.872 124.513 279.316 124.189 279.64C123.865 279.952 123.451 280.108 122.947 280.108C122.803 280.108 122.653 280.096 122.497 280.072C122.353 280.048 122.197 280.018 122.029 279.982ZM140.999 280V277.912L140.945 277.57V274.078C140.945 273.274 140.717 272.656 140.261 272.224C139.817 271.792 139.151 271.576 138.263 271.576C137.651 271.576 137.069 271.678 136.517 271.882C135.965 272.086 135.497 272.356 135.113 272.692L134.537 271.738C135.017 271.33 135.593 271.018 136.265 270.802C136.937 270.574 137.645 270.46 138.389 270.46C139.613 270.46 140.555 270.766 141.215 271.378C141.887 271.978 142.223 272.896 142.223 274.132V280H140.999ZM137.741 280.09C137.033 280.09 136.415 279.976 135.887 279.748C135.371 279.508 134.975 279.184 134.699 278.776C134.423 278.356 134.285 277.876 134.285 277.336C134.285 276.844 134.399 276.4 134.627 276.004C134.867 275.596 135.251 275.272 135.779 275.032C136.319 274.78 137.039 274.654 137.938 274.654H141.197V275.608H137.975C137.063 275.608 136.427 275.77 136.067 276.094C135.719 276.418 135.545 276.82 135.545 277.3C135.545 277.84 135.755 278.272 136.175 278.596C136.595 278.92 137.183 279.082 137.938 279.082C138.659 279.082 139.277 278.92 139.793 278.596C140.321 278.26 140.705 277.78 140.945 277.156L141.233 278.038C140.993 278.662 140.573 279.16 139.973 279.532C139.385 279.904 138.641 280.09 137.741 280.09ZM147.425 280V271.324L147.749 271.666H143.843V270.55H152.285V271.666H148.379L148.703 271.324V280H147.425ZM160 280V277.912L159.946 277.57V274.078C159.946 273.274 159.718 272.656 159.262 272.224C158.818 271.792 158.152 271.576 157.264 271.576C156.652 271.576 156.07 271.678 155.518 271.882C154.966 272.086 154.498 272.356 154.114 272.692L153.538 271.738C154.018 271.33 154.594 271.018 155.266 270.802C155.938 270.574 156.646 270.46 157.39 270.46C158.614 270.46 159.556 270.766 160.216 271.378C160.888 271.978 161.224 272.896 161.224 274.132V280H160ZM156.742 280.09C156.034 280.09 155.416 279.976 154.888 279.748C154.372 279.508 153.976 279.184 153.7 278.776C153.424 278.356 153.286 277.876 153.286 277.336C153.286 276.844 153.4 276.4 153.628 276.004C153.868 275.596 154.252 275.272 154.78 275.032C155.32 274.78 156.04 274.654 156.94 274.654H160.198V275.608H156.976C156.064 275.608 155.428 275.77 155.068 276.094C154.72 276.418 154.546 276.82 154.546 277.3C154.546 277.84 154.756 278.272 155.176 278.596C155.596 278.92 156.184 279.082 156.94 279.082C157.66 279.082 158.278 278.92 158.794 278.596C159.322 278.26 159.706 277.78 159.946 277.156L160.234 278.038C159.994 278.662 159.574 279.16 158.974 279.532C158.386 279.904 157.642 280.09 156.742 280.09ZM173.226 280.09C172.314 280.09 171.492 279.886 170.76 279.478C170.04 279.058 169.47 278.488 169.05 277.768C168.63 277.036 168.42 276.202 168.42 275.266C168.42 274.318 168.63 273.484 169.05 272.764C169.47 272.044 170.04 271.48 170.76 271.072C171.48 270.664 172.302 270.46 173.226 270.46C174.162 270.46 174.99 270.664 175.71 271.072C176.442 271.48 177.012 272.044 177.42 272.764C177.84 273.484 178.05 274.318 178.05 275.266C178.05 276.202 177.84 277.036 177.42 277.768C177.012 278.488 176.442 279.058 175.71 279.478C174.978 279.886 174.15 280.09 173.226 280.09ZM173.226 278.956C173.91 278.956 174.516 278.806 175.044 278.506C175.572 278.194 175.986 277.762 176.286 277.21C176.598 276.646 176.754 275.998 176.754 275.266C176.754 274.522 176.598 273.874 176.286 273.322C175.986 272.77 175.572 272.344 175.044 272.044C174.516 271.732 173.916 271.576 173.244 271.576C172.572 271.576 171.972 271.732 171.444 272.044C170.916 272.344 170.496 272.77 170.184 273.322C169.872 273.874 169.716 274.522 169.716 275.266C169.716 275.998 169.872 276.646 170.184 277.21C170.496 277.762 170.916 278.194 171.444 278.506C171.972 278.806 172.566 278.956 173.226 278.956ZM180.781 280V270.55H182.059V274.726H188.017V270.55H189.295V280H188.017V275.824H182.059V280H180.781ZM191.199 279.982L191.289 278.884C191.373 278.896 191.451 278.914 191.523 278.938C191.607 278.95 191.679 278.956 191.739 278.956C192.123 278.956 192.429 278.812 192.657 278.524C192.897 278.236 193.077 277.852 193.197 277.372C193.317 276.892 193.401 276.352 193.449 275.752C193.497 275.14 193.539 274.528 193.575 273.916L193.737 270.55H200.667V280H199.389V271.288L199.713 271.666H194.565L194.871 271.27L194.727 274.006C194.691 274.822 194.625 275.602 194.529 276.346C194.445 277.09 194.307 277.744 194.115 278.308C193.935 278.872 193.683 279.316 193.359 279.64C193.035 279.952 192.621 280.108 192.117 280.108C191.973 280.108 191.823 280.096 191.667 280.072C191.523 280.048 191.367 280.018 191.199 279.982ZM210.168 280V277.912L210.114 277.57V274.078C210.114 273.274 209.886 272.656 209.43 272.224C208.986 271.792 208.32 271.576 207.432 271.576C206.82 271.576 206.238 271.678 205.686 271.882C205.134 272.086 204.666 272.356 204.282 272.692L203.706 271.738C204.186 271.33 204.762 271.018 205.434 270.802C206.106 270.574 206.814 270.46 207.558 270.46C208.782 270.46 209.724 270.766 210.384 271.378C211.056 271.978 211.392 272.896 211.392 274.132V280H210.168ZM206.91 280.09C206.202 280.09 205.584 279.976 205.056 279.748C204.54 279.508 204.144 279.184 203.868 278.776C203.592 278.356 203.454 277.876 203.454 277.336C203.454 276.844 203.568 276.4 203.796 276.004C204.036 275.596 204.42 275.272 204.948 275.032C205.488 274.78 206.208 274.654 207.108 274.654H210.366V275.608H207.144C206.232 275.608 205.596 275.77 205.236 276.094C204.888 276.418 204.714 276.82 204.714 277.3C204.714 277.84 204.924 278.272 205.344 278.596C205.764 278.92 206.352 279.082 207.108 279.082C207.828 279.082 208.446 278.92 208.962 278.596C209.49 278.26 209.874 277.78 210.114 277.156L210.402 278.038C210.162 278.662 209.742 279.16 209.142 279.532C208.554 279.904 207.81 280.09 206.91 280.09ZM214.795 280V270.55H216.073V278.056L222.391 270.55H223.525V280H222.247V272.476L215.947 280H214.795ZM219.079 269.182C218.287 269.182 217.645 268.984 217.153 268.588C216.673 268.18 216.421 267.598 216.397 266.842H217.315C217.327 267.322 217.495 267.7 217.819 267.976C218.143 268.252 218.563 268.39 219.079 268.39C219.595 268.39 220.015 268.252 220.339 267.976C220.675 267.7 220.849 267.322 220.861 266.842H221.779C221.767 267.598 221.515 268.18 221.023 268.588C220.531 268.984 219.883 269.182 219.079 269.182ZM227.187 280V270.55H228.465V274.726H234.423V270.55H235.701V280H234.423V275.824H228.465V280H227.187Z" fill="black"/>
<path d="M127.46 107.492C126.8 106.4 126.284 105.14 125.912 103.712C125.552 102.272 125.372 100.724 125.372 99.068C125.372 97.412 125.552 95.864 125.912 94.424C126.284 92.972 126.8 91.712 127.46 90.644H128.684C127.976 91.88 127.454 93.194 127.118 94.586C126.794 95.966 126.632 97.46 126.632 99.068C126.632 100.676 126.794 102.176 127.118 103.568C127.454 104.948 127.976 106.256 128.684 107.492H127.46ZM131.548 104V91.4H140.764V92.534H132.862V96.656H136.984C138.472 96.656 139.6 96.962 140.368 97.574C141.148 98.174 141.538 99.062 141.538 100.238C141.538 101.45 141.118 102.38 140.278 103.028C139.45 103.676 138.256 104 136.696 104H131.548ZM132.862 102.938H136.678C137.842 102.938 138.718 102.716 139.306 102.272C139.906 101.816 140.206 101.156 140.206 100.292C140.206 98.576 139.03 97.718 136.678 97.718H132.862V102.938ZM150.17 104V101.912L150.116 101.57V98.078C150.116 97.274 149.888 96.656 149.432 96.224C148.988 95.792 148.322 95.576 147.434 95.576C146.822 95.576 146.24 95.678 145.688 95.882C145.136 96.086 144.668 96.356 144.284 96.692L143.708 95.738C144.188 95.33 144.764 95.018 145.436 94.802C146.108 94.574 146.816 94.46 147.56 94.46C148.784 94.46 149.726 94.766 150.386 95.378C151.058 95.978 151.394 96.896 151.394 98.132V104H150.17ZM146.912 104.09C146.204 104.09 145.586 103.976 145.058 103.748C144.542 103.508 144.146 103.184 143.87 102.776C143.594 102.356 143.456 101.876 143.456 101.336C143.456 100.844 143.57 100.4 143.798 100.004C144.038 99.596 144.422 99.272 144.95 99.032C145.49 98.78 146.21 98.654 147.11 98.654H150.368V99.608H147.146C146.234 99.608 145.598 99.77 145.238 100.094C144.89 100.418 144.716 100.82 144.716 101.3C144.716 101.84 144.926 102.272 145.346 102.596C145.766 102.92 146.354 103.082 147.11 103.082C147.83 103.082 148.448 102.92 148.964 102.596C149.492 102.26 149.876 101.78 150.116 101.156L150.404 102.038C150.164 102.662 149.744 103.16 149.144 103.532C148.556 103.904 147.812 104.09 146.912 104.09ZM154.797 104V94.55H158.973C160.041 94.55 160.881 94.754 161.493 95.162C162.117 95.57 162.429 96.17 162.429 96.962C162.429 97.73 162.135 98.324 161.547 98.744C160.959 99.152 160.185 99.356 159.225 99.356L159.477 98.978C160.605 98.978 161.433 99.188 161.961 99.608C162.489 100.028 162.753 100.634 162.753 101.426C162.753 102.242 162.453 102.878 161.853 103.334C161.265 103.778 160.347 104 159.099 104H154.797ZM156.039 102.992H159.045C159.849 102.992 160.455 102.866 160.863 102.614C161.283 102.35 161.493 101.93 161.493 101.354C161.493 100.778 161.307 100.358 160.935 100.094C160.563 99.83 159.975 99.698 159.171 99.698H156.039V102.992ZM156.039 98.744H158.883C159.615 98.744 160.173 98.606 160.557 98.33C160.953 98.054 161.151 97.652 161.151 97.124C161.151 96.596 160.953 96.2 160.557 95.936C160.173 95.672 159.615 95.54 158.883 95.54H156.039V98.744ZM164.02 103.982L164.11 102.884C164.194 102.896 164.272 102.914 164.344 102.938C164.428 102.95 164.5 102.956 164.56 102.956C164.944 102.956 165.25 102.812 165.478 102.524C165.718 102.236 165.898 101.852 166.018 101.372C166.138 100.892 166.222 100.352 166.27 99.752C166.318 99.14 166.36 98.528 166.396 97.916L166.558 94.55H173.488V104H172.21V95.288L172.534 95.666H167.386L167.692 95.27L167.548 98.006C167.512 98.822 167.446 99.602 167.35 100.346C167.266 101.09 167.128 101.744 166.936 102.308C166.756 102.872 166.504 103.316 166.18 103.64C165.856 103.952 165.442 104.108 164.938 104.108C164.794 104.108 164.644 104.096 164.488 104.072C164.344 104.048 164.188 104.018 164.02 103.982ZM186.337 104V94.55H187.615V104H186.337ZM181.099 97.88C182.287 97.892 183.193 98.156 183.817 98.672C184.441 99.188 184.753 99.932 184.753 100.904C184.753 101.912 184.417 102.686 183.745 103.226C183.073 103.766 182.113 104.03 180.865 104.018L177.121 104V94.55H178.399V97.844L181.099 97.88ZM180.775 103.046C181.663 103.058 182.329 102.884 182.773 102.524C183.229 102.152 183.457 101.612 183.457 100.904C183.457 100.196 183.235 99.68 182.791 99.356C182.347 99.02 181.675 98.846 180.775 98.834L178.399 98.798V103.01L180.775 103.046ZM190.444 106.628L191.236 103.298L191.38 104.072C191.104 104.072 190.87 103.982 190.678 103.802C190.498 103.622 190.408 103.388 190.408 103.1C190.408 102.812 190.498 102.578 190.678 102.398C190.87 102.218 191.098 102.128 191.362 102.128C191.638 102.128 191.86 102.224 192.028 102.416C192.208 102.608 192.298 102.836 192.298 103.1C192.298 103.196 192.292 103.292 192.28 103.388C192.268 103.484 192.244 103.592 192.208 103.712C192.172 103.832 192.124 103.976 192.064 104.144L191.308 106.628H190.444ZM198.231 104L203.991 91.4H205.305L211.065 104H209.661L204.369 92.174H204.909L199.617 104H198.231ZM200.499 100.634L200.895 99.554H208.221L208.617 100.634H200.499ZM211.445 103.982L211.535 102.884C211.619 102.896 211.697 102.914 211.769 102.938C211.853 102.95 211.925 102.956 211.985 102.956C212.369 102.956 212.675 102.812 212.903 102.524C213.143 102.236 213.323 101.852 213.443 101.372C213.563 100.892 213.647 100.352 213.695 99.752C213.743 99.14 213.785 98.528 213.821 97.916L213.983 94.55H220.913V104H219.635V95.288L219.959 95.666H214.811L215.117 95.27L214.973 98.006C214.937 98.822 214.871 99.602 214.775 100.346C214.691 101.09 214.553 101.744 214.361 102.308C214.181 102.872 213.929 103.316 213.605 103.64C213.281 103.952 212.867 104.108 212.363 104.108C212.219 104.108 212.069 104.096 211.913 104.072C211.769 104.048 211.613 104.018 211.445 103.982ZM228.615 97.88C229.803 97.892 230.703 98.156 231.315 98.672C231.939 99.188 232.251 99.932 232.251 100.904C232.251 101.912 231.915 102.686 231.243 103.226C230.583 103.766 229.623 104.03 228.363 104.018L224.547 104V94.55H225.825V97.844L228.615 97.88ZM228.291 103.046C229.167 103.058 229.827 102.884 230.271 102.524C230.727 102.152 230.955 101.612 230.955 100.904C230.955 100.196 230.733 99.68 230.289 99.356C229.845 99.02 229.179 98.846 228.291 98.834L225.825 98.798V103.01L228.291 103.046ZM234.689 104V94.55H235.985L240.269 101.804H239.729L244.085 94.55H245.273V104H244.103V96.008L244.337 96.116L240.269 102.848H239.693L235.589 96.044L235.859 95.99V104H234.689ZM252.96 104.09C251.976 104.09 251.112 103.886 250.368 103.478C249.624 103.058 249.042 102.488 248.622 101.768C248.202 101.036 247.992 100.202 247.992 99.266C247.992 98.33 248.19 97.502 248.586 96.782C248.994 96.062 249.546 95.498 250.242 95.09C250.95 94.67 251.742 94.46 252.618 94.46C253.506 94.46 254.292 94.664 254.976 95.072C255.672 95.468 256.218 96.032 256.614 96.764C257.01 97.484 257.208 98.318 257.208 99.266C257.208 99.326 257.202 99.392 257.19 99.464C257.19 99.524 257.19 99.59 257.19 99.662H248.964V98.708H256.506L256.002 99.086C256.002 98.402 255.852 97.796 255.552 97.268C255.264 96.728 254.868 96.308 254.364 96.008C253.86 95.708 253.278 95.558 252.618 95.558C251.97 95.558 251.388 95.708 250.872 96.008C250.356 96.308 249.954 96.728 249.666 97.268C249.378 97.808 249.234 98.426 249.234 99.122V99.32C249.234 100.04 249.39 100.676 249.702 101.228C250.026 101.768 250.47 102.194 251.034 102.506C251.61 102.806 252.264 102.956 252.996 102.956C253.572 102.956 254.106 102.854 254.598 102.65C255.102 102.446 255.534 102.134 255.894 101.714L256.614 102.542C256.194 103.046 255.666 103.43 255.03 103.694C254.406 103.958 253.716 104.09 252.96 104.09ZM261.415 104V95.324L261.739 95.666H257.833V94.55H266.275V95.666H262.369L262.693 95.324V104H261.415ZM272.191 97.88C273.379 97.892 274.279 98.156 274.891 98.672C275.515 99.188 275.827 99.932 275.827 100.904C275.827 101.912 275.491 102.686 274.819 103.226C274.159 103.766 273.199 104.03 271.939 104.018L268.123 104V94.55H269.401V97.844L272.191 97.88ZM271.867 103.046C272.743 103.058 273.403 102.884 273.847 102.524C274.303 102.152 274.531 101.612 274.531 100.904C274.531 100.196 274.309 99.68 273.865 99.356C273.421 99.02 272.755 98.846 271.867 98.834L269.401 98.798V103.01L271.867 103.046ZM282.315 104.09C281.331 104.09 280.467 103.886 279.723 103.478C278.979 103.058 278.397 102.488 277.977 101.768C277.557 101.036 277.347 100.202 277.347 99.266C277.347 98.33 277.545 97.502 277.941 96.782C278.349 96.062 278.901 95.498 279.597 95.09C280.305 94.67 281.097 94.46 281.973 94.46C282.861 94.46 283.647 94.664 284.331 95.072C285.027 95.468 285.573 96.032 285.969 96.764C286.365 97.484 286.563 98.318 286.563 99.266C286.563 99.326 286.557 99.392 286.545 99.464C286.545 99.524 286.545 99.59 286.545 99.662H278.319V98.708H285.861L285.357 99.086C285.357 98.402 285.207 97.796 284.907 97.268C284.619 96.728 284.223 96.308 283.719 96.008C283.215 95.708 282.633 95.558 281.973 95.558C281.325 95.558 280.743 95.708 280.227 96.008C279.711 96.308 279.309 96.728 279.021 97.268C278.733 97.808 278.589 98.426 278.589 99.122V99.32C278.589 100.04 278.745 100.676 279.057 101.228C279.381 101.768 279.825 102.194 280.389 102.506C280.965 102.806 281.619 102.956 282.351 102.956C282.927 102.956 283.461 102.854 283.953 102.65C284.457 102.446 284.889 102.134 285.249 101.714L285.969 102.542C285.549 103.046 285.021 103.43 284.385 103.694C283.761 103.958 283.071 104.09 282.315 104.09ZM289.392 104V94.55H293.568C294.636 94.55 295.476 94.754 296.088 95.162C296.712 95.57 297.024 96.17 297.024 96.962C297.024 97.73 296.73 98.324 296.142 98.744C295.554 99.152 294.78 99.356 293.82 99.356L294.072 98.978C295.2 98.978 296.028 99.188 296.556 99.608C297.084 100.028 297.348 100.634 297.348 101.426C297.348 102.242 297.048 102.878 296.448 103.334C295.86 103.778 294.942 104 293.694 104H289.392ZM290.634 102.992H293.64C294.444 102.992 295.05 102.866 295.458 102.614C295.878 102.35 296.088 101.93 296.088 101.354C296.088 100.778 295.902 100.358 295.53 100.094C295.158 99.83 294.57 99.698 293.766 99.698H290.634V102.992ZM290.634 98.744H293.478C294.21 98.744 294.768 98.606 295.152 98.33C295.548 98.054 295.746 97.652 295.746 97.124C295.746 96.596 295.548 96.2 295.152 95.936C294.768 95.672 294.21 95.54 293.478 95.54H290.634V98.744ZM304.303 104.09C303.367 104.09 302.527 103.886 301.783 103.478C301.051 103.058 300.475 102.488 300.055 101.768C299.635 101.036 299.425 100.202 299.425 99.266C299.425 98.318 299.635 97.484 300.055 96.764C300.475 96.044 301.051 95.48 301.783 95.072C302.527 94.664 303.367 94.46 304.303 94.46C305.107 94.46 305.833 94.616 306.481 94.928C307.129 95.24 307.639 95.708 308.011 96.332L307.057 96.98C306.733 96.5 306.331 96.146 305.851 95.918C305.371 95.69 304.849 95.576 304.285 95.576C303.613 95.576 303.007 95.732 302.467 96.044C301.927 96.344 301.501 96.77 301.189 97.322C300.877 97.874 300.721 98.522 300.721 99.266C300.721 100.01 300.877 100.658 301.189 101.21C301.501 101.762 301.927 102.194 302.467 102.506C303.007 102.806 303.613 102.956 304.285 102.956C304.849 102.956 305.371 102.842 305.851 102.614C306.331 102.386 306.733 102.038 307.057 101.57L308.011 102.218C307.639 102.83 307.129 103.298 306.481 103.622C305.833 103.934 305.107 104.09 304.303 104.09ZM317.416 104L313.528 99.32L314.59 98.69L318.928 104H317.416ZM310.486 104V94.55H311.764V104H310.486ZM311.368 99.788V98.69H314.41V99.788H311.368ZM314.698 99.41L313.51 99.23L317.272 94.55H318.658L314.698 99.41ZM321.071 107.492H319.847C320.567 106.256 321.089 104.948 321.413 103.568C321.749 102.176 321.917 100.676 321.917 99.068C321.917 97.46 321.749 95.966 321.413 94.586C321.089 93.194 320.567 91.88 319.847 90.644H321.071C321.755 91.712 322.277 92.972 322.637 94.424C322.997 95.864 323.177 97.412 323.177 99.068C323.177 100.724 322.997 102.272 322.637 103.712C322.277 105.14 321.755 106.4 321.071 107.492Z" fill="black"/>
</svg>
