<svg width="397" height="401" viewBox="0 0 397 401" fill="none" xmlns="http://www.w3.org/2000/svg">
<rect x="0.5" width="396" height="401" rx="20" fill="#EBE5FB"/>
<path d="M60.422 70.22C59.234 70.22 58.1193 69.9927 57.078 69.538C56.0513 69.0833 55.142 68.4527 54.35 67.646C53.5727 66.8247 52.964 65.886 52.524 64.83C52.084 63.7593 51.864 62.6153 51.864 61.398C51.864 60.1953 52.0767 59.066 52.502 58.01C52.942 56.9393 53.5507 56.0007 54.328 55.194C55.12 54.3873 56.0293 53.7567 57.056 53.302C58.0973 52.8327 59.2193 52.598 60.422 52.598C61.478 52.598 62.4387 52.752 63.304 53.06C64.1693 53.368 65.0053 53.8593 65.812 54.534C65.944 54.6367 66.0173 54.7613 66.032 54.908C66.0613 55.04 66.0467 55.172 65.988 55.304C65.9293 55.4213 65.8413 55.5093 65.724 55.568C65.6947 55.6853 65.6213 55.7733 65.504 55.832C65.3867 55.8907 65.2473 55.9127 65.086 55.898C64.9393 55.8833 64.7927 55.8173 64.646 55.7C64.074 55.2013 63.4507 54.8347 62.776 54.6C62.1013 54.3507 61.3167 54.226 60.422 54.226C59.4687 54.226 58.574 54.4167 57.738 54.798C56.9167 55.1793 56.1907 55.7 55.56 56.36C54.9293 57.02 54.4307 57.7827 54.064 58.648C53.712 59.5133 53.536 60.43 53.536 61.398C53.536 62.3953 53.712 63.3267 54.064 64.192C54.4307 65.0573 54.9293 65.82 55.56 66.48C56.1907 67.14 56.9167 67.6607 57.738 68.042C58.574 68.4087 59.4687 68.592 60.422 68.592C61.2287 68.592 61.9913 68.46 62.71 68.196C63.4287 67.932 64.1107 67.5507 64.756 67.052C64.932 66.9053 65.1153 66.8467 65.306 66.876C65.5113 66.9053 65.6873 66.9933 65.834 67.14C65.9807 67.2867 66.054 67.4773 66.054 67.712C66.054 67.8293 66.032 67.9393 65.988 68.042C65.9587 68.13 65.9 68.2253 65.812 68.328C65.064 69.0173 64.228 69.5087 63.304 69.802C62.38 70.0807 61.4193 70.22 60.422 70.22ZM73.7879 70.11C72.6585 70.11 71.6465 69.846 70.7519 69.318C69.8572 68.7753 69.1459 68.042 68.6179 67.118C68.1045 66.194 67.8479 65.1527 67.8479 63.994C67.8479 62.8207 68.1119 61.772 68.6399 60.848C69.1825 59.924 69.9159 59.198 70.8399 58.67C71.7639 58.1273 72.8052 57.856 73.9639 57.856C75.1225 57.856 76.1565 58.1273 77.0659 58.67C77.9899 59.198 78.7159 59.924 79.2439 60.848C79.7865 61.772 80.0652 62.8207 80.0799 63.994L79.3979 64.522C79.3979 65.578 79.1485 66.5313 78.6499 67.382C78.1659 68.218 77.4985 68.8853 76.6479 69.384C75.8119 69.868 74.8585 70.11 73.7879 70.11ZM73.9639 68.57C74.8145 68.57 75.5699 68.372 76.2299 67.976C76.9045 67.58 77.4325 67.0373 77.8139 66.348C78.2099 65.644 78.4079 64.8593 78.4079 63.994C78.4079 63.114 78.2099 62.3293 77.8139 61.64C77.4325 60.9507 76.9045 60.408 76.2299 60.012C75.5699 59.6013 74.8145 59.396 73.9639 59.396C73.1279 59.396 72.3725 59.6013 71.6979 60.012C71.0232 60.408 70.4879 60.9507 70.0919 61.64C69.6959 62.3293 69.4979 63.114 69.4979 63.994C69.4979 64.8593 69.6959 65.644 70.0919 66.348C70.4879 67.0373 71.0232 67.58 71.6979 67.976C72.3725 68.372 73.1279 68.57 73.9639 68.57ZM79.2219 70C78.9725 70 78.7672 69.9267 78.6059 69.78C78.4445 69.6187 78.3639 69.4133 78.3639 69.164V65.402L78.7819 63.664L80.0799 63.994V69.164C80.0799 69.4133 79.9992 69.6187 79.8379 69.78C79.6765 69.9267 79.4712 70 79.2219 70ZM84.2325 70C83.9685 70 83.7559 69.9267 83.5945 69.78C83.4479 69.6187 83.3745 69.406 83.3745 69.142V58.824C83.3745 58.56 83.4479 58.3547 83.5945 58.208C83.7559 58.0467 83.9685 57.966 84.2325 57.966C84.6139 57.966 84.9219 58.142 85.1565 58.494L90.0185 65.534L94.8805 58.494C95.1152 58.142 95.4232 57.966 95.8045 57.966C96.0685 57.966 96.2739 58.0467 96.4205 58.208C96.5819 58.3547 96.6625 58.56 96.6625 58.824V69.142C96.6625 69.406 96.5819 69.6187 96.4205 69.78C96.2739 69.9267 96.0685 70 95.8045 70C95.5405 70 95.3352 69.9267 95.1885 69.78C95.0419 69.6187 94.9685 69.406 94.9685 69.142V59.924L95.5185 60.1L90.8105 66.898C90.5759 67.2353 90.3045 67.404 89.9965 67.404C89.6885 67.404 89.4245 67.2353 89.2045 66.898L84.4965 60.166L85.0685 59.99V69.142C85.0685 69.406 84.9952 69.6187 84.8485 69.78C84.7019 69.9267 84.4965 70 84.2325 70ZM106.104 70.11C104.931 70.11 103.882 69.846 102.958 69.318C102.034 68.79 101.308 68.064 100.78 67.14C100.252 66.216 99.9885 65.1673 99.9885 63.994C99.9885 62.806 100.252 61.75 100.78 60.826C101.308 59.902 102.034 59.176 102.958 58.648C103.882 58.12 104.931 57.856 106.104 57.856C107.278 57.856 108.319 58.12 109.228 58.648C110.152 59.176 110.878 59.902 111.406 60.826C111.934 61.75 112.206 62.806 112.22 63.994C112.22 65.1673 111.949 66.216 111.406 67.14C110.878 68.064 110.152 68.79 109.228 69.318C108.319 69.846 107.278 70.11 106.104 70.11ZM106.104 68.57C106.955 68.57 107.718 68.372 108.392 67.976C109.067 67.58 109.595 67.0373 109.976 66.348C110.358 65.6587 110.548 64.874 110.548 63.994C110.548 63.114 110.358 62.3293 109.976 61.64C109.595 60.936 109.067 60.386 108.392 59.99C107.718 59.594 106.955 59.396 106.104 59.396C105.254 59.396 104.491 59.594 103.816 59.99C103.142 60.386 102.606 60.936 102.21 61.64C101.829 62.3293 101.638 63.114 101.638 63.994C101.638 64.874 101.829 65.6587 102.21 66.348C102.606 67.0373 103.142 67.58 103.816 67.976C104.491 68.372 105.254 68.57 106.104 68.57ZM116.373 70C116.109 70 115.896 69.9267 115.735 69.78C115.588 69.6187 115.515 69.406 115.515 69.142V58.802C115.53 58.5527 115.61 58.3547 115.757 58.208C115.918 58.0467 116.124 57.966 116.373 57.966C116.622 57.966 116.82 58.0467 116.967 58.208C117.128 58.3547 117.209 58.56 117.209 58.824V63.004H121.851V63.312C122.614 63.312 123.288 63.4513 123.875 63.73C124.476 64.0087 124.938 64.3973 125.261 64.896C125.598 65.38 125.767 65.9373 125.767 66.568C125.767 67.2427 125.598 67.8367 125.261 68.35C124.938 68.8633 124.476 69.2667 123.875 69.56C123.288 69.8533 122.614 70 121.851 70H116.373ZM117.209 68.438H121.851C122.511 68.438 123.054 68.2693 123.479 67.932C123.904 67.5947 124.117 67.1107 124.117 66.48C124.117 65.82 123.904 65.3213 123.479 64.984C123.054 64.632 122.511 64.456 121.851 64.456H117.209V68.438ZM119.673 63.95V63.004H121.851C122.364 63.004 122.782 62.8353 123.105 62.498C123.428 62.1607 123.589 61.728 123.589 61.2C123.589 60.7307 123.413 60.3347 123.061 60.012C122.724 59.6747 122.291 59.506 121.763 59.506H116.395V57.966H121.763C122.438 57.966 123.032 58.1053 123.545 58.384C124.073 58.648 124.484 59.0147 124.777 59.484C125.085 59.9533 125.239 60.496 125.239 61.112C125.239 62.0653 124.916 62.7767 124.271 63.246C123.64 63.7153 122.834 63.95 121.851 63.95H119.673ZM133.504 70.22C132.551 70.22 131.707 70.0293 130.974 69.648C130.255 69.2667 129.683 68.7387 129.258 68.064C128.847 67.3893 128.642 66.612 128.642 65.732V58.802C128.657 58.5527 128.737 58.3547 128.884 58.208C129.045 58.0467 129.251 57.966 129.5 57.966C129.749 57.966 129.947 58.0467 130.094 58.208C130.255 58.3547 130.336 58.56 130.336 58.824V61.948H133.592C134.472 61.948 135.249 62.1167 135.924 62.454C136.613 62.7767 137.149 63.246 137.53 63.862C137.911 64.4633 138.102 65.182 138.102 66.018C138.102 66.8687 137.904 67.6093 137.508 68.24C137.127 68.8707 136.584 69.362 135.88 69.714C135.191 70.0513 134.399 70.22 133.504 70.22ZM133.504 68.658C134.355 68.658 135.059 68.438 135.616 67.998C136.173 67.558 136.452 66.898 136.452 66.018C136.452 65.138 136.181 64.4853 135.638 64.06C135.11 63.6347 134.428 63.422 133.592 63.422H130.336V65.732C130.336 66.5827 130.629 67.2867 131.216 67.844C131.817 68.3867 132.58 68.658 133.504 68.658ZM140.852 70C140.603 70 140.397 69.9267 140.236 69.78C140.089 69.6187 140.016 69.406 140.016 69.142V58.824C140.016 58.56 140.089 58.3547 140.236 58.208C140.397 58.0467 140.603 57.966 140.852 57.966C141.116 57.966 141.321 58.0467 141.468 58.208C141.629 58.3547 141.71 58.56 141.71 58.824V69.142C141.71 69.406 141.629 69.6187 141.468 69.78C141.321 69.9267 141.116 70 140.852 70ZM146.537 70C146.273 70 146.061 69.9267 145.899 69.78C145.753 69.6187 145.679 69.406 145.679 69.142V58.802C145.694 58.5527 145.775 58.3547 145.921 58.208C146.083 58.0467 146.288 57.966 146.537 57.966C146.787 57.966 146.985 58.0467 147.131 58.208C147.293 58.3547 147.373 58.56 147.373 58.824V63.004H152.015V63.312C152.778 63.312 153.453 63.4513 154.039 63.73C154.641 64.0087 155.103 64.3973 155.425 64.896C155.763 65.38 155.931 65.9373 155.931 66.568C155.931 67.2427 155.763 67.8367 155.425 68.35C155.103 68.8633 154.641 69.2667 154.039 69.56C153.453 69.8533 152.778 70 152.015 70H146.537ZM147.373 68.438H152.015C152.675 68.438 153.218 68.2693 153.643 67.932C154.069 67.5947 154.281 67.1107 154.281 66.48C154.281 65.82 154.069 65.3213 153.643 64.984C153.218 64.632 152.675 64.456 152.015 64.456H147.373V68.438ZM149.837 63.95V63.004H152.015C152.529 63.004 152.947 62.8353 153.269 62.498C153.592 62.1607 153.753 61.728 153.753 61.2C153.753 60.7307 153.577 60.3347 153.225 60.012C152.888 59.6747 152.455 59.506 151.927 59.506H146.559V57.966H151.927C152.602 57.966 153.196 58.1053 153.709 58.384C154.237 58.648 154.648 59.0147 154.941 59.484C155.249 59.9533 155.403 60.496 155.403 61.112C155.403 62.0653 155.081 62.7767 154.435 63.246C153.805 63.7153 152.998 63.95 152.015 63.95H149.837ZM164.284 70.11C163.111 70.11 162.062 69.846 161.138 69.318C160.214 68.79 159.488 68.064 158.96 67.14C158.432 66.216 158.168 65.1673 158.168 63.994C158.168 62.806 158.432 61.75 158.96 60.826C159.488 59.902 160.214 59.176 161.138 58.648C162.062 58.12 163.111 57.856 164.284 57.856C165.458 57.856 166.499 58.12 167.408 58.648C168.332 59.176 169.058 59.902 169.586 60.826C170.114 61.75 170.386 62.806 170.4 63.994C170.4 65.1673 170.129 66.216 169.586 67.14C169.058 68.064 168.332 68.79 167.408 69.318C166.499 69.846 165.458 70.11 164.284 70.11ZM164.284 68.57C165.135 68.57 165.898 68.372 166.572 67.976C167.247 67.58 167.775 67.0373 168.156 66.348C168.538 65.6587 168.728 64.874 168.728 63.994C168.728 63.114 168.538 62.3293 168.156 61.64C167.775 60.936 167.247 60.386 166.572 59.99C165.898 59.594 165.135 59.396 164.284 59.396C163.434 59.396 162.671 59.594 161.996 59.99C161.322 60.386 160.786 60.936 160.39 61.64C160.009 62.3293 159.818 63.114 159.818 63.994C159.818 64.874 160.009 65.6587 160.39 66.348C160.786 67.0373 161.322 67.58 161.996 67.976C162.671 68.372 163.434 68.57 164.284 68.57ZM177.501 70.198C176.87 70.198 176.254 70.1173 175.653 69.956C175.052 69.78 174.509 69.5453 174.025 69.252C173.541 68.944 173.16 68.6067 172.881 68.24C172.734 68.0493 172.676 67.844 172.705 67.624C172.749 67.404 172.881 67.228 173.101 67.096C173.262 66.9933 173.453 66.9713 173.673 67.03C173.908 67.074 174.098 67.1767 174.245 67.338C174.612 67.7193 175.074 68.0347 175.631 68.284C176.188 68.5333 176.804 68.658 177.479 68.658C178.359 68.658 179.07 68.4747 179.613 68.108C180.17 67.7413 180.449 67.2207 180.449 66.546C180.449 65.9593 180.229 65.468 179.789 65.072C179.364 64.676 178.828 64.4633 178.183 64.434H177.061C176.782 64.434 176.555 64.368 176.379 64.236C176.203 64.0893 176.115 63.9133 176.115 63.708C176.115 63.5027 176.203 63.334 176.379 63.202C176.555 63.07 176.782 63.004 177.061 63.004H178.183C178.726 62.9893 179.166 62.806 179.503 62.454C179.84 62.102 180.009 61.6693 180.009 61.156C180.009 60.628 179.774 60.1953 179.305 59.858C178.85 59.5207 178.234 59.352 177.457 59.352C176.738 59.352 176.137 59.4693 175.653 59.704C175.169 59.9387 174.78 60.2393 174.487 60.606C174.326 60.782 174.135 60.892 173.915 60.936C173.71 60.9653 173.512 60.9213 173.321 60.804C173.13 60.7013 173.02 60.54 172.991 60.32C172.976 60.1 173.042 59.8947 173.189 59.704C173.658 59.1613 174.252 58.7067 174.971 58.34C175.704 57.9733 176.526 57.79 177.435 57.79C178.256 57.79 178.982 57.9367 179.613 58.23C180.258 58.5087 180.764 58.8973 181.131 59.396C181.498 59.88 181.681 60.4227 181.681 61.024C181.681 61.508 181.549 61.9553 181.285 62.366C181.036 62.762 180.691 63.092 180.251 63.356C179.826 63.6053 179.349 63.752 178.821 63.796V63.554C179.437 63.554 179.994 63.686 180.493 63.95C180.992 64.214 181.388 64.5807 181.681 65.05C181.974 65.5047 182.121 66.018 182.121 66.59C182.121 67.2793 181.916 67.8953 181.505 68.438C181.109 68.9807 180.559 69.4133 179.855 69.736C179.166 70.044 178.381 70.198 177.501 70.198Z" fill="black"/>
<path d="M54.46 115.492C53.8 114.4 53.284 113.14 52.912 111.712C52.552 110.272 52.372 108.724 52.372 107.068C52.372 105.412 52.552 103.864 52.912 102.424C53.284 100.972 53.8 99.712 54.46 98.644H55.684C54.976 99.88 54.454 101.194 54.118 102.586C53.794 103.966 53.632 105.46 53.632 107.068C53.632 108.676 53.794 110.176 54.118 111.568C54.454 112.948 54.976 114.256 55.684 115.492H54.46ZM58.5478 112V99.4H67.7638V100.534H59.8618V104.656H63.9838C65.4718 104.656 66.5998 104.962 67.3678 105.574C68.1478 106.174 68.5378 107.062 68.5378 108.238C68.5378 109.45 68.1178 110.38 67.2778 111.028C66.4498 111.676 65.2558 112 63.6958 112H58.5478ZM59.8618 110.938H63.6778C64.8418 110.938 65.7178 110.716 66.3058 110.272C66.9058 109.816 67.2058 109.156 67.2058 108.292C67.2058 106.576 66.0298 105.718 63.6778 105.718H59.8618V110.938ZM77.1704 112V109.912L77.1164 109.57V106.078C77.1164 105.274 76.8884 104.656 76.4324 104.224C75.9884 103.792 75.3224 103.576 74.4344 103.576C73.8224 103.576 73.2404 103.678 72.6884 103.882C72.1364 104.086 71.6684 104.356 71.2844 104.692L70.7084 103.738C71.1884 103.33 71.7644 103.018 72.4364 102.802C73.1084 102.574 73.8164 102.46 74.5604 102.46C75.7844 102.46 76.7264 102.766 77.3864 103.378C78.0584 103.978 78.3944 104.896 78.3944 106.132V112H77.1704ZM73.9124 112.09C73.2044 112.09 72.5864 111.976 72.0584 111.748C71.5424 111.508 71.1464 111.184 70.8704 110.776C70.5944 110.356 70.4564 109.876 70.4564 109.336C70.4564 108.844 70.5704 108.4 70.7984 108.004C71.0384 107.596 71.4224 107.272 71.9504 107.032C72.4904 106.78 73.2104 106.654 74.1104 106.654H77.3684V107.608H74.1464C73.2344 107.608 72.5984 107.77 72.2384 108.094C71.8904 108.418 71.7164 108.82 71.7164 109.3C71.7164 109.84 71.9264 110.272 72.3464 110.596C72.7664 110.92 73.3544 111.082 74.1104 111.082C74.8304 111.082 75.4484 110.92 75.9644 110.596C76.4924 110.26 76.8764 109.78 77.1164 109.156L77.4044 110.038C77.1644 110.662 76.7444 111.16 76.1444 111.532C75.5564 111.904 74.8124 112.09 73.9124 112.09ZM81.7965 112V102.55H85.9725C87.0405 102.55 87.8805 102.754 88.4925 103.162C89.1165 103.57 89.4285 104.17 89.4285 104.962C89.4285 105.73 89.1345 106.324 88.5465 106.744C87.9585 107.152 87.1845 107.356 86.2245 107.356L86.4765 106.978C87.6045 106.978 88.4325 107.188 88.9605 107.608C89.4885 108.028 89.7525 108.634 89.7525 109.426C89.7525 110.242 89.4525 110.878 88.8525 111.334C88.2645 111.778 87.3465 112 86.0985 112H81.7965ZM83.0385 110.992H86.0445C86.8485 110.992 87.4545 110.866 87.8625 110.614C88.2825 110.35 88.4925 109.93 88.4925 109.354C88.4925 108.778 88.3065 108.358 87.9345 108.094C87.5625 107.83 86.9745 107.698 86.1705 107.698H83.0385V110.992ZM83.0385 106.744H85.8825C86.6145 106.744 87.1725 106.606 87.5565 106.33C87.9525 106.054 88.1505 105.652 88.1505 105.124C88.1505 104.596 87.9525 104.2 87.5565 103.936C87.1725 103.672 86.6145 103.54 85.8825 103.54H83.0385V106.744ZM91.0197 111.982L91.1097 110.884C91.1937 110.896 91.2717 110.914 91.3437 110.938C91.4277 110.95 91.4997 110.956 91.5597 110.956C91.9437 110.956 92.2497 110.812 92.4777 110.524C92.7177 110.236 92.8977 109.852 93.0177 109.372C93.1377 108.892 93.2217 108.352 93.2697 107.752C93.3177 107.14 93.3597 106.528 93.3957 105.916L93.5577 102.55H100.488V112H99.2097V103.288L99.5337 103.666H94.3857L94.6917 103.27L94.5477 106.006C94.5117 106.822 94.4457 107.602 94.3497 108.346C94.2657 109.09 94.1277 109.744 93.9357 110.308C93.7557 110.872 93.5037 111.316 93.1797 111.64C92.8557 111.952 92.4417 112.108 91.9377 112.108C91.7937 112.108 91.6437 112.096 91.4877 112.072C91.3437 112.048 91.1877 112.018 91.0197 111.982ZM113.337 112V102.55H114.615V112H113.337ZM108.099 105.88C109.287 105.892 110.193 106.156 110.817 106.672C111.441 107.188 111.753 107.932 111.753 108.904C111.753 109.912 111.417 110.686 110.745 111.226C110.073 111.766 109.113 112.03 107.865 112.018L104.121 112V102.55H105.399V105.844L108.099 105.88ZM107.775 111.046C108.663 111.058 109.329 110.884 109.773 110.524C110.229 110.152 110.457 109.612 110.457 108.904C110.457 108.196 110.235 107.68 109.791 107.356C109.347 107.02 108.675 106.846 107.775 106.834L105.399 106.798V111.01L107.775 111.046ZM117.444 114.628L118.236 111.298L118.38 112.072C118.104 112.072 117.87 111.982 117.678 111.802C117.498 111.622 117.408 111.388 117.408 111.1C117.408 110.812 117.498 110.578 117.678 110.398C117.87 110.218 118.098 110.128 118.362 110.128C118.638 110.128 118.86 110.224 119.028 110.416C119.208 110.608 119.298 110.836 119.298 111.1C119.298 111.196 119.292 111.292 119.28 111.388C119.268 111.484 119.244 111.592 119.208 111.712C119.172 111.832 119.124 111.976 119.064 112.144L118.308 114.628H117.444ZM125.231 112L130.991 99.4H132.305L138.065 112H136.661L131.369 100.174H131.909L126.617 112H125.231ZM127.499 108.634L127.895 107.554H135.221L135.617 108.634H127.499ZM138.445 111.982L138.535 110.884C138.619 110.896 138.697 110.914 138.769 110.938C138.853 110.95 138.925 110.956 138.985 110.956C139.369 110.956 139.675 110.812 139.903 110.524C140.143 110.236 140.323 109.852 140.443 109.372C140.563 108.892 140.647 108.352 140.695 107.752C140.743 107.14 140.785 106.528 140.821 105.916L140.983 102.55H147.913V112H146.635V103.288L146.959 103.666H141.811L142.117 103.27L141.973 106.006C141.937 106.822 141.871 107.602 141.775 108.346C141.691 109.09 141.553 109.744 141.361 110.308C141.181 110.872 140.929 111.316 140.605 111.64C140.281 111.952 139.867 112.108 139.363 112.108C139.219 112.108 139.069 112.096 138.913 112.072C138.769 112.048 138.613 112.018 138.445 111.982ZM155.615 105.88C156.803 105.892 157.703 106.156 158.315 106.672C158.939 107.188 159.251 107.932 159.251 108.904C159.251 109.912 158.915 110.686 158.243 111.226C157.583 111.766 156.623 112.03 155.363 112.018L151.547 112V102.55H152.825V105.844L155.615 105.88ZM155.291 111.046C156.167 111.058 156.827 110.884 157.271 110.524C157.727 110.152 157.955 109.612 157.955 108.904C157.955 108.196 157.733 107.68 157.289 107.356C156.845 107.02 156.179 106.846 155.291 106.834L152.825 106.798V111.01L155.291 111.046ZM161.689 112V102.55H162.985L167.269 109.804H166.729L171.085 102.55H172.273V112H171.103V104.008L171.337 104.116L167.269 110.848H166.693L162.589 104.044L162.859 103.99V112H161.689ZM179.96 112.09C178.976 112.09 178.112 111.886 177.368 111.478C176.624 111.058 176.042 110.488 175.622 109.768C175.202 109.036 174.992 108.202 174.992 107.266C174.992 106.33 175.19 105.502 175.586 104.782C175.994 104.062 176.546 103.498 177.242 103.09C177.95 102.67 178.742 102.46 179.618 102.46C180.506 102.46 181.292 102.664 181.976 103.072C182.672 103.468 183.218 104.032 183.614 104.764C184.01 105.484 184.208 106.318 184.208 107.266C184.208 107.326 184.202 107.392 184.19 107.464C184.19 107.524 184.19 107.59 184.19 107.662H175.964V106.708H183.506L183.002 107.086C183.002 106.402 182.852 105.796 182.552 105.268C182.264 104.728 181.868 104.308 181.364 104.008C180.86 103.708 180.278 103.558 179.618 103.558C178.97 103.558 178.388 103.708 177.872 104.008C177.356 104.308 176.954 104.728 176.666 105.268C176.378 105.808 176.234 106.426 176.234 107.122V107.32C176.234 108.04 176.39 108.676 176.702 109.228C177.026 109.768 177.47 110.194 178.034 110.506C178.61 110.806 179.264 110.956 179.996 110.956C180.572 110.956 181.106 110.854 181.598 110.65C182.102 110.446 182.534 110.134 182.894 109.714L183.614 110.542C183.194 111.046 182.666 111.43 182.03 111.694C181.406 111.958 180.716 112.09 179.96 112.09ZM188.415 112V103.324L188.739 103.666H184.833V102.55H193.275V103.666H189.369L189.693 103.324V112H188.415ZM199.191 105.88C200.379 105.892 201.279 106.156 201.891 106.672C202.515 107.188 202.827 107.932 202.827 108.904C202.827 109.912 202.491 110.686 201.819 111.226C201.159 111.766 200.199 112.03 198.939 112.018L195.123 112V102.55H196.401V105.844L199.191 105.88ZM198.867 111.046C199.743 111.058 200.403 110.884 200.847 110.524C201.303 110.152 201.531 109.612 201.531 108.904C201.531 108.196 201.309 107.68 200.865 107.356C200.421 107.02 199.755 106.846 198.867 106.834L196.401 106.798V111.01L198.867 111.046ZM209.315 112.09C208.331 112.09 207.467 111.886 206.723 111.478C205.979 111.058 205.397 110.488 204.977 109.768C204.557 109.036 204.347 108.202 204.347 107.266C204.347 106.33 204.545 105.502 204.941 104.782C205.349 104.062 205.901 103.498 206.597 103.09C207.305 102.67 208.097 102.46 208.973 102.46C209.861 102.46 210.647 102.664 211.331 103.072C212.027 103.468 212.573 104.032 212.969 104.764C213.365 105.484 213.563 106.318 213.563 107.266C213.563 107.326 213.557 107.392 213.545 107.464C213.545 107.524 213.545 107.59 213.545 107.662H205.319V106.708H212.861L212.357 107.086C212.357 106.402 212.207 105.796 211.907 105.268C211.619 104.728 211.223 104.308 210.719 104.008C210.215 103.708 209.633 103.558 208.973 103.558C208.325 103.558 207.743 103.708 207.227 104.008C206.711 104.308 206.309 104.728 206.021 105.268C205.733 105.808 205.589 106.426 205.589 107.122V107.32C205.589 108.04 205.745 108.676 206.057 109.228C206.381 109.768 206.825 110.194 207.389 110.506C207.965 110.806 208.619 110.956 209.351 110.956C209.927 110.956 210.461 110.854 210.953 110.65C211.457 110.446 211.889 110.134 212.249 109.714L212.969 110.542C212.549 111.046 212.021 111.43 211.385 111.694C210.761 111.958 210.071 112.09 209.315 112.09ZM216.392 112V102.55H220.568C221.636 102.55 222.476 102.754 223.088 103.162C223.712 103.57 224.024 104.17 224.024 104.962C224.024 105.73 223.73 106.324 223.142 106.744C222.554 107.152 221.78 107.356 220.82 107.356L221.072 106.978C222.2 106.978 223.028 107.188 223.556 107.608C224.084 108.028 224.348 108.634 224.348 109.426C224.348 110.242 224.048 110.878 223.448 111.334C222.86 111.778 221.942 112 220.694 112H216.392ZM217.634 110.992H220.64C221.444 110.992 222.05 110.866 222.458 110.614C222.878 110.35 223.088 109.93 223.088 109.354C223.088 108.778 222.902 108.358 222.53 108.094C222.158 107.83 221.57 107.698 220.766 107.698H217.634V110.992ZM217.634 106.744H220.478C221.21 106.744 221.768 106.606 222.152 106.33C222.548 106.054 222.746 105.652 222.746 105.124C222.746 104.596 222.548 104.2 222.152 103.936C221.768 103.672 221.21 103.54 220.478 103.54H217.634V106.744ZM231.303 112.09C230.367 112.09 229.527 111.886 228.783 111.478C228.051 111.058 227.475 110.488 227.055 109.768C226.635 109.036 226.425 108.202 226.425 107.266C226.425 106.318 226.635 105.484 227.055 104.764C227.475 104.044 228.051 103.48 228.783 103.072C229.527 102.664 230.367 102.46 231.303 102.46C232.107 102.46 232.833 102.616 233.481 102.928C234.129 103.24 234.639 103.708 235.011 104.332L234.057 104.98C233.733 104.5 233.331 104.146 232.851 103.918C232.371 103.69 231.849 103.576 231.285 103.576C230.613 103.576 230.007 103.732 229.467 104.044C228.927 104.344 228.501 104.77 228.189 105.322C227.877 105.874 227.721 106.522 227.721 107.266C227.721 108.01 227.877 108.658 228.189 109.21C228.501 109.762 228.927 110.194 229.467 110.506C230.007 110.806 230.613 110.956 231.285 110.956C231.849 110.956 232.371 110.842 232.851 110.614C233.331 110.386 233.733 110.038 234.057 109.57L235.011 110.218C234.639 110.83 234.129 111.298 233.481 111.622C232.833 111.934 232.107 112.09 231.303 112.09ZM244.416 112L240.528 107.32L241.59 106.69L245.928 112H244.416ZM237.486 112V102.55H238.764V112H237.486ZM238.368 107.788V106.69H241.41V107.788H238.368ZM241.698 107.41L240.51 107.23L244.272 102.55H245.658L241.698 107.41ZM248.071 115.492H246.847C247.567 114.256 248.089 112.948 248.413 111.568C248.749 110.176 248.917 108.676 248.917 107.068C248.917 105.46 248.749 103.966 248.413 102.586C248.089 101.194 247.567 99.88 246.847 98.644H248.071C248.755 99.712 249.277 100.972 249.637 102.424C249.997 103.864 250.177 105.412 250.177 107.068C250.177 108.724 249.997 110.272 249.637 111.712C249.277 113.14 248.755 114.4 248.071 115.492Z" fill="black"/>
<path d="M62.5 189C68.023 189 72.5 184.523 72.5 179C72.5 173.477 68.023 169 62.5 169C56.977 169 52.5 173.477 52.5 179C52.5 184.523 56.977 189 62.5 189Z" stroke="black" stroke-width="1.5" stroke-linecap="round" stroke-linejoin="round"/>
<path d="M65.5 175.5C64.815 174.815 63.609 174.339 62.5 174.309M62.5 174.309C61.18 174.273 60 174.87 60 176.5C60 179.5 65.5 178 65.5 181C65.5 182.711 64.036 183.446 62.5 183.391M62.5 174.309V172.5M59.5 182C60.144 182.86 61.343 183.35 62.5 183.391M62.5 183.391V185.5" stroke="black" stroke-width="1.5" stroke-linecap="round" stroke-linejoin="round"/>
<path d="M99.198 184.108C98.286 184.108 97.422 183.964 96.606 183.676C95.802 183.376 95.154 182.98 94.662 182.488L95.292 181.462C95.7 181.882 96.246 182.23 96.93 182.506C97.626 182.782 98.382 182.92 99.198 182.92C100.242 182.92 101.04 182.692 101.592 182.236C102.156 181.78 102.438 181.168 102.438 180.4C102.438 179.632 102.162 179.02 101.61 178.564C101.07 178.108 100.212 177.88 99.036 177.88H98.136V176.926L102.024 172.048L102.204 172.552H95.184V171.4H103.284V172.318L99.396 177.196L98.766 176.782H99.252C100.764 176.782 101.892 177.118 102.636 177.79C103.392 178.462 103.77 179.326 103.77 180.382C103.77 181.09 103.602 181.726 103.266 182.29C102.93 182.854 102.42 183.298 101.736 183.622C101.064 183.946 100.218 184.108 99.198 184.108ZM109.398 184.108C108.498 184.108 107.64 183.964 106.824 183.676C106.008 183.376 105.36 182.98 104.88 182.488L105.51 181.462C105.906 181.882 106.446 182.23 107.13 182.506C107.826 182.782 108.576 182.92 109.38 182.92C110.448 182.92 111.258 182.686 111.81 182.218C112.374 181.738 112.656 181.114 112.656 180.346C112.656 179.806 112.524 179.344 112.26 178.96C112.008 178.564 111.576 178.258 110.964 178.042C110.352 177.826 109.512 177.718 108.444 177.718H105.762L106.41 171.4H113.304V172.552H106.932L107.598 171.922L107.04 177.214L106.374 176.566H108.732C110.004 176.566 111.024 176.722 111.792 177.034C112.56 177.346 113.112 177.784 113.448 178.348C113.796 178.9 113.97 179.548 113.97 180.292C113.97 181 113.802 181.648 113.466 182.236C113.13 182.812 112.626 183.268 111.954 183.604C111.282 183.94 110.43 184.108 109.398 184.108ZM120.638 184.108C119.666 184.108 118.802 183.856 118.046 183.352C117.29 182.836 116.696 182.104 116.264 181.156C115.832 180.196 115.616 179.044 115.616 177.7C115.616 176.356 115.832 175.21 116.264 174.262C116.696 173.302 117.29 172.57 118.046 172.066C118.802 171.55 119.666 171.292 120.638 171.292C121.61 171.292 122.474 171.55 123.23 172.066C123.986 172.57 124.58 173.302 125.012 174.262C125.456 175.21 125.678 176.356 125.678 177.7C125.678 179.044 125.456 180.196 125.012 181.156C124.58 182.104 123.986 182.836 123.23 183.352C122.474 183.856 121.61 184.108 120.638 184.108ZM120.638 182.92C121.382 182.92 122.03 182.722 122.582 182.326C123.134 181.918 123.566 181.33 123.878 180.562C124.19 179.782 124.346 178.828 124.346 177.7C124.346 176.572 124.19 175.624 123.878 174.856C123.566 174.076 123.134 173.488 122.582 173.092C122.03 172.684 121.382 172.48 120.638 172.48C119.918 172.48 119.276 172.684 118.712 173.092C118.148 173.488 117.71 174.076 117.398 174.856C117.086 175.624 116.93 176.572 116.93 177.7C116.93 178.828 117.086 179.782 117.398 180.562C117.71 181.33 118.148 181.918 118.712 182.326C119.276 182.722 119.918 182.92 120.638 182.92ZM138.005 184.09C137.189 184.09 136.451 183.904 135.791 183.532C135.131 183.148 134.603 182.602 134.207 181.894C133.823 181.174 133.631 180.298 133.631 179.266C133.631 178.234 133.823 177.364 134.207 176.656C134.591 175.936 135.113 175.39 135.773 175.018C136.433 174.646 137.177 174.46 138.005 174.46C138.905 174.46 139.709 174.664 140.417 175.072C141.137 175.468 141.701 176.032 142.109 176.764C142.517 177.484 142.721 178.318 142.721 179.266C142.721 180.226 142.517 181.066 142.109 181.786C141.701 182.506 141.137 183.07 140.417 183.478C139.709 183.886 138.905 184.09 138.005 184.09ZM133.127 187.492V174.55H134.351V177.394L134.225 179.284L134.405 181.192V187.492H133.127ZM137.915 182.956C138.587 182.956 139.187 182.806 139.715 182.506C140.243 182.194 140.663 181.762 140.975 181.21C141.287 180.646 141.443 179.998 141.443 179.266C141.443 178.534 141.287 177.892 140.975 177.34C140.663 176.788 140.243 176.356 139.715 176.044C139.187 175.732 138.587 175.576 137.915 175.576C137.243 175.576 136.637 175.732 136.097 176.044C135.569 176.356 135.149 176.788 134.837 177.34C134.537 177.892 134.387 178.534 134.387 179.266C134.387 179.998 134.537 180.646 134.837 181.21C135.149 181.762 135.569 182.194 136.097 182.506C136.637 182.806 137.243 182.956 137.915 182.956ZM145.293 184.09C145.029 184.09 144.801 183.994 144.609 183.802C144.429 183.61 144.339 183.376 144.339 183.1C144.339 182.812 144.429 182.578 144.609 182.398C144.801 182.218 145.029 182.128 145.293 182.128C145.557 182.128 145.779 182.218 145.959 182.398C146.151 182.578 146.247 182.812 146.247 183.1C146.247 183.376 146.151 183.61 145.959 183.802C145.779 183.994 145.557 184.09 145.293 184.09Z" fill="black"/>
<path d="M53.3574 228.428H71.6431M55.6431 223.857H69.3574C69.9636 223.857 70.545 224.098 70.9737 224.526C71.4023 224.955 71.6431 225.536 71.6431 226.143V239.857C71.6431 240.463 71.4023 241.045 70.9737 241.473C70.545 241.902 69.9636 242.143 69.3574 242.143H55.6431C55.0369 242.143 54.4555 241.902 54.0269 241.473C53.5982 241.045 53.3574 240.463 53.3574 239.857V226.143C53.3574 225.536 53.5982 224.955 54.0269 224.526C54.4555 224.098 55.0369 223.857 55.6431 223.857Z" stroke="black" stroke-linecap="round" stroke-linejoin="round"/>
<path d="M62.5003 234.143C63.1315 234.143 63.6431 233.631 63.6431 233C63.6431 232.369 63.1315 231.857 62.5003 231.857C61.8691 231.857 61.3574 232.369 61.3574 233C61.3574 233.631 61.8691 234.143 62.5003 234.143Z" fill="black"/>
<path d="M57.928 234.143C58.5592 234.143 59.0709 233.631 59.0709 233C59.0709 232.369 58.5592 231.857 57.928 231.857C57.2968 231.857 56.7852 232.369 56.7852 233C56.7852 233.631 57.2968 234.143 57.928 234.143Z" fill="black"/>
<path d="M57.928 238.714C58.5592 238.714 59.0709 238.202 59.0709 237.571C59.0709 236.94 58.5592 236.428 57.928 236.428C57.2968 236.428 56.7852 236.94 56.7852 237.571C56.7852 238.202 57.2968 238.714 57.928 238.714Z" fill="black"/>
<path d="M97.632 238V225.94L98.208 226.552H94.662V225.4H98.928V238H97.632ZM102.084 233.68V232.564H106.8V233.68H102.084ZM112.223 238.108C111.311 238.108 110.447 237.964 109.631 237.676C108.827 237.376 108.179 236.98 107.687 236.488L108.317 235.462C108.725 235.882 109.271 236.23 109.955 236.506C110.651 236.782 111.407 236.92 112.223 236.92C113.267 236.92 114.065 236.692 114.617 236.236C115.181 235.78 115.463 235.168 115.463 234.4C115.463 233.632 115.187 233.02 114.635 232.564C114.095 232.108 113.237 231.88 112.061 231.88H111.161V230.926L115.049 226.048L115.229 226.552H108.209V225.4H116.309V226.318L112.421 231.196L111.791 230.782H112.277C113.789 230.782 114.917 231.118 115.661 231.79C116.417 232.462 116.795 233.326 116.795 234.382C116.795 235.09 116.627 235.726 116.291 236.29C115.955 236.854 115.445 237.298 114.761 237.622C114.089 237.946 113.243 238.108 112.223 238.108ZM129.092 238.09C128.276 238.09 127.538 237.904 126.878 237.532C126.218 237.148 125.69 236.602 125.294 235.894C124.91 235.174 124.718 234.298 124.718 233.266C124.718 232.234 124.91 231.364 125.294 230.656C125.678 229.936 126.2 229.39 126.86 229.018C127.52 228.646 128.264 228.46 129.092 228.46C129.992 228.46 130.796 228.664 131.504 229.072C132.224 229.468 132.788 230.032 133.196 230.764C133.604 231.484 133.808 232.318 133.808 233.266C133.808 234.226 133.604 235.066 133.196 235.786C132.788 236.506 132.224 237.07 131.504 237.478C130.796 237.886 129.992 238.09 129.092 238.09ZM124.214 241.492V228.55H125.438V231.394L125.312 233.284L125.492 235.192V241.492H124.214ZM129.002 236.956C129.674 236.956 130.274 236.806 130.802 236.506C131.33 236.194 131.75 235.762 132.062 235.21C132.374 234.646 132.53 233.998 132.53 233.266C132.53 232.534 132.374 231.892 132.062 231.34C131.75 230.788 131.33 230.356 130.802 230.044C130.274 229.732 129.674 229.576 129.002 229.576C128.33 229.576 127.724 229.732 127.184 230.044C126.656 230.356 126.236 230.788 125.924 231.34C125.624 231.892 125.474 232.534 125.474 233.266C125.474 233.998 125.624 234.646 125.924 235.21C126.236 235.762 126.656 236.194 127.184 236.506C127.724 236.806 128.33 236.956 129.002 236.956ZM142.37 238V235.912L142.316 235.57V232.078C142.316 231.274 142.088 230.656 141.632 230.224C141.188 229.792 140.522 229.576 139.634 229.576C139.022 229.576 138.44 229.678 137.888 229.882C137.336 230.086 136.868 230.356 136.484 230.692L135.908 229.738C136.388 229.33 136.964 229.018 137.636 228.802C138.308 228.574 139.016 228.46 139.76 228.46C140.984 228.46 141.926 228.766 142.586 229.378C143.258 229.978 143.594 230.896 143.594 232.132V238H142.37ZM139.112 238.09C138.404 238.09 137.786 237.976 137.258 237.748C136.742 237.508 136.346 237.184 136.07 236.776C135.794 236.356 135.656 235.876 135.656 235.336C135.656 234.844 135.77 234.4 135.998 234.004C136.238 233.596 136.622 233.272 137.15 233.032C137.69 232.78 138.41 232.654 139.31 232.654H142.568V233.608H139.346C138.434 233.608 137.798 233.77 137.438 234.094C137.09 234.418 136.916 234.82 136.916 235.3C136.916 235.84 137.126 236.272 137.546 236.596C137.966 236.92 138.554 237.082 139.31 237.082C140.03 237.082 140.648 236.92 141.164 236.596C141.692 236.26 142.076 235.78 142.316 235.156L142.604 236.038C142.364 236.662 141.944 237.16 141.344 237.532C140.756 237.904 140.012 238.09 139.112 238.09ZM151.244 238.108C150.476 238.108 149.792 237.982 149.192 237.73C148.604 237.478 148.1 237.094 147.68 236.578C147.26 236.062 146.942 235.426 146.726 234.67C146.51 233.902 146.402 233.014 146.402 232.006C146.402 231.106 146.486 230.32 146.654 229.648C146.822 228.964 147.056 228.376 147.356 227.884C147.656 227.392 148.004 226.978 148.4 226.642C148.808 226.294 149.246 226.018 149.714 225.814C150.194 225.598 150.686 225.436 151.19 225.328L155.438 224.338L155.654 225.526L151.658 226.426C151.406 226.486 151.1 226.57 150.74 226.678C150.392 226.786 150.032 226.948 149.66 227.164C149.3 227.38 148.964 227.68 148.652 228.064C148.34 228.448 148.088 228.946 147.896 229.558C147.716 230.158 147.626 230.908 147.626 231.808C147.626 232 147.632 232.156 147.644 232.276C147.656 232.384 147.668 232.504 147.68 232.636C147.704 232.756 147.722 232.936 147.734 233.176L147.176 232.708C147.308 231.976 147.578 231.34 147.986 230.8C148.394 230.248 148.904 229.822 149.516 229.522C150.14 229.21 150.83 229.054 151.586 229.054C152.462 229.054 153.242 229.246 153.926 229.63C154.61 230.002 155.144 230.524 155.528 231.196C155.924 231.868 156.122 232.648 156.122 233.536C156.122 234.412 155.918 235.198 155.51 235.894C155.114 236.59 154.55 237.136 153.818 237.532C153.086 237.916 152.228 238.108 151.244 238.108ZM151.388 237.046C152.06 237.046 152.654 236.896 153.17 236.596C153.686 236.284 154.088 235.864 154.376 235.336C154.676 234.808 154.826 234.214 154.826 233.554C154.826 232.906 154.676 232.33 154.376 231.826C154.088 231.322 153.686 230.926 153.17 230.638C152.654 230.338 152.054 230.188 151.37 230.188C150.698 230.188 150.104 230.332 149.588 230.62C149.072 230.896 148.664 231.286 148.364 231.79C148.076 232.294 147.932 232.876 147.932 233.536C147.932 234.196 148.076 234.79 148.364 235.318C148.664 235.846 149.072 236.266 149.588 236.578C150.116 236.89 150.716 237.046 151.388 237.046ZM162.749 238.09C161.837 238.09 161.015 237.886 160.283 237.478C159.563 237.058 158.993 236.488 158.573 235.768C158.153 235.036 157.943 234.202 157.943 233.266C157.943 232.318 158.153 231.484 158.573 230.764C158.993 230.044 159.563 229.48 160.283 229.072C161.003 228.664 161.825 228.46 162.749 228.46C163.685 228.46 164.513 228.664 165.233 229.072C165.965 229.48 166.535 230.044 166.943 230.764C167.363 231.484 167.573 232.318 167.573 233.266C167.573 234.202 167.363 235.036 166.943 235.768C166.535 236.488 165.965 237.058 165.233 237.478C164.501 237.886 163.673 238.09 162.749 238.09ZM162.749 236.956C163.433 236.956 164.039 236.806 164.567 236.506C165.095 236.194 165.509 235.762 165.809 235.21C166.121 234.646 166.277 233.998 166.277 233.266C166.277 232.522 166.121 231.874 165.809 231.322C165.509 230.77 165.095 230.344 164.567 230.044C164.039 229.732 163.439 229.576 162.767 229.576C162.095 229.576 161.495 229.732 160.967 230.044C160.439 230.344 160.019 230.77 159.707 231.322C159.395 231.874 159.239 232.522 159.239 233.266C159.239 233.998 159.395 234.646 159.707 235.21C160.019 235.762 160.439 236.194 160.967 236.506C161.495 236.806 162.089 236.956 162.749 236.956ZM176.28 234.004C175.728 234.244 175.17 234.436 174.606 234.58C174.054 234.712 173.502 234.778 172.95 234.778C171.834 234.778 170.952 234.526 170.304 234.022C169.656 233.506 169.332 232.714 169.332 231.646V228.55H170.592V231.574C170.592 232.294 170.826 232.834 171.294 233.194C171.762 233.554 172.392 233.734 173.184 233.734C173.664 233.734 174.168 233.674 174.696 233.554C175.224 233.422 175.758 233.236 176.298 232.996L176.28 234.004ZM176.172 238V228.55H177.45V238H176.172ZM181.08 238V228.55H182.358V236.056L188.676 228.55H189.81V238H188.532V230.476L182.232 238H181.08ZM191.924 238L195.92 232.816L195.902 233.446L192.104 228.55H193.544L196.658 232.6L196.118 232.582L199.232 228.55H200.636L196.802 233.5L196.82 232.816L200.852 238H199.394L196.1 233.68L196.604 233.752L193.364 238H191.924ZM214.138 237.388V229.666H209.584L209.476 231.772C209.452 232.408 209.41 233.032 209.35 233.644C209.302 234.256 209.212 234.82 209.08 235.336C208.96 235.84 208.786 236.254 208.558 236.578C208.33 236.89 208.036 237.07 207.676 237.118L206.398 236.884C206.77 236.896 207.076 236.764 207.316 236.488C207.556 236.2 207.742 235.81 207.874 235.318C208.006 234.826 208.102 234.268 208.162 233.644C208.222 233.008 208.27 232.36 208.306 231.7L208.432 228.55H215.416V237.388H214.138ZM206.002 240.286V236.884H216.892V240.286H215.686V238H207.208V240.286H206.002ZM219.382 238V228.55H220.66V232.726H226.618V228.55H227.896V238H226.618V233.824H220.66V238H219.382ZM237.631 238V234.598L237.865 234.868H234.661C233.449 234.868 232.501 234.604 231.817 234.076C231.133 233.548 230.791 232.78 230.791 231.772C230.791 230.692 231.157 229.888 231.889 229.36C232.621 228.82 233.599 228.55 234.823 228.55H238.801V238H237.631ZM230.719 238L233.311 234.364H234.643L232.105 238H230.719ZM237.631 234.22V229.288L237.865 229.666H234.859C233.983 229.666 233.299 229.834 232.807 230.17C232.327 230.506 232.087 231.052 232.087 231.808C232.087 233.212 232.981 233.914 234.769 233.914H237.865L237.631 234.22Z" fill="black"/>
<path d="M58.75 290H64.75M52.75 284.75H72.25M67.75 290H69.25M54.25 280.25C53.5 280.25 52.75 281 52.75 281.75V292.25C52.75 293 53.5 293.75 54.25 293.75H70.75C71.5 293.75 72.25 293 72.25 292.25V281.75C72.25 281 71.5 280.25 70.75 280.25H54.25Z" stroke="black" stroke-width="2" stroke-linecap="round" stroke-linejoin="round"/>
<path d="M102.15 292.108C101.202 292.108 100.32 291.952 99.504 291.64C98.7 291.316 97.998 290.866 97.398 290.29C96.81 289.702 96.348 289.024 96.012 288.256C95.688 287.476 95.526 286.624 95.526 285.7C95.526 284.776 95.688 283.93 96.012 283.162C96.348 282.382 96.81 281.704 97.398 281.128C97.998 280.54 98.7 280.09 99.504 279.778C100.308 279.454 101.19 279.292 102.15 279.292C103.098 279.292 103.974 279.454 104.778 279.778C105.582 280.09 106.278 280.534 106.866 281.11C107.466 281.686 107.928 282.364 108.252 283.144C108.588 283.924 108.756 284.776 108.756 285.7C108.756 286.624 108.588 287.476 108.252 288.256C107.928 289.036 107.466 289.714 106.866 290.29C106.278 290.866 105.582 291.316 104.778 291.64C103.974 291.952 103.098 292.108 102.15 292.108ZM102.15 290.92C102.906 290.92 103.602 290.794 104.238 290.542C104.886 290.278 105.444 289.912 105.912 289.444C106.392 288.964 106.764 288.412 107.028 287.788C107.292 287.152 107.424 286.456 107.424 285.7C107.424 284.944 107.292 284.254 107.028 283.63C106.764 282.994 106.392 282.442 105.912 281.974C105.444 281.494 104.886 281.128 104.238 280.876C103.602 280.612 102.906 280.48 102.15 280.48C101.394 280.48 100.692 280.612 100.044 280.876C99.396 281.128 98.832 281.494 98.352 281.974C97.884 282.442 97.512 282.994 97.236 283.63C96.972 284.254 96.84 284.944 96.84 285.7C96.84 286.444 96.972 287.134 97.236 287.77C97.512 288.406 97.884 288.964 98.352 289.444C98.832 289.912 99.396 290.278 100.044 290.542C100.692 290.794 101.394 290.92 102.15 290.92ZM111.629 292V282.55H120.125V292H118.847V283.324L119.171 283.666H112.583L112.907 283.324V292H111.629ZM122.029 291.982L122.119 290.884C122.203 290.896 122.281 290.914 122.353 290.938C122.437 290.95 122.509 290.956 122.569 290.956C122.953 290.956 123.259 290.812 123.487 290.524C123.727 290.236 123.907 289.852 124.027 289.372C124.147 288.892 124.231 288.352 124.279 287.752C124.327 287.14 124.369 286.528 124.405 285.916L124.567 282.55H131.497V292H130.219V283.288L130.543 283.666H125.395L125.701 283.27L125.557 286.006C125.521 286.822 125.455 287.602 125.359 288.346C125.275 289.09 125.137 289.744 124.945 290.308C124.765 290.872 124.513 291.316 124.189 291.64C123.865 291.952 123.451 292.108 122.947 292.108C122.803 292.108 122.653 292.096 122.497 292.072C122.353 292.048 122.197 292.018 122.029 291.982ZM140.999 292V289.912L140.945 289.57V286.078C140.945 285.274 140.717 284.656 140.261 284.224C139.817 283.792 139.151 283.576 138.263 283.576C137.651 283.576 137.069 283.678 136.517 283.882C135.965 284.086 135.497 284.356 135.113 284.692L134.537 283.738C135.017 283.33 135.593 283.018 136.265 282.802C136.937 282.574 137.645 282.46 138.389 282.46C139.613 282.46 140.555 282.766 141.215 283.378C141.887 283.978 142.223 284.896 142.223 286.132V292H140.999ZM137.741 292.09C137.033 292.09 136.415 291.976 135.887 291.748C135.371 291.508 134.975 291.184 134.699 290.776C134.423 290.356 134.285 289.876 134.285 289.336C134.285 288.844 134.399 288.4 134.627 288.004C134.867 287.596 135.251 287.272 135.779 287.032C136.319 286.78 137.039 286.654 137.938 286.654H141.197V287.608H137.975C137.063 287.608 136.427 287.77 136.067 288.094C135.719 288.418 135.545 288.82 135.545 289.3C135.545 289.84 135.755 290.272 136.175 290.596C136.595 290.92 137.183 291.082 137.938 291.082C138.659 291.082 139.277 290.92 139.793 290.596C140.321 290.26 140.705 289.78 140.945 289.156L141.233 290.038C140.993 290.662 140.573 291.16 139.973 291.532C139.385 291.904 138.641 292.09 137.741 292.09ZM147.425 292V283.324L147.749 283.666H143.843V282.55H152.285V283.666H148.379L148.703 283.324V292H147.425ZM160 292V289.912L159.946 289.57V286.078C159.946 285.274 159.718 284.656 159.262 284.224C158.818 283.792 158.152 283.576 157.264 283.576C156.652 283.576 156.07 283.678 155.518 283.882C154.966 284.086 154.498 284.356 154.114 284.692L153.538 283.738C154.018 283.33 154.594 283.018 155.266 282.802C155.938 282.574 156.646 282.46 157.39 282.46C158.614 282.46 159.556 282.766 160.216 283.378C160.888 283.978 161.224 284.896 161.224 286.132V292H160ZM156.742 292.09C156.034 292.09 155.416 291.976 154.888 291.748C154.372 291.508 153.976 291.184 153.7 290.776C153.424 290.356 153.286 289.876 153.286 289.336C153.286 288.844 153.4 288.4 153.628 288.004C153.868 287.596 154.252 287.272 154.78 287.032C155.32 286.78 156.04 286.654 156.94 286.654H160.198V287.608H156.976C156.064 287.608 155.428 287.77 155.068 288.094C154.72 288.418 154.546 288.82 154.546 289.3C154.546 289.84 154.756 290.272 155.176 290.596C155.596 290.92 156.184 291.082 156.94 291.082C157.66 291.082 158.278 290.92 158.794 290.596C159.322 290.26 159.706 289.78 159.946 289.156L160.234 290.038C159.994 290.662 159.574 291.16 158.974 291.532C158.386 291.904 157.642 292.09 156.742 292.09ZM173.226 292.09C172.314 292.09 171.492 291.886 170.76 291.478C170.04 291.058 169.47 290.488 169.05 289.768C168.63 289.036 168.42 288.202 168.42 287.266C168.42 286.318 168.63 285.484 169.05 284.764C169.47 284.044 170.04 283.48 170.76 283.072C171.48 282.664 172.302 282.46 173.226 282.46C174.162 282.46 174.99 282.664 175.71 283.072C176.442 283.48 177.012 284.044 177.42 284.764C177.84 285.484 178.05 286.318 178.05 287.266C178.05 288.202 177.84 289.036 177.42 289.768C177.012 290.488 176.442 291.058 175.71 291.478C174.978 291.886 174.15 292.09 173.226 292.09ZM173.226 290.956C173.91 290.956 174.516 290.806 175.044 290.506C175.572 290.194 175.986 289.762 176.286 289.21C176.598 288.646 176.754 287.998 176.754 287.266C176.754 286.522 176.598 285.874 176.286 285.322C175.986 284.77 175.572 284.344 175.044 284.044C174.516 283.732 173.916 283.576 173.244 283.576C172.572 283.576 171.972 283.732 171.444 284.044C170.916 284.344 170.496 284.77 170.184 285.322C169.872 285.874 169.716 286.522 169.716 287.266C169.716 287.998 169.872 288.646 170.184 289.21C170.496 289.762 170.916 290.194 171.444 290.506C171.972 290.806 172.566 290.956 173.226 290.956ZM180.781 292V282.55H182.059V286.726H188.017V282.55H189.295V292H188.017V287.824H182.059V292H180.781ZM191.199 291.982L191.289 290.884C191.373 290.896 191.451 290.914 191.523 290.938C191.607 290.95 191.679 290.956 191.739 290.956C192.123 290.956 192.429 290.812 192.657 290.524C192.897 290.236 193.077 289.852 193.197 289.372C193.317 288.892 193.401 288.352 193.449 287.752C193.497 287.14 193.539 286.528 193.575 285.916L193.737 282.55H200.667V292H199.389V283.288L199.713 283.666H194.565L194.871 283.27L194.727 286.006C194.691 286.822 194.625 287.602 194.529 288.346C194.445 289.09 194.307 289.744 194.115 290.308C193.935 290.872 193.683 291.316 193.359 291.64C193.035 291.952 192.621 292.108 192.117 292.108C191.973 292.108 191.823 292.096 191.667 292.072C191.523 292.048 191.367 292.018 191.199 291.982ZM210.168 292V289.912L210.114 289.57V286.078C210.114 285.274 209.886 284.656 209.43 284.224C208.986 283.792 208.32 283.576 207.432 283.576C206.82 283.576 206.238 283.678 205.686 283.882C205.134 284.086 204.666 284.356 204.282 284.692L203.706 283.738C204.186 283.33 204.762 283.018 205.434 282.802C206.106 282.574 206.814 282.46 207.558 282.46C208.782 282.46 209.724 282.766 210.384 283.378C211.056 283.978 211.392 284.896 211.392 286.132V292H210.168ZM206.91 292.09C206.202 292.09 205.584 291.976 205.056 291.748C204.54 291.508 204.144 291.184 203.868 290.776C203.592 290.356 203.454 289.876 203.454 289.336C203.454 288.844 203.568 288.4 203.796 288.004C204.036 287.596 204.42 287.272 204.948 287.032C205.488 286.78 206.208 286.654 207.108 286.654H210.366V287.608H207.144C206.232 287.608 205.596 287.77 205.236 288.094C204.888 288.418 204.714 288.82 204.714 289.3C204.714 289.84 204.924 290.272 205.344 290.596C205.764 290.92 206.352 291.082 207.108 291.082C207.828 291.082 208.446 290.92 208.962 290.596C209.49 290.26 209.874 289.78 210.114 289.156L210.402 290.038C210.162 290.662 209.742 291.16 209.142 291.532C208.554 291.904 207.81 292.09 206.91 292.09ZM214.795 292V282.55H216.073V290.056L222.391 282.55H223.525V292H222.247V284.476L215.947 292H214.795ZM219.079 281.182C218.287 281.182 217.645 280.984 217.153 280.588C216.673 280.18 216.421 279.598 216.397 278.842H217.315C217.327 279.322 217.495 279.7 217.819 279.976C218.143 280.252 218.563 280.39 219.079 280.39C219.595 280.39 220.015 280.252 220.339 279.976C220.675 279.7 220.849 279.322 220.861 278.842H221.779C221.767 279.598 221.515 280.18 221.023 280.588C220.531 280.984 219.883 281.182 219.079 281.182ZM227.187 292V282.55H228.465V286.726H234.423V282.55H235.701V292H234.423V287.824H228.465V292H227.187ZM237.066 293.8L243.006 276.844H244.176L238.236 293.8H237.066ZM250.074 292V282.55H258.57V292H257.292V283.324L257.616 283.666H251.028L251.352 283.324V292H250.074ZM267.081 292.09C266.265 292.09 265.527 291.904 264.867 291.532C264.207 291.148 263.679 290.602 263.283 289.894C262.899 289.174 262.707 288.298 262.707 287.266C262.707 286.234 262.899 285.364 263.283 284.656C263.667 283.936 264.189 283.39 264.849 283.018C265.509 282.646 266.253 282.46 267.081 282.46C267.981 282.46 268.785 282.664 269.493 283.072C270.213 283.468 270.777 284.032 271.185 284.764C271.593 285.484 271.797 286.318 271.797 287.266C271.797 288.226 271.593 289.066 271.185 289.786C270.777 290.506 270.213 291.07 269.493 291.478C268.785 291.886 267.981 292.09 267.081 292.09ZM262.203 295.492V282.55H263.427V285.394L263.301 287.284L263.481 289.192V295.492H262.203ZM266.991 290.956C267.663 290.956 268.263 290.806 268.791 290.506C269.319 290.194 269.739 289.762 270.051 289.21C270.363 288.646 270.519 287.998 270.519 287.266C270.519 286.534 270.363 285.892 270.051 285.34C269.739 284.788 269.319 284.356 268.791 284.044C268.263 283.732 267.663 283.576 266.991 283.576C266.319 283.576 265.713 283.732 265.173 284.044C264.645 284.356 264.225 284.788 263.913 285.34C263.613 285.892 263.463 286.534 263.463 287.266C263.463 287.998 263.613 288.646 263.913 289.21C264.225 289.762 264.645 290.194 265.173 290.506C265.713 290.806 266.319 290.956 266.991 290.956ZM274.543 292V282.55H275.821V290.056L282.139 282.55H283.273V292H281.995V284.476L275.695 292H274.543ZM96.318 314V304.55H104.814V314H103.536V305.324L103.86 305.666H97.272L97.596 305.324V314H96.318ZM112.335 314.09C111.423 314.09 110.601 313.886 109.869 313.478C109.149 313.058 108.579 312.488 108.159 311.768C107.739 311.036 107.529 310.202 107.529 309.266C107.529 308.318 107.739 307.484 108.159 306.764C108.579 306.044 109.149 305.48 109.869 305.072C110.589 304.664 111.411 304.46 112.335 304.46C113.271 304.46 114.099 304.664 114.819 305.072C115.551 305.48 116.121 306.044 116.529 306.764C116.949 307.484 117.159 308.318 117.159 309.266C117.159 310.202 116.949 311.036 116.529 311.768C116.121 312.488 115.551 313.058 114.819 313.478C114.087 313.886 113.259 314.09 112.335 314.09ZM112.335 312.956C113.019 312.956 113.625 312.806 114.153 312.506C114.681 312.194 115.095 311.762 115.395 311.21C115.707 310.646 115.863 309.998 115.863 309.266C115.863 308.522 115.707 307.874 115.395 307.322C115.095 306.77 114.681 306.344 114.153 306.044C113.625 305.732 113.025 305.576 112.353 305.576C111.681 305.576 111.081 305.732 110.553 306.044C110.025 306.344 109.605 306.77 109.293 307.322C108.981 307.874 108.825 308.522 108.825 309.266C108.825 309.998 108.981 310.646 109.293 311.21C109.605 311.762 110.025 312.194 110.553 312.506C111.081 312.806 111.675 312.956 112.335 312.956ZM118.11 313.982L118.2 312.884C118.284 312.896 118.362 312.914 118.434 312.938C118.518 312.95 118.59 312.956 118.65 312.956C119.034 312.956 119.34 312.812 119.568 312.524C119.808 312.236 119.988 311.852 120.108 311.372C120.228 310.892 120.312 310.352 120.36 309.752C120.408 309.14 120.45 308.528 120.486 307.916L120.648 304.55H127.578V314H126.3V305.288L126.624 305.666H121.476L121.782 305.27L121.638 308.006C121.602 308.822 121.536 309.602 121.44 310.346C121.356 311.09 121.218 311.744 121.026 312.308C120.846 312.872 120.594 313.316 120.27 313.64C119.946 313.952 119.532 314.108 119.028 314.108C118.884 314.108 118.734 314.096 118.578 314.072C118.434 314.048 118.278 314.018 118.11 313.982ZM131.373 317.582C130.929 317.582 130.503 317.51 130.095 317.366C129.699 317.222 129.357 317.006 129.069 316.718L129.663 315.764C129.903 315.992 130.161 316.166 130.437 316.286C130.725 316.418 131.043 316.484 131.391 316.484C131.811 316.484 132.171 316.364 132.471 316.124C132.783 315.896 133.077 315.488 133.353 314.9L133.965 313.514L134.109 313.316L137.997 304.55H139.257L134.523 315.134C134.259 315.746 133.965 316.232 133.641 316.592C133.329 316.952 132.987 317.204 132.615 317.348C132.243 317.504 131.829 317.582 131.373 317.582ZM133.893 314.27L129.537 304.55H130.869L134.721 313.226L133.893 314.27ZM147.224 310.004C146.672 310.244 146.114 310.436 145.55 310.58C144.998 310.712 144.446 310.778 143.894 310.778C142.778 310.778 141.896 310.526 141.248 310.022C140.6 309.506 140.276 308.714 140.276 307.646V304.55H141.536V307.574C141.536 308.294 141.77 308.834 142.238 309.194C142.706 309.554 143.336 309.734 144.128 309.734C144.608 309.734 145.112 309.674 145.64 309.554C146.168 309.422 146.702 309.236 147.242 308.996L147.224 310.004ZM147.116 314V304.55H148.394V314H147.116ZM156.073 314.09C155.089 314.09 154.225 313.886 153.481 313.478C152.737 313.058 152.155 312.488 151.735 311.768C151.315 311.036 151.105 310.202 151.105 309.266C151.105 308.33 151.303 307.502 151.699 306.782C152.107 306.062 152.659 305.498 153.355 305.09C154.063 304.67 154.855 304.46 155.731 304.46C156.619 304.46 157.405 304.664 158.089 305.072C158.785 305.468 159.331 306.032 159.727 306.764C160.123 307.484 160.321 308.318 160.321 309.266C160.321 309.326 160.315 309.392 160.303 309.464C160.303 309.524 160.303 309.59 160.303 309.662H152.077V308.708H159.619L159.115 309.086C159.115 308.402 158.965 307.796 158.665 307.268C158.377 306.728 157.981 306.308 157.477 306.008C156.973 305.708 156.391 305.558 155.731 305.558C155.083 305.558 154.501 305.708 153.985 306.008C153.469 306.308 153.067 306.728 152.779 307.268C152.491 307.808 152.347 308.426 152.347 309.122V309.32C152.347 310.04 152.503 310.676 152.815 311.228C153.139 311.768 153.583 312.194 154.147 312.506C154.723 312.806 155.377 312.956 156.109 312.956C156.685 312.956 157.219 312.854 157.711 312.65C158.215 312.446 158.647 312.134 159.007 311.714L159.727 312.542C159.307 313.046 158.779 313.43 158.143 313.694C157.519 313.958 156.829 314.09 156.073 314.09ZM163.15 314V304.55H164.428V308.726H170.386V304.55H171.664V314H170.386V309.824H164.428V314H163.15ZM175.297 314V304.55H176.575V312.056L182.893 304.55H184.027V314H182.749V306.476L176.449 314H175.297ZM187.689 314V304.55H188.967V312.056L195.285 304.55H196.419V314H195.141V306.476L188.841 314H187.689Z" fill="black"/>
</svg>
