<svg width="420" height="326" viewBox="0 0 420 326" fill="none" xmlns="http://www.w3.org/2000/svg">
<rect width="420" height="326" rx="20" fill="#E5FBE7"/>
<path d="M52.124 67V54.4H62.726V67H61.412V55.192L61.754 55.552H53.096L53.438 55.192V67H52.124ZM66.8335 70.582C66.3895 70.582 65.9635 70.51 65.5555 70.366C65.1595 70.222 64.8175 70.006 64.5295 69.718L65.1235 68.764C65.3635 68.992 65.6215 69.166 65.8975 69.286C66.1855 69.418 66.5035 69.484 66.8515 69.484C67.2715 69.484 67.6315 69.364 67.9315 69.124C68.2435 68.896 68.5375 68.488 68.8135 67.9L69.4255 66.514L69.5695 66.316L73.4575 57.55H74.7175L69.9835 68.134C69.7195 68.746 69.4255 69.232 69.1015 69.592C68.7895 69.952 68.4475 70.204 68.0755 70.348C67.7035 70.504 67.2895 70.582 66.8335 70.582ZM69.3535 67.27L64.9975 57.55H66.3295L70.1815 66.226L69.3535 67.27ZM76.7086 67V57.55H77.9866V61.726H83.9446V57.55H85.2226V67H83.9446V62.824H77.9866V67H76.7086ZM95.7851 67L91.8971 62.32L92.9591 61.69L97.2971 67H95.7851ZM88.8551 67V57.55H90.1331V67H88.8551ZM89.7371 62.788V61.69H92.7791V62.788H89.7371ZM93.0671 62.41L91.8791 62.23L95.6411 57.55H97.0271L93.0671 62.41ZM100.921 67V58.324L101.245 58.666H97.3387V57.55H105.781V58.666H101.875L102.199 58.324V67H100.921ZM112.339 67V57.55H116.515C117.583 57.55 118.423 57.754 119.035 58.162C119.659 58.57 119.971 59.17 119.971 59.962C119.971 60.73 119.677 61.324 119.089 61.744C118.501 62.152 117.727 62.356 116.767 62.356L117.019 61.978C118.147 61.978 118.975 62.188 119.503 62.608C120.031 63.028 120.295 63.634 120.295 64.426C120.295 65.242 119.995 65.878 119.395 66.334C118.807 66.778 117.889 67 116.641 67H112.339ZM113.581 65.992H116.587C117.391 65.992 117.997 65.866 118.405 65.614C118.825 65.35 119.035 64.93 119.035 64.354C119.035 63.778 118.849 63.358 118.477 63.094C118.105 62.83 117.517 62.698 116.713 62.698H113.581V65.992ZM113.581 61.744H116.425C117.157 61.744 117.715 61.606 118.099 61.33C118.495 61.054 118.693 60.652 118.693 60.124C118.693 59.596 118.495 59.2 118.099 58.936C117.715 58.672 117.157 58.54 116.425 58.54H113.581V61.744ZM132.507 67V57.55H133.785V67H132.507ZM127.269 60.88C128.457 60.892 129.363 61.156 129.987 61.672C130.611 62.188 130.923 62.932 130.923 63.904C130.923 64.912 130.587 65.686 129.915 66.226C129.243 66.766 128.283 67.03 127.035 67.018L123.291 67V57.55H124.569V60.844L127.269 60.88ZM126.945 66.046C127.833 66.058 128.499 65.884 128.943 65.524C129.399 65.152 129.627 64.612 129.627 63.904C129.627 63.196 129.405 62.68 128.961 62.356C128.517 62.02 127.845 61.846 126.945 61.834L124.569 61.798V66.01L126.945 66.046ZM143.903 66.388V58.666H139.349L139.241 60.772C139.217 61.408 139.175 62.032 139.115 62.644C139.067 63.256 138.977 63.82 138.845 64.336C138.725 64.84 138.551 65.254 138.323 65.578C138.095 65.89 137.801 66.07 137.441 66.118L136.163 65.884C136.535 65.896 136.841 65.764 137.081 65.488C137.321 65.2 137.507 64.81 137.639 64.318C137.771 63.826 137.867 63.268 137.927 62.644C137.987 62.008 138.035 61.36 138.071 60.7L138.197 57.55H145.181V66.388H143.903ZM135.767 69.286V65.884H146.657V69.286H145.451V67H136.973V69.286H135.767ZM155.016 67V64.912L154.962 64.57V61.078C154.962 60.274 154.734 59.656 154.278 59.224C153.834 58.792 153.168 58.576 152.28 58.576C151.668 58.576 151.086 58.678 150.534 58.882C149.982 59.086 149.514 59.356 149.13 59.692L148.554 58.738C149.034 58.33 149.61 58.018 150.282 57.802C150.954 57.574 151.662 57.46 152.406 57.46C153.63 57.46 154.572 57.766 155.232 58.378C155.904 58.978 156.24 59.896 156.24 61.132V67H155.016ZM151.758 67.09C151.05 67.09 150.432 66.976 149.904 66.748C149.388 66.508 148.992 66.184 148.716 65.776C148.44 65.356 148.302 64.876 148.302 64.336C148.302 63.844 148.416 63.4 148.644 63.004C148.884 62.596 149.268 62.272 149.796 62.032C150.336 61.78 151.056 61.654 151.956 61.654H155.214V62.608H151.992C151.08 62.608 150.444 62.77 150.084 63.094C149.736 63.418 149.562 63.82 149.562 64.3C149.562 64.84 149.772 65.272 150.192 65.596C150.612 65.92 151.2 66.082 151.956 66.082C152.676 66.082 153.294 65.92 153.81 65.596C154.338 65.26 154.722 64.78 154.962 64.156L155.25 65.038C155.01 65.662 154.59 66.16 153.99 66.532C153.402 66.904 152.658 67.09 151.758 67.09ZM165.618 63.004C165.066 63.244 164.508 63.436 163.944 63.58C163.392 63.712 162.84 63.778 162.288 63.778C161.172 63.778 160.29 63.526 159.642 63.022C158.994 62.506 158.67 61.714 158.67 60.646V57.55H159.93V60.574C159.93 61.294 160.164 61.834 160.632 62.194C161.1 62.554 161.73 62.734 162.522 62.734C163.002 62.734 163.506 62.674 164.034 62.554C164.562 62.422 165.096 62.236 165.636 61.996L165.618 63.004ZM165.51 67V57.55H166.788V67H165.51ZM170.418 67V57.55H171.696V65.056L178.014 57.55H179.148V67H177.87V59.476L171.57 67H170.418ZM193.335 67.108C192.387 67.108 191.511 66.952 190.707 66.64C189.903 66.316 189.207 65.866 188.619 65.29C188.031 64.714 187.569 64.036 187.233 63.256C186.909 62.476 186.747 61.624 186.747 60.7C186.747 59.776 186.909 58.924 187.233 58.144C187.569 57.364 188.031 56.686 188.619 56.11C189.219 55.534 189.921 55.09 190.725 54.778C191.529 54.454 192.405 54.292 193.353 54.292C194.265 54.292 195.123 54.448 195.927 54.76C196.731 55.06 197.409 55.516 197.961 56.128L197.115 56.974C196.599 56.446 196.029 56.068 195.405 55.84C194.781 55.6 194.109 55.48 193.389 55.48C192.633 55.48 191.931 55.612 191.283 55.876C190.635 56.128 190.071 56.494 189.591 56.974C189.111 57.442 188.733 57.994 188.457 58.63C188.193 59.254 188.061 59.944 188.061 60.7C188.061 61.456 188.193 62.152 188.457 62.788C188.733 63.412 189.111 63.964 189.591 64.444C190.071 64.912 190.635 65.278 191.283 65.542C191.931 65.794 192.633 65.92 193.389 65.92C194.109 65.92 194.781 65.8 195.405 65.56C196.029 65.32 196.599 64.936 197.115 64.408L197.961 65.254C197.409 65.866 196.731 66.328 195.927 66.64C195.123 66.952 194.259 67.108 193.335 67.108ZM208.748 66.37V55.552H202.718L202.61 58.612C202.574 59.56 202.514 60.472 202.43 61.348C202.358 62.212 202.238 62.992 202.07 63.688C201.914 64.372 201.698 64.93 201.422 65.362C201.158 65.794 200.81 66.046 200.378 66.118L198.92 65.848C199.4 65.872 199.796 65.698 200.108 65.326C200.432 64.954 200.678 64.432 200.846 63.76C201.026 63.088 201.158 62.302 201.242 61.402C201.326 60.502 201.386 59.53 201.422 58.486L201.566 54.4H210.062V66.37H208.748ZM198.452 69.826L198.47 65.848H211.952V69.826H210.71V67H199.712L199.694 69.826H198.452ZM216.343 61.132V60.034H223.309V61.132H216.343ZM217.927 54.292C218.827 54.292 219.655 54.454 220.411 54.778C221.167 55.09 221.827 55.534 222.391 56.11C222.967 56.686 223.411 57.364 223.723 58.144C224.035 58.924 224.191 59.776 224.191 60.7C224.191 61.624 224.035 62.476 223.723 63.256C223.411 64.036 222.967 64.714 222.391 65.29C221.827 65.866 221.167 66.316 220.411 66.64C219.655 66.952 218.827 67.108 217.927 67.108C216.967 67.108 216.073 66.952 215.245 66.64C214.417 66.328 213.727 65.866 213.175 65.254L214.003 64.408C214.531 64.948 215.119 65.338 215.767 65.578C216.415 65.806 217.117 65.92 217.873 65.92C218.581 65.92 219.235 65.788 219.835 65.524C220.447 65.26 220.975 64.894 221.419 64.426C221.875 63.958 222.229 63.412 222.481 62.788C222.733 62.152 222.859 61.456 222.859 60.7C222.859 59.944 222.733 59.254 222.481 58.63C222.229 57.994 221.875 57.442 221.419 56.974C220.975 56.506 220.447 56.14 219.835 55.876C219.235 55.612 218.581 55.48 217.873 55.48C217.117 55.48 216.415 55.6 215.767 55.84C215.119 56.08 214.531 56.464 214.003 56.992L213.175 56.146C213.727 55.534 214.417 55.072 215.245 54.76C216.073 54.448 216.967 54.292 217.927 54.292ZM236 67L231.158 60.718L232.238 60.07L237.53 67H236ZM227.378 67V54.4H228.674V67H227.378ZM228.278 61.222V60.052H232.22V61.222H228.278ZM232.346 60.844L231.122 60.628L235.82 54.4H237.26L232.346 60.844Z" fill="black"/>
<path d="M62 144C67.523 144 72 139.523 72 134C72 128.477 67.523 124 62 124C56.477 124 52 128.477 52 134C52 139.523 56.477 144 62 144Z" stroke="black" stroke-width="1.5" stroke-linecap="round" stroke-linejoin="round"/>
<path d="M65 130.5C64.315 129.815 63.109 129.339 62 129.309M62 129.309C60.68 129.273 59.5 129.87 59.5 131.5C59.5 134.5 65 133 65 136C65 137.711 63.536 138.446 62 138.391M62 129.309V127.5M59 137C59.644 137.86 60.843 138.35 62 138.391M62 138.391V140.5" stroke="black" stroke-width="1.5" stroke-linecap="round" stroke-linejoin="round"/>
<path d="M97.915 136.09C97.155 136.09 96.435 135.97 95.755 135.73C95.085 135.48 94.545 135.15 94.135 134.74L94.66 133.885C95 134.235 95.455 134.525 96.025 134.755C96.605 134.985 97.235 135.1 97.915 135.1C98.785 135.1 99.45 134.91 99.91 134.53C100.38 134.15 100.615 133.64 100.615 133C100.615 132.36 100.385 131.85 99.925 131.47C99.475 131.09 98.76 130.9 97.78 130.9H97.03V130.105L100.27 126.04L100.42 126.46H94.57V125.5H101.32V126.265L98.08 130.33L97.555 129.985H97.96C99.22 129.985 100.16 130.265 100.78 130.825C101.41 131.385 101.725 132.105 101.725 132.985C101.725 133.575 101.585 134.105 101.305 134.575C101.025 135.045 100.6 135.415 100.03 135.685C99.47 135.955 98.765 136.09 97.915 136.09ZM106.415 136.09C105.665 136.09 104.95 135.97 104.27 135.73C103.59 135.48 103.05 135.15 102.65 134.74L103.175 133.885C103.505 134.235 103.955 134.525 104.525 134.755C105.105 134.985 105.73 135.1 106.4 135.1C107.29 135.1 107.965 134.905 108.425 134.515C108.895 134.115 109.13 133.595 109.13 132.955C109.13 132.505 109.02 132.12 108.8 131.8C108.59 131.47 108.23 131.215 107.72 131.035C107.21 130.855 106.51 130.765 105.62 130.765H103.385L103.925 125.5H109.67V126.46H104.36L104.915 125.935L104.45 130.345L103.895 129.805H105.86C106.92 129.805 107.77 129.935 108.41 130.195C109.05 130.455 109.51 130.82 109.79 131.29C110.08 131.75 110.225 132.29 110.225 132.91C110.225 133.5 110.085 134.04 109.805 134.53C109.525 135.01 109.105 135.39 108.545 135.67C107.985 135.95 107.275 136.09 106.415 136.09ZM115.781 136.09C114.971 136.09 114.251 135.88 113.621 135.46C112.991 135.03 112.496 134.42 112.136 133.63C111.776 132.83 111.596 131.87 111.596 130.75C111.596 129.63 111.776 128.675 112.136 127.885C112.496 127.085 112.991 126.475 113.621 126.055C114.251 125.625 114.971 125.41 115.781 125.41C116.591 125.41 117.311 125.625 117.941 126.055C118.571 126.475 119.066 127.085 119.426 127.885C119.796 128.675 119.981 129.63 119.981 130.75C119.981 131.87 119.796 132.83 119.426 133.63C119.066 134.42 118.571 135.03 117.941 135.46C117.311 135.88 116.591 136.09 115.781 136.09ZM115.781 135.1C116.401 135.1 116.941 134.935 117.401 134.605C117.861 134.265 118.221 133.775 118.481 133.135C118.741 132.485 118.871 131.69 118.871 130.75C118.871 129.81 118.741 129.02 118.481 128.38C118.221 127.73 117.861 127.24 117.401 126.91C116.941 126.57 116.401 126.4 115.781 126.4C115.181 126.4 114.646 126.57 114.176 126.91C113.706 127.24 113.341 127.73 113.081 128.38C112.821 129.02 112.691 129.81 112.691 130.75C112.691 131.69 112.821 132.485 113.081 133.135C113.341 133.775 113.706 134.265 114.176 134.605C114.646 134.935 115.181 135.1 115.781 135.1ZM130.254 136.075C129.574 136.075 128.959 135.92 128.409 135.61C127.859 135.29 127.419 134.835 127.089 134.245C126.769 133.645 126.609 132.915 126.609 132.055C126.609 131.195 126.769 130.47 127.089 129.88C127.409 129.28 127.844 128.825 128.394 128.515C128.944 128.205 129.564 128.05 130.254 128.05C131.004 128.05 131.674 128.22 132.264 128.56C132.864 128.89 133.334 129.36 133.674 129.97C134.014 130.57 134.184 131.265 134.184 132.055C134.184 132.855 134.014 133.555 133.674 134.155C133.334 134.755 132.864 135.225 132.264 135.565C131.674 135.905 131.004 136.075 130.254 136.075ZM126.189 138.91V128.125H127.209V130.495L127.104 132.07L127.254 133.66V138.91H126.189ZM130.179 135.13C130.739 135.13 131.239 135.005 131.679 134.755C132.119 134.495 132.469 134.135 132.729 133.675C132.989 133.205 133.119 132.665 133.119 132.055C133.119 131.445 132.989 130.91 132.729 130.45C132.469 129.99 132.119 129.63 131.679 129.37C131.239 129.11 130.739 128.98 130.179 128.98C129.619 128.98 129.114 129.11 128.664 129.37C128.224 129.63 127.874 129.99 127.614 130.45C127.364 130.91 127.239 131.445 127.239 132.055C127.239 132.665 127.364 133.205 127.614 133.675C127.874 134.135 128.224 134.495 128.664 134.755C129.114 135.005 129.619 135.13 130.179 135.13ZM136.327 136.075C136.107 136.075 135.917 135.995 135.757 135.835C135.607 135.675 135.532 135.48 135.532 135.25C135.532 135.01 135.607 134.815 135.757 134.665C135.917 134.515 136.107 134.44 136.327 134.44C136.547 134.44 136.732 134.515 136.882 134.665C137.042 134.815 137.122 135.01 137.122 135.25C137.122 135.48 137.042 135.675 136.882 135.835C136.732 135.995 136.547 136.075 136.327 136.075Z" fill="black"/>
<path d="M95.77 164V153.5H103.45V154.445H96.865V157.88H100.3C101.54 157.88 102.48 158.135 103.12 158.645C103.77 159.145 104.095 159.885 104.095 160.865C104.095 161.875 103.745 162.65 103.045 163.19C102.355 163.73 101.36 164 100.06 164H95.77ZM96.865 163.115H100.045C101.015 163.115 101.745 162.93 102.235 162.56C102.735 162.18 102.985 161.63 102.985 160.91C102.985 159.48 102.005 158.765 100.045 158.765H96.865V163.115ZM109.774 164.075C108.954 164.075 108.234 163.905 107.614 163.565C106.994 163.215 106.509 162.74 106.159 162.14C105.809 161.53 105.634 160.835 105.634 160.055C105.634 159.275 105.799 158.585 106.129 157.985C106.469 157.385 106.929 156.915 107.509 156.575C108.099 156.225 108.759 156.05 109.489 156.05C110.229 156.05 110.884 156.22 111.454 156.56C112.034 156.89 112.489 157.36 112.819 157.97C113.149 158.57 113.314 159.265 113.314 160.055C113.314 160.105 113.309 160.16 113.299 160.22C113.299 160.27 113.299 160.325 113.299 160.385H106.444V159.59H112.729L112.309 159.905C112.309 159.335 112.184 158.83 111.934 158.39C111.694 157.94 111.364 157.59 110.944 157.34C110.524 157.09 110.039 156.965 109.489 156.965C108.949 156.965 108.464 157.09 108.034 157.34C107.604 157.59 107.269 157.94 107.029 158.39C106.789 158.84 106.669 159.355 106.669 159.935V160.1C106.669 160.7 106.799 161.23 107.059 161.69C107.329 162.14 107.699 162.495 108.169 162.755C108.649 163.005 109.194 163.13 109.804 163.13C110.284 163.13 110.729 163.045 111.139 162.875C111.559 162.705 111.919 162.445 112.219 162.095L112.819 162.785C112.469 163.205 112.029 163.525 111.499 163.745C110.979 163.965 110.404 164.075 109.774 164.075ZM118.971 164.075C118.191 164.075 117.491 163.905 116.871 163.565C116.261 163.215 115.781 162.74 115.431 162.14C115.081 161.53 114.906 160.835 114.906 160.055C114.906 159.265 115.081 158.57 115.431 157.97C115.781 157.37 116.261 156.9 116.871 156.56C117.491 156.22 118.191 156.05 118.971 156.05C119.641 156.05 120.246 156.18 120.786 156.44C121.326 156.7 121.751 157.09 122.061 157.61L121.266 158.15C120.996 157.75 120.661 157.455 120.261 157.265C119.861 157.075 119.426 156.98 118.956 156.98C118.396 156.98 117.891 157.11 117.441 157.37C116.991 157.62 116.636 157.975 116.376 158.435C116.116 158.895 115.986 159.435 115.986 160.055C115.986 160.675 116.116 161.215 116.376 161.675C116.636 162.135 116.991 162.495 117.441 162.755C117.891 163.005 118.396 163.13 118.956 163.13C119.426 163.13 119.861 163.035 120.261 162.845C120.661 162.655 120.996 162.365 121.266 161.975L122.061 162.515C121.751 163.025 121.326 163.415 120.786 163.685C120.246 163.945 119.641 164.075 118.971 164.075ZM124.123 164V156.125H131.203V164H130.138V156.77L130.408 157.055H124.918L125.188 156.77V164H124.123ZM132.791 163.985L132.866 163.07C132.936 163.08 133.001 163.095 133.061 163.115C133.131 163.125 133.191 163.13 133.241 163.13C133.561 163.13 133.816 163.01 134.006 162.77C134.206 162.53 134.356 162.21 134.456 161.81C134.556 161.41 134.626 160.96 134.666 160.46C134.706 159.95 134.741 159.44 134.771 158.93L134.906 156.125H140.681V164H139.616V156.74L139.886 157.055H135.596L135.851 156.725L135.731 159.005C135.701 159.685 135.646 160.335 135.566 160.955C135.496 161.575 135.381 162.12 135.221 162.59C135.071 163.06 134.861 163.43 134.591 163.7C134.321 163.96 133.976 164.09 133.556 164.09C133.436 164.09 133.311 164.08 133.181 164.06C133.061 164.04 132.931 164.015 132.791 163.985ZM148.598 164V162.26L148.553 161.975V159.065C148.553 158.395 148.363 157.88 147.983 157.52C147.613 157.16 147.058 156.98 146.318 156.98C145.808 156.98 145.323 157.065 144.863 157.235C144.403 157.405 144.013 157.63 143.693 157.91L143.213 157.115C143.613 156.775 144.093 156.515 144.653 156.335C145.213 156.145 145.803 156.05 146.423 156.05C147.443 156.05 148.228 156.305 148.778 156.815C149.338 157.315 149.618 158.08 149.618 159.11V164H148.598ZM145.883 164.075C145.293 164.075 144.778 163.98 144.338 163.79C143.908 163.59 143.578 163.32 143.348 162.98C143.118 162.63 143.003 162.23 143.003 161.78C143.003 161.37 143.098 161 143.288 160.67C143.488 160.33 143.808 160.06 144.248 159.86C144.698 159.65 145.298 159.545 146.048 159.545H148.763V160.34H146.078C145.318 160.34 144.788 160.475 144.488 160.745C144.198 161.015 144.053 161.35 144.053 161.75C144.053 162.2 144.228 162.56 144.578 162.83C144.928 163.1 145.418 163.235 146.048 163.235C146.648 163.235 147.163 163.1 147.593 162.83C148.033 162.55 148.353 162.15 148.553 161.63L148.793 162.365C148.593 162.885 148.243 163.3 147.743 163.61C147.253 163.92 146.633 164.075 145.883 164.075ZM153.953 164V156.77L154.223 157.055H150.968V156.125H158.003V157.055H154.748L155.018 156.77V164H153.953ZM159.543 164V156.125H160.608V159.605H165.573V156.125H166.638V164H165.573V160.52H160.608V164H159.543ZM172.905 164.075C172.145 164.075 171.46 163.905 170.85 163.565C170.25 163.215 169.775 162.74 169.425 162.14C169.075 161.53 168.9 160.835 168.9 160.055C168.9 159.265 169.075 158.57 169.425 157.97C169.775 157.37 170.25 156.9 170.85 156.56C171.45 156.22 172.135 156.05 172.905 156.05C173.685 156.05 174.375 156.22 174.975 156.56C175.585 156.9 176.06 157.37 176.4 157.97C176.75 158.57 176.925 159.265 176.925 160.055C176.925 160.835 176.75 161.53 176.4 162.14C176.06 162.74 175.585 163.215 174.975 163.565C174.365 163.905 173.675 164.075 172.905 164.075ZM172.905 163.13C173.475 163.13 173.98 163.005 174.42 162.755C174.86 162.495 175.205 162.135 175.455 161.675C175.715 161.205 175.845 160.665 175.845 160.055C175.845 159.435 175.715 158.895 175.455 158.435C175.205 157.975 174.86 157.62 174.42 157.37C173.98 157.11 173.48 156.98 172.92 156.98C172.36 156.98 171.86 157.11 171.42 157.37C170.98 157.62 170.63 157.975 170.37 158.435C170.11 158.895 169.98 159.435 169.98 160.055C169.98 160.665 170.11 161.205 170.37 161.675C170.63 162.135 170.98 162.495 171.42 162.755C171.86 163.005 172.355 163.13 172.905 163.13ZM183.127 164V156.125H190.207V164H189.142V156.77L189.412 157.055H183.922L184.192 156.77V164H183.127ZM197.3 164.075C196.62 164.075 196.005 163.92 195.455 163.61C194.905 163.29 194.465 162.835 194.135 162.245C193.815 161.645 193.655 160.915 193.655 160.055C193.655 159.195 193.815 158.47 194.135 157.88C194.455 157.28 194.89 156.825 195.44 156.515C195.99 156.205 196.61 156.05 197.3 156.05C198.05 156.05 198.72 156.22 199.31 156.56C199.91 156.89 200.38 157.36 200.72 157.97C201.06 158.57 201.23 159.265 201.23 160.055C201.23 160.855 201.06 161.555 200.72 162.155C200.38 162.755 199.91 163.225 199.31 163.565C198.72 163.905 198.05 164.075 197.3 164.075ZM193.235 166.91V156.125H194.255V158.495L194.15 160.07L194.3 161.66V166.91H193.235ZM197.225 163.13C197.785 163.13 198.285 163.005 198.725 162.755C199.165 162.495 199.515 162.135 199.775 161.675C200.035 161.205 200.165 160.665 200.165 160.055C200.165 159.445 200.035 158.91 199.775 158.45C199.515 157.99 199.165 157.63 198.725 157.37C198.285 157.11 197.785 156.98 197.225 156.98C196.665 156.98 196.16 157.11 195.71 157.37C195.27 157.63 194.92 157.99 194.66 158.45C194.41 158.91 194.285 159.445 194.285 160.055C194.285 160.665 194.41 161.205 194.66 161.675C194.92 162.135 195.27 162.495 195.71 162.755C196.16 163.005 196.665 163.13 197.225 163.13ZM203.518 164V156.125H204.583V162.38L209.848 156.125H210.793V164H209.728V157.73L204.478 164H203.518ZM219.886 164.09C219.316 164.09 218.751 164.01 218.191 163.85C217.631 163.69 217.136 163.445 216.706 163.115L217.051 162.32C217.431 162.6 217.871 162.815 218.371 162.965C218.871 163.105 219.366 163.175 219.856 163.175C220.346 163.165 220.771 163.095 221.131 162.965C221.491 162.835 221.771 162.655 221.971 162.425C222.171 162.195 222.271 161.935 222.271 161.645C222.271 161.225 222.081 160.9 221.701 160.67C221.321 160.43 220.801 160.31 220.141 160.31H218.791V159.53H220.066C220.456 159.53 220.801 159.48 221.101 159.38C221.401 159.28 221.631 159.135 221.791 158.945C221.961 158.755 222.046 158.53 222.046 158.27C222.046 157.99 221.946 157.75 221.746 157.55C221.556 157.35 221.291 157.2 220.951 157.1C220.611 157 220.226 156.95 219.796 156.95C219.406 156.96 219.001 157.02 218.581 157.13C218.161 157.23 217.746 157.385 217.336 157.595L217.036 156.77C217.496 156.53 217.951 156.35 218.401 156.23C218.861 156.1 219.321 156.035 219.781 156.035C220.411 156.015 220.976 156.09 221.476 156.26C221.986 156.43 222.391 156.675 222.691 156.995C222.991 157.305 223.141 157.68 223.141 158.12C223.141 158.51 223.021 158.85 222.781 159.14C222.541 159.43 222.221 159.655 221.821 159.815C221.421 159.975 220.966 160.055 220.456 160.055L220.501 159.77C221.401 159.77 222.101 159.945 222.601 160.295C223.111 160.645 223.366 161.12 223.366 161.72C223.366 162.19 223.211 162.605 222.901 162.965C222.591 163.315 222.171 163.59 221.641 163.79C221.121 163.99 220.536 164.09 219.886 164.09ZM230.674 164V162.26L230.629 161.975V159.065C230.629 158.395 230.439 157.88 230.059 157.52C229.689 157.16 229.134 156.98 228.394 156.98C227.884 156.98 227.399 157.065 226.939 157.235C226.479 157.405 226.089 157.63 225.769 157.91L225.289 157.115C225.689 156.775 226.169 156.515 226.729 156.335C227.289 156.145 227.879 156.05 228.499 156.05C229.519 156.05 230.304 156.305 230.854 156.815C231.414 157.315 231.694 158.08 231.694 159.11V164H230.674ZM227.959 164.075C227.369 164.075 226.854 163.98 226.414 163.79C225.984 163.59 225.654 163.32 225.424 162.98C225.194 162.63 225.079 162.23 225.079 161.78C225.079 161.37 225.174 161 225.364 160.67C225.564 160.33 225.884 160.06 226.324 159.86C226.774 159.65 227.374 159.545 228.124 159.545H230.839V160.34H228.154C227.394 160.34 226.864 160.475 226.564 160.745C226.274 161.015 226.129 161.35 226.129 161.75C226.129 162.2 226.304 162.56 226.654 162.83C227.004 163.1 227.494 163.235 228.124 163.235C228.724 163.235 229.239 163.1 229.669 162.83C230.109 162.55 230.429 162.15 230.629 161.63L230.869 162.365C230.669 162.885 230.319 163.3 229.819 163.61C229.329 163.92 228.709 164.075 227.959 164.075ZM240.304 164L237.064 160.1L237.949 159.575L241.564 164H240.304ZM234.529 164V156.125H235.594V164H234.529ZM235.264 160.49V159.575H237.799V160.49H235.264ZM238.039 160.175L237.049 160.025L240.184 156.125H241.339L238.039 160.175ZM247.988 164V162.26L247.943 161.975V159.065C247.943 158.395 247.753 157.88 247.373 157.52C247.003 157.16 246.448 156.98 245.708 156.98C245.198 156.98 244.713 157.065 244.253 157.235C243.793 157.405 243.403 157.63 243.083 157.91L242.603 157.115C243.003 156.775 243.483 156.515 244.043 156.335C244.603 156.145 245.193 156.05 245.813 156.05C246.833 156.05 247.618 156.305 248.168 156.815C248.728 157.315 249.008 158.08 249.008 159.11V164H247.988ZM245.273 164.075C244.683 164.075 244.168 163.98 243.728 163.79C243.298 163.59 242.968 163.32 242.738 162.98C242.508 162.63 242.393 162.23 242.393 161.78C242.393 161.37 242.488 161 242.678 160.67C242.878 160.33 243.198 160.06 243.638 159.86C244.088 159.65 244.688 159.545 245.438 159.545H248.153V160.34H245.468C244.708 160.34 244.178 160.475 243.878 160.745C243.588 161.015 243.443 161.35 243.443 161.75C243.443 162.2 243.618 162.56 243.968 162.83C244.318 163.1 244.808 163.235 245.438 163.235C246.038 163.235 246.553 163.1 246.983 162.83C247.423 162.55 247.743 162.15 247.943 161.63L248.183 162.365C247.983 162.885 247.633 163.3 247.133 163.61C246.643 163.92 246.023 164.075 245.273 164.075ZM253.797 164.09C253.227 164.09 252.662 164.01 252.102 163.85C251.542 163.69 251.047 163.445 250.617 163.115L250.962 162.32C251.342 162.6 251.782 162.815 252.282 162.965C252.782 163.105 253.277 163.175 253.767 163.175C254.257 163.165 254.682 163.095 255.042 162.965C255.402 162.835 255.682 162.655 255.882 162.425C256.082 162.195 256.182 161.935 256.182 161.645C256.182 161.225 255.992 160.9 255.612 160.67C255.232 160.43 254.712 160.31 254.052 160.31H252.702V159.53H253.977C254.367 159.53 254.712 159.48 255.012 159.38C255.312 159.28 255.542 159.135 255.702 158.945C255.872 158.755 255.957 158.53 255.957 158.27C255.957 157.99 255.857 157.75 255.657 157.55C255.467 157.35 255.202 157.2 254.862 157.1C254.522 157 254.137 156.95 253.707 156.95C253.317 156.96 252.912 157.02 252.492 157.13C252.072 157.23 251.657 157.385 251.247 157.595L250.947 156.77C251.407 156.53 251.862 156.35 252.312 156.23C252.772 156.1 253.232 156.035 253.692 156.035C254.322 156.015 254.887 156.09 255.387 156.26C255.897 156.43 256.302 156.675 256.602 156.995C256.902 157.305 257.052 157.68 257.052 158.12C257.052 158.51 256.932 158.85 256.692 159.14C256.452 159.43 256.132 159.655 255.732 159.815C255.332 159.975 254.877 160.055 254.367 160.055L254.412 159.77C255.312 159.77 256.012 159.945 256.512 160.295C257.022 160.645 257.277 161.12 257.277 161.72C257.277 162.19 257.122 162.605 256.812 162.965C256.502 163.315 256.082 163.59 255.552 163.79C255.032 163.99 254.447 164.09 253.797 164.09ZM263.07 164.075C262.25 164.075 261.53 163.905 260.91 163.565C260.29 163.215 259.805 162.74 259.455 162.14C259.105 161.53 258.93 160.835 258.93 160.055C258.93 159.275 259.095 158.585 259.425 157.985C259.765 157.385 260.225 156.915 260.805 156.575C261.395 156.225 262.055 156.05 262.785 156.05C263.525 156.05 264.18 156.22 264.75 156.56C265.33 156.89 265.785 157.36 266.115 157.97C266.445 158.57 266.61 159.265 266.61 160.055C266.61 160.105 266.605 160.16 266.595 160.22C266.595 160.27 266.595 160.325 266.595 160.385H259.74V159.59H266.025L265.605 159.905C265.605 159.335 265.48 158.83 265.23 158.39C264.99 157.94 264.66 157.59 264.24 157.34C263.82 157.09 263.335 156.965 262.785 156.965C262.245 156.965 261.76 157.09 261.33 157.34C260.9 157.59 260.565 157.94 260.325 158.39C260.085 158.84 259.965 159.355 259.965 159.935V160.1C259.965 160.7 260.095 161.23 260.355 161.69C260.625 162.14 260.995 162.495 261.465 162.755C261.945 163.005 262.49 163.13 263.1 163.13C263.58 163.13 264.025 163.045 264.435 162.875C264.855 162.705 265.215 162.445 265.515 162.095L266.115 162.785C265.765 163.205 265.325 163.525 264.795 163.745C264.275 163.965 263.7 164.075 263.07 164.075ZM276.133 164.075C275.373 164.075 274.688 163.905 274.078 163.565C273.478 163.215 273.003 162.74 272.653 162.14C272.303 161.53 272.128 160.835 272.128 160.055C272.128 159.265 272.303 158.57 272.653 157.97C273.003 157.37 273.478 156.9 274.078 156.56C274.678 156.22 275.363 156.05 276.133 156.05C276.913 156.05 277.603 156.22 278.203 156.56C278.813 156.9 279.288 157.37 279.628 157.97C279.978 158.57 280.153 159.265 280.153 160.055C280.153 160.835 279.978 161.53 279.628 162.14C279.288 162.74 278.813 163.215 278.203 163.565C277.593 163.905 276.903 164.075 276.133 164.075ZM276.133 163.13C276.703 163.13 277.208 163.005 277.648 162.755C278.088 162.495 278.433 162.135 278.683 161.675C278.943 161.205 279.073 160.665 279.073 160.055C279.073 159.435 278.943 158.895 278.683 158.435C278.433 157.975 278.088 157.62 277.648 157.37C277.208 157.11 276.708 156.98 276.148 156.98C275.588 156.98 275.088 157.11 274.648 157.37C274.208 157.62 273.858 157.975 273.598 158.435C273.338 158.895 273.208 159.435 273.208 160.055C273.208 160.665 273.338 161.205 273.598 161.675C273.858 162.135 274.208 162.495 274.648 162.755C275.088 163.005 275.583 163.13 276.133 163.13ZM283.636 164V156.77L283.906 157.055H280.651V156.125H287.686V157.055H284.431L284.701 156.77V164H283.636ZM295.552 164.09C294.792 164.09 294.072 163.97 293.392 163.73C292.722 163.48 292.182 163.15 291.772 162.74L292.297 161.885C292.637 162.235 293.092 162.525 293.662 162.755C294.242 162.985 294.872 163.1 295.552 163.1C296.422 163.1 297.087 162.91 297.547 162.53C298.017 162.15 298.252 161.64 298.252 161C298.252 160.36 298.022 159.85 297.562 159.47C297.112 159.09 296.397 158.9 295.417 158.9H294.667V158.105L297.907 154.04L298.057 154.46H292.207V153.5H298.957V154.265L295.717 158.33L295.192 157.985H295.597C296.857 157.985 297.797 158.265 298.417 158.825C299.047 159.385 299.362 160.105 299.362 160.985C299.362 161.575 299.222 162.105 298.942 162.575C298.662 163.045 298.237 163.415 297.667 163.685C297.107 163.955 296.402 164.09 295.552 164.09ZM305.069 164.09C304.259 164.09 303.539 163.88 302.909 163.46C302.279 163.03 301.784 162.42 301.424 161.63C301.064 160.83 300.884 159.87 300.884 158.75C300.884 157.63 301.064 156.675 301.424 155.885C301.784 155.085 302.279 154.475 302.909 154.055C303.539 153.625 304.259 153.41 305.069 153.41C305.879 153.41 306.599 153.625 307.229 154.055C307.859 154.475 308.354 155.085 308.714 155.885C309.084 156.675 309.269 157.63 309.269 158.75C309.269 159.87 309.084 160.83 308.714 161.63C308.354 162.42 307.859 163.03 307.229 163.46C306.599 163.88 305.879 164.09 305.069 164.09ZM305.069 163.1C305.689 163.1 306.229 162.935 306.689 162.605C307.149 162.265 307.509 161.775 307.769 161.135C308.029 160.485 308.159 159.69 308.159 158.75C308.159 157.81 308.029 157.02 307.769 156.38C307.509 155.73 307.149 155.24 306.689 154.91C306.229 154.57 305.689 154.4 305.069 154.4C304.469 154.4 303.934 154.57 303.464 154.91C302.994 155.24 302.629 155.73 302.369 156.38C302.109 157.02 301.979 157.81 301.979 158.75C301.979 159.69 302.109 160.485 302.369 161.135C302.629 161.775 302.994 162.265 303.464 162.605C303.934 162.935 304.469 163.1 305.069 163.1ZM315 164.09C314.19 164.09 313.47 163.88 312.84 163.46C312.21 163.03 311.715 162.42 311.355 161.63C310.995 160.83 310.815 159.87 310.815 158.75C310.815 157.63 310.995 156.675 311.355 155.885C311.715 155.085 312.21 154.475 312.84 154.055C313.47 153.625 314.19 153.41 315 153.41C315.81 153.41 316.53 153.625 317.16 154.055C317.79 154.475 318.285 155.085 318.645 155.885C319.015 156.675 319.2 157.63 319.2 158.75C319.2 159.87 319.015 160.83 318.645 161.63C318.285 162.42 317.79 163.03 317.16 163.46C316.53 163.88 315.81 164.09 315 164.09ZM315 163.1C315.62 163.1 316.16 162.935 316.62 162.605C317.08 162.265 317.44 161.775 317.7 161.135C317.96 160.485 318.09 159.69 318.09 158.75C318.09 157.81 317.96 157.02 317.7 156.38C317.44 155.73 317.08 155.24 316.62 154.91C316.16 154.57 315.62 154.4 315 154.4C314.4 154.4 313.865 154.57 313.395 154.91C312.925 155.24 312.56 155.73 312.3 156.38C312.04 157.02 311.91 157.81 311.91 158.75C311.91 159.69 312.04 160.485 312.3 161.135C312.56 161.775 312.925 162.265 313.395 162.605C313.865 162.935 314.4 163.1 315 163.1ZM324.932 164.09C324.122 164.09 323.402 163.88 322.772 163.46C322.142 163.03 321.647 162.42 321.287 161.63C320.927 160.83 320.747 159.87 320.747 158.75C320.747 157.63 320.927 156.675 321.287 155.885C321.647 155.085 322.142 154.475 322.772 154.055C323.402 153.625 324.122 153.41 324.932 153.41C325.742 153.41 326.462 153.625 327.092 154.055C327.722 154.475 328.217 155.085 328.577 155.885C328.947 156.675 329.132 157.63 329.132 158.75C329.132 159.87 328.947 160.83 328.577 161.63C328.217 162.42 327.722 163.03 327.092 163.46C326.462 163.88 325.742 164.09 324.932 164.09ZM324.932 163.1C325.552 163.1 326.092 162.935 326.552 162.605C327.012 162.265 327.372 161.775 327.632 161.135C327.892 160.485 328.022 159.69 328.022 158.75C328.022 157.81 327.892 157.02 327.632 156.38C327.372 155.73 327.012 155.24 326.552 154.91C326.092 154.57 325.552 154.4 324.932 154.4C324.332 154.4 323.797 154.57 323.327 154.91C322.857 155.24 322.492 155.73 322.232 156.38C321.972 157.02 321.842 157.81 321.842 158.75C321.842 159.69 321.972 160.485 322.232 161.135C322.492 161.775 322.857 162.265 323.327 162.605C323.797 162.935 324.332 163.1 324.932 163.1ZM339.404 164.075C338.724 164.075 338.109 163.92 337.559 163.61C337.009 163.29 336.569 162.835 336.239 162.245C335.919 161.645 335.759 160.915 335.759 160.055C335.759 159.195 335.919 158.47 336.239 157.88C336.559 157.28 336.994 156.825 337.544 156.515C338.094 156.205 338.714 156.05 339.404 156.05C340.154 156.05 340.824 156.22 341.414 156.56C342.014 156.89 342.484 157.36 342.824 157.97C343.164 158.57 343.334 159.265 343.334 160.055C343.334 160.855 343.164 161.555 342.824 162.155C342.484 162.755 342.014 163.225 341.414 163.565C340.824 163.905 340.154 164.075 339.404 164.075ZM335.339 166.91V156.125H336.359V158.495L336.254 160.07L336.404 161.66V166.91H335.339ZM339.329 163.13C339.889 163.13 340.389 163.005 340.829 162.755C341.269 162.495 341.619 162.135 341.879 161.675C342.139 161.205 342.269 160.665 342.269 160.055C342.269 159.445 342.139 158.91 341.879 158.45C341.619 157.99 341.269 157.63 340.829 157.37C340.389 157.11 339.889 156.98 339.329 156.98C338.769 156.98 338.264 157.11 337.814 157.37C337.374 157.63 337.024 157.99 336.764 158.45C336.514 158.91 336.389 159.445 336.389 160.055C336.389 160.665 336.514 161.205 336.764 161.675C337.024 162.135 337.374 162.495 337.814 162.755C338.264 163.005 338.769 163.13 339.329 163.13ZM345.478 164.075C345.258 164.075 345.068 163.995 344.908 163.835C344.758 163.675 344.683 163.48 344.683 163.25C344.683 163.01 344.758 162.815 344.908 162.665C345.068 162.515 345.258 162.44 345.478 162.44C345.698 162.44 345.883 162.515 346.033 162.665C346.193 162.815 346.273 163.01 346.273 163.25C346.273 163.48 346.193 163.675 346.033 163.835C345.883 163.995 345.698 164.075 345.478 164.075Z" fill="black"/>
<path d="M52.8574 205.429H71.1431M55.1431 200.857H68.8574C69.4636 200.857 70.045 201.098 70.4737 201.527C70.9023 201.956 71.1431 202.537 71.1431 203.143V216.857C71.1431 217.464 70.9023 218.045 70.4737 218.474C70.045 218.902 69.4636 219.143 68.8574 219.143H55.1431C54.5369 219.143 53.9555 218.902 53.5269 218.474C53.0982 218.045 52.8574 217.464 52.8574 216.857V203.143C52.8574 202.537 53.0982 201.956 53.5269 201.527C53.9555 201.098 54.5369 200.857 55.1431 200.857Z" stroke="black" stroke-linecap="round" stroke-linejoin="round"/>
<path d="M62.0003 211.143C62.6315 211.143 63.1431 210.631 63.1431 210C63.1431 209.369 62.6315 208.857 62.0003 208.857C61.3691 208.857 60.8574 209.369 60.8574 210C60.8574 210.631 61.3691 211.143 62.0003 211.143Z" fill="black"/>
<path d="M57.428 211.143C58.0592 211.143 58.5709 210.631 58.5709 210C58.5709 209.369 58.0592 208.857 57.428 208.857C56.7968 208.857 56.2852 209.369 56.2852 210C56.2852 210.631 56.7968 211.143 57.428 211.143Z" fill="black"/>
<path d="M57.428 215.714C58.0592 215.714 58.5709 215.203 58.5709 214.572C58.5709 213.94 58.0592 213.429 57.428 213.429C56.7968 213.429 56.2852 213.94 56.2852 214.572C56.2852 215.203 56.7968 215.714 57.428 215.714Z" fill="black"/>
<path d="M96.61 212V201.95L97.09 202.46H94.135V201.5H97.69V212H96.61ZM100.32 208.4V207.47H104.25V208.4H100.32ZM108.769 212.09C108.009 212.09 107.289 211.97 106.609 211.73C105.939 211.48 105.399 211.15 104.989 210.74L105.514 209.885C105.854 210.235 106.309 210.525 106.879 210.755C107.459 210.985 108.089 211.1 108.769 211.1C109.639 211.1 110.304 210.91 110.764 210.53C111.234 210.15 111.469 209.64 111.469 209C111.469 208.36 111.239 207.85 110.779 207.47C110.329 207.09 109.614 206.9 108.634 206.9H107.884V206.105L111.124 202.04L111.274 202.46H105.424V201.5H112.174V202.265L108.934 206.33L108.409 205.985H108.814C110.074 205.985 111.014 206.265 111.634 206.825C112.264 207.385 112.579 208.105 112.579 208.985C112.579 209.575 112.439 210.105 112.159 210.575C111.879 211.045 111.454 211.415 110.884 211.685C110.324 211.955 109.619 212.09 108.769 212.09ZM122.827 212.075C122.147 212.075 121.532 211.92 120.982 211.61C120.432 211.29 119.992 210.835 119.662 210.245C119.342 209.645 119.182 208.915 119.182 208.055C119.182 207.195 119.342 206.47 119.662 205.88C119.982 205.28 120.417 204.825 120.967 204.515C121.517 204.205 122.137 204.05 122.827 204.05C123.577 204.05 124.247 204.22 124.837 204.56C125.437 204.89 125.907 205.36 126.247 205.97C126.587 206.57 126.757 207.265 126.757 208.055C126.757 208.855 126.587 209.555 126.247 210.155C125.907 210.755 125.437 211.225 124.837 211.565C124.247 211.905 123.577 212.075 122.827 212.075ZM118.762 214.91V204.125H119.782V206.495L119.677 208.07L119.827 209.66V214.91H118.762ZM122.752 211.13C123.312 211.13 123.812 211.005 124.252 210.755C124.692 210.495 125.042 210.135 125.302 209.675C125.562 209.205 125.692 208.665 125.692 208.055C125.692 207.445 125.562 206.91 125.302 206.45C125.042 205.99 124.692 205.63 124.252 205.37C123.812 205.11 123.312 204.98 122.752 204.98C122.192 204.98 121.687 205.11 121.237 205.37C120.797 205.63 120.447 205.99 120.187 206.45C119.937 206.91 119.812 207.445 119.812 208.055C119.812 208.665 119.937 209.205 120.187 209.675C120.447 210.135 120.797 210.495 121.237 210.755C121.687 211.005 122.192 211.13 122.752 211.13ZM133.891 212V210.26L133.846 209.975V207.065C133.846 206.395 133.656 205.88 133.276 205.52C132.906 205.16 132.351 204.98 131.611 204.98C131.101 204.98 130.616 205.065 130.156 205.235C129.696 205.405 129.306 205.63 128.986 205.91L128.506 205.115C128.906 204.775 129.386 204.515 129.946 204.335C130.506 204.145 131.096 204.05 131.716 204.05C132.736 204.05 133.521 204.305 134.071 204.815C134.631 205.315 134.911 206.08 134.911 207.11V212H133.891ZM131.176 212.075C130.586 212.075 130.071 211.98 129.631 211.79C129.201 211.59 128.871 211.32 128.641 210.98C128.411 210.63 128.296 210.23 128.296 209.78C128.296 209.37 128.391 209 128.581 208.67C128.781 208.33 129.101 208.06 129.541 207.86C129.991 207.65 130.591 207.545 131.341 207.545H134.056V208.34H131.371C130.611 208.34 130.081 208.475 129.781 208.745C129.491 209.015 129.346 209.35 129.346 209.75C129.346 210.2 129.521 210.56 129.871 210.83C130.221 211.1 130.711 211.235 131.341 211.235C131.941 211.235 132.456 211.1 132.886 210.83C133.326 210.55 133.646 210.15 133.846 209.63L134.086 210.365C133.886 210.885 133.536 211.3 133.036 211.61C132.546 211.92 131.926 212.075 131.176 212.075ZM141.286 212.09C140.646 212.09 140.076 211.985 139.576 211.775C139.086 211.565 138.666 211.245 138.316 210.815C137.966 210.385 137.701 209.855 137.521 209.225C137.341 208.585 137.251 207.845 137.251 207.005C137.251 206.255 137.321 205.6 137.461 205.04C137.601 204.47 137.796 203.98 138.046 203.57C138.296 203.16 138.586 202.815 138.916 202.535C139.256 202.245 139.621 202.015 140.011 201.845C140.411 201.665 140.821 201.53 141.241 201.44L144.781 200.615L144.961 201.605L141.631 202.355C141.421 202.405 141.166 202.475 140.866 202.565C140.576 202.655 140.276 202.79 139.966 202.97C139.666 203.15 139.386 203.4 139.126 203.72C138.866 204.04 138.656 204.455 138.496 204.965C138.346 205.465 138.271 206.09 138.271 206.84C138.271 207 138.276 207.13 138.286 207.23C138.296 207.32 138.306 207.42 138.316 207.53C138.336 207.63 138.351 207.78 138.361 207.98L137.896 207.59C138.006 206.98 138.231 206.45 138.571 206C138.911 205.54 139.336 205.185 139.846 204.935C140.366 204.675 140.941 204.545 141.571 204.545C142.301 204.545 142.951 204.705 143.521 205.025C144.091 205.335 144.536 205.77 144.856 206.33C145.186 206.89 145.351 207.54 145.351 208.28C145.351 209.01 145.181 209.665 144.841 210.245C144.511 210.825 144.041 211.28 143.431 211.61C142.821 211.93 142.106 212.09 141.286 212.09ZM141.406 211.205C141.966 211.205 142.461 211.08 142.891 210.83C143.321 210.57 143.656 210.22 143.896 209.78C144.146 209.34 144.271 208.845 144.271 208.295C144.271 207.755 144.146 207.275 143.896 206.855C143.656 206.435 143.321 206.105 142.891 205.865C142.461 205.615 141.961 205.49 141.391 205.49C140.831 205.49 140.336 205.61 139.906 205.85C139.476 206.08 139.136 206.405 138.886 206.825C138.646 207.245 138.526 207.73 138.526 208.28C138.526 208.83 138.646 209.325 138.886 209.765C139.136 210.205 139.476 210.555 139.906 210.815C140.346 211.075 140.846 211.205 141.406 211.205ZM150.874 212.075C150.114 212.075 149.429 211.905 148.819 211.565C148.219 211.215 147.744 210.74 147.394 210.14C147.044 209.53 146.869 208.835 146.869 208.055C146.869 207.265 147.044 206.57 147.394 205.97C147.744 205.37 148.219 204.9 148.819 204.56C149.419 204.22 150.104 204.05 150.874 204.05C151.654 204.05 152.344 204.22 152.944 204.56C153.554 204.9 154.029 205.37 154.369 205.97C154.719 206.57 154.894 207.265 154.894 208.055C154.894 208.835 154.719 209.53 154.369 210.14C154.029 210.74 153.554 211.215 152.944 211.565C152.334 211.905 151.644 212.075 150.874 212.075ZM150.874 211.13C151.444 211.13 151.949 211.005 152.389 210.755C152.829 210.495 153.174 210.135 153.424 209.675C153.684 209.205 153.814 208.665 153.814 208.055C153.814 207.435 153.684 206.895 153.424 206.435C153.174 205.975 152.829 205.62 152.389 205.37C151.949 205.11 151.449 204.98 150.889 204.98C150.329 204.98 149.829 205.11 149.389 205.37C148.949 205.62 148.599 205.975 148.339 206.435C148.079 206.895 147.949 207.435 147.949 208.055C147.949 208.665 148.079 209.205 148.339 209.675C148.599 210.135 148.949 210.495 149.389 210.755C149.829 211.005 150.324 211.13 150.874 211.13ZM162.15 208.67C161.69 208.87 161.225 209.03 160.755 209.15C160.295 209.26 159.835 209.315 159.375 209.315C158.445 209.315 157.71 209.105 157.17 208.685C156.63 208.255 156.36 207.595 156.36 206.705V204.125H157.41V206.645C157.41 207.245 157.605 207.695 157.995 207.995C158.385 208.295 158.91 208.445 159.57 208.445C159.97 208.445 160.39 208.395 160.83 208.295C161.27 208.185 161.715 208.03 162.165 207.83L162.15 208.67ZM162.06 212V204.125H163.125V212H162.06ZM166.15 212V204.125H167.215V210.38L172.48 204.125H173.425V212H172.36V205.73L167.11 212H166.15ZM175.187 212L178.517 207.68L178.502 208.205L175.337 204.125H176.537L179.132 207.5L178.682 207.485L181.277 204.125H182.447L179.252 208.25L179.267 207.68L182.627 212H181.412L178.667 208.4L179.087 208.46L176.387 212H175.187ZM193.698 211.49V205.055H189.903L189.813 206.81C189.793 207.34 189.758 207.86 189.708 208.37C189.668 208.88 189.593 209.35 189.483 209.78C189.383 210.2 189.238 210.545 189.048 210.815C188.858 211.075 188.613 211.225 188.313 211.265L187.248 211.07C187.558 211.08 187.813 210.97 188.013 210.74C188.213 210.5 188.368 210.175 188.478 209.765C188.588 209.355 188.668 208.89 188.718 208.37C188.768 207.84 188.808 207.3 188.838 206.75L188.943 204.125H194.763V211.49H193.698ZM186.918 213.905V211.07H195.993V213.905H194.988V212H187.923V213.905H186.918ZM198.069 212V204.125H199.134V207.605H204.099V204.125H205.164V212H204.099V208.52H199.134V212H198.069ZM213.276 212V209.165L213.471 209.39H210.801C209.791 209.39 209.001 209.17 208.431 208.73C207.861 208.29 207.576 207.65 207.576 206.81C207.576 205.91 207.881 205.24 208.491 204.8C209.101 204.35 209.916 204.125 210.936 204.125H214.251V212H213.276ZM207.516 212L209.676 208.97H210.786L208.671 212H207.516ZM213.276 208.85V204.74L213.471 205.055H210.966C210.236 205.055 209.666 205.195 209.256 205.475C208.856 205.755 208.656 206.21 208.656 206.84C208.656 208.01 209.401 208.595 210.891 208.595H213.471L213.276 208.85Z" fill="black"/>
<path d="M58.25 267H64.25M52.25 261.75H71.75M67.25 267H68.75M53.75 257.25C53 257.25 52.25 258 52.25 258.75V269.25C52.25 270 53 270.75 53.75 270.75H70.25C71 270.75 71.75 270 71.75 269.25V258.75C71.75 258 71 257.25 70.25 257.25H53.75Z" stroke="black" stroke-width="2" stroke-linecap="round" stroke-linejoin="round"/>
<path d="M100.375 266.09C99.585 266.09 98.85 265.96 98.17 265.7C97.5 265.43 96.915 265.055 96.415 264.575C95.925 264.085 95.54 263.52 95.26 262.88C94.99 262.23 94.855 261.52 94.855 260.75C94.855 259.98 94.99 259.275 95.26 258.635C95.54 257.985 95.925 257.42 96.415 256.94C96.915 256.45 97.5 256.075 98.17 255.815C98.84 255.545 99.575 255.41 100.375 255.41C101.165 255.41 101.895 255.545 102.565 255.815C103.235 256.075 103.815 256.445 104.305 256.925C104.805 257.405 105.19 257.97 105.46 258.62C105.74 259.27 105.88 259.98 105.88 260.75C105.88 261.52 105.74 262.23 105.46 262.88C105.19 263.53 104.805 264.095 104.305 264.575C103.815 265.055 103.235 265.43 102.565 265.7C101.895 265.96 101.165 266.09 100.375 266.09ZM100.375 265.1C101.005 265.1 101.585 264.995 102.115 264.785C102.655 264.565 103.12 264.26 103.51 263.87C103.91 263.47 104.22 263.01 104.44 262.49C104.66 261.96 104.77 261.38 104.77 260.75C104.77 260.12 104.66 259.545 104.44 259.025C104.22 258.495 103.91 258.035 103.51 257.645C103.12 257.245 102.655 256.94 102.115 256.73C101.585 256.51 101.005 256.4 100.375 256.4C99.745 256.4 99.16 256.51 98.62 256.73C98.08 256.94 97.61 257.245 97.21 257.645C96.82 258.035 96.51 258.495 96.28 259.025C96.06 259.545 95.95 260.12 95.95 260.75C95.95 261.37 96.06 261.945 96.28 262.475C96.51 263.005 96.82 263.47 97.21 263.87C97.61 264.26 98.08 264.565 98.62 264.785C99.16 264.995 99.745 265.1 100.375 265.1ZM108.274 266V258.125H115.354V266H114.289V258.77L114.559 259.055H109.069L109.339 258.77V266H108.274ZM116.941 265.985L117.016 265.07C117.086 265.08 117.151 265.095 117.211 265.115C117.281 265.125 117.341 265.13 117.391 265.13C117.711 265.13 117.966 265.01 118.156 264.77C118.356 264.53 118.506 264.21 118.606 263.81C118.706 263.41 118.776 262.96 118.816 262.46C118.856 261.95 118.891 261.44 118.921 260.93L119.056 258.125H124.831V266H123.766V258.74L124.036 259.055H119.746L120.001 258.725L119.881 261.005C119.851 261.685 119.796 262.335 119.716 262.955C119.646 263.575 119.531 264.12 119.371 264.59C119.221 265.06 119.011 265.43 118.741 265.7C118.471 265.96 118.126 266.09 117.706 266.09C117.586 266.09 117.461 266.08 117.331 266.06C117.211 266.04 117.081 266.015 116.941 265.985ZM132.749 266V264.26L132.704 263.975V261.065C132.704 260.395 132.514 259.88 132.134 259.52C131.764 259.16 131.209 258.98 130.469 258.98C129.959 258.98 129.474 259.065 129.014 259.235C128.554 259.405 128.164 259.63 127.844 259.91L127.364 259.115C127.764 258.775 128.244 258.515 128.804 258.335C129.364 258.145 129.954 258.05 130.574 258.05C131.594 258.05 132.379 258.305 132.929 258.815C133.489 259.315 133.769 260.08 133.769 261.11V266H132.749ZM130.034 266.075C129.444 266.075 128.929 265.98 128.489 265.79C128.059 265.59 127.729 265.32 127.499 264.98C127.269 264.63 127.154 264.23 127.154 263.78C127.154 263.37 127.249 263 127.439 262.67C127.639 262.33 127.959 262.06 128.399 261.86C128.849 261.65 129.449 261.545 130.199 261.545H132.914V262.34H130.229C129.469 262.34 128.939 262.475 128.639 262.745C128.349 263.015 128.204 263.35 128.204 263.75C128.204 264.2 128.379 264.56 128.729 264.83C129.079 265.1 129.569 265.235 130.199 265.235C130.799 265.235 131.314 265.1 131.744 264.83C132.184 264.55 132.504 264.15 132.704 263.63L132.944 264.365C132.744 264.885 132.394 265.3 131.894 265.61C131.404 265.92 130.784 266.075 130.034 266.075ZM138.104 266V258.77L138.374 259.055H135.119V258.125H142.154V259.055H138.899L139.169 258.77V266H138.104ZM148.584 266V264.26L148.539 263.975V261.065C148.539 260.395 148.349 259.88 147.969 259.52C147.599 259.16 147.044 258.98 146.304 258.98C145.794 258.98 145.309 259.065 144.849 259.235C144.389 259.405 143.999 259.63 143.679 259.91L143.199 259.115C143.599 258.775 144.079 258.515 144.639 258.335C145.199 258.145 145.789 258.05 146.409 258.05C147.429 258.05 148.214 258.305 148.764 258.815C149.324 259.315 149.604 260.08 149.604 261.11V266H148.584ZM145.869 266.075C145.279 266.075 144.764 265.98 144.324 265.79C143.894 265.59 143.564 265.32 143.334 264.98C143.104 264.63 142.989 264.23 142.989 263.78C142.989 263.37 143.084 263 143.274 262.67C143.474 262.33 143.794 262.06 144.234 261.86C144.684 261.65 145.284 261.545 146.034 261.545H148.749V262.34H146.064C145.304 262.34 144.774 262.475 144.474 262.745C144.184 263.015 144.039 263.35 144.039 263.75C144.039 264.2 144.214 264.56 144.564 264.83C144.914 265.1 145.404 265.235 146.034 265.235C146.634 265.235 147.149 265.1 147.579 264.83C148.019 264.55 148.339 264.15 148.539 263.63L148.779 264.365C148.579 264.885 148.229 265.3 147.729 265.61C147.239 265.92 146.619 266.075 145.869 266.075ZM159.605 266.075C158.845 266.075 158.16 265.905 157.55 265.565C156.95 265.215 156.475 264.74 156.125 264.14C155.775 263.53 155.6 262.835 155.6 262.055C155.6 261.265 155.775 260.57 156.125 259.97C156.475 259.37 156.95 258.9 157.55 258.56C158.15 258.22 158.835 258.05 159.605 258.05C160.385 258.05 161.075 258.22 161.675 258.56C162.285 258.9 162.76 259.37 163.1 259.97C163.45 260.57 163.625 261.265 163.625 262.055C163.625 262.835 163.45 263.53 163.1 264.14C162.76 264.74 162.285 265.215 161.675 265.565C161.065 265.905 160.375 266.075 159.605 266.075ZM159.605 265.13C160.175 265.13 160.68 265.005 161.12 264.755C161.56 264.495 161.905 264.135 162.155 263.675C162.415 263.205 162.545 262.665 162.545 262.055C162.545 261.435 162.415 260.895 162.155 260.435C161.905 259.975 161.56 259.62 161.12 259.37C160.68 259.11 160.18 258.98 159.62 258.98C159.06 258.98 158.56 259.11 158.12 259.37C157.68 259.62 157.33 259.975 157.07 260.435C156.81 260.895 156.68 261.435 156.68 262.055C156.68 262.665 156.81 263.205 157.07 263.675C157.33 264.135 157.68 264.495 158.12 264.755C158.56 265.005 159.055 265.13 159.605 265.13ZM165.901 266V258.125H166.966V261.605H171.931V258.125H172.996V266H171.931V262.52H166.966V266H165.901ZM174.583 265.985L174.658 265.07C174.728 265.08 174.793 265.095 174.853 265.115C174.923 265.125 174.983 265.13 175.033 265.13C175.353 265.13 175.608 265.01 175.798 264.77C175.998 264.53 176.148 264.21 176.248 263.81C176.348 263.41 176.418 262.96 176.458 262.46C176.498 261.95 176.533 261.44 176.563 260.93L176.698 258.125H182.473V266H181.408V258.74L181.678 259.055H177.388L177.643 258.725L177.523 261.005C177.493 261.685 177.438 262.335 177.358 262.955C177.288 263.575 177.173 264.12 177.013 264.59C176.863 265.06 176.653 265.43 176.383 265.7C176.113 265.96 175.768 266.09 175.348 266.09C175.228 266.09 175.103 266.08 174.973 266.06C174.853 266.04 174.723 266.015 174.583 265.985ZM190.39 266V264.26L190.345 263.975V261.065C190.345 260.395 190.155 259.88 189.775 259.52C189.405 259.16 188.85 258.98 188.11 258.98C187.6 258.98 187.115 259.065 186.655 259.235C186.195 259.405 185.805 259.63 185.485 259.91L185.005 259.115C185.405 258.775 185.885 258.515 186.445 258.335C187.005 258.145 187.595 258.05 188.215 258.05C189.235 258.05 190.02 258.305 190.57 258.815C191.13 259.315 191.41 260.08 191.41 261.11V266H190.39ZM187.675 266.075C187.085 266.075 186.57 265.98 186.13 265.79C185.7 265.59 185.37 265.32 185.14 264.98C184.91 264.63 184.795 264.23 184.795 263.78C184.795 263.37 184.89 263 185.08 262.67C185.28 262.33 185.6 262.06 186.04 261.86C186.49 261.65 187.09 261.545 187.84 261.545H190.555V262.34H187.87C187.11 262.34 186.58 262.475 186.28 262.745C185.99 263.015 185.845 263.35 185.845 263.75C185.845 264.2 186.02 264.56 186.37 264.83C186.72 265.1 187.21 265.235 187.84 265.235C188.44 265.235 188.955 265.1 189.385 264.83C189.825 264.55 190.145 264.15 190.345 263.63L190.585 264.365C190.385 264.885 190.035 265.3 189.535 265.61C189.045 265.92 188.425 266.075 187.675 266.075ZM194.245 266V258.125H195.31V264.38L200.575 258.125H201.52V266H200.455V259.73L195.205 266H194.245ZM197.815 256.985C197.155 256.985 196.62 256.82 196.21 256.49C195.81 256.15 195.6 255.665 195.58 255.035H196.345C196.355 255.435 196.495 255.75 196.765 255.98C197.035 256.21 197.385 256.325 197.815 256.325C198.245 256.325 198.595 256.21 198.865 255.98C199.145 255.75 199.29 255.435 199.3 255.035H200.065C200.055 255.665 199.845 256.15 199.435 256.49C199.025 256.82 198.485 256.985 197.815 256.985ZM204.573 266V258.125H205.638V261.605H210.603V258.125H211.668V266H210.603V262.52H205.638V266H204.573Z" fill="black"/>
</svg>
