<svg width="420" height="326" viewBox="0 0 420 326" fill="none" xmlns="http://www.w3.org/2000/svg">
<rect width="420" height="326" rx="20" fill="#D7F1F4"/>
<path d="M52.124 67V54.4H62.726V67H61.412V55.192L61.754 55.552H53.096L53.438 55.192V67H52.124ZM70.5595 67.09C69.6475 67.09 68.8255 66.886 68.0935 66.478C67.3735 66.058 66.8035 65.488 66.3835 64.768C65.9635 64.036 65.7535 63.202 65.7535 62.266C65.7535 61.318 65.9635 60.484 66.3835 59.764C66.8035 59.044 67.3735 58.48 68.0935 58.072C68.8135 57.664 69.6355 57.46 70.5595 57.46C71.4955 57.46 72.3235 57.664 73.0435 58.072C73.7755 58.48 74.3455 59.044 74.7535 59.764C75.1735 60.484 75.3835 61.318 75.3835 62.266C75.3835 63.202 75.1735 64.036 74.7535 64.768C74.3455 65.488 73.7755 66.058 73.0435 66.478C72.3115 66.886 71.4835 67.09 70.5595 67.09ZM70.5595 65.956C71.2435 65.956 71.8495 65.806 72.3775 65.506C72.9055 65.194 73.3195 64.762 73.6195 64.21C73.9315 63.646 74.0875 62.998 74.0875 62.266C74.0875 61.522 73.9315 60.874 73.6195 60.322C73.3195 59.77 72.9055 59.344 72.3775 59.044C71.8495 58.732 71.2495 58.576 70.5775 58.576C69.9055 58.576 69.3055 58.732 68.7775 59.044C68.2495 59.344 67.8295 59.77 67.5175 60.322C67.2055 60.874 67.0495 61.522 67.0495 62.266C67.0495 62.998 67.2055 63.646 67.5175 64.21C67.8295 64.762 68.2495 65.194 68.7775 65.506C69.3055 65.806 69.8995 65.956 70.5595 65.956ZM84.0909 63.004C83.5389 63.244 82.9809 63.436 82.4169 63.58C81.8649 63.712 81.3129 63.778 80.7609 63.778C79.6449 63.778 78.7629 63.526 78.1149 63.022C77.4669 62.506 77.1429 61.714 77.1429 60.646V57.55H78.4029V60.574C78.4029 61.294 78.6369 61.834 79.1049 62.194C79.5729 62.554 80.2029 62.734 80.9949 62.734C81.4749 62.734 81.9789 62.674 82.5069 62.554C83.0349 62.422 83.5689 62.236 84.1089 61.996L84.0909 63.004ZM83.9829 67V57.55H85.2609V67H83.9829ZM90.6903 67V58.324L91.0143 58.666H87.1083V57.55H95.5503V58.666H91.6443L91.9683 58.324V67H90.6903ZM103.266 67V64.912L103.212 64.57V61.078C103.212 60.274 102.984 59.656 102.528 59.224C102.084 58.792 101.418 58.576 100.53 58.576C99.9181 58.576 99.3361 58.678 98.7841 58.882C98.2321 59.086 97.7641 59.356 97.3801 59.692L96.8041 58.738C97.2841 58.33 97.8601 58.018 98.5321 57.802C99.2041 57.574 99.9121 57.46 100.656 57.46C101.88 57.46 102.822 57.766 103.482 58.378C104.154 58.978 104.49 59.896 104.49 61.132V67H103.266ZM100.008 67.09C99.3001 67.09 98.6821 66.976 98.1541 66.748C97.6381 66.508 97.2421 66.184 96.9661 65.776C96.6901 65.356 96.5521 64.876 96.5521 64.336C96.5521 63.844 96.6661 63.4 96.8941 63.004C97.1341 62.596 97.5181 62.272 98.0461 62.032C98.5861 61.78 99.3061 61.654 100.206 61.654H103.464V62.608H100.242C99.3301 62.608 98.6941 62.77 98.3341 63.094C97.9861 63.418 97.8121 63.82 97.8121 64.3C97.8121 64.84 98.0221 65.272 98.4421 65.596C98.8621 65.92 99.4501 66.082 100.206 66.082C100.926 66.082 101.544 65.92 102.06 65.596C102.588 65.26 102.972 64.78 103.212 64.156L103.5 65.038C103.26 65.662 102.84 66.16 102.24 66.532C101.652 66.904 100.908 67.09 100.008 67.09ZM112.909 67V54.4H117.625C118.693 54.4 119.611 54.574 120.379 54.922C121.147 55.258 121.735 55.75 122.143 56.398C122.563 57.034 122.773 57.808 122.773 58.72C122.773 59.608 122.563 60.376 122.143 61.024C121.735 61.66 121.147 62.152 120.379 62.5C119.611 62.848 118.693 63.022 117.625 63.022H113.647L114.241 62.392V67H112.909ZM114.241 62.5L113.647 61.852H117.589C118.849 61.852 119.803 61.582 120.451 61.042C121.111 60.49 121.441 59.716 121.441 58.72C121.441 57.712 121.111 56.932 120.451 56.38C119.803 55.828 118.849 55.552 117.589 55.552H113.647L114.241 54.922V62.5ZM129.024 67.09C128.112 67.09 127.29 66.886 126.558 66.478C125.838 66.058 125.268 65.488 124.848 64.768C124.428 64.036 124.218 63.202 124.218 62.266C124.218 61.318 124.428 60.484 124.848 59.764C125.268 59.044 125.838 58.48 126.558 58.072C127.278 57.664 128.1 57.46 129.024 57.46C129.96 57.46 130.788 57.664 131.508 58.072C132.24 58.48 132.81 59.044 133.218 59.764C133.638 60.484 133.848 61.318 133.848 62.266C133.848 63.202 133.638 64.036 133.218 64.768C132.81 65.488 132.24 66.058 131.508 66.478C130.776 66.886 129.948 67.09 129.024 67.09ZM129.024 65.956C129.708 65.956 130.314 65.806 130.842 65.506C131.37 65.194 131.784 64.762 132.084 64.21C132.396 63.646 132.552 62.998 132.552 62.266C132.552 61.522 132.396 60.874 132.084 60.322C131.784 59.77 131.37 59.344 130.842 59.044C130.314 58.732 129.714 58.576 129.042 58.576C128.37 58.576 127.77 58.732 127.242 59.044C126.714 59.344 126.294 59.77 125.982 60.322C125.67 60.874 125.514 61.522 125.514 62.266C125.514 62.998 125.67 63.646 125.982 64.21C126.294 64.762 126.714 65.194 127.242 65.506C127.77 65.806 128.364 65.956 129.024 65.956ZM140.54 67.09C139.604 67.09 138.764 66.886 138.02 66.478C137.288 66.058 136.712 65.488 136.292 64.768C135.872 64.036 135.662 63.202 135.662 62.266C135.662 61.318 135.872 60.484 136.292 59.764C136.712 59.044 137.288 58.48 138.02 58.072C138.764 57.664 139.604 57.46 140.54 57.46C141.344 57.46 142.07 57.616 142.718 57.928C143.366 58.24 143.876 58.708 144.248 59.332L143.294 59.98C142.97 59.5 142.568 59.146 142.088 58.918C141.608 58.69 141.086 58.576 140.522 58.576C139.85 58.576 139.244 58.732 138.704 59.044C138.164 59.344 137.738 59.77 137.426 60.322C137.114 60.874 136.958 61.522 136.958 62.266C136.958 63.01 137.114 63.658 137.426 64.21C137.738 64.762 138.164 65.194 138.704 65.506C139.244 65.806 139.85 65.956 140.522 65.956C141.086 65.956 141.608 65.842 142.088 65.614C142.568 65.386 142.97 65.038 143.294 64.57L144.248 65.218C143.876 65.83 143.366 66.298 142.718 66.622C142.07 66.934 141.344 67.09 140.54 67.09ZM150.524 67.09C149.588 67.09 148.748 66.886 148.004 66.478C147.272 66.058 146.696 65.488 146.276 64.768C145.856 64.036 145.646 63.202 145.646 62.266C145.646 61.318 145.856 60.484 146.276 59.764C146.696 59.044 147.272 58.48 148.004 58.072C148.748 57.664 149.588 57.46 150.524 57.46C151.328 57.46 152.054 57.616 152.702 57.928C153.35 58.24 153.86 58.708 154.232 59.332L153.278 59.98C152.954 59.5 152.552 59.146 152.072 58.918C151.592 58.69 151.07 58.576 150.506 58.576C149.834 58.576 149.228 58.732 148.688 59.044C148.148 59.344 147.722 59.77 147.41 60.322C147.098 60.874 146.942 61.522 146.942 62.266C146.942 63.01 147.098 63.658 147.41 64.21C147.722 64.762 148.148 65.194 148.688 65.506C149.228 65.806 149.834 65.956 150.506 65.956C151.07 65.956 151.592 65.842 152.072 65.614C152.552 65.386 152.954 65.038 153.278 64.57L154.232 65.218C153.86 65.83 153.35 66.298 152.702 66.622C152.054 66.934 151.328 67.09 150.524 67.09ZM156.707 67V57.55H157.985V65.056L164.303 57.55H165.437V67H164.159V59.476L157.859 67H156.707ZM169.099 67V57.55H170.377V65.056L176.695 57.55H177.829V67H176.551V59.476L170.251 67H169.099Z" fill="black"/>
<path d="M62 144C67.523 144 72 139.523 72 134C72 128.477 67.523 124 62 124C56.477 124 52 128.477 52 134C52 139.523 56.477 144 62 144Z" stroke="black" stroke-width="1.5" stroke-linecap="round" stroke-linejoin="round"/>
<path d="M65 130.5C64.315 129.815 63.109 129.339 62 129.309M62 129.309C60.68 129.273 59.5 129.87 59.5 131.5C59.5 134.5 65 133 65 136C65 137.711 63.536 138.446 62 138.391M62 129.309V127.5M59 137C59.644 137.86 60.843 138.35 62 138.391M62 138.391V140.5" stroke="black" stroke-width="1.5" stroke-linecap="round" stroke-linejoin="round"/>
<path d="M97.915 136.09C97.155 136.09 96.435 135.97 95.755 135.73C95.085 135.48 94.545 135.15 94.135 134.74L94.66 133.885C95 134.235 95.455 134.525 96.025 134.755C96.605 134.985 97.235 135.1 97.915 135.1C98.785 135.1 99.45 134.91 99.91 134.53C100.38 134.15 100.615 133.64 100.615 133C100.615 132.36 100.385 131.85 99.925 131.47C99.475 131.09 98.76 130.9 97.78 130.9H97.03V130.105L100.27 126.04L100.42 126.46H94.57V125.5H101.32V126.265L98.08 130.33L97.555 129.985H97.96C99.22 129.985 100.16 130.265 100.78 130.825C101.41 131.385 101.725 132.105 101.725 132.985C101.725 133.575 101.585 134.105 101.305 134.575C101.025 135.045 100.6 135.415 100.03 135.685C99.47 135.955 98.765 136.09 97.915 136.09ZM106.415 136.09C105.665 136.09 104.95 135.97 104.27 135.73C103.59 135.48 103.05 135.15 102.65 134.74L103.175 133.885C103.505 134.235 103.955 134.525 104.525 134.755C105.105 134.985 105.73 135.1 106.4 135.1C107.29 135.1 107.965 134.905 108.425 134.515C108.895 134.115 109.13 133.595 109.13 132.955C109.13 132.505 109.02 132.12 108.8 131.8C108.59 131.47 108.23 131.215 107.72 131.035C107.21 130.855 106.51 130.765 105.62 130.765H103.385L103.925 125.5H109.67V126.46H104.36L104.915 125.935L104.45 130.345L103.895 129.805H105.86C106.92 129.805 107.77 129.935 108.41 130.195C109.05 130.455 109.51 130.82 109.79 131.29C110.08 131.75 110.225 132.29 110.225 132.91C110.225 133.5 110.085 134.04 109.805 134.53C109.525 135.01 109.105 135.39 108.545 135.67C107.985 135.95 107.275 136.09 106.415 136.09ZM115.781 136.09C114.971 136.09 114.251 135.88 113.621 135.46C112.991 135.03 112.496 134.42 112.136 133.63C111.776 132.83 111.596 131.87 111.596 130.75C111.596 129.63 111.776 128.675 112.136 127.885C112.496 127.085 112.991 126.475 113.621 126.055C114.251 125.625 114.971 125.41 115.781 125.41C116.591 125.41 117.311 125.625 117.941 126.055C118.571 126.475 119.066 127.085 119.426 127.885C119.796 128.675 119.981 129.63 119.981 130.75C119.981 131.87 119.796 132.83 119.426 133.63C119.066 134.42 118.571 135.03 117.941 135.46C117.311 135.88 116.591 136.09 115.781 136.09ZM115.781 135.1C116.401 135.1 116.941 134.935 117.401 134.605C117.861 134.265 118.221 133.775 118.481 133.135C118.741 132.485 118.871 131.69 118.871 130.75C118.871 129.81 118.741 129.02 118.481 128.38C118.221 127.73 117.861 127.24 117.401 126.91C116.941 126.57 116.401 126.4 115.781 126.4C115.181 126.4 114.646 126.57 114.176 126.91C113.706 127.24 113.341 127.73 113.081 128.38C112.821 129.02 112.691 129.81 112.691 130.75C112.691 131.69 112.821 132.485 113.081 133.135C113.341 133.775 113.706 134.265 114.176 134.605C114.646 134.935 115.181 135.1 115.781 135.1ZM130.254 136.075C129.574 136.075 128.959 135.92 128.409 135.61C127.859 135.29 127.419 134.835 127.089 134.245C126.769 133.645 126.609 132.915 126.609 132.055C126.609 131.195 126.769 130.47 127.089 129.88C127.409 129.28 127.844 128.825 128.394 128.515C128.944 128.205 129.564 128.05 130.254 128.05C131.004 128.05 131.674 128.22 132.264 128.56C132.864 128.89 133.334 129.36 133.674 129.97C134.014 130.57 134.184 131.265 134.184 132.055C134.184 132.855 134.014 133.555 133.674 134.155C133.334 134.755 132.864 135.225 132.264 135.565C131.674 135.905 131.004 136.075 130.254 136.075ZM126.189 138.91V128.125H127.209V130.495L127.104 132.07L127.254 133.66V138.91H126.189ZM130.179 135.13C130.739 135.13 131.239 135.005 131.679 134.755C132.119 134.495 132.469 134.135 132.729 133.675C132.989 133.205 133.119 132.665 133.119 132.055C133.119 131.445 132.989 130.91 132.729 130.45C132.469 129.99 132.119 129.63 131.679 129.37C131.239 129.11 130.739 128.98 130.179 128.98C129.619 128.98 129.114 129.11 128.664 129.37C128.224 129.63 127.874 129.99 127.614 130.45C127.364 130.91 127.239 131.445 127.239 132.055C127.239 132.665 127.364 133.205 127.614 133.675C127.874 134.135 128.224 134.495 128.664 134.755C129.114 135.005 129.619 135.13 130.179 135.13ZM136.327 136.075C136.107 136.075 135.917 135.995 135.757 135.835C135.607 135.675 135.532 135.48 135.532 135.25C135.532 135.01 135.607 134.815 135.757 134.665C135.917 134.515 136.107 134.44 136.327 134.44C136.547 134.44 136.732 134.515 136.882 134.665C137.042 134.815 137.122 135.01 137.122 135.25C137.122 135.48 137.042 135.675 136.882 135.835C136.732 135.995 136.547 136.075 136.327 136.075Z" fill="black"/>
<path d="M95.77 164V153.5H103.45V154.445H96.865V157.88H100.3C101.54 157.88 102.48 158.135 103.12 158.645C103.77 159.145 104.095 159.885 104.095 160.865C104.095 161.875 103.745 162.65 103.045 163.19C102.355 163.73 101.36 164 100.06 164H95.77ZM96.865 163.115H100.045C101.015 163.115 101.745 162.93 102.235 162.56C102.735 162.18 102.985 161.63 102.985 160.91C102.985 159.48 102.005 158.765 100.045 158.765H96.865V163.115ZM109.774 164.075C108.954 164.075 108.234 163.905 107.614 163.565C106.994 163.215 106.509 162.74 106.159 162.14C105.809 161.53 105.634 160.835 105.634 160.055C105.634 159.275 105.799 158.585 106.129 157.985C106.469 157.385 106.929 156.915 107.509 156.575C108.099 156.225 108.759 156.05 109.489 156.05C110.229 156.05 110.884 156.22 111.454 156.56C112.034 156.89 112.489 157.36 112.819 157.97C113.149 158.57 113.314 159.265 113.314 160.055C113.314 160.105 113.309 160.16 113.299 160.22C113.299 160.27 113.299 160.325 113.299 160.385H106.444V159.59H112.729L112.309 159.905C112.309 159.335 112.184 158.83 111.934 158.39C111.694 157.94 111.364 157.59 110.944 157.34C110.524 157.09 110.039 156.965 109.489 156.965C108.949 156.965 108.464 157.09 108.034 157.34C107.604 157.59 107.269 157.94 107.029 158.39C106.789 158.84 106.669 159.355 106.669 159.935V160.1C106.669 160.7 106.799 161.23 107.059 161.69C107.329 162.14 107.699 162.495 108.169 162.755C108.649 163.005 109.194 163.13 109.804 163.13C110.284 163.13 110.729 163.045 111.139 162.875C111.559 162.705 111.919 162.445 112.219 162.095L112.819 162.785C112.469 163.205 112.029 163.525 111.499 163.745C110.979 163.965 110.404 164.075 109.774 164.075ZM118.971 164.075C118.191 164.075 117.491 163.905 116.871 163.565C116.261 163.215 115.781 162.74 115.431 162.14C115.081 161.53 114.906 160.835 114.906 160.055C114.906 159.265 115.081 158.57 115.431 157.97C115.781 157.37 116.261 156.9 116.871 156.56C117.491 156.22 118.191 156.05 118.971 156.05C119.641 156.05 120.246 156.18 120.786 156.44C121.326 156.7 121.751 157.09 122.061 157.61L121.266 158.15C120.996 157.75 120.661 157.455 120.261 157.265C119.861 157.075 119.426 156.98 118.956 156.98C118.396 156.98 117.891 157.11 117.441 157.37C116.991 157.62 116.636 157.975 116.376 158.435C116.116 158.895 115.986 159.435 115.986 160.055C115.986 160.675 116.116 161.215 116.376 161.675C116.636 162.135 116.991 162.495 117.441 162.755C117.891 163.005 118.396 163.13 118.956 163.13C119.426 163.13 119.861 163.035 120.261 162.845C120.661 162.655 120.996 162.365 121.266 161.975L122.061 162.515C121.751 163.025 121.326 163.415 120.786 163.685C120.246 163.945 119.641 164.075 118.971 164.075ZM124.123 164V156.125H131.203V164H130.138V156.77L130.408 157.055H124.918L125.188 156.77V164H124.123ZM132.791 163.985L132.866 163.07C132.936 163.08 133.001 163.095 133.061 163.115C133.131 163.125 133.191 163.13 133.241 163.13C133.561 163.13 133.816 163.01 134.006 162.77C134.206 162.53 134.356 162.21 134.456 161.81C134.556 161.41 134.626 160.96 134.666 160.46C134.706 159.95 134.741 159.44 134.771 158.93L134.906 156.125H140.681V164H139.616V156.74L139.886 157.055H135.596L135.851 156.725L135.731 159.005C135.701 159.685 135.646 160.335 135.566 160.955C135.496 161.575 135.381 162.12 135.221 162.59C135.071 163.06 134.861 163.43 134.591 163.7C134.321 163.96 133.976 164.09 133.556 164.09C133.436 164.09 133.311 164.08 133.181 164.06C133.061 164.04 132.931 164.015 132.791 163.985ZM148.598 164V162.26L148.553 161.975V159.065C148.553 158.395 148.363 157.88 147.983 157.52C147.613 157.16 147.058 156.98 146.318 156.98C145.808 156.98 145.323 157.065 144.863 157.235C144.403 157.405 144.013 157.63 143.693 157.91L143.213 157.115C143.613 156.775 144.093 156.515 144.653 156.335C145.213 156.145 145.803 156.05 146.423 156.05C147.443 156.05 148.228 156.305 148.778 156.815C149.338 157.315 149.618 158.08 149.618 159.11V164H148.598ZM145.883 164.075C145.293 164.075 144.778 163.98 144.338 163.79C143.908 163.59 143.578 163.32 143.348 162.98C143.118 162.63 143.003 162.23 143.003 161.78C143.003 161.37 143.098 161 143.288 160.67C143.488 160.33 143.808 160.06 144.248 159.86C144.698 159.65 145.298 159.545 146.048 159.545H148.763V160.34H146.078C145.318 160.34 144.788 160.475 144.488 160.745C144.198 161.015 144.053 161.35 144.053 161.75C144.053 162.2 144.228 162.56 144.578 162.83C144.928 163.1 145.418 163.235 146.048 163.235C146.648 163.235 147.163 163.1 147.593 162.83C148.033 162.55 148.353 162.15 148.553 161.63L148.793 162.365C148.593 162.885 148.243 163.3 147.743 163.61C147.253 163.92 146.633 164.075 145.883 164.075ZM153.953 164V156.77L154.223 157.055H150.968V156.125H158.003V157.055H154.748L155.018 156.77V164H153.953ZM159.543 164V156.125H160.608V159.605H165.573V156.125H166.638V164H165.573V160.52H160.608V164H159.543ZM172.905 164.075C172.145 164.075 171.46 163.905 170.85 163.565C170.25 163.215 169.775 162.74 169.425 162.14C169.075 161.53 168.9 160.835 168.9 160.055C168.9 159.265 169.075 158.57 169.425 157.97C169.775 157.37 170.25 156.9 170.85 156.56C171.45 156.22 172.135 156.05 172.905 156.05C173.685 156.05 174.375 156.22 174.975 156.56C175.585 156.9 176.06 157.37 176.4 157.97C176.75 158.57 176.925 159.265 176.925 160.055C176.925 160.835 176.75 161.53 176.4 162.14C176.06 162.74 175.585 163.215 174.975 163.565C174.365 163.905 173.675 164.075 172.905 164.075ZM172.905 163.13C173.475 163.13 173.98 163.005 174.42 162.755C174.86 162.495 175.205 162.135 175.455 161.675C175.715 161.205 175.845 160.665 175.845 160.055C175.845 159.435 175.715 158.895 175.455 158.435C175.205 157.975 174.86 157.62 174.42 157.37C173.98 157.11 173.48 156.98 172.92 156.98C172.36 156.98 171.86 157.11 171.42 157.37C170.98 157.62 170.63 157.975 170.37 158.435C170.11 158.895 169.98 159.435 169.98 160.055C169.98 160.665 170.11 161.205 170.37 161.675C170.63 162.135 170.98 162.495 171.42 162.755C171.86 163.005 172.355 163.13 172.905 163.13ZM183.127 164V156.125H190.207V164H189.142V156.77L189.412 157.055H183.922L184.192 156.77V164H183.127ZM197.3 164.075C196.62 164.075 196.005 163.92 195.455 163.61C194.905 163.29 194.465 162.835 194.135 162.245C193.815 161.645 193.655 160.915 193.655 160.055C193.655 159.195 193.815 158.47 194.135 157.88C194.455 157.28 194.89 156.825 195.44 156.515C195.99 156.205 196.61 156.05 197.3 156.05C198.05 156.05 198.72 156.22 199.31 156.56C199.91 156.89 200.38 157.36 200.72 157.97C201.06 158.57 201.23 159.265 201.23 160.055C201.23 160.855 201.06 161.555 200.72 162.155C200.38 162.755 199.91 163.225 199.31 163.565C198.72 163.905 198.05 164.075 197.3 164.075ZM193.235 166.91V156.125H194.255V158.495L194.15 160.07L194.3 161.66V166.91H193.235ZM197.225 163.13C197.785 163.13 198.285 163.005 198.725 162.755C199.165 162.495 199.515 162.135 199.775 161.675C200.035 161.205 200.165 160.665 200.165 160.055C200.165 159.445 200.035 158.91 199.775 158.45C199.515 157.99 199.165 157.63 198.725 157.37C198.285 157.11 197.785 156.98 197.225 156.98C196.665 156.98 196.16 157.11 195.71 157.37C195.27 157.63 194.92 157.99 194.66 158.45C194.41 158.91 194.285 159.445 194.285 160.055C194.285 160.665 194.41 161.205 194.66 161.675C194.92 162.135 195.27 162.495 195.71 162.755C196.16 163.005 196.665 163.13 197.225 163.13ZM203.518 164V156.125H204.583V162.38L209.848 156.125H210.793V164H209.728V157.73L204.478 164H203.518ZM219.886 164.09C219.316 164.09 218.751 164.01 218.191 163.85C217.631 163.69 217.136 163.445 216.706 163.115L217.051 162.32C217.431 162.6 217.871 162.815 218.371 162.965C218.871 163.105 219.366 163.175 219.856 163.175C220.346 163.165 220.771 163.095 221.131 162.965C221.491 162.835 221.771 162.655 221.971 162.425C222.171 162.195 222.271 161.935 222.271 161.645C222.271 161.225 222.081 160.9 221.701 160.67C221.321 160.43 220.801 160.31 220.141 160.31H218.791V159.53H220.066C220.456 159.53 220.801 159.48 221.101 159.38C221.401 159.28 221.631 159.135 221.791 158.945C221.961 158.755 222.046 158.53 222.046 158.27C222.046 157.99 221.946 157.75 221.746 157.55C221.556 157.35 221.291 157.2 220.951 157.1C220.611 157 220.226 156.95 219.796 156.95C219.406 156.96 219.001 157.02 218.581 157.13C218.161 157.23 217.746 157.385 217.336 157.595L217.036 156.77C217.496 156.53 217.951 156.35 218.401 156.23C218.861 156.1 219.321 156.035 219.781 156.035C220.411 156.015 220.976 156.09 221.476 156.26C221.986 156.43 222.391 156.675 222.691 156.995C222.991 157.305 223.141 157.68 223.141 158.12C223.141 158.51 223.021 158.85 222.781 159.14C222.541 159.43 222.221 159.655 221.821 159.815C221.421 159.975 220.966 160.055 220.456 160.055L220.501 159.77C221.401 159.77 222.101 159.945 222.601 160.295C223.111 160.645 223.366 161.12 223.366 161.72C223.366 162.19 223.211 162.605 222.901 162.965C222.591 163.315 222.171 163.59 221.641 163.79C221.121 163.99 220.536 164.09 219.886 164.09ZM230.674 164V162.26L230.629 161.975V159.065C230.629 158.395 230.439 157.88 230.059 157.52C229.689 157.16 229.134 156.98 228.394 156.98C227.884 156.98 227.399 157.065 226.939 157.235C226.479 157.405 226.089 157.63 225.769 157.91L225.289 157.115C225.689 156.775 226.169 156.515 226.729 156.335C227.289 156.145 227.879 156.05 228.499 156.05C229.519 156.05 230.304 156.305 230.854 156.815C231.414 157.315 231.694 158.08 231.694 159.11V164H230.674ZM227.959 164.075C227.369 164.075 226.854 163.98 226.414 163.79C225.984 163.59 225.654 163.32 225.424 162.98C225.194 162.63 225.079 162.23 225.079 161.78C225.079 161.37 225.174 161 225.364 160.67C225.564 160.33 225.884 160.06 226.324 159.86C226.774 159.65 227.374 159.545 228.124 159.545H230.839V160.34H228.154C227.394 160.34 226.864 160.475 226.564 160.745C226.274 161.015 226.129 161.35 226.129 161.75C226.129 162.2 226.304 162.56 226.654 162.83C227.004 163.1 227.494 163.235 228.124 163.235C228.724 163.235 229.239 163.1 229.669 162.83C230.109 162.55 230.429 162.15 230.629 161.63L230.869 162.365C230.669 162.885 230.319 163.3 229.819 163.61C229.329 163.92 228.709 164.075 227.959 164.075ZM240.304 164L237.064 160.1L237.949 159.575L241.564 164H240.304ZM234.529 164V156.125H235.594V164H234.529ZM235.264 160.49V159.575H237.799V160.49H235.264ZM238.039 160.175L237.049 160.025L240.184 156.125H241.339L238.039 160.175ZM247.988 164V162.26L247.943 161.975V159.065C247.943 158.395 247.753 157.88 247.373 157.52C247.003 157.16 246.448 156.98 245.708 156.98C245.198 156.98 244.713 157.065 244.253 157.235C243.793 157.405 243.403 157.63 243.083 157.91L242.603 157.115C243.003 156.775 243.483 156.515 244.043 156.335C244.603 156.145 245.193 156.05 245.813 156.05C246.833 156.05 247.618 156.305 248.168 156.815C248.728 157.315 249.008 158.08 249.008 159.11V164H247.988ZM245.273 164.075C244.683 164.075 244.168 163.98 243.728 163.79C243.298 163.59 242.968 163.32 242.738 162.98C242.508 162.63 242.393 162.23 242.393 161.78C242.393 161.37 242.488 161 242.678 160.67C242.878 160.33 243.198 160.06 243.638 159.86C244.088 159.65 244.688 159.545 245.438 159.545H248.153V160.34H245.468C244.708 160.34 244.178 160.475 243.878 160.745C243.588 161.015 243.443 161.35 243.443 161.75C243.443 162.2 243.618 162.56 243.968 162.83C244.318 163.1 244.808 163.235 245.438 163.235C246.038 163.235 246.553 163.1 246.983 162.83C247.423 162.55 247.743 162.15 247.943 161.63L248.183 162.365C247.983 162.885 247.633 163.3 247.133 163.61C246.643 163.92 246.023 164.075 245.273 164.075ZM253.797 164.09C253.227 164.09 252.662 164.01 252.102 163.85C251.542 163.69 251.047 163.445 250.617 163.115L250.962 162.32C251.342 162.6 251.782 162.815 252.282 162.965C252.782 163.105 253.277 163.175 253.767 163.175C254.257 163.165 254.682 163.095 255.042 162.965C255.402 162.835 255.682 162.655 255.882 162.425C256.082 162.195 256.182 161.935 256.182 161.645C256.182 161.225 255.992 160.9 255.612 160.67C255.232 160.43 254.712 160.31 254.052 160.31H252.702V159.53H253.977C254.367 159.53 254.712 159.48 255.012 159.38C255.312 159.28 255.542 159.135 255.702 158.945C255.872 158.755 255.957 158.53 255.957 158.27C255.957 157.99 255.857 157.75 255.657 157.55C255.467 157.35 255.202 157.2 254.862 157.1C254.522 157 254.137 156.95 253.707 156.95C253.317 156.96 252.912 157.02 252.492 157.13C252.072 157.23 251.657 157.385 251.247 157.595L250.947 156.77C251.407 156.53 251.862 156.35 252.312 156.23C252.772 156.1 253.232 156.035 253.692 156.035C254.322 156.015 254.887 156.09 255.387 156.26C255.897 156.43 256.302 156.675 256.602 156.995C256.902 157.305 257.052 157.68 257.052 158.12C257.052 158.51 256.932 158.85 256.692 159.14C256.452 159.43 256.132 159.655 255.732 159.815C255.332 159.975 254.877 160.055 254.367 160.055L254.412 159.77C255.312 159.77 256.012 159.945 256.512 160.295C257.022 160.645 257.277 161.12 257.277 161.72C257.277 162.19 257.122 162.605 256.812 162.965C256.502 163.315 256.082 163.59 255.552 163.79C255.032 163.99 254.447 164.09 253.797 164.09ZM263.07 164.075C262.25 164.075 261.53 163.905 260.91 163.565C260.29 163.215 259.805 162.74 259.455 162.14C259.105 161.53 258.93 160.835 258.93 160.055C258.93 159.275 259.095 158.585 259.425 157.985C259.765 157.385 260.225 156.915 260.805 156.575C261.395 156.225 262.055 156.05 262.785 156.05C263.525 156.05 264.18 156.22 264.75 156.56C265.33 156.89 265.785 157.36 266.115 157.97C266.445 158.57 266.61 159.265 266.61 160.055C266.61 160.105 266.605 160.16 266.595 160.22C266.595 160.27 266.595 160.325 266.595 160.385H259.74V159.59H266.025L265.605 159.905C265.605 159.335 265.48 158.83 265.23 158.39C264.99 157.94 264.66 157.59 264.24 157.34C263.82 157.09 263.335 156.965 262.785 156.965C262.245 156.965 261.76 157.09 261.33 157.34C260.9 157.59 260.565 157.94 260.325 158.39C260.085 158.84 259.965 159.355 259.965 159.935V160.1C259.965 160.7 260.095 161.23 260.355 161.69C260.625 162.14 260.995 162.495 261.465 162.755C261.945 163.005 262.49 163.13 263.1 163.13C263.58 163.13 264.025 163.045 264.435 162.875C264.855 162.705 265.215 162.445 265.515 162.095L266.115 162.785C265.765 163.205 265.325 163.525 264.795 163.745C264.275 163.965 263.7 164.075 263.07 164.075ZM276.133 164.075C275.373 164.075 274.688 163.905 274.078 163.565C273.478 163.215 273.003 162.74 272.653 162.14C272.303 161.53 272.128 160.835 272.128 160.055C272.128 159.265 272.303 158.57 272.653 157.97C273.003 157.37 273.478 156.9 274.078 156.56C274.678 156.22 275.363 156.05 276.133 156.05C276.913 156.05 277.603 156.22 278.203 156.56C278.813 156.9 279.288 157.37 279.628 157.97C279.978 158.57 280.153 159.265 280.153 160.055C280.153 160.835 279.978 161.53 279.628 162.14C279.288 162.74 278.813 163.215 278.203 163.565C277.593 163.905 276.903 164.075 276.133 164.075ZM276.133 163.13C276.703 163.13 277.208 163.005 277.648 162.755C278.088 162.495 278.433 162.135 278.683 161.675C278.943 161.205 279.073 160.665 279.073 160.055C279.073 159.435 278.943 158.895 278.683 158.435C278.433 157.975 278.088 157.62 277.648 157.37C277.208 157.11 276.708 156.98 276.148 156.98C275.588 156.98 275.088 157.11 274.648 157.37C274.208 157.62 273.858 157.975 273.598 158.435C273.338 158.895 273.208 159.435 273.208 160.055C273.208 160.665 273.338 161.205 273.598 161.675C273.858 162.135 274.208 162.495 274.648 162.755C275.088 163.005 275.583 163.13 276.133 163.13ZM283.636 164V156.77L283.906 157.055H280.651V156.125H287.686V157.055H284.431L284.701 156.77V164H283.636ZM295.552 164.09C294.792 164.09 294.072 163.97 293.392 163.73C292.722 163.48 292.182 163.15 291.772 162.74L292.297 161.885C292.637 162.235 293.092 162.525 293.662 162.755C294.242 162.985 294.872 163.1 295.552 163.1C296.422 163.1 297.087 162.91 297.547 162.53C298.017 162.15 298.252 161.64 298.252 161C298.252 160.36 298.022 159.85 297.562 159.47C297.112 159.09 296.397 158.9 295.417 158.9H294.667V158.105L297.907 154.04L298.057 154.46H292.207V153.5H298.957V154.265L295.717 158.33L295.192 157.985H295.597C296.857 157.985 297.797 158.265 298.417 158.825C299.047 159.385 299.362 160.105 299.362 160.985C299.362 161.575 299.222 162.105 298.942 162.575C298.662 163.045 298.237 163.415 297.667 163.685C297.107 163.955 296.402 164.09 295.552 164.09ZM305.069 164.09C304.259 164.09 303.539 163.88 302.909 163.46C302.279 163.03 301.784 162.42 301.424 161.63C301.064 160.83 300.884 159.87 300.884 158.75C300.884 157.63 301.064 156.675 301.424 155.885C301.784 155.085 302.279 154.475 302.909 154.055C303.539 153.625 304.259 153.41 305.069 153.41C305.879 153.41 306.599 153.625 307.229 154.055C307.859 154.475 308.354 155.085 308.714 155.885C309.084 156.675 309.269 157.63 309.269 158.75C309.269 159.87 309.084 160.83 308.714 161.63C308.354 162.42 307.859 163.03 307.229 163.46C306.599 163.88 305.879 164.09 305.069 164.09ZM305.069 163.1C305.689 163.1 306.229 162.935 306.689 162.605C307.149 162.265 307.509 161.775 307.769 161.135C308.029 160.485 308.159 159.69 308.159 158.75C308.159 157.81 308.029 157.02 307.769 156.38C307.509 155.73 307.149 155.24 306.689 154.91C306.229 154.57 305.689 154.4 305.069 154.4C304.469 154.4 303.934 154.57 303.464 154.91C302.994 155.24 302.629 155.73 302.369 156.38C302.109 157.02 301.979 157.81 301.979 158.75C301.979 159.69 302.109 160.485 302.369 161.135C302.629 161.775 302.994 162.265 303.464 162.605C303.934 162.935 304.469 163.1 305.069 163.1ZM315 164.09C314.19 164.09 313.47 163.88 312.84 163.46C312.21 163.03 311.715 162.42 311.355 161.63C310.995 160.83 310.815 159.87 310.815 158.75C310.815 157.63 310.995 156.675 311.355 155.885C311.715 155.085 312.21 154.475 312.84 154.055C313.47 153.625 314.19 153.41 315 153.41C315.81 153.41 316.53 153.625 317.16 154.055C317.79 154.475 318.285 155.085 318.645 155.885C319.015 156.675 319.2 157.63 319.2 158.75C319.2 159.87 319.015 160.83 318.645 161.63C318.285 162.42 317.79 163.03 317.16 163.46C316.53 163.88 315.81 164.09 315 164.09ZM315 163.1C315.62 163.1 316.16 162.935 316.62 162.605C317.08 162.265 317.44 161.775 317.7 161.135C317.96 160.485 318.09 159.69 318.09 158.75C318.09 157.81 317.96 157.02 317.7 156.38C317.44 155.73 317.08 155.24 316.62 154.91C316.16 154.57 315.62 154.4 315 154.4C314.4 154.4 313.865 154.57 313.395 154.91C312.925 155.24 312.56 155.73 312.3 156.38C312.04 157.02 311.91 157.81 311.91 158.75C311.91 159.69 312.04 160.485 312.3 161.135C312.56 161.775 312.925 162.265 313.395 162.605C313.865 162.935 314.4 163.1 315 163.1ZM324.932 164.09C324.122 164.09 323.402 163.88 322.772 163.46C322.142 163.03 321.647 162.42 321.287 161.63C320.927 160.83 320.747 159.87 320.747 158.75C320.747 157.63 320.927 156.675 321.287 155.885C321.647 155.085 322.142 154.475 322.772 154.055C323.402 153.625 324.122 153.41 324.932 153.41C325.742 153.41 326.462 153.625 327.092 154.055C327.722 154.475 328.217 155.085 328.577 155.885C328.947 156.675 329.132 157.63 329.132 158.75C329.132 159.87 328.947 160.83 328.577 161.63C328.217 162.42 327.722 163.03 327.092 163.46C326.462 163.88 325.742 164.09 324.932 164.09ZM324.932 163.1C325.552 163.1 326.092 162.935 326.552 162.605C327.012 162.265 327.372 161.775 327.632 161.135C327.892 160.485 328.022 159.69 328.022 158.75C328.022 157.81 327.892 157.02 327.632 156.38C327.372 155.73 327.012 155.24 326.552 154.91C326.092 154.57 325.552 154.4 324.932 154.4C324.332 154.4 323.797 154.57 323.327 154.91C322.857 155.24 322.492 155.73 322.232 156.38C321.972 157.02 321.842 157.81 321.842 158.75C321.842 159.69 321.972 160.485 322.232 161.135C322.492 161.775 322.857 162.265 323.327 162.605C323.797 162.935 324.332 163.1 324.932 163.1ZM339.404 164.075C338.724 164.075 338.109 163.92 337.559 163.61C337.009 163.29 336.569 162.835 336.239 162.245C335.919 161.645 335.759 160.915 335.759 160.055C335.759 159.195 335.919 158.47 336.239 157.88C336.559 157.28 336.994 156.825 337.544 156.515C338.094 156.205 338.714 156.05 339.404 156.05C340.154 156.05 340.824 156.22 341.414 156.56C342.014 156.89 342.484 157.36 342.824 157.97C343.164 158.57 343.334 159.265 343.334 160.055C343.334 160.855 343.164 161.555 342.824 162.155C342.484 162.755 342.014 163.225 341.414 163.565C340.824 163.905 340.154 164.075 339.404 164.075ZM335.339 166.91V156.125H336.359V158.495L336.254 160.07L336.404 161.66V166.91H335.339ZM339.329 163.13C339.889 163.13 340.389 163.005 340.829 162.755C341.269 162.495 341.619 162.135 341.879 161.675C342.139 161.205 342.269 160.665 342.269 160.055C342.269 159.445 342.139 158.91 341.879 158.45C341.619 157.99 341.269 157.63 340.829 157.37C340.389 157.11 339.889 156.98 339.329 156.98C338.769 156.98 338.264 157.11 337.814 157.37C337.374 157.63 337.024 157.99 336.764 158.45C336.514 158.91 336.389 159.445 336.389 160.055C336.389 160.665 336.514 161.205 336.764 161.675C337.024 162.135 337.374 162.495 337.814 162.755C338.264 163.005 338.769 163.13 339.329 163.13ZM345.478 164.075C345.258 164.075 345.068 163.995 344.908 163.835C344.758 163.675 344.683 163.48 344.683 163.25C344.683 163.01 344.758 162.815 344.908 162.665C345.068 162.515 345.258 162.44 345.478 162.44C345.698 162.44 345.883 162.515 346.033 162.665C346.193 162.815 346.273 163.01 346.273 163.25C346.273 163.48 346.193 163.675 346.033 163.835C345.883 163.995 345.698 164.075 345.478 164.075Z" fill="black"/>
<path d="M52.8574 205.428H71.1431M55.1431 200.857H68.8574C69.4636 200.857 70.045 201.098 70.4737 201.526C70.9023 201.955 71.1431 202.536 71.1431 203.143V216.857C71.1431 217.463 70.9023 218.045 70.4737 218.473C70.045 218.902 69.4636 219.143 68.8574 219.143H55.1431C54.5369 219.143 53.9555 218.902 53.5269 218.473C53.0982 218.045 52.8574 217.463 52.8574 216.857V203.143C52.8574 202.536 53.0982 201.955 53.5269 201.526C53.9555 201.098 54.5369 200.857 55.1431 200.857Z" stroke="black" stroke-linecap="round" stroke-linejoin="round"/>
<path d="M62.0003 211.143C62.6315 211.143 63.1431 210.631 63.1431 210C63.1431 209.369 62.6315 208.857 62.0003 208.857C61.3691 208.857 60.8574 209.369 60.8574 210C60.8574 210.631 61.3691 211.143 62.0003 211.143Z" fill="black"/>
<path d="M57.428 211.143C58.0592 211.143 58.5709 210.631 58.5709 210C58.5709 209.369 58.0592 208.857 57.428 208.857C56.7968 208.857 56.2852 209.369 56.2852 210C56.2852 210.631 56.7968 211.143 57.428 211.143Z" fill="black"/>
<path d="M57.428 215.714C58.0592 215.714 58.5709 215.202 58.5709 214.571C58.5709 213.94 58.0592 213.428 57.428 213.428C56.7968 213.428 56.2852 213.94 56.2852 214.571C56.2852 215.202 56.7968 215.714 57.428 215.714Z" fill="black"/>
<path d="M96.61 212V201.95L97.09 202.46H94.135V201.5H97.69V212H96.61ZM104.385 212.09C103.575 212.09 102.855 211.88 102.225 211.46C101.595 211.03 101.1 210.42 100.74 209.63C100.38 208.83 100.2 207.87 100.2 206.75C100.2 205.63 100.38 204.675 100.74 203.885C101.1 203.085 101.595 202.475 102.225 202.055C102.855 201.625 103.575 201.41 104.385 201.41C105.195 201.41 105.915 201.625 106.545 202.055C107.175 202.475 107.67 203.085 108.03 203.885C108.4 204.675 108.585 205.63 108.585 206.75C108.585 207.87 108.4 208.83 108.03 209.63C107.67 210.42 107.175 211.03 106.545 211.46C105.915 211.88 105.195 212.09 104.385 212.09ZM104.385 211.1C105.005 211.1 105.545 210.935 106.005 210.605C106.465 210.265 106.825 209.775 107.085 209.135C107.345 208.485 107.475 207.69 107.475 206.75C107.475 205.81 107.345 205.02 107.085 204.38C106.825 203.73 106.465 203.24 106.005 202.91C105.545 202.57 105.005 202.4 104.385 202.4C103.785 202.4 103.25 202.57 102.78 202.91C102.31 203.24 101.945 203.73 101.685 204.38C101.425 205.02 101.295 205.81 101.295 206.75C101.295 207.69 101.425 208.485 101.685 209.135C101.945 209.775 102.31 210.265 102.78 210.605C103.25 210.935 103.785 211.1 104.385 211.1ZM110.369 208.4V207.47H114.299V208.4H110.369ZM117.557 212V201.95L118.037 202.46H115.082V201.5H118.637V212H117.557ZM120.967 209.24V208.46L126.532 201.5H127.732L122.212 208.46L121.627 208.28H130.072V209.24H120.967ZM126.892 212V209.24L126.922 208.28V205.85H127.972V212H126.892ZM139.79 212.075C139.11 212.075 138.495 211.92 137.945 211.61C137.395 211.29 136.955 210.835 136.625 210.245C136.305 209.645 136.145 208.915 136.145 208.055C136.145 207.195 136.305 206.47 136.625 205.88C136.945 205.28 137.38 204.825 137.93 204.515C138.48 204.205 139.1 204.05 139.79 204.05C140.54 204.05 141.21 204.22 141.8 204.56C142.4 204.89 142.87 205.36 143.21 205.97C143.55 206.57 143.72 207.265 143.72 208.055C143.72 208.855 143.55 209.555 143.21 210.155C142.87 210.755 142.4 211.225 141.8 211.565C141.21 211.905 140.54 212.075 139.79 212.075ZM135.725 214.91V204.125H136.745V206.495L136.64 208.07L136.79 209.66V214.91H135.725ZM139.715 211.13C140.275 211.13 140.775 211.005 141.215 210.755C141.655 210.495 142.005 210.135 142.265 209.675C142.525 209.205 142.655 208.665 142.655 208.055C142.655 207.445 142.525 206.91 142.265 206.45C142.005 205.99 141.655 205.63 141.215 205.37C140.775 205.11 140.275 204.98 139.715 204.98C139.155 204.98 138.65 205.11 138.2 205.37C137.76 205.63 137.41 205.99 137.15 206.45C136.9 206.91 136.775 207.445 136.775 208.055C136.775 208.665 136.9 209.205 137.15 209.675C137.41 210.135 137.76 210.495 138.2 210.755C138.65 211.005 139.155 211.13 139.715 211.13ZM150.854 212V210.26L150.809 209.975V207.065C150.809 206.395 150.619 205.88 150.239 205.52C149.869 205.16 149.314 204.98 148.574 204.98C148.064 204.98 147.579 205.065 147.119 205.235C146.659 205.405 146.269 205.63 145.949 205.91L145.469 205.115C145.869 204.775 146.349 204.515 146.909 204.335C147.469 204.145 148.059 204.05 148.679 204.05C149.699 204.05 150.484 204.305 151.034 204.815C151.594 205.315 151.874 206.08 151.874 207.11V212H150.854ZM148.139 212.075C147.549 212.075 147.034 211.98 146.594 211.79C146.164 211.59 145.834 211.32 145.604 210.98C145.374 210.63 145.259 210.23 145.259 209.78C145.259 209.37 145.354 209 145.544 208.67C145.744 208.33 146.064 208.06 146.504 207.86C146.954 207.65 147.554 207.545 148.304 207.545H151.019V208.34H148.334C147.574 208.34 147.044 208.475 146.744 208.745C146.454 209.015 146.309 209.35 146.309 209.75C146.309 210.2 146.484 210.56 146.834 210.83C147.184 211.1 147.674 211.235 148.304 211.235C148.904 211.235 149.419 211.1 149.849 210.83C150.289 210.55 150.609 210.15 150.809 209.63L151.049 210.365C150.849 210.885 150.499 211.3 149.999 211.61C149.509 211.92 148.889 212.075 148.139 212.075ZM158.249 212.09C157.609 212.09 157.039 211.985 156.539 211.775C156.049 211.565 155.629 211.245 155.279 210.815C154.929 210.385 154.664 209.855 154.484 209.225C154.304 208.585 154.214 207.845 154.214 207.005C154.214 206.255 154.284 205.6 154.424 205.04C154.564 204.47 154.759 203.98 155.009 203.57C155.259 203.16 155.549 202.815 155.879 202.535C156.219 202.245 156.584 202.015 156.974 201.845C157.374 201.665 157.784 201.53 158.204 201.44L161.744 200.615L161.924 201.605L158.594 202.355C158.384 202.405 158.129 202.475 157.829 202.565C157.539 202.655 157.239 202.79 156.929 202.97C156.629 203.15 156.349 203.4 156.089 203.72C155.829 204.04 155.619 204.455 155.459 204.965C155.309 205.465 155.234 206.09 155.234 206.84C155.234 207 155.239 207.13 155.249 207.23C155.259 207.32 155.269 207.42 155.279 207.53C155.299 207.63 155.314 207.78 155.324 207.98L154.859 207.59C154.969 206.98 155.194 206.45 155.534 206C155.874 205.54 156.299 205.185 156.809 204.935C157.329 204.675 157.904 204.545 158.534 204.545C159.264 204.545 159.914 204.705 160.484 205.025C161.054 205.335 161.499 205.77 161.819 206.33C162.149 206.89 162.314 207.54 162.314 208.28C162.314 209.01 162.144 209.665 161.804 210.245C161.474 210.825 161.004 211.28 160.394 211.61C159.784 211.93 159.069 212.09 158.249 212.09ZM158.369 211.205C158.929 211.205 159.424 211.08 159.854 210.83C160.284 210.57 160.619 210.22 160.859 209.78C161.109 209.34 161.234 208.845 161.234 208.295C161.234 207.755 161.109 207.275 160.859 206.855C160.619 206.435 160.284 206.105 159.854 205.865C159.424 205.615 158.924 205.49 158.354 205.49C157.794 205.49 157.299 205.61 156.869 205.85C156.439 206.08 156.099 206.405 155.849 206.825C155.609 207.245 155.489 207.73 155.489 208.28C155.489 208.83 155.609 209.325 155.849 209.765C156.099 210.205 156.439 210.555 156.869 210.815C157.309 211.075 157.809 211.205 158.369 211.205ZM167.837 212.075C167.077 212.075 166.392 211.905 165.782 211.565C165.182 211.215 164.707 210.74 164.357 210.14C164.007 209.53 163.832 208.835 163.832 208.055C163.832 207.265 164.007 206.57 164.357 205.97C164.707 205.37 165.182 204.9 165.782 204.56C166.382 204.22 167.067 204.05 167.837 204.05C168.617 204.05 169.307 204.22 169.907 204.56C170.517 204.9 170.992 205.37 171.332 205.97C171.682 206.57 171.857 207.265 171.857 208.055C171.857 208.835 171.682 209.53 171.332 210.14C170.992 210.74 170.517 211.215 169.907 211.565C169.297 211.905 168.607 212.075 167.837 212.075ZM167.837 211.13C168.407 211.13 168.912 211.005 169.352 210.755C169.792 210.495 170.137 210.135 170.387 209.675C170.647 209.205 170.777 208.665 170.777 208.055C170.777 207.435 170.647 206.895 170.387 206.435C170.137 205.975 169.792 205.62 169.352 205.37C168.912 205.11 168.412 204.98 167.852 204.98C167.292 204.98 166.792 205.11 166.352 205.37C165.912 205.62 165.562 205.975 165.302 206.435C165.042 206.895 164.912 207.435 164.912 208.055C164.912 208.665 165.042 209.205 165.302 209.675C165.562 210.135 165.912 210.495 166.352 210.755C166.792 211.005 167.287 211.13 167.837 211.13ZM179.113 208.67C178.653 208.87 178.188 209.03 177.718 209.15C177.258 209.26 176.798 209.315 176.338 209.315C175.408 209.315 174.673 209.105 174.133 208.685C173.593 208.255 173.323 207.595 173.323 206.705V204.125H174.373V206.645C174.373 207.245 174.568 207.695 174.958 207.995C175.348 208.295 175.873 208.445 176.533 208.445C176.933 208.445 177.353 208.395 177.793 208.295C178.233 208.185 178.678 208.03 179.128 207.83L179.113 208.67ZM179.023 212V204.125H180.088V212H179.023ZM183.113 212V204.125H184.178V210.38L189.443 204.125H190.388V212H189.323V205.73L184.073 212H183.113ZM192.15 212L195.48 207.68L195.465 208.205L192.3 204.125H193.5L196.095 207.5L195.645 207.485L198.24 204.125H199.41L196.215 208.25L196.23 207.68L199.59 212H198.375L195.63 208.4L196.05 208.46L193.35 212H192.15ZM210.661 211.49V205.055H206.866L206.776 206.81C206.756 207.34 206.721 207.86 206.671 208.37C206.631 208.88 206.556 209.35 206.446 209.78C206.346 210.2 206.201 210.545 206.011 210.815C205.821 211.075 205.576 211.225 205.276 211.265L204.211 211.07C204.521 211.08 204.776 210.97 204.976 210.74C205.176 210.5 205.331 210.175 205.441 209.765C205.551 209.355 205.631 208.89 205.681 208.37C205.731 207.84 205.771 207.3 205.801 206.75L205.906 204.125H211.726V211.49H210.661ZM203.881 213.905V211.07H212.956V213.905H211.951V212H204.886V213.905H203.881ZM215.032 212V204.125H216.097V207.605H221.062V204.125H222.127V212H221.062V208.52H216.097V212H215.032ZM230.239 212V209.165L230.434 209.39H227.764C226.754 209.39 225.964 209.17 225.394 208.73C224.824 208.29 224.539 207.65 224.539 206.81C224.539 205.91 224.844 205.24 225.454 204.8C226.064 204.35 226.879 204.125 227.899 204.125H231.214V212H230.239ZM224.479 212L226.639 208.97H227.749L225.634 212H224.479ZM230.239 208.85V204.74L230.434 205.055H227.929C227.199 205.055 226.629 205.195 226.219 205.475C225.819 205.755 225.619 206.21 225.619 206.84C225.619 208.01 226.364 208.595 227.854 208.595H230.434L230.239 208.85Z" fill="black"/>
<path d="M58.25 267H64.25M52.25 261.75H71.75M67.25 267H68.75M53.75 257.25C53 257.25 52.25 258 52.25 258.75V269.25C52.25 270 53 270.75 53.75 270.75H70.25C71 270.75 71.75 270 71.75 269.25V258.75C71.75 258 71 257.25 70.25 257.25H53.75Z" stroke="black" stroke-width="2" stroke-linecap="round" stroke-linejoin="round"/>
<path d="M100.375 266.09C99.585 266.09 98.85 265.96 98.17 265.7C97.5 265.43 96.915 265.055 96.415 264.575C95.925 264.085 95.54 263.52 95.26 262.88C94.99 262.23 94.855 261.52 94.855 260.75C94.855 259.98 94.99 259.275 95.26 258.635C95.54 257.985 95.925 257.42 96.415 256.94C96.915 256.45 97.5 256.075 98.17 255.815C98.84 255.545 99.575 255.41 100.375 255.41C101.165 255.41 101.895 255.545 102.565 255.815C103.235 256.075 103.815 256.445 104.305 256.925C104.805 257.405 105.19 257.97 105.46 258.62C105.74 259.27 105.88 259.98 105.88 260.75C105.88 261.52 105.74 262.23 105.46 262.88C105.19 263.53 104.805 264.095 104.305 264.575C103.815 265.055 103.235 265.43 102.565 265.7C101.895 265.96 101.165 266.09 100.375 266.09ZM100.375 265.1C101.005 265.1 101.585 264.995 102.115 264.785C102.655 264.565 103.12 264.26 103.51 263.87C103.91 263.47 104.22 263.01 104.44 262.49C104.66 261.96 104.77 261.38 104.77 260.75C104.77 260.12 104.66 259.545 104.44 259.025C104.22 258.495 103.91 258.035 103.51 257.645C103.12 257.245 102.655 256.94 102.115 256.73C101.585 256.51 101.005 256.4 100.375 256.4C99.745 256.4 99.16 256.51 98.62 256.73C98.08 256.94 97.61 257.245 97.21 257.645C96.82 258.035 96.51 258.495 96.28 259.025C96.06 259.545 95.95 260.12 95.95 260.75C95.95 261.37 96.06 261.945 96.28 262.475C96.51 263.005 96.82 263.47 97.21 263.87C97.61 264.26 98.08 264.565 98.62 264.785C99.16 264.995 99.745 265.1 100.375 265.1ZM108.274 266V258.125H115.354V266H114.289V258.77L114.559 259.055H109.069L109.339 258.77V266H108.274ZM116.941 265.985L117.016 265.07C117.086 265.08 117.151 265.095 117.211 265.115C117.281 265.125 117.341 265.13 117.391 265.13C117.711 265.13 117.966 265.01 118.156 264.77C118.356 264.53 118.506 264.21 118.606 263.81C118.706 263.41 118.776 262.96 118.816 262.46C118.856 261.95 118.891 261.44 118.921 260.93L119.056 258.125H124.831V266H123.766V258.74L124.036 259.055H119.746L120.001 258.725L119.881 261.005C119.851 261.685 119.796 262.335 119.716 262.955C119.646 263.575 119.531 264.12 119.371 264.59C119.221 265.06 119.011 265.43 118.741 265.7C118.471 265.96 118.126 266.09 117.706 266.09C117.586 266.09 117.461 266.08 117.331 266.06C117.211 266.04 117.081 266.015 116.941 265.985ZM132.749 266V264.26L132.704 263.975V261.065C132.704 260.395 132.514 259.88 132.134 259.52C131.764 259.16 131.209 258.98 130.469 258.98C129.959 258.98 129.474 259.065 129.014 259.235C128.554 259.405 128.164 259.63 127.844 259.91L127.364 259.115C127.764 258.775 128.244 258.515 128.804 258.335C129.364 258.145 129.954 258.05 130.574 258.05C131.594 258.05 132.379 258.305 132.929 258.815C133.489 259.315 133.769 260.08 133.769 261.11V266H132.749ZM130.034 266.075C129.444 266.075 128.929 265.98 128.489 265.79C128.059 265.59 127.729 265.32 127.499 264.98C127.269 264.63 127.154 264.23 127.154 263.78C127.154 263.37 127.249 263 127.439 262.67C127.639 262.33 127.959 262.06 128.399 261.86C128.849 261.65 129.449 261.545 130.199 261.545H132.914V262.34H130.229C129.469 262.34 128.939 262.475 128.639 262.745C128.349 263.015 128.204 263.35 128.204 263.75C128.204 264.2 128.379 264.56 128.729 264.83C129.079 265.1 129.569 265.235 130.199 265.235C130.799 265.235 131.314 265.1 131.744 264.83C132.184 264.55 132.504 264.15 132.704 263.63L132.944 264.365C132.744 264.885 132.394 265.3 131.894 265.61C131.404 265.92 130.784 266.075 130.034 266.075ZM138.104 266V258.77L138.374 259.055H135.119V258.125H142.154V259.055H138.899L139.169 258.77V266H138.104ZM148.584 266V264.26L148.539 263.975V261.065C148.539 260.395 148.349 259.88 147.969 259.52C147.599 259.16 147.044 258.98 146.304 258.98C145.794 258.98 145.309 259.065 144.849 259.235C144.389 259.405 143.999 259.63 143.679 259.91L143.199 259.115C143.599 258.775 144.079 258.515 144.639 258.335C145.199 258.145 145.789 258.05 146.409 258.05C147.429 258.05 148.214 258.305 148.764 258.815C149.324 259.315 149.604 260.08 149.604 261.11V266H148.584ZM145.869 266.075C145.279 266.075 144.764 265.98 144.324 265.79C143.894 265.59 143.564 265.32 143.334 264.98C143.104 264.63 142.989 264.23 142.989 263.78C142.989 263.37 143.084 263 143.274 262.67C143.474 262.33 143.794 262.06 144.234 261.86C144.684 261.65 145.284 261.545 146.034 261.545H148.749V262.34H146.064C145.304 262.34 144.774 262.475 144.474 262.745C144.184 263.015 144.039 263.35 144.039 263.75C144.039 264.2 144.214 264.56 144.564 264.83C144.914 265.1 145.404 265.235 146.034 265.235C146.634 265.235 147.149 265.1 147.579 264.83C148.019 264.55 148.339 264.15 148.539 263.63L148.779 264.365C148.579 264.885 148.229 265.3 147.729 265.61C147.239 265.92 146.619 266.075 145.869 266.075ZM159.605 266.075C158.845 266.075 158.16 265.905 157.55 265.565C156.95 265.215 156.475 264.74 156.125 264.14C155.775 263.53 155.6 262.835 155.6 262.055C155.6 261.265 155.775 260.57 156.125 259.97C156.475 259.37 156.95 258.9 157.55 258.56C158.15 258.22 158.835 258.05 159.605 258.05C160.385 258.05 161.075 258.22 161.675 258.56C162.285 258.9 162.76 259.37 163.1 259.97C163.45 260.57 163.625 261.265 163.625 262.055C163.625 262.835 163.45 263.53 163.1 264.14C162.76 264.74 162.285 265.215 161.675 265.565C161.065 265.905 160.375 266.075 159.605 266.075ZM159.605 265.13C160.175 265.13 160.68 265.005 161.12 264.755C161.56 264.495 161.905 264.135 162.155 263.675C162.415 263.205 162.545 262.665 162.545 262.055C162.545 261.435 162.415 260.895 162.155 260.435C161.905 259.975 161.56 259.62 161.12 259.37C160.68 259.11 160.18 258.98 159.62 258.98C159.06 258.98 158.56 259.11 158.12 259.37C157.68 259.62 157.33 259.975 157.07 260.435C156.81 260.895 156.68 261.435 156.68 262.055C156.68 262.665 156.81 263.205 157.07 263.675C157.33 264.135 157.68 264.495 158.12 264.755C158.56 265.005 159.055 265.13 159.605 265.13ZM165.901 266V258.125H166.966V261.605H171.931V258.125H172.996V266H171.931V262.52H166.966V266H165.901ZM174.583 265.985L174.658 265.07C174.728 265.08 174.793 265.095 174.853 265.115C174.923 265.125 174.983 265.13 175.033 265.13C175.353 265.13 175.608 265.01 175.798 264.77C175.998 264.53 176.148 264.21 176.248 263.81C176.348 263.41 176.418 262.96 176.458 262.46C176.498 261.95 176.533 261.44 176.563 260.93L176.698 258.125H182.473V266H181.408V258.74L181.678 259.055H177.388L177.643 258.725L177.523 261.005C177.493 261.685 177.438 262.335 177.358 262.955C177.288 263.575 177.173 264.12 177.013 264.59C176.863 265.06 176.653 265.43 176.383 265.7C176.113 265.96 175.768 266.09 175.348 266.09C175.228 266.09 175.103 266.08 174.973 266.06C174.853 266.04 174.723 266.015 174.583 265.985ZM190.39 266V264.26L190.345 263.975V261.065C190.345 260.395 190.155 259.88 189.775 259.52C189.405 259.16 188.85 258.98 188.11 258.98C187.6 258.98 187.115 259.065 186.655 259.235C186.195 259.405 185.805 259.63 185.485 259.91L185.005 259.115C185.405 258.775 185.885 258.515 186.445 258.335C187.005 258.145 187.595 258.05 188.215 258.05C189.235 258.05 190.02 258.305 190.57 258.815C191.13 259.315 191.41 260.08 191.41 261.11V266H190.39ZM187.675 266.075C187.085 266.075 186.57 265.98 186.13 265.79C185.7 265.59 185.37 265.32 185.14 264.98C184.91 264.63 184.795 264.23 184.795 263.78C184.795 263.37 184.89 263 185.08 262.67C185.28 262.33 185.6 262.06 186.04 261.86C186.49 261.65 187.09 261.545 187.84 261.545H190.555V262.34H187.87C187.11 262.34 186.58 262.475 186.28 262.745C185.99 263.015 185.845 263.35 185.845 263.75C185.845 264.2 186.02 264.56 186.37 264.83C186.72 265.1 187.21 265.235 187.84 265.235C188.44 265.235 188.955 265.1 189.385 264.83C189.825 264.55 190.145 264.15 190.345 263.63L190.585 264.365C190.385 264.885 190.035 265.3 189.535 265.61C189.045 265.92 188.425 266.075 187.675 266.075ZM194.245 266V258.125H195.31V264.38L200.575 258.125H201.52V266H200.455V259.73L195.205 266H194.245ZM197.815 256.985C197.155 256.985 196.62 256.82 196.21 256.49C195.81 256.15 195.6 255.665 195.58 255.035H196.345C196.355 255.435 196.495 255.75 196.765 255.98C197.035 256.21 197.385 256.325 197.815 256.325C198.245 256.325 198.595 256.21 198.865 255.98C199.145 255.75 199.29 255.435 199.3 255.035H200.065C200.055 255.665 199.845 256.15 199.435 256.49C199.025 256.82 198.485 256.985 197.815 256.985ZM204.573 266V258.125H205.638V261.605H210.603V258.125H211.668V266H210.603V262.52H205.638V266H204.573Z" fill="black"/>
</svg>
