<svg width="25" height="26" viewBox="0 0 25 26" fill="none" xmlns="http://www.w3.org/2000/svg">
<path d="M23.6988 17.5376L17.7938 14.8913C17.5262 14.7767 17.2343 14.7306 16.9444 14.7572C16.6546 14.7838 16.3759 14.8824 16.1338 15.0438C16.1092 15.0596 16.0858 15.0771 16.0638 15.0963L12.9775 17.7213C12.9455 17.7388 12.9098 17.7485 12.8734 17.7498C12.837 17.7512 12.8007 17.744 12.7675 17.7288C10.7838 16.7713 8.72876 14.7288 7.76751 12.7726C7.75151 12.7399 7.74319 12.704 7.74319 12.6676C7.74319 12.6312 7.75151 12.5953 7.76751 12.5626L10.4013 9.43757C10.4202 9.41445 10.4377 9.39024 10.4538 9.36507C10.613 9.12195 10.7092 8.843 10.7336 8.55341C10.7581 8.26381 10.71 7.97269 10.5938 7.70632L7.96627 1.81132C7.81705 1.46333 7.559 1.17312 7.23084 0.984253C6.90268 0.795381 6.52212 0.718035 6.14626 0.763822C4.5128 0.978567 3.01341 1.78074 1.92829 3.02045C0.843179 4.26015 0.24659 5.85255 0.250015 7.50007C0.250015 17.2876 8.21251 25.2501 18 25.2501C19.6475 25.2532 21.2397 24.6565 22.4794 23.5715C23.719 22.4864 24.5213 20.9872 24.7363 19.3538C24.782 18.9797 24.7057 18.6009 24.5187 18.2736C24.3318 17.9464 24.0442 17.6882 23.6988 17.5376ZM18 23.7501C9.04002 23.7501 1.75001 16.4601 1.75001 7.50007C1.74584 6.21748 2.20877 4.97725 3.05232 4.01108C3.89587 3.04492 5.06233 2.41893 6.33376 2.25007H6.36251C6.41289 2.25101 6.4618 2.26715 6.50284 2.29637C6.54389 2.32559 6.57514 2.36653 6.59251 2.41382L9.23001 8.30257C9.24506 8.33531 9.25284 8.37092 9.25284 8.40695C9.25284 8.44298 9.24506 8.47858 9.23001 8.51132L6.59127 11.6438C6.57158 11.6662 6.55361 11.69 6.53752 11.7151C6.3724 11.9671 6.27516 12.2576 6.25524 12.5583C6.23531 12.8589 6.29336 13.1597 6.42376 13.4313C7.53251 15.7013 9.82001 17.9713 12.115 19.0801C12.3883 19.2098 12.6905 19.2664 12.9921 19.2445C13.2938 19.2226 13.5846 19.1229 13.8363 18.9551C13.86 18.9388 13.8838 18.9213 13.9063 18.9026L16.9913 16.2776C17.0217 16.2612 17.0554 16.2516 17.0899 16.2494C17.1244 16.2473 17.159 16.2526 17.1913 16.2651L23.0975 18.9113C23.1458 18.9319 23.1863 18.9671 23.2135 19.0119C23.2406 19.0568 23.253 19.1091 23.2488 19.1613C23.0808 20.4333 22.4554 21.6007 21.4894 22.4452C20.5235 23.2897 19.2831 23.7535 18 23.7501Z" fill="black"/>
</svg>
