<svg width="25" height="24" viewBox="0 0 25 24" fill="none" xmlns="http://www.w3.org/2000/svg">
<path d="M24.25 12C24.25 12.2652 24.1446 12.5196 23.9571 12.7071C23.7696 12.8946 23.5152 13 23.25 13H13.25V23C13.25 23.2652 13.1446 23.5196 12.9571 23.7071C12.7696 23.8946 12.5152 24 12.25 24C11.9848 24 11.7304 23.8946 11.5429 23.7071C11.3554 23.5196 11.25 23.2652 11.25 23V13H1.25C0.984784 13 0.73043 12.8946 0.542893 12.7071C0.355357 12.5196 0.25 12.2652 0.25 12C0.25 11.7348 0.355357 11.4804 0.542893 11.2929C0.73043 11.1054 0.984784 11 1.25 11H11.25V1C11.25 0.734784 11.3554 0.48043 11.5429 0.292893C11.7304 0.105357 11.9848 0 12.25 0C12.5152 0 12.7696 0.105357 12.9571 0.292893C13.1446 0.48043 13.25 0.734784 13.25 1V11H23.25C23.5152 11 23.7696 11.1054 23.9571 11.2929C24.1446 11.4804 24.25 11.7348 24.25 12Z" fill="white"/>
</svg>
