<svg width="23" height="22" viewBox="0 0 23 22" fill="none" xmlns="http://www.w3.org/2000/svg">
<path d="M11.5 21C17.023 21 21.5 16.523 21.5 11C21.5 5.477 17.023 1 11.5 1C5.977 1 1.5 5.477 1.5 11C1.5 16.523 5.977 21 11.5 21Z" stroke="black" stroke-width="1.5" stroke-linecap="round" stroke-linejoin="round"/>
<path d="M14.5 7.5C13.815 6.815 12.609 6.339 11.5 6.309M11.5 6.309C10.18 6.273 9 6.87 9 8.5C9 11.5 14.5 10 14.5 13C14.5 14.711 13.036 15.446 11.5 15.391M11.5 6.309V4.5M8.5 14C9.144 14.86 10.343 15.35 11.5 15.391M11.5 15.391V17.5" stroke="black" stroke-width="1.5" stroke-linecap="round" stroke-linejoin="round"/>
</svg>
