<svg width="21" height="20" viewBox="0 0 21 20" fill="none" xmlns="http://www.w3.org/2000/svg">
<path d="M1.35742 5.42836H19.6431M3.64314 0.856934H17.3574C17.9636 0.856934 18.545 1.09775 18.9737 1.5264C19.4023 1.95506 19.6431 2.53644 19.6431 3.14265V16.8569C19.6431 17.4631 19.4023 18.0445 18.9737 18.4732C18.545 18.9018 17.9636 19.1426 17.3574 19.1426H3.64314C3.03693 19.1426 2.45555 18.9018 2.02689 18.4732C1.59824 18.0445 1.35742 17.4631 1.35742 16.8569V3.14265C1.35742 2.53644 1.59824 1.95506 2.02689 1.5264C2.45555 1.09775 3.03693 0.856934 3.64314 0.856934Z" stroke="black" stroke-linecap="round" stroke-linejoin="round"/>
<path d="M10.5003 11.1426C11.1315 11.1426 11.6431 10.631 11.6431 9.99979C11.6431 9.36861 11.1315 8.85693 10.5003 8.85693C9.8691 8.85693 9.35742 9.36861 9.35742 9.99979C9.35742 10.631 9.8691 11.1426 10.5003 11.1426Z" fill="black"/>
<path d="M5.92801 11.1426C6.5592 11.1426 7.07087 10.631 7.07087 9.99979C7.07087 9.36861 6.5592 8.85693 5.92801 8.85693C5.29683 8.85693 4.78516 9.36861 4.78516 9.99979C4.78516 10.631 5.29683 11.1426 5.92801 11.1426Z" fill="black"/>
<path d="M5.92801 15.7139C6.5592 15.7139 7.07087 15.2023 7.07087 14.5711C7.07087 13.9399 6.5592 13.4282 5.92801 13.4282C5.29683 13.4282 4.78516 13.9399 4.78516 14.5711C4.78516 15.2023 5.29683 15.7139 5.92801 15.7139Z" fill="black"/>
</svg>
