<svg width="32" height="21" viewBox="0 0 32 21" fill="none" xmlns="http://www.w3.org/2000/svg">
<path fill-rule="evenodd" clip-rule="evenodd" d="M31.2063 16.9864C30.481 15.5257 29.5252 14.1913 28.3757 13.0344C27.9912 12.5999 27.5886 12.1818 27.169 11.7811L27.1183 11.7317C26.9626 11.5804 26.8088 11.4271 26.657 11.2717C28.2285 9.08652 29.5732 6.74689 30.6703 4.28907L30.7143 4.1904L30.745 4.0864C30.8903 3.6024 31.0557 2.6824 30.469 1.8504C29.861 0.991738 28.889 0.837071 28.237 0.837071H25.241C24.6137 0.808483 23.9934 0.979069 23.4689 1.32442C22.9444 1.66976 22.5426 2.17217 22.321 2.75974C21.6762 4.29526 20.869 5.75736 19.913 7.12107V3.6104C19.913 3.15707 19.8703 2.39707 19.3837 1.75707C18.8023 0.989071 17.961 0.837071 17.377 0.837071H12.6223C12.0019 0.822795 11.3997 1.04769 10.9406 1.46517C10.4814 1.88265 10.2004 2.46075 10.1557 3.07974L10.1517 3.13974V3.19974C10.1517 3.8464 10.4077 4.32374 10.613 4.62374C10.705 4.7584 10.8023 4.88107 10.865 4.9584L10.8783 4.97574C10.945 5.0584 10.989 5.11307 11.033 5.1744C11.1503 5.33174 11.317 5.57707 11.365 6.20907V8.17307C10.4106 6.57483 9.62799 4.88006 9.03034 3.11707L9.01967 3.08774L9.00901 3.05974C8.84634 2.6344 8.58634 2.01574 8.06501 1.54374C7.45701 0.990405 6.73701 0.837071 6.08234 0.837071H3.04234C2.37967 0.837071 1.58101 0.991738 0.985008 1.61974C0.399675 2.2384 0.333008 2.97974 0.333008 3.37174V3.5504L0.370341 3.72374C1.21208 7.63144 2.94665 11.2914 5.43834 14.4171C6.57751 16.2135 8.12405 17.7161 9.95254 18.803C11.781 19.89 13.84 20.5306 15.9623 20.6731L16.017 20.6771H16.073C17.041 20.6771 18.0503 20.5931 18.809 20.0877C19.8317 19.4051 19.913 18.3584 19.913 17.8357V16.3184C20.1757 16.5317 20.501 16.8171 20.8997 17.2011C21.3823 17.6837 21.7663 18.1024 22.0957 18.4677L22.2717 18.6624C22.5277 18.9477 22.7797 19.2291 23.009 19.4597C23.297 19.7491 23.653 20.0677 24.0983 20.3037C24.5823 20.5584 25.0903 20.6744 25.629 20.6744H28.6703C29.3117 20.6744 30.2303 20.5224 30.877 19.7731C31.581 18.9571 31.5277 17.9557 31.3063 17.2371L31.2663 17.1077L31.2063 16.9864ZM23.5797 17.1277C23.1664 16.6658 22.741 16.215 22.3037 15.7757L22.2997 15.7717C20.4903 14.0277 19.6463 13.7251 19.049 13.7251C18.7303 13.7251 18.3797 13.7597 18.1517 14.0451C18.049 14.1812 17.9817 14.3406 17.9557 14.5091C17.9235 14.7047 17.9093 14.9029 17.913 15.1011V17.8357C17.913 18.1757 17.857 18.3184 17.6997 18.4224C17.4903 18.5624 17.0437 18.6757 16.085 18.6757C14.264 18.5518 12.4983 17.9975 10.9332 17.0582C9.36817 16.119 8.04837 14.8217 7.08234 13.2731L7.07167 13.2557L7.05834 13.2397C4.73716 10.3506 3.11947 6.9614 2.33301 3.33974C2.33834 3.1664 2.37567 3.06107 2.43701 2.99707C2.49967 2.9304 2.65301 2.83707 3.04234 2.83707H6.08234C6.41967 2.83707 6.59567 2.91174 6.72234 3.02507C6.86367 3.15574 6.98901 3.37574 7.13834 3.76774C7.88501 5.96241 8.89301 8.01574 9.84901 9.52374C10.3263 10.2784 10.7957 10.9064 11.2197 11.3504C11.4317 11.5717 11.6383 11.7557 11.837 11.8864C12.0277 12.0117 12.245 12.1117 12.469 12.1117C12.5863 12.1117 12.7237 12.0984 12.8557 12.0411C12.9982 11.9781 13.1156 11.8692 13.189 11.7317C13.3263 11.4811 13.365 11.1117 13.365 10.6277V6.1304C13.2943 5.03974 12.965 4.42507 12.645 3.98907C12.5802 3.90186 12.5135 3.81607 12.445 3.73174L12.4277 3.7104C12.3708 3.64134 12.3166 3.57018 12.265 3.49707C12.1994 3.41553 12.1599 3.31609 12.1517 3.21174C12.1621 3.10579 12.2127 3.00784 12.293 2.93794C12.3733 2.86804 12.4773 2.83148 12.5837 2.83574H17.377C17.6517 2.83574 17.7437 2.9024 17.7903 2.96507C17.857 3.05174 17.913 3.23174 17.913 3.6104V9.64774C17.913 10.3651 18.2437 10.8504 18.7237 10.8504C19.2757 10.8504 19.6743 10.5157 20.3703 9.81974L20.3823 9.8064L20.393 9.7944C21.9543 7.89078 23.2299 5.76984 24.1797 3.4984L24.185 3.4824C24.2564 3.28172 24.3914 3.10989 24.5696 2.99313C24.7477 2.87637 24.9592 2.8211 25.1717 2.83574H28.2383C28.6543 2.83574 28.7903 2.9424 28.8357 3.00507C28.8823 3.07174 28.9157 3.2144 28.8357 3.4944C27.7405 5.94288 26.3865 8.26721 24.797 10.4277L24.7863 10.4437C24.633 10.6797 24.4637 10.9411 24.4397 11.2397C24.413 11.5624 24.5517 11.8544 24.7957 12.1691C24.973 12.4304 25.3397 12.7891 25.7117 13.1531L25.7463 13.1877C26.1357 13.5691 26.5583 13.9824 26.897 14.3824L26.9063 14.3917L26.9157 14.4024C27.9256 15.4097 28.7653 16.5742 29.4023 17.8504C29.5037 18.1971 29.4423 18.3757 29.3623 18.4677C29.2703 18.5744 29.0637 18.6744 28.6717 18.6744H25.629C25.4216 18.6795 25.2164 18.6313 25.033 18.5344C24.8082 18.4036 24.6042 18.2401 24.4277 18.0491C24.237 17.8584 24.0303 17.6277 23.777 17.3464L23.581 17.1277H23.5797Z" fill="black"/>
</svg>
